{
  "source": {
    "song": "Ventura",
    "track_index": 0,
    "track_name": "2-Pigments",
    "slot_index": 0,
    "clip_name": "clip0",
    "als_file": "/Users/darnold/MusicScraps/Ventura Project/Ventura.als"
  },
  "meta": {
    "bpm": 92.0,
    "key": "D",
    "scale": "aeolian",
    "length_beats": 16.0,
    "note_count": 20
  },
  "rhythm": {
    "density": 0.625,
    "hit_positions": [
      0.0,
      0.25,
      0.75,
      2.0,
      2.5,
      3.0,
      3.25,
      3.75,
      5.0,
      5.5,
      8.0,
      8.25,
      8.75,
      10.0,
      10.5,
      11.0,
      11.25,
      11.75,
      13.0,
      13.5
    ],
    "ioi": [
      0.25,
      0.5,
      1.25,
      0.5,
      0.5,
      0.25,
      0.5,
      1.25,
      0.5,
      2.5,
      0.25,
      0.5,
      1.25,
      0.5,
      0.5,
      0.25,
      0.5,
      1.25,
      0.5,
      2.5
    ],
    "grid": "8th",
    "euclidean_approx": [
      20,
      64
    ],
    "swing_ratio": 1.0
  },
  "pitch": {
    "notes_used": [
      55,
      56,
      65,
      67
    ],
    "intervals": [
      0,
      1,
      9,
      2,
      12,
      0,
      1,
      9,
      2,
      12,
      0,
      1,
      9,
      2,
      12,
      0,
      1,
      9,
      2
    ],
    "register": "mid",
    "is_melodic": true,
    "pitch_range": 12,
    "pitch_distribution": {
      "55": 8,
      "56": 4,
      "65": 4,
      "67": 4
    }
  },
  "velocity": {
    "mean": 75.0,
    "variance": 0.0,
    "std": 0.0,
    "accents": [],
    "profile": [
      75,
      75,
      75,
      75,
      75,
      75,
      75,
      75,
      75,
      75,
      75,
      75,
      75,
      75,
      75,
      75,
      75,
      75,
      75,
      75
    ]
  },
  "notes": [
    {
      "pitch": 55,
      "start_time": 0.0,
      "duration": 0.25,
      "velocity": 75
    },
    {
      "pitch": 55,
      "start_time": 0.25,
      "duration": 0.25,
      "velocity": 75
    },
    {
      "pitch": 56,
      "start_time": 0.75,
      "duration": 0.25,
      "velocity": 75
    },
    {
      "pitch": 65,
      "start_time": 2.0,
      "duration": 0.25,
      "velocity": 75
    },
    {
      "pitch": 67,
      "start_time": 2.5,
      "duration": 0.25,
      "velocity": 75
    },
    {
      "pitch": 55,
      "start_time": 3.0,
      "duration": 0.25,
      "velocity": 75
    },
    {
      "pitch": 55,
      "start_time": 3.25,
      "duration": 0.25,
      "velocity": 75
    },
    {
      "pitch": 56,
      "start_time": 3.75,
      "duration": 0.25,
      "velocity": 75
    },
    {
      "pitch": 65,
      "start_time": 5.0,
      "duration": 0.25,
      "velocity": 75
    },
    {
      "pitch": 67,
      "start_time": 5.5,
      "duration": 0.25,
      "velocity": 75
    },
    {
      "pitch": 55,
      "start_time": 8.0,
      "duration": 0.25,
      "velocity": 75
    },
    {
      "pitch": 55,
      "start_time": 8.25,
      "duration": 0.25,
      "velocity": 75
    },
    {
      "pitch": 56,
      "start_time": 8.75,
      "duration": 0.25,
      "velocity": 75
    },
    {
      "pitch": 65,
      "start_time": 10.0,
      "duration": 0.25,
      "velocity": 75
    },
    {
      "pitch": 67,
      "start_time": 10.5,
      "duration": 0.25,
      "velocity": 75
    },
    {
      "pitch": 55,
      "start_time": 11.0,
      "duration": 0.25,
      "velocity": 75
    },
    {
      "pitch": 55,
      "start_time": 11.25,
      "duration": 0.25,
      "velocity": 75
    },
    {
      "pitch": 56,
      "start_time": 11.75,
      "duration": 0.25,
      "velocity": 75
    },
    {
      "pitch": 65,
      "start_time": 13.0,
      "duration": 0.25,
      "velocity": 75
    },
    {
      "pitch": 67,
      "start_time": 13.5,
      "duration": 0.25,
      "velocity": 75
    }
  ]
}