{
  "source": {
    "song": "packs",
    "track_index": 0,
    "track_name": "Beat Tools / MIDI Clips / 110 - 124 bpm / Azimuth Kit groove 02_114 bpm",
    "slot_index": 0,
    "clip_name": "Beat Tools / MIDI Clips / 110 - 124 bpm / Azimuth Kit groove 02_114 bpm",
    "mid_file": "/Users/darnold/Music/Ableton/Packs/Beat Tools/MIDI Clips/110 - 124 bpm/Azimuth Kit groove 02_114 bpm.alc"
  },
  "meta": {
    "bpm": 114.0,
    "key": "?",
    "scale": "?",
    "length_beats": 8.0,
    "note_count": 78
  },
  "rhythm": {
    "density": 1.031,
    "hit_positions": [
      0.0,
      0.0,
      0.0,
      0.25,
      0.5,
      0.5,
      0.5,
      0.5,
      1.0,
      1.0,
      1.0,
      1.0,
      1.5,
      1.5,
      1.5,
      2.0,
      2.0,
      2.0,
      2.0,
      2.25,
      2.5,
      2.5,
      2.5,
      2.75,
      3.0,
      3.0,
      3.0,
      3.125,
      3.25,
      3.375,
      3.5,
      3.5,
      3.5,
      3.5,
      3.625,
      3.75,
      3.875,
      4.0,
      4.0,
      4.0,
      4.0,
      4.5,
      4.5,
      4.75,
      5.0,
      5.0,
      5.0,
      5.0,
      5.5,
      5.5,
      5.5,
      5.5,
      5.75,
      6.0,
      6.0,
      6.0,
      6.0,
      6.0,
      6.5,
      6.5,
      6.5,
      6.625,
      6.75,
      6.75,
      6.75,
      6.875,
      7.0,
      7.0,
      7.0,
      7.0,
      7.5,
      7.5,
      7.5,
      7.5,
      7.625,
      7.75,
      7.75,
      7.875
    ],
    "ioi": [
      0.0,
      0.0,
      0.25,
      0.25,
      0.0,
      0.0,
      0.0,
      0.5,
      0.0,
      0.0,
      0.0,
      0.5,
      0.0,
      0.0,
      0.5,
      0.0,
      0.0,
      0.0,
      0.25,
      0.25,
      0.0,
      0.0,
      0.25,
      0.25,
      0.0,
      0.0,
      0.125,
      0.125,
      0.125,
      0.125,
      0.0,
      0.0,
      0.0,
      0.125,
      0.125,
      0.125,
      0.125,
      0.0,
      0.0,
      0.0,
      0.5,
      0.0,
      0.25,
      0.25,
      0.0,
      0.0,
      0.0,
      0.5,
      0.0,
      0.0,
      0.0,
      0.25,
      0.25,
      0.0,
      0.0,
      0.0,
      0.0,
      0.5,
      0.0,
      0.0,
      0.125,
      0.125,
      0.0,
      0.0,
      0.125,
      0.125,
      0.0,
      0.0,
      0.0,
      0.5,
      0.0,
      0.0,
      0.0,
      0.125,
      0.125,
      0.0,
      0.125,
      0.125
    ],
    "grid": "16th",
    "euclidean_approx": [
      32,
      32
    ],
    "swing_ratio": 1.125
  },
  "pitch": {
    "notes_used": [
      36,
      37,
      40,
      42,
      45,
      47,
      49,
      50,
      51,
      53,
      54
    ],
    "intervals": [
      6,
      5,
      5,
      6,
      6,
      7,
      4,
      11,
      3,
      5,
      3,
      11,
      9,
      2,
      16,
      5,
      11,
      1,
      1,
      11,
      5,
      6,
      0,
      11,
      7,
      4,
      11,
      0,
      0,
      6,
      6,
      3,
      8,
      11,
      0,
      0,
      6,
      6,
      9,
      2,
      11,
      11,
      17,
      4,
      2,
      5,
      6,
      17,
      6,
      7,
      4,
      13,
      3,
      5,
      3,
      8,
      1,
      12,
      9,
      2,
      11,
      0,
      9,
      2,
      11,
      0,
      5,
      4,
      2,
      17,
      6,
      5,
      6,
      11,
      6,
      6,
      0
    ],
    "register": "low",
    "is_melodic": true,
    "pitch_range": 18,
    "pitch_distribution": {
      "36": 8,
      "42": 29,
      "47": 5,
      "49": 3,
      "53": 18,
      "45": 3,
      "50": 1,
      "51": 5,
      "37": 2,
      "54": 2,
      "40": 2
    }
  },
  "velocity": {
    "mean": 52.7,
    "variance": 519.1,
    "std": 22.8,
    "accents": [
      0,
      11,
      14,
      15,
      16,
      26,
      37,
      38,
      40,
      47,
      53,
      68,
      75
    ],
    "profile": [
      77,
      70,
      71,
      34,
      63,
      49,
      52,
      65,
      39,
      49,
      74,
      92,
      37,
      57,
      77,
      107,
      96,
      57,
      70,
      52,
      52,
      65,
      39,
      39,
      11,
      35,
      77,
      23,
      40,
      25,
      38,
      27,
      35,
      59,
      29,
      33,
      34,
      102,
      88,
      55,
      93,
      37,
      62,
      68,
      20,
      47,
      54,
      90,
      69,
      55,
      34,
      61,
      39,
      80,
      74,
      35,
      34,
      71,
      40,
      55,
      38,
      40,
      28,
      60,
      28,
      34,
      35,
      61,
      121,
      34,
      34,
      23,
      40,
      61,
      23,
      77,
      28,
      33
    ]
  },
  "notes": [
    {
      "pitch": 36,
      "start_time": 0.0,
      "duration": 0.0833,
      "velocity": 77
    },
    {
      "pitch": 42,
      "start_time": 0.0,
      "duration": 0.0833,
      "velocity": 70
    },
    {
      "pitch": 47,
      "start_time": 0.0,
      "duration": 0.0625,
      "velocity": 71
    },
    {
      "pitch": 42,
      "start_time": 0.25,
      "duration": 0.0521,
      "velocity": 34
    },
    {
      "pitch": 36,
      "start_time": 0.5,
      "duration": 0.1042,
      "velocity": 63
    },
    {
      "pitch": 42,
      "start_time": 0.5,
      "duration": 0.1146,
      "velocity": 49
    },
    {
      "pitch": 49,
      "start_time": 0.5,
      "duration": 0.1146,
      "velocity": 52
    },
    {
      "pitch": 53,
      "start_time": 0.5,
      "duration": 0.0417,
      "velocity": 65
    },
    {
      "pitch": 42,
      "start_time": 1.0,
      "duration": 0.1042,
      "velocity": 39
    },
    {
      "pitch": 45,
      "start_time": 1.0,
      "duration": 0.0938,
      "velocity": 49
    },
    {
      "pitch": 50,
      "start_time": 1.0,
      "duration": 6.6667,
      "velocity": 74
    },
    {
      "pitch": 53,
      "start_time": 1.0,
      "duration": 0.0521,
      "velocity": 92
    },
    {
      "pitch": 42,
      "start_time": 1.5,
      "duration": 0.0521,
      "velocity": 37
    },
    {
      "pitch": 51,
      "start_time": 1.5,
      "duration": 0.0521,
      "velocity": 57
    },
    {
      "pitch": 53,
      "start_time": 1.5,
      "duration": 0.0521,
      "velocity": 77
    },
    {
      "pitch": 37,
      "start_time": 2.0,
      "duration": 0.0729,
      "velocity": 107
    },
    {
      "pitch": 42,
      "start_time": 2.0,
      "duration": 0.0938,
      "velocity": 96
    },
    {
      "pitch": 53,
      "start_time": 2.0,
      "duration": 0.0417,
      "velocity": 57
    },
    {
      "pitch": 54,
      "start_time": 2.0,
      "duration": 1.4062,
      "velocity": 70
    },
    {
      "pitch": 53,
      "start_time": 2.25,
      "duration": 0.0833,
      "velocity": 52
    },
    {
      "pitch": 42,
      "start_time": 2.5,
      "duration": 0.0312,
      "velocity": 52
    },
    {
      "pitch": 47,
      "start_time": 2.5,
      "duration": 0.0729,
      "velocity": 65
    },
    {
      "pitch": 53,
      "start_time": 2.5,
      "duration": 0.25,
      "velocity": 39
    },
    {
      "pitch": 53,
      "start_time": 2.75,
      "duration": 0.2292,
      "velocity": 39
    },
    {
      "pitch": 42,
      "start_time": 3.0,
      "duration": 0.1042,
      "velocity": 11
    },
    {
      "pitch": 49,
      "start_time": 3.0,
      "duration": 0.1042,
      "velocity": 35
    },
    {
      "pitch": 53,
      "start_time": 3.0,
      "duration": 0.0417,
      "velocity": 77
    },
    {
      "pitch": 42,
      "start_time": 3.125,
      "duration": 0.125,
      "velocity": 23
    },
    {
      "pitch": 42,
      "start_time": 3.25,
      "duration": 0.125,
      "velocity": 40
    },
    {
      "pitch": 42,
      "start_time": 3.375,
      "duration": 0.125,
      "velocity": 25
    },
    {
      "pitch": 36,
      "start_time": 3.5,
      "duration": 0.0521,
      "velocity": 38
    },
    {
      "pitch": 42,
      "start_time": 3.5,
      "duration": 0.125,
      "velocity": 27
    },
    {
      "pitch": 45,
      "start_time": 3.5,
      "duration": 0.0833,
      "velocity": 35
    },
    {
      "pitch": 53,
      "start_time": 3.5,
      "duration": 0.0417,
      "velocity": 59
    },
    {
      "pitch": 42,
      "start_time": 3.625,
      "duration": 0.125,
      "velocity": 29
    },
    {
      "pitch": 42,
      "start_time": 3.75,
      "duration": 0.125,
      "velocity": 33
    },
    {
      "pitch": 42,
      "start_time": 3.875,
      "duration": 0.0625,
      "velocity": 34
    },
    {
      "pitch": 36,
      "start_time": 4.0,
      "duration": 0.0938,
      "velocity": 102
    },
    {
      "pitch": 42,
      "start_time": 4.0,
      "duration": 0.1042,
      "velocity": 88
    },
    {
      "pitch": 51,
      "start_time": 4.0,
      "duration": 0.0833,
      "velocity": 55
    },
    {
      "pitch": 53,
      "start_time": 4.0,
      "duration": 0.0417,
      "velocity": 93
    },
    {
      "pitch": 42,
      "start_time": 4.5,
      "duration": 0.0833,
      "velocity": 37
    },
    {
      "pitch": 53,
      "start_time": 4.5,
      "duration": 0.0521,
      "velocity": 62
    },
    {
      "pitch": 36,
      "start_time": 4.75,
      "duration": 0.125,
      "velocity": 68
    },
    {
      "pitch": 40,
      "start_time": 5.0,
      "duration": 0.0417,
      "velocity": 20
    },
    {
      "pitch": 42,
      "start_time": 5.0,
      "duration": 0.0938,
      "velocity": 47
    },
    {
      "pitch": 47,
      "start_time": 5.0,
      "duration": 0.0729,
      "velocity": 54
    },
    {
      "pitch": 53,
      "start_time": 5.0,
      "duration": 0.0417,
      "velocity": 90
    },
    {
      "pitch": 36,
      "start_time": 5.5,
      "duration": 0.0938,
      "velocity": 69
    },
    {
      "pitch": 42,
      "start_time": 5.5,
      "duration": 0.0833,
      "velocity": 55
    },
    {
      "pitch": 49,
      "start_time": 5.5,
      "duration": 0.0938,
      "velocity": 34
    },
    {
      "pitch": 53,
      "start_time": 5.5,
      "duration": 0.0417,
      "velocity": 61
    },
    {
      "pitch": 40,
      "start_time": 5.75,
      "duration": 0.0833,
      "velocity": 39
    },
    {
      "pitch": 37,
      "start_time": 6.0,
      "duration": 0.1042,
      "velocity": 80
    },
    {
      "pitch": 42,
      "start_time": 6.0,
      "duration": 0.1146,
      "velocity": 74
    },
    {
      "pitch": 45,
      "start_time": 6.0,
      "duration": 0.0521,
      "velocity": 35
    },
    {
      "pitch": 53,
      "start_time": 6.0,
      "duration": 0.0521,
      "velocity": 34
    },
    {
      "pitch": 54,
      "start_time": 6.0,
      "duration": 1.5,
      "velocity": 71
    },
    {
      "pitch": 42,
      "start_time": 6.5,
      "duration": 0.125,
      "velocity": 40
    },
    {
      "pitch": 51,
      "start_time": 6.5,
      "duration": 0.0417,
      "velocity": 55
    },
    {
      "pitch": 53,
      "start_time": 6.5,
      "duration": 0.25,
      "velocity": 38
    },
    {
      "pitch": 42,
      "start_time": 6.625,
      "duration": 0.125,
      "velocity": 40
    },
    {
      "pitch": 42,
      "start_time": 6.75,
      "duration": 0.125,
      "velocity": 28
    },
    {
      "pitch": 51,
      "start_time": 6.75,
      "duration": 0.0625,
      "velocity": 60
    },
    {
      "pitch": 53,
      "start_time": 6.75,
      "duration": 0.25,
      "velocity": 28
    },
    {
      "pitch": 42,
      "start_time": 6.875,
      "duration": 0.125,
      "velocity": 34
    },
    {
      "pitch": 42,
      "start_time": 7.0,
      "duration": 0.0417,
      "velocity": 35
    },
    {
      "pitch": 47,
      "start_time": 7.0,
      "duration": 0.1146,
      "velocity": 61
    },
    {
      "pitch": 51,
      "start_time": 7.0,
      "duration": 0.9688,
      "velocity": 121
    },
    {
      "pitch": 53,
      "start_time": 7.0,
      "duration": 0.1354,
      "velocity": 34
    },
    {
      "pitch": 36,
      "start_time": 7.5,
      "duration": 0.0521,
      "velocity": 34
    },
    {
      "pitch": 42,
      "start_time": 7.5,
      "duration": 0.125,
      "velocity": 23
    },
    {
      "pitch": 47,
      "start_time": 7.5,
      "duration": 0.0833,
      "velocity": 40
    },
    {
      "pitch": 53,
      "start_time": 7.5,
      "duration": 0.0417,
      "velocity": 61
    },
    {
      "pitch": 42,
      "start_time": 7.625,
      "duration": 0.125,
      "velocity": 23
    },
    {
      "pitch": 36,
      "start_time": 7.75,
      "duration": 0.0938,
      "velocity": 77
    },
    {
      "pitch": 42,
      "start_time": 7.75,
      "duration": 0.125,
      "velocity": 28
    },
    {
      "pitch": 42,
      "start_time": 7.875,
      "duration": 0.0833,
      "velocity": 33
    }
  ]
}