{
  "source": {
    "song": "packs",
    "track_index": 0,
    "track_name": "Beat Tools / MIDI Clips / 84 - 92 bpm / Durty Kit groove 03_90 bpm",
    "slot_index": 0,
    "clip_name": "Beat Tools / MIDI Clips / 84 - 92 bpm / Durty Kit groove 03_90 bpm",
    "mid_file": "/Users/darnold/Music/Ableton/Packs/Beat Tools/MIDI Clips/84 - 92 bpm/Durty Kit groove 03_90 bpm.alc"
  },
  "meta": {
    "bpm": 90.0,
    "key": "?",
    "scale": "?",
    "length_beats": 8.0,
    "note_count": 76
  },
  "rhythm": {
    "density": 1.219,
    "hit_positions": [
      0.0,
      0.0,
      0.0,
      0.0,
      0.5,
      0.5,
      0.5,
      1.0,
      1.0,
      1.0,
      1.0,
      1.25,
      1.5,
      1.5,
      1.75,
      2.0,
      2.0,
      2.5,
      2.625,
      2.75,
      2.75,
      3.0,
      3.0,
      3.0,
      3.0,
      3.125,
      3.25,
      3.25,
      3.5,
      3.5,
      3.75,
      4.0,
      4.0,
      4.0,
      4.125,
      4.25,
      4.375,
      4.5,
      4.5,
      4.75,
      5.0,
      5.0,
      5.0,
      5.25,
      5.5,
      5.75,
      6.0,
      6.125,
      6.25,
      6.5,
      6.5,
      6.5,
      6.75,
      6.75,
      6.75,
      6.875,
      7.0,
      7.0,
      7.0,
      7.0,
      7.125,
      7.25,
      7.25,
      7.25,
      7.25,
      7.375,
      7.5,
      7.5,
      7.5,
      7.5,
      7.625,
      7.75,
      7.75,
      7.75,
      7.75,
      7.875
    ],
    "ioi": [
      0.0,
      0.0,
      0.0,
      0.5,
      0.0,
      0.0,
      0.5,
      0.0,
      0.0,
      0.0,
      0.25,
      0.25,
      0.0,
      0.25,
      0.25,
      0.0,
      0.5,
      0.125,
      0.125,
      0.0,
      0.25,
      0.0,
      0.0,
      0.0,
      0.125,
      0.125,
      0.0,
      0.25,
      0.0,
      0.25,
      0.25,
      0.0,
      0.0,
      0.125,
      0.125,
      0.125,
      0.125,
      0.0,
      0.25,
      0.25,
      0.0,
      0.0,
      0.25,
      0.25,
      0.25,
      0.25,
      0.125,
      0.125,
      0.25,
      0.0,
      0.0,
      0.25,
      0.0,
      0.0,
      0.125,
      0.125,
      0.0,
      0.0,
      0.0,
      0.125,
      0.125,
      0.0,
      0.0,
      0.0,
      0.125,
      0.125,
      0.0,
      0.0,
      0.0,
      0.125,
      0.125,
      0.0,
      0.0,
      0.0,
      0.125,
      0.125
    ],
    "grid": "16th",
    "euclidean_approx": [
      32,
      32
    ],
    "swing_ratio": 1.074
  },
  "pitch": {
    "notes_used": [
      36,
      38,
      39,
      41,
      42,
      44,
      45,
      46,
      47,
      48,
      50
    ],
    "intervals": [
      6,
      2,
      6,
      14,
      6,
      2,
      6,
      1,
      3,
      2,
      2,
      0,
      2,
      2,
      4,
      6,
      6,
      0,
      0,
      5,
      9,
      1,
      3,
      5,
      5,
      6,
      6,
      0,
      3,
      3,
      6,
      5,
      1,
      0,
      0,
      0,
      0,
      6,
      6,
      4,
      1,
      3,
      0,
      0,
      0,
      0,
      0,
      0,
      6,
      6,
      2,
      8,
      6,
      3,
      3,
      6,
      3,
      3,
      3,
      3,
      6,
      2,
      4,
      3,
      3,
      6,
      2,
      4,
      5,
      5,
      6,
      2,
      4,
      5,
      5
    ],
    "register": "low",
    "is_melodic": true,
    "pitch_range": 14,
    "pitch_distribution": {
      "36": 10,
      "42": 38,
      "44": 5,
      "50": 1,
      "38": 6,
      "39": 4,
      "46": 1,
      "48": 2,
      "47": 4,
      "45": 4,
      "41": 1
    }
  },
  "velocity": {
    "mean": 55.9,
    "variance": 853.4,
    "std": 29.2,
    "accents": [
      0,
      1,
      2,
      7,
      8,
      21,
      22,
      24,
      26,
      28,
      38,
      40,
      41,
      49,
      51,
      57
    ],
    "profile": [
      93,
      91,
      100,
      44,
      80,
      30,
      77,
      94,
      127,
      70,
      64,
      47,
      39,
      56,
      26,
      43,
      32,
      38,
      32,
      47,
      3,
      92,
      127,
      22,
      87,
      22,
      95,
      39,
      90,
      46,
      51,
      67,
      66,
      34,
      32,
      39,
      42,
      57,
      118,
      39,
      106,
      127,
      43,
      47,
      54,
      58,
      32,
      32,
      59,
      87,
      47,
      108,
      46,
      81,
      40,
      36,
      38,
      127,
      31,
      39,
      71,
      40,
      44,
      33,
      20,
      32,
      40,
      32,
      30,
      41,
      30,
      44,
      39,
      31,
      55,
      34
    ]
  },
  "notes": [
    {
      "pitch": 36,
      "start_time": 0.0,
      "duration": 0.0521,
      "velocity": 93
    },
    {
      "pitch": 42,
      "start_time": 0.0,
      "duration": 0.0312,
      "velocity": 91
    },
    {
      "pitch": 44,
      "start_time": 0.0,
      "duration": 0.5,
      "velocity": 100
    },
    {
      "pitch": 50,
      "start_time": 0.0,
      "duration": 0.5521,
      "velocity": 44
    },
    {
      "pitch": 36,
      "start_time": 0.5,
      "duration": 0.0521,
      "velocity": 80
    },
    {
      "pitch": 42,
      "start_time": 0.5,
      "duration": 0.1042,
      "velocity": 30
    },
    {
      "pitch": 44,
      "start_time": 0.5,
      "duration": 0.5,
      "velocity": 77
    },
    {
      "pitch": 38,
      "start_time": 1.0,
      "duration": 0.0625,
      "velocity": 94
    },
    {
      "pitch": 39,
      "start_time": 1.0,
      "duration": 0.0625,
      "velocity": 127
    },
    {
      "pitch": 42,
      "start_time": 1.0,
      "duration": 0.25,
      "velocity": 70
    },
    {
      "pitch": 44,
      "start_time": 1.0,
      "duration": 0.5,
      "velocity": 64
    },
    {
      "pitch": 42,
      "start_time": 1.25,
      "duration": 0.25,
      "velocity": 47
    },
    {
      "pitch": 42,
      "start_time": 1.5,
      "duration": 0.1042,
      "velocity": 39
    },
    {
      "pitch": 44,
      "start_time": 1.5,
      "duration": 0.0625,
      "velocity": 56
    },
    {
      "pitch": 46,
      "start_time": 1.75,
      "duration": 0.1667,
      "velocity": 26
    },
    {
      "pitch": 42,
      "start_time": 2.0,
      "duration": 0.1146,
      "velocity": 43
    },
    {
      "pitch": 48,
      "start_time": 2.0,
      "duration": 0.0938,
      "velocity": 32
    },
    {
      "pitch": 42,
      "start_time": 2.5,
      "duration": 0.0417,
      "velocity": 38
    },
    {
      "pitch": 42,
      "start_time": 2.625,
      "duration": 0.125,
      "velocity": 32
    },
    {
      "pitch": 42,
      "start_time": 2.75,
      "duration": 0.0729,
      "velocity": 47
    },
    {
      "pitch": 47,
      "start_time": 2.75,
      "duration": 0.001,
      "velocity": 3
    },
    {
      "pitch": 38,
      "start_time": 3.0,
      "duration": 0.1458,
      "velocity": 92
    },
    {
      "pitch": 39,
      "start_time": 3.0,
      "duration": 0.0833,
      "velocity": 127
    },
    {
      "pitch": 42,
      "start_time": 3.0,
      "duration": 0.125,
      "velocity": 22
    },
    {
      "pitch": 47,
      "start_time": 3.0,
      "duration": 0.0938,
      "velocity": 87
    },
    {
      "pitch": 42,
      "start_time": 3.125,
      "duration": 0.1146,
      "velocity": 22
    },
    {
      "pitch": 36,
      "start_time": 3.25,
      "duration": 0.0521,
      "velocity": 95
    },
    {
      "pitch": 42,
      "start_time": 3.25,
      "duration": 0.0729,
      "velocity": 39
    },
    {
      "pitch": 42,
      "start_time": 3.5,
      "duration": 0.25,
      "velocity": 90
    },
    {
      "pitch": 45,
      "start_time": 3.5,
      "duration": 0.0521,
      "velocity": 46
    },
    {
      "pitch": 42,
      "start_time": 3.75,
      "duration": 0.0417,
      "velocity": 51
    },
    {
      "pitch": 36,
      "start_time": 4.0,
      "duration": 0.4062,
      "velocity": 67
    },
    {
      "pitch": 41,
      "start_time": 4.0,
      "duration": 0.0625,
      "velocity": 66
    },
    {
      "pitch": 42,
      "start_time": 4.0,
      "duration": 0.125,
      "velocity": 34
    },
    {
      "pitch": 42,
      "start_time": 4.125,
      "duration": 0.125,
      "velocity": 32
    },
    {
      "pitch": 42,
      "start_time": 4.25,
      "duration": 0.125,
      "velocity": 39
    },
    {
      "pitch": 42,
      "start_time": 4.375,
      "duration": 0.0104,
      "velocity": 42
    },
    {
      "pitch": 42,
      "start_time": 4.5,
      "duration": 0.25,
      "velocity": 57
    },
    {
      "pitch": 48,
      "start_time": 4.5,
      "duration": 0.4792,
      "velocity": 118
    },
    {
      "pitch": 42,
      "start_time": 4.75,
      "duration": 0.25,
      "velocity": 39
    },
    {
      "pitch": 38,
      "start_time": 5.0,
      "duration": 0.1771,
      "velocity": 106
    },
    {
      "pitch": 39,
      "start_time": 5.0,
      "duration": 0.0938,
      "velocity": 127
    },
    {
      "pitch": 42,
      "start_time": 5.0,
      "duration": 0.25,
      "velocity": 43
    },
    {
      "pitch": 42,
      "start_time": 5.25,
      "duration": 0.25,
      "velocity": 47
    },
    {
      "pitch": 42,
      "start_time": 5.5,
      "duration": 0.25,
      "velocity": 54
    },
    {
      "pitch": 42,
      "start_time": 5.75,
      "duration": 0.1562,
      "velocity": 58
    },
    {
      "pitch": 42,
      "start_time": 6.0,
      "duration": 0.125,
      "velocity": 32
    },
    {
      "pitch": 42,
      "start_time": 6.125,
      "duration": 0.125,
      "velocity": 32
    },
    {
      "pitch": 42,
      "start_time": 6.25,
      "duration": 0.0208,
      "velocity": 59
    },
    {
      "pitch": 36,
      "start_time": 6.5,
      "duration": 0.25,
      "velocity": 87
    },
    {
      "pitch": 42,
      "start_time": 6.5,
      "duration": 0.0625,
      "velocity": 47
    },
    {
      "pitch": 44,
      "start_time": 6.5,
      "duration": 0.4583,
      "velocity": 108
    },
    {
      "pitch": 36,
      "start_time": 6.75,
      "duration": 0.25,
      "velocity": 46
    },
    {
      "pitch": 42,
      "start_time": 6.75,
      "duration": 0.125,
      "velocity": 81
    },
    {
      "pitch": 45,
      "start_time": 6.75,
      "duration": 0.0625,
      "velocity": 40
    },
    {
      "pitch": 42,
      "start_time": 6.875,
      "duration": 0.125,
      "velocity": 36
    },
    {
      "pitch": 36,
      "start_time": 7.0,
      "duration": 0.25,
      "velocity": 38
    },
    {
      "pitch": 39,
      "start_time": 7.0,
      "duration": 0.0833,
      "velocity": 127
    },
    {
      "pitch": 42,
      "start_time": 7.0,
      "duration": 0.0312,
      "velocity": 31
    },
    {
      "pitch": 45,
      "start_time": 7.0,
      "duration": 0.0312,
      "velocity": 39
    },
    {
      "pitch": 42,
      "start_time": 7.125,
      "duration": 0.125,
      "velocity": 71
    },
    {
      "pitch": 36,
      "start_time": 7.25,
      "duration": 0.25,
      "velocity": 40
    },
    {
      "pitch": 38,
      "start_time": 7.25,
      "duration": 0.25,
      "velocity": 44
    },
    {
      "pitch": 42,
      "start_time": 7.25,
      "duration": 0.125,
      "velocity": 33
    },
    {
      "pitch": 45,
      "start_time": 7.25,
      "duration": 0.0312,
      "velocity": 20
    },
    {
      "pitch": 42,
      "start_time": 7.375,
      "duration": 0.125,
      "velocity": 32
    },
    {
      "pitch": 36,
      "start_time": 7.5,
      "duration": 0.25,
      "velocity": 40
    },
    {
      "pitch": 38,
      "start_time": 7.5,
      "duration": 0.25,
      "velocity": 32
    },
    {
      "pitch": 42,
      "start_time": 7.5,
      "duration": 0.125,
      "velocity": 30
    },
    {
      "pitch": 47,
      "start_time": 7.5,
      "duration": 0.0312,
      "velocity": 41
    },
    {
      "pitch": 42,
      "start_time": 7.625,
      "duration": 0.125,
      "velocity": 30
    },
    {
      "pitch": 36,
      "start_time": 7.75,
      "duration": 0.0833,
      "velocity": 44
    },
    {
      "pitch": 38,
      "start_time": 7.75,
      "duration": 0.0104,
      "velocity": 39
    },
    {
      "pitch": 42,
      "start_time": 7.75,
      "duration": 0.125,
      "velocity": 31
    },
    {
      "pitch": 47,
      "start_time": 7.75,
      "duration": 0.0312,
      "velocity": 55
    },
    {
      "pitch": 42,
      "start_time": 7.875,
      "duration": 0.0729,
      "velocity": 34
    }
  ]
}