{
  "source": {
    "song": "packs",
    "track_index": 0,
    "track_name": "Beat Tools / MIDI Clips / 132 - 152 bpm / Rock Wit Me groove 03_140 bpm",
    "slot_index": 0,
    "clip_name": "Beat Tools / MIDI Clips / 132 - 152 bpm / Rock Wit Me groove 03_140 bpm",
    "mid_file": "/Users/darnold/Music/Ableton/Packs/Beat Tools/MIDI Clips/132 - 152 bpm/Rock Wit Me groove 03_140 bpm.alc"
  },
  "meta": {
    "bpm": 140.0,
    "key": "?",
    "scale": "?",
    "length_beats": 8.0,
    "note_count": 48
  },
  "rhythm": {
    "density": 0.625,
    "hit_positions": [
      0.0,
      0.0,
      0.0,
      0.0104,
      0.0208,
      0.5312,
      0.9896,
      1.0,
      1.0,
      1.4688,
      1.5,
      1.5,
      2.0,
      2.0,
      2.0,
      2.0208,
      2.0312,
      2.5625,
      3.0,
      3.0,
      3.0,
      3.0,
      3.0,
      3.5,
      3.625,
      3.75,
      3.875,
      4.0,
      4.0,
      4.5,
      5.0,
      5.0,
      5.0,
      5.5,
      6.0,
      6.0,
      6.0,
      6.0,
      6.0208,
      6.5,
      6.5,
      6.7604,
      7.0,
      7.0,
      7.0,
      7.4792,
      7.5,
      7.9688
    ],
    "ioi": [
      0.0,
      0.0,
      0.0104,
      0.0104,
      0.5104,
      0.4584,
      0.0104,
      0.0,
      0.4688,
      0.0312,
      0.0,
      0.5,
      0.0,
      0.0,
      0.0208,
      0.0104,
      0.5313,
      0.4375,
      0.0,
      0.0,
      0.0,
      0.0,
      0.5,
      0.125,
      0.125,
      0.125,
      0.125,
      0.0,
      0.5,
      0.5,
      0.0,
      0.0,
      0.5,
      0.5,
      0.0,
      0.0,
      0.0,
      0.0208,
      0.4792,
      0.0,
      0.2604,
      0.2396,
      0.0,
      0.0,
      0.4792,
      0.0208,
      0.4688,
      0.0312
    ],
    "grid": "16th",
    "euclidean_approx": [
      32,
      32
    ],
    "swing_ratio": 1.595
  },
  "pitch": {
    "notes_used": [
      38,
      39,
      41,
      42,
      44,
      48,
      49,
      52,
      53,
      54,
      56,
      57,
      58,
      59
    ],
    "intervals": [
      8,
      4,
      14,
      6,
      6,
      0,
      3,
      13,
      10,
      2,
      13,
      19,
      3,
      11,
      3,
      7,
      0,
      3,
      3,
      2,
      8,
      6,
      16,
      0,
      0,
      0,
      0,
      11,
      11,
      3,
      3,
      11,
      11,
      4,
      3,
      1,
      17,
      5,
      12,
      16,
      4,
      15,
      3,
      15,
      3,
      12,
      0
    ],
    "register": "low",
    "is_melodic": true,
    "pitch_range": 21,
    "pitch_distribution": {
      "44": 3,
      "52": 4,
      "56": 1,
      "42": 20,
      "48": 1,
      "39": 4,
      "57": 2,
      "38": 2,
      "41": 2,
      "49": 1,
      "58": 2,
      "53": 2,
      "59": 1,
      "54": 3
    }
  },
  "velocity": {
    "mean": 105.2,
    "variance": 585.8,
    "std": 24.2,
    "accents": [],
    "profile": [
      126,
      124,
      127,
      82,
      127,
      78,
      80,
      127,
      127,
      82,
      124,
      127,
      121,
      127,
      127,
      120,
      85,
      83,
      127,
      80,
      123,
      127,
      127,
      71,
      71,
      86,
      88,
      72,
      125,
      72,
      127,
      72,
      127,
      72,
      122,
      127,
      72,
      119,
      124,
      72,
      126,
      127,
      127,
      72,
      125,
      127,
      72,
      78
    ]
  },
  "notes": [
    {
      "pitch": 44,
      "start_time": 0.0,
      "duration": 0.1562,
      "velocity": 126
    },
    {
      "pitch": 52,
      "start_time": 0.0,
      "duration": 0.0729,
      "velocity": 124
    },
    {
      "pitch": 56,
      "start_time": 0.0,
      "duration": 0.5,
      "velocity": 127
    },
    {
      "pitch": 42,
      "start_time": 0.0104,
      "duration": 0.0521,
      "velocity": 82
    },
    {
      "pitch": 48,
      "start_time": 0.0208,
      "duration": 1.9688,
      "velocity": 127
    },
    {
      "pitch": 42,
      "start_time": 0.5312,
      "duration": 0.0417,
      "velocity": 78
    },
    {
      "pitch": 42,
      "start_time": 0.9896,
      "duration": 0.0625,
      "velocity": 80
    },
    {
      "pitch": 39,
      "start_time": 1.0,
      "duration": 0.0729,
      "velocity": 127
    },
    {
      "pitch": 52,
      "start_time": 1.0,
      "duration": 0.0833,
      "velocity": 127
    },
    {
      "pitch": 42,
      "start_time": 1.4688,
      "duration": 0.0625,
      "velocity": 82
    },
    {
      "pitch": 44,
      "start_time": 1.5,
      "duration": 0.125,
      "velocity": 124
    },
    {
      "pitch": 57,
      "start_time": 1.5,
      "duration": 0.3125,
      "velocity": 127
    },
    {
      "pitch": 38,
      "start_time": 2.0,
      "duration": 0.1875,
      "velocity": 121
    },
    {
      "pitch": 41,
      "start_time": 2.0,
      "duration": 0.0521,
      "velocity": 127
    },
    {
      "pitch": 52,
      "start_time": 2.0,
      "duration": 0.0833,
      "velocity": 127
    },
    {
      "pitch": 49,
      "start_time": 2.0208,
      "duration": 3.7812,
      "velocity": 120
    },
    {
      "pitch": 42,
      "start_time": 2.0312,
      "duration": 0.0833,
      "velocity": 85
    },
    {
      "pitch": 42,
      "start_time": 2.5625,
      "duration": 0.1042,
      "velocity": 83
    },
    {
      "pitch": 39,
      "start_time": 3.0,
      "duration": 0.0729,
      "velocity": 127
    },
    {
      "pitch": 42,
      "start_time": 3.0,
      "duration": 0.0625,
      "velocity": 80
    },
    {
      "pitch": 44,
      "start_time": 3.0,
      "duration": 0.1146,
      "velocity": 123
    },
    {
      "pitch": 52,
      "start_time": 3.0,
      "duration": 0.0938,
      "velocity": 127
    },
    {
      "pitch": 58,
      "start_time": 3.0,
      "duration": 0.4792,
      "velocity": 127
    },
    {
      "pitch": 42,
      "start_time": 3.5,
      "duration": 0.125,
      "velocity": 71
    },
    {
      "pitch": 42,
      "start_time": 3.625,
      "duration": 0.125,
      "velocity": 71
    },
    {
      "pitch": 42,
      "start_time": 3.75,
      "duration": 0.125,
      "velocity": 86
    },
    {
      "pitch": 42,
      "start_time": 3.875,
      "duration": 0.0938,
      "velocity": 88
    },
    {
      "pitch": 42,
      "start_time": 4.0,
      "duration": 0.125,
      "velocity": 72
    },
    {
      "pitch": 53,
      "start_time": 4.0,
      "duration": 0.0833,
      "velocity": 125
    },
    {
      "pitch": 42,
      "start_time": 4.5,
      "duration": 0.125,
      "velocity": 72
    },
    {
      "pitch": 39,
      "start_time": 5.0,
      "duration": 0.1354,
      "velocity": 127
    },
    {
      "pitch": 42,
      "start_time": 5.0,
      "duration": 0.125,
      "velocity": 72
    },
    {
      "pitch": 53,
      "start_time": 5.0,
      "duration": 0.1562,
      "velocity": 127
    },
    {
      "pitch": 42,
      "start_time": 5.5,
      "duration": 0.125,
      "velocity": 72
    },
    {
      "pitch": 38,
      "start_time": 6.0,
      "duration": 0.1771,
      "velocity": 122
    },
    {
      "pitch": 41,
      "start_time": 6.0,
      "duration": 0.1146,
      "velocity": 127
    },
    {
      "pitch": 42,
      "start_time": 6.0,
      "duration": 0.125,
      "velocity": 72
    },
    {
      "pitch": 59,
      "start_time": 6.0,
      "duration": 0.2604,
      "velocity": 119
    },
    {
      "pitch": 54,
      "start_time": 6.0208,
      "duration": 0.0938,
      "velocity": 124
    },
    {
      "pitch": 42,
      "start_time": 6.5,
      "duration": 0.125,
      "velocity": 72
    },
    {
      "pitch": 58,
      "start_time": 6.5,
      "duration": 0.1458,
      "velocity": 126
    },
    {
      "pitch": 54,
      "start_time": 6.7604,
      "duration": 0.1354,
      "velocity": 127
    },
    {
      "pitch": 39,
      "start_time": 7.0,
      "duration": 0.0833,
      "velocity": 127
    },
    {
      "pitch": 42,
      "start_time": 7.0,
      "duration": 0.125,
      "velocity": 72
    },
    {
      "pitch": 57,
      "start_time": 7.0,
      "duration": 0.6562,
      "velocity": 125
    },
    {
      "pitch": 54,
      "start_time": 7.4792,
      "duration": 0.0833,
      "velocity": 127
    },
    {
      "pitch": 42,
      "start_time": 7.5,
      "duration": 0.125,
      "velocity": 72
    },
    {
      "pitch": 42,
      "start_time": 7.9688,
      "duration": 0.0312,
      "velocity": 78
    }
  ]
}