{
  "source": {
    "song": "packs",
    "track_index": 0,
    "track_name": "Beat Tools / MIDI Clips / 84 - 92 bpm / Psycho Kit groove 01_86 bpm",
    "slot_index": 0,
    "clip_name": "Beat Tools / MIDI Clips / 84 - 92 bpm / Psycho Kit groove 01_86 bpm",
    "mid_file": "/Users/darnold/Music/Ableton/Packs/Beat Tools/MIDI Clips/84 - 92 bpm/Psycho Kit groove 01_86 bpm.alc"
  },
  "meta": {
    "bpm": 86.0,
    "key": "?",
    "scale": "?",
    "length_beats": 8.0,
    "note_count": 65
  },
  "rhythm": {
    "density": 1.094,
    "hit_positions": [
      0.0,
      0.0,
      0.5,
      0.5,
      0.5,
      0.75,
      0.75,
      1.0,
      1.0,
      1.0,
      1.25,
      1.25,
      1.5,
      1.5,
      1.75,
      1.75,
      2.0,
      2.25,
      2.25,
      2.5,
      2.5,
      2.5,
      2.75,
      3.0,
      3.0,
      3.0,
      3.125,
      3.25,
      3.5,
      3.5,
      3.625,
      3.75,
      4.0,
      4.0,
      4.5,
      4.5,
      4.5,
      4.5,
      4.75,
      4.75,
      5.0,
      5.0,
      5.0,
      5.25,
      5.25,
      5.5,
      5.5,
      5.75,
      5.75,
      6.0,
      6.25,
      6.5,
      6.625,
      6.75,
      6.75,
      6.75,
      7.0,
      7.0,
      7.0,
      7.125,
      7.25,
      7.5,
      7.5,
      7.625,
      7.75
    ],
    "ioi": [
      0.0,
      0.5,
      0.0,
      0.0,
      0.25,
      0.0,
      0.25,
      0.0,
      0.0,
      0.25,
      0.0,
      0.25,
      0.0,
      0.25,
      0.0,
      0.25,
      0.25,
      0.0,
      0.25,
      0.0,
      0.0,
      0.25,
      0.25,
      0.0,
      0.0,
      0.125,
      0.125,
      0.25,
      0.0,
      0.125,
      0.125,
      0.25,
      0.0,
      0.5,
      0.0,
      0.0,
      0.0,
      0.25,
      0.0,
      0.25,
      0.0,
      0.0,
      0.25,
      0.0,
      0.25,
      0.0,
      0.25,
      0.0,
      0.25,
      0.25,
      0.25,
      0.125,
      0.125,
      0.0,
      0.0,
      0.25,
      0.0,
      0.0,
      0.125,
      0.125,
      0.25,
      0.0,
      0.125,
      0.125,
      0.25
    ],
    "grid": "16th",
    "euclidean_approx": [
      32,
      32
    ],
    "swing_ratio": 1.0
  },
  "pitch": {
    "notes_used": [
      36,
      37,
      40,
      42,
      44,
      47,
      48,
      50,
      52,
      53,
      54,
      55
    ],
    "intervals": [
      6,
      6,
      6,
      8,
      3,
      3,
      13,
      5,
      5,
      11,
      11,
      5,
      5,
      3,
      3,
      5,
      2,
      10,
      14,
      6,
      12,
      6,
      11,
      5,
      11,
      11,
      0,
      0,
      10,
      10,
      0,
      6,
      6,
      6,
      6,
      5,
      3,
      3,
      3,
      13,
      5,
      5,
      11,
      11,
      5,
      5,
      7,
      7,
      5,
      6,
      6,
      0,
      2,
      2,
      8,
      13,
      5,
      13,
      13,
      0,
      0,
      12,
      12,
      0
    ],
    "register": "low",
    "is_melodic": true,
    "pitch_range": 19,
    "pitch_distribution": {
      "36": 7,
      "42": 26,
      "50": 6,
      "47": 11,
      "37": 4,
      "44": 1,
      "40": 3,
      "54": 2,
      "48": 2,
      "53": 1,
      "52": 1,
      "55": 1
    }
  },
  "velocity": {
    "mean": 39.7,
    "variance": 147.4,
    "std": 12.1,
    "accents": [
      2,
      7,
      8,
      10,
      22,
      24,
      26,
      28,
      30,
      40,
      43,
      56
    ],
    "profile": [
      51,
      38,
      53,
      40,
      25,
      25,
      31,
      66,
      52,
      28,
      74,
      28,
      37,
      29,
      35,
      29,
      40,
      41,
      36,
      41,
      32,
      35,
      52,
      43,
      53,
      37,
      53,
      44,
      62,
      42,
      62,
      39,
      48,
      38,
      51,
      38,
      27,
      31,
      19,
      26,
      53,
      48,
      25,
      66,
      23,
      27,
      25,
      41,
      24,
      32,
      46,
      37,
      37,
      37,
      34,
      26,
      60,
      51,
      40,
      47,
      20,
      41,
      40,
      41,
      28
    ]
  },
  "notes": [
    {
      "pitch": 36,
      "start_time": 0.0,
      "duration": 0.0312,
      "velocity": 51
    },
    {
      "pitch": 42,
      "start_time": 0.0,
      "duration": 0.001,
      "velocity": 38
    },
    {
      "pitch": 36,
      "start_time": 0.5,
      "duration": 0.0729,
      "velocity": 53
    },
    {
      "pitch": 42,
      "start_time": 0.5,
      "duration": 0.0729,
      "velocity": 40
    },
    {
      "pitch": 50,
      "start_time": 0.5,
      "duration": 0.0312,
      "velocity": 25
    },
    {
      "pitch": 47,
      "start_time": 0.75,
      "duration": 0.25,
      "velocity": 25
    },
    {
      "pitch": 50,
      "start_time": 0.75,
      "duration": 0.0729,
      "velocity": 31
    },
    {
      "pitch": 37,
      "start_time": 1.0,
      "duration": 0.0625,
      "velocity": 66
    },
    {
      "pitch": 42,
      "start_time": 1.0,
      "duration": 0.0521,
      "velocity": 52
    },
    {
      "pitch": 47,
      "start_time": 1.0,
      "duration": 0.25,
      "velocity": 28
    },
    {
      "pitch": 36,
      "start_time": 1.25,
      "duration": 0.0729,
      "velocity": 74
    },
    {
      "pitch": 47,
      "start_time": 1.25,
      "duration": 0.25,
      "velocity": 28
    },
    {
      "pitch": 42,
      "start_time": 1.5,
      "duration": 0.0625,
      "velocity": 37
    },
    {
      "pitch": 47,
      "start_time": 1.5,
      "duration": 0.25,
      "velocity": 29
    },
    {
      "pitch": 44,
      "start_time": 1.75,
      "duration": 0.0625,
      "velocity": 35
    },
    {
      "pitch": 47,
      "start_time": 1.75,
      "duration": 0.1354,
      "velocity": 29
    },
    {
      "pitch": 42,
      "start_time": 2.0,
      "duration": 0.0833,
      "velocity": 40
    },
    {
      "pitch": 40,
      "start_time": 2.25,
      "duration": 0.0521,
      "velocity": 41
    },
    {
      "pitch": 50,
      "start_time": 2.25,
      "duration": 0.0833,
      "velocity": 36
    },
    {
      "pitch": 36,
      "start_time": 2.5,
      "duration": 0.0521,
      "velocity": 41
    },
    {
      "pitch": 42,
      "start_time": 2.5,
      "duration": 0.0417,
      "velocity": 32
    },
    {
      "pitch": 54,
      "start_time": 2.5,
      "duration": 0.3542,
      "velocity": 35
    },
    {
      "pitch": 48,
      "start_time": 2.75,
      "duration": 0.0521,
      "velocity": 52
    },
    {
      "pitch": 37,
      "start_time": 3.0,
      "duration": 0.0833,
      "velocity": 43
    },
    {
      "pitch": 42,
      "start_time": 3.0,
      "duration": 0.125,
      "velocity": 53
    },
    {
      "pitch": 53,
      "start_time": 3.0,
      "duration": 0.3542,
      "velocity": 37
    },
    {
      "pitch": 42,
      "start_time": 3.125,
      "duration": 0.125,
      "velocity": 53
    },
    {
      "pitch": 42,
      "start_time": 3.25,
      "duration": 0.1146,
      "velocity": 44
    },
    {
      "pitch": 42,
      "start_time": 3.5,
      "duration": 0.125,
      "velocity": 62
    },
    {
      "pitch": 52,
      "start_time": 3.5,
      "duration": 0.4375,
      "velocity": 42
    },
    {
      "pitch": 42,
      "start_time": 3.625,
      "duration": 0.125,
      "velocity": 62
    },
    {
      "pitch": 42,
      "start_time": 3.75,
      "duration": 0.0521,
      "velocity": 39
    },
    {
      "pitch": 36,
      "start_time": 4.0,
      "duration": 0.0521,
      "velocity": 48
    },
    {
      "pitch": 42,
      "start_time": 4.0,
      "duration": 0.0417,
      "velocity": 38
    },
    {
      "pitch": 36,
      "start_time": 4.5,
      "duration": 0.0729,
      "velocity": 51
    },
    {
      "pitch": 42,
      "start_time": 4.5,
      "duration": 0.0521,
      "velocity": 38
    },
    {
      "pitch": 47,
      "start_time": 4.5,
      "duration": 0.25,
      "velocity": 27
    },
    {
      "pitch": 50,
      "start_time": 4.5,
      "duration": 0.0417,
      "velocity": 31
    },
    {
      "pitch": 47,
      "start_time": 4.75,
      "duration": 0.25,
      "velocity": 19
    },
    {
      "pitch": 50,
      "start_time": 4.75,
      "duration": 0.0521,
      "velocity": 26
    },
    {
      "pitch": 37,
      "start_time": 5.0,
      "duration": 0.0625,
      "velocity": 53
    },
    {
      "pitch": 42,
      "start_time": 5.0,
      "duration": 0.0729,
      "velocity": 48
    },
    {
      "pitch": 47,
      "start_time": 5.0,
      "duration": 0.25,
      "velocity": 25
    },
    {
      "pitch": 36,
      "start_time": 5.25,
      "duration": 0.0938,
      "velocity": 66
    },
    {
      "pitch": 47,
      "start_time": 5.25,
      "duration": 0.25,
      "velocity": 23
    },
    {
      "pitch": 42,
      "start_time": 5.5,
      "duration": 0.0521,
      "velocity": 27
    },
    {
      "pitch": 47,
      "start_time": 5.5,
      "duration": 0.25,
      "velocity": 25
    },
    {
      "pitch": 40,
      "start_time": 5.75,
      "duration": 0.0833,
      "velocity": 41
    },
    {
      "pitch": 47,
      "start_time": 5.75,
      "duration": 0.2188,
      "velocity": 24
    },
    {
      "pitch": 42,
      "start_time": 6.0,
      "duration": 0.0938,
      "velocity": 32
    },
    {
      "pitch": 48,
      "start_time": 6.25,
      "duration": 0.0833,
      "velocity": 46
    },
    {
      "pitch": 42,
      "start_time": 6.5,
      "duration": 0.125,
      "velocity": 37
    },
    {
      "pitch": 42,
      "start_time": 6.625,
      "duration": 0.125,
      "velocity": 37
    },
    {
      "pitch": 40,
      "start_time": 6.75,
      "duration": 0.0729,
      "velocity": 37
    },
    {
      "pitch": 42,
      "start_time": 6.75,
      "duration": 0.0833,
      "velocity": 34
    },
    {
      "pitch": 50,
      "start_time": 6.75,
      "duration": 0.0833,
      "velocity": 26
    },
    {
      "pitch": 37,
      "start_time": 7.0,
      "duration": 0.0625,
      "velocity": 60
    },
    {
      "pitch": 42,
      "start_time": 7.0,
      "duration": 0.0729,
      "velocity": 51
    },
    {
      "pitch": 55,
      "start_time": 7.0,
      "duration": 0.3958,
      "velocity": 40
    },
    {
      "pitch": 42,
      "start_time": 7.125,
      "duration": 0.125,
      "velocity": 47
    },
    {
      "pitch": 42,
      "start_time": 7.25,
      "duration": 0.0625,
      "velocity": 20
    },
    {
      "pitch": 42,
      "start_time": 7.5,
      "duration": 0.125,
      "velocity": 41
    },
    {
      "pitch": 54,
      "start_time": 7.5,
      "duration": 0.3125,
      "velocity": 40
    },
    {
      "pitch": 42,
      "start_time": 7.625,
      "duration": 0.125,
      "velocity": 41
    },
    {
      "pitch": 42,
      "start_time": 7.75,
      "duration": 0.0729,
      "velocity": 28
    }
  ]
}