{
  "source": {
    "song": "packs",
    "track_index": 0,
    "track_name": "Beat Tools / MIDI Clips / 84 - 92 bpm / Keys 2 Love Kit groove 01_90 bpm",
    "slot_index": 0,
    "clip_name": "Beat Tools / MIDI Clips / 84 - 92 bpm / Keys 2 Love Kit groove 01_90 bpm",
    "mid_file": "/Users/darnold/Music/Ableton/Packs/Beat Tools/MIDI Clips/84 - 92 bpm/Keys 2 Love Kit groove 01_90 bpm.alc"
  },
  "meta": {
    "bpm": 90.0,
    "key": "?",
    "scale": "?",
    "length_beats": 8.0,
    "note_count": 57
  },
  "rhythm": {
    "density": 1.281,
    "hit_positions": [
      0.0,
      0.0104,
      0.1042,
      0.2188,
      0.2292,
      0.7708,
      1.0104,
      1.0625,
      1.0729,
      1.125,
      1.2396,
      1.7708,
      1.9375,
      1.9688,
      1.9896,
      2.1042,
      2.1771,
      2.2083,
      2.7708,
      3.0104,
      3.0104,
      3.0417,
      3.125,
      3.2188,
      3.7917,
      4.0104,
      4.1146,
      4.2188,
      4.25,
      4.8646,
      5.0,
      5.0833,
      5.1146,
      5.1562,
      5.2396,
      5.7917,
      5.9167,
      6.0,
      6.0521,
      6.0729,
      6.1042,
      6.2292,
      6.2604,
      6.75,
      6.7708,
      7.0,
      7.0,
      7.0312,
      7.0521,
      7.0521,
      7.0729,
      7.1042,
      7.1146,
      7.1979,
      7.2604,
      7.8542,
      7.9271
    ],
    "ioi": [
      0.0104,
      0.0938,
      0.1146,
      0.0104,
      0.5416,
      0.2396,
      0.0521,
      0.0104,
      0.0521,
      0.1146,
      0.5312,
      0.1667,
      0.0313,
      0.0208,
      0.1146,
      0.0729,
      0.0312,
      0.5625,
      0.2396,
      0.0,
      0.0313,
      0.0833,
      0.0938,
      0.5729,
      0.2187,
      0.1042,
      0.1042,
      0.0312,
      0.6146,
      0.1354,
      0.0833,
      0.0313,
      0.0416,
      0.0834,
      0.5521,
      0.125,
      0.0833,
      0.0521,
      0.0208,
      0.0313,
      0.125,
      0.0312,
      0.4896,
      0.0208,
      0.2292,
      0.0,
      0.0312,
      0.0209,
      0.0,
      0.0208,
      0.0313,
      0.0104,
      0.0833,
      0.0625,
      0.5938,
      0.0729,
      0.0729
    ],
    "grid": "16th",
    "euclidean_approx": [
      32,
      32
    ],
    "swing_ratio": 1.328
  },
  "pitch": {
    "notes_used": [
      36,
      37,
      38,
      41,
      42,
      43,
      45,
      46,
      47,
      49,
      50,
      51,
      52,
      53,
      54,
      55,
      56,
      57,
      58
    ],
    "intervals": [
      9,
      16,
      6,
      5,
      5,
      3,
      8,
      4,
      5,
      4,
      0,
      6,
      20,
      3,
      17,
      14,
      8,
      0,
      5,
      8,
      12,
      16,
      1,
      0,
      10,
      16,
      11,
      5,
      0,
      3,
      8,
      9,
      5,
      1,
      0,
      6,
      21,
      3,
      11,
      7,
      15,
      9,
      3,
      3,
      6,
      22,
      3,
      18,
      12,
      6,
      2,
      7,
      11,
      7,
      0,
      6
    ],
    "register": "low",
    "is_melodic": true,
    "pitch_range": 22,
    "pitch_distribution": {
      "43": 3,
      "52": 2,
      "36": 8,
      "42": 16,
      "47": 2,
      "45": 5,
      "37": 4,
      "41": 3,
      "46": 2,
      "56": 1,
      "53": 1,
      "50": 1,
      "57": 2,
      "54": 1,
      "51": 1,
      "58": 1,
      "55": 1,
      "49": 2,
      "38": 1
    }
  },
  "velocity": {
    "mean": 115.6,
    "variance": 276.8,
    "std": 16.6,
    "accents": [],
    "profile": [
      127,
      127,
      127,
      106,
      127,
      93,
      122,
      127,
      127,
      127,
      107,
      92,
      79,
      127,
      127,
      127,
      127,
      111,
      85,
      127,
      127,
      127,
      127,
      115,
      87,
      127,
      127,
      127,
      102,
      85,
      127,
      127,
      127,
      127,
      109,
      63,
      80,
      127,
      127,
      127,
      127,
      127,
      106,
      105,
      85,
      123,
      127,
      127,
      127,
      97,
      127,
      127,
      127,
      127,
      105,
      111,
      106
    ]
  },
  "notes": [
    {
      "pitch": 43,
      "start_time": 0.0,
      "duration": 0.1146,
      "velocity": 127
    },
    {
      "pitch": 52,
      "start_time": 0.0104,
      "duration": 1.6979,
      "velocity": 127
    },
    {
      "pitch": 36,
      "start_time": 0.1042,
      "duration": 0.0521,
      "velocity": 127
    },
    {
      "pitch": 42,
      "start_time": 0.2188,
      "duration": 0.1979,
      "velocity": 106
    },
    {
      "pitch": 47,
      "start_time": 0.2292,
      "duration": 0.0521,
      "velocity": 127
    },
    {
      "pitch": 42,
      "start_time": 0.7708,
      "duration": 0.1354,
      "velocity": 93
    },
    {
      "pitch": 45,
      "start_time": 1.0104,
      "duration": 0.0312,
      "velocity": 122
    },
    {
      "pitch": 37,
      "start_time": 1.0625,
      "duration": 0.0625,
      "velocity": 127
    },
    {
      "pitch": 41,
      "start_time": 1.0729,
      "duration": 0.0625,
      "velocity": 127
    },
    {
      "pitch": 46,
      "start_time": 1.125,
      "duration": 0.0417,
      "velocity": 127
    },
    {
      "pitch": 42,
      "start_time": 1.2396,
      "duration": 0.2083,
      "velocity": 107
    },
    {
      "pitch": 42,
      "start_time": 1.7708,
      "duration": 0.1667,
      "velocity": 92
    },
    {
      "pitch": 36,
      "start_time": 1.9375,
      "duration": 0.0417,
      "velocity": 79
    },
    {
      "pitch": 56,
      "start_time": 1.9688,
      "duration": 0.0521,
      "velocity": 127
    },
    {
      "pitch": 53,
      "start_time": 1.9896,
      "duration": 0.0417,
      "velocity": 127
    },
    {
      "pitch": 36,
      "start_time": 2.1042,
      "duration": 0.0521,
      "velocity": 127
    },
    {
      "pitch": 50,
      "start_time": 2.1771,
      "duration": 0.0521,
      "velocity": 127
    },
    {
      "pitch": 42,
      "start_time": 2.2083,
      "duration": 0.2396,
      "velocity": 111
    },
    {
      "pitch": 42,
      "start_time": 2.7708,
      "duration": 0.2083,
      "velocity": 85
    },
    {
      "pitch": 37,
      "start_time": 3.0104,
      "duration": 0.0312,
      "velocity": 127
    },
    {
      "pitch": 45,
      "start_time": 3.0104,
      "duration": 0.0521,
      "velocity": 127
    },
    {
      "pitch": 57,
      "start_time": 3.0417,
      "duration": 0.0417,
      "velocity": 127
    },
    {
      "pitch": 41,
      "start_time": 3.125,
      "duration": 0.0625,
      "velocity": 127
    },
    {
      "pitch": 42,
      "start_time": 3.2188,
      "duration": 0.2292,
      "velocity": 115
    },
    {
      "pitch": 42,
      "start_time": 3.7917,
      "duration": 0.2188,
      "velocity": 87
    },
    {
      "pitch": 52,
      "start_time": 4.0104,
      "duration": 0.0521,
      "velocity": 127
    },
    {
      "pitch": 36,
      "start_time": 4.1146,
      "duration": 0.0521,
      "velocity": 127
    },
    {
      "pitch": 47,
      "start_time": 4.2188,
      "duration": 0.0729,
      "velocity": 127
    },
    {
      "pitch": 42,
      "start_time": 4.25,
      "duration": 0.2396,
      "velocity": 102
    },
    {
      "pitch": 42,
      "start_time": 4.8646,
      "duration": 0.0625,
      "velocity": 85
    },
    {
      "pitch": 45,
      "start_time": 5.0,
      "duration": 0.0417,
      "velocity": 127
    },
    {
      "pitch": 37,
      "start_time": 5.0833,
      "duration": 0.0417,
      "velocity": 127
    },
    {
      "pitch": 46,
      "start_time": 5.1146,
      "duration": 0.0312,
      "velocity": 127
    },
    {
      "pitch": 41,
      "start_time": 5.1562,
      "duration": 0.0833,
      "velocity": 127
    },
    {
      "pitch": 42,
      "start_time": 5.2396,
      "duration": 0.2396,
      "velocity": 109
    },
    {
      "pitch": 42,
      "start_time": 5.7917,
      "duration": 0.2188,
      "velocity": 63
    },
    {
      "pitch": 36,
      "start_time": 5.9167,
      "duration": 0.0625,
      "velocity": 80
    },
    {
      "pitch": 57,
      "start_time": 6.0,
      "duration": 0.0625,
      "velocity": 127
    },
    {
      "pitch": 54,
      "start_time": 6.0521,
      "duration": 0.0417,
      "velocity": 127
    },
    {
      "pitch": 43,
      "start_time": 6.0729,
      "duration": 0.7812,
      "velocity": 127
    },
    {
      "pitch": 36,
      "start_time": 6.1042,
      "duration": 0.0729,
      "velocity": 127
    },
    {
      "pitch": 51,
      "start_time": 6.2292,
      "duration": 0.0625,
      "velocity": 127
    },
    {
      "pitch": 42,
      "start_time": 6.2604,
      "duration": 0.25,
      "velocity": 106
    },
    {
      "pitch": 45,
      "start_time": 6.75,
      "duration": 0.0729,
      "velocity": 105
    },
    {
      "pitch": 42,
      "start_time": 6.7708,
      "duration": 0.2396,
      "velocity": 85
    },
    {
      "pitch": 36,
      "start_time": 7.0,
      "duration": 0.0417,
      "velocity": 123
    },
    {
      "pitch": 58,
      "start_time": 7.0,
      "duration": 0.0625,
      "velocity": 127
    },
    {
      "pitch": 55,
      "start_time": 7.0312,
      "duration": 0.0729,
      "velocity": 127
    },
    {
      "pitch": 37,
      "start_time": 7.0521,
      "duration": 0.0521,
      "velocity": 127
    },
    {
      "pitch": 49,
      "start_time": 7.0521,
      "duration": 0.0312,
      "velocity": 97
    },
    {
      "pitch": 43,
      "start_time": 7.0729,
      "duration": 0.9271,
      "velocity": 127
    },
    {
      "pitch": 45,
      "start_time": 7.1042,
      "duration": 0.0417,
      "velocity": 127
    },
    {
      "pitch": 38,
      "start_time": 7.1146,
      "duration": 0.0625,
      "velocity": 127
    },
    {
      "pitch": 49,
      "start_time": 7.1979,
      "duration": 0.0521,
      "velocity": 127
    },
    {
      "pitch": 42,
      "start_time": 7.2604,
      "duration": 0.2188,
      "velocity": 105
    },
    {
      "pitch": 42,
      "start_time": 7.8542,
      "duration": 0.0938,
      "velocity": 111
    },
    {
      "pitch": 36,
      "start_time": 7.9271,
      "duration": 0.0417,
      "velocity": 106
    }
  ]
}