{
  "source": {
    "song": "packs",
    "track_index": 0,
    "track_name": "Beat Tools / MIDI Clips / 94 - 105 bpm / Equinox Kit groove_105 bpm",
    "slot_index": 0,
    "clip_name": "Beat Tools / MIDI Clips / 94 - 105 bpm / Equinox Kit groove_105 bpm",
    "mid_file": "/Users/darnold/Music/Ableton/Packs/Beat Tools/MIDI Clips/94 - 105 bpm/Equinox Kit groove_105 bpm.alc"
  },
  "meta": {
    "bpm": 105.0,
    "key": "?",
    "scale": "?",
    "length_beats": 8.0,
    "note_count": 95
  },
  "rhythm": {
    "density": 1.406,
    "hit_positions": [
      0.0,
      0.0,
      0.0,
      0.0,
      0.25,
      0.5,
      0.5,
      0.5,
      0.5,
      0.75,
      1.0,
      1.0,
      1.0,
      1.0,
      1.0521,
      1.25,
      1.25,
      1.5,
      1.5,
      1.75,
      1.75,
      2.0,
      2.0,
      2.0,
      2.25,
      2.25,
      2.5,
      2.5,
      2.5,
      2.5,
      2.75,
      3.0,
      3.0,
      3.0,
      3.0,
      3.0,
      3.0208,
      3.25,
      3.5,
      3.5,
      3.6667,
      4.0,
      4.0,
      4.0,
      4.0,
      4.25,
      4.5,
      4.5,
      4.5,
      4.5,
      4.5,
      4.75,
      5.0,
      5.0,
      5.0,
      5.0,
      5.0208,
      5.25,
      5.25,
      5.5,
      5.5,
      5.6667,
      5.75,
      5.8333,
      6.0,
      6.0,
      6.0,
      6.0,
      6.1667,
      6.25,
      6.3333,
      6.5,
      6.5,
      6.5,
      6.5,
      6.625,
      6.75,
      6.875,
      7.0,
      7.0,
      7.0,
      7.0,
      7.0,
      7.0208,
      7.125,
      7.25,
      7.3333,
      7.4167,
      7.5,
      7.5,
      7.5,
      7.5833,
      7.6667,
      7.75,
      7.8333
    ],
    "ioi": [
      0.0,
      0.0,
      0.0,
      0.25,
      0.25,
      0.0,
      0.0,
      0.0,
      0.25,
      0.25,
      0.0,
      0.0,
      0.0,
      0.0521,
      0.1979,
      0.0,
      0.25,
      0.0,
      0.25,
      0.0,
      0.25,
      0.0,
      0.0,
      0.25,
      0.0,
      0.25,
      0.0,
      0.0,
      0.0,
      0.25,
      0.25,
      0.0,
      0.0,
      0.0,
      0.0,
      0.0208,
      0.2292,
      0.25,
      0.0,
      0.1667,
      0.3333,
      0.0,
      0.0,
      0.0,
      0.25,
      0.25,
      0.0,
      0.0,
      0.0,
      0.0,
      0.25,
      0.25,
      0.0,
      0.0,
      0.0,
      0.0208,
      0.2292,
      0.0,
      0.25,
      0.0,
      0.1667,
      0.0833,
      0.0833,
      0.1667,
      0.0,
      0.0,
      0.0,
      0.1667,
      0.0833,
      0.0833,
      0.1667,
      0.0,
      0.0,
      0.0,
      0.125,
      0.125,
      0.125,
      0.125,
      0.0,
      0.0,
      0.0,
      0.0,
      0.0208,
      0.1042,
      0.125,
      0.0833,
      0.0834,
      0.0833,
      0.0,
      0.0,
      0.0833,
      0.0834,
      0.0833,
      0.0833,
      0.1667
    ],
    "grid": "16th",
    "euclidean_approx": [
      32,
      32
    ],
    "swing_ratio": 1.1
  },
  "pitch": {
    "notes_used": [
      36,
      37,
      38,
      39,
      40,
      42,
      43,
      44,
      45,
      48,
      49,
      50
    ],
    "intervals": [
      6,
      6,
      2,
      7,
      7,
      6,
      1,
      7,
      7,
      6,
      5,
      1,
      2,
      6,
      3,
      7,
      1,
      1,
      0,
      1,
      2,
      1,
      5,
      8,
      3,
      7,
      6,
      1,
      6,
      6,
      5,
      4,
      1,
      2,
      3,
      9,
      4,
      1,
      3,
      2,
      7,
      6,
      1,
      2,
      2,
      7,
      6,
      1,
      2,
      5,
      7,
      6,
      5,
      1,
      2,
      6,
      3,
      7,
      1,
      1,
      0,
      3,
      3,
      1,
      1,
      2,
      4,
      6,
      1,
      1,
      7,
      6,
      1,
      2,
      2,
      0,
      0,
      5,
      4,
      1,
      2,
      3,
      9,
      4,
      0,
      0,
      0,
      1,
      1,
      2,
      2,
      0,
      0,
      0
    ],
    "register": "low",
    "is_melodic": true,
    "pitch_range": 14,
    "pitch_distribution": {
      "36": 8,
      "42": 16,
      "48": 4,
      "50": 3,
      "43": 40,
      "37": 2,
      "45": 10,
      "39": 4,
      "44": 2,
      "40": 2,
      "49": 2,
      "38": 2
    }
  },
  "velocity": {
    "mean": 83.6,
    "variance": 524.2,
    "std": 22.9,
    "accents": [
      0,
      10,
      13,
      14,
      20,
      24,
      31,
      36,
      41,
      52,
      55,
      56,
      57,
      62,
      69,
      78,
      79,
      83
    ],
    "profile": [
      113,
      90,
      63,
      61,
      47,
      87,
      79,
      89,
      76,
      80,
      113,
      101,
      71,
      120,
      127,
      95,
      74,
      43,
      77,
      78,
      126,
      24,
      74,
      66,
      121,
      82,
      58,
      59,
      83,
      58,
      85,
      111,
      90,
      82,
      99,
      60,
      127,
      81,
      34,
      77,
      80,
      108,
      89,
      84,
      90,
      92,
      97,
      82,
      81,
      84,
      44,
      83,
      119,
      103,
      81,
      127,
      127,
      112,
      83,
      38,
      81,
      76,
      111,
      79,
      40,
      81,
      80,
      39,
      78,
      121,
      81,
      105,
      75,
      81,
      60,
      81,
      80,
      81,
      121,
      126,
      82,
      61,
      63,
      127,
      79,
      85,
      81,
      79,
      72,
      69,
      66,
      74,
      79,
      81,
      81
    ]
  },
  "notes": [
    {
      "pitch": 36,
      "start_time": 0.0,
      "duration": 0.0729,
      "velocity": 113
    },
    {
      "pitch": 42,
      "start_time": 0.0,
      "duration": 0.0729,
      "velocity": 90
    },
    {
      "pitch": 48,
      "start_time": 0.0,
      "duration": 0.0417,
      "velocity": 63
    },
    {
      "pitch": 50,
      "start_time": 0.0,
      "duration": 0.0833,
      "velocity": 61
    },
    {
      "pitch": 43,
      "start_time": 0.25,
      "duration": 0.25,
      "velocity": 47
    },
    {
      "pitch": 36,
      "start_time": 0.5,
      "duration": 0.0625,
      "velocity": 87
    },
    {
      "pitch": 42,
      "start_time": 0.5,
      "duration": 0.0729,
      "velocity": 79
    },
    {
      "pitch": 43,
      "start_time": 0.5,
      "duration": 0.25,
      "velocity": 89
    },
    {
      "pitch": 50,
      "start_time": 0.5,
      "duration": 1.4688,
      "velocity": 76
    },
    {
      "pitch": 43,
      "start_time": 0.75,
      "duration": 0.25,
      "velocity": 80
    },
    {
      "pitch": 37,
      "start_time": 1.0,
      "duration": 0.0729,
      "velocity": 113
    },
    {
      "pitch": 42,
      "start_time": 1.0,
      "duration": 0.0625,
      "velocity": 101
    },
    {
      "pitch": 43,
      "start_time": 1.0,
      "duration": 0.25,
      "velocity": 71
    },
    {
      "pitch": 45,
      "start_time": 1.0,
      "duration": 0.4688,
      "velocity": 120
    },
    {
      "pitch": 39,
      "start_time": 1.0521,
      "duration": 0.3438,
      "velocity": 127
    },
    {
      "pitch": 36,
      "start_time": 1.25,
      "duration": 0.1146,
      "velocity": 95
    },
    {
      "pitch": 43,
      "start_time": 1.25,
      "duration": 0.25,
      "velocity": 74
    },
    {
      "pitch": 42,
      "start_time": 1.5,
      "duration": 0.0521,
      "velocity": 43
    },
    {
      "pitch": 43,
      "start_time": 1.5,
      "duration": 0.25,
      "velocity": 77
    },
    {
      "pitch": 43,
      "start_time": 1.75,
      "duration": 0.25,
      "velocity": 78
    },
    {
      "pitch": 44,
      "start_time": 1.75,
      "duration": 0.0938,
      "velocity": 126
    },
    {
      "pitch": 42,
      "start_time": 2.0,
      "duration": 0.0312,
      "velocity": 24
    },
    {
      "pitch": 43,
      "start_time": 2.0,
      "duration": 0.25,
      "velocity": 74
    },
    {
      "pitch": 48,
      "start_time": 2.0,
      "duration": 0.4479,
      "velocity": 66
    },
    {
      "pitch": 40,
      "start_time": 2.25,
      "duration": 0.0833,
      "velocity": 121
    },
    {
      "pitch": 43,
      "start_time": 2.25,
      "duration": 0.25,
      "velocity": 82
    },
    {
      "pitch": 36,
      "start_time": 2.5,
      "duration": 0.0521,
      "velocity": 58
    },
    {
      "pitch": 42,
      "start_time": 2.5,
      "duration": 0.0729,
      "velocity": 59
    },
    {
      "pitch": 43,
      "start_time": 2.5,
      "duration": 0.25,
      "velocity": 83
    },
    {
      "pitch": 49,
      "start_time": 2.5,
      "duration": 0.4896,
      "velocity": 58
    },
    {
      "pitch": 43,
      "start_time": 2.75,
      "duration": 0.25,
      "velocity": 85
    },
    {
      "pitch": 38,
      "start_time": 3.0,
      "duration": 0.0729,
      "velocity": 111
    },
    {
      "pitch": 42,
      "start_time": 3.0,
      "duration": 0.0417,
      "velocity": 90
    },
    {
      "pitch": 43,
      "start_time": 3.0,
      "duration": 0.25,
      "velocity": 82
    },
    {
      "pitch": 45,
      "start_time": 3.0,
      "duration": 0.5,
      "velocity": 99
    },
    {
      "pitch": 48,
      "start_time": 3.0,
      "duration": 0.8021,
      "velocity": 60
    },
    {
      "pitch": 39,
      "start_time": 3.0208,
      "duration": 0.375,
      "velocity": 127
    },
    {
      "pitch": 43,
      "start_time": 3.25,
      "duration": 0.4167,
      "velocity": 81
    },
    {
      "pitch": 42,
      "start_time": 3.5,
      "duration": 0.0521,
      "velocity": 34
    },
    {
      "pitch": 45,
      "start_time": 3.5,
      "duration": 0.5,
      "velocity": 77
    },
    {
      "pitch": 43,
      "start_time": 3.6667,
      "duration": 0.3333,
      "velocity": 80
    },
    {
      "pitch": 36,
      "start_time": 4.0,
      "duration": 0.0729,
      "velocity": 108
    },
    {
      "pitch": 42,
      "start_time": 4.0,
      "duration": 0.0729,
      "velocity": 89
    },
    {
      "pitch": 43,
      "start_time": 4.0,
      "duration": 0.25,
      "velocity": 84
    },
    {
      "pitch": 45,
      "start_time": 4.0,
      "duration": 0.5,
      "velocity": 90
    },
    {
      "pitch": 43,
      "start_time": 4.25,
      "duration": 0.25,
      "velocity": 92
    },
    {
      "pitch": 36,
      "start_time": 4.5,
      "duration": 0.0625,
      "velocity": 97
    },
    {
      "pitch": 42,
      "start_time": 4.5,
      "duration": 0.0729,
      "velocity": 82
    },
    {
      "pitch": 43,
      "start_time": 4.5,
      "duration": 0.25,
      "velocity": 81
    },
    {
      "pitch": 45,
      "start_time": 4.5,
      "duration": 0.3021,
      "velocity": 84
    },
    {
      "pitch": 50,
      "start_time": 4.5,
      "duration": 1.3958,
      "velocity": 44
    },
    {
      "pitch": 43,
      "start_time": 4.75,
      "duration": 0.25,
      "velocity": 83
    },
    {
      "pitch": 37,
      "start_time": 5.0,
      "duration": 0.0729,
      "velocity": 119
    },
    {
      "pitch": 42,
      "start_time": 5.0,
      "duration": 0.0729,
      "velocity": 103
    },
    {
      "pitch": 43,
      "start_time": 5.0,
      "duration": 0.25,
      "velocity": 81
    },
    {
      "pitch": 45,
      "start_time": 5.0,
      "duration": 0.3958,
      "velocity": 127
    },
    {
      "pitch": 39,
      "start_time": 5.0208,
      "duration": 0.3229,
      "velocity": 127
    },
    {
      "pitch": 36,
      "start_time": 5.25,
      "duration": 0.1146,
      "velocity": 112
    },
    {
      "pitch": 43,
      "start_time": 5.25,
      "duration": 0.25,
      "velocity": 83
    },
    {
      "pitch": 42,
      "start_time": 5.5,
      "duration": 0.0625,
      "velocity": 38
    },
    {
      "pitch": 43,
      "start_time": 5.5,
      "duration": 0.1667,
      "velocity": 81
    },
    {
      "pitch": 43,
      "start_time": 5.6667,
      "duration": 0.1667,
      "velocity": 76
    },
    {
      "pitch": 40,
      "start_time": 5.75,
      "duration": 0.0938,
      "velocity": 111
    },
    {
      "pitch": 43,
      "start_time": 5.8333,
      "duration": 0.1667,
      "velocity": 79
    },
    {
      "pitch": 42,
      "start_time": 6.0,
      "duration": 0.0729,
      "velocity": 40
    },
    {
      "pitch": 43,
      "start_time": 6.0,
      "duration": 0.1667,
      "velocity": 81
    },
    {
      "pitch": 45,
      "start_time": 6.0,
      "duration": 0.5,
      "velocity": 80
    },
    {
      "pitch": 49,
      "start_time": 6.0,
      "duration": 1.0417,
      "velocity": 39
    },
    {
      "pitch": 43,
      "start_time": 6.1667,
      "duration": 0.1667,
      "velocity": 78
    },
    {
      "pitch": 44,
      "start_time": 6.25,
      "duration": 0.1042,
      "velocity": 121
    },
    {
      "pitch": 43,
      "start_time": 6.3333,
      "duration": 0.1667,
      "velocity": 81
    },
    {
      "pitch": 36,
      "start_time": 6.5,
      "duration": 0.0729,
      "velocity": 105
    },
    {
      "pitch": 42,
      "start_time": 6.5,
      "duration": 0.0729,
      "velocity": 75
    },
    {
      "pitch": 43,
      "start_time": 6.5,
      "duration": 0.125,
      "velocity": 81
    },
    {
      "pitch": 45,
      "start_time": 6.5,
      "duration": 0.5,
      "velocity": 60
    },
    {
      "pitch": 43,
      "start_time": 6.625,
      "duration": 0.125,
      "velocity": 81
    },
    {
      "pitch": 43,
      "start_time": 6.75,
      "duration": 0.125,
      "velocity": 80
    },
    {
      "pitch": 43,
      "start_time": 6.875,
      "duration": 0.125,
      "velocity": 81
    },
    {
      "pitch": 38,
      "start_time": 7.0,
      "duration": 0.0729,
      "velocity": 121
    },
    {
      "pitch": 42,
      "start_time": 7.0,
      "duration": 0.0729,
      "velocity": 126
    },
    {
      "pitch": 43,
      "start_time": 7.0,
      "duration": 0.125,
      "velocity": 82
    },
    {
      "pitch": 45,
      "start_time": 7.0,
      "duration": 0.5,
      "velocity": 61
    },
    {
      "pitch": 48,
      "start_time": 7.0,
      "duration": 1.0,
      "velocity": 63
    },
    {
      "pitch": 39,
      "start_time": 7.0208,
      "duration": 0.2812,
      "velocity": 127
    },
    {
      "pitch": 43,
      "start_time": 7.125,
      "duration": 0.125,
      "velocity": 79
    },
    {
      "pitch": 43,
      "start_time": 7.25,
      "duration": 0.0833,
      "velocity": 85
    },
    {
      "pitch": 43,
      "start_time": 7.3333,
      "duration": 0.0833,
      "velocity": 81
    },
    {
      "pitch": 43,
      "start_time": 7.4167,
      "duration": 0.0833,
      "velocity": 79
    },
    {
      "pitch": 42,
      "start_time": 7.5,
      "duration": 0.0729,
      "velocity": 72
    },
    {
      "pitch": 43,
      "start_time": 7.5,
      "duration": 0.0833,
      "velocity": 69
    },
    {
      "pitch": 45,
      "start_time": 7.5,
      "duration": 0.1979,
      "velocity": 66
    },
    {
      "pitch": 43,
      "start_time": 7.5833,
      "duration": 0.0833,
      "velocity": 74
    },
    {
      "pitch": 43,
      "start_time": 7.6667,
      "duration": 0.0833,
      "velocity": 79
    },
    {
      "pitch": 43,
      "start_time": 7.75,
      "duration": 0.0833,
      "velocity": 81
    },
    {
      "pitch": 43,
      "start_time": 7.8333,
      "duration": 0.0104,
      "velocity": 81
    }
  ]
}