{
  "source": {
    "song": "packs",
    "track_index": 0,
    "track_name": "Beat Tools / MIDI Clips / 132 - 152 bpm / Dreams Kit groove 03_140 bpm",
    "slot_index": 0,
    "clip_name": "Beat Tools / MIDI Clips / 132 - 152 bpm / Dreams Kit groove 03_140 bpm",
    "mid_file": "/Users/darnold/Music/Ableton/Packs/Beat Tools/MIDI Clips/132 - 152 bpm/Dreams Kit groove 03_140 bpm.alc"
  },
  "meta": {
    "bpm": 140.0,
    "key": "?",
    "scale": "?",
    "length_beats": 12.0,
    "note_count": 66
  },
  "rhythm": {
    "density": 0.812,
    "hit_positions": [
      0.0,
      0.0,
      0.0,
      0.125,
      0.25,
      0.5,
      0.75,
      1.0,
      1.25,
      1.5,
      1.625,
      1.75,
      1.9167,
      1.9688,
      2.0,
      2.0,
      2.25,
      2.25,
      2.5,
      2.75,
      3.0,
      3.0,
      3.0,
      3.25,
      3.25,
      3.5,
      3.75,
      4.0,
      4.25,
      4.5,
      4.5,
      4.75,
      4.75,
      5.0,
      5.0,
      5.0,
      5.125,
      5.25,
      5.25,
      5.5,
      5.5,
      5.625,
      5.75,
      5.75,
      5.9688,
      6.0,
      6.0,
      6.0,
      6.125,
      6.25,
      6.25,
      6.5,
      6.5,
      6.5,
      6.75,
      6.75,
      7.0,
      7.0,
      7.0,
      7.25,
      7.25,
      7.5,
      7.5,
      7.75,
      7.75,
      8.0
    ],
    "ioi": [
      0.0,
      0.0,
      0.125,
      0.125,
      0.25,
      0.25,
      0.25,
      0.25,
      0.25,
      0.125,
      0.125,
      0.1667,
      0.0521,
      0.0312,
      0.0,
      0.25,
      0.0,
      0.25,
      0.25,
      0.25,
      0.0,
      0.0,
      0.25,
      0.0,
      0.25,
      0.25,
      0.25,
      0.25,
      0.25,
      0.0,
      0.25,
      0.0,
      0.25,
      0.0,
      0.0,
      0.125,
      0.125,
      0.0,
      0.25,
      0.0,
      0.125,
      0.125,
      0.0,
      0.2188,
      0.0312,
      0.0,
      0.0,
      0.125,
      0.125,
      0.0,
      0.25,
      0.0,
      0.0,
      0.25,
      0.0,
      0.25,
      0.0,
      0.0,
      0.25,
      0.0,
      0.25,
      0.0,
      0.25,
      0.0,
      0.25,
      4.0
    ],
    "grid": "16th",
    "euclidean_approx": [
      48,
      48
    ],
    "swing_ratio": 1.086
  },
  "pitch": {
    "notes_used": [
      36,
      37,
      38,
      41,
      46,
      49,
      51,
      52,
      56,
      57,
      58
    ],
    "intervals": [
      10,
      3,
      3,
      6,
      0,
      0,
      0,
      0,
      0,
      6,
      6,
      9,
      1,
      3,
      5,
      0,
      6,
      6,
      0,
      10,
      10,
      3,
      3,
      10,
      10,
      0,
      0,
      0,
      8,
      8,
      8,
      8,
      10,
      2,
      8,
      10,
      18,
      8,
      8,
      8,
      11,
      19,
      8,
      9,
      1,
      3,
      5,
      12,
      20,
      8,
      10,
      2,
      8,
      8,
      8,
      8,
      8,
      5,
      13,
      8,
      8,
      8,
      8,
      8,
      3
    ],
    "register": "low",
    "is_melodic": true,
    "pitch_range": 22,
    "pitch_distribution": {
      "36": 4,
      "46": 32,
      "49": 3,
      "52": 3,
      "37": 2,
      "38": 15,
      "41": 2,
      "56": 2,
      "57": 1,
      "58": 1,
      "51": 1
    }
  },
  "velocity": {
    "mean": 91.6,
    "variance": 651.2,
    "std": 25.5,
    "accents": [
      0,
      20,
      33,
      51
    ],
    "profile": [
      124,
      104,
      107,
      107,
      90,
      99,
      100,
      100,
      99,
      98,
      101,
      99,
      107,
      107,
      107,
      100,
      99,
      107,
      99,
      100,
      121,
      100,
      107,
      100,
      107,
      99,
      100,
      100,
      100,
      49,
      99,
      37,
      100,
      122,
      14,
      100,
      107,
      18,
      100,
      34,
      99,
      107,
      44,
      100,
      107,
      24,
      107,
      100,
      107,
      76,
      100,
      124,
      34,
      99,
      74,
      100,
      74,
      100,
      105,
      60,
      100,
      51,
      100,
      78,
      100,
      107
    ]
  },
  "notes": [
    {
      "pitch": 36,
      "start_time": 0.0,
      "duration": 0.0938,
      "velocity": 124
    },
    {
      "pitch": 46,
      "start_time": 0.0,
      "duration": 0.125,
      "velocity": 104
    },
    {
      "pitch": 49,
      "start_time": 0.0,
      "duration": 2.5833,
      "velocity": 107
    },
    {
      "pitch": 52,
      "start_time": 0.125,
      "duration": 0.1354,
      "velocity": 107
    },
    {
      "pitch": 46,
      "start_time": 0.25,
      "duration": 0.25,
      "velocity": 90
    },
    {
      "pitch": 46,
      "start_time": 0.5,
      "duration": 0.25,
      "velocity": 99
    },
    {
      "pitch": 46,
      "start_time": 0.75,
      "duration": 0.25,
      "velocity": 100
    },
    {
      "pitch": 46,
      "start_time": 1.0,
      "duration": 0.25,
      "velocity": 100
    },
    {
      "pitch": 46,
      "start_time": 1.25,
      "duration": 0.25,
      "velocity": 99
    },
    {
      "pitch": 46,
      "start_time": 1.5,
      "duration": 0.25,
      "velocity": 98
    },
    {
      "pitch": 52,
      "start_time": 1.625,
      "duration": 0.0625,
      "velocity": 101
    },
    {
      "pitch": 46,
      "start_time": 1.75,
      "duration": 0.25,
      "velocity": 99
    },
    {
      "pitch": 37,
      "start_time": 1.9167,
      "duration": 0.1146,
      "velocity": 107
    },
    {
      "pitch": 38,
      "start_time": 1.9688,
      "duration": 0.1042,
      "velocity": 107
    },
    {
      "pitch": 41,
      "start_time": 2.0,
      "duration": 0.0729,
      "velocity": 107
    },
    {
      "pitch": 46,
      "start_time": 2.0,
      "duration": 0.25,
      "velocity": 100
    },
    {
      "pitch": 46,
      "start_time": 2.25,
      "duration": 0.25,
      "velocity": 99
    },
    {
      "pitch": 52,
      "start_time": 2.25,
      "duration": 0.1458,
      "velocity": 107
    },
    {
      "pitch": 46,
      "start_time": 2.5,
      "duration": 0.25,
      "velocity": 99
    },
    {
      "pitch": 46,
      "start_time": 2.75,
      "duration": 0.25,
      "velocity": 100
    },
    {
      "pitch": 36,
      "start_time": 3.0,
      "duration": 0.1042,
      "velocity": 121
    },
    {
      "pitch": 46,
      "start_time": 3.0,
      "duration": 0.25,
      "velocity": 100
    },
    {
      "pitch": 49,
      "start_time": 3.0,
      "duration": 3.7708,
      "velocity": 107
    },
    {
      "pitch": 46,
      "start_time": 3.25,
      "duration": 0.25,
      "velocity": 100
    },
    {
      "pitch": 56,
      "start_time": 3.25,
      "duration": 0.0938,
      "velocity": 107
    },
    {
      "pitch": 46,
      "start_time": 3.5,
      "duration": 0.25,
      "velocity": 99
    },
    {
      "pitch": 46,
      "start_time": 3.75,
      "duration": 0.25,
      "velocity": 100
    },
    {
      "pitch": 46,
      "start_time": 4.0,
      "duration": 0.25,
      "velocity": 100
    },
    {
      "pitch": 46,
      "start_time": 4.25,
      "duration": 0.25,
      "velocity": 100
    },
    {
      "pitch": 38,
      "start_time": 4.5,
      "duration": 0.25,
      "velocity": 49
    },
    {
      "pitch": 46,
      "start_time": 4.5,
      "duration": 0.25,
      "velocity": 99
    },
    {
      "pitch": 38,
      "start_time": 4.75,
      "duration": 0.25,
      "velocity": 37
    },
    {
      "pitch": 46,
      "start_time": 4.75,
      "duration": 0.25,
      "velocity": 100
    },
    {
      "pitch": 36,
      "start_time": 5.0,
      "duration": 0.0938,
      "velocity": 122
    },
    {
      "pitch": 38,
      "start_time": 5.0,
      "duration": 0.25,
      "velocity": 14
    },
    {
      "pitch": 46,
      "start_time": 5.0,
      "duration": 0.25,
      "velocity": 100
    },
    {
      "pitch": 56,
      "start_time": 5.125,
      "duration": 0.0938,
      "velocity": 107
    },
    {
      "pitch": 38,
      "start_time": 5.25,
      "duration": 0.25,
      "velocity": 18
    },
    {
      "pitch": 46,
      "start_time": 5.25,
      "duration": 0.25,
      "velocity": 100
    },
    {
      "pitch": 38,
      "start_time": 5.5,
      "duration": 0.25,
      "velocity": 34
    },
    {
      "pitch": 46,
      "start_time": 5.5,
      "duration": 0.25,
      "velocity": 99
    },
    {
      "pitch": 57,
      "start_time": 5.625,
      "duration": 0.1042,
      "velocity": 107
    },
    {
      "pitch": 38,
      "start_time": 5.75,
      "duration": 0.25,
      "velocity": 44
    },
    {
      "pitch": 46,
      "start_time": 5.75,
      "duration": 0.25,
      "velocity": 100
    },
    {
      "pitch": 37,
      "start_time": 5.9688,
      "duration": 0.125,
      "velocity": 107
    },
    {
      "pitch": 38,
      "start_time": 6.0,
      "duration": 0.001,
      "velocity": 24
    },
    {
      "pitch": 41,
      "start_time": 6.0,
      "duration": 0.1354,
      "velocity": 107
    },
    {
      "pitch": 46,
      "start_time": 6.0,
      "duration": 0.25,
      "velocity": 100
    },
    {
      "pitch": 58,
      "start_time": 6.125,
      "duration": 0.0729,
      "velocity": 107
    },
    {
      "pitch": 38,
      "start_time": 6.25,
      "duration": 0.25,
      "velocity": 76
    },
    {
      "pitch": 46,
      "start_time": 6.25,
      "duration": 0.25,
      "velocity": 100
    },
    {
      "pitch": 36,
      "start_time": 6.5,
      "duration": 0.0938,
      "velocity": 124
    },
    {
      "pitch": 38,
      "start_time": 6.5,
      "duration": 0.1771,
      "velocity": 34
    },
    {
      "pitch": 46,
      "start_time": 6.5,
      "duration": 0.25,
      "velocity": 99
    },
    {
      "pitch": 38,
      "start_time": 6.75,
      "duration": 0.25,
      "velocity": 74
    },
    {
      "pitch": 46,
      "start_time": 6.75,
      "duration": 0.25,
      "velocity": 100
    },
    {
      "pitch": 38,
      "start_time": 7.0,
      "duration": 0.25,
      "velocity": 74
    },
    {
      "pitch": 46,
      "start_time": 7.0,
      "duration": 0.25,
      "velocity": 100
    },
    {
      "pitch": 51,
      "start_time": 7.0,
      "duration": 0.7292,
      "velocity": 105
    },
    {
      "pitch": 38,
      "start_time": 7.25,
      "duration": 0.25,
      "velocity": 60
    },
    {
      "pitch": 46,
      "start_time": 7.25,
      "duration": 0.25,
      "velocity": 100
    },
    {
      "pitch": 38,
      "start_time": 7.5,
      "duration": 0.25,
      "velocity": 51
    },
    {
      "pitch": 46,
      "start_time": 7.5,
      "duration": 0.25,
      "velocity": 100
    },
    {
      "pitch": 38,
      "start_time": 7.75,
      "duration": 0.25,
      "velocity": 78
    },
    {
      "pitch": 46,
      "start_time": 7.75,
      "duration": 0.25,
      "velocity": 100
    },
    {
      "pitch": 49,
      "start_time": 8.0,
      "duration": 0.0417,
      "velocity": 107
    }
  ]
}