{
  "source": {
    "song": "packs",
    "track_index": 0,
    "track_name": "Beat Tools / MIDI Clips / 110 - 124 bpm / Deep Knight groove 03_120bpm",
    "slot_index": 0,
    "clip_name": "Beat Tools / MIDI Clips / 110 - 124 bpm / Deep Knight groove 03_120bpm",
    "mid_file": "/Users/darnold/Music/Ableton/Packs/Beat Tools/MIDI Clips/110 - 124 bpm/Deep Knight groove 03_120bpm.alc"
  },
  "meta": {
    "bpm": 120.0,
    "key": "?",
    "scale": "?",
    "length_beats": 16.0,
    "note_count": 98
  },
  "rhythm": {
    "density": 0.797,
    "hit_positions": [
      0.0,
      0.0,
      0.0,
      0.0,
      0.0,
      0.0,
      0.5,
      1.0,
      1.5,
      1.5,
      2.0,
      2.0,
      2.0,
      2.0,
      2.0,
      2.0397,
      2.5,
      2.7666,
      3.0,
      3.2666,
      3.5,
      3.5,
      3.5,
      3.7666,
      4.0,
      4.0,
      4.0,
      4.2666,
      4.5,
      4.7666,
      5.0,
      5.0,
      5.0,
      5.2666,
      5.5,
      6.0,
      6.0,
      6.0,
      6.0,
      6.0,
      6.5,
      7.0,
      7.0,
      7.2666,
      7.5,
      7.6333,
      7.75,
      7.7666,
      7.8833,
      8.0,
      8.0,
      8.0,
      8.0,
      8.0,
      8.0,
      8.5,
      9.0,
      9.5,
      9.5,
      10.0,
      10.0,
      10.0,
      10.0,
      10.0,
      10.04,
      10.5,
      10.7666,
      11.0,
      11.2666,
      11.5,
      11.5,
      11.5,
      11.7666,
      12.0,
      12.0,
      12.0,
      12.2666,
      12.5,
      12.5,
      12.7666,
      12.7666,
      13.0,
      13.0,
      13.0,
      13.0,
      13.2666,
      13.2666,
      13.5,
      13.9003,
      14.0,
      14.0,
      14.0,
      14.0,
      14.0,
      14.5,
      15.0,
      15.0,
      15.5
    ],
    "ioi": [
      0.0,
      0.0,
      0.0,
      0.0,
      0.0,
      0.5,
      0.5,
      0.5,
      0.0,
      0.5,
      0.0,
      0.0,
      0.0,
      0.0,
      0.0397,
      0.4603,
      0.2666,
      0.2334,
      0.2666,
      0.2334,
      0.0,
      0.0,
      0.2666,
      0.2334,
      0.0,
      0.0,
      0.2666,
      0.2334,
      0.2666,
      0.2334,
      0.0,
      0.0,
      0.2666,
      0.2334,
      0.5,
      0.0,
      0.0,
      0.0,
      0.0,
      0.5,
      0.5,
      0.0,
      0.2666,
      0.2334,
      0.1333,
      0.1167,
      0.0166,
      0.1167,
      0.1167,
      0.0,
      0.0,
      0.0,
      0.0,
      0.0,
      0.5,
      0.5,
      0.5,
      0.0,
      0.5,
      0.0,
      0.0,
      0.0,
      0.0,
      0.04,
      0.46,
      0.2666,
      0.2334,
      0.2666,
      0.2334,
      0.0,
      0.0,
      0.2666,
      0.2334,
      0.0,
      0.0,
      0.2666,
      0.2334,
      0.0,
      0.2666,
      0.0,
      0.2334,
      0.0,
      0.0,
      0.0,
      0.2666,
      0.0,
      0.2334,
      0.4003,
      0.0997,
      0.0,
      0.0,
      0.0,
      0.0,
      0.5,
      0.5,
      0.0,
      0.5,
      0.5
    ],
    "grid": "16th",
    "euclidean_approx": [
      64,
      64
    ],
    "swing_ratio": 1.116
  },
  "pitch": {
    "notes_used": [
      36,
      37,
      38,
      39,
      40,
      41,
      42,
      44,
      45,
      51,
      52,
      53,
      54
    ],
    "intervals": [
      4,
      1,
      1,
      2,
      8,
      10,
      0,
      6,
      6,
      5,
      1,
      4,
      2,
      8,
      13,
      3,
      0,
      0,
      0,
      6,
      4,
      2,
      0,
      0,
      3,
      7,
      10,
      0,
      0,
      6,
      4,
      2,
      0,
      0,
      5,
      1,
      4,
      3,
      7,
      10,
      0,
      11,
      12,
      1,
      0,
      0,
      1,
      1,
      6,
      4,
      1,
      1,
      2,
      8,
      10,
      0,
      6,
      6,
      5,
      1,
      4,
      2,
      8,
      13,
      3,
      0,
      0,
      0,
      6,
      4,
      2,
      0,
      0,
      3,
      9,
      12,
      2,
      2,
      2,
      2,
      6,
      4,
      2,
      12,
      14,
      2,
      0,
      9,
      14,
      1,
      2,
      2,
      12,
      12,
      0,
      11,
      11
    ],
    "register": "low",
    "is_melodic": true,
    "pitch_range": 18,
    "pitch_distribution": {
      "36": 8,
      "40": 10,
      "41": 4,
      "42": 47,
      "44": 4,
      "52": 6,
      "37": 4,
      "38": 4,
      "39": 2,
      "45": 3,
      "53": 2,
      "54": 3,
      "51": 1
    }
  },
  "velocity": {
    "mean": 87.3,
    "variance": 220.8,
    "std": 14.9,
    "accents": [
      1,
      2,
      4,
      5,
      13,
      14,
      15,
      21,
      26,
      31,
      38,
      39,
      42,
      50,
      53,
      54,
      62,
      63,
      64,
      70,
      74,
      75,
      79,
      82,
      84,
      85,
      88,
      91,
      93,
      96
    ],
    "profile": [
      97,
      103,
      103,
      74,
      103,
      103,
      70,
      71,
      99,
      80,
      98,
      98,
      74,
      103,
      103,
      103,
      68,
      67,
      70,
      71,
      99,
      103,
      71,
      68,
      73,
      102,
      103,
      70,
      71,
      70,
      100,
      103,
      74,
      71,
      75,
      98,
      98,
      76,
      103,
      103,
      75,
      75,
      103,
      97,
      63,
      63,
      80,
      97,
      80,
      97,
      103,
      100,
      74,
      103,
      103,
      70,
      71,
      99,
      80,
      98,
      98,
      74,
      103,
      103,
      103,
      68,
      67,
      70,
      71,
      99,
      103,
      71,
      68,
      73,
      103,
      103,
      70,
      101,
      71,
      103,
      70,
      100,
      103,
      74,
      103,
      103,
      71,
      75,
      103,
      98,
      98,
      103,
      76,
      103,
      75,
      75,
      103,
      76
    ]
  },
  "notes": [
    {
      "pitch": 36,
      "start_time": 0.0,
      "duration": 0.0483,
      "velocity": 97
    },
    {
      "pitch": 40,
      "start_time": 0.0,
      "duration": 0.0711,
      "velocity": 103
    },
    {
      "pitch": 41,
      "start_time": 0.0,
      "duration": 0.0867,
      "velocity": 103
    },
    {
      "pitch": 42,
      "start_time": 0.0,
      "duration": 0.1311,
      "velocity": 74
    },
    {
      "pitch": 44,
      "start_time": 0.0,
      "duration": 0.0599,
      "velocity": 103
    },
    {
      "pitch": 52,
      "start_time": 0.0,
      "duration": 0.0756,
      "velocity": 103
    },
    {
      "pitch": 42,
      "start_time": 0.5,
      "duration": 0.0775,
      "velocity": 70
    },
    {
      "pitch": 42,
      "start_time": 1.0,
      "duration": 0.0987,
      "velocity": 71
    },
    {
      "pitch": 36,
      "start_time": 1.5,
      "duration": 0.0579,
      "velocity": 99
    },
    {
      "pitch": 42,
      "start_time": 1.5,
      "duration": 0.1254,
      "velocity": 80
    },
    {
      "pitch": 37,
      "start_time": 2.0,
      "duration": 0.0775,
      "velocity": 98
    },
    {
      "pitch": 38,
      "start_time": 2.0,
      "duration": 0.0887,
      "velocity": 98
    },
    {
      "pitch": 42,
      "start_time": 2.0,
      "duration": 0.1275,
      "velocity": 74
    },
    {
      "pitch": 44,
      "start_time": 2.0,
      "duration": 0.0963,
      "velocity": 103
    },
    {
      "pitch": 52,
      "start_time": 2.0,
      "duration": 0.0503,
      "velocity": 103
    },
    {
      "pitch": 39,
      "start_time": 2.0397,
      "duration": 0.0983,
      "velocity": 103
    },
    {
      "pitch": 42,
      "start_time": 2.5,
      "duration": 0.0811,
      "velocity": 68
    },
    {
      "pitch": 42,
      "start_time": 2.7666,
      "duration": 0.0948,
      "velocity": 67
    },
    {
      "pitch": 42,
      "start_time": 3.0,
      "duration": 0.0639,
      "velocity": 70
    },
    {
      "pitch": 42,
      "start_time": 3.2666,
      "duration": 0.1119,
      "velocity": 71
    },
    {
      "pitch": 36,
      "start_time": 3.5,
      "duration": 0.0791,
      "velocity": 99
    },
    {
      "pitch": 40,
      "start_time": 3.5,
      "duration": 0.0635,
      "velocity": 103
    },
    {
      "pitch": 42,
      "start_time": 3.5,
      "duration": 0.0943,
      "velocity": 71
    },
    {
      "pitch": 42,
      "start_time": 3.7666,
      "duration": 0.0927,
      "velocity": 68
    },
    {
      "pitch": 42,
      "start_time": 4.0,
      "duration": 0.1179,
      "velocity": 73
    },
    {
      "pitch": 45,
      "start_time": 4.0,
      "duration": 0.0616,
      "velocity": 102
    },
    {
      "pitch": 52,
      "start_time": 4.0,
      "duration": 0.0791,
      "velocity": 103
    },
    {
      "pitch": 42,
      "start_time": 4.2666,
      "duration": 0.1179,
      "velocity": 70
    },
    {
      "pitch": 42,
      "start_time": 4.5,
      "duration": 0.1003,
      "velocity": 71
    },
    {
      "pitch": 42,
      "start_time": 4.7666,
      "duration": 0.1023,
      "velocity": 70
    },
    {
      "pitch": 36,
      "start_time": 5.0,
      "duration": 0.0751,
      "velocity": 100
    },
    {
      "pitch": 40,
      "start_time": 5.0,
      "duration": 0.0599,
      "velocity": 103
    },
    {
      "pitch": 42,
      "start_time": 5.0,
      "duration": 0.1079,
      "velocity": 74
    },
    {
      "pitch": 42,
      "start_time": 5.2666,
      "duration": 0.1063,
      "velocity": 71
    },
    {
      "pitch": 42,
      "start_time": 5.5,
      "duration": 0.1259,
      "velocity": 75
    },
    {
      "pitch": 37,
      "start_time": 6.0,
      "duration": 0.0831,
      "velocity": 98
    },
    {
      "pitch": 38,
      "start_time": 6.0,
      "duration": 0.0983,
      "velocity": 98
    },
    {
      "pitch": 42,
      "start_time": 6.0,
      "duration": 0.1355,
      "velocity": 76
    },
    {
      "pitch": 45,
      "start_time": 6.0,
      "duration": 0.0579,
      "velocity": 103
    },
    {
      "pitch": 52,
      "start_time": 6.0,
      "duration": 0.1023,
      "velocity": 103
    },
    {
      "pitch": 42,
      "start_time": 6.5,
      "duration": 0.1371,
      "velocity": 75
    },
    {
      "pitch": 42,
      "start_time": 7.0,
      "duration": 0.1335,
      "velocity": 75
    },
    {
      "pitch": 53,
      "start_time": 7.0,
      "duration": 0.0927,
      "velocity": 103
    },
    {
      "pitch": 41,
      "start_time": 7.2666,
      "duration": 0.0715,
      "velocity": 97
    },
    {
      "pitch": 42,
      "start_time": 7.5,
      "duration": 0.1333,
      "velocity": 63
    },
    {
      "pitch": 42,
      "start_time": 7.6333,
      "duration": 0.1167,
      "velocity": 63
    },
    {
      "pitch": 42,
      "start_time": 7.75,
      "duration": 0.1333,
      "velocity": 80
    },
    {
      "pitch": 41,
      "start_time": 7.7666,
      "duration": 0.054,
      "velocity": 97
    },
    {
      "pitch": 42,
      "start_time": 7.8833,
      "duration": 0.0742,
      "velocity": 80
    },
    {
      "pitch": 36,
      "start_time": 8.0,
      "duration": 0.0483,
      "velocity": 97
    },
    {
      "pitch": 40,
      "start_time": 8.0,
      "duration": 0.0831,
      "velocity": 103
    },
    {
      "pitch": 41,
      "start_time": 8.0,
      "duration": 0.0851,
      "velocity": 100
    },
    {
      "pitch": 42,
      "start_time": 8.0,
      "duration": 0.1311,
      "velocity": 74
    },
    {
      "pitch": 44,
      "start_time": 8.0,
      "duration": 0.0907,
      "velocity": 103
    },
    {
      "pitch": 52,
      "start_time": 8.0,
      "duration": 0.0948,
      "velocity": 103
    },
    {
      "pitch": 42,
      "start_time": 8.5,
      "duration": 0.0775,
      "velocity": 70
    },
    {
      "pitch": 42,
      "start_time": 9.0,
      "duration": 0.0987,
      "velocity": 71
    },
    {
      "pitch": 36,
      "start_time": 9.5,
      "duration": 0.0579,
      "velocity": 99
    },
    {
      "pitch": 42,
      "start_time": 9.5,
      "duration": 0.1254,
      "velocity": 80
    },
    {
      "pitch": 37,
      "start_time": 10.0,
      "duration": 0.0775,
      "velocity": 98
    },
    {
      "pitch": 38,
      "start_time": 10.0,
      "duration": 0.0887,
      "velocity": 98
    },
    {
      "pitch": 42,
      "start_time": 10.0,
      "duration": 0.1275,
      "velocity": 74
    },
    {
      "pitch": 44,
      "start_time": 10.0,
      "duration": 0.0579,
      "velocity": 103
    },
    {
      "pitch": 52,
      "start_time": 10.0,
      "duration": 0.0771,
      "velocity": 103
    },
    {
      "pitch": 39,
      "start_time": 10.04,
      "duration": 0.0907,
      "velocity": 103
    },
    {
      "pitch": 42,
      "start_time": 10.5,
      "duration": 0.0811,
      "velocity": 68
    },
    {
      "pitch": 42,
      "start_time": 10.7666,
      "duration": 0.0948,
      "velocity": 67
    },
    {
      "pitch": 42,
      "start_time": 11.0,
      "duration": 0.0639,
      "velocity": 70
    },
    {
      "pitch": 42,
      "start_time": 11.2666,
      "duration": 0.1119,
      "velocity": 71
    },
    {
      "pitch": 36,
      "start_time": 11.5,
      "duration": 0.0791,
      "velocity": 99
    },
    {
      "pitch": 40,
      "start_time": 11.5,
      "duration": 0.0967,
      "velocity": 103
    },
    {
      "pitch": 42,
      "start_time": 11.5,
      "duration": 0.0943,
      "velocity": 71
    },
    {
      "pitch": 42,
      "start_time": 11.7666,
      "duration": 0.0927,
      "velocity": 68
    },
    {
      "pitch": 42,
      "start_time": 12.0,
      "duration": 0.1179,
      "velocity": 73
    },
    {
      "pitch": 45,
      "start_time": 12.0,
      "duration": 0.1023,
      "velocity": 103
    },
    {
      "pitch": 54,
      "start_time": 12.0,
      "duration": 0.1059,
      "velocity": 103
    },
    {
      "pitch": 42,
      "start_time": 12.2666,
      "duration": 0.1179,
      "velocity": 70
    },
    {
      "pitch": 40,
      "start_time": 12.5,
      "duration": 0.0483,
      "velocity": 101
    },
    {
      "pitch": 42,
      "start_time": 12.5,
      "duration": 0.1003,
      "velocity": 71
    },
    {
      "pitch": 40,
      "start_time": 12.7666,
      "duration": 0.054,
      "velocity": 103
    },
    {
      "pitch": 42,
      "start_time": 12.7666,
      "duration": 0.1023,
      "velocity": 70
    },
    {
      "pitch": 36,
      "start_time": 13.0,
      "duration": 0.0751,
      "velocity": 100
    },
    {
      "pitch": 40,
      "start_time": 13.0,
      "duration": 0.0616,
      "velocity": 103
    },
    {
      "pitch": 42,
      "start_time": 13.0,
      "duration": 0.1079,
      "velocity": 74
    },
    {
      "pitch": 54,
      "start_time": 13.0,
      "duration": 0.1159,
      "velocity": 103
    },
    {
      "pitch": 40,
      "start_time": 13.2666,
      "duration": 0.0771,
      "velocity": 103
    },
    {
      "pitch": 42,
      "start_time": 13.2666,
      "duration": 0.1063,
      "velocity": 71
    },
    {
      "pitch": 42,
      "start_time": 13.5,
      "duration": 0.1259,
      "velocity": 75
    },
    {
      "pitch": 51,
      "start_time": 13.9003,
      "duration": 0.0791,
      "velocity": 103
    },
    {
      "pitch": 37,
      "start_time": 14.0,
      "duration": 0.0831,
      "velocity": 98
    },
    {
      "pitch": 38,
      "start_time": 14.0,
      "duration": 0.0983,
      "velocity": 98
    },
    {
      "pitch": 40,
      "start_time": 14.0,
      "duration": 0.0504,
      "velocity": 103
    },
    {
      "pitch": 42,
      "start_time": 14.0,
      "duration": 0.1355,
      "velocity": 76
    },
    {
      "pitch": 54,
      "start_time": 14.0,
      "duration": 0.1219,
      "velocity": 103
    },
    {
      "pitch": 42,
      "start_time": 14.5,
      "duration": 0.1371,
      "velocity": 75
    },
    {
      "pitch": 42,
      "start_time": 15.0,
      "duration": 0.1335,
      "velocity": 75
    },
    {
      "pitch": 53,
      "start_time": 15.0,
      "duration": 0.1023,
      "velocity": 103
    },
    {
      "pitch": 42,
      "start_time": 15.5,
      "duration": 0.1295,
      "velocity": 76
    }
  ]
}