{
  "source": {
    "song": "packs",
    "track_index": 0,
    "track_name": "Beat Tools / MIDI Clips / 94 - 105 bpm / Rock Wit Me groove 01_102 bpm",
    "slot_index": 0,
    "clip_name": "Beat Tools / MIDI Clips / 94 - 105 bpm / Rock Wit Me groove 01_102 bpm",
    "mid_file": "/Users/darnold/Music/Ableton/Packs/Beat Tools/MIDI Clips/94 - 105 bpm/Rock Wit Me groove 01_102 bpm.alc"
  },
  "meta": {
    "bpm": 102.0,
    "key": "?",
    "scale": "?",
    "length_beats": 16.0,
    "note_count": 66
  },
  "rhythm": {
    "density": 0.734,
    "hit_positions": [
      0.0,
      0.0,
      0.0,
      0.9896,
      1.4792,
      1.5,
      1.75,
      1.9688,
      2.2292,
      2.4792,
      2.4896,
      2.9792,
      2.9896,
      3.5,
      3.7083,
      3.7396,
      3.9375,
      3.9688,
      3.9792,
      4.9896,
      5.4688,
      5.4896,
      5.7396,
      5.9688,
      6.2188,
      6.2188,
      6.4688,
      6.7188,
      6.9688,
      6.9792,
      6.9792,
      6.9896,
      7.4688,
      7.9479,
      7.9792,
      7.9896,
      8.7292,
      8.9688,
      9.4792,
      9.5,
      9.75,
      9.9792,
      10.2188,
      10.4479,
      10.4688,
      10.9792,
      10.9792,
      11.4896,
      11.6979,
      11.9688,
      11.9688,
      11.9792,
      12.9792,
      13.4583,
      13.4688,
      13.7292,
      14.1979,
      14.2083,
      14.4479,
      14.6979,
      14.9583,
      14.9688,
      14.9688,
      14.9688,
      15.4479,
      15.9583
    ],
    "ioi": [
      0.0,
      0.0,
      0.9896,
      0.4896,
      0.0208,
      0.25,
      0.2188,
      0.2604,
      0.25,
      0.0104,
      0.4896,
      0.0104,
      0.5104,
      0.2083,
      0.0313,
      0.1979,
      0.0313,
      0.0104,
      1.0104,
      0.4792,
      0.0208,
      0.25,
      0.2292,
      0.25,
      0.0,
      0.25,
      0.25,
      0.25,
      0.0104,
      0.0,
      0.0104,
      0.4792,
      0.4791,
      0.0313,
      0.0104,
      0.7396,
      0.2396,
      0.5104,
      0.0208,
      0.25,
      0.2292,
      0.2396,
      0.2291,
      0.0209,
      0.5104,
      0.0,
      0.5104,
      0.2083,
      0.2709,
      0.0,
      0.0104,
      1.0,
      0.4791,
      0.0105,
      0.2604,
      0.4687,
      0.0104,
      0.2396,
      0.25,
      0.2604,
      0.0105,
      0.0,
      0.0,
      0.4791,
      0.5104,
      0.0417
    ],
    "grid": "16th",
    "euclidean_approx": [
      64,
      64
    ],
    "swing_ratio": 1.851
  },
  "pitch": {
    "notes_used": [
      36,
      37,
      39,
      43,
      44,
      48,
      49,
      50,
      51,
      52,
      53,
      54
    ],
    "intervals": [
      3,
      13,
      13,
      4,
      10,
      9,
      5,
      5,
      0,
      4,
      9,
      2,
      6,
      10,
      17,
      16,
      16,
      3,
      0,
      14,
      10,
      1,
      5,
      0,
      5,
      0,
      5,
      2,
      2,
      10,
      5,
      11,
      4,
      3,
      16,
      0,
      13,
      14,
      10,
      1,
      5,
      5,
      6,
      6,
      7,
      2,
      4,
      10,
      17,
      16,
      13,
      0,
      14,
      10,
      1,
      5,
      5,
      0,
      5,
      12,
      14,
      2,
      15,
      11,
      4
    ],
    "register": "low",
    "is_melodic": true,
    "pitch_range": 18,
    "pitch_distribution": {
      "36": 5,
      "39": 20,
      "52": 5,
      "43": 8,
      "53": 6,
      "44": 12,
      "48": 1,
      "37": 4,
      "49": 1,
      "54": 2,
      "50": 1,
      "51": 1
    }
  },
  "velocity": {
    "mean": 116.9,
    "variance": 155.7,
    "std": 12.5,
    "accents": [],
    "profile": [
      127,
      117,
      127,
      93,
      100,
      127,
      127,
      112,
      119,
      126,
      127,
      102,
      127,
      107,
      127,
      109,
      127,
      127,
      112,
      95,
      127,
      112,
      127,
      78,
      102,
      117,
      127,
      93,
      127,
      111,
      127,
      127,
      111,
      113,
      127,
      127,
      127,
      91,
      127,
      106,
      127,
      106,
      118,
      127,
      127,
      127,
      90,
      106,
      127,
      127,
      127,
      110,
      99,
      127,
      112,
      127,
      107,
      119,
      127,
      96,
      127,
      127,
      124,
      127,
      120,
      117
    ]
  },
  "notes": [
    {
      "pitch": 36,
      "start_time": 0.0,
      "duration": 0.0312,
      "velocity": 127
    },
    {
      "pitch": 39,
      "start_time": 0.0,
      "duration": 0.0312,
      "velocity": 117
    },
    {
      "pitch": 52,
      "start_time": 0.0,
      "duration": 0.0625,
      "velocity": 127
    },
    {
      "pitch": 39,
      "start_time": 0.9896,
      "duration": 0.1458,
      "velocity": 93
    },
    {
      "pitch": 43,
      "start_time": 1.4792,
      "duration": 0.1146,
      "velocity": 100
    },
    {
      "pitch": 53,
      "start_time": 1.5,
      "duration": 0.0625,
      "velocity": 127
    },
    {
      "pitch": 44,
      "start_time": 1.75,
      "duration": 0.1042,
      "velocity": 127
    },
    {
      "pitch": 39,
      "start_time": 1.9688,
      "duration": 0.0729,
      "velocity": 112
    },
    {
      "pitch": 44,
      "start_time": 2.2292,
      "duration": 0.0417,
      "velocity": 119
    },
    {
      "pitch": 44,
      "start_time": 2.4792,
      "duration": 0.0833,
      "velocity": 126
    },
    {
      "pitch": 48,
      "start_time": 2.4896,
      "duration": 1.3646,
      "velocity": 127
    },
    {
      "pitch": 39,
      "start_time": 2.9792,
      "duration": 0.125,
      "velocity": 102
    },
    {
      "pitch": 37,
      "start_time": 2.9896,
      "duration": 0.0833,
      "velocity": 127
    },
    {
      "pitch": 43,
      "start_time": 3.5,
      "duration": 0.1042,
      "velocity": 107
    },
    {
      "pitch": 53,
      "start_time": 3.7083,
      "duration": 0.0417,
      "velocity": 127
    },
    {
      "pitch": 36,
      "start_time": 3.7396,
      "duration": 0.0417,
      "velocity": 109
    },
    {
      "pitch": 52,
      "start_time": 3.9375,
      "duration": 0.0417,
      "velocity": 127
    },
    {
      "pitch": 36,
      "start_time": 3.9688,
      "duration": 0.0417,
      "velocity": 127
    },
    {
      "pitch": 39,
      "start_time": 3.9792,
      "duration": 0.0729,
      "velocity": 112
    },
    {
      "pitch": 39,
      "start_time": 4.9896,
      "duration": 0.1458,
      "velocity": 95
    },
    {
      "pitch": 53,
      "start_time": 5.4688,
      "duration": 0.0521,
      "velocity": 127
    },
    {
      "pitch": 43,
      "start_time": 5.4896,
      "duration": 0.1354,
      "velocity": 112
    },
    {
      "pitch": 44,
      "start_time": 5.7396,
      "duration": 0.1042,
      "velocity": 127
    },
    {
      "pitch": 39,
      "start_time": 5.9688,
      "duration": 0.0417,
      "velocity": 78
    },
    {
      "pitch": 39,
      "start_time": 6.2188,
      "duration": 0.1146,
      "velocity": 102
    },
    {
      "pitch": 44,
      "start_time": 6.2188,
      "duration": 0.0417,
      "velocity": 117
    },
    {
      "pitch": 44,
      "start_time": 6.4688,
      "duration": 0.0938,
      "velocity": 127
    },
    {
      "pitch": 39,
      "start_time": 6.7188,
      "duration": 0.0312,
      "velocity": 93
    },
    {
      "pitch": 37,
      "start_time": 6.9688,
      "duration": 0.0729,
      "velocity": 127
    },
    {
      "pitch": 39,
      "start_time": 6.9792,
      "duration": 0.1354,
      "velocity": 111
    },
    {
      "pitch": 49,
      "start_time": 6.9792,
      "duration": 0.7708,
      "velocity": 127
    },
    {
      "pitch": 54,
      "start_time": 6.9896,
      "duration": 0.0625,
      "velocity": 127
    },
    {
      "pitch": 43,
      "start_time": 7.4688,
      "duration": 0.1042,
      "velocity": 111
    },
    {
      "pitch": 39,
      "start_time": 7.9479,
      "duration": 0.0938,
      "velocity": 113
    },
    {
      "pitch": 36,
      "start_time": 7.9792,
      "duration": 0.0729,
      "velocity": 127
    },
    {
      "pitch": 52,
      "start_time": 7.9896,
      "duration": 0.0521,
      "velocity": 127
    },
    {
      "pitch": 52,
      "start_time": 8.7292,
      "duration": 0.0625,
      "velocity": 127
    },
    {
      "pitch": 39,
      "start_time": 8.9688,
      "duration": 0.1042,
      "velocity": 91
    },
    {
      "pitch": 53,
      "start_time": 9.4792,
      "duration": 0.0521,
      "velocity": 127
    },
    {
      "pitch": 43,
      "start_time": 9.5,
      "duration": 0.1146,
      "velocity": 106
    },
    {
      "pitch": 44,
      "start_time": 9.75,
      "duration": 0.1042,
      "velocity": 127
    },
    {
      "pitch": 39,
      "start_time": 9.9792,
      "duration": 0.0833,
      "velocity": 106
    },
    {
      "pitch": 44,
      "start_time": 10.2188,
      "duration": 0.0417,
      "velocity": 118
    },
    {
      "pitch": 50,
      "start_time": 10.4479,
      "duration": 1.3646,
      "velocity": 127
    },
    {
      "pitch": 44,
      "start_time": 10.4688,
      "duration": 0.0938,
      "velocity": 127
    },
    {
      "pitch": 37,
      "start_time": 10.9792,
      "duration": 0.0729,
      "velocity": 127
    },
    {
      "pitch": 39,
      "start_time": 10.9792,
      "duration": 0.1042,
      "velocity": 90
    },
    {
      "pitch": 43,
      "start_time": 11.4896,
      "duration": 0.125,
      "velocity": 106
    },
    {
      "pitch": 53,
      "start_time": 11.6979,
      "duration": 0.0417,
      "velocity": 127
    },
    {
      "pitch": 36,
      "start_time": 11.9688,
      "duration": 0.0625,
      "velocity": 127
    },
    {
      "pitch": 52,
      "start_time": 11.9688,
      "duration": 0.0521,
      "velocity": 127
    },
    {
      "pitch": 39,
      "start_time": 11.9792,
      "duration": 0.0833,
      "velocity": 110
    },
    {
      "pitch": 39,
      "start_time": 12.9792,
      "duration": 0.1458,
      "velocity": 99
    },
    {
      "pitch": 53,
      "start_time": 13.4583,
      "duration": 0.0729,
      "velocity": 127
    },
    {
      "pitch": 43,
      "start_time": 13.4688,
      "duration": 0.1667,
      "velocity": 112
    },
    {
      "pitch": 44,
      "start_time": 13.7292,
      "duration": 0.1042,
      "velocity": 127
    },
    {
      "pitch": 39,
      "start_time": 14.1979,
      "duration": 0.1354,
      "velocity": 107
    },
    {
      "pitch": 44,
      "start_time": 14.2083,
      "duration": 0.0417,
      "velocity": 119
    },
    {
      "pitch": 44,
      "start_time": 14.4479,
      "duration": 0.0938,
      "velocity": 127
    },
    {
      "pitch": 39,
      "start_time": 14.6979,
      "duration": 0.0521,
      "velocity": 96
    },
    {
      "pitch": 51,
      "start_time": 14.9583,
      "duration": 0.7812,
      "velocity": 127
    },
    {
      "pitch": 37,
      "start_time": 14.9688,
      "duration": 0.0625,
      "velocity": 127
    },
    {
      "pitch": 39,
      "start_time": 14.9688,
      "duration": 0.1458,
      "velocity": 124
    },
    {
      "pitch": 54,
      "start_time": 14.9688,
      "duration": 0.0521,
      "velocity": 127
    },
    {
      "pitch": 43,
      "start_time": 15.4479,
      "duration": 0.0833,
      "velocity": 120
    },
    {
      "pitch": 39,
      "start_time": 15.9583,
      "duration": 0.0417,
      "velocity": 117
    }
  ]
}