{
  "source": {
    "song": "packs",
    "track_index": 0,
    "track_name": "Beat Tools / MIDI Clips / 110 - 124 bpm / Azimuth Kit groove 01_114 bpm",
    "slot_index": 0,
    "clip_name": "Beat Tools / MIDI Clips / 110 - 124 bpm / Azimuth Kit groove 01_114 bpm",
    "mid_file": "/Users/darnold/Music/Ableton/Packs/Beat Tools/MIDI Clips/110 - 124 bpm/Azimuth Kit groove 01_114 bpm.alc"
  },
  "meta": {
    "bpm": 114.0,
    "key": "?",
    "scale": "?",
    "length_beats": 16.0,
    "note_count": 82
  },
  "rhythm": {
    "density": 0.625,
    "hit_positions": [
      0.0,
      0.0,
      0.0,
      0.0,
      0.0,
      1.0,
      1.0,
      1.0104,
      1.5,
      1.5,
      2.0,
      2.0,
      2.25,
      2.5,
      2.75,
      3.0,
      3.0,
      3.0,
      3.5,
      4.0,
      4.0,
      4.0,
      4.0,
      4.5,
      5.0,
      5.0104,
      5.5,
      6.0,
      6.0,
      6.5104,
      7.0,
      7.0104,
      7.5,
      7.5,
      7.75,
      8.0,
      8.0,
      8.0,
      8.5,
      8.75,
      9.0,
      9.0,
      9.0,
      9.0,
      9.0,
      9.5,
      9.5,
      9.5,
      9.75,
      10.0,
      10.0,
      10.0,
      10.5,
      10.5,
      10.75,
      11.0,
      11.0,
      11.0,
      11.0,
      11.0,
      11.0,
      11.25,
      11.5,
      11.5,
      11.75,
      12.0,
      12.5,
      12.5,
      13.0,
      13.0,
      13.0,
      13.25,
      13.25,
      14.0,
      14.0,
      14.5,
      15.0,
      15.0,
      15.0,
      15.5,
      15.5,
      15.75
    ],
    "ioi": [
      0.0,
      0.0,
      0.0,
      0.0,
      1.0,
      0.0,
      0.0104,
      0.4896,
      0.0,
      0.5,
      0.0,
      0.25,
      0.25,
      0.25,
      0.25,
      0.0,
      0.0,
      0.5,
      0.5,
      0.0,
      0.0,
      0.0,
      0.5,
      0.5,
      0.0104,
      0.4896,
      0.5,
      0.0,
      0.5104,
      0.4896,
      0.0104,
      0.4896,
      0.0,
      0.25,
      0.25,
      0.0,
      0.0,
      0.5,
      0.25,
      0.25,
      0.0,
      0.0,
      0.0,
      0.0,
      0.5,
      0.0,
      0.0,
      0.25,
      0.25,
      0.0,
      0.0,
      0.5,
      0.0,
      0.25,
      0.25,
      0.0,
      0.0,
      0.0,
      0.0,
      0.0,
      0.25,
      0.25,
      0.0,
      0.25,
      0.25,
      0.5,
      0.0,
      0.5,
      0.0,
      0.0,
      0.25,
      0.0,
      0.75,
      0.0,
      0.5,
      0.5,
      0.0,
      0.0,
      0.5,
      0.0,
      0.25,
      0.25
    ],
    "grid": "16th",
    "euclidean_approx": [
      64,
      64
    ],
    "swing_ratio": 1.0
  },
  "pitch": {
    "notes_used": [
      36,
      37,
      42,
      43,
      44,
      45,
      46,
      47,
      48,
      49,
      50,
      51,
      52,
      53
    ],
    "intervals": [
      6,
      2,
      4,
      3,
      9,
      8,
      1,
      13,
      6,
      5,
      5,
      0,
      0,
      0,
      6,
      6,
      3,
      3,
      6,
      6,
      1,
      9,
      10,
      0,
      7,
      13,
      1,
      5,
      7,
      7,
      7,
      13,
      6,
      0,
      6,
      6,
      4,
      7,
      0,
      11,
      6,
      1,
      1,
      3,
      17,
      6,
      11,
      0,
      16,
      5,
      11,
      11,
      11,
      11,
      6,
      6,
      5,
      1,
      1,
      4,
      11,
      0,
      11,
      11,
      0,
      6,
      6,
      0,
      1,
      5,
      12,
      6,
      5,
      5,
      0,
      0,
      1,
      5,
      6,
      5,
      5
    ],
    "register": "low",
    "is_melodic": true,
    "pitch_range": 17,
    "pitch_distribution": {
      "36": 11,
      "42": 35,
      "44": 1,
      "48": 5,
      "51": 1,
      "50": 2,
      "49": 6,
      "37": 4,
      "45": 1,
      "43": 3,
      "52": 1,
      "46": 1,
      "53": 9,
      "47": 2
    }
  },
  "velocity": {
    "mean": 50.5,
    "variance": 835.2,
    "std": 28.9,
    "accents": [
      2,
      4,
      17,
      21,
      37,
      43,
      51,
      53,
      57,
      60,
      63,
      80
    ],
    "profile": [
      47,
      44,
      121,
      77,
      101,
      26,
      74,
      67,
      8,
      17,
      74,
      63,
      38,
      40,
      41,
      33,
      36,
      94,
      13,
      39,
      47,
      87,
      76,
      3,
      22,
      67,
      3,
      70,
      52,
      13,
      26,
      49,
      3,
      24,
      31,
      74,
      55,
      117,
      31,
      38,
      17,
      69,
      75,
      82,
      72,
      19,
      27,
      78,
      50,
      75,
      59,
      93,
      22,
      90,
      22,
      57,
      24,
      96,
      75,
      43,
      98,
      27,
      26,
      104,
      21,
      17,
      59,
      48,
      26,
      28,
      76,
      53,
      40,
      73,
      62,
      3,
      59,
      36,
      74,
      11,
      85,
      32
    ]
  },
  "notes": [
    {
      "pitch": 36,
      "start_time": 0.0,
      "duration": 0.1146,
      "velocity": 47
    },
    {
      "pitch": 42,
      "start_time": 0.0,
      "duration": 0.1146,
      "velocity": 44
    },
    {
      "pitch": 44,
      "start_time": 0.0,
      "duration": 2.6042,
      "velocity": 121
    },
    {
      "pitch": 48,
      "start_time": 0.0,
      "duration": 3.9688,
      "velocity": 77
    },
    {
      "pitch": 51,
      "start_time": 0.0,
      "duration": 15.7396,
      "velocity": 101
    },
    {
      "pitch": 42,
      "start_time": 1.0,
      "duration": 0.0833,
      "velocity": 26
    },
    {
      "pitch": 50,
      "start_time": 1.0,
      "duration": 3.0208,
      "velocity": 74
    },
    {
      "pitch": 49,
      "start_time": 1.0104,
      "duration": 3.6458,
      "velocity": 67
    },
    {
      "pitch": 36,
      "start_time": 1.5,
      "duration": 0.0417,
      "velocity": 8
    },
    {
      "pitch": 42,
      "start_time": 1.5,
      "duration": 0.0417,
      "velocity": 17
    },
    {
      "pitch": 37,
      "start_time": 2.0,
      "duration": 0.0938,
      "velocity": 74
    },
    {
      "pitch": 42,
      "start_time": 2.0,
      "duration": 0.1042,
      "velocity": 63
    },
    {
      "pitch": 42,
      "start_time": 2.25,
      "duration": 0.25,
      "velocity": 38
    },
    {
      "pitch": 42,
      "start_time": 2.5,
      "duration": 0.25,
      "velocity": 40
    },
    {
      "pitch": 42,
      "start_time": 2.75,
      "duration": 0.1875,
      "velocity": 41
    },
    {
      "pitch": 36,
      "start_time": 3.0,
      "duration": 0.1042,
      "velocity": 33
    },
    {
      "pitch": 42,
      "start_time": 3.0,
      "duration": 0.0833,
      "velocity": 36
    },
    {
      "pitch": 45,
      "start_time": 3.0,
      "duration": 4.2292,
      "velocity": 94
    },
    {
      "pitch": 42,
      "start_time": 3.5,
      "duration": 0.0417,
      "velocity": 13
    },
    {
      "pitch": 36,
      "start_time": 4.0,
      "duration": 0.1146,
      "velocity": 39
    },
    {
      "pitch": 42,
      "start_time": 4.0,
      "duration": 0.1146,
      "velocity": 47
    },
    {
      "pitch": 43,
      "start_time": 4.0,
      "duration": 2.7812,
      "velocity": 87
    },
    {
      "pitch": 52,
      "start_time": 4.0,
      "duration": 2.7917,
      "velocity": 76
    },
    {
      "pitch": 42,
      "start_time": 4.5,
      "duration": 0.0729,
      "velocity": 3
    },
    {
      "pitch": 42,
      "start_time": 5.0,
      "duration": 0.0833,
      "velocity": 22
    },
    {
      "pitch": 49,
      "start_time": 5.0104,
      "duration": 0.2083,
      "velocity": 67
    },
    {
      "pitch": 36,
      "start_time": 5.5,
      "duration": 0.0417,
      "velocity": 3
    },
    {
      "pitch": 37,
      "start_time": 6.0,
      "duration": 0.1042,
      "velocity": 70
    },
    {
      "pitch": 42,
      "start_time": 6.0,
      "duration": 0.1042,
      "velocity": 52
    },
    {
      "pitch": 49,
      "start_time": 6.5104,
      "duration": 0.0938,
      "velocity": 13
    },
    {
      "pitch": 42,
      "start_time": 7.0,
      "duration": 0.0625,
      "velocity": 26
    },
    {
      "pitch": 49,
      "start_time": 7.0104,
      "duration": 0.3854,
      "velocity": 49
    },
    {
      "pitch": 36,
      "start_time": 7.5,
      "duration": 0.0417,
      "velocity": 3
    },
    {
      "pitch": 42,
      "start_time": 7.5,
      "duration": 0.25,
      "velocity": 24
    },
    {
      "pitch": 42,
      "start_time": 7.75,
      "duration": 0.0625,
      "velocity": 31
    },
    {
      "pitch": 36,
      "start_time": 8.0,
      "duration": 0.1042,
      "velocity": 74
    },
    {
      "pitch": 42,
      "start_time": 8.0,
      "duration": 0.0938,
      "velocity": 55
    },
    {
      "pitch": 46,
      "start_time": 8.0,
      "duration": 2.3333,
      "velocity": 117
    },
    {
      "pitch": 53,
      "start_time": 8.5,
      "duration": 0.0417,
      "velocity": 31
    },
    {
      "pitch": 53,
      "start_time": 8.75,
      "duration": 0.0833,
      "velocity": 38
    },
    {
      "pitch": 42,
      "start_time": 9.0,
      "duration": 0.0729,
      "velocity": 17
    },
    {
      "pitch": 48,
      "start_time": 9.0,
      "duration": 1.6042,
      "velocity": 69
    },
    {
      "pitch": 49,
      "start_time": 9.0,
      "duration": 1.75,
      "velocity": 75
    },
    {
      "pitch": 50,
      "start_time": 9.0,
      "duration": 4.6146,
      "velocity": 82
    },
    {
      "pitch": 53,
      "start_time": 9.0,
      "duration": 0.0417,
      "velocity": 72
    },
    {
      "pitch": 36,
      "start_time": 9.5,
      "duration": 0.0417,
      "velocity": 19
    },
    {
      "pitch": 42,
      "start_time": 9.5,
      "duration": 0.0417,
      "velocity": 27
    },
    {
      "pitch": 53,
      "start_time": 9.5,
      "duration": 0.0521,
      "velocity": 78
    },
    {
      "pitch": 53,
      "start_time": 9.75,
      "duration": 0.0833,
      "velocity": 50
    },
    {
      "pitch": 37,
      "start_time": 10.0,
      "duration": 0.0938,
      "velocity": 75
    },
    {
      "pitch": 42,
      "start_time": 10.0,
      "duration": 0.0938,
      "velocity": 59
    },
    {
      "pitch": 53,
      "start_time": 10.0,
      "duration": 0.0833,
      "velocity": 93
    },
    {
      "pitch": 42,
      "start_time": 10.5,
      "duration": 0.0833,
      "velocity": 22
    },
    {
      "pitch": 53,
      "start_time": 10.5,
      "duration": 0.1042,
      "velocity": 90
    },
    {
      "pitch": 42,
      "start_time": 10.75,
      "duration": 0.25,
      "velocity": 22
    },
    {
      "pitch": 36,
      "start_time": 11.0,
      "duration": 0.1042,
      "velocity": 57
    },
    {
      "pitch": 42,
      "start_time": 11.0,
      "duration": 0.25,
      "velocity": 24
    },
    {
      "pitch": 47,
      "start_time": 11.0,
      "duration": 3.9896,
      "velocity": 96
    },
    {
      "pitch": 48,
      "start_time": 11.0,
      "duration": 1.4896,
      "velocity": 75
    },
    {
      "pitch": 49,
      "start_time": 11.0,
      "duration": 1.5521,
      "velocity": 43
    },
    {
      "pitch": 53,
      "start_time": 11.0,
      "duration": 0.1042,
      "velocity": 98
    },
    {
      "pitch": 42,
      "start_time": 11.25,
      "duration": 0.25,
      "velocity": 27
    },
    {
      "pitch": 42,
      "start_time": 11.5,
      "duration": 0.25,
      "velocity": 26
    },
    {
      "pitch": 53,
      "start_time": 11.5,
      "duration": 0.2188,
      "velocity": 104
    },
    {
      "pitch": 42,
      "start_time": 11.75,
      "duration": 0.1771,
      "velocity": 21
    },
    {
      "pitch": 42,
      "start_time": 12.0,
      "duration": 0.0521,
      "velocity": 17
    },
    {
      "pitch": 36,
      "start_time": 12.5,
      "duration": 0.1042,
      "velocity": 59
    },
    {
      "pitch": 42,
      "start_time": 12.5,
      "duration": 0.0938,
      "velocity": 48
    },
    {
      "pitch": 42,
      "start_time": 13.0,
      "duration": 0.0729,
      "velocity": 26
    },
    {
      "pitch": 43,
      "start_time": 13.0,
      "duration": 0.3542,
      "velocity": 28
    },
    {
      "pitch": 48,
      "start_time": 13.0,
      "duration": 1.6562,
      "velocity": 76
    },
    {
      "pitch": 36,
      "start_time": 13.25,
      "duration": 0.1146,
      "velocity": 53
    },
    {
      "pitch": 42,
      "start_time": 13.25,
      "duration": 0.1042,
      "velocity": 40
    },
    {
      "pitch": 37,
      "start_time": 14.0,
      "duration": 0.0833,
      "velocity": 73
    },
    {
      "pitch": 42,
      "start_time": 14.0,
      "duration": 0.0938,
      "velocity": 62
    },
    {
      "pitch": 42,
      "start_time": 14.5,
      "duration": 0.0104,
      "velocity": 3
    },
    {
      "pitch": 42,
      "start_time": 15.0,
      "duration": 0.125,
      "velocity": 59
    },
    {
      "pitch": 43,
      "start_time": 15.0,
      "duration": 0.2812,
      "velocity": 36
    },
    {
      "pitch": 48,
      "start_time": 15.0,
      "duration": 0.8958,
      "velocity": 74
    },
    {
      "pitch": 42,
      "start_time": 15.5,
      "duration": 0.25,
      "velocity": 11
    },
    {
      "pitch": 47,
      "start_time": 15.5,
      "duration": 0.0417,
      "velocity": 85
    },
    {
      "pitch": 42,
      "start_time": 15.75,
      "duration": 0.1562,
      "velocity": 32
    }
  ]
}