{
  "source": {
    "song": "packs",
    "track_index": 0,
    "track_name": "Beat Tools / MIDI Clips / 59 - 80 bpm / Candler Kit Groove_80 bpm",
    "slot_index": 0,
    "clip_name": "Beat Tools / MIDI Clips / 59 - 80 bpm / Candler Kit Groove_80 bpm",
    "mid_file": "/Users/darnold/Music/Ableton/Packs/Beat Tools/MIDI Clips/59 - 80 bpm/Candler Kit Groove_80 bpm.alc"
  },
  "meta": {
    "bpm": 80.0,
    "key": "?",
    "scale": "?",
    "length_beats": 8.0,
    "note_count": 55
  },
  "rhythm": {
    "density": 0.938,
    "hit_positions": [
      0.0,
      0.0,
      0.25,
      0.5,
      0.5,
      0.75,
      1.0,
      1.0,
      1.25,
      1.5,
      1.5,
      1.5,
      2.0,
      2.0,
      2.0,
      2.5,
      2.75,
      3.0,
      3.0,
      3.0,
      3.0,
      3.5,
      4.0,
      4.0,
      4.0,
      4.25,
      4.5,
      4.75,
      5.0,
      5.0,
      5.0,
      5.25,
      5.25,
      5.5,
      5.5,
      5.5,
      5.5,
      5.75,
      6.0,
      6.0,
      6.0,
      6.25,
      6.5,
      6.5,
      6.5,
      6.75,
      7.0,
      7.0,
      7.25,
      7.375,
      7.5,
      7.5,
      7.5,
      7.625,
      7.75
    ],
    "ioi": [
      0.0,
      0.25,
      0.25,
      0.0,
      0.25,
      0.25,
      0.0,
      0.25,
      0.25,
      0.0,
      0.0,
      0.5,
      0.0,
      0.0,
      0.5,
      0.25,
      0.25,
      0.0,
      0.0,
      0.0,
      0.5,
      0.5,
      0.0,
      0.0,
      0.25,
      0.25,
      0.25,
      0.25,
      0.0,
      0.0,
      0.25,
      0.0,
      0.25,
      0.0,
      0.0,
      0.0,
      0.25,
      0.25,
      0.0,
      0.0,
      0.25,
      0.25,
      0.0,
      0.0,
      0.25,
      0.25,
      0.0,
      0.25,
      0.125,
      0.125,
      0.0,
      0.0,
      0.125,
      0.125,
      0.25
    ],
    "grid": "16th",
    "euclidean_approx": [
      32,
      32
    ],
    "swing_ratio": 1.036
  },
  "pitch": {
    "notes_used": [
      36,
      37,
      38,
      39,
      40,
      41,
      42,
      43,
      44,
      45,
      46,
      47,
      51,
      53,
      55,
      60,
      61,
      62,
      63
    ],
    "intervals": [
      10,
      2,
      2,
      13,
      15,
      2,
      4,
      2,
      3,
      4,
      1,
      6,
      6,
      11,
      11,
      2,
      7,
      2,
      3,
      9,
      9,
      6,
      6,
      3,
      1,
      2,
      2,
      2,
      4,
      19,
      21,
      20,
      23,
      4,
      1,
      20,
      1,
      25,
      6,
      21,
      1,
      26,
      6,
      19,
      17,
      6,
      9,
      10,
      0,
      6,
      10,
      7,
      23,
      0
    ],
    "register": "low",
    "is_melodic": true,
    "pitch_range": 27,
    "pitch_distribution": {
      "36": 5,
      "46": 1,
      "44": 4,
      "42": 13,
      "55": 1,
      "40": 4,
      "38": 3,
      "37": 7,
      "41": 2,
      "53": 2,
      "39": 1,
      "51": 1,
      "45": 1,
      "61": 3,
      "60": 2,
      "62": 2,
      "63": 1,
      "47": 1,
      "43": 1
    }
  },
  "velocity": {
    "mean": 64.5,
    "variance": 647.6,
    "std": 25.4,
    "accents": [
      0,
      17,
      19,
      28,
      29,
      30,
      34,
      38,
      46
    ],
    "profile": [
      95,
      84,
      63,
      40,
      71,
      33,
      83,
      85,
      41,
      57,
      77,
      65,
      79,
      71,
      78,
      54,
      51,
      95,
      86,
      106,
      65,
      47,
      89,
      65,
      88,
      49,
      35,
      54,
      90,
      102,
      104,
      61,
      68,
      81,
      93,
      74,
      70,
      62,
      95,
      82,
      56,
      53,
      2,
      58,
      78,
      85,
      94,
      3,
      18,
      13,
      39,
      50,
      67,
      23,
      23
    ]
  },
  "notes": [
    {
      "pitch": 36,
      "start_time": 0.0,
      "duration": 0.0521,
      "velocity": 95
    },
    {
      "pitch": 46,
      "start_time": 0.0,
      "duration": 0.0625,
      "velocity": 84
    },
    {
      "pitch": 44,
      "start_time": 0.25,
      "duration": 0.0729,
      "velocity": 63
    },
    {
      "pitch": 42,
      "start_time": 0.5,
      "duration": 0.0833,
      "velocity": 40
    },
    {
      "pitch": 55,
      "start_time": 0.5,
      "duration": 0.9375,
      "velocity": 71
    },
    {
      "pitch": 40,
      "start_time": 0.75,
      "duration": 0.0521,
      "velocity": 33
    },
    {
      "pitch": 38,
      "start_time": 1.0,
      "duration": 0.0521,
      "velocity": 83
    },
    {
      "pitch": 42,
      "start_time": 1.0,
      "duration": 0.0521,
      "velocity": 85
    },
    {
      "pitch": 40,
      "start_time": 1.25,
      "duration": 0.0312,
      "velocity": 41
    },
    {
      "pitch": 37,
      "start_time": 1.5,
      "duration": 0.0312,
      "velocity": 57
    },
    {
      "pitch": 41,
      "start_time": 1.5,
      "duration": 0.0312,
      "velocity": 77
    },
    {
      "pitch": 42,
      "start_time": 1.5,
      "duration": 0.0312,
      "velocity": 65
    },
    {
      "pitch": 36,
      "start_time": 2.0,
      "duration": 0.0625,
      "velocity": 79
    },
    {
      "pitch": 42,
      "start_time": 2.0,
      "duration": 0.0729,
      "velocity": 71
    },
    {
      "pitch": 53,
      "start_time": 2.0,
      "duration": 2.0208,
      "velocity": 78
    },
    {
      "pitch": 42,
      "start_time": 2.5,
      "duration": 0.0729,
      "velocity": 54
    },
    {
      "pitch": 44,
      "start_time": 2.75,
      "duration": 0.0625,
      "velocity": 51
    },
    {
      "pitch": 37,
      "start_time": 3.0,
      "duration": 0.0521,
      "velocity": 95
    },
    {
      "pitch": 39,
      "start_time": 3.0,
      "duration": 0.0625,
      "velocity": 86
    },
    {
      "pitch": 42,
      "start_time": 3.0,
      "duration": 0.0625,
      "velocity": 106
    },
    {
      "pitch": 51,
      "start_time": 3.0,
      "duration": 3.6354,
      "velocity": 65
    },
    {
      "pitch": 42,
      "start_time": 3.5,
      "duration": 0.0625,
      "velocity": 47
    },
    {
      "pitch": 36,
      "start_time": 4.0,
      "duration": 0.0625,
      "velocity": 89
    },
    {
      "pitch": 42,
      "start_time": 4.0,
      "duration": 0.0417,
      "velocity": 65
    },
    {
      "pitch": 45,
      "start_time": 4.0,
      "duration": 0.0208,
      "velocity": 88
    },
    {
      "pitch": 44,
      "start_time": 4.25,
      "duration": 0.0833,
      "velocity": 49
    },
    {
      "pitch": 42,
      "start_time": 4.5,
      "duration": 0.0729,
      "velocity": 35
    },
    {
      "pitch": 40,
      "start_time": 4.75,
      "duration": 0.0833,
      "velocity": 54
    },
    {
      "pitch": 38,
      "start_time": 5.0,
      "duration": 0.0521,
      "velocity": 90
    },
    {
      "pitch": 42,
      "start_time": 5.0,
      "duration": 0.0625,
      "velocity": 102
    },
    {
      "pitch": 61,
      "start_time": 5.0,
      "duration": 0.0521,
      "velocity": 104
    },
    {
      "pitch": 40,
      "start_time": 5.25,
      "duration": 0.0625,
      "velocity": 61
    },
    {
      "pitch": 60,
      "start_time": 5.25,
      "duration": 0.0417,
      "velocity": 68
    },
    {
      "pitch": 37,
      "start_time": 5.5,
      "duration": 0.0312,
      "velocity": 81
    },
    {
      "pitch": 41,
      "start_time": 5.5,
      "duration": 0.0312,
      "velocity": 93
    },
    {
      "pitch": 42,
      "start_time": 5.5,
      "duration": 0.0417,
      "velocity": 74
    },
    {
      "pitch": 62,
      "start_time": 5.5,
      "duration": 0.0417,
      "velocity": 70
    },
    {
      "pitch": 61,
      "start_time": 5.75,
      "duration": 0.0312,
      "velocity": 62
    },
    {
      "pitch": 36,
      "start_time": 6.0,
      "duration": 0.0521,
      "velocity": 95
    },
    {
      "pitch": 42,
      "start_time": 6.0,
      "duration": 0.0625,
      "velocity": 82
    },
    {
      "pitch": 63,
      "start_time": 6.0,
      "duration": 0.0417,
      "velocity": 56
    },
    {
      "pitch": 62,
      "start_time": 6.25,
      "duration": 0.0312,
      "velocity": 53
    },
    {
      "pitch": 36,
      "start_time": 6.5,
      "duration": 0.001,
      "velocity": 2
    },
    {
      "pitch": 42,
      "start_time": 6.5,
      "duration": 0.0729,
      "velocity": 58
    },
    {
      "pitch": 61,
      "start_time": 6.5,
      "duration": 0.0417,
      "velocity": 78
    },
    {
      "pitch": 44,
      "start_time": 6.75,
      "duration": 0.0833,
      "velocity": 85
    },
    {
      "pitch": 38,
      "start_time": 7.0,
      "duration": 0.0729,
      "velocity": 94
    },
    {
      "pitch": 47,
      "start_time": 7.0,
      "duration": 0.001,
      "velocity": 3
    },
    {
      "pitch": 37,
      "start_time": 7.25,
      "duration": 0.125,
      "velocity": 18
    },
    {
      "pitch": 37,
      "start_time": 7.375,
      "duration": 0.0312,
      "velocity": 13
    },
    {
      "pitch": 43,
      "start_time": 7.5,
      "duration": 0.0312,
      "velocity": 39
    },
    {
      "pitch": 53,
      "start_time": 7.5,
      "duration": 0.0312,
      "velocity": 50
    },
    {
      "pitch": 60,
      "start_time": 7.5,
      "duration": 0.0312,
      "velocity": 67
    },
    {
      "pitch": 37,
      "start_time": 7.625,
      "duration": 0.125,
      "velocity": 23
    },
    {
      "pitch": 37,
      "start_time": 7.75,
      "duration": 0.125,
      "velocity": 23
    }
  ]
}