{
  "source": {
    "song": "packs",
    "track_index": 0,
    "track_name": "Beat Tools / MIDI Clips / 59 - 80 bpm / Voltage Kit groove 01_78 bpm",
    "slot_index": 0,
    "clip_name": "Beat Tools / MIDI Clips / 59 - 80 bpm / Voltage Kit groove 01_78 bpm",
    "mid_file": "/Users/darnold/Music/Ableton/Packs/Beat Tools/MIDI Clips/59 - 80 bpm/Voltage Kit groove 01_78 bpm.alc"
  },
  "meta": {
    "bpm": 78.0,
    "key": "?",
    "scale": "?",
    "length_beats": 16.0,
    "note_count": 99
  },
  "rhythm": {
    "density": 1.656,
    "hit_positions": [
      0.0,
      0.0,
      0.0,
      0.5,
      0.5,
      0.5,
      0.5,
      0.75,
      1.0,
      1.0,
      1.25,
      1.25,
      1.5,
      1.5,
      1.75,
      2.0,
      2.25,
      2.5,
      2.75,
      2.75,
      3.0,
      3.0,
      3.25,
      3.5,
      3.75,
      4.0,
      4.0,
      4.0,
      4.5,
      4.5,
      4.5,
      4.5,
      4.75,
      5.0,
      5.0,
      5.25,
      5.25,
      5.5,
      5.5,
      5.75,
      6.0,
      6.25,
      6.25,
      6.5,
      6.5,
      6.5,
      7.0,
      7.0,
      7.5,
      7.5,
      7.75,
      8.0,
      8.0,
      8.0,
      8.5,
      8.5,
      8.5,
      8.5,
      8.75,
      9.0,
      9.0,
      9.25,
      9.25,
      9.5,
      9.5,
      9.75,
      10.0,
      10.0,
      10.75,
      11.0,
      11.5,
      11.5,
      11.75,
      12.0,
      12.0,
      12.0,
      12.5,
      12.5,
      12.5,
      12.5,
      12.75,
      13.0,
      13.0,
      13.25,
      13.25,
      13.5,
      13.5,
      13.75,
      14.0,
      14.25,
      14.25,
      14.5,
      14.5,
      14.5,
      15.0,
      15.0,
      15.5,
      15.5,
      15.75
    ],
    "ioi": [
      0.0,
      0.0,
      0.5,
      0.0,
      0.0,
      0.0,
      0.25,
      0.25,
      0.0,
      0.25,
      0.0,
      0.25,
      0.0,
      0.25,
      0.25,
      0.25,
      0.25,
      0.25,
      0.0,
      0.25,
      0.0,
      0.25,
      0.25,
      0.25,
      0.25,
      0.0,
      0.0,
      0.5,
      0.0,
      0.0,
      0.0,
      0.25,
      0.25,
      0.0,
      0.25,
      0.0,
      0.25,
      0.0,
      0.25,
      0.25,
      0.25,
      0.0,
      0.25,
      0.0,
      0.0,
      0.5,
      0.0,
      0.5,
      0.0,
      0.25,
      0.25,
      0.0,
      0.0,
      0.5,
      0.0,
      0.0,
      0.0,
      0.25,
      0.25,
      0.0,
      0.25,
      0.0,
      0.25,
      0.0,
      0.25,
      0.25,
      0.0,
      0.75,
      0.25,
      0.5,
      0.0,
      0.25,
      0.25,
      0.0,
      0.0,
      0.5,
      0.0,
      0.0,
      0.0,
      0.25,
      0.25,
      0.0,
      0.25,
      0.0,
      0.25,
      0.0,
      0.25,
      0.25,
      0.25,
      0.0,
      0.25,
      0.0,
      0.0,
      0.5,
      0.0,
      0.5,
      0.0,
      0.25,
      0.25
    ],
    "grid": "8th",
    "euclidean_approx": [
      64,
      64
    ],
    "swing_ratio": 1.0
  },
  "pitch": {
    "notes_used": [
      36,
      37,
      38,
      40,
      41,
      42,
      43,
      44,
      45,
      46,
      47,
      48,
      49,
      50,
      51
    ],
    "intervals": [
      4,
      8,
      12,
      4,
      6,
      3,
      1,
      9,
      10,
      15,
      4,
      6,
      4,
      9,
      8,
      6,
      2,
      4,
      5,
      3,
      1,
      3,
      2,
      2,
      9,
      4,
      8,
      12,
      4,
      6,
      3,
      1,
      9,
      10,
      15,
      4,
      6,
      4,
      9,
      8,
      9,
      1,
      5,
      4,
      6,
      5,
      9,
      8,
      2,
      3,
      5,
      4,
      8,
      12,
      4,
      6,
      3,
      1,
      9,
      10,
      15,
      4,
      6,
      4,
      9,
      3,
      11,
      1,
      2,
      11,
      8,
      2,
      7,
      4,
      8,
      12,
      4,
      6,
      3,
      1,
      9,
      10,
      15,
      4,
      6,
      4,
      9,
      8,
      9,
      1,
      5,
      4,
      6,
      5,
      9,
      8,
      2,
      3
    ],
    "register": "low",
    "is_melodic": true,
    "pitch_range": 15,
    "pitch_distribution": {
      "36": 14,
      "40": 16,
      "48": 6,
      "46": 10,
      "49": 8,
      "50": 12,
      "41": 15,
      "51": 4,
      "43": 3,
      "45": 4,
      "47": 1,
      "42": 2,
      "44": 2,
      "38": 1,
      "37": 1
    }
  },
  "velocity": {
    "mean": 127.0,
    "variance": 0.0,
    "std": 0.0,
    "accents": [],
    "profile": [
      127,
      127,
      127,
      127,
      127,
      127,
      127,
      127,
      127,
      127,
      127,
      127,
      127,
      127,
      127,
      127,
      127,
      127,
      127,
      127,
      127,
      127,
      127,
      127,
      127,
      127,
      127,
      127,
      127,
      127,
      127,
      127,
      127,
      127,
      127,
      127,
      127,
      127,
      127,
      127,
      127,
      127,
      127,
      127,
      127,
      127,
      127,
      127,
      127,
      127,
      127,
      127,
      127,
      127,
      127,
      127,
      127,
      127,
      127,
      127,
      127,
      127,
      127,
      127,
      127,
      127,
      127,
      127,
      127,
      127,
      127,
      127,
      127,
      127,
      127,
      127,
      127,
      127,
      127,
      127,
      127,
      127,
      127,
      127,
      127,
      127,
      127,
      127,
      127,
      127,
      127,
      127,
      127,
      127,
      127,
      127,
      127,
      127,
      127
    ]
  },
  "notes": [
    {
      "pitch": 36,
      "start_time": 0.0,
      "duration": 0.2812,
      "velocity": 127
    },
    {
      "pitch": 40,
      "start_time": 0.0,
      "duration": 0.5,
      "velocity": 127
    },
    {
      "pitch": 48,
      "start_time": 0.0,
      "duration": 0.5312,
      "velocity": 127
    },
    {
      "pitch": 36,
      "start_time": 0.5,
      "duration": 0.2708,
      "velocity": 127
    },
    {
      "pitch": 40,
      "start_time": 0.5,
      "duration": 0.25,
      "velocity": 127
    },
    {
      "pitch": 46,
      "start_time": 0.5,
      "duration": 0.8542,
      "velocity": 127
    },
    {
      "pitch": 49,
      "start_time": 0.5,
      "duration": 0.2812,
      "velocity": 127
    },
    {
      "pitch": 50,
      "start_time": 0.75,
      "duration": 0.2917,
      "velocity": 127
    },
    {
      "pitch": 41,
      "start_time": 1.0,
      "duration": 0.1042,
      "velocity": 127
    },
    {
      "pitch": 51,
      "start_time": 1.0,
      "duration": 0.5417,
      "velocity": 127
    },
    {
      "pitch": 36,
      "start_time": 1.25,
      "duration": 0.2917,
      "velocity": 127
    },
    {
      "pitch": 40,
      "start_time": 1.25,
      "duration": 0.25,
      "velocity": 127
    },
    {
      "pitch": 46,
      "start_time": 1.5,
      "duration": 0.5521,
      "velocity": 127
    },
    {
      "pitch": 50,
      "start_time": 1.5,
      "duration": 0.4896,
      "velocity": 127
    },
    {
      "pitch": 41,
      "start_time": 1.75,
      "duration": 0.2708,
      "velocity": 127
    },
    {
      "pitch": 49,
      "start_time": 2.0,
      "duration": 0.8021,
      "velocity": 127
    },
    {
      "pitch": 43,
      "start_time": 2.25,
      "duration": 0.0833,
      "velocity": 127
    },
    {
      "pitch": 41,
      "start_time": 2.5,
      "duration": 0.0938,
      "velocity": 127
    },
    {
      "pitch": 45,
      "start_time": 2.75,
      "duration": 0.0417,
      "velocity": 127
    },
    {
      "pitch": 50,
      "start_time": 2.75,
      "duration": 0.3021,
      "velocity": 127
    },
    {
      "pitch": 47,
      "start_time": 3.0,
      "duration": 0.1042,
      "velocity": 127
    },
    {
      "pitch": 48,
      "start_time": 3.0,
      "duration": 0.6667,
      "velocity": 127
    },
    {
      "pitch": 45,
      "start_time": 3.25,
      "duration": 0.001,
      "velocity": 127
    },
    {
      "pitch": 43,
      "start_time": 3.5,
      "duration": 0.25,
      "velocity": 127
    },
    {
      "pitch": 45,
      "start_time": 3.75,
      "duration": 0.0729,
      "velocity": 127
    },
    {
      "pitch": 36,
      "start_time": 4.0,
      "duration": 0.0938,
      "velocity": 127
    },
    {
      "pitch": 40,
      "start_time": 4.0,
      "duration": 0.5,
      "velocity": 127
    },
    {
      "pitch": 48,
      "start_time": 4.0,
      "duration": 0.5312,
      "velocity": 127
    },
    {
      "pitch": 36,
      "start_time": 4.5,
      "duration": 0.125,
      "velocity": 127
    },
    {
      "pitch": 40,
      "start_time": 4.5,
      "duration": 0.25,
      "velocity": 127
    },
    {
      "pitch": 46,
      "start_time": 4.5,
      "duration": 0.8438,
      "velocity": 127
    },
    {
      "pitch": 49,
      "start_time": 4.5,
      "duration": 0.2708,
      "velocity": 127
    },
    {
      "pitch": 50,
      "start_time": 4.75,
      "duration": 0.3229,
      "velocity": 127
    },
    {
      "pitch": 41,
      "start_time": 5.0,
      "duration": 0.0833,
      "velocity": 127
    },
    {
      "pitch": 51,
      "start_time": 5.0,
      "duration": 0.5521,
      "velocity": 127
    },
    {
      "pitch": 36,
      "start_time": 5.25,
      "duration": 0.0938,
      "velocity": 127
    },
    {
      "pitch": 40,
      "start_time": 5.25,
      "duration": 0.25,
      "velocity": 127
    },
    {
      "pitch": 46,
      "start_time": 5.5,
      "duration": 0.5625,
      "velocity": 127
    },
    {
      "pitch": 50,
      "start_time": 5.5,
      "duration": 0.5208,
      "velocity": 127
    },
    {
      "pitch": 41,
      "start_time": 5.75,
      "duration": 0.1667,
      "velocity": 127
    },
    {
      "pitch": 49,
      "start_time": 6.0,
      "duration": 1.0521,
      "velocity": 127
    },
    {
      "pitch": 40,
      "start_time": 6.25,
      "duration": 0.1042,
      "velocity": 127
    },
    {
      "pitch": 41,
      "start_time": 6.25,
      "duration": 0.0833,
      "velocity": 127
    },
    {
      "pitch": 36,
      "start_time": 6.5,
      "duration": 0.1875,
      "velocity": 127
    },
    {
      "pitch": 40,
      "start_time": 6.5,
      "duration": 0.25,
      "velocity": 127
    },
    {
      "pitch": 46,
      "start_time": 6.5,
      "duration": 0.25,
      "velocity": 127
    },
    {
      "pitch": 41,
      "start_time": 7.0,
      "duration": 0.1042,
      "velocity": 127
    },
    {
      "pitch": 50,
      "start_time": 7.0,
      "duration": 0.7917,
      "velocity": 127
    },
    {
      "pitch": 42,
      "start_time": 7.5,
      "duration": 0.3958,
      "velocity": 127
    },
    {
      "pitch": 44,
      "start_time": 7.5,
      "duration": 0.4479,
      "velocity": 127
    },
    {
      "pitch": 41,
      "start_time": 7.75,
      "duration": 0.1771,
      "velocity": 127
    },
    {
      "pitch": 36,
      "start_time": 8.0,
      "duration": 0.2812,
      "velocity": 127
    },
    {
      "pitch": 40,
      "start_time": 8.0,
      "duration": 0.5,
      "velocity": 127
    },
    {
      "pitch": 48,
      "start_time": 8.0,
      "duration": 0.5312,
      "velocity": 127
    },
    {
      "pitch": 36,
      "start_time": 8.5,
      "duration": 0.2708,
      "velocity": 127
    },
    {
      "pitch": 40,
      "start_time": 8.5,
      "duration": 0.25,
      "velocity": 127
    },
    {
      "pitch": 46,
      "start_time": 8.5,
      "duration": 0.8542,
      "velocity": 127
    },
    {
      "pitch": 49,
      "start_time": 8.5,
      "duration": 0.2812,
      "velocity": 127
    },
    {
      "pitch": 50,
      "start_time": 8.75,
      "duration": 0.2917,
      "velocity": 127
    },
    {
      "pitch": 41,
      "start_time": 9.0,
      "duration": 0.1042,
      "velocity": 127
    },
    {
      "pitch": 51,
      "start_time": 9.0,
      "duration": 0.5417,
      "velocity": 127
    },
    {
      "pitch": 36,
      "start_time": 9.25,
      "duration": 0.2917,
      "velocity": 127
    },
    {
      "pitch": 40,
      "start_time": 9.25,
      "duration": 0.25,
      "velocity": 127
    },
    {
      "pitch": 46,
      "start_time": 9.5,
      "duration": 0.5521,
      "velocity": 127
    },
    {
      "pitch": 50,
      "start_time": 9.5,
      "duration": 0.4896,
      "velocity": 127
    },
    {
      "pitch": 41,
      "start_time": 9.75,
      "duration": 0.2708,
      "velocity": 127
    },
    {
      "pitch": 38,
      "start_time": 10.0,
      "duration": 1.5,
      "velocity": 127
    },
    {
      "pitch": 49,
      "start_time": 10.0,
      "duration": 0.8021,
      "velocity": 127
    },
    {
      "pitch": 50,
      "start_time": 10.75,
      "duration": 0.3021,
      "velocity": 127
    },
    {
      "pitch": 48,
      "start_time": 11.0,
      "duration": 0.6667,
      "velocity": 127
    },
    {
      "pitch": 37,
      "start_time": 11.5,
      "duration": 0.4583,
      "velocity": 127
    },
    {
      "pitch": 45,
      "start_time": 11.5,
      "duration": 0.25,
      "velocity": 127
    },
    {
      "pitch": 43,
      "start_time": 11.75,
      "duration": 0.0417,
      "velocity": 127
    },
    {
      "pitch": 36,
      "start_time": 12.0,
      "duration": 0.0938,
      "velocity": 127
    },
    {
      "pitch": 40,
      "start_time": 12.0,
      "duration": 0.5,
      "velocity": 127
    },
    {
      "pitch": 48,
      "start_time": 12.0,
      "duration": 0.5312,
      "velocity": 127
    },
    {
      "pitch": 36,
      "start_time": 12.5,
      "duration": 0.125,
      "velocity": 127
    },
    {
      "pitch": 40,
      "start_time": 12.5,
      "duration": 0.25,
      "velocity": 127
    },
    {
      "pitch": 46,
      "start_time": 12.5,
      "duration": 0.8438,
      "velocity": 127
    },
    {
      "pitch": 49,
      "start_time": 12.5,
      "duration": 0.2708,
      "velocity": 127
    },
    {
      "pitch": 50,
      "start_time": 12.75,
      "duration": 0.3229,
      "velocity": 127
    },
    {
      "pitch": 41,
      "start_time": 13.0,
      "duration": 0.0833,
      "velocity": 127
    },
    {
      "pitch": 51,
      "start_time": 13.0,
      "duration": 0.5521,
      "velocity": 127
    },
    {
      "pitch": 36,
      "start_time": 13.25,
      "duration": 0.0938,
      "velocity": 127
    },
    {
      "pitch": 40,
      "start_time": 13.25,
      "duration": 0.25,
      "velocity": 127
    },
    {
      "pitch": 46,
      "start_time": 13.5,
      "duration": 0.5625,
      "velocity": 127
    },
    {
      "pitch": 50,
      "start_time": 13.5,
      "duration": 0.5208,
      "velocity": 127
    },
    {
      "pitch": 41,
      "start_time": 13.75,
      "duration": 0.1667,
      "velocity": 127
    },
    {
      "pitch": 49,
      "start_time": 14.0,
      "duration": 1.0521,
      "velocity": 127
    },
    {
      "pitch": 40,
      "start_time": 14.25,
      "duration": 0.1042,
      "velocity": 127
    },
    {
      "pitch": 41,
      "start_time": 14.25,
      "duration": 0.0833,
      "velocity": 127
    },
    {
      "pitch": 36,
      "start_time": 14.5,
      "duration": 0.1875,
      "velocity": 127
    },
    {
      "pitch": 40,
      "start_time": 14.5,
      "duration": 0.25,
      "velocity": 127
    },
    {
      "pitch": 46,
      "start_time": 14.5,
      "duration": 0.25,
      "velocity": 127
    },
    {
      "pitch": 41,
      "start_time": 15.0,
      "duration": 0.1042,
      "velocity": 127
    },
    {
      "pitch": 50,
      "start_time": 15.0,
      "duration": 0.7917,
      "velocity": 127
    },
    {
      "pitch": 42,
      "start_time": 15.5,
      "duration": 0.3958,
      "velocity": 127
    },
    {
      "pitch": 44,
      "start_time": 15.5,
      "duration": 0.4479,
      "velocity": 127
    },
    {
      "pitch": 41,
      "start_time": 15.75,
      "duration": 0.1771,
      "velocity": 127
    }
  ]
}