{
  "source": {
    "song": "packs",
    "track_index": 0,
    "track_name": "Beat Tools / MIDI Clips / 84 - 92 bpm / Paradise Kit groove_90 bpm",
    "slot_index": 0,
    "clip_name": "Beat Tools / MIDI Clips / 84 - 92 bpm / Paradise Kit groove_90 bpm",
    "mid_file": "/Users/darnold/Music/Ableton/Packs/Beat Tools/MIDI Clips/84 - 92 bpm/Paradise Kit groove_90 bpm.alc"
  },
  "meta": {
    "bpm": 90.0,
    "key": "?",
    "scale": "?",
    "length_beats": 8.0,
    "note_count": 90
  },
  "rhythm": {
    "density": 1.438,
    "hit_positions": [
      0.0,
      0.0,
      0.0,
      0.0,
      0.25,
      0.5,
      0.5,
      0.5,
      0.5,
      0.5,
      0.625,
      0.75,
      0.75,
      0.875,
      1.0,
      1.0,
      1.0,
      1.0,
      1.0,
      1.3333,
      1.5,
      1.5,
      1.5,
      1.6667,
      1.75,
      1.8333,
      2.0,
      2.0,
      2.1667,
      2.25,
      2.3333,
      2.5,
      2.5,
      2.5,
      2.625,
      2.6667,
      2.75,
      2.875,
      3.0,
      3.0,
      3.0,
      3.0,
      3.25,
      3.25,
      3.5,
      3.5,
      3.625,
      3.75,
      3.75,
      3.75,
      3.75,
      3.875,
      4.0,
      4.0,
      4.0,
      4.0,
      4.25,
      4.5,
      4.5,
      4.5,
      4.5,
      4.75,
      5.0,
      5.0,
      5.0,
      5.0,
      5.25,
      5.5,
      5.5,
      5.625,
      5.75,
      5.75,
      5.75,
      5.875,
      6.0,
      6.25,
      6.5,
      6.5,
      6.5,
      6.5,
      6.5,
      6.6667,
      6.75,
      6.75,
      6.8333,
      7.0,
      7.0,
      7.0,
      7.75,
      7.875
    ],
    "ioi": [
      0.0,
      0.0,
      0.0,
      0.25,
      0.25,
      0.0,
      0.0,
      0.0,
      0.0,
      0.125,
      0.125,
      0.0,
      0.125,
      0.125,
      0.0,
      0.0,
      0.0,
      0.0,
      0.3333,
      0.1667,
      0.0,
      0.0,
      0.1667,
      0.0833,
      0.0833,
      0.1667,
      0.0,
      0.1667,
      0.0833,
      0.0833,
      0.1667,
      0.0,
      0.0,
      0.125,
      0.0417,
      0.0833,
      0.125,
      0.125,
      0.0,
      0.0,
      0.0,
      0.25,
      0.0,
      0.25,
      0.0,
      0.125,
      0.125,
      0.0,
      0.0,
      0.0,
      0.125,
      0.125,
      0.0,
      0.0,
      0.0,
      0.25,
      0.25,
      0.0,
      0.0,
      0.0,
      0.25,
      0.25,
      0.0,
      0.0,
      0.0,
      0.25,
      0.25,
      0.0,
      0.125,
      0.125,
      0.0,
      0.0,
      0.125,
      0.125,
      0.25,
      0.25,
      0.0,
      0.0,
      0.0,
      0.0,
      0.1667,
      0.0833,
      0.0,
      0.0833,
      0.1667,
      0.0,
      0.0,
      0.75,
      0.125,
      0.125
    ],
    "grid": "16th",
    "euclidean_approx": [
      32,
      32
    ],
    "swing_ratio": 1.124
  },
  "pitch": {
    "notes_used": [
      36,
      38,
      39,
      41,
      42,
      43,
      45,
      47,
      48,
      52,
      53,
      54,
      55,
      56,
      57,
      58,
      59
    ],
    "intervals": [
      6,
      11,
      5,
      16,
      1,
      1,
      6,
      5,
      4,
      16,
      0,
      1,
      1,
      3,
      1,
      3,
      12,
      5,
      17,
      0,
      14,
      2,
      16,
      10,
      10,
      0,
      14,
      14,
      11,
      11,
      6,
      5,
      11,
      11,
      1,
      1,
      0,
      3,
      4,
      3,
      9,
      18,
      6,
      0,
      10,
      11,
      5,
      5,
      1,
      15,
      16,
      1,
      6,
      4,
      6,
      16,
      6,
      6,
      1,
      14,
      15,
      4,
      1,
      15,
      5,
      17,
      0,
      16,
      17,
      0,
      1,
      11,
      12,
      1,
      0,
      6,
      2,
      4,
      5,
      7,
      12,
      4,
      18,
      14,
      0,
      3,
      10,
      19,
      6
    ],
    "register": "low",
    "is_melodic": true,
    "pitch_range": 23,
    "pitch_distribution": {
      "36": 7,
      "42": 31,
      "53": 4,
      "58": 4,
      "41": 14,
      "48": 2,
      "57": 3,
      "38": 5,
      "39": 2,
      "54": 4,
      "59": 2,
      "56": 3,
      "52": 4,
      "45": 2,
      "43": 1,
      "47": 1,
      "55": 1
    }
  },
  "velocity": {
    "mean": 64.3,
    "variance": 1447.9,
    "std": 38.1,
    "accents": [
      0,
      2,
      7,
      14,
      15,
      17,
      29,
      31,
      33,
      38,
      40,
      42,
      47,
      53,
      54,
      57,
      62,
      63,
      76,
      86,
      88
    ],
    "profile": [
      110,
      46,
      124,
      53,
      37,
      62,
      30,
      127,
      74,
      41,
      62,
      28,
      28,
      31,
      126,
      127,
      28,
      114,
      68,
      33,
      34,
      24,
      41,
      37,
      102,
      37,
      36,
      70,
      37,
      108,
      36,
      127,
      52,
      107,
      52,
      38,
      24,
      31,
      127,
      38,
      126,
      93,
      127,
      40,
      40,
      91,
      48,
      118,
      28,
      43,
      67,
      29,
      45,
      127,
      124,
      53,
      38,
      127,
      31,
      33,
      65,
      24,
      127,
      127,
      101,
      63,
      33,
      30,
      43,
      56,
      33,
      51,
      74,
      32,
      38,
      32,
      127,
      3,
      34,
      27,
      100,
      29,
      9,
      96,
      23,
      83,
      127,
      99,
      127,
      43
    ]
  },
  "notes": [
    {
      "pitch": 36,
      "start_time": 0.0,
      "duration": 0.0729,
      "velocity": 110
    },
    {
      "pitch": 42,
      "start_time": 0.0,
      "duration": 0.2083,
      "velocity": 46
    },
    {
      "pitch": 53,
      "start_time": 0.0,
      "duration": 0.0312,
      "velocity": 124
    },
    {
      "pitch": 58,
      "start_time": 0.0,
      "duration": 0.4167,
      "velocity": 53
    },
    {
      "pitch": 42,
      "start_time": 0.25,
      "duration": 0.25,
      "velocity": 37
    },
    {
      "pitch": 41,
      "start_time": 0.5,
      "duration": 0.125,
      "velocity": 62
    },
    {
      "pitch": 42,
      "start_time": 0.5,
      "duration": 0.25,
      "velocity": 30
    },
    {
      "pitch": 48,
      "start_time": 0.5,
      "duration": 0.0833,
      "velocity": 127
    },
    {
      "pitch": 53,
      "start_time": 0.5,
      "duration": 0.0312,
      "velocity": 74
    },
    {
      "pitch": 57,
      "start_time": 0.5,
      "duration": 0.4792,
      "velocity": 41
    },
    {
      "pitch": 41,
      "start_time": 0.625,
      "duration": 0.125,
      "velocity": 62
    },
    {
      "pitch": 41,
      "start_time": 0.75,
      "duration": 0.125,
      "velocity": 28
    },
    {
      "pitch": 42,
      "start_time": 0.75,
      "duration": 0.25,
      "velocity": 28
    },
    {
      "pitch": 41,
      "start_time": 0.875,
      "duration": 0.0521,
      "velocity": 31
    },
    {
      "pitch": 38,
      "start_time": 1.0,
      "duration": 0.0625,
      "velocity": 126
    },
    {
      "pitch": 39,
      "start_time": 1.0,
      "duration": 0.0417,
      "velocity": 127
    },
    {
      "pitch": 42,
      "start_time": 1.0,
      "duration": 0.3333,
      "velocity": 28
    },
    {
      "pitch": 54,
      "start_time": 1.0,
      "duration": 0.0729,
      "velocity": 114
    },
    {
      "pitch": 59,
      "start_time": 1.0,
      "duration": 0.4271,
      "velocity": 68
    },
    {
      "pitch": 42,
      "start_time": 1.3333,
      "duration": 0.1667,
      "velocity": 33
    },
    {
      "pitch": 42,
      "start_time": 1.5,
      "duration": 0.1667,
      "velocity": 34
    },
    {
      "pitch": 56,
      "start_time": 1.5,
      "duration": 0.0312,
      "velocity": 24
    },
    {
      "pitch": 58,
      "start_time": 1.5,
      "duration": 0.4479,
      "velocity": 41
    },
    {
      "pitch": 42,
      "start_time": 1.6667,
      "duration": 0.1667,
      "velocity": 37
    },
    {
      "pitch": 52,
      "start_time": 1.75,
      "duration": 0.0833,
      "velocity": 102
    },
    {
      "pitch": 42,
      "start_time": 1.8333,
      "duration": 0.1667,
      "velocity": 37
    },
    {
      "pitch": 42,
      "start_time": 2.0,
      "duration": 0.1667,
      "velocity": 36
    },
    {
      "pitch": 56,
      "start_time": 2.0,
      "duration": 0.0312,
      "velocity": 70
    },
    {
      "pitch": 42,
      "start_time": 2.1667,
      "duration": 0.1667,
      "velocity": 37
    },
    {
      "pitch": 53,
      "start_time": 2.25,
      "duration": 0.0938,
      "velocity": 108
    },
    {
      "pitch": 42,
      "start_time": 2.3333,
      "duration": 0.3333,
      "velocity": 36
    },
    {
      "pitch": 36,
      "start_time": 2.5,
      "duration": 0.0938,
      "velocity": 127
    },
    {
      "pitch": 41,
      "start_time": 2.5,
      "duration": 0.125,
      "velocity": 52
    },
    {
      "pitch": 52,
      "start_time": 2.5,
      "duration": 0.4479,
      "velocity": 107
    },
    {
      "pitch": 41,
      "start_time": 2.625,
      "duration": 0.125,
      "velocity": 52
    },
    {
      "pitch": 42,
      "start_time": 2.6667,
      "duration": 0.3333,
      "velocity": 38
    },
    {
      "pitch": 41,
      "start_time": 2.75,
      "duration": 0.125,
      "velocity": 24
    },
    {
      "pitch": 41,
      "start_time": 2.875,
      "duration": 0.1042,
      "velocity": 31
    },
    {
      "pitch": 38,
      "start_time": 3.0,
      "duration": 0.0625,
      "velocity": 127
    },
    {
      "pitch": 42,
      "start_time": 3.0,
      "duration": 0.25,
      "velocity": 38
    },
    {
      "pitch": 45,
      "start_time": 3.0,
      "duration": 0.0312,
      "velocity": 126
    },
    {
      "pitch": 54,
      "start_time": 3.0,
      "duration": 0.4167,
      "velocity": 93
    },
    {
      "pitch": 36,
      "start_time": 3.25,
      "duration": 0.0938,
      "velocity": 127
    },
    {
      "pitch": 42,
      "start_time": 3.25,
      "duration": 0.25,
      "velocity": 40
    },
    {
      "pitch": 42,
      "start_time": 3.5,
      "duration": 0.25,
      "velocity": 40
    },
    {
      "pitch": 52,
      "start_time": 3.5,
      "duration": 0.1146,
      "velocity": 91
    },
    {
      "pitch": 41,
      "start_time": 3.625,
      "duration": 0.125,
      "velocity": 48
    },
    {
      "pitch": 36,
      "start_time": 3.75,
      "duration": 0.0625,
      "velocity": 118
    },
    {
      "pitch": 41,
      "start_time": 3.75,
      "duration": 0.125,
      "velocity": 28
    },
    {
      "pitch": 42,
      "start_time": 3.75,
      "duration": 0.25,
      "velocity": 43
    },
    {
      "pitch": 57,
      "start_time": 3.75,
      "duration": 0.0521,
      "velocity": 67
    },
    {
      "pitch": 41,
      "start_time": 3.875,
      "duration": 0.0312,
      "velocity": 29
    },
    {
      "pitch": 42,
      "start_time": 4.0,
      "duration": 0.0208,
      "velocity": 45
    },
    {
      "pitch": 48,
      "start_time": 4.0,
      "duration": 0.0938,
      "velocity": 127
    },
    {
      "pitch": 52,
      "start_time": 4.0,
      "duration": 0.8229,
      "velocity": 124
    },
    {
      "pitch": 58,
      "start_time": 4.0,
      "duration": 0.5,
      "velocity": 53
    },
    {
      "pitch": 42,
      "start_time": 4.25,
      "duration": 0.25,
      "velocity": 38
    },
    {
      "pitch": 36,
      "start_time": 4.5,
      "duration": 0.0625,
      "velocity": 127
    },
    {
      "pitch": 42,
      "start_time": 4.5,
      "duration": 0.25,
      "velocity": 31
    },
    {
      "pitch": 43,
      "start_time": 4.5,
      "duration": 0.7396,
      "velocity": 33
    },
    {
      "pitch": 57,
      "start_time": 4.5,
      "duration": 0.4167,
      "velocity": 65
    },
    {
      "pitch": 42,
      "start_time": 4.75,
      "duration": 0.2292,
      "velocity": 24
    },
    {
      "pitch": 38,
      "start_time": 5.0,
      "duration": 0.0729,
      "velocity": 127
    },
    {
      "pitch": 39,
      "start_time": 5.0,
      "duration": 0.0417,
      "velocity": 127
    },
    {
      "pitch": 54,
      "start_time": 5.0,
      "duration": 0.6771,
      "velocity": 101
    },
    {
      "pitch": 59,
      "start_time": 5.0,
      "duration": 0.4688,
      "velocity": 63
    },
    {
      "pitch": 42,
      "start_time": 5.25,
      "duration": 0.25,
      "velocity": 33
    },
    {
      "pitch": 42,
      "start_time": 5.5,
      "duration": 0.25,
      "velocity": 30
    },
    {
      "pitch": 58,
      "start_time": 5.5,
      "duration": 0.4167,
      "velocity": 43
    },
    {
      "pitch": 41,
      "start_time": 5.625,
      "duration": 0.125,
      "velocity": 56
    },
    {
      "pitch": 41,
      "start_time": 5.75,
      "duration": 0.125,
      "velocity": 33
    },
    {
      "pitch": 42,
      "start_time": 5.75,
      "duration": 0.25,
      "velocity": 51
    },
    {
      "pitch": 53,
      "start_time": 5.75,
      "duration": 0.1042,
      "velocity": 74
    },
    {
      "pitch": 41,
      "start_time": 5.875,
      "duration": 0.0833,
      "velocity": 32
    },
    {
      "pitch": 42,
      "start_time": 6.0,
      "duration": 0.25,
      "velocity": 38
    },
    {
      "pitch": 42,
      "start_time": 6.25,
      "duration": 0.25,
      "velocity": 32
    },
    {
      "pitch": 36,
      "start_time": 6.5,
      "duration": 0.0625,
      "velocity": 127
    },
    {
      "pitch": 38,
      "start_time": 6.5,
      "duration": 0.25,
      "velocity": 3
    },
    {
      "pitch": 42,
      "start_time": 6.5,
      "duration": 0.1667,
      "velocity": 34
    },
    {
      "pitch": 47,
      "start_time": 6.5,
      "duration": 0.5521,
      "velocity": 27
    },
    {
      "pitch": 54,
      "start_time": 6.5,
      "duration": 0.0729,
      "velocity": 100
    },
    {
      "pitch": 42,
      "start_time": 6.6667,
      "duration": 0.1667,
      "velocity": 29
    },
    {
      "pitch": 38,
      "start_time": 6.75,
      "duration": 0.25,
      "velocity": 9
    },
    {
      "pitch": 56,
      "start_time": 6.75,
      "duration": 0.0521,
      "velocity": 96
    },
    {
      "pitch": 42,
      "start_time": 6.8333,
      "duration": 0.1667,
      "velocity": 23
    },
    {
      "pitch": 42,
      "start_time": 7.0,
      "duration": 0.125,
      "velocity": 83
    },
    {
      "pitch": 45,
      "start_time": 7.0,
      "duration": 0.0312,
      "velocity": 127
    },
    {
      "pitch": 55,
      "start_time": 7.0,
      "duration": 0.75,
      "velocity": 99
    },
    {
      "pitch": 36,
      "start_time": 7.75,
      "duration": 0.0312,
      "velocity": 127
    },
    {
      "pitch": 42,
      "start_time": 7.875,
      "duration": 0.125,
      "velocity": 43
    }
  ]
}