{
  "source": {
    "song": "packs",
    "track_index": 0,
    "track_name": "Beat Tools / MIDI Clips / 59 - 80 bpm / Miramar Kit Groove_77 bpm",
    "slot_index": 0,
    "clip_name": "Beat Tools / MIDI Clips / 59 - 80 bpm / Miramar Kit Groove_77 bpm",
    "mid_file": "/Users/darnold/Music/Ableton/Packs/Beat Tools/MIDI Clips/59 - 80 bpm/Miramar Kit Groove_77 bpm.alc"
  },
  "meta": {
    "bpm": 77.0,
    "key": "?",
    "scale": "?",
    "length_beats": 8.0,
    "note_count": 103
  },
  "rhythm": {
    "density": 2.562,
    "hit_positions": [
      0.0,
      0.0,
      0.0,
      0.0,
      0.5,
      0.5,
      0.6667,
      0.8333,
      1.0,
      1.0,
      1.0,
      1.0,
      1.0,
      1.0,
      1.1667,
      1.3333,
      1.5,
      1.5,
      1.5,
      1.6667,
      1.8333,
      2.0,
      2.0,
      2.0,
      2.0,
      2.0,
      2.3333,
      2.5,
      2.5,
      2.6667,
      2.8333,
      2.8333,
      3.0,
      3.0,
      3.0,
      3.0,
      3.0,
      3.1667,
      3.3333,
      3.3333,
      3.5,
      3.5,
      3.5,
      3.5,
      4.0,
      4.0,
      4.0,
      4.0,
      4.5,
      4.5,
      4.5,
      4.5,
      4.6667,
      4.8333,
      5.0,
      5.0,
      5.0,
      5.0,
      5.0,
      5.1667,
      5.3333,
      5.5,
      5.5,
      5.5,
      5.6667,
      5.6667,
      5.8333,
      5.8333,
      6.0,
      6.0,
      6.0,
      6.0,
      6.0,
      6.0,
      6.1667,
      6.3333,
      6.3333,
      6.3333,
      6.5,
      6.5,
      6.5,
      6.6667,
      6.8333,
      6.8333,
      7.0,
      7.0,
      7.0,
      7.0,
      7.0,
      7.0,
      7.1667,
      7.1667,
      7.3333,
      7.3333,
      7.3333,
      7.5,
      7.5,
      7.5,
      7.5,
      7.6667,
      7.8333,
      7.8333,
      8.0
    ],
    "ioi": [
      0.0,
      0.0,
      0.0,
      0.5,
      0.0,
      0.1667,
      0.1666,
      0.1667,
      0.0,
      0.0,
      0.0,
      0.0,
      0.0,
      0.1667,
      0.1666,
      0.1667,
      0.0,
      0.0,
      0.1667,
      0.1666,
      0.1667,
      0.0,
      0.0,
      0.0,
      0.0,
      0.3333,
      0.1667,
      0.0,
      0.1667,
      0.1666,
      0.0,
      0.1667,
      0.0,
      0.0,
      0.0,
      0.0,
      0.1667,
      0.1666,
      0.0,
      0.1667,
      0.0,
      0.0,
      0.0,
      0.5,
      0.0,
      0.0,
      0.0,
      0.5,
      0.0,
      0.0,
      0.0,
      0.1667,
      0.1666,
      0.1667,
      0.0,
      0.0,
      0.0,
      0.0,
      0.1667,
      0.1666,
      0.1667,
      0.0,
      0.0,
      0.1667,
      0.0,
      0.1666,
      0.0,
      0.1667,
      0.0,
      0.0,
      0.0,
      0.0,
      0.0,
      0.1667,
      0.1666,
      0.0,
      0.0,
      0.1667,
      0.0,
      0.0,
      0.1667,
      0.1666,
      0.0,
      0.1667,
      0.0,
      0.0,
      0.0,
      0.0,
      0.0,
      0.1667,
      0.0,
      0.1666,
      0.0,
      0.0,
      0.1667,
      0.0,
      0.0,
      0.0,
      0.1667,
      0.1666,
      0.0,
      0.1667,
      0.0
    ],
    "grid": "8th",
    "euclidean_approx": [
      32,
      32
    ],
    "swing_ratio": 1.333
  },
  "pitch": {
    "notes_used": [
      36,
      37,
      38,
      40,
      42,
      43,
      46,
      47,
      49,
      50,
      51,
      52,
      53,
      54,
      55,
      56,
      57
    ],
    "intervals": [
      6,
      10,
      4,
      14,
      5,
      7,
      0,
      3,
      3,
      2,
      1,
      6,
      7,
      16,
      0,
      0,
      2,
      15,
      17,
      0,
      4,
      6,
      5,
      6,
      3,
      13,
      1,
      4,
      0,
      0,
      1,
      10,
      5,
      4,
      8,
      2,
      10,
      0,
      1,
      11,
      6,
      1,
      6,
      13,
      6,
      10,
      4,
      16,
      2,
      5,
      2,
      9,
      0,
      3,
      3,
      2,
      1,
      13,
      16,
      0,
      0,
      2,
      4,
      6,
      6,
      6,
      6,
      10,
      4,
      2,
      5,
      3,
      6,
      16,
      0,
      3,
      3,
      6,
      2,
      9,
      11,
      0,
      7,
      10,
      1,
      2,
      2,
      12,
      2,
      18,
      2,
      2,
      2,
      7,
      9,
      4,
      1,
      12,
      17,
      0,
      11,
      13
    ],
    "register": "low",
    "is_melodic": true,
    "pitch_range": 21,
    "pitch_distribution": {
      "36": 6,
      "42": 16,
      "52": 2,
      "56": 8,
      "47": 8,
      "40": 26,
      "37": 4,
      "43": 6,
      "49": 4,
      "57": 1,
      "53": 1,
      "46": 10,
      "54": 2,
      "50": 1,
      "51": 1,
      "38": 6,
      "55": 1
    }
  },
  "velocity": {
    "mean": 50.6,
    "variance": 410.5,
    "std": 20.3,
    "accents": [
      2,
      3,
      8,
      12,
      13,
      32,
      33,
      36,
      40,
      41,
      47,
      54,
      56,
      57,
      58,
      73,
      84,
      87,
      89,
      98
    ],
    "profile": [
      56,
      55,
      75,
      83,
      34,
      41,
      44,
      28,
      73,
      27,
      66,
      62,
      77,
      88,
      25,
      13,
      21,
      42,
      63,
      34,
      38,
      56,
      51,
      35,
      46,
      68,
      39,
      40,
      39,
      54,
      50,
      48,
      72,
      74,
      41,
      52,
      84,
      68,
      51,
      43,
      85,
      88,
      35,
      44,
      63,
      66,
      60,
      73,
      47,
      37,
      58,
      62,
      32,
      26,
      76,
      25,
      77,
      74,
      99,
      15,
      11,
      35,
      46,
      51,
      32,
      57,
      42,
      48,
      57,
      42,
      56,
      48,
      29,
      96,
      47,
      46,
      32,
      58,
      57,
      41,
      39,
      52,
      53,
      51,
      79,
      3,
      58,
      82,
      56,
      95,
      3,
      48,
      6,
      40,
      44,
      26,
      54,
      46,
      72,
      35,
      44,
      46,
      50
    ]
  },
  "notes": [
    {
      "pitch": 36,
      "start_time": 0.0,
      "duration": 0.0729,
      "velocity": 56
    },
    {
      "pitch": 42,
      "start_time": 0.0,
      "duration": 0.0625,
      "velocity": 55
    },
    {
      "pitch": 52,
      "start_time": 0.0,
      "duration": 1.8333,
      "velocity": 75
    },
    {
      "pitch": 56,
      "start_time": 0.0,
      "duration": 0.0938,
      "velocity": 83
    },
    {
      "pitch": 42,
      "start_time": 0.5,
      "duration": 0.0521,
      "velocity": 34
    },
    {
      "pitch": 47,
      "start_time": 0.5,
      "duration": 0.0417,
      "velocity": 41
    },
    {
      "pitch": 40,
      "start_time": 0.6667,
      "duration": 0.1667,
      "velocity": 44
    },
    {
      "pitch": 40,
      "start_time": 0.8333,
      "duration": 0.1667,
      "velocity": 28
    },
    {
      "pitch": 37,
      "start_time": 1.0,
      "duration": 0.0625,
      "velocity": 73
    },
    {
      "pitch": 40,
      "start_time": 1.0,
      "duration": 0.1667,
      "velocity": 27
    },
    {
      "pitch": 42,
      "start_time": 1.0,
      "duration": 0.0625,
      "velocity": 66
    },
    {
      "pitch": 43,
      "start_time": 1.0,
      "duration": 0.0521,
      "velocity": 62
    },
    {
      "pitch": 49,
      "start_time": 1.0,
      "duration": 0.0833,
      "velocity": 77
    },
    {
      "pitch": 56,
      "start_time": 1.0,
      "duration": 0.0938,
      "velocity": 88
    },
    {
      "pitch": 40,
      "start_time": 1.1667,
      "duration": 0.1667,
      "velocity": 25
    },
    {
      "pitch": 40,
      "start_time": 1.3333,
      "duration": 0.1667,
      "velocity": 13
    },
    {
      "pitch": 40,
      "start_time": 1.5,
      "duration": 0.1667,
      "velocity": 21
    },
    {
      "pitch": 42,
      "start_time": 1.5,
      "duration": 0.0729,
      "velocity": 42
    },
    {
      "pitch": 57,
      "start_time": 1.5,
      "duration": 0.6458,
      "velocity": 63
    },
    {
      "pitch": 40,
      "start_time": 1.6667,
      "duration": 0.1667,
      "velocity": 34
    },
    {
      "pitch": 40,
      "start_time": 1.8333,
      "duration": 0.1042,
      "velocity": 38
    },
    {
      "pitch": 36,
      "start_time": 2.0,
      "duration": 0.0625,
      "velocity": 56
    },
    {
      "pitch": 42,
      "start_time": 2.0,
      "duration": 0.0625,
      "velocity": 51
    },
    {
      "pitch": 47,
      "start_time": 2.0,
      "duration": 0.0625,
      "velocity": 35
    },
    {
      "pitch": 53,
      "start_time": 2.0,
      "duration": 0.8646,
      "velocity": 46
    },
    {
      "pitch": 56,
      "start_time": 2.0,
      "duration": 0.0833,
      "velocity": 68
    },
    {
      "pitch": 43,
      "start_time": 2.3333,
      "duration": 0.1146,
      "velocity": 39
    },
    {
      "pitch": 42,
      "start_time": 2.5,
      "duration": 0.0625,
      "velocity": 40
    },
    {
      "pitch": 46,
      "start_time": 2.5,
      "duration": 0.1667,
      "velocity": 39
    },
    {
      "pitch": 46,
      "start_time": 2.6667,
      "duration": 0.1667,
      "velocity": 54
    },
    {
      "pitch": 46,
      "start_time": 2.8333,
      "duration": 0.1667,
      "velocity": 50
    },
    {
      "pitch": 47,
      "start_time": 2.8333,
      "duration": 0.0625,
      "velocity": 48
    },
    {
      "pitch": 37,
      "start_time": 3.0,
      "duration": 0.0521,
      "velocity": 72
    },
    {
      "pitch": 42,
      "start_time": 3.0,
      "duration": 0.0729,
      "velocity": 74
    },
    {
      "pitch": 46,
      "start_time": 3.0,
      "duration": 0.1667,
      "velocity": 41
    },
    {
      "pitch": 54,
      "start_time": 3.0,
      "duration": 0.3958,
      "velocity": 52
    },
    {
      "pitch": 56,
      "start_time": 3.0,
      "duration": 0.0833,
      "velocity": 84
    },
    {
      "pitch": 46,
      "start_time": 3.1667,
      "duration": 0.1667,
      "velocity": 68
    },
    {
      "pitch": 46,
      "start_time": 3.3333,
      "duration": 0.1667,
      "velocity": 51
    },
    {
      "pitch": 47,
      "start_time": 3.3333,
      "duration": 0.0417,
      "velocity": 43
    },
    {
      "pitch": 36,
      "start_time": 3.5,
      "duration": 0.0521,
      "velocity": 85
    },
    {
      "pitch": 42,
      "start_time": 3.5,
      "duration": 0.0625,
      "velocity": 88
    },
    {
      "pitch": 43,
      "start_time": 3.5,
      "duration": 0.125,
      "velocity": 35
    },
    {
      "pitch": 49,
      "start_time": 3.5,
      "duration": 0.375,
      "velocity": 44
    },
    {
      "pitch": 36,
      "start_time": 4.0,
      "duration": 0.0625,
      "velocity": 63
    },
    {
      "pitch": 42,
      "start_time": 4.0,
      "duration": 0.0625,
      "velocity": 66
    },
    {
      "pitch": 52,
      "start_time": 4.0,
      "duration": 1.75,
      "velocity": 60
    },
    {
      "pitch": 56,
      "start_time": 4.0,
      "duration": 0.0938,
      "velocity": 73
    },
    {
      "pitch": 40,
      "start_time": 4.5,
      "duration": 0.1667,
      "velocity": 47
    },
    {
      "pitch": 42,
      "start_time": 4.5,
      "duration": 0.0521,
      "velocity": 37
    },
    {
      "pitch": 47,
      "start_time": 4.5,
      "duration": 0.0521,
      "velocity": 58
    },
    {
      "pitch": 49,
      "start_time": 4.5,
      "duration": 0.0833,
      "velocity": 62
    },
    {
      "pitch": 40,
      "start_time": 4.6667,
      "duration": 0.1667,
      "velocity": 32
    },
    {
      "pitch": 40,
      "start_time": 4.8333,
      "duration": 0.1667,
      "velocity": 26
    },
    {
      "pitch": 37,
      "start_time": 5.0,
      "duration": 0.0521,
      "velocity": 76
    },
    {
      "pitch": 40,
      "start_time": 5.0,
      "duration": 0.1667,
      "velocity": 25
    },
    {
      "pitch": 42,
      "start_time": 5.0,
      "duration": 0.0625,
      "velocity": 77
    },
    {
      "pitch": 43,
      "start_time": 5.0,
      "duration": 0.0938,
      "velocity": 74
    },
    {
      "pitch": 56,
      "start_time": 5.0,
      "duration": 0.0833,
      "velocity": 99
    },
    {
      "pitch": 40,
      "start_time": 5.1667,
      "duration": 0.1667,
      "velocity": 15
    },
    {
      "pitch": 40,
      "start_time": 5.3333,
      "duration": 0.1042,
      "velocity": 11
    },
    {
      "pitch": 40,
      "start_time": 5.5,
      "duration": 0.1667,
      "velocity": 35
    },
    {
      "pitch": 42,
      "start_time": 5.5,
      "duration": 0.0625,
      "velocity": 46
    },
    {
      "pitch": 46,
      "start_time": 5.5,
      "duration": 0.1667,
      "velocity": 51
    },
    {
      "pitch": 40,
      "start_time": 5.6667,
      "duration": 0.1667,
      "velocity": 32
    },
    {
      "pitch": 46,
      "start_time": 5.6667,
      "duration": 0.1667,
      "velocity": 57
    },
    {
      "pitch": 40,
      "start_time": 5.8333,
      "duration": 0.1667,
      "velocity": 42
    },
    {
      "pitch": 46,
      "start_time": 5.8333,
      "duration": 0.1667,
      "velocity": 48
    },
    {
      "pitch": 36,
      "start_time": 6.0,
      "duration": 0.0521,
      "velocity": 57
    },
    {
      "pitch": 40,
      "start_time": 6.0,
      "duration": 0.1667,
      "velocity": 42
    },
    {
      "pitch": 42,
      "start_time": 6.0,
      "duration": 0.0625,
      "velocity": 56
    },
    {
      "pitch": 47,
      "start_time": 6.0,
      "duration": 0.1146,
      "velocity": 48
    },
    {
      "pitch": 50,
      "start_time": 6.0,
      "duration": 0.3021,
      "velocity": 29
    },
    {
      "pitch": 56,
      "start_time": 6.0,
      "duration": 0.0833,
      "velocity": 96
    },
    {
      "pitch": 40,
      "start_time": 6.1667,
      "duration": 0.1667,
      "velocity": 47
    },
    {
      "pitch": 40,
      "start_time": 6.3333,
      "duration": 0.1667,
      "velocity": 46
    },
    {
      "pitch": 43,
      "start_time": 6.3333,
      "duration": 0.1146,
      "velocity": 32
    },
    {
      "pitch": 46,
      "start_time": 6.3333,
      "duration": 0.3333,
      "velocity": 58
    },
    {
      "pitch": 40,
      "start_time": 6.5,
      "duration": 0.1667,
      "velocity": 57
    },
    {
      "pitch": 42,
      "start_time": 6.5,
      "duration": 0.0521,
      "velocity": 41
    },
    {
      "pitch": 51,
      "start_time": 6.5,
      "duration": 0.5312,
      "velocity": 39
    },
    {
      "pitch": 40,
      "start_time": 6.6667,
      "duration": 0.1667,
      "velocity": 52
    },
    {
      "pitch": 40,
      "start_time": 6.8333,
      "duration": 0.1667,
      "velocity": 53
    },
    {
      "pitch": 47,
      "start_time": 6.8333,
      "duration": 0.1042,
      "velocity": 51
    },
    {
      "pitch": 37,
      "start_time": 7.0,
      "duration": 0.0521,
      "velocity": 79
    },
    {
      "pitch": 38,
      "start_time": 7.0,
      "duration": 0.1667,
      "velocity": 3
    },
    {
      "pitch": 40,
      "start_time": 7.0,
      "duration": 0.1667,
      "velocity": 58
    },
    {
      "pitch": 42,
      "start_time": 7.0,
      "duration": 0.0625,
      "velocity": 82
    },
    {
      "pitch": 54,
      "start_time": 7.0,
      "duration": 0.3958,
      "velocity": 56
    },
    {
      "pitch": 56,
      "start_time": 7.0,
      "duration": 0.0833,
      "velocity": 95
    },
    {
      "pitch": 38,
      "start_time": 7.1667,
      "duration": 0.1667,
      "velocity": 3
    },
    {
      "pitch": 40,
      "start_time": 7.1667,
      "duration": 0.1667,
      "velocity": 48
    },
    {
      "pitch": 38,
      "start_time": 7.3333,
      "duration": 0.1667,
      "velocity": 6
    },
    {
      "pitch": 40,
      "start_time": 7.3333,
      "duration": 0.0417,
      "velocity": 40
    },
    {
      "pitch": 47,
      "start_time": 7.3333,
      "duration": 0.0833,
      "velocity": 44
    },
    {
      "pitch": 38,
      "start_time": 7.5,
      "duration": 0.1667,
      "velocity": 26
    },
    {
      "pitch": 42,
      "start_time": 7.5,
      "duration": 0.0833,
      "velocity": 54
    },
    {
      "pitch": 43,
      "start_time": 7.5,
      "duration": 0.1146,
      "velocity": 46
    },
    {
      "pitch": 55,
      "start_time": 7.5,
      "duration": 0.25,
      "velocity": 72
    },
    {
      "pitch": 38,
      "start_time": 7.6667,
      "duration": 0.1667,
      "velocity": 35
    },
    {
      "pitch": 38,
      "start_time": 7.8333,
      "duration": 0.0417,
      "velocity": 44
    },
    {
      "pitch": 49,
      "start_time": 7.8333,
      "duration": 0.0625,
      "velocity": 46
    },
    {
      "pitch": 36,
      "start_time": 8.0,
      "duration": 0.0312,
      "velocity": 50
    }
  ]
}