{
  "source": {
    "song": "packs",
    "track_index": 0,
    "track_name": "Beat Tools / MIDI Clips / 59 - 80 bpm / Cooked Kit groove 02_70 bpm",
    "slot_index": 0,
    "clip_name": "Beat Tools / MIDI Clips / 59 - 80 bpm / Cooked Kit groove 02_70 bpm",
    "mid_file": "/Users/darnold/Music/Ableton/Packs/Beat Tools/MIDI Clips/59 - 80 bpm/Cooked Kit groove 02_70 bpm.alc"
  },
  "meta": {
    "bpm": 70.0,
    "key": "?",
    "scale": "?",
    "length_beats": 8.0,
    "note_count": 126
  },
  "rhythm": {
    "density": 1.156,
    "hit_positions": [
      0.0,
      0.0,
      0.0,
      0.0,
      0.0,
      0.25,
      0.25,
      0.25,
      0.5,
      0.5,
      0.5,
      0.5,
      0.5,
      0.5,
      0.5,
      0.75,
      0.75,
      0.75,
      1.0,
      1.0,
      1.0,
      1.25,
      1.5,
      1.5,
      1.5,
      1.5,
      1.5,
      1.5,
      1.75,
      1.75,
      2.0,
      2.0,
      2.0,
      2.0,
      2.0,
      2.25,
      2.25,
      2.5,
      2.5,
      2.5,
      2.75,
      2.75,
      2.75,
      2.75,
      3.0,
      3.0,
      3.0,
      3.0,
      3.0,
      3.0,
      3.25,
      3.25,
      3.5,
      3.5,
      3.5,
      3.5,
      3.5,
      3.625,
      3.75,
      3.75,
      3.75,
      3.875,
      4.0,
      4.0,
      4.0,
      4.0,
      4.0,
      4.25,
      4.25,
      4.25,
      4.5,
      4.5,
      4.5,
      4.5,
      4.5,
      4.5,
      4.5,
      4.5,
      4.75,
      4.75,
      4.75,
      5.0,
      5.0,
      5.0,
      5.25,
      5.5,
      5.5,
      5.5,
      5.5,
      5.5,
      5.5,
      5.75,
      5.75,
      6.0,
      6.0,
      6.0,
      6.0,
      6.0,
      6.25,
      6.25,
      6.5,
      6.5,
      6.5,
      6.75,
      6.75,
      6.75,
      6.75,
      6.75,
      7.0,
      7.0,
      7.0,
      7.0,
      7.0,
      7.0,
      7.25,
      7.25,
      7.25,
      7.375,
      7.5,
      7.5,
      7.5,
      7.625,
      7.75,
      7.75,
      7.75,
      7.875
    ],
    "ioi": [
      0.0,
      0.0,
      0.0,
      0.0,
      0.25,
      0.0,
      0.0,
      0.25,
      0.0,
      0.0,
      0.0,
      0.0,
      0.0,
      0.0,
      0.25,
      0.0,
      0.0,
      0.25,
      0.0,
      0.0,
      0.25,
      0.25,
      0.0,
      0.0,
      0.0,
      0.0,
      0.0,
      0.25,
      0.0,
      0.25,
      0.0,
      0.0,
      0.0,
      0.0,
      0.25,
      0.0,
      0.25,
      0.0,
      0.0,
      0.25,
      0.0,
      0.0,
      0.0,
      0.25,
      0.0,
      0.0,
      0.0,
      0.0,
      0.0,
      0.25,
      0.0,
      0.25,
      0.0,
      0.0,
      0.0,
      0.0,
      0.125,
      0.125,
      0.0,
      0.0,
      0.125,
      0.125,
      0.0,
      0.0,
      0.0,
      0.0,
      0.25,
      0.0,
      0.0,
      0.25,
      0.0,
      0.0,
      0.0,
      0.0,
      0.0,
      0.0,
      0.0,
      0.25,
      0.0,
      0.0,
      0.25,
      0.0,
      0.0,
      0.25,
      0.25,
      0.0,
      0.0,
      0.0,
      0.0,
      0.0,
      0.25,
      0.0,
      0.25,
      0.0,
      0.0,
      0.0,
      0.0,
      0.25,
      0.0,
      0.25,
      0.0,
      0.0,
      0.25,
      0.0,
      0.0,
      0.0,
      0.0,
      0.25,
      0.0,
      0.0,
      0.0,
      0.0,
      0.0,
      0.25,
      0.0,
      0.0,
      0.125,
      0.125,
      0.0,
      0.0,
      0.125,
      0.125,
      0.0,
      0.0,
      0.125,
      0.125
    ],
    "grid": "16th",
    "euclidean_approx": [
      32,
      32
    ],
    "swing_ratio": 1.033
  },
  "pitch": {
    "notes_used": [
      36,
      37,
      38,
      39,
      40,
      41,
      42,
      46,
      47,
      48,
      49,
      50,
      59
    ],
    "intervals": [
      4,
      2,
      5,
      1,
      12,
      4,
      2,
      6,
      3,
      1,
      2,
      4,
      1,
      3,
      8,
      4,
      4,
      13,
      5,
      5,
      5,
      6,
      4,
      2,
      4,
      1,
      12,
      17,
      4,
      10,
      4,
      2,
      5,
      2,
      13,
      6,
      0,
      4,
      1,
      11,
      4,
      2,
      4,
      9,
      1,
      3,
      1,
      4,
      1,
      5,
      5,
      11,
      4,
      2,
      4,
      1,
      1,
      4,
      4,
      1,
      1,
      10,
      4,
      2,
      5,
      1,
      12,
      4,
      2,
      6,
      3,
      1,
      2,
      4,
      1,
      3,
      9,
      17,
      4,
      4,
      13,
      5,
      5,
      5,
      6,
      4,
      2,
      4,
      1,
      3,
      8,
      4,
      10,
      4,
      2,
      5,
      2,
      13,
      6,
      0,
      4,
      1,
      11,
      4,
      2,
      4,
      1,
      10,
      1,
      3,
      1,
      4,
      1,
      11,
      6,
      4,
      0,
      4,
      4,
      1,
      1,
      10,
      6,
      4,
      0
    ],
    "register": "low",
    "is_melodic": true,
    "pitch_range": 23,
    "pitch_distribution": {
      "36": 17,
      "40": 13,
      "42": 32,
      "47": 19,
      "48": 2,
      "39": 2,
      "46": 24,
      "50": 5,
      "37": 4,
      "59": 2,
      "49": 2,
      "38": 2,
      "41": 2
    }
  },
  "velocity": {
    "mean": 49.5,
    "variance": 293.8,
    "std": 17.1,
    "accents": [
      0,
      1,
      4,
      13,
      17,
      18,
      22,
      44,
      45,
      56,
      65,
      66,
      80,
      81,
      83,
      88,
      93,
      96,
      108,
      109,
      113,
      114,
      120
    ],
    "profile": [
      73,
      73,
      42,
      50,
      76,
      48,
      34,
      28,
      62,
      52,
      52,
      41,
      42,
      70,
      61,
      18,
      62,
      85,
      85,
      65,
      55,
      34,
      67,
      44,
      49,
      66,
      44,
      51,
      34,
      46,
      63,
      48,
      42,
      34,
      62,
      14,
      28,
      37,
      58,
      49,
      36,
      41,
      32,
      35,
      71,
      79,
      26,
      53,
      37,
      60,
      21,
      17,
      55,
      47,
      43,
      35,
      78,
      35,
      35,
      36,
      47,
      35,
      54,
      53,
      43,
      79,
      67,
      49,
      42,
      31,
      56,
      59,
      42,
      38,
      57,
      53,
      62,
      63,
      33,
      56,
      79,
      77,
      60,
      71,
      41,
      56,
      42,
      46,
      69,
      51,
      20,
      40,
      42,
      70,
      58,
      51,
      75,
      55,
      31,
      30,
      37,
      63,
      55,
      44,
      50,
      34,
      39,
      32,
      76,
      74,
      4,
      54,
      28,
      81,
      82,
      57,
      51,
      51,
      25,
      37,
      78,
      27,
      64,
      46,
      25,
      19
    ]
  },
  "notes": [
    {
      "pitch": 36,
      "start_time": 0.0,
      "duration": 0.0521,
      "velocity": 73
    },
    {
      "pitch": 40,
      "start_time": 0.0,
      "duration": 0.0312,
      "velocity": 73
    },
    {
      "pitch": 42,
      "start_time": 0.0,
      "duration": 0.0208,
      "velocity": 42
    },
    {
      "pitch": 47,
      "start_time": 0.0,
      "duration": 0.0312,
      "velocity": 50
    },
    {
      "pitch": 48,
      "start_time": 0.0,
      "duration": 1.8229,
      "velocity": 76
    },
    {
      "pitch": 36,
      "start_time": 0.25,
      "duration": 0.0417,
      "velocity": 48
    },
    {
      "pitch": 40,
      "start_time": 0.25,
      "duration": 0.0208,
      "velocity": 34
    },
    {
      "pitch": 42,
      "start_time": 0.25,
      "duration": 0.0312,
      "velocity": 28
    },
    {
      "pitch": 36,
      "start_time": 0.5,
      "duration": 0.0521,
      "velocity": 62
    },
    {
      "pitch": 39,
      "start_time": 0.5,
      "duration": 1.375,
      "velocity": 52
    },
    {
      "pitch": 40,
      "start_time": 0.5,
      "duration": 0.0417,
      "velocity": 52
    },
    {
      "pitch": 42,
      "start_time": 0.5,
      "duration": 0.0208,
      "velocity": 41
    },
    {
      "pitch": 46,
      "start_time": 0.5,
      "duration": 0.25,
      "velocity": 42
    },
    {
      "pitch": 47,
      "start_time": 0.5,
      "duration": 0.0312,
      "velocity": 70
    },
    {
      "pitch": 50,
      "start_time": 0.5,
      "duration": 0.0521,
      "velocity": 61
    },
    {
      "pitch": 42,
      "start_time": 0.75,
      "duration": 0.0521,
      "velocity": 18
    },
    {
      "pitch": 46,
      "start_time": 0.75,
      "duration": 0.0729,
      "velocity": 62
    },
    {
      "pitch": 50,
      "start_time": 0.75,
      "duration": 0.0625,
      "velocity": 85
    },
    {
      "pitch": 37,
      "start_time": 1.0,
      "duration": 0.0417,
      "velocity": 85
    },
    {
      "pitch": 42,
      "start_time": 1.0,
      "duration": 0.0521,
      "velocity": 65
    },
    {
      "pitch": 47,
      "start_time": 1.0,
      "duration": 0.0312,
      "velocity": 55
    },
    {
      "pitch": 42,
      "start_time": 1.25,
      "duration": 0.0625,
      "velocity": 34
    },
    {
      "pitch": 36,
      "start_time": 1.5,
      "duration": 0.0417,
      "velocity": 67
    },
    {
      "pitch": 40,
      "start_time": 1.5,
      "duration": 0.0208,
      "velocity": 44
    },
    {
      "pitch": 42,
      "start_time": 1.5,
      "duration": 0.0417,
      "velocity": 49
    },
    {
      "pitch": 46,
      "start_time": 1.5,
      "duration": 0.25,
      "velocity": 66
    },
    {
      "pitch": 47,
      "start_time": 1.5,
      "duration": 0.0417,
      "velocity": 44
    },
    {
      "pitch": 59,
      "start_time": 1.5,
      "duration": 0.0625,
      "velocity": 51
    },
    {
      "pitch": 42,
      "start_time": 1.75,
      "duration": 0.0521,
      "velocity": 34
    },
    {
      "pitch": 46,
      "start_time": 1.75,
      "duration": 0.0938,
      "velocity": 46
    },
    {
      "pitch": 36,
      "start_time": 2.0,
      "duration": 0.0521,
      "velocity": 63
    },
    {
      "pitch": 40,
      "start_time": 2.0,
      "duration": 0.0521,
      "velocity": 48
    },
    {
      "pitch": 42,
      "start_time": 2.0,
      "duration": 0.0417,
      "velocity": 42
    },
    {
      "pitch": 47,
      "start_time": 2.0,
      "duration": 0.0417,
      "velocity": 34
    },
    {
      "pitch": 49,
      "start_time": 2.0,
      "duration": 1.7708,
      "velocity": 62
    },
    {
      "pitch": 36,
      "start_time": 2.25,
      "duration": 0.0208,
      "velocity": 14
    },
    {
      "pitch": 42,
      "start_time": 2.25,
      "duration": 0.0312,
      "velocity": 28
    },
    {
      "pitch": 42,
      "start_time": 2.5,
      "duration": 0.0625,
      "velocity": 37
    },
    {
      "pitch": 46,
      "start_time": 2.5,
      "duration": 0.25,
      "velocity": 58
    },
    {
      "pitch": 47,
      "start_time": 2.5,
      "duration": 0.0312,
      "velocity": 49
    },
    {
      "pitch": 36,
      "start_time": 2.75,
      "duration": 0.0417,
      "velocity": 36
    },
    {
      "pitch": 40,
      "start_time": 2.75,
      "duration": 0.0312,
      "velocity": 41
    },
    {
      "pitch": 42,
      "start_time": 2.75,
      "duration": 0.0417,
      "velocity": 32
    },
    {
      "pitch": 46,
      "start_time": 2.75,
      "duration": 0.25,
      "velocity": 35
    },
    {
      "pitch": 37,
      "start_time": 3.0,
      "duration": 0.0417,
      "velocity": 71
    },
    {
      "pitch": 38,
      "start_time": 3.0,
      "duration": 0.0312,
      "velocity": 79
    },
    {
      "pitch": 41,
      "start_time": 3.0,
      "duration": 0.0208,
      "velocity": 26
    },
    {
      "pitch": 42,
      "start_time": 3.0,
      "duration": 0.0625,
      "velocity": 53
    },
    {
      "pitch": 46,
      "start_time": 3.0,
      "duration": 0.1458,
      "velocity": 37
    },
    {
      "pitch": 47,
      "start_time": 3.0,
      "duration": 0.0312,
      "velocity": 60
    },
    {
      "pitch": 42,
      "start_time": 3.25,
      "duration": 0.0312,
      "velocity": 21
    },
    {
      "pitch": 47,
      "start_time": 3.25,
      "duration": 0.0208,
      "velocity": 17
    },
    {
      "pitch": 36,
      "start_time": 3.5,
      "duration": 0.0417,
      "velocity": 55
    },
    {
      "pitch": 40,
      "start_time": 3.5,
      "duration": 0.0208,
      "velocity": 47
    },
    {
      "pitch": 42,
      "start_time": 3.5,
      "duration": 0.0417,
      "velocity": 43
    },
    {
      "pitch": 46,
      "start_time": 3.5,
      "duration": 0.125,
      "velocity": 35
    },
    {
      "pitch": 47,
      "start_time": 3.5,
      "duration": 0.0312,
      "velocity": 78
    },
    {
      "pitch": 46,
      "start_time": 3.625,
      "duration": 0.125,
      "velocity": 35
    },
    {
      "pitch": 42,
      "start_time": 3.75,
      "duration": 0.0521,
      "velocity": 35
    },
    {
      "pitch": 46,
      "start_time": 3.75,
      "duration": 0.125,
      "velocity": 36
    },
    {
      "pitch": 47,
      "start_time": 3.75,
      "duration": 0.0312,
      "velocity": 47
    },
    {
      "pitch": 46,
      "start_time": 3.875,
      "duration": 0.0104,
      "velocity": 35
    },
    {
      "pitch": 36,
      "start_time": 4.0,
      "duration": 0.0521,
      "velocity": 54
    },
    {
      "pitch": 40,
      "start_time": 4.0,
      "duration": 0.0521,
      "velocity": 53
    },
    {
      "pitch": 42,
      "start_time": 4.0,
      "duration": 0.0521,
      "velocity": 43
    },
    {
      "pitch": 47,
      "start_time": 4.0,
      "duration": 0.0417,
      "velocity": 79
    },
    {
      "pitch": 48,
      "start_time": 4.0,
      "duration": 1.8542,
      "velocity": 67
    },
    {
      "pitch": 36,
      "start_time": 4.25,
      "duration": 0.0521,
      "velocity": 49
    },
    {
      "pitch": 40,
      "start_time": 4.25,
      "duration": 0.0208,
      "velocity": 42
    },
    {
      "pitch": 42,
      "start_time": 4.25,
      "duration": 0.0208,
      "velocity": 31
    },
    {
      "pitch": 36,
      "start_time": 4.5,
      "duration": 0.0417,
      "velocity": 56
    },
    {
      "pitch": 39,
      "start_time": 4.5,
      "duration": 2.3333,
      "velocity": 59
    },
    {
      "pitch": 40,
      "start_time": 4.5,
      "duration": 0.0208,
      "velocity": 42
    },
    {
      "pitch": 42,
      "start_time": 4.5,
      "duration": 0.0417,
      "velocity": 38
    },
    {
      "pitch": 46,
      "start_time": 4.5,
      "duration": 0.25,
      "velocity": 57
    },
    {
      "pitch": 47,
      "start_time": 4.5,
      "duration": 0.0312,
      "velocity": 53
    },
    {
      "pitch": 50,
      "start_time": 4.5,
      "duration": 0.0417,
      "velocity": 62
    },
    {
      "pitch": 59,
      "start_time": 4.5,
      "duration": 0.6354,
      "velocity": 63
    },
    {
      "pitch": 42,
      "start_time": 4.75,
      "duration": 0.0417,
      "velocity": 33
    },
    {
      "pitch": 46,
      "start_time": 4.75,
      "duration": 0.1458,
      "velocity": 56
    },
    {
      "pitch": 50,
      "start_time": 4.75,
      "duration": 0.0729,
      "velocity": 79
    },
    {
      "pitch": 37,
      "start_time": 5.0,
      "duration": 0.0312,
      "velocity": 77
    },
    {
      "pitch": 42,
      "start_time": 5.0,
      "duration": 0.0417,
      "velocity": 60
    },
    {
      "pitch": 47,
      "start_time": 5.0,
      "duration": 0.0312,
      "velocity": 71
    },
    {
      "pitch": 42,
      "start_time": 5.25,
      "duration": 0.0521,
      "velocity": 41
    },
    {
      "pitch": 36,
      "start_time": 5.5,
      "duration": 0.0417,
      "velocity": 56
    },
    {
      "pitch": 40,
      "start_time": 5.5,
      "duration": 0.0208,
      "velocity": 42
    },
    {
      "pitch": 42,
      "start_time": 5.5,
      "duration": 0.0521,
      "velocity": 46
    },
    {
      "pitch": 46,
      "start_time": 5.5,
      "duration": 0.25,
      "velocity": 69
    },
    {
      "pitch": 47,
      "start_time": 5.5,
      "duration": 0.0312,
      "velocity": 51
    },
    {
      "pitch": 50,
      "start_time": 5.5,
      "duration": 0.0312,
      "velocity": 20
    },
    {
      "pitch": 42,
      "start_time": 5.75,
      "duration": 0.0521,
      "velocity": 40
    },
    {
      "pitch": 46,
      "start_time": 5.75,
      "duration": 0.1875,
      "velocity": 42
    },
    {
      "pitch": 36,
      "start_time": 6.0,
      "duration": 0.0521,
      "velocity": 70
    },
    {
      "pitch": 40,
      "start_time": 6.0,
      "duration": 0.0521,
      "velocity": 58
    },
    {
      "pitch": 42,
      "start_time": 6.0,
      "duration": 0.0625,
      "velocity": 51
    },
    {
      "pitch": 47,
      "start_time": 6.0,
      "duration": 0.0417,
      "velocity": 75
    },
    {
      "pitch": 49,
      "start_time": 6.0,
      "duration": 1.8229,
      "velocity": 55
    },
    {
      "pitch": 36,
      "start_time": 6.25,
      "duration": 0.0208,
      "velocity": 31
    },
    {
      "pitch": 42,
      "start_time": 6.25,
      "duration": 0.0312,
      "velocity": 30
    },
    {
      "pitch": 42,
      "start_time": 6.5,
      "duration": 0.0521,
      "velocity": 37
    },
    {
      "pitch": 46,
      "start_time": 6.5,
      "duration": 0.25,
      "velocity": 63
    },
    {
      "pitch": 47,
      "start_time": 6.5,
      "duration": 0.0521,
      "velocity": 55
    },
    {
      "pitch": 36,
      "start_time": 6.75,
      "duration": 0.0312,
      "velocity": 44
    },
    {
      "pitch": 40,
      "start_time": 6.75,
      "duration": 0.0312,
      "velocity": 50
    },
    {
      "pitch": 42,
      "start_time": 6.75,
      "duration": 0.0417,
      "velocity": 34
    },
    {
      "pitch": 46,
      "start_time": 6.75,
      "duration": 0.25,
      "velocity": 39
    },
    {
      "pitch": 47,
      "start_time": 6.75,
      "duration": 0.0312,
      "velocity": 32
    },
    {
      "pitch": 37,
      "start_time": 7.0,
      "duration": 0.0417,
      "velocity": 76
    },
    {
      "pitch": 38,
      "start_time": 7.0,
      "duration": 0.0521,
      "velocity": 74
    },
    {
      "pitch": 41,
      "start_time": 7.0,
      "duration": 0.0208,
      "velocity": 4
    },
    {
      "pitch": 42,
      "start_time": 7.0,
      "duration": 0.0521,
      "velocity": 54
    },
    {
      "pitch": 46,
      "start_time": 7.0,
      "duration": 0.0625,
      "velocity": 28
    },
    {
      "pitch": 47,
      "start_time": 7.0,
      "duration": 0.0312,
      "velocity": 81
    },
    {
      "pitch": 36,
      "start_time": 7.25,
      "duration": 0.0417,
      "velocity": 82
    },
    {
      "pitch": 42,
      "start_time": 7.25,
      "duration": 0.0417,
      "velocity": 57
    },
    {
      "pitch": 46,
      "start_time": 7.25,
      "duration": 0.125,
      "velocity": 51
    },
    {
      "pitch": 46,
      "start_time": 7.375,
      "duration": 0.125,
      "velocity": 51
    },
    {
      "pitch": 42,
      "start_time": 7.5,
      "duration": 0.0312,
      "velocity": 25
    },
    {
      "pitch": 46,
      "start_time": 7.5,
      "duration": 0.125,
      "velocity": 37
    },
    {
      "pitch": 47,
      "start_time": 7.5,
      "duration": 0.0417,
      "velocity": 78
    },
    {
      "pitch": 46,
      "start_time": 7.625,
      "duration": 0.125,
      "velocity": 27
    },
    {
      "pitch": 36,
      "start_time": 7.75,
      "duration": 0.0312,
      "velocity": 64
    },
    {
      "pitch": 42,
      "start_time": 7.75,
      "duration": 0.0417,
      "velocity": 46
    },
    {
      "pitch": 46,
      "start_time": 7.75,
      "duration": 0.125,
      "velocity": 25
    },
    {
      "pitch": 46,
      "start_time": 7.875,
      "duration": 0.1146,
      "velocity": 19
    }
  ]
}