{
  "source": {
    "song": "packs",
    "track_index": 0,
    "track_name": "Beat Tools / MIDI Clips / 59 - 80 bpm / Abyss Kit groove 01_59 bpm",
    "slot_index": 0,
    "clip_name": "Beat Tools / MIDI Clips / 59 - 80 bpm / Abyss Kit groove 01_59 bpm",
    "mid_file": "/Users/darnold/Music/Ableton/Packs/Beat Tools/MIDI Clips/59 - 80 bpm/Abyss Kit groove 01_59 bpm.alc"
  },
  "meta": {
    "bpm": 59.0,
    "key": "?",
    "scale": "?",
    "length_beats": 8.0,
    "note_count": 46
  },
  "rhythm": {
    "density": 0.875,
    "hit_positions": [
      0.0,
      0.0,
      0.0,
      0.0,
      0.5,
      0.625,
      0.75,
      0.75,
      0.875,
      1.0,
      1.75,
      2.25,
      2.75,
      2.75,
      2.875,
      3.0,
      3.0,
      3.5,
      3.75,
      4.0,
      4.0,
      4.0,
      4.5,
      4.625,
      4.75,
      4.75,
      4.875,
      5.0,
      5.75,
      6.0,
      6.25,
      6.25,
      6.75,
      6.75,
      6.75,
      6.875,
      6.875,
      7.0,
      7.0,
      7.0,
      7.25,
      7.25,
      7.5,
      7.5,
      7.75,
      7.75
    ],
    "ioi": [
      0.0,
      0.0,
      0.0,
      0.5,
      0.125,
      0.125,
      0.0,
      0.125,
      0.125,
      0.75,
      0.5,
      0.5,
      0.0,
      0.125,
      0.125,
      0.0,
      0.5,
      0.25,
      0.25,
      0.0,
      0.0,
      0.5,
      0.125,
      0.125,
      0.0,
      0.125,
      0.125,
      0.75,
      0.25,
      0.25,
      0.0,
      0.5,
      0.0,
      0.0,
      0.125,
      0.0,
      0.125,
      0.0,
      0.0,
      0.25,
      0.0,
      0.25,
      0.0,
      0.25,
      0.0,
      0.25
    ],
    "grid": "16th",
    "euclidean_approx": [
      32,
      32
    ],
    "swing_ratio": 1.104
  },
  "pitch": {
    "notes_used": [
      36,
      38,
      40,
      42,
      43,
      44,
      45,
      46,
      48,
      49,
      51
    ],
    "intervals": [
      9,
      1,
      2,
      6,
      0,
      0,
      1,
      1,
      4,
      6,
      8,
      0,
      6,
      0,
      4,
      4,
      2,
      7,
      15,
      9,
      3,
      6,
      0,
      0,
      1,
      1,
      4,
      6,
      5,
      13,
      2,
      2,
      2,
      4,
      4,
      4,
      4,
      2,
      2,
      2,
      11,
      11,
      4,
      4,
      11
    ],
    "register": "low",
    "is_melodic": true,
    "pitch_range": 15,
    "pitch_distribution": {
      "36": 6,
      "45": 2,
      "46": 1,
      "48": 2,
      "42": 14,
      "43": 2,
      "38": 7,
      "44": 4,
      "51": 3,
      "49": 1,
      "40": 4
    }
  },
  "velocity": {
    "mean": 66.1,
    "variance": 816.4,
    "std": 28.6,
    "accents": [
      1,
      3,
      7,
      12,
      20,
      21,
      25,
      29,
      44
    ],
    "profile": [
      77,
      100,
      31,
      127,
      55,
      55,
      55,
      127,
      55,
      52,
      63,
      74,
      98,
      55,
      55,
      56,
      55,
      63,
      63,
      78,
      125,
      122,
      55,
      55,
      55,
      127,
      55,
      66,
      63,
      100,
      40,
      7,
      76,
      7,
      55,
      7,
      55,
      63,
      39,
      55,
      63,
      63,
      71,
      63,
      95,
      63
    ]
  },
  "notes": [
    {
      "pitch": 36,
      "start_time": 0.0,
      "duration": 0.8233,
      "velocity": 77
    },
    {
      "pitch": 45,
      "start_time": 0.0,
      "duration": 2.0,
      "velocity": 100
    },
    {
      "pitch": 46,
      "start_time": 0.0,
      "duration": 1.37,
      "velocity": 31
    },
    {
      "pitch": 48,
      "start_time": 0.0,
      "duration": 3.9772,
      "velocity": 127
    },
    {
      "pitch": 42,
      "start_time": 0.5,
      "duration": 0.125,
      "velocity": 55
    },
    {
      "pitch": 42,
      "start_time": 0.625,
      "duration": 0.125,
      "velocity": 55
    },
    {
      "pitch": 42,
      "start_time": 0.75,
      "duration": 0.125,
      "velocity": 55
    },
    {
      "pitch": 43,
      "start_time": 0.75,
      "duration": 0.272,
      "velocity": 127
    },
    {
      "pitch": 42,
      "start_time": 0.875,
      "duration": 0.1174,
      "velocity": 55
    },
    {
      "pitch": 38,
      "start_time": 1.0,
      "duration": 1.1192,
      "velocity": 52
    },
    {
      "pitch": 44,
      "start_time": 1.75,
      "duration": 0.2614,
      "velocity": 63
    },
    {
      "pitch": 36,
      "start_time": 2.25,
      "duration": 0.4462,
      "velocity": 74
    },
    {
      "pitch": 36,
      "start_time": 2.75,
      "duration": 0.2544,
      "velocity": 98
    },
    {
      "pitch": 42,
      "start_time": 2.75,
      "duration": 0.125,
      "velocity": 55
    },
    {
      "pitch": 42,
      "start_time": 2.875,
      "duration": 0.0805,
      "velocity": 55
    },
    {
      "pitch": 38,
      "start_time": 3.0,
      "duration": 0.893,
      "velocity": 56
    },
    {
      "pitch": 42,
      "start_time": 3.0,
      "duration": 0.0212,
      "velocity": 55
    },
    {
      "pitch": 44,
      "start_time": 3.5,
      "duration": 0.214,
      "velocity": 63
    },
    {
      "pitch": 51,
      "start_time": 3.75,
      "duration": 0.2392,
      "velocity": 63
    },
    {
      "pitch": 36,
      "start_time": 4.0,
      "duration": 0.8399,
      "velocity": 78
    },
    {
      "pitch": 45,
      "start_time": 4.0,
      "duration": 2.0258,
      "velocity": 125
    },
    {
      "pitch": 48,
      "start_time": 4.0,
      "duration": 2.0,
      "velocity": 122
    },
    {
      "pitch": 42,
      "start_time": 4.5,
      "duration": 0.125,
      "velocity": 55
    },
    {
      "pitch": 42,
      "start_time": 4.625,
      "duration": 0.125,
      "velocity": 55
    },
    {
      "pitch": 42,
      "start_time": 4.75,
      "duration": 0.125,
      "velocity": 55
    },
    {
      "pitch": 43,
      "start_time": 4.75,
      "duration": 0.2816,
      "velocity": 127
    },
    {
      "pitch": 42,
      "start_time": 4.875,
      "duration": 0.0618,
      "velocity": 55
    },
    {
      "pitch": 38,
      "start_time": 5.0,
      "duration": 1.211,
      "velocity": 66
    },
    {
      "pitch": 44,
      "start_time": 5.75,
      "duration": 0.2286,
      "velocity": 63
    },
    {
      "pitch": 49,
      "start_time": 6.0,
      "duration": 2.0,
      "velocity": 100
    },
    {
      "pitch": 36,
      "start_time": 6.25,
      "duration": 0.3983,
      "velocity": 40
    },
    {
      "pitch": 38,
      "start_time": 6.25,
      "duration": 0.3454,
      "velocity": 7
    },
    {
      "pitch": 36,
      "start_time": 6.75,
      "duration": 0.2534,
      "velocity": 76
    },
    {
      "pitch": 38,
      "start_time": 6.75,
      "duration": 0.125,
      "velocity": 7
    },
    {
      "pitch": 42,
      "start_time": 6.75,
      "duration": 0.125,
      "velocity": 55
    },
    {
      "pitch": 38,
      "start_time": 6.875,
      "duration": 0.0707,
      "velocity": 7
    },
    {
      "pitch": 42,
      "start_time": 6.875,
      "duration": 0.125,
      "velocity": 55
    },
    {
      "pitch": 38,
      "start_time": 7.0,
      "duration": 0.7709,
      "velocity": 63
    },
    {
      "pitch": 40,
      "start_time": 7.0,
      "duration": 0.2378,
      "velocity": 39
    },
    {
      "pitch": 42,
      "start_time": 7.0,
      "duration": 0.0296,
      "velocity": 55
    },
    {
      "pitch": 40,
      "start_time": 7.25,
      "duration": 0.2358,
      "velocity": 63
    },
    {
      "pitch": 51,
      "start_time": 7.25,
      "duration": 0.2216,
      "velocity": 63
    },
    {
      "pitch": 40,
      "start_time": 7.5,
      "duration": 0.239,
      "velocity": 71
    },
    {
      "pitch": 44,
      "start_time": 7.5,
      "duration": 0.202,
      "velocity": 63
    },
    {
      "pitch": 40,
      "start_time": 7.75,
      "duration": 0.25,
      "velocity": 95
    },
    {
      "pitch": 51,
      "start_time": 7.75,
      "duration": 0.2358,
      "velocity": 63
    }
  ]
}