{
  "source": {
    "song": "packs",
    "track_index": 0,
    "track_name": "Beat Tools / MIDI Clips / 132 - 152 bpm / Agile Shot Kit groove 03_132 bpm",
    "slot_index": 0,
    "clip_name": "Beat Tools / MIDI Clips / 132 - 152 bpm / Agile Shot Kit groove 03_132 bpm",
    "mid_file": "/Users/darnold/Music/Ableton/Packs/Beat Tools/MIDI Clips/132 - 152 bpm/Agile Shot Kit groove 03_132 bpm.alc"
  },
  "meta": {
    "bpm": 132.0,
    "key": "?",
    "scale": "?",
    "length_beats": 8.0,
    "note_count": 62
  },
  "rhythm": {
    "density": 0.656,
    "hit_positions": [
      0.0,
      0.0,
      0.0,
      0.0,
      0.0067,
      0.0068,
      0.5,
      0.5,
      0.5,
      0.5065,
      0.75,
      1.0,
      1.0,
      1.0,
      1.0,
      1.0043,
      1.0045,
      1.25,
      1.5,
      1.5,
      1.5027,
      2.0,
      2.0,
      2.0053,
      2.006,
      3.0,
      3.0043,
      3.5,
      4.0,
      4.0,
      4.0007,
      4.5,
      4.5,
      4.5,
      4.5066,
      4.75,
      5.0,
      5.0,
      5.0,
      5.0013,
      5.0015,
      5.5,
      5.5,
      5.5009,
      6.0,
      6.0,
      6.0,
      6.0022,
      6.0028,
      6.25,
      6.5,
      6.5,
      6.5,
      6.5,
      6.5005,
      7.0,
      7.0,
      7.0046,
      7.25,
      7.5,
      7.5,
      7.75
    ],
    "ioi": [
      0.0,
      0.0,
      0.0,
      0.0067,
      0.0001,
      0.4932,
      0.0,
      0.0,
      0.0065,
      0.2435,
      0.25,
      0.0,
      0.0,
      0.0,
      0.0043,
      0.0002,
      0.2455,
      0.25,
      0.0,
      0.0027,
      0.4973,
      0.0,
      0.0053,
      0.0007,
      0.994,
      0.0043,
      0.4957,
      0.5,
      0.0,
      0.0007,
      0.4993,
      0.0,
      0.0,
      0.0066,
      0.2434,
      0.25,
      0.0,
      0.0,
      0.0013,
      0.0002,
      0.4985,
      0.0,
      0.0009,
      0.4991,
      0.0,
      0.0,
      0.0022,
      0.0006,
      0.2472,
      0.25,
      0.0,
      0.0,
      0.0,
      0.0005,
      0.4995,
      0.0,
      0.0046,
      0.2454,
      0.25,
      0.0,
      0.25,
      0.25
    ],
    "grid": "16th",
    "euclidean_approx": [
      32,
      32
    ],
    "swing_ratio": 1.0
  },
  "pitch": {
    "notes_used": [
      36,
      37,
      38,
      40,
      42,
      43,
      46,
      48,
      49,
      50,
      51,
      52,
      53,
      54,
      55,
      56,
      57,
      58
    ],
    "intervals": [
      3,
      8,
      4,
      19,
      10,
      9,
      13,
      4,
      8,
      9,
      0,
      6,
      6,
      4,
      7,
      10,
      1,
      11,
      4,
      6,
      8,
      15,
      16,
      9,
      8,
      8,
      10,
      0,
      19,
      9,
      9,
      5,
      12,
      8,
      4,
      2,
      2,
      11,
      7,
      10,
      10,
      6,
      16,
      2,
      4,
      16,
      21,
      9,
      4,
      2,
      2,
      13,
      2,
      11,
      4,
      14,
      10,
      4,
      0,
      13,
      13
    ],
    "register": "low",
    "is_melodic": true,
    "pitch_range": 22,
    "pitch_distribution": {
      "40": 3,
      "43": 2,
      "51": 1,
      "55": 4,
      "36": 6,
      "46": 13,
      "37": 7,
      "50": 1,
      "54": 3,
      "49": 1,
      "53": 3,
      "48": 1,
      "52": 2,
      "38": 2,
      "42": 10,
      "58": 1,
      "57": 1,
      "56": 1
    }
  },
  "velocity": {
    "mean": 74.2,
    "variance": 946.6,
    "std": 30.8,
    "accents": [
      0,
      15,
      21,
      24,
      28,
      29,
      43,
      44,
      48,
      50
    ],
    "profile": [
      127,
      86,
      96,
      89,
      94,
      93,
      60,
      70,
      83,
      30,
      34,
      32,
      77,
      67,
      66,
      115,
      103,
      56,
      79,
      82,
      35,
      127,
      101,
      80,
      110,
      100,
      70,
      96,
      125,
      116,
      66,
      57,
      49,
      78,
      19,
      13,
      104,
      26,
      64,
      92,
      88,
      86,
      50,
      105,
      127,
      56,
      104,
      75,
      110,
      13,
      115,
      28,
      59,
      64,
      31,
      55,
      70,
      101,
      34,
      38,
      85,
      38
    ]
  },
  "notes": [
    {
      "pitch": 40,
      "start_time": 0.0,
      "duration": 2.922,
      "velocity": 127
    },
    {
      "pitch": 43,
      "start_time": 0.0,
      "duration": 0.0519,
      "velocity": 86
    },
    {
      "pitch": 51,
      "start_time": 0.0,
      "duration": 0.0595,
      "velocity": 96
    },
    {
      "pitch": 55,
      "start_time": 0.0,
      "duration": 0.0866,
      "velocity": 89
    },
    {
      "pitch": 36,
      "start_time": 0.0067,
      "duration": 0.1201,
      "velocity": 94
    },
    {
      "pitch": 46,
      "start_time": 0.0068,
      "duration": 0.1183,
      "velocity": 93
    },
    {
      "pitch": 37,
      "start_time": 0.5,
      "duration": 0.0743,
      "velocity": 60
    },
    {
      "pitch": 50,
      "start_time": 0.5,
      "duration": 0.0636,
      "velocity": 70
    },
    {
      "pitch": 54,
      "start_time": 0.5,
      "duration": 0.0729,
      "velocity": 83
    },
    {
      "pitch": 46,
      "start_time": 0.5065,
      "duration": 0.025,
      "velocity": 30
    },
    {
      "pitch": 37,
      "start_time": 0.75,
      "duration": 0.25,
      "velocity": 34
    },
    {
      "pitch": 37,
      "start_time": 1.0,
      "duration": 0.25,
      "velocity": 32
    },
    {
      "pitch": 43,
      "start_time": 1.0,
      "duration": 0.0628,
      "velocity": 77
    },
    {
      "pitch": 49,
      "start_time": 1.0,
      "duration": 0.0627,
      "velocity": 67
    },
    {
      "pitch": 53,
      "start_time": 1.0,
      "duration": 0.0727,
      "velocity": 66
    },
    {
      "pitch": 46,
      "start_time": 1.0043,
      "duration": 0.1255,
      "velocity": 115
    },
    {
      "pitch": 36,
      "start_time": 1.0045,
      "duration": 0.1151,
      "velocity": 103
    },
    {
      "pitch": 37,
      "start_time": 1.25,
      "duration": 0.2304,
      "velocity": 56
    },
    {
      "pitch": 48,
      "start_time": 1.5,
      "duration": 0.0547,
      "velocity": 79
    },
    {
      "pitch": 52,
      "start_time": 1.5,
      "duration": 0.0732,
      "velocity": 82
    },
    {
      "pitch": 46,
      "start_time": 1.5027,
      "duration": 0.1195,
      "velocity": 35
    },
    {
      "pitch": 38,
      "start_time": 2.0,
      "duration": 0.1048,
      "velocity": 127
    },
    {
      "pitch": 53,
      "start_time": 2.0,
      "duration": 0.0784,
      "velocity": 101
    },
    {
      "pitch": 37,
      "start_time": 2.0053,
      "duration": 0.0968,
      "velocity": 80
    },
    {
      "pitch": 46,
      "start_time": 2.006,
      "duration": 0.1072,
      "velocity": 110
    },
    {
      "pitch": 54,
      "start_time": 3.0,
      "duration": 0.0633,
      "velocity": 100
    },
    {
      "pitch": 46,
      "start_time": 3.0043,
      "duration": 0.1455,
      "velocity": 70
    },
    {
      "pitch": 36,
      "start_time": 3.5,
      "duration": 0.0778,
      "velocity": 96
    },
    {
      "pitch": 36,
      "start_time": 4.0,
      "duration": 0.1145,
      "velocity": 125
    },
    {
      "pitch": 55,
      "start_time": 4.0,
      "duration": 0.0674,
      "velocity": 116
    },
    {
      "pitch": 46,
      "start_time": 4.0007,
      "duration": 0.1431,
      "velocity": 66
    },
    {
      "pitch": 37,
      "start_time": 4.5,
      "duration": 0.088,
      "velocity": 57
    },
    {
      "pitch": 42,
      "start_time": 4.5,
      "duration": 0.25,
      "velocity": 49
    },
    {
      "pitch": 54,
      "start_time": 4.5,
      "duration": 0.0699,
      "velocity": 78
    },
    {
      "pitch": 46,
      "start_time": 4.5066,
      "duration": 0.0105,
      "velocity": 19
    },
    {
      "pitch": 42,
      "start_time": 4.75,
      "duration": 0.25,
      "velocity": 13
    },
    {
      "pitch": 40,
      "start_time": 5.0,
      "duration": 1.1151,
      "velocity": 104
    },
    {
      "pitch": 42,
      "start_time": 5.0,
      "duration": 0.2474,
      "velocity": 26
    },
    {
      "pitch": 53,
      "start_time": 5.0,
      "duration": 0.0694,
      "velocity": 64
    },
    {
      "pitch": 46,
      "start_time": 5.0013,
      "duration": 0.1175,
      "velocity": 92
    },
    {
      "pitch": 36,
      "start_time": 5.0015,
      "duration": 0.1003,
      "velocity": 88
    },
    {
      "pitch": 46,
      "start_time": 5.5,
      "duration": 0.1088,
      "velocity": 86
    },
    {
      "pitch": 52,
      "start_time": 5.5,
      "duration": 0.0634,
      "velocity": 50
    },
    {
      "pitch": 36,
      "start_time": 5.5009,
      "duration": 0.0968,
      "velocity": 105
    },
    {
      "pitch": 38,
      "start_time": 6.0,
      "duration": 0.1158,
      "velocity": 127
    },
    {
      "pitch": 42,
      "start_time": 6.0,
      "duration": 0.25,
      "velocity": 56
    },
    {
      "pitch": 58,
      "start_time": 6.0,
      "duration": 0.0765,
      "velocity": 104
    },
    {
      "pitch": 37,
      "start_time": 6.0022,
      "duration": 0.11,
      "velocity": 75
    },
    {
      "pitch": 46,
      "start_time": 6.0028,
      "duration": 0.1218,
      "velocity": 110
    },
    {
      "pitch": 42,
      "start_time": 6.25,
      "duration": 0.25,
      "velocity": 13
    },
    {
      "pitch": 40,
      "start_time": 6.5,
      "duration": 0.1584,
      "velocity": 115
    },
    {
      "pitch": 42,
      "start_time": 6.5,
      "duration": 0.0621,
      "velocity": 28
    },
    {
      "pitch": 55,
      "start_time": 6.5,
      "duration": 0.0689,
      "velocity": 59
    },
    {
      "pitch": 57,
      "start_time": 6.5,
      "duration": 0.08,
      "velocity": 64
    },
    {
      "pitch": 46,
      "start_time": 6.5005,
      "duration": 0.0817,
      "velocity": 31
    },
    {
      "pitch": 42,
      "start_time": 7.0,
      "duration": 0.25,
      "velocity": 55
    },
    {
      "pitch": 56,
      "start_time": 7.0,
      "duration": 0.0668,
      "velocity": 70
    },
    {
      "pitch": 46,
      "start_time": 7.0046,
      "duration": 0.1655,
      "velocity": 101
    },
    {
      "pitch": 42,
      "start_time": 7.25,
      "duration": 0.25,
      "velocity": 34
    },
    {
      "pitch": 42,
      "start_time": 7.5,
      "duration": 0.25,
      "velocity": 38
    },
    {
      "pitch": 55,
      "start_time": 7.5,
      "duration": 0.0675,
      "velocity": 85
    },
    {
      "pitch": 42,
      "start_time": 7.75,
      "duration": 0.0121,
      "velocity": 38
    }
  ]
}