{
  "source": {
    "song": "packs",
    "track_index": 0,
    "track_name": "Beat Tools / MIDI Clips / 110 - 124 bpm / Durty Kit groove 02_110 bpm",
    "slot_index": 0,
    "clip_name": "Beat Tools / MIDI Clips / 110 - 124 bpm / Durty Kit groove 02_110 bpm",
    "mid_file": "/Users/darnold/Music/Ableton/Packs/Beat Tools/MIDI Clips/110 - 124 bpm/Durty Kit groove 02_110 bpm.alc"
  },
  "meta": {
    "bpm": 110.0,
    "key": "?",
    "scale": "?",
    "length_beats": 8.0,
    "note_count": 67
  },
  "rhythm": {
    "density": 1.281,
    "hit_positions": [
      0.0,
      0.0,
      0.0,
      0.25,
      0.5,
      0.75,
      0.75,
      0.75,
      1.0,
      1.25,
      1.5,
      1.5,
      1.75,
      1.75,
      2.0,
      2.0,
      2.0,
      2.25,
      2.5,
      2.5,
      2.5,
      2.5,
      2.75,
      3.0,
      3.0,
      3.0,
      3.125,
      3.25,
      3.25,
      3.375,
      3.5,
      3.625,
      3.75,
      3.875,
      4.0,
      4.0,
      4.0,
      4.25,
      4.5,
      4.75,
      4.75,
      5.0,
      5.25,
      5.5,
      5.5,
      5.75,
      5.75,
      6.0,
      6.0,
      6.25,
      6.25,
      6.5,
      6.5,
      6.5,
      6.625,
      6.75,
      6.75,
      6.875,
      7.0,
      7.0,
      7.1667,
      7.25,
      7.3333,
      7.5,
      7.5,
      7.6667,
      7.8333
    ],
    "ioi": [
      0.0,
      0.0,
      0.25,
      0.25,
      0.25,
      0.0,
      0.0,
      0.25,
      0.25,
      0.25,
      0.0,
      0.25,
      0.0,
      0.25,
      0.0,
      0.0,
      0.25,
      0.25,
      0.0,
      0.0,
      0.0,
      0.25,
      0.25,
      0.0,
      0.0,
      0.125,
      0.125,
      0.0,
      0.125,
      0.125,
      0.125,
      0.125,
      0.125,
      0.125,
      0.0,
      0.0,
      0.25,
      0.25,
      0.25,
      0.0,
      0.25,
      0.25,
      0.25,
      0.0,
      0.25,
      0.0,
      0.25,
      0.0,
      0.25,
      0.0,
      0.25,
      0.0,
      0.0,
      0.125,
      0.125,
      0.0,
      0.125,
      0.125,
      0.0,
      0.1667,
      0.0833,
      0.0833,
      0.1667,
      0.0,
      0.1667,
      0.1666,
      0.1667
    ],
    "grid": "16th",
    "euclidean_approx": [
      32,
      32
    ],
    "swing_ratio": 1.077
  },
  "pitch": {
    "notes_used": [
      36,
      38,
      39,
      41,
      42,
      44,
      45,
      46,
      47,
      48,
      49
    ],
    "intervals": [
      6,
      2,
      2,
      0,
      4,
      1,
      3,
      0,
      0,
      6,
      6,
      4,
      1,
      11,
      6,
      3,
      3,
      3,
      2,
      1,
      6,
      6,
      4,
      1,
      3,
      0,
      0,
      6,
      6,
      0,
      0,
      0,
      0,
      6,
      6,
      2,
      2,
      0,
      4,
      4,
      0,
      0,
      6,
      6,
      0,
      5,
      5,
      3,
      9,
      6,
      1,
      1,
      7,
      7,
      4,
      4,
      0,
      4,
      4,
      0,
      6,
      6,
      6,
      6,
      0,
      0
    ],
    "register": "low",
    "is_melodic": true,
    "pitch_range": 13,
    "pitch_distribution": {
      "36": 7,
      "42": 39,
      "44": 2,
      "38": 5,
      "39": 3,
      "46": 1,
      "47": 2,
      "45": 2,
      "41": 2,
      "48": 3,
      "49": 1
    }
  },
  "velocity": {
    "mean": 58.8,
    "variance": 902.0,
    "std": 30.0,
    "accents": [
      0,
      2,
      6,
      12,
      14,
      24,
      34,
      43,
      49,
      58,
      61,
      63
    ],
    "profile": [
      94,
      72,
      109,
      30,
      46,
      83,
      115,
      45,
      29,
      20,
      85,
      66,
      103,
      42,
      115,
      28,
      46,
      22,
      76,
      34,
      26,
      63,
      53,
      84,
      127,
      45,
      46,
      41,
      85,
      37,
      32,
      29,
      34,
      37,
      103,
      39,
      80,
      39,
      40,
      86,
      45,
      27,
      43,
      95,
      62,
      42,
      35,
      20,
      45,
      127,
      63,
      35,
      51,
      54,
      42,
      3,
      41,
      40,
      127,
      42,
      49,
      101,
      48,
      108,
      63,
      72,
      73
    ]
  },
  "notes": [
    {
      "pitch": 36,
      "start_time": 0.0,
      "duration": 0.1042,
      "velocity": 94
    },
    {
      "pitch": 42,
      "start_time": 0.0,
      "duration": 0.0312,
      "velocity": 72
    },
    {
      "pitch": 44,
      "start_time": 0.0,
      "duration": 0.0312,
      "velocity": 109
    },
    {
      "pitch": 42,
      "start_time": 0.25,
      "duration": 0.25,
      "velocity": 30
    },
    {
      "pitch": 42,
      "start_time": 0.5,
      "duration": 0.25,
      "velocity": 46
    },
    {
      "pitch": 38,
      "start_time": 0.75,
      "duration": 0.1042,
      "velocity": 83
    },
    {
      "pitch": 39,
      "start_time": 0.75,
      "duration": 0.1146,
      "velocity": 115
    },
    {
      "pitch": 42,
      "start_time": 0.75,
      "duration": 0.25,
      "velocity": 45
    },
    {
      "pitch": 42,
      "start_time": 1.0,
      "duration": 0.25,
      "velocity": 29
    },
    {
      "pitch": 42,
      "start_time": 1.25,
      "duration": 0.125,
      "velocity": 20
    },
    {
      "pitch": 36,
      "start_time": 1.5,
      "duration": 0.125,
      "velocity": 85
    },
    {
      "pitch": 42,
      "start_time": 1.5,
      "duration": 0.25,
      "velocity": 66
    },
    {
      "pitch": 46,
      "start_time": 1.75,
      "duration": 0.2188,
      "velocity": 103
    },
    {
      "pitch": 47,
      "start_time": 1.75,
      "duration": 0.0625,
      "velocity": 42
    },
    {
      "pitch": 36,
      "start_time": 2.0,
      "duration": 0.1354,
      "velocity": 115
    },
    {
      "pitch": 42,
      "start_time": 2.0,
      "duration": 0.25,
      "velocity": 28
    },
    {
      "pitch": 45,
      "start_time": 2.0,
      "duration": 0.0625,
      "velocity": 46
    },
    {
      "pitch": 42,
      "start_time": 2.25,
      "duration": 0.25,
      "velocity": 22
    },
    {
      "pitch": 39,
      "start_time": 2.5,
      "duration": 0.0521,
      "velocity": 76
    },
    {
      "pitch": 41,
      "start_time": 2.5,
      "duration": 0.0521,
      "velocity": 34
    },
    {
      "pitch": 42,
      "start_time": 2.5,
      "duration": 0.25,
      "velocity": 26
    },
    {
      "pitch": 48,
      "start_time": 2.5,
      "duration": 0.0417,
      "velocity": 63
    },
    {
      "pitch": 42,
      "start_time": 2.75,
      "duration": 0.25,
      "velocity": 53
    },
    {
      "pitch": 38,
      "start_time": 3.0,
      "duration": 0.1146,
      "velocity": 84
    },
    {
      "pitch": 39,
      "start_time": 3.0,
      "duration": 0.0938,
      "velocity": 127
    },
    {
      "pitch": 42,
      "start_time": 3.0,
      "duration": 0.125,
      "velocity": 45
    },
    {
      "pitch": 42,
      "start_time": 3.125,
      "duration": 0.125,
      "velocity": 46
    },
    {
      "pitch": 42,
      "start_time": 3.25,
      "duration": 0.125,
      "velocity": 41
    },
    {
      "pitch": 48,
      "start_time": 3.25,
      "duration": 0.0417,
      "velocity": 85
    },
    {
      "pitch": 42,
      "start_time": 3.375,
      "duration": 0.125,
      "velocity": 37
    },
    {
      "pitch": 42,
      "start_time": 3.5,
      "duration": 0.125,
      "velocity": 32
    },
    {
      "pitch": 42,
      "start_time": 3.625,
      "duration": 0.125,
      "velocity": 29
    },
    {
      "pitch": 42,
      "start_time": 3.75,
      "duration": 0.125,
      "velocity": 34
    },
    {
      "pitch": 42,
      "start_time": 3.875,
      "duration": 0.125,
      "velocity": 37
    },
    {
      "pitch": 36,
      "start_time": 4.0,
      "duration": 0.125,
      "velocity": 103
    },
    {
      "pitch": 42,
      "start_time": 4.0,
      "duration": 0.25,
      "velocity": 39
    },
    {
      "pitch": 44,
      "start_time": 4.0,
      "duration": 0.0417,
      "velocity": 80
    },
    {
      "pitch": 42,
      "start_time": 4.25,
      "duration": 0.25,
      "velocity": 39
    },
    {
      "pitch": 42,
      "start_time": 4.5,
      "duration": 0.25,
      "velocity": 40
    },
    {
      "pitch": 38,
      "start_time": 4.75,
      "duration": 0.125,
      "velocity": 86
    },
    {
      "pitch": 42,
      "start_time": 4.75,
      "duration": 0.25,
      "velocity": 45
    },
    {
      "pitch": 42,
      "start_time": 5.0,
      "duration": 0.25,
      "velocity": 27
    },
    {
      "pitch": 42,
      "start_time": 5.25,
      "duration": 0.25,
      "velocity": 43
    },
    {
      "pitch": 36,
      "start_time": 5.5,
      "duration": 0.125,
      "velocity": 95
    },
    {
      "pitch": 42,
      "start_time": 5.5,
      "duration": 0.25,
      "velocity": 62
    },
    {
      "pitch": 42,
      "start_time": 5.75,
      "duration": 0.25,
      "velocity": 42
    },
    {
      "pitch": 47,
      "start_time": 5.75,
      "duration": 0.0833,
      "velocity": 35
    },
    {
      "pitch": 42,
      "start_time": 6.0,
      "duration": 0.25,
      "velocity": 20
    },
    {
      "pitch": 45,
      "start_time": 6.0,
      "duration": 0.0729,
      "velocity": 45
    },
    {
      "pitch": 36,
      "start_time": 6.25,
      "duration": 0.125,
      "velocity": 127
    },
    {
      "pitch": 42,
      "start_time": 6.25,
      "duration": 0.25,
      "velocity": 63
    },
    {
      "pitch": 41,
      "start_time": 6.5,
      "duration": 0.0729,
      "velocity": 35
    },
    {
      "pitch": 42,
      "start_time": 6.5,
      "duration": 0.125,
      "velocity": 51
    },
    {
      "pitch": 49,
      "start_time": 6.5,
      "duration": 0.0521,
      "velocity": 54
    },
    {
      "pitch": 42,
      "start_time": 6.625,
      "duration": 0.125,
      "velocity": 42
    },
    {
      "pitch": 38,
      "start_time": 6.75,
      "duration": 0.001,
      "velocity": 3
    },
    {
      "pitch": 42,
      "start_time": 6.75,
      "duration": 0.125,
      "velocity": 41
    },
    {
      "pitch": 42,
      "start_time": 6.875,
      "duration": 0.125,
      "velocity": 40
    },
    {
      "pitch": 38,
      "start_time": 7.0,
      "duration": 0.125,
      "velocity": 127
    },
    {
      "pitch": 42,
      "start_time": 7.0,
      "duration": 0.1667,
      "velocity": 42
    },
    {
      "pitch": 42,
      "start_time": 7.1667,
      "duration": 0.1667,
      "velocity": 49
    },
    {
      "pitch": 48,
      "start_time": 7.25,
      "duration": 0.0417,
      "velocity": 101
    },
    {
      "pitch": 42,
      "start_time": 7.3333,
      "duration": 0.1667,
      "velocity": 48
    },
    {
      "pitch": 36,
      "start_time": 7.5,
      "duration": 0.0938,
      "velocity": 108
    },
    {
      "pitch": 42,
      "start_time": 7.5,
      "duration": 0.1667,
      "velocity": 63
    },
    {
      "pitch": 42,
      "start_time": 7.6667,
      "duration": 0.1667,
      "velocity": 72
    },
    {
      "pitch": 42,
      "start_time": 7.8333,
      "duration": 0.1667,
      "velocity": 73
    }
  ]
}