{
  "source": {
    "song": "packs",
    "track_index": 0,
    "track_name": "Beat Tools / MIDI Clips / 94 - 105 bpm / Rock Wit Me groove 07_96 bpm",
    "slot_index": 0,
    "clip_name": "Beat Tools / MIDI Clips / 94 - 105 bpm / Rock Wit Me groove 07_96 bpm",
    "mid_file": "/Users/darnold/Music/Ableton/Packs/Beat Tools/MIDI Clips/94 - 105 bpm/Rock Wit Me groove 07_96 bpm.alc"
  },
  "meta": {
    "bpm": 96.0,
    "key": "?",
    "scale": "?",
    "length_beats": 8.0,
    "note_count": 70
  },
  "rhythm": {
    "density": 0.656,
    "hit_positions": [
      0.0,
      0.0,
      0.0,
      0.0,
      0.0,
      0.5,
      0.5104,
      0.9896,
      0.9896,
      1.0,
      1.0,
      1.0104,
      1.0312,
      1.0312,
      1.5,
      1.5104,
      1.5104,
      1.9792,
      1.9896,
      2.0,
      2.0,
      2.0104,
      2.0208,
      2.5,
      2.9896,
      3.0,
      3.0,
      3.0,
      3.0104,
      3.0104,
      3.5,
      4.0,
      4.0,
      4.0104,
      4.0104,
      4.0104,
      4.5208,
      4.5208,
      5.0,
      5.0,
      5.0104,
      5.0104,
      5.0104,
      5.0208,
      5.0521,
      5.5,
      5.5104,
      6.0,
      6.0,
      6.0,
      6.0104,
      6.0521,
      6.2812,
      6.4896,
      6.5104,
      6.5312,
      6.7917,
      6.7917,
      6.7917,
      6.9792,
      6.9792,
      6.9792,
      7.0,
      7.0104,
      7.0208,
      7.4375,
      7.4688,
      7.4688,
      7.4896,
      7.9896
    ],
    "ioi": [
      0.0,
      0.0,
      0.0,
      0.0,
      0.5,
      0.0104,
      0.4792,
      0.0,
      0.0104,
      0.0,
      0.0104,
      0.0208,
      0.0,
      0.4688,
      0.0104,
      0.0,
      0.4688,
      0.0104,
      0.0104,
      0.0,
      0.0104,
      0.0104,
      0.4792,
      0.4896,
      0.0104,
      0.0,
      0.0,
      0.0104,
      0.0,
      0.4896,
      0.5,
      0.0,
      0.0104,
      0.0,
      0.0,
      0.5104,
      0.0,
      0.4792,
      0.0,
      0.0104,
      0.0,
      0.0,
      0.0104,
      0.0313,
      0.4479,
      0.0104,
      0.4896,
      0.0,
      0.0,
      0.0104,
      0.0417,
      0.2291,
      0.2084,
      0.0208,
      0.0208,
      0.2605,
      0.0,
      0.0,
      0.1875,
      0.0,
      0.0,
      0.0208,
      0.0104,
      0.0104,
      0.4167,
      0.0313,
      0.0,
      0.0208,
      0.5,
      0.0104
    ],
    "grid": "16th",
    "euclidean_approx": [
      32,
      32
    ],
    "swing_ratio": 1.75
  },
  "pitch": {
    "notes_used": [
      36,
      37,
      38,
      39,
      40,
      41,
      42,
      43,
      44,
      45,
      47,
      48,
      50,
      52,
      54,
      56,
      57,
      58,
      59
    ],
    "intervals": [
      6,
      2,
      4,
      4,
      10,
      17,
      9,
      4,
      16,
      4,
      1,
      4,
      13,
      16,
      6,
      21,
      5,
      4,
      12,
      6,
      14,
      19,
      5,
      3,
      7,
      3,
      1,
      8,
      4,
      12,
      6,
      4,
      16,
      6,
      2,
      2,
      17,
      9,
      4,
      16,
      3,
      1,
      16,
      13,
      12,
      15,
      0,
      6,
      4,
      16,
      22,
      0,
      16,
      16,
      15,
      7,
      4,
      7,
      9,
      1,
      3,
      1,
      17,
      13,
      6,
      11,
      4,
      4,
      14
    ],
    "register": "low",
    "is_melodic": true,
    "pitch_range": 23,
    "pitch_distribution": {
      "36": 6,
      "42": 15,
      "44": 3,
      "48": 4,
      "52": 4,
      "59": 2,
      "50": 4,
      "54": 4,
      "38": 4,
      "41": 4,
      "45": 4,
      "58": 7,
      "57": 2,
      "56": 1,
      "37": 1,
      "43": 1,
      "40": 1,
      "47": 1,
      "39": 2
    }
  },
  "velocity": {
    "mean": 81.6,
    "variance": 720.3,
    "std": 26.8,
    "accents": [
      6,
      13,
      16,
      21,
      28,
      31,
      38,
      48,
      59,
      61,
      63,
      68
    ],
    "profile": [
      101,
      51,
      103,
      108,
      84,
      42,
      127,
      105,
      86,
      87,
      72,
      44,
      91,
      127,
      47,
      79,
      110,
      71,
      91,
      80,
      53,
      112,
      28,
      51,
      72,
      105,
      69,
      95,
      112,
      94,
      52,
      123,
      98,
      98,
      75,
      62,
      49,
      77,
      113,
      89,
      92,
      70,
      92,
      104,
      100,
      70,
      63,
      76,
      109,
      91,
      97,
      66,
      75,
      51,
      75,
      22,
      69,
      33,
      3,
      127,
      101,
      126,
      70,
      109,
      95,
      58,
      67,
      54,
      110,
      103
    ]
  },
  "notes": [
    {
      "pitch": 36,
      "start_time": 0.0,
      "duration": 0.0729,
      "velocity": 101
    },
    {
      "pitch": 42,
      "start_time": 0.0,
      "duration": 0.0625,
      "velocity": 51
    },
    {
      "pitch": 44,
      "start_time": 0.0,
      "duration": 0.0312,
      "velocity": 103
    },
    {
      "pitch": 48,
      "start_time": 0.0,
      "duration": 0.0521,
      "velocity": 108
    },
    {
      "pitch": 52,
      "start_time": 0.0,
      "duration": 0.0521,
      "velocity": 84
    },
    {
      "pitch": 42,
      "start_time": 0.5,
      "duration": 0.0833,
      "velocity": 42
    },
    {
      "pitch": 59,
      "start_time": 0.5104,
      "duration": 0.0729,
      "velocity": 127
    },
    {
      "pitch": 50,
      "start_time": 0.9896,
      "duration": 0.0833,
      "velocity": 105
    },
    {
      "pitch": 54,
      "start_time": 0.9896,
      "duration": 0.0833,
      "velocity": 86
    },
    {
      "pitch": 38,
      "start_time": 1.0,
      "duration": 0.0625,
      "velocity": 87
    },
    {
      "pitch": 42,
      "start_time": 1.0,
      "duration": 0.0417,
      "velocity": 72
    },
    {
      "pitch": 41,
      "start_time": 1.0104,
      "duration": 0.0417,
      "velocity": 44
    },
    {
      "pitch": 45,
      "start_time": 1.0312,
      "duration": 0.0521,
      "velocity": 91
    },
    {
      "pitch": 58,
      "start_time": 1.0312,
      "duration": 0.0625,
      "velocity": 127
    },
    {
      "pitch": 42,
      "start_time": 1.5,
      "duration": 0.0833,
      "velocity": 47
    },
    {
      "pitch": 36,
      "start_time": 1.5104,
      "duration": 0.0521,
      "velocity": 79
    },
    {
      "pitch": 57,
      "start_time": 1.5104,
      "duration": 0.0625,
      "velocity": 110
    },
    {
      "pitch": 52,
      "start_time": 1.9792,
      "duration": 0.0833,
      "velocity": 71
    },
    {
      "pitch": 48,
      "start_time": 1.9896,
      "duration": 0.0729,
      "velocity": 91
    },
    {
      "pitch": 36,
      "start_time": 2.0,
      "duration": 0.0625,
      "velocity": 80
    },
    {
      "pitch": 42,
      "start_time": 2.0,
      "duration": 0.0625,
      "velocity": 53
    },
    {
      "pitch": 56,
      "start_time": 2.0104,
      "duration": 0.0625,
      "velocity": 112
    },
    {
      "pitch": 37,
      "start_time": 2.0208,
      "duration": 0.0521,
      "velocity": 28
    },
    {
      "pitch": 42,
      "start_time": 2.5,
      "duration": 0.0729,
      "velocity": 51
    },
    {
      "pitch": 45,
      "start_time": 2.9896,
      "duration": 0.0729,
      "velocity": 72
    },
    {
      "pitch": 38,
      "start_time": 3.0,
      "duration": 0.0521,
      "velocity": 105
    },
    {
      "pitch": 41,
      "start_time": 3.0,
      "duration": 0.0521,
      "velocity": 69
    },
    {
      "pitch": 42,
      "start_time": 3.0,
      "duration": 0.0521,
      "velocity": 95
    },
    {
      "pitch": 50,
      "start_time": 3.0104,
      "duration": 0.0729,
      "velocity": 112
    },
    {
      "pitch": 54,
      "start_time": 3.0104,
      "duration": 0.0625,
      "velocity": 94
    },
    {
      "pitch": 42,
      "start_time": 3.5,
      "duration": 0.0729,
      "velocity": 52
    },
    {
      "pitch": 48,
      "start_time": 4.0,
      "duration": 0.0729,
      "velocity": 123
    },
    {
      "pitch": 52,
      "start_time": 4.0,
      "duration": 0.0833,
      "velocity": 98
    },
    {
      "pitch": 36,
      "start_time": 4.0104,
      "duration": 0.0729,
      "velocity": 98
    },
    {
      "pitch": 42,
      "start_time": 4.0104,
      "duration": 0.0729,
      "velocity": 75
    },
    {
      "pitch": 44,
      "start_time": 4.0104,
      "duration": 0.0521,
      "velocity": 62
    },
    {
      "pitch": 42,
      "start_time": 4.5208,
      "duration": 0.0729,
      "velocity": 49
    },
    {
      "pitch": 59,
      "start_time": 4.5208,
      "duration": 0.0312,
      "velocity": 77
    },
    {
      "pitch": 50,
      "start_time": 5.0,
      "duration": 0.0938,
      "velocity": 113
    },
    {
      "pitch": 54,
      "start_time": 5.0,
      "duration": 0.1042,
      "velocity": 89
    },
    {
      "pitch": 38,
      "start_time": 5.0104,
      "duration": 0.0521,
      "velocity": 92
    },
    {
      "pitch": 41,
      "start_time": 5.0104,
      "duration": 0.0521,
      "velocity": 70
    },
    {
      "pitch": 42,
      "start_time": 5.0104,
      "duration": 0.0729,
      "velocity": 92
    },
    {
      "pitch": 58,
      "start_time": 5.0208,
      "duration": 0.0521,
      "velocity": 104
    },
    {
      "pitch": 45,
      "start_time": 5.0521,
      "duration": 0.0417,
      "velocity": 100
    },
    {
      "pitch": 57,
      "start_time": 5.5,
      "duration": 0.0417,
      "velocity": 70
    },
    {
      "pitch": 42,
      "start_time": 5.5104,
      "duration": 0.0729,
      "velocity": 63
    },
    {
      "pitch": 42,
      "start_time": 6.0,
      "duration": 0.0938,
      "velocity": 76
    },
    {
      "pitch": 48,
      "start_time": 6.0,
      "duration": 0.0833,
      "velocity": 109
    },
    {
      "pitch": 52,
      "start_time": 6.0,
      "duration": 0.0938,
      "velocity": 91
    },
    {
      "pitch": 36,
      "start_time": 6.0104,
      "duration": 0.0625,
      "velocity": 97
    },
    {
      "pitch": 58,
      "start_time": 6.0521,
      "duration": 0.0417,
      "velocity": 66
    },
    {
      "pitch": 58,
      "start_time": 6.2812,
      "duration": 0.0625,
      "velocity": 75
    },
    {
      "pitch": 42,
      "start_time": 6.4896,
      "duration": 0.0833,
      "velocity": 51
    },
    {
      "pitch": 58,
      "start_time": 6.5104,
      "duration": 0.0625,
      "velocity": 75
    },
    {
      "pitch": 43,
      "start_time": 6.5312,
      "duration": 0.0417,
      "velocity": 22
    },
    {
      "pitch": 36,
      "start_time": 6.7917,
      "duration": 0.0625,
      "velocity": 69
    },
    {
      "pitch": 40,
      "start_time": 6.7917,
      "duration": 0.0312,
      "velocity": 33
    },
    {
      "pitch": 47,
      "start_time": 6.7917,
      "duration": 0.0312,
      "velocity": 3
    },
    {
      "pitch": 38,
      "start_time": 6.9792,
      "duration": 0.0729,
      "velocity": 127
    },
    {
      "pitch": 39,
      "start_time": 6.9792,
      "duration": 0.0938,
      "velocity": 101
    },
    {
      "pitch": 42,
      "start_time": 6.9792,
      "duration": 0.0833,
      "velocity": 126
    },
    {
      "pitch": 41,
      "start_time": 7.0,
      "duration": 0.0417,
      "velocity": 70
    },
    {
      "pitch": 58,
      "start_time": 7.0104,
      "duration": 0.0729,
      "velocity": 109
    },
    {
      "pitch": 45,
      "start_time": 7.0208,
      "duration": 0.0521,
      "velocity": 95
    },
    {
      "pitch": 39,
      "start_time": 7.4375,
      "duration": 0.0833,
      "velocity": 58
    },
    {
      "pitch": 50,
      "start_time": 7.4688,
      "duration": 0.0521,
      "velocity": 67
    },
    {
      "pitch": 54,
      "start_time": 7.4688,
      "duration": 0.0521,
      "velocity": 54
    },
    {
      "pitch": 58,
      "start_time": 7.4896,
      "duration": 0.0729,
      "velocity": 110
    },
    {
      "pitch": 44,
      "start_time": 7.9896,
      "duration": 0.0104,
      "velocity": 103
    }
  ]
}