{
  "source": {
    "song": "packs",
    "track_index": 0,
    "track_name": "Beat Tools / MIDI Clips / 132 - 152 bpm / Dreams Kit groove 02_152 bpm",
    "slot_index": 0,
    "clip_name": "Beat Tools / MIDI Clips / 132 - 152 bpm / Dreams Kit groove 02_152 bpm",
    "mid_file": "/Users/darnold/Music/Ableton/Packs/Beat Tools/MIDI Clips/132 - 152 bpm/Dreams Kit groove 02_152 bpm.alc"
  },
  "meta": {
    "bpm": 140.0,
    "key": "?",
    "scale": "?",
    "length_beats": 8.0,
    "note_count": 51
  },
  "rhythm": {
    "density": 1.156,
    "hit_positions": [
      0.0,
      0.0,
      0.125,
      0.25,
      0.25,
      0.5,
      0.75,
      1.0,
      1.25,
      1.5,
      1.5,
      1.75,
      1.75,
      2.0,
      2.0,
      2.125,
      2.25,
      2.25,
      2.5,
      2.75,
      3.0,
      3.25,
      3.25,
      3.25,
      3.5,
      3.75,
      4.0,
      4.25,
      4.5,
      4.75,
      5.0,
      5.0,
      5.125,
      5.25,
      5.5,
      5.75,
      6.0,
      6.0,
      6.0,
      6.0,
      6.25,
      6.5,
      6.75,
      7.0,
      7.125,
      7.25,
      7.5,
      7.5,
      7.625,
      7.75,
      7.75
    ],
    "ioi": [
      0.0,
      0.125,
      0.125,
      0.0,
      0.25,
      0.25,
      0.25,
      0.25,
      0.25,
      0.0,
      0.25,
      0.0,
      0.25,
      0.0,
      0.125,
      0.125,
      0.0,
      0.25,
      0.25,
      0.25,
      0.25,
      0.0,
      0.0,
      0.25,
      0.25,
      0.25,
      0.25,
      0.25,
      0.25,
      0.25,
      0.0,
      0.125,
      0.125,
      0.25,
      0.25,
      0.25,
      0.0,
      0.0,
      0.0,
      0.25,
      0.25,
      0.25,
      0.25,
      0.125,
      0.125,
      0.25,
      0.0,
      0.125,
      0.125,
      0.0,
      0.25
    ],
    "grid": "16th",
    "euclidean_approx": [
      32,
      32
    ],
    "swing_ratio": 1.0
  },
  "pitch": {
    "notes_used": [
      36,
      37,
      46,
      49,
      50,
      51,
      52,
      53,
      56,
      57
    ],
    "intervals": [
      10,
      6,
      6,
      3,
      3,
      0,
      0,
      0,
      0,
      6,
      6,
      3,
      12,
      9,
      7,
      7,
      4,
      4,
      0,
      0,
      0,
      4,
      3,
      7,
      0,
      0,
      0,
      0,
      0,
      10,
      10,
      7,
      7,
      0,
      0,
      9,
      9,
      5,
      5,
      10,
      0,
      0,
      0,
      11,
      11,
      9,
      9,
      9,
      0,
      9
    ],
    "register": "low",
    "is_melodic": true,
    "pitch_range": 21,
    "pitch_distribution": {
      "36": 2,
      "46": 32,
      "52": 2,
      "49": 2,
      "37": 5,
      "53": 3,
      "50": 2,
      "51": 1,
      "56": 1,
      "57": 1
    }
  },
  "velocity": {
    "mean": 117.9,
    "variance": 37.5,
    "std": 6.1,
    "accents": [
      0,
      2,
      4,
      10,
      12,
      13,
      15,
      17,
      22,
      23,
      30,
      32,
      36,
      38,
      39,
      44
    ],
    "profile": [
      126,
      118,
      127,
      106,
      127,
      113,
      115,
      116,
      115,
      114,
      124,
      114,
      127,
      127,
      115,
      124,
      114,
      127,
      114,
      114,
      113,
      113,
      127,
      127,
      113,
      113,
      113,
      113,
      113,
      113,
      127,
      113,
      127,
      113,
      113,
      113,
      127,
      113,
      127,
      127,
      114,
      113,
      113,
      113,
      127,
      115,
      116,
      116,
      116,
      116,
      117
    ]
  },
  "notes": [
    {
      "pitch": 36,
      "start_time": 0.0,
      "duration": 0.0833,
      "velocity": 126
    },
    {
      "pitch": 46,
      "start_time": 0.0,
      "duration": 0.001,
      "velocity": 118
    },
    {
      "pitch": 52,
      "start_time": 0.125,
      "duration": 0.125,
      "velocity": 127
    },
    {
      "pitch": 46,
      "start_time": 0.25,
      "duration": 0.25,
      "velocity": 106
    },
    {
      "pitch": 49,
      "start_time": 0.25,
      "duration": 0.1042,
      "velocity": 127
    },
    {
      "pitch": 46,
      "start_time": 0.5,
      "duration": 0.25,
      "velocity": 113
    },
    {
      "pitch": 46,
      "start_time": 0.75,
      "duration": 0.25,
      "velocity": 115
    },
    {
      "pitch": 46,
      "start_time": 1.0,
      "duration": 0.25,
      "velocity": 116
    },
    {
      "pitch": 46,
      "start_time": 1.25,
      "duration": 0.25,
      "velocity": 115
    },
    {
      "pitch": 46,
      "start_time": 1.5,
      "duration": 0.25,
      "velocity": 114
    },
    {
      "pitch": 52,
      "start_time": 1.5,
      "duration": 0.125,
      "velocity": 124
    },
    {
      "pitch": 46,
      "start_time": 1.75,
      "duration": 0.25,
      "velocity": 114
    },
    {
      "pitch": 49,
      "start_time": 1.75,
      "duration": 0.1042,
      "velocity": 127
    },
    {
      "pitch": 37,
      "start_time": 2.0,
      "duration": 0.1354,
      "velocity": 127
    },
    {
      "pitch": 46,
      "start_time": 2.0,
      "duration": 0.25,
      "velocity": 115
    },
    {
      "pitch": 53,
      "start_time": 2.125,
      "duration": 0.1042,
      "velocity": 124
    },
    {
      "pitch": 46,
      "start_time": 2.25,
      "duration": 0.25,
      "velocity": 114
    },
    {
      "pitch": 50,
      "start_time": 2.25,
      "duration": 0.1146,
      "velocity": 127
    },
    {
      "pitch": 46,
      "start_time": 2.5,
      "duration": 0.25,
      "velocity": 114
    },
    {
      "pitch": 46,
      "start_time": 2.75,
      "duration": 0.25,
      "velocity": 114
    },
    {
      "pitch": 46,
      "start_time": 3.0,
      "duration": 0.25,
      "velocity": 113
    },
    {
      "pitch": 46,
      "start_time": 3.25,
      "duration": 0.25,
      "velocity": 113
    },
    {
      "pitch": 50,
      "start_time": 3.25,
      "duration": 0.0938,
      "velocity": 127
    },
    {
      "pitch": 53,
      "start_time": 3.25,
      "duration": 0.1042,
      "velocity": 127
    },
    {
      "pitch": 46,
      "start_time": 3.5,
      "duration": 0.25,
      "velocity": 113
    },
    {
      "pitch": 46,
      "start_time": 3.75,
      "duration": 0.25,
      "velocity": 113
    },
    {
      "pitch": 46,
      "start_time": 4.0,
      "duration": 0.25,
      "velocity": 113
    },
    {
      "pitch": 46,
      "start_time": 4.25,
      "duration": 0.25,
      "velocity": 113
    },
    {
      "pitch": 46,
      "start_time": 4.5,
      "duration": 0.25,
      "velocity": 113
    },
    {
      "pitch": 46,
      "start_time": 4.75,
      "duration": 0.25,
      "velocity": 113
    },
    {
      "pitch": 36,
      "start_time": 5.0,
      "duration": 0.1146,
      "velocity": 127
    },
    {
      "pitch": 46,
      "start_time": 5.0,
      "duration": 0.25,
      "velocity": 113
    },
    {
      "pitch": 53,
      "start_time": 5.125,
      "duration": 0.1458,
      "velocity": 127
    },
    {
      "pitch": 46,
      "start_time": 5.25,
      "duration": 0.25,
      "velocity": 113
    },
    {
      "pitch": 46,
      "start_time": 5.5,
      "duration": 0.25,
      "velocity": 113
    },
    {
      "pitch": 46,
      "start_time": 5.75,
      "duration": 0.25,
      "velocity": 113
    },
    {
      "pitch": 37,
      "start_time": 6.0,
      "duration": 0.1667,
      "velocity": 127
    },
    {
      "pitch": 46,
      "start_time": 6.0,
      "duration": 0.25,
      "velocity": 113
    },
    {
      "pitch": 51,
      "start_time": 6.0,
      "duration": 0.1146,
      "velocity": 127
    },
    {
      "pitch": 56,
      "start_time": 6.0,
      "duration": 0.1667,
      "velocity": 127
    },
    {
      "pitch": 46,
      "start_time": 6.25,
      "duration": 0.25,
      "velocity": 114
    },
    {
      "pitch": 46,
      "start_time": 6.5,
      "duration": 0.25,
      "velocity": 113
    },
    {
      "pitch": 46,
      "start_time": 6.75,
      "duration": 0.25,
      "velocity": 113
    },
    {
      "pitch": 46,
      "start_time": 7.0,
      "duration": 0.25,
      "velocity": 113
    },
    {
      "pitch": 57,
      "start_time": 7.125,
      "duration": 0.0938,
      "velocity": 127
    },
    {
      "pitch": 46,
      "start_time": 7.25,
      "duration": 0.25,
      "velocity": 115
    },
    {
      "pitch": 37,
      "start_time": 7.5,
      "duration": 0.125,
      "velocity": 116
    },
    {
      "pitch": 46,
      "start_time": 7.5,
      "duration": 0.25,
      "velocity": 116
    },
    {
      "pitch": 37,
      "start_time": 7.625,
      "duration": 0.125,
      "velocity": 116
    },
    {
      "pitch": 37,
      "start_time": 7.75,
      "duration": 0.25,
      "velocity": 116
    },
    {
      "pitch": 46,
      "start_time": 7.75,
      "duration": 0.25,
      "velocity": 117
    }
  ]
}