{
  "source": {
    "song": "packs",
    "track_index": 0,
    "track_name": "Beat Tools / MIDI Clips / 132 - 152 bpm / Agile Shot Kit groove 02_132 bpm",
    "slot_index": 0,
    "clip_name": "Beat Tools / MIDI Clips / 132 - 152 bpm / Agile Shot Kit groove 02_132 bpm",
    "mid_file": "/Users/darnold/Music/Ableton/Packs/Beat Tools/MIDI Clips/132 - 152 bpm/Agile Shot Kit groove 02_132 bpm.alc"
  },
  "meta": {
    "bpm": 132.0,
    "key": "?",
    "scale": "?",
    "length_beats": 16.0,
    "note_count": 73
  },
  "rhythm": {
    "density": 0.594,
    "hit_positions": [
      0.0,
      0.0,
      0.0,
      0.0,
      0.0,
      0.0,
      0.0,
      0.5,
      0.75,
      1.0,
      1.25,
      1.5,
      1.5,
      1.5,
      1.5,
      2.0,
      2.0,
      2.0,
      3.0,
      3.0,
      3.0,
      3.0,
      3.0,
      4.0,
      4.0,
      4.25,
      4.5,
      4.75,
      5.0,
      5.0,
      5.25,
      6.0,
      6.0,
      7.5,
      7.6255,
      7.75,
      8.0,
      8.0,
      8.0,
      8.0,
      8.0,
      8.0,
      8.1255,
      8.5,
      8.75,
      9.0,
      9.25,
      9.5,
      9.5,
      9.5,
      9.5,
      10.0,
      10.0,
      10.0,
      10.5,
      10.5,
      11.0,
      11.0,
      11.0,
      11.0,
      11.0,
      12.0,
      12.5,
      12.75,
      13.0,
      13.25,
      13.5,
      14.0,
      14.0,
      14.5,
      15.0,
      15.0,
      15.5
    ],
    "ioi": [
      0.0,
      0.0,
      0.0,
      0.0,
      0.0,
      0.0,
      0.5,
      0.25,
      0.25,
      0.25,
      0.25,
      0.0,
      0.0,
      0.0,
      0.5,
      0.0,
      0.0,
      1.0,
      0.0,
      0.0,
      0.0,
      0.0,
      1.0,
      0.0,
      0.25,
      0.25,
      0.25,
      0.25,
      0.0,
      0.25,
      0.75,
      0.0,
      1.5,
      0.1255,
      0.1245,
      0.25,
      0.0,
      0.0,
      0.0,
      0.0,
      0.0,
      0.1255,
      0.3745,
      0.25,
      0.25,
      0.25,
      0.25,
      0.0,
      0.0,
      0.0,
      0.5,
      0.0,
      0.0,
      0.5,
      0.0,
      0.5,
      0.0,
      0.0,
      0.0,
      0.0,
      1.0,
      0.5,
      0.25,
      0.25,
      0.25,
      0.25,
      0.5,
      0.0,
      0.5,
      0.5,
      0.0,
      0.5,
      0.5
    ],
    "grid": "16th",
    "euclidean_approx": [
      64,
      64
    ],
    "swing_ratio": 1.0
  },
  "pitch": {
    "notes_used": [
      36,
      37,
      39,
      40,
      42,
      48,
      49,
      50,
      51,
      52,
      53,
      54,
      55,
      56,
      57,
      59
    ],
    "intervals": [
      3,
      1,
      2,
      6,
      4,
      4,
      14,
      0,
      0,
      0,
      6,
      4,
      8,
      5,
      16,
      5,
      7,
      13,
      4,
      10,
      4,
      3,
      18,
      3,
      0,
      0,
      0,
      0,
      15,
      15,
      5,
      14,
      9,
      0,
      0,
      6,
      3,
      1,
      2,
      6,
      4,
      4,
      14,
      0,
      0,
      0,
      6,
      4,
      8,
      5,
      16,
      2,
      10,
      13,
      4,
      4,
      4,
      10,
      4,
      3,
      15,
      0,
      0,
      17,
      17,
      0,
      5,
      14,
      4,
      1,
      5,
      6
    ],
    "register": "low",
    "is_melodic": true,
    "pitch_range": 23,
    "pitch_distribution": {
      "36": 7,
      "39": 4,
      "40": 7,
      "42": 25,
      "48": 4,
      "52": 2,
      "56": 2,
      "53": 3,
      "37": 4,
      "49": 2,
      "50": 2,
      "54": 3,
      "57": 3,
      "51": 2,
      "59": 2,
      "55": 1
    }
  },
  "velocity": {
    "mean": 89.2,
    "variance": 197.6,
    "std": 14.1,
    "accents": [],
    "profile": [
      98,
      98,
      98,
      78,
      98,
      98,
      98,
      73,
      75,
      77,
      79,
      98,
      98,
      98,
      98,
      98,
      80,
      98,
      98,
      94,
      98,
      98,
      98,
      98,
      71,
      70,
      73,
      75,
      76,
      98,
      77,
      98,
      98,
      59,
      71,
      80,
      98,
      98,
      98,
      79,
      98,
      98,
      98,
      12,
      73,
      74,
      78,
      98,
      98,
      98,
      98,
      98,
      98,
      98,
      91,
      88,
      98,
      98,
      98,
      98,
      98,
      80,
      79,
      80,
      98,
      80,
      77,
      97,
      98,
      98,
      98,
      98,
      98
    ]
  },
  "notes": [
    {
      "pitch": 36,
      "start_time": 0.0,
      "duration": 0.1128,
      "velocity": 98
    },
    {
      "pitch": 39,
      "start_time": 0.0,
      "duration": 0.0872,
      "velocity": 98
    },
    {
      "pitch": 40,
      "start_time": 0.0,
      "duration": 0.119,
      "velocity": 98
    },
    {
      "pitch": 42,
      "start_time": 0.0,
      "duration": 0.1534,
      "velocity": 78
    },
    {
      "pitch": 48,
      "start_time": 0.0,
      "duration": 0.1022,
      "velocity": 98
    },
    {
      "pitch": 52,
      "start_time": 0.0,
      "duration": 0.0873,
      "velocity": 98
    },
    {
      "pitch": 56,
      "start_time": 0.0,
      "duration": 0.0934,
      "velocity": 98
    },
    {
      "pitch": 42,
      "start_time": 0.5,
      "duration": 0.1066,
      "velocity": 73
    },
    {
      "pitch": 42,
      "start_time": 0.75,
      "duration": 0.0912,
      "velocity": 75
    },
    {
      "pitch": 42,
      "start_time": 1.0,
      "duration": 0.1322,
      "velocity": 77
    },
    {
      "pitch": 42,
      "start_time": 1.25,
      "duration": 0.1406,
      "velocity": 79
    },
    {
      "pitch": 36,
      "start_time": 1.5,
      "duration": 0.1406,
      "velocity": 98
    },
    {
      "pitch": 40,
      "start_time": 1.5,
      "duration": 0.1512,
      "velocity": 98
    },
    {
      "pitch": 48,
      "start_time": 1.5,
      "duration": 0.1194,
      "velocity": 98
    },
    {
      "pitch": 53,
      "start_time": 1.5,
      "duration": 0.0723,
      "velocity": 98
    },
    {
      "pitch": 37,
      "start_time": 2.0,
      "duration": 0.1573,
      "velocity": 98
    },
    {
      "pitch": 42,
      "start_time": 2.0,
      "duration": 0.1406,
      "velocity": 80
    },
    {
      "pitch": 49,
      "start_time": 2.0,
      "duration": 0.13,
      "velocity": 98
    },
    {
      "pitch": 36,
      "start_time": 3.0,
      "duration": 0.1195,
      "velocity": 98
    },
    {
      "pitch": 40,
      "start_time": 3.0,
      "duration": 0.1278,
      "velocity": 94
    },
    {
      "pitch": 50,
      "start_time": 3.0,
      "duration": 0.1044,
      "velocity": 98
    },
    {
      "pitch": 54,
      "start_time": 3.0,
      "duration": 0.0745,
      "velocity": 98
    },
    {
      "pitch": 57,
      "start_time": 3.0,
      "duration": 0.1088,
      "velocity": 98
    },
    {
      "pitch": 39,
      "start_time": 4.0,
      "duration": 0.0722,
      "velocity": 98
    },
    {
      "pitch": 42,
      "start_time": 4.0,
      "duration": 0.0705,
      "velocity": 71
    },
    {
      "pitch": 42,
      "start_time": 4.25,
      "duration": 0.0895,
      "velocity": 70
    },
    {
      "pitch": 42,
      "start_time": 4.5,
      "duration": 0.1066,
      "velocity": 73
    },
    {
      "pitch": 42,
      "start_time": 4.75,
      "duration": 0.1066,
      "velocity": 75
    },
    {
      "pitch": 42,
      "start_time": 5.0,
      "duration": 0.1344,
      "velocity": 76
    },
    {
      "pitch": 57,
      "start_time": 5.0,
      "duration": 0.0961,
      "velocity": 98
    },
    {
      "pitch": 42,
      "start_time": 5.25,
      "duration": 0.1467,
      "velocity": 77
    },
    {
      "pitch": 37,
      "start_time": 6.0,
      "duration": 0.119,
      "velocity": 98
    },
    {
      "pitch": 51,
      "start_time": 6.0,
      "duration": 0.1111,
      "velocity": 98
    },
    {
      "pitch": 42,
      "start_time": 7.5,
      "duration": 0.1255,
      "velocity": 59
    },
    {
      "pitch": 42,
      "start_time": 7.6255,
      "duration": 0.1245,
      "velocity": 71
    },
    {
      "pitch": 42,
      "start_time": 7.75,
      "duration": 0.0713,
      "velocity": 80
    },
    {
      "pitch": 36,
      "start_time": 8.0,
      "duration": 0.1194,
      "velocity": 98
    },
    {
      "pitch": 39,
      "start_time": 8.0,
      "duration": 0.0917,
      "velocity": 98
    },
    {
      "pitch": 40,
      "start_time": 8.0,
      "duration": 0.1278,
      "velocity": 98
    },
    {
      "pitch": 42,
      "start_time": 8.0,
      "duration": 0.1745,
      "velocity": 79
    },
    {
      "pitch": 48,
      "start_time": 8.0,
      "duration": 0.1044,
      "velocity": 98
    },
    {
      "pitch": 52,
      "start_time": 8.0,
      "duration": 0.0511,
      "velocity": 98
    },
    {
      "pitch": 56,
      "start_time": 8.1255,
      "duration": 0.115,
      "velocity": 98
    },
    {
      "pitch": 42,
      "start_time": 8.5,
      "duration": 0.0128,
      "velocity": 12
    },
    {
      "pitch": 42,
      "start_time": 8.75,
      "duration": 0.1133,
      "velocity": 73
    },
    {
      "pitch": 42,
      "start_time": 9.0,
      "duration": 0.1344,
      "velocity": 74
    },
    {
      "pitch": 42,
      "start_time": 9.25,
      "duration": 0.134,
      "velocity": 78
    },
    {
      "pitch": 36,
      "start_time": 9.5,
      "duration": 0.1494,
      "velocity": 98
    },
    {
      "pitch": 40,
      "start_time": 9.5,
      "duration": 0.1639,
      "velocity": 98
    },
    {
      "pitch": 48,
      "start_time": 9.5,
      "duration": 0.1172,
      "velocity": 98
    },
    {
      "pitch": 53,
      "start_time": 9.5,
      "duration": 0.0555,
      "velocity": 98
    },
    {
      "pitch": 37,
      "start_time": 10.0,
      "duration": 0.1511,
      "velocity": 98
    },
    {
      "pitch": 39,
      "start_time": 10.0,
      "duration": 0.0767,
      "velocity": 98
    },
    {
      "pitch": 49,
      "start_time": 10.0,
      "duration": 0.1256,
      "velocity": 98
    },
    {
      "pitch": 36,
      "start_time": 10.5,
      "duration": 0.0767,
      "velocity": 91
    },
    {
      "pitch": 40,
      "start_time": 10.5,
      "duration": 0.0961,
      "velocity": 88
    },
    {
      "pitch": 36,
      "start_time": 11.0,
      "duration": 0.1084,
      "velocity": 98
    },
    {
      "pitch": 40,
      "start_time": 11.0,
      "duration": 0.1066,
      "velocity": 98
    },
    {
      "pitch": 50,
      "start_time": 11.0,
      "duration": 0.1084,
      "velocity": 98
    },
    {
      "pitch": 54,
      "start_time": 11.0,
      "duration": 0.0895,
      "velocity": 98
    },
    {
      "pitch": 57,
      "start_time": 11.0,
      "duration": 0.1062,
      "velocity": 98
    },
    {
      "pitch": 42,
      "start_time": 12.0,
      "duration": 0.1705,
      "velocity": 80
    },
    {
      "pitch": 42,
      "start_time": 12.5,
      "duration": 0.1278,
      "velocity": 79
    },
    {
      "pitch": 42,
      "start_time": 12.75,
      "duration": 0.1617,
      "velocity": 80
    },
    {
      "pitch": 59,
      "start_time": 13.0,
      "duration": 0.1494,
      "velocity": 98
    },
    {
      "pitch": 42,
      "start_time": 13.25,
      "duration": 0.1172,
      "velocity": 80
    },
    {
      "pitch": 42,
      "start_time": 13.5,
      "duration": 0.1194,
      "velocity": 77
    },
    {
      "pitch": 37,
      "start_time": 14.0,
      "duration": 0.0978,
      "velocity": 97
    },
    {
      "pitch": 51,
      "start_time": 14.0,
      "duration": 0.115,
      "velocity": 98
    },
    {
      "pitch": 55,
      "start_time": 14.5,
      "duration": 0.119,
      "velocity": 98
    },
    {
      "pitch": 54,
      "start_time": 15.0,
      "duration": 0.1172,
      "velocity": 98
    },
    {
      "pitch": 59,
      "start_time": 15.0,
      "duration": 0.1212,
      "velocity": 98
    },
    {
      "pitch": 53,
      "start_time": 15.5,
      "duration": 0.0895,
      "velocity": 98
    }
  ]
}