{
  "source": {
    "song": "packs",
    "track_index": 0,
    "track_name": "Beat Tools / MIDI Clips / 84 - 92 bpm / Cooked Kit groove 01_90 bpm",
    "slot_index": 0,
    "clip_name": "Beat Tools / MIDI Clips / 84 - 92 bpm / Cooked Kit groove 01_90 bpm",
    "mid_file": "/Users/darnold/Music/Ableton/Packs/Beat Tools/MIDI Clips/84 - 92 bpm/Cooked Kit groove 01_90 bpm.alc"
  },
  "meta": {
    "bpm": 90.0,
    "key": "?",
    "scale": "?",
    "length_beats": 8.0,
    "note_count": 81
  },
  "rhythm": {
    "density": 0.781,
    "hit_positions": [
      0.0,
      0.0,
      0.0,
      0.0,
      0.0,
      0.0,
      0.3229,
      0.3333,
      0.5,
      0.5,
      0.5,
      0.8229,
      0.8333,
      0.8333,
      1.0,
      1.0,
      1.0,
      1.0,
      1.5,
      1.5,
      1.5,
      1.5,
      1.5,
      1.5,
      2.0,
      2.0,
      2.0,
      2.0,
      2.0,
      2.0,
      2.3229,
      2.5,
      2.5,
      2.8229,
      3.0,
      3.0,
      3.0,
      3.0,
      3.5,
      3.5,
      3.5,
      4.0,
      4.0,
      4.0,
      4.0,
      4.0,
      4.0,
      4.3229,
      4.3333,
      4.5,
      4.5,
      4.8229,
      4.8333,
      4.8333,
      5.0,
      5.0,
      5.0,
      5.0,
      5.5,
      5.5,
      5.5,
      5.5,
      5.5,
      5.5,
      6.0,
      6.0,
      6.0,
      6.0,
      6.0,
      6.0,
      6.3229,
      6.5,
      6.5,
      6.8229,
      6.8333,
      7.0,
      7.0,
      7.0,
      7.0,
      7.3333,
      7.5
    ],
    "ioi": [
      0.0,
      0.0,
      0.0,
      0.0,
      0.0,
      0.3229,
      0.0104,
      0.1667,
      0.0,
      0.0,
      0.3229,
      0.0104,
      0.0,
      0.1667,
      0.0,
      0.0,
      0.0,
      0.5,
      0.0,
      0.0,
      0.0,
      0.0,
      0.0,
      0.5,
      0.0,
      0.0,
      0.0,
      0.0,
      0.0,
      0.3229,
      0.1771,
      0.0,
      0.3229,
      0.1771,
      0.0,
      0.0,
      0.0,
      0.5,
      0.0,
      0.0,
      0.5,
      0.0,
      0.0,
      0.0,
      0.0,
      0.0,
      0.3229,
      0.0104,
      0.1667,
      0.0,
      0.3229,
      0.0104,
      0.0,
      0.1667,
      0.0,
      0.0,
      0.0,
      0.5,
      0.0,
      0.0,
      0.0,
      0.0,
      0.0,
      0.5,
      0.0,
      0.0,
      0.0,
      0.0,
      0.0,
      0.3229,
      0.1771,
      0.0,
      0.3229,
      0.0104,
      0.1667,
      0.0,
      0.0,
      0.0,
      0.3333,
      0.1667,
      0.5
    ],
    "grid": "16th",
    "euclidean_approx": [
      32,
      32
    ],
    "swing_ratio": 1.312
  },
  "pitch": {
    "notes_used": [
      36,
      37,
      38,
      41,
      42,
      43,
      47,
      52,
      53,
      54,
      55,
      56,
      57,
      58,
      59
    ],
    "intervals": [
      5,
      1,
      1,
      4,
      5,
      5,
      5,
      0,
      5,
      9,
      9,
      11,
      17,
      16,
      1,
      4,
      5,
      11,
      6,
      1,
      4,
      7,
      3,
      21,
      6,
      1,
      4,
      8,
      3,
      11,
      5,
      5,
      0,
      10,
      1,
      4,
      5,
      5,
      5,
      10,
      21,
      6,
      1,
      4,
      5,
      7,
      12,
      5,
      0,
      5,
      0,
      11,
      17,
      16,
      1,
      4,
      5,
      11,
      6,
      1,
      4,
      7,
      4,
      22,
      6,
      1,
      4,
      8,
      1,
      9,
      5,
      5,
      0,
      11,
      1,
      1,
      4,
      5,
      11,
      11
    ],
    "register": "low",
    "is_melodic": true,
    "pitch_range": 23,
    "pitch_distribution": {
      "36": 10,
      "41": 1,
      "42": 17,
      "43": 6,
      "47": 24,
      "52": 2,
      "56": 2,
      "53": 2,
      "37": 4,
      "38": 4,
      "54": 2,
      "57": 2,
      "55": 2,
      "58": 2,
      "59": 1
    }
  },
  "velocity": {
    "mean": 57.7,
    "variance": 316.9,
    "std": 17.8,
    "accents": [
      4,
      5,
      14,
      21,
      27,
      34,
      37,
      45,
      54,
      57,
      61,
      64,
      75,
      79,
      80
    ],
    "profile": [
      41,
      39,
      42,
      62,
      85,
      87,
      49,
      46,
      39,
      46,
      61,
      43,
      46,
      57,
      76,
      61,
      55,
      45,
      45,
      43,
      52,
      103,
      66,
      44,
      50,
      52,
      40,
      101,
      48,
      26,
      50,
      28,
      49,
      44,
      82,
      49,
      64,
      78,
      42,
      40,
      51,
      47,
      43,
      56,
      66,
      99,
      75,
      60,
      46,
      52,
      60,
      34,
      42,
      67,
      93,
      56,
      69,
      82,
      47,
      44,
      53,
      83,
      64,
      66,
      76,
      61,
      47,
      64,
      64,
      50,
      51,
      40,
      54,
      51,
      31,
      81,
      55,
      60,
      54,
      94,
      107
    ]
  },
  "notes": [
    {
      "pitch": 36,
      "start_time": 0.0,
      "duration": 0.0729,
      "velocity": 41
    },
    {
      "pitch": 41,
      "start_time": 0.0,
      "duration": 2.5,
      "velocity": 39
    },
    {
      "pitch": 42,
      "start_time": 0.0,
      "duration": 0.0625,
      "velocity": 42
    },
    {
      "pitch": 43,
      "start_time": 0.0,
      "duration": 0.0417,
      "velocity": 62
    },
    {
      "pitch": 47,
      "start_time": 0.0,
      "duration": 0.3229,
      "velocity": 85
    },
    {
      "pitch": 52,
      "start_time": 0.0,
      "duration": 0.7188,
      "velocity": 87
    },
    {
      "pitch": 47,
      "start_time": 0.3229,
      "duration": 0.1771,
      "velocity": 49
    },
    {
      "pitch": 42,
      "start_time": 0.3333,
      "duration": 0.0417,
      "velocity": 46
    },
    {
      "pitch": 42,
      "start_time": 0.5,
      "duration": 0.0729,
      "velocity": 39
    },
    {
      "pitch": 47,
      "start_time": 0.5,
      "duration": 0.3229,
      "velocity": 46
    },
    {
      "pitch": 56,
      "start_time": 0.5,
      "duration": 0.5312,
      "velocity": 61
    },
    {
      "pitch": 47,
      "start_time": 0.8229,
      "duration": 0.1771,
      "velocity": 43
    },
    {
      "pitch": 36,
      "start_time": 0.8333,
      "duration": 0.0729,
      "velocity": 46
    },
    {
      "pitch": 53,
      "start_time": 0.8333,
      "duration": 0.6042,
      "velocity": 57
    },
    {
      "pitch": 37,
      "start_time": 1.0,
      "duration": 0.0729,
      "velocity": 76
    },
    {
      "pitch": 38,
      "start_time": 1.0,
      "duration": 0.0833,
      "velocity": 61
    },
    {
      "pitch": 42,
      "start_time": 1.0,
      "duration": 0.0833,
      "velocity": 55
    },
    {
      "pitch": 47,
      "start_time": 1.0,
      "duration": 0.3021,
      "velocity": 45
    },
    {
      "pitch": 36,
      "start_time": 1.5,
      "duration": 0.0625,
      "velocity": 45
    },
    {
      "pitch": 42,
      "start_time": 1.5,
      "duration": 0.0521,
      "velocity": 43
    },
    {
      "pitch": 43,
      "start_time": 1.5,
      "duration": 0.0417,
      "velocity": 52
    },
    {
      "pitch": 47,
      "start_time": 1.5,
      "duration": 0.0833,
      "velocity": 103
    },
    {
      "pitch": 54,
      "start_time": 1.5,
      "duration": 0.3438,
      "velocity": 66
    },
    {
      "pitch": 57,
      "start_time": 1.5,
      "duration": 0.2188,
      "velocity": 44
    },
    {
      "pitch": 36,
      "start_time": 2.0,
      "duration": 0.0833,
      "velocity": 50
    },
    {
      "pitch": 42,
      "start_time": 2.0,
      "duration": 0.0729,
      "velocity": 52
    },
    {
      "pitch": 43,
      "start_time": 2.0,
      "duration": 0.0625,
      "velocity": 40
    },
    {
      "pitch": 47,
      "start_time": 2.0,
      "duration": 0.3229,
      "velocity": 101
    },
    {
      "pitch": 55,
      "start_time": 2.0,
      "duration": 1.7604,
      "velocity": 48
    },
    {
      "pitch": 58,
      "start_time": 2.0,
      "duration": 1.3958,
      "velocity": 26
    },
    {
      "pitch": 47,
      "start_time": 2.3229,
      "duration": 0.1771,
      "velocity": 50
    },
    {
      "pitch": 42,
      "start_time": 2.5,
      "duration": 0.0729,
      "velocity": 28
    },
    {
      "pitch": 47,
      "start_time": 2.5,
      "duration": 0.3229,
      "velocity": 49
    },
    {
      "pitch": 47,
      "start_time": 2.8229,
      "duration": 0.0417,
      "velocity": 44
    },
    {
      "pitch": 37,
      "start_time": 3.0,
      "duration": 0.0729,
      "velocity": 82
    },
    {
      "pitch": 38,
      "start_time": 3.0,
      "duration": 0.0938,
      "velocity": 49
    },
    {
      "pitch": 42,
      "start_time": 3.0,
      "duration": 0.0729,
      "velocity": 64
    },
    {
      "pitch": 47,
      "start_time": 3.0,
      "duration": 0.0833,
      "velocity": 78
    },
    {
      "pitch": 42,
      "start_time": 3.5,
      "duration": 0.0729,
      "velocity": 42
    },
    {
      "pitch": 47,
      "start_time": 3.5,
      "duration": 0.0833,
      "velocity": 40
    },
    {
      "pitch": 57,
      "start_time": 3.5,
      "duration": 0.1562,
      "velocity": 51
    },
    {
      "pitch": 36,
      "start_time": 4.0,
      "duration": 0.0729,
      "velocity": 47
    },
    {
      "pitch": 42,
      "start_time": 4.0,
      "duration": 0.0521,
      "velocity": 43
    },
    {
      "pitch": 43,
      "start_time": 4.0,
      "duration": 0.0417,
      "velocity": 56
    },
    {
      "pitch": 47,
      "start_time": 4.0,
      "duration": 0.3229,
      "velocity": 66
    },
    {
      "pitch": 52,
      "start_time": 4.0,
      "duration": 0.6875,
      "velocity": 99
    },
    {
      "pitch": 59,
      "start_time": 4.0,
      "duration": 1.2083,
      "velocity": 75
    },
    {
      "pitch": 47,
      "start_time": 4.3229,
      "duration": 0.1771,
      "velocity": 60
    },
    {
      "pitch": 42,
      "start_time": 4.3333,
      "duration": 0.0521,
      "velocity": 46
    },
    {
      "pitch": 42,
      "start_time": 4.5,
      "duration": 0.0833,
      "velocity": 52
    },
    {
      "pitch": 47,
      "start_time": 4.5,
      "duration": 0.3229,
      "velocity": 60
    },
    {
      "pitch": 47,
      "start_time": 4.8229,
      "duration": 0.001,
      "velocity": 34
    },
    {
      "pitch": 36,
      "start_time": 4.8333,
      "duration": 0.1042,
      "velocity": 42
    },
    {
      "pitch": 53,
      "start_time": 4.8333,
      "duration": 0.6458,
      "velocity": 67
    },
    {
      "pitch": 37,
      "start_time": 5.0,
      "duration": 0.0729,
      "velocity": 93
    },
    {
      "pitch": 38,
      "start_time": 5.0,
      "duration": 0.0521,
      "velocity": 56
    },
    {
      "pitch": 42,
      "start_time": 5.0,
      "duration": 0.0729,
      "velocity": 69
    },
    {
      "pitch": 47,
      "start_time": 5.0,
      "duration": 0.0833,
      "velocity": 82
    },
    {
      "pitch": 36,
      "start_time": 5.5,
      "duration": 0.0625,
      "velocity": 47
    },
    {
      "pitch": 42,
      "start_time": 5.5,
      "duration": 0.0729,
      "velocity": 44
    },
    {
      "pitch": 43,
      "start_time": 5.5,
      "duration": 0.0521,
      "velocity": 53
    },
    {
      "pitch": 47,
      "start_time": 5.5,
      "duration": 0.0833,
      "velocity": 83
    },
    {
      "pitch": 54,
      "start_time": 5.5,
      "duration": 0.3438,
      "velocity": 64
    },
    {
      "pitch": 58,
      "start_time": 5.5,
      "duration": 0.2604,
      "velocity": 66
    },
    {
      "pitch": 36,
      "start_time": 6.0,
      "duration": 0.0833,
      "velocity": 76
    },
    {
      "pitch": 42,
      "start_time": 6.0,
      "duration": 0.0833,
      "velocity": 61
    },
    {
      "pitch": 43,
      "start_time": 6.0,
      "duration": 0.0729,
      "velocity": 47
    },
    {
      "pitch": 47,
      "start_time": 6.0,
      "duration": 0.3229,
      "velocity": 64
    },
    {
      "pitch": 55,
      "start_time": 6.0,
      "duration": 1.8333,
      "velocity": 64
    },
    {
      "pitch": 56,
      "start_time": 6.0,
      "duration": 1.6042,
      "velocity": 50
    },
    {
      "pitch": 47,
      "start_time": 6.3229,
      "duration": 0.1771,
      "velocity": 51
    },
    {
      "pitch": 42,
      "start_time": 6.5,
      "duration": 0.0729,
      "velocity": 40
    },
    {
      "pitch": 47,
      "start_time": 6.5,
      "duration": 0.3229,
      "velocity": 54
    },
    {
      "pitch": 47,
      "start_time": 6.8229,
      "duration": 0.1771,
      "velocity": 51
    },
    {
      "pitch": 36,
      "start_time": 6.8333,
      "duration": 0.0625,
      "velocity": 31
    },
    {
      "pitch": 37,
      "start_time": 7.0,
      "duration": 0.0833,
      "velocity": 81
    },
    {
      "pitch": 38,
      "start_time": 7.0,
      "duration": 0.0625,
      "velocity": 55
    },
    {
      "pitch": 42,
      "start_time": 7.0,
      "duration": 0.0938,
      "velocity": 60
    },
    {
      "pitch": 47,
      "start_time": 7.0,
      "duration": 0.125,
      "velocity": 54
    },
    {
      "pitch": 36,
      "start_time": 7.3333,
      "duration": 0.1042,
      "velocity": 94
    },
    {
      "pitch": 47,
      "start_time": 7.5,
      "duration": 0.0625,
      "velocity": 107
    }
  ]
}