{
  "source": {
    "song": "packs",
    "track_index": 0,
    "track_name": "Beat Tools / MIDI Clips / 94 - 105 bpm / Digi Kit groove 02_94 bpm",
    "slot_index": 0,
    "clip_name": "Beat Tools / MIDI Clips / 94 - 105 bpm / Digi Kit groove 02_94 bpm",
    "mid_file": "/Users/darnold/Music/Ableton/Packs/Beat Tools/MIDI Clips/94 - 105 bpm/Digi Kit groove 02_94 bpm.alc"
  },
  "meta": {
    "bpm": 94.0,
    "key": "?",
    "scale": "?",
    "length_beats": 8.0,
    "note_count": 68
  },
  "rhythm": {
    "density": 1.188,
    "hit_positions": [
      0.0,
      0.0,
      0.0,
      0.0,
      0.25,
      0.5,
      0.75,
      0.75,
      0.75,
      1.0,
      1.0,
      1.0,
      1.25,
      1.5,
      1.5,
      1.5,
      1.75,
      2.0,
      2.25,
      2.5,
      2.5,
      2.75,
      3.0,
      3.0,
      3.0,
      3.125,
      3.25,
      3.5,
      3.5,
      3.625,
      3.75,
      3.875,
      4.0,
      4.0,
      4.0,
      4.0,
      4.0,
      4.25,
      4.25,
      4.5,
      4.5,
      4.75,
      4.75,
      4.75,
      5.0,
      5.0,
      5.25,
      5.5,
      5.5,
      5.75,
      6.0,
      6.25,
      6.5,
      6.5,
      6.5,
      6.75,
      7.0,
      7.0,
      7.0,
      7.125,
      7.25,
      7.25,
      7.5,
      7.5,
      7.5,
      7.625,
      7.75,
      7.875
    ],
    "ioi": [
      0.0,
      0.0,
      0.0,
      0.25,
      0.25,
      0.25,
      0.0,
      0.0,
      0.25,
      0.0,
      0.0,
      0.25,
      0.25,
      0.0,
      0.0,
      0.25,
      0.25,
      0.25,
      0.25,
      0.0,
      0.25,
      0.25,
      0.0,
      0.0,
      0.125,
      0.125,
      0.25,
      0.0,
      0.125,
      0.125,
      0.125,
      0.125,
      0.0,
      0.0,
      0.0,
      0.0,
      0.25,
      0.0,
      0.25,
      0.0,
      0.25,
      0.0,
      0.0,
      0.25,
      0.0,
      0.25,
      0.25,
      0.0,
      0.25,
      0.25,
      0.25,
      0.25,
      0.0,
      0.0,
      0.25,
      0.25,
      0.0,
      0.0,
      0.125,
      0.125,
      0.0,
      0.25,
      0.0,
      0.0,
      0.125,
      0.125,
      0.125,
      0.125
    ],
    "grid": "16th",
    "euclidean_approx": [
      32,
      32
    ],
    "swing_ratio": 1.042
  },
  "pitch": {
    "notes_used": [
      36,
      37,
      38,
      42,
      45,
      47,
      49,
      50,
      52,
      53,
      54,
      55,
      56,
      57,
      58
    ],
    "intervals": [
      6,
      3,
      11,
      14,
      0,
      6,
      6,
      7,
      12,
      1,
      4,
      0,
      6,
      6,
      8,
      8,
      0,
      0,
      6,
      6,
      0,
      4,
      4,
      16,
      16,
      0,
      0,
      11,
      11,
      0,
      0,
      6,
      6,
      5,
      7,
      2,
      14,
      5,
      5,
      5,
      11,
      6,
      12,
      16,
      4,
      0,
      6,
      6,
      0,
      0,
      0,
      6,
      6,
      10,
      10,
      4,
      4,
      13,
      13,
      6,
      6,
      0,
      10,
      5,
      15,
      0,
      0
    ],
    "register": "low",
    "is_melodic": true,
    "pitch_range": 22,
    "pitch_distribution": {
      "36": 9,
      "42": 38,
      "45": 1,
      "56": 2,
      "49": 1,
      "37": 1,
      "38": 4,
      "50": 1,
      "58": 1,
      "53": 1,
      "47": 3,
      "54": 2,
      "52": 2,
      "55": 1,
      "57": 1
    }
  },
  "velocity": {
    "mean": 74.2,
    "variance": 712.9,
    "std": 26.7,
    "accents": [
      1,
      20,
      23,
      25,
      45,
      48,
      51,
      53,
      57,
      65,
      66
    ],
    "profile": [
      82,
      109,
      52,
      97,
      59,
      55,
      82,
      55,
      34,
      68,
      74,
      57,
      59,
      51,
      62,
      69,
      54,
      47,
      77,
      78,
      127,
      87,
      63,
      127,
      77,
      127,
      56,
      85,
      63,
      59,
      41,
      41,
      76,
      80,
      18,
      77,
      95,
      38,
      49,
      96,
      61,
      48,
      66,
      78,
      67,
      127,
      76,
      66,
      127,
      97,
      44,
      114,
      78,
      127,
      88,
      79,
      61,
      119,
      73,
      88,
      65,
      50,
      3,
      71,
      63,
      106,
      102,
      100
    ]
  },
  "notes": [
    {
      "pitch": 36,
      "start_time": 0.0,
      "duration": 0.001,
      "velocity": 82
    },
    {
      "pitch": 42,
      "start_time": 0.0,
      "duration": 0.25,
      "velocity": 109
    },
    {
      "pitch": 45,
      "start_time": 0.0,
      "duration": 1.0312,
      "velocity": 52
    },
    {
      "pitch": 56,
      "start_time": 0.0,
      "duration": 0.0312,
      "velocity": 97
    },
    {
      "pitch": 42,
      "start_time": 0.25,
      "duration": 0.25,
      "velocity": 59
    },
    {
      "pitch": 42,
      "start_time": 0.5,
      "duration": 0.25,
      "velocity": 55
    },
    {
      "pitch": 36,
      "start_time": 0.75,
      "duration": 0.0625,
      "velocity": 82
    },
    {
      "pitch": 42,
      "start_time": 0.75,
      "duration": 0.25,
      "velocity": 55
    },
    {
      "pitch": 49,
      "start_time": 0.75,
      "duration": 0.0417,
      "velocity": 34
    },
    {
      "pitch": 37,
      "start_time": 1.0,
      "duration": 0.0833,
      "velocity": 68
    },
    {
      "pitch": 38,
      "start_time": 1.0,
      "duration": 0.0938,
      "velocity": 74
    },
    {
      "pitch": 42,
      "start_time": 1.0,
      "duration": 0.25,
      "velocity": 57
    },
    {
      "pitch": 42,
      "start_time": 1.25,
      "duration": 0.25,
      "velocity": 59
    },
    {
      "pitch": 36,
      "start_time": 1.5,
      "duration": 0.0938,
      "velocity": 51
    },
    {
      "pitch": 42,
      "start_time": 1.5,
      "duration": 0.25,
      "velocity": 62
    },
    {
      "pitch": 50,
      "start_time": 1.5,
      "duration": 0.0521,
      "velocity": 69
    },
    {
      "pitch": 42,
      "start_time": 1.75,
      "duration": 0.25,
      "velocity": 54
    },
    {
      "pitch": 42,
      "start_time": 2.0,
      "duration": 0.25,
      "velocity": 47
    },
    {
      "pitch": 42,
      "start_time": 2.25,
      "duration": 0.1771,
      "velocity": 77
    },
    {
      "pitch": 36,
      "start_time": 2.5,
      "duration": 0.0938,
      "velocity": 78
    },
    {
      "pitch": 42,
      "start_time": 2.5,
      "duration": 0.25,
      "velocity": 127
    },
    {
      "pitch": 42,
      "start_time": 2.75,
      "duration": 0.1562,
      "velocity": 87
    },
    {
      "pitch": 38,
      "start_time": 3.0,
      "duration": 0.0625,
      "velocity": 63
    },
    {
      "pitch": 42,
      "start_time": 3.0,
      "duration": 0.125,
      "velocity": 127
    },
    {
      "pitch": 58,
      "start_time": 3.0,
      "duration": 0.0312,
      "velocity": 77
    },
    {
      "pitch": 42,
      "start_time": 3.125,
      "duration": 0.125,
      "velocity": 127
    },
    {
      "pitch": 42,
      "start_time": 3.25,
      "duration": 0.0104,
      "velocity": 56
    },
    {
      "pitch": 42,
      "start_time": 3.5,
      "duration": 0.125,
      "velocity": 85
    },
    {
      "pitch": 53,
      "start_time": 3.5,
      "duration": 0.0833,
      "velocity": 63
    },
    {
      "pitch": 42,
      "start_time": 3.625,
      "duration": 0.125,
      "velocity": 59
    },
    {
      "pitch": 42,
      "start_time": 3.75,
      "duration": 0.125,
      "velocity": 41
    },
    {
      "pitch": 42,
      "start_time": 3.875,
      "duration": 0.0312,
      "velocity": 41
    },
    {
      "pitch": 36,
      "start_time": 4.0,
      "duration": 0.0833,
      "velocity": 76
    },
    {
      "pitch": 42,
      "start_time": 4.0,
      "duration": 0.25,
      "velocity": 80
    },
    {
      "pitch": 47,
      "start_time": 4.0,
      "duration": 0.0312,
      "velocity": 18
    },
    {
      "pitch": 54,
      "start_time": 4.0,
      "duration": 0.0625,
      "velocity": 77
    },
    {
      "pitch": 56,
      "start_time": 4.0,
      "duration": 0.0312,
      "velocity": 95
    },
    {
      "pitch": 42,
      "start_time": 4.25,
      "duration": 0.0833,
      "velocity": 38
    },
    {
      "pitch": 47,
      "start_time": 4.25,
      "duration": 0.0625,
      "velocity": 49
    },
    {
      "pitch": 42,
      "start_time": 4.5,
      "duration": 0.25,
      "velocity": 96
    },
    {
      "pitch": 47,
      "start_time": 4.5,
      "duration": 0.0521,
      "velocity": 61
    },
    {
      "pitch": 36,
      "start_time": 4.75,
      "duration": 0.0521,
      "velocity": 48
    },
    {
      "pitch": 42,
      "start_time": 4.75,
      "duration": 0.0833,
      "velocity": 66
    },
    {
      "pitch": 54,
      "start_time": 4.75,
      "duration": 0.0729,
      "velocity": 78
    },
    {
      "pitch": 38,
      "start_time": 5.0,
      "duration": 0.0833,
      "velocity": 67
    },
    {
      "pitch": 42,
      "start_time": 5.0,
      "duration": 0.25,
      "velocity": 127
    },
    {
      "pitch": 42,
      "start_time": 5.25,
      "duration": 0.1042,
      "velocity": 76
    },
    {
      "pitch": 36,
      "start_time": 5.5,
      "duration": 0.0833,
      "velocity": 66
    },
    {
      "pitch": 42,
      "start_time": 5.5,
      "duration": 0.25,
      "velocity": 127
    },
    {
      "pitch": 42,
      "start_time": 5.75,
      "duration": 0.25,
      "velocity": 97
    },
    {
      "pitch": 42,
      "start_time": 6.0,
      "duration": 0.25,
      "velocity": 44
    },
    {
      "pitch": 42,
      "start_time": 6.25,
      "duration": 0.1667,
      "velocity": 114
    },
    {
      "pitch": 36,
      "start_time": 6.5,
      "duration": 0.0833,
      "velocity": 78
    },
    {
      "pitch": 42,
      "start_time": 6.5,
      "duration": 0.25,
      "velocity": 127
    },
    {
      "pitch": 52,
      "start_time": 6.5,
      "duration": 0.0417,
      "velocity": 88
    },
    {
      "pitch": 42,
      "start_time": 6.75,
      "duration": 0.1562,
      "velocity": 79
    },
    {
      "pitch": 38,
      "start_time": 7.0,
      "duration": 0.0417,
      "velocity": 61
    },
    {
      "pitch": 42,
      "start_time": 7.0,
      "duration": 0.125,
      "velocity": 119
    },
    {
      "pitch": 55,
      "start_time": 7.0,
      "duration": 0.0312,
      "velocity": 73
    },
    {
      "pitch": 42,
      "start_time": 7.125,
      "duration": 0.125,
      "velocity": 88
    },
    {
      "pitch": 36,
      "start_time": 7.25,
      "duration": 0.0729,
      "velocity": 65
    },
    {
      "pitch": 42,
      "start_time": 7.25,
      "duration": 0.0312,
      "velocity": 50
    },
    {
      "pitch": 42,
      "start_time": 7.5,
      "duration": 0.125,
      "velocity": 3
    },
    {
      "pitch": 52,
      "start_time": 7.5,
      "duration": 0.0417,
      "velocity": 71
    },
    {
      "pitch": 57,
      "start_time": 7.5,
      "duration": 0.0312,
      "velocity": 63
    },
    {
      "pitch": 42,
      "start_time": 7.625,
      "duration": 0.125,
      "velocity": 106
    },
    {
      "pitch": 42,
      "start_time": 7.75,
      "duration": 0.125,
      "velocity": 102
    },
    {
      "pitch": 42,
      "start_time": 7.875,
      "duration": 0.0208,
      "velocity": 100
    }
  ]
}