{
  "source": {
    "song": "packs",
    "track_index": 0,
    "track_name": "Beat Tools / MIDI Clips / 59 - 80 bpm / Takeover Kit groove 03_69 bpm",
    "slot_index": 0,
    "clip_name": "Beat Tools / MIDI Clips / 59 - 80 bpm / Takeover Kit groove 03_69 bpm",
    "mid_file": "/Users/darnold/Music/Ableton/Packs/Beat Tools/MIDI Clips/59 - 80 bpm/Takeover Kit groove 03_69 bpm.alc"
  },
  "meta": {
    "bpm": 69.0,
    "key": "?",
    "scale": "?",
    "length_beats": 4.0,
    "note_count": 55
  },
  "rhythm": {
    "density": 2.0,
    "hit_positions": [
      0.0,
      0.0,
      0.0,
      0.0,
      0.0,
      0.125,
      0.25,
      0.375,
      0.5,
      0.5,
      0.5,
      0.5,
      0.625,
      0.75,
      0.75,
      0.875,
      1.0,
      1.0,
      1.125,
      1.25,
      1.375,
      1.5,
      1.5,
      1.5,
      1.625,
      1.75,
      1.75,
      1.75,
      1.875,
      2.0,
      2.0,
      2.0,
      2.0,
      2.125,
      2.25,
      2.375,
      2.5,
      2.5,
      2.5,
      2.5,
      2.625,
      2.75,
      2.875,
      3.0,
      3.0,
      3.125,
      3.25,
      3.25,
      3.375,
      3.5,
      3.5,
      3.5,
      3.625,
      3.75,
      3.875
    ],
    "ioi": [
      0.0,
      0.0,
      0.0,
      0.0,
      0.125,
      0.125,
      0.125,
      0.125,
      0.0,
      0.0,
      0.0,
      0.125,
      0.125,
      0.0,
      0.125,
      0.125,
      0.0,
      0.125,
      0.125,
      0.125,
      0.125,
      0.0,
      0.0,
      0.125,
      0.125,
      0.0,
      0.0,
      0.125,
      0.125,
      0.0,
      0.0,
      0.0,
      0.125,
      0.125,
      0.125,
      0.125,
      0.0,
      0.0,
      0.0,
      0.125,
      0.125,
      0.125,
      0.125,
      0.0,
      0.125,
      0.125,
      0.0,
      0.125,
      0.125,
      0.0,
      0.0,
      0.125,
      0.125,
      0.125,
      0.125
    ],
    "grid": "16th",
    "euclidean_approx": [
      16,
      16
    ],
    "swing_ratio": 1.2
  },
  "pitch": {
    "notes_used": [
      36,
      37,
      38,
      40,
      41,
      42,
      44,
      46,
      47,
      48,
      51
    ],
    "intervals": [
      6,
      2,
      2,
      2,
      6,
      0,
      0,
      1,
      1,
      5,
      1,
      7,
      1,
      1,
      0,
      4,
      5,
      0,
      0,
      0,
      1,
      1,
      6,
      7,
      5,
      5,
      1,
      1,
      5,
      6,
      2,
      4,
      6,
      0,
      0,
      1,
      1,
      5,
      1,
      7,
      0,
      0,
      3,
      4,
      0,
      6,
      6,
      0,
      1,
      5,
      5,
      10,
      0,
      0
    ],
    "register": "low",
    "is_melodic": true,
    "pitch_range": 15,
    "pitch_distribution": {
      "36": 4,
      "42": 20,
      "44": 2,
      "46": 2,
      "48": 5,
      "41": 16,
      "47": 2,
      "40": 1,
      "37": 1,
      "38": 1,
      "51": 1
    }
  },
  "velocity": {
    "mean": 52.6,
    "variance": 343.2,
    "std": 18.5,
    "accents": [
      2,
      3,
      13,
      16,
      23,
      29,
      32,
      43,
      50
    ],
    "profile": [
      64,
      66,
      75,
      89,
      33,
      10,
      36,
      37,
      36,
      36,
      50,
      67,
      36,
      80,
      62,
      56,
      90,
      35,
      30,
      38,
      38,
      58,
      41,
      84,
      38,
      36,
      63,
      20,
      60,
      84,
      53,
      61,
      80,
      33,
      40,
      44,
      39,
      67,
      61,
      71,
      37,
      56,
      54,
      83,
      49,
      49,
      59,
      35,
      38,
      55,
      84,
      38,
      36,
      60,
      62
    ]
  },
  "notes": [
    {
      "pitch": 36,
      "start_time": 0.0,
      "duration": 0.0512,
      "velocity": 64
    },
    {
      "pitch": 42,
      "start_time": 0.0,
      "duration": 0.125,
      "velocity": 66
    },
    {
      "pitch": 44,
      "start_time": 0.0,
      "duration": 1.0342,
      "velocity": 75
    },
    {
      "pitch": 46,
      "start_time": 0.0,
      "duration": 0.0508,
      "velocity": 89
    },
    {
      "pitch": 48,
      "start_time": 0.0,
      "duration": 0.1259,
      "velocity": 33
    },
    {
      "pitch": 42,
      "start_time": 0.125,
      "duration": 0.125,
      "velocity": 10
    },
    {
      "pitch": 42,
      "start_time": 0.25,
      "duration": 0.125,
      "velocity": 36
    },
    {
      "pitch": 42,
      "start_time": 0.375,
      "duration": 0.1229,
      "velocity": 37
    },
    {
      "pitch": 41,
      "start_time": 0.5,
      "duration": 0.125,
      "velocity": 36
    },
    {
      "pitch": 42,
      "start_time": 0.5,
      "duration": 0.0595,
      "velocity": 36
    },
    {
      "pitch": 47,
      "start_time": 0.5,
      "duration": 0.1577,
      "velocity": 50
    },
    {
      "pitch": 48,
      "start_time": 0.5,
      "duration": 0.7271,
      "velocity": 67
    },
    {
      "pitch": 41,
      "start_time": 0.625,
      "duration": 0.125,
      "velocity": 36
    },
    {
      "pitch": 40,
      "start_time": 0.75,
      "duration": 0.06,
      "velocity": 80
    },
    {
      "pitch": 41,
      "start_time": 0.75,
      "duration": 0.125,
      "velocity": 62
    },
    {
      "pitch": 41,
      "start_time": 0.875,
      "duration": 0.0512,
      "velocity": 56
    },
    {
      "pitch": 37,
      "start_time": 1.0,
      "duration": 0.0582,
      "velocity": 90
    },
    {
      "pitch": 42,
      "start_time": 1.0,
      "duration": 0.125,
      "velocity": 35
    },
    {
      "pitch": 42,
      "start_time": 1.125,
      "duration": 0.125,
      "velocity": 30
    },
    {
      "pitch": 42,
      "start_time": 1.25,
      "duration": 0.125,
      "velocity": 38
    },
    {
      "pitch": 42,
      "start_time": 1.375,
      "duration": 0.0966,
      "velocity": 38
    },
    {
      "pitch": 41,
      "start_time": 1.5,
      "duration": 0.125,
      "velocity": 58
    },
    {
      "pitch": 42,
      "start_time": 1.5,
      "duration": 0.0683,
      "velocity": 41
    },
    {
      "pitch": 48,
      "start_time": 1.5,
      "duration": 0.0384,
      "velocity": 84
    },
    {
      "pitch": 41,
      "start_time": 1.625,
      "duration": 0.125,
      "velocity": 38
    },
    {
      "pitch": 36,
      "start_time": 1.75,
      "duration": 0.0368,
      "velocity": 36
    },
    {
      "pitch": 41,
      "start_time": 1.75,
      "duration": 0.125,
      "velocity": 63
    },
    {
      "pitch": 42,
      "start_time": 1.75,
      "duration": 0.0268,
      "velocity": 20
    },
    {
      "pitch": 41,
      "start_time": 1.875,
      "duration": 0.0686,
      "velocity": 60
    },
    {
      "pitch": 36,
      "start_time": 2.0,
      "duration": 0.0586,
      "velocity": 84
    },
    {
      "pitch": 42,
      "start_time": 2.0,
      "duration": 0.125,
      "velocity": 53
    },
    {
      "pitch": 44,
      "start_time": 2.0,
      "duration": 0.9966,
      "velocity": 61
    },
    {
      "pitch": 48,
      "start_time": 2.0,
      "duration": 0.1672,
      "velocity": 80
    },
    {
      "pitch": 42,
      "start_time": 2.125,
      "duration": 0.125,
      "velocity": 33
    },
    {
      "pitch": 42,
      "start_time": 2.25,
      "duration": 0.125,
      "velocity": 40
    },
    {
      "pitch": 42,
      "start_time": 2.375,
      "duration": 0.0907,
      "velocity": 44
    },
    {
      "pitch": 41,
      "start_time": 2.5,
      "duration": 0.125,
      "velocity": 39
    },
    {
      "pitch": 42,
      "start_time": 2.5,
      "duration": 0.075,
      "velocity": 67
    },
    {
      "pitch": 47,
      "start_time": 2.5,
      "duration": 0.2166,
      "velocity": 61
    },
    {
      "pitch": 48,
      "start_time": 2.5,
      "duration": 1.1801,
      "velocity": 71
    },
    {
      "pitch": 41,
      "start_time": 2.625,
      "duration": 0.125,
      "velocity": 37
    },
    {
      "pitch": 41,
      "start_time": 2.75,
      "duration": 0.125,
      "velocity": 56
    },
    {
      "pitch": 41,
      "start_time": 2.875,
      "duration": 0.0765,
      "velocity": 54
    },
    {
      "pitch": 38,
      "start_time": 3.0,
      "duration": 0.0523,
      "velocity": 83
    },
    {
      "pitch": 42,
      "start_time": 3.0,
      "duration": 0.125,
      "velocity": 49
    },
    {
      "pitch": 42,
      "start_time": 3.125,
      "duration": 0.125,
      "velocity": 49
    },
    {
      "pitch": 36,
      "start_time": 3.25,
      "duration": 0.0918,
      "velocity": 59
    },
    {
      "pitch": 42,
      "start_time": 3.25,
      "duration": 0.125,
      "velocity": 35
    },
    {
      "pitch": 42,
      "start_time": 3.375,
      "duration": 0.0941,
      "velocity": 38
    },
    {
      "pitch": 41,
      "start_time": 3.5,
      "duration": 0.125,
      "velocity": 55
    },
    {
      "pitch": 46,
      "start_time": 3.5,
      "duration": 0.0687,
      "velocity": 84
    },
    {
      "pitch": 51,
      "start_time": 3.5,
      "duration": 0.3739,
      "velocity": 38
    },
    {
      "pitch": 41,
      "start_time": 3.625,
      "duration": 0.125,
      "velocity": 36
    },
    {
      "pitch": 41,
      "start_time": 3.75,
      "duration": 0.125,
      "velocity": 60
    },
    {
      "pitch": 41,
      "start_time": 3.875,
      "duration": 0.1212,
      "velocity": 62
    }
  ]
}