{
  "source": {
    "song": "packs",
    "track_index": 0,
    "track_name": "Beat Tools / MIDI Clips / 59 - 80 bpm / Abyss Kit groove 02_59 bpm",
    "slot_index": 0,
    "clip_name": "Beat Tools / MIDI Clips / 59 - 80 bpm / Abyss Kit groove 02_59 bpm",
    "mid_file": "/Users/darnold/Music/Ableton/Packs/Beat Tools/MIDI Clips/59 - 80 bpm/Abyss Kit groove 02_59 bpm.alc"
  },
  "meta": {
    "bpm": 59.0,
    "key": "?",
    "scale": "?",
    "length_beats": 8.0,
    "note_count": 88
  },
  "rhythm": {
    "density": 1.438,
    "hit_positions": [
      0.0,
      -0.0,
      0.0,
      0.0,
      0.25,
      0.25,
      0.5,
      0.5,
      0.625,
      0.75,
      0.75,
      0.75,
      0.875,
      1.0,
      1.0,
      1.0,
      1.25,
      1.375,
      1.625,
      1.75,
      1.75,
      1.875,
      2.0,
      2.125,
      2.25,
      2.25,
      2.5,
      2.75,
      2.75,
      2.75,
      2.875,
      3.0,
      3.0,
      3.0,
      3.0,
      3.25,
      3.5,
      3.5,
      3.75,
      4.0,
      4.0,
      4.0,
      4.25,
      4.25,
      4.5,
      4.5,
      4.625,
      4.75,
      4.75,
      4.875,
      5.0,
      5.0,
      5.0,
      5.25,
      5.25,
      5.375,
      5.5,
      5.5,
      5.625,
      5.75,
      5.75,
      5.875,
      6.25,
      6.25,
      6.25,
      6.25,
      6.5,
      6.75,
      6.75,
      6.75,
      6.875,
      6.875,
      7.0,
      7.0,
      7.0,
      7.0,
      7.0,
      7.25,
      7.25,
      7.25,
      7.3333,
      7.5,
      7.5,
      7.5,
      7.6667,
      7.75,
      7.75,
      7.8333
    ],
    "ioi": [
      -0.0,
      0.0,
      0.0,
      0.25,
      0.0,
      0.25,
      0.0,
      0.125,
      0.125,
      0.0,
      0.0,
      0.125,
      0.125,
      0.0,
      0.0,
      0.25,
      0.125,
      0.25,
      0.125,
      0.0,
      0.125,
      0.125,
      0.125,
      0.125,
      0.0,
      0.25,
      0.25,
      0.0,
      0.0,
      0.125,
      0.125,
      0.0,
      0.0,
      0.0,
      0.25,
      0.25,
      0.0,
      0.25,
      0.25,
      0.0,
      0.0,
      0.25,
      0.0,
      0.25,
      0.0,
      0.125,
      0.125,
      0.0,
      0.125,
      0.125,
      0.0,
      0.0,
      0.25,
      0.0,
      0.125,
      0.125,
      0.0,
      0.125,
      0.125,
      0.0,
      0.125,
      0.375,
      0.0,
      0.0,
      0.0,
      0.25,
      0.25,
      0.0,
      0.0,
      0.125,
      0.0,
      0.125,
      0.0,
      0.0,
      0.0,
      0.0,
      0.25,
      0.0,
      0.0,
      0.0833,
      0.1667,
      0.0,
      0.0,
      0.1667,
      0.0833,
      0.0,
      0.0833,
      0.1667
    ],
    "grid": "16th",
    "euclidean_approx": [
      32,
      32
    ],
    "swing_ratio": 1.112
  },
  "pitch": {
    "notes_used": [
      36,
      38,
      39,
      40,
      41,
      42,
      43,
      44,
      45,
      46,
      48,
      49,
      50,
      51
    ],
    "intervals": [
      4,
      5,
      1,
      5,
      8,
      8,
      1,
      0,
      1,
      1,
      1,
      1,
      4,
      3,
      7,
      7,
      0,
      0,
      0,
      3,
      3,
      0,
      0,
      5,
      13,
      8,
      5,
      5,
      1,
      0,
      4,
      3,
      1,
      6,
      0,
      4,
      6,
      1,
      15,
      5,
      4,
      4,
      8,
      8,
      1,
      0,
      0,
      1,
      1,
      4,
      3,
      7,
      12,
      5,
      5,
      3,
      2,
      0,
      0,
      3,
      3,
      5,
      2,
      3,
      8,
      8,
      5,
      2,
      4,
      4,
      4,
      4,
      2,
      1,
      1,
      6,
      8,
      8,
      3,
      10,
      1,
      1,
      3,
      3,
      1,
      11,
      10
    ],
    "register": "low",
    "is_melodic": true,
    "pitch_range": 15,
    "pitch_distribution": {
      "36": 8,
      "40": 5,
      "45": 2,
      "46": 1,
      "41": 30,
      "49": 4,
      "42": 14,
      "43": 2,
      "38": 7,
      "48": 6,
      "44": 4,
      "50": 1,
      "51": 3,
      "39": 1
    }
  },
  "velocity": {
    "mean": 57.0,
    "variance": 587.5,
    "std": 24.2,
    "accents": [
      1,
      2,
      11,
      27,
      34,
      35,
      41,
      48,
      85
    ],
    "profile": [
      77,
      95,
      100,
      31,
      54,
      69,
      33,
      55,
      55,
      51,
      55,
      127,
      55,
      52,
      41,
      59,
      55,
      27,
      22,
      31,
      63,
      48,
      28,
      46,
      74,
      73,
      77,
      98,
      27,
      55,
      55,
      56,
      15,
      55,
      93,
      93,
      63,
      77,
      63,
      78,
      38,
      125,
      34,
      58,
      19,
      55,
      55,
      55,
      127,
      55,
      66,
      30,
      71,
      17,
      52,
      25,
      79,
      47,
      55,
      43,
      63,
      52,
      40,
      7,
      81,
      56,
      62,
      76,
      7,
      55,
      7,
      55,
      63,
      39,
      77,
      55,
      67,
      63,
      65,
      63,
      30,
      71,
      54,
      63,
      51,
      95,
      63,
      50
    ]
  },
  "notes": [
    {
      "pitch": 36,
      "start_time": 0.0,
      "duration": 0.8233,
      "velocity": 77
    },
    {
      "pitch": 40,
      "start_time": -0.0,
      "duration": 0.0025,
      "velocity": 95
    },
    {
      "pitch": 45,
      "start_time": 0.0,
      "duration": 2.0,
      "velocity": 100
    },
    {
      "pitch": 46,
      "start_time": 0.0,
      "duration": 1.3062,
      "velocity": 31
    },
    {
      "pitch": 41,
      "start_time": 0.25,
      "duration": 0.25,
      "velocity": 54
    },
    {
      "pitch": 49,
      "start_time": 0.25,
      "duration": 0.7179,
      "velocity": 69
    },
    {
      "pitch": 41,
      "start_time": 0.5,
      "duration": 0.113,
      "velocity": 33
    },
    {
      "pitch": 42,
      "start_time": 0.5,
      "duration": 0.125,
      "velocity": 55
    },
    {
      "pitch": 42,
      "start_time": 0.625,
      "duration": 0.125,
      "velocity": 55
    },
    {
      "pitch": 41,
      "start_time": 0.75,
      "duration": 0.25,
      "velocity": 51
    },
    {
      "pitch": 42,
      "start_time": 0.75,
      "duration": 0.125,
      "velocity": 55
    },
    {
      "pitch": 43,
      "start_time": 0.75,
      "duration": 0.272,
      "velocity": 127
    },
    {
      "pitch": 42,
      "start_time": 0.875,
      "duration": 0.1174,
      "velocity": 55
    },
    {
      "pitch": 38,
      "start_time": 1.0,
      "duration": 1.1192,
      "velocity": 52
    },
    {
      "pitch": 41,
      "start_time": 1.0,
      "duration": 0.0642,
      "velocity": 41
    },
    {
      "pitch": 48,
      "start_time": 1.0,
      "duration": 0.4039,
      "velocity": 59
    },
    {
      "pitch": 41,
      "start_time": 1.25,
      "duration": 0.125,
      "velocity": 55
    },
    {
      "pitch": 41,
      "start_time": 1.375,
      "duration": 0.046,
      "velocity": 27
    },
    {
      "pitch": 41,
      "start_time": 1.625,
      "duration": 0.125,
      "velocity": 22
    },
    {
      "pitch": 41,
      "start_time": 1.75,
      "duration": 0.125,
      "velocity": 31
    },
    {
      "pitch": 44,
      "start_time": 1.75,
      "duration": 0.2614,
      "velocity": 63
    },
    {
      "pitch": 41,
      "start_time": 1.875,
      "duration": 0.125,
      "velocity": 48
    },
    {
      "pitch": 41,
      "start_time": 2.0,
      "duration": 0.0021,
      "velocity": 28
    },
    {
      "pitch": 41,
      "start_time": 2.125,
      "duration": 0.0688,
      "velocity": 46
    },
    {
      "pitch": 36,
      "start_time": 2.25,
      "duration": 0.4462,
      "velocity": 74
    },
    {
      "pitch": 49,
      "start_time": 2.25,
      "duration": 0.7134,
      "velocity": 73
    },
    {
      "pitch": 41,
      "start_time": 2.5,
      "duration": 0.25,
      "velocity": 77
    },
    {
      "pitch": 36,
      "start_time": 2.75,
      "duration": 0.2544,
      "velocity": 98
    },
    {
      "pitch": 41,
      "start_time": 2.75,
      "duration": 0.0406,
      "velocity": 27
    },
    {
      "pitch": 42,
      "start_time": 2.75,
      "duration": 0.125,
      "velocity": 55
    },
    {
      "pitch": 42,
      "start_time": 2.875,
      "duration": 0.0805,
      "velocity": 55
    },
    {
      "pitch": 38,
      "start_time": 3.0,
      "duration": 0.7855,
      "velocity": 56
    },
    {
      "pitch": 41,
      "start_time": 3.0,
      "duration": 0.1905,
      "velocity": 15
    },
    {
      "pitch": 42,
      "start_time": 3.0,
      "duration": 0.0212,
      "velocity": 55
    },
    {
      "pitch": 48,
      "start_time": 3.0,
      "duration": 0.0487,
      "velocity": 93
    },
    {
      "pitch": 48,
      "start_time": 3.25,
      "duration": 0.1329,
      "velocity": 93
    },
    {
      "pitch": 44,
      "start_time": 3.5,
      "duration": 0.214,
      "velocity": 63
    },
    {
      "pitch": 50,
      "start_time": 3.5,
      "duration": 0.5429,
      "velocity": 77
    },
    {
      "pitch": 51,
      "start_time": 3.75,
      "duration": 0.2392,
      "velocity": 63
    },
    {
      "pitch": 36,
      "start_time": 4.0,
      "duration": 0.8399,
      "velocity": 78
    },
    {
      "pitch": 41,
      "start_time": 4.0,
      "duration": 0.25,
      "velocity": 38
    },
    {
      "pitch": 45,
      "start_time": 4.0,
      "duration": 2.0258,
      "velocity": 125
    },
    {
      "pitch": 41,
      "start_time": 4.25,
      "duration": 0.25,
      "velocity": 34
    },
    {
      "pitch": 49,
      "start_time": 4.25,
      "duration": 0.6984,
      "velocity": 58
    },
    {
      "pitch": 41,
      "start_time": 4.5,
      "duration": 0.232,
      "velocity": 19
    },
    {
      "pitch": 42,
      "start_time": 4.5,
      "duration": 0.125,
      "velocity": 55
    },
    {
      "pitch": 42,
      "start_time": 4.625,
      "duration": 0.125,
      "velocity": 55
    },
    {
      "pitch": 42,
      "start_time": 4.75,
      "duration": 0.125,
      "velocity": 55
    },
    {
      "pitch": 43,
      "start_time": 4.75,
      "duration": 0.2816,
      "velocity": 127
    },
    {
      "pitch": 42,
      "start_time": 4.875,
      "duration": 0.0618,
      "velocity": 55
    },
    {
      "pitch": 38,
      "start_time": 5.0,
      "duration": 1.211,
      "velocity": 66
    },
    {
      "pitch": 41,
      "start_time": 5.0,
      "duration": 0.029,
      "velocity": 30
    },
    {
      "pitch": 48,
      "start_time": 5.0,
      "duration": 0.4588,
      "velocity": 71
    },
    {
      "pitch": 36,
      "start_time": 5.25,
      "duration": 0.023,
      "velocity": 17
    },
    {
      "pitch": 41,
      "start_time": 5.25,
      "duration": 0.25,
      "velocity": 52
    },
    {
      "pitch": 36,
      "start_time": 5.375,
      "duration": 0.0266,
      "velocity": 25
    },
    {
      "pitch": 39,
      "start_time": 5.5,
      "duration": 0.0913,
      "velocity": 79
    },
    {
      "pitch": 41,
      "start_time": 5.5,
      "duration": 0.125,
      "velocity": 47
    },
    {
      "pitch": 41,
      "start_time": 5.625,
      "duration": 0.125,
      "velocity": 55
    },
    {
      "pitch": 41,
      "start_time": 5.75,
      "duration": 0.125,
      "velocity": 43
    },
    {
      "pitch": 44,
      "start_time": 5.75,
      "duration": 0.2286,
      "velocity": 63
    },
    {
      "pitch": 41,
      "start_time": 5.875,
      "duration": 0.0894,
      "velocity": 52
    },
    {
      "pitch": 36,
      "start_time": 6.25,
      "duration": 0.3983,
      "velocity": 40
    },
    {
      "pitch": 38,
      "start_time": 6.25,
      "duration": 0.3454,
      "velocity": 7
    },
    {
      "pitch": 41,
      "start_time": 6.25,
      "duration": 0.0464,
      "velocity": 81
    },
    {
      "pitch": 49,
      "start_time": 6.25,
      "duration": 0.6988,
      "velocity": 56
    },
    {
      "pitch": 41,
      "start_time": 6.5,
      "duration": 0.2378,
      "velocity": 62
    },
    {
      "pitch": 36,
      "start_time": 6.75,
      "duration": 0.2534,
      "velocity": 76
    },
    {
      "pitch": 38,
      "start_time": 6.75,
      "duration": 0.125,
      "velocity": 7
    },
    {
      "pitch": 42,
      "start_time": 6.75,
      "duration": 0.125,
      "velocity": 55
    },
    {
      "pitch": 38,
      "start_time": 6.875,
      "duration": 0.0707,
      "velocity": 7
    },
    {
      "pitch": 42,
      "start_time": 6.875,
      "duration": 0.125,
      "velocity": 55
    },
    {
      "pitch": 38,
      "start_time": 7.0,
      "duration": 0.7709,
      "velocity": 63
    },
    {
      "pitch": 40,
      "start_time": 7.0,
      "duration": 0.25,
      "velocity": 39
    },
    {
      "pitch": 41,
      "start_time": 7.0,
      "duration": 0.0395,
      "velocity": 77
    },
    {
      "pitch": 42,
      "start_time": 7.0,
      "duration": 0.0296,
      "velocity": 55
    },
    {
      "pitch": 48,
      "start_time": 7.0,
      "duration": 0.0851,
      "velocity": 67
    },
    {
      "pitch": 40,
      "start_time": 7.25,
      "duration": 0.2368,
      "velocity": 63
    },
    {
      "pitch": 48,
      "start_time": 7.25,
      "duration": 0.6093,
      "velocity": 65
    },
    {
      "pitch": 51,
      "start_time": 7.25,
      "duration": 0.2216,
      "velocity": 63
    },
    {
      "pitch": 41,
      "start_time": 7.3333,
      "duration": 0.034,
      "velocity": 30
    },
    {
      "pitch": 40,
      "start_time": 7.5,
      "duration": 0.2455,
      "velocity": 71
    },
    {
      "pitch": 41,
      "start_time": 7.5,
      "duration": 0.1667,
      "velocity": 54
    },
    {
      "pitch": 44,
      "start_time": 7.5,
      "duration": 0.202,
      "velocity": 63
    },
    {
      "pitch": 41,
      "start_time": 7.6667,
      "duration": 0.1667,
      "velocity": 51
    },
    {
      "pitch": 40,
      "start_time": 7.75,
      "duration": 0.25,
      "velocity": 95
    },
    {
      "pitch": 51,
      "start_time": 7.75,
      "duration": 0.2358,
      "velocity": 63
    },
    {
      "pitch": 41,
      "start_time": 7.8333,
      "duration": 0.0781,
      "velocity": 50
    }
  ]
}