{
  "source": {
    "song": "packs",
    "track_index": 0,
    "track_name": "Beat Tools / MIDI Clips / 94 - 105 bpm / Digi Kit groove 03_94 bpm",
    "slot_index": 0,
    "clip_name": "Beat Tools / MIDI Clips / 94 - 105 bpm / Digi Kit groove 03_94 bpm",
    "mid_file": "/Users/darnold/Music/Ableton/Packs/Beat Tools/MIDI Clips/94 - 105 bpm/Digi Kit groove 03_94 bpm.alc"
  },
  "meta": {
    "bpm": 94.0,
    "key": "?",
    "scale": "?",
    "length_beats": 8.0,
    "note_count": 109
  },
  "rhythm": {
    "density": 1.344,
    "hit_positions": [
      0.0,
      0.0,
      0.0,
      0.0,
      0.0,
      0.0,
      0.25,
      0.5,
      0.5,
      0.5,
      0.75,
      1.0,
      1.0,
      1.0,
      1.0,
      1.0,
      1.0,
      1.0,
      1.25,
      1.5,
      1.5,
      1.5,
      1.75,
      2.0,
      2.0,
      2.0,
      2.0,
      2.0,
      2.0,
      2.25,
      2.5,
      2.5,
      2.5,
      2.625,
      2.75,
      2.75,
      3.0,
      3.0,
      3.0,
      3.0,
      3.125,
      3.25,
      3.25,
      3.375,
      3.5,
      3.5,
      3.5,
      3.5,
      3.625,
      3.75,
      3.75,
      3.875,
      4.0,
      4.0,
      4.0,
      4.0,
      4.0,
      4.25,
      4.5,
      4.5,
      4.5,
      4.75,
      5.0,
      5.0,
      5.0,
      5.0,
      5.0,
      5.0,
      5.25,
      5.5,
      5.5,
      5.5,
      5.75,
      6.0,
      6.0,
      6.0,
      6.0,
      6.0,
      6.25,
      6.5,
      6.5,
      6.5,
      6.625,
      6.75,
      6.75,
      6.75,
      6.75,
      6.875,
      7.0,
      7.0,
      7.0,
      7.0,
      7.0,
      7.0,
      7.125,
      7.25,
      7.25,
      7.375,
      7.5,
      7.5,
      7.5,
      7.5,
      7.5,
      7.5,
      7.5,
      7.625,
      7.75,
      7.75,
      7.875
    ],
    "ioi": [
      0.0,
      0.0,
      0.0,
      0.0,
      0.0,
      0.25,
      0.25,
      0.0,
      0.0,
      0.25,
      0.25,
      0.0,
      0.0,
      0.0,
      0.0,
      0.0,
      0.0,
      0.25,
      0.25,
      0.0,
      0.0,
      0.25,
      0.25,
      0.0,
      0.0,
      0.0,
      0.0,
      0.0,
      0.25,
      0.25,
      0.0,
      0.0,
      0.125,
      0.125,
      0.0,
      0.25,
      0.0,
      0.0,
      0.0,
      0.125,
      0.125,
      0.0,
      0.125,
      0.125,
      0.0,
      0.0,
      0.0,
      0.125,
      0.125,
      0.0,
      0.125,
      0.125,
      0.0,
      0.0,
      0.0,
      0.0,
      0.25,
      0.25,
      0.0,
      0.0,
      0.25,
      0.25,
      0.0,
      0.0,
      0.0,
      0.0,
      0.0,
      0.25,
      0.25,
      0.0,
      0.0,
      0.25,
      0.25,
      0.0,
      0.0,
      0.0,
      0.0,
      0.25,
      0.25,
      0.0,
      0.0,
      0.125,
      0.125,
      0.0,
      0.0,
      0.0,
      0.125,
      0.125,
      0.0,
      0.0,
      0.0,
      0.0,
      0.0,
      0.125,
      0.125,
      0.0,
      0.125,
      0.125,
      0.0,
      0.0,
      0.0,
      0.0,
      0.0,
      0.0,
      0.125,
      0.125,
      0.0,
      0.125,
      0.125
    ],
    "grid": "16th",
    "euclidean_approx": [
      32,
      32
    ],
    "swing_ratio": 1.086
  },
  "pitch": {
    "notes_used": [
      36,
      38,
      39,
      42,
      45,
      46,
      52,
      53,
      54,
      56,
      57,
      58,
      61
    ],
    "intervals": [
      3,
      3,
      3,
      8,
      5,
      19,
      0,
      6,
      1,
      7,
      3,
      2,
      1,
      3,
      3,
      11,
      2,
      19,
      0,
      3,
      3,
      6,
      3,
      3,
      3,
      3,
      8,
      5,
      19,
      0,
      3,
      3,
      3,
      3,
      3,
      4,
      1,
      3,
      3,
      3,
      3,
      3,
      0,
      3,
      3,
      3,
      9,
      12,
      3,
      3,
      0,
      6,
      6,
      3,
      8,
      5,
      19,
      0,
      6,
      1,
      7,
      3,
      2,
      1,
      3,
      3,
      11,
      17,
      0,
      3,
      11,
      14,
      3,
      3,
      3,
      3,
      8,
      14,
      0,
      3,
      3,
      3,
      6,
      3,
      3,
      16,
      16,
      6,
      2,
      1,
      3,
      3,
      13,
      16,
      3,
      3,
      0,
      3,
      3,
      3,
      7,
      2,
      3,
      4,
      19,
      3,
      3,
      0
    ],
    "register": "low",
    "is_melodic": true,
    "pitch_range": 25,
    "pitch_distribution": {
      "36": 8,
      "39": 31,
      "42": 31,
      "45": 15,
      "53": 5,
      "58": 6,
      "46": 2,
      "38": 4,
      "56": 2,
      "54": 2,
      "52": 1,
      "57": 1,
      "61": 1
    }
  },
  "velocity": {
    "mean": 65.9,
    "variance": 869.9,
    "std": 29.5,
    "accents": [
      7,
      9,
      12,
      14,
      19,
      30,
      36,
      44,
      55,
      63,
      65,
      69,
      73,
      75,
      79,
      88,
      89,
      93,
      98,
      102
    ],
    "profile": [
      91,
      32,
      84,
      55,
      81,
      68,
      33,
      104,
      40,
      127,
      31,
      90,
      118,
      35,
      105,
      46,
      83,
      66,
      40,
      121,
      88,
      37,
      37,
      84,
      24,
      81,
      36,
      94,
      56,
      39,
      127,
      45,
      37,
      45,
      33,
      65,
      127,
      47,
      81,
      61,
      81,
      45,
      80,
      76,
      117,
      73,
      46,
      78,
      73,
      53,
      70,
      73,
      76,
      71,
      40,
      99,
      84,
      30,
      83,
      51,
      84,
      3,
      87,
      111,
      33,
      114,
      42,
      71,
      33,
      127,
      70,
      66,
      31,
      101,
      32,
      99,
      49,
      62,
      33,
      124,
      51,
      39,
      51,
      49,
      28,
      38,
      68,
      34,
      107,
      119,
      43,
      32,
      54,
      98,
      37,
      46,
      40,
      37,
      98,
      45,
      45,
      65,
      102,
      94,
      27,
      81,
      27,
      81,
      86
    ]
  },
  "notes": [
    {
      "pitch": 36,
      "start_time": 0.0,
      "duration": 0.1146,
      "velocity": 91
    },
    {
      "pitch": 39,
      "start_time": 0.0,
      "duration": 0.0625,
      "velocity": 32
    },
    {
      "pitch": 42,
      "start_time": 0.0,
      "duration": 0.1042,
      "velocity": 84
    },
    {
      "pitch": 45,
      "start_time": 0.0,
      "duration": 0.0208,
      "velocity": 55
    },
    {
      "pitch": 53,
      "start_time": 0.0,
      "duration": 1.0417,
      "velocity": 81
    },
    {
      "pitch": 58,
      "start_time": 0.0,
      "duration": 0.8438,
      "velocity": 68
    },
    {
      "pitch": 39,
      "start_time": 0.25,
      "duration": 0.0521,
      "velocity": 33
    },
    {
      "pitch": 39,
      "start_time": 0.5,
      "duration": 0.1042,
      "velocity": 104
    },
    {
      "pitch": 45,
      "start_time": 0.5,
      "duration": 0.0417,
      "velocity": 40
    },
    {
      "pitch": 46,
      "start_time": 0.5,
      "duration": 0.0625,
      "velocity": 127
    },
    {
      "pitch": 39,
      "start_time": 0.75,
      "duration": 0.0625,
      "velocity": 31
    },
    {
      "pitch": 36,
      "start_time": 1.0,
      "duration": 0.2083,
      "velocity": 90
    },
    {
      "pitch": 38,
      "start_time": 1.0,
      "duration": 0.125,
      "velocity": 118
    },
    {
      "pitch": 39,
      "start_time": 1.0,
      "duration": 0.0312,
      "velocity": 35
    },
    {
      "pitch": 42,
      "start_time": 1.0,
      "duration": 0.1562,
      "velocity": 105
    },
    {
      "pitch": 45,
      "start_time": 1.0,
      "duration": 0.0521,
      "velocity": 46
    },
    {
      "pitch": 56,
      "start_time": 1.0,
      "duration": 0.0312,
      "velocity": 83
    },
    {
      "pitch": 58,
      "start_time": 1.0,
      "duration": 0.7812,
      "velocity": 66
    },
    {
      "pitch": 39,
      "start_time": 1.25,
      "duration": 0.0417,
      "velocity": 40
    },
    {
      "pitch": 39,
      "start_time": 1.5,
      "duration": 0.1042,
      "velocity": 121
    },
    {
      "pitch": 42,
      "start_time": 1.5,
      "duration": 0.2083,
      "velocity": 88
    },
    {
      "pitch": 45,
      "start_time": 1.5,
      "duration": 0.0521,
      "velocity": 37
    },
    {
      "pitch": 39,
      "start_time": 1.75,
      "duration": 0.0625,
      "velocity": 37
    },
    {
      "pitch": 36,
      "start_time": 2.0,
      "duration": 0.2083,
      "velocity": 84
    },
    {
      "pitch": 39,
      "start_time": 2.0,
      "duration": 0.0312,
      "velocity": 24
    },
    {
      "pitch": 42,
      "start_time": 2.0,
      "duration": 0.1771,
      "velocity": 81
    },
    {
      "pitch": 45,
      "start_time": 2.0,
      "duration": 0.0417,
      "velocity": 36
    },
    {
      "pitch": 53,
      "start_time": 2.0,
      "duration": 1.0104,
      "velocity": 94
    },
    {
      "pitch": 58,
      "start_time": 2.0,
      "duration": 1.7708,
      "velocity": 56
    },
    {
      "pitch": 39,
      "start_time": 2.25,
      "duration": 0.0521,
      "velocity": 39
    },
    {
      "pitch": 39,
      "start_time": 2.5,
      "duration": 0.0938,
      "velocity": 127
    },
    {
      "pitch": 42,
      "start_time": 2.5,
      "duration": 0.125,
      "velocity": 45
    },
    {
      "pitch": 45,
      "start_time": 2.5,
      "duration": 0.0521,
      "velocity": 37
    },
    {
      "pitch": 42,
      "start_time": 2.625,
      "duration": 0.125,
      "velocity": 45
    },
    {
      "pitch": 39,
      "start_time": 2.75,
      "duration": 0.0521,
      "velocity": 33
    },
    {
      "pitch": 42,
      "start_time": 2.75,
      "duration": 0.1146,
      "velocity": 65
    },
    {
      "pitch": 38,
      "start_time": 3.0,
      "duration": 0.1354,
      "velocity": 127
    },
    {
      "pitch": 39,
      "start_time": 3.0,
      "duration": 0.0312,
      "velocity": 47
    },
    {
      "pitch": 42,
      "start_time": 3.0,
      "duration": 0.125,
      "velocity": 81
    },
    {
      "pitch": 45,
      "start_time": 3.0,
      "duration": 0.0417,
      "velocity": 61
    },
    {
      "pitch": 42,
      "start_time": 3.125,
      "duration": 0.125,
      "velocity": 81
    },
    {
      "pitch": 39,
      "start_time": 3.25,
      "duration": 0.0625,
      "velocity": 45
    },
    {
      "pitch": 42,
      "start_time": 3.25,
      "duration": 0.125,
      "velocity": 80
    },
    {
      "pitch": 42,
      "start_time": 3.375,
      "duration": 0.125,
      "velocity": 76
    },
    {
      "pitch": 39,
      "start_time": 3.5,
      "duration": 0.0938,
      "velocity": 117
    },
    {
      "pitch": 42,
      "start_time": 3.5,
      "duration": 0.125,
      "velocity": 73
    },
    {
      "pitch": 45,
      "start_time": 3.5,
      "duration": 0.0521,
      "velocity": 46
    },
    {
      "pitch": 54,
      "start_time": 3.5,
      "duration": 0.0312,
      "velocity": 78
    },
    {
      "pitch": 42,
      "start_time": 3.625,
      "duration": 0.125,
      "velocity": 73
    },
    {
      "pitch": 39,
      "start_time": 3.75,
      "duration": 0.0625,
      "velocity": 53
    },
    {
      "pitch": 42,
      "start_time": 3.75,
      "duration": 0.125,
      "velocity": 70
    },
    {
      "pitch": 42,
      "start_time": 3.875,
      "duration": 0.0312,
      "velocity": 73
    },
    {
      "pitch": 36,
      "start_time": 4.0,
      "duration": 0.125,
      "velocity": 76
    },
    {
      "pitch": 42,
      "start_time": 4.0,
      "duration": 0.125,
      "velocity": 71
    },
    {
      "pitch": 45,
      "start_time": 4.0,
      "duration": 0.0312,
      "velocity": 40
    },
    {
      "pitch": 53,
      "start_time": 4.0,
      "duration": 1.0521,
      "velocity": 99
    },
    {
      "pitch": 58,
      "start_time": 4.0,
      "duration": 2.4375,
      "velocity": 84
    },
    {
      "pitch": 39,
      "start_time": 4.25,
      "duration": 0.0521,
      "velocity": 30
    },
    {
      "pitch": 39,
      "start_time": 4.5,
      "duration": 0.1042,
      "velocity": 83
    },
    {
      "pitch": 45,
      "start_time": 4.5,
      "duration": 0.0521,
      "velocity": 51
    },
    {
      "pitch": 46,
      "start_time": 4.5,
      "duration": 0.0417,
      "velocity": 84
    },
    {
      "pitch": 39,
      "start_time": 4.75,
      "duration": 0.0208,
      "velocity": 3
    },
    {
      "pitch": 36,
      "start_time": 5.0,
      "duration": 0.1562,
      "velocity": 87
    },
    {
      "pitch": 38,
      "start_time": 5.0,
      "duration": 0.125,
      "velocity": 111
    },
    {
      "pitch": 39,
      "start_time": 5.0,
      "duration": 0.0312,
      "velocity": 33
    },
    {
      "pitch": 42,
      "start_time": 5.0,
      "duration": 0.1354,
      "velocity": 114
    },
    {
      "pitch": 45,
      "start_time": 5.0,
      "duration": 0.0417,
      "velocity": 42
    },
    {
      "pitch": 56,
      "start_time": 5.0,
      "duration": 0.0417,
      "velocity": 71
    },
    {
      "pitch": 39,
      "start_time": 5.25,
      "duration": 0.0625,
      "velocity": 33
    },
    {
      "pitch": 39,
      "start_time": 5.5,
      "duration": 0.0729,
      "velocity": 127
    },
    {
      "pitch": 42,
      "start_time": 5.5,
      "duration": 0.125,
      "velocity": 70
    },
    {
      "pitch": 53,
      "start_time": 5.5,
      "duration": 0.0417,
      "velocity": 66
    },
    {
      "pitch": 39,
      "start_time": 5.75,
      "duration": 0.0729,
      "velocity": 31
    },
    {
      "pitch": 36,
      "start_time": 6.0,
      "duration": 0.1875,
      "velocity": 101
    },
    {
      "pitch": 39,
      "start_time": 6.0,
      "duration": 0.0312,
      "velocity": 32
    },
    {
      "pitch": 42,
      "start_time": 6.0,
      "duration": 0.1354,
      "velocity": 99
    },
    {
      "pitch": 45,
      "start_time": 6.0,
      "duration": 0.0312,
      "velocity": 49
    },
    {
      "pitch": 53,
      "start_time": 6.0,
      "duration": 1.0104,
      "velocity": 62
    },
    {
      "pitch": 39,
      "start_time": 6.25,
      "duration": 0.0625,
      "velocity": 33
    },
    {
      "pitch": 39,
      "start_time": 6.5,
      "duration": 0.0938,
      "velocity": 124
    },
    {
      "pitch": 42,
      "start_time": 6.5,
      "duration": 0.125,
      "velocity": 51
    },
    {
      "pitch": 45,
      "start_time": 6.5,
      "duration": 0.0417,
      "velocity": 39
    },
    {
      "pitch": 42,
      "start_time": 6.625,
      "duration": 0.125,
      "velocity": 51
    },
    {
      "pitch": 36,
      "start_time": 6.75,
      "duration": 0.0521,
      "velocity": 49
    },
    {
      "pitch": 39,
      "start_time": 6.75,
      "duration": 0.0625,
      "velocity": 28
    },
    {
      "pitch": 42,
      "start_time": 6.75,
      "duration": 0.125,
      "velocity": 38
    },
    {
      "pitch": 58,
      "start_time": 6.75,
      "duration": 0.0625,
      "velocity": 68
    },
    {
      "pitch": 42,
      "start_time": 6.875,
      "duration": 0.125,
      "velocity": 34
    },
    {
      "pitch": 36,
      "start_time": 7.0,
      "duration": 0.1771,
      "velocity": 107
    },
    {
      "pitch": 38,
      "start_time": 7.0,
      "duration": 0.1458,
      "velocity": 119
    },
    {
      "pitch": 39,
      "start_time": 7.0,
      "duration": 0.0312,
      "velocity": 43
    },
    {
      "pitch": 42,
      "start_time": 7.0,
      "duration": 0.125,
      "velocity": 32
    },
    {
      "pitch": 45,
      "start_time": 7.0,
      "duration": 0.0417,
      "velocity": 54
    },
    {
      "pitch": 58,
      "start_time": 7.0,
      "duration": 0.2917,
      "velocity": 98
    },
    {
      "pitch": 42,
      "start_time": 7.125,
      "duration": 0.125,
      "velocity": 37
    },
    {
      "pitch": 39,
      "start_time": 7.25,
      "duration": 0.0729,
      "velocity": 46
    },
    {
      "pitch": 42,
      "start_time": 7.25,
      "duration": 0.125,
      "velocity": 40
    },
    {
      "pitch": 42,
      "start_time": 7.375,
      "duration": 0.125,
      "velocity": 37
    },
    {
      "pitch": 39,
      "start_time": 7.5,
      "duration": 0.0938,
      "velocity": 98
    },
    {
      "pitch": 42,
      "start_time": 7.5,
      "duration": 0.125,
      "velocity": 45
    },
    {
      "pitch": 45,
      "start_time": 7.5,
      "duration": 0.0521,
      "velocity": 45
    },
    {
      "pitch": 52,
      "start_time": 7.5,
      "duration": 0.0312,
      "velocity": 65
    },
    {
      "pitch": 54,
      "start_time": 7.5,
      "duration": 0.0312,
      "velocity": 102
    },
    {
      "pitch": 57,
      "start_time": 7.5,
      "duration": 0.0312,
      "velocity": 94
    },
    {
      "pitch": 61,
      "start_time": 7.5,
      "duration": 0.0312,
      "velocity": 27
    },
    {
      "pitch": 42,
      "start_time": 7.625,
      "duration": 0.125,
      "velocity": 81
    },
    {
      "pitch": 39,
      "start_time": 7.75,
      "duration": 0.0625,
      "velocity": 27
    },
    {
      "pitch": 42,
      "start_time": 7.75,
      "duration": 0.125,
      "velocity": 81
    },
    {
      "pitch": 42,
      "start_time": 7.875,
      "duration": 0.0625,
      "velocity": 86
    }
  ]
}