{
  "source": {
    "song": "packs",
    "track_index": 0,
    "track_name": "Beat Tools / MIDI Clips / 94 - 105 bpm / Digi Kit groove 01_94 bpm",
    "slot_index": 0,
    "clip_name": "Beat Tools / MIDI Clips / 94 - 105 bpm / Digi Kit groove 01_94 bpm",
    "mid_file": "/Users/darnold/Music/Ableton/Packs/Beat Tools/MIDI Clips/94 - 105 bpm/Digi Kit groove 01_94 bpm.alc"
  },
  "meta": {
    "bpm": 94.0,
    "key": "?",
    "scale": "?",
    "length_beats": 4.0,
    "note_count": 41
  },
  "rhythm": {
    "density": 1.25,
    "hit_positions": [
      0.0,
      0.0,
      0.0,
      0.5,
      0.5,
      0.5,
      0.75,
      1.0,
      1.0,
      1.0,
      1.0,
      1.25,
      1.5,
      1.5,
      1.75,
      2.0,
      2.0,
      2.0,
      2.25,
      2.5,
      2.5,
      2.625,
      2.75,
      2.75,
      2.75,
      2.875,
      3.0,
      3.0,
      3.0,
      3.0,
      3.125,
      3.25,
      3.25,
      3.5,
      3.5,
      3.5,
      3.625,
      3.75,
      3.75,
      3.75,
      3.875
    ],
    "ioi": [
      0.0,
      0.0,
      0.5,
      0.0,
      0.0,
      0.25,
      0.25,
      0.0,
      0.0,
      0.0,
      0.25,
      0.25,
      0.0,
      0.25,
      0.25,
      0.0,
      0.0,
      0.25,
      0.25,
      0.0,
      0.125,
      0.125,
      0.0,
      0.0,
      0.125,
      0.125,
      0.0,
      0.0,
      0.0,
      0.125,
      0.125,
      0.0,
      0.25,
      0.0,
      0.0,
      0.125,
      0.125,
      0.0,
      0.0,
      0.125,
      0.125
    ],
    "grid": "16th",
    "euclidean_approx": [
      16,
      16
    ],
    "swing_ratio": 1.071
  },
  "pitch": {
    "notes_used": [
      36,
      37,
      38,
      39,
      42,
      47,
      52,
      53,
      54,
      56,
      57,
      58,
      59
    ],
    "intervals": [
      17,
      3,
      14,
      5,
      10,
      15,
      4,
      4,
      12,
      4,
      16,
      0,
      17,
      17,
      6,
      16,
      4,
      14,
      0,
      15,
      15,
      6,
      1,
      5,
      0,
      4,
      1,
      3,
      16,
      16,
      3,
      3,
      6,
      3,
      3,
      0,
      3,
      3,
      17,
      17
    ],
    "register": "low",
    "is_melodic": true,
    "pitch_range": 23,
    "pitch_distribution": {
      "36": 4,
      "53": 1,
      "56": 2,
      "42": 18,
      "47": 1,
      "57": 2,
      "38": 2,
      "54": 1,
      "58": 2,
      "59": 2,
      "52": 1,
      "37": 1,
      "39": 4
    }
  },
  "velocity": {
    "mean": 60.8,
    "variance": 1014.9,
    "std": 31.9,
    "accents": [
      3,
      12,
      15,
      26,
      35,
      36,
      38,
      40
    ],
    "profile": [
      91,
      26,
      32,
      127,
      50,
      19,
      69,
      91,
      59,
      85,
      14,
      34,
      106,
      37,
      55,
      100,
      40,
      5,
      66,
      75,
      20,
      78,
      55,
      82,
      72,
      60,
      101,
      64,
      44,
      5,
      34,
      23,
      34,
      79,
      45,
      117,
      97,
      69,
      102,
      29,
      102
    ]
  },
  "notes": [
    {
      "pitch": 36,
      "start_time": 0.0,
      "duration": 0.0938,
      "velocity": 91
    },
    {
      "pitch": 53,
      "start_time": 0.0,
      "duration": 0.8333,
      "velocity": 26
    },
    {
      "pitch": 56,
      "start_time": 0.0,
      "duration": 0.0312,
      "velocity": 32
    },
    {
      "pitch": 42,
      "start_time": 0.5,
      "duration": 0.25,
      "velocity": 127
    },
    {
      "pitch": 47,
      "start_time": 0.5,
      "duration": 0.6979,
      "velocity": 50
    },
    {
      "pitch": 57,
      "start_time": 0.5,
      "duration": 0.0417,
      "velocity": 19
    },
    {
      "pitch": 42,
      "start_time": 0.75,
      "duration": 0.25,
      "velocity": 69
    },
    {
      "pitch": 38,
      "start_time": 1.0,
      "duration": 0.0625,
      "velocity": 91
    },
    {
      "pitch": 42,
      "start_time": 1.0,
      "duration": 0.25,
      "velocity": 59
    },
    {
      "pitch": 54,
      "start_time": 1.0,
      "duration": 0.6458,
      "velocity": 85
    },
    {
      "pitch": 58,
      "start_time": 1.0,
      "duration": 0.0312,
      "velocity": 14
    },
    {
      "pitch": 42,
      "start_time": 1.25,
      "duration": 0.0833,
      "velocity": 34
    },
    {
      "pitch": 42,
      "start_time": 1.5,
      "duration": 0.25,
      "velocity": 106
    },
    {
      "pitch": 59,
      "start_time": 1.5,
      "duration": 0.0312,
      "velocity": 37
    },
    {
      "pitch": 42,
      "start_time": 1.75,
      "duration": 0.0938,
      "velocity": 55
    },
    {
      "pitch": 36,
      "start_time": 2.0,
      "duration": 0.0938,
      "velocity": 100
    },
    {
      "pitch": 52,
      "start_time": 2.0,
      "duration": 0.8958,
      "velocity": 40
    },
    {
      "pitch": 56,
      "start_time": 2.0,
      "duration": 0.001,
      "velocity": 5
    },
    {
      "pitch": 42,
      "start_time": 2.25,
      "duration": 0.25,
      "velocity": 66
    },
    {
      "pitch": 42,
      "start_time": 2.5,
      "duration": 0.125,
      "velocity": 75
    },
    {
      "pitch": 57,
      "start_time": 2.5,
      "duration": 0.0521,
      "velocity": 20
    },
    {
      "pitch": 42,
      "start_time": 2.625,
      "duration": 0.125,
      "velocity": 78
    },
    {
      "pitch": 36,
      "start_time": 2.75,
      "duration": 0.0729,
      "velocity": 55
    },
    {
      "pitch": 37,
      "start_time": 2.75,
      "duration": 0.0833,
      "velocity": 82
    },
    {
      "pitch": 42,
      "start_time": 2.75,
      "duration": 0.125,
      "velocity": 72
    },
    {
      "pitch": 42,
      "start_time": 2.875,
      "duration": 0.125,
      "velocity": 60
    },
    {
      "pitch": 38,
      "start_time": 3.0,
      "duration": 0.1042,
      "velocity": 101
    },
    {
      "pitch": 39,
      "start_time": 3.0,
      "duration": 0.25,
      "velocity": 64
    },
    {
      "pitch": 42,
      "start_time": 3.0,
      "duration": 0.0521,
      "velocity": 44
    },
    {
      "pitch": 58,
      "start_time": 3.0,
      "duration": 0.0625,
      "velocity": 5
    },
    {
      "pitch": 42,
      "start_time": 3.125,
      "duration": 0.125,
      "velocity": 34
    },
    {
      "pitch": 39,
      "start_time": 3.25,
      "duration": 0.25,
      "velocity": 23
    },
    {
      "pitch": 42,
      "start_time": 3.25,
      "duration": 0.0417,
      "velocity": 34
    },
    {
      "pitch": 36,
      "start_time": 3.5,
      "duration": 0.0833,
      "velocity": 79
    },
    {
      "pitch": 39,
      "start_time": 3.5,
      "duration": 0.25,
      "velocity": 45
    },
    {
      "pitch": 42,
      "start_time": 3.5,
      "duration": 0.125,
      "velocity": 117
    },
    {
      "pitch": 42,
      "start_time": 3.625,
      "duration": 0.125,
      "velocity": 97
    },
    {
      "pitch": 39,
      "start_time": 3.75,
      "duration": 0.0521,
      "velocity": 69
    },
    {
      "pitch": 42,
      "start_time": 3.75,
      "duration": 0.125,
      "velocity": 102
    },
    {
      "pitch": 59,
      "start_time": 3.75,
      "duration": 0.0312,
      "velocity": 29
    },
    {
      "pitch": 42,
      "start_time": 3.875,
      "duration": 0.0833,
      "velocity": 102
    }
  ]
}