{
  "source": {
    "song": "packs",
    "track_index": 0,
    "track_name": "Beat Tools / MIDI Clips / 110 - 124 bpm / Azimuth Kit groove 05_114 bpm",
    "slot_index": 0,
    "clip_name": "Beat Tools / MIDI Clips / 110 - 124 bpm / Azimuth Kit groove 05_114 bpm",
    "mid_file": "/Users/darnold/Music/Ableton/Packs/Beat Tools/MIDI Clips/110 - 124 bpm/Azimuth Kit groove 05_114 bpm.alc"
  },
  "meta": {
    "bpm": 114.0,
    "key": "?",
    "scale": "?",
    "length_beats": 8.0,
    "note_count": 61
  },
  "rhythm": {
    "density": 0.906,
    "hit_positions": [
      0.0,
      0.0,
      0.0,
      0.0,
      0.5,
      1.0,
      1.0,
      1.0,
      1.0,
      1.5,
      1.5,
      1.75,
      2.0,
      2.0,
      2.0,
      2.0,
      2.25,
      2.5,
      2.5,
      3.0,
      3.0,
      3.25,
      3.375,
      3.5,
      3.5,
      3.5,
      3.5,
      3.75,
      4.0,
      4.5,
      4.5,
      4.5,
      5.0,
      5.0,
      5.0,
      5.0,
      5.5,
      5.5,
      5.5,
      5.75,
      5.75,
      6.0,
      6.0,
      6.0,
      6.0,
      6.0,
      6.125,
      6.25,
      6.375,
      6.5,
      6.625,
      6.75,
      7.0,
      7.0,
      7.0,
      7.25,
      7.25,
      7.5,
      7.5,
      7.75,
      7.75
    ],
    "ioi": [
      0.0,
      0.0,
      0.0,
      0.5,
      0.5,
      0.0,
      0.0,
      0.0,
      0.5,
      0.0,
      0.25,
      0.25,
      0.0,
      0.0,
      0.0,
      0.25,
      0.25,
      0.0,
      0.5,
      0.0,
      0.25,
      0.125,
      0.125,
      0.0,
      0.0,
      0.0,
      0.25,
      0.25,
      0.5,
      0.0,
      0.0,
      0.5,
      0.0,
      0.0,
      0.0,
      0.5,
      0.0,
      0.0,
      0.25,
      0.0,
      0.25,
      0.0,
      0.0,
      0.0,
      0.0,
      0.125,
      0.125,
      0.125,
      0.125,
      0.125,
      0.125,
      0.25,
      0.0,
      0.0,
      0.25,
      0.0,
      0.25,
      0.0,
      0.25,
      0.0,
      0.25
    ],
    "grid": "16th",
    "euclidean_approx": [
      32,
      32
    ],
    "swing_ratio": 1.071
  },
  "pitch": {
    "notes_used": [
      36,
      38,
      42,
      44,
      45,
      46,
      49,
      50,
      51,
      52,
      53
    ],
    "intervals": [
      6,
      2,
      7,
      9,
      6,
      6,
      3,
      6,
      9,
      8,
      1,
      13,
      4,
      4,
      5,
      0,
      9,
      9,
      9,
      9,
      9,
      0,
      6,
      6,
      2,
      7,
      9,
      0,
      6,
      6,
      2,
      8,
      6,
      3,
      7,
      16,
      6,
      10,
      16,
      16,
      14,
      4,
      4,
      4,
      3,
      11,
      0,
      0,
      0,
      0,
      0,
      0,
      7,
      1,
      12,
      4,
      4,
      4,
      4,
      4
    ],
    "register": "low",
    "is_melodic": true,
    "pitch_range": 17,
    "pitch_distribution": {
      "36": 7,
      "42": 26,
      "44": 3,
      "51": 8,
      "45": 2,
      "50": 3,
      "38": 5,
      "46": 2,
      "52": 3,
      "53": 1,
      "49": 1
    }
  },
  "velocity": {
    "mean": 56.7,
    "variance": 903.2,
    "std": 30.1,
    "accents": [
      2,
      3,
      8,
      15,
      16,
      18,
      20,
      26,
      34,
      45
    ],
    "profile": [
      63,
      59,
      101,
      103,
      33,
      62,
      45,
      71,
      104,
      20,
      58,
      74,
      73,
      82,
      86,
      99,
      105,
      3,
      120,
      37,
      114,
      12,
      36,
      57,
      78,
      86,
      122,
      47,
      29,
      37,
      36,
      76,
      72,
      40,
      91,
      74,
      28,
      29,
      58,
      26,
      81,
      64,
      27,
      79,
      48,
      95,
      27,
      26,
      29,
      28,
      25,
      23,
      33,
      77,
      53,
      21,
      34,
      4,
      46,
      39,
      56
    ]
  },
  "notes": [
    {
      "pitch": 36,
      "start_time": 0.0,
      "duration": 0.1042,
      "velocity": 63
    },
    {
      "pitch": 42,
      "start_time": 0.0,
      "duration": 0.0938,
      "velocity": 59
    },
    {
      "pitch": 44,
      "start_time": 0.0,
      "duration": 0.1042,
      "velocity": 101
    },
    {
      "pitch": 51,
      "start_time": 0.0,
      "duration": 0.8438,
      "velocity": 103
    },
    {
      "pitch": 42,
      "start_time": 0.5,
      "duration": 0.1146,
      "velocity": 33
    },
    {
      "pitch": 36,
      "start_time": 1.0,
      "duration": 0.1042,
      "velocity": 62
    },
    {
      "pitch": 42,
      "start_time": 1.0,
      "duration": 0.1042,
      "velocity": 45
    },
    {
      "pitch": 45,
      "start_time": 1.0,
      "duration": 0.125,
      "velocity": 71
    },
    {
      "pitch": 51,
      "start_time": 1.0,
      "duration": 0.6562,
      "velocity": 104
    },
    {
      "pitch": 42,
      "start_time": 1.5,
      "duration": 0.0938,
      "velocity": 20
    },
    {
      "pitch": 50,
      "start_time": 1.5,
      "duration": 0.9583,
      "velocity": 58
    },
    {
      "pitch": 51,
      "start_time": 1.75,
      "duration": 0.1146,
      "velocity": 74
    },
    {
      "pitch": 38,
      "start_time": 2.0,
      "duration": 0.0938,
      "velocity": 73
    },
    {
      "pitch": 42,
      "start_time": 2.0,
      "duration": 0.0833,
      "velocity": 82
    },
    {
      "pitch": 46,
      "start_time": 2.0,
      "duration": 0.1354,
      "velocity": 86
    },
    {
      "pitch": 51,
      "start_time": 2.0,
      "duration": 0.0729,
      "velocity": 99
    },
    {
      "pitch": 51,
      "start_time": 2.25,
      "duration": 0.0938,
      "velocity": 105
    },
    {
      "pitch": 42,
      "start_time": 2.5,
      "duration": 0.0104,
      "velocity": 3
    },
    {
      "pitch": 51,
      "start_time": 2.5,
      "duration": 0.3021,
      "velocity": 120
    },
    {
      "pitch": 42,
      "start_time": 3.0,
      "duration": 0.1042,
      "velocity": 37
    },
    {
      "pitch": 51,
      "start_time": 3.0,
      "duration": 0.1146,
      "velocity": 114
    },
    {
      "pitch": 42,
      "start_time": 3.25,
      "duration": 0.125,
      "velocity": 12
    },
    {
      "pitch": 42,
      "start_time": 3.375,
      "duration": 0.0417,
      "velocity": 36
    },
    {
      "pitch": 36,
      "start_time": 3.5,
      "duration": 0.1042,
      "velocity": 57
    },
    {
      "pitch": 42,
      "start_time": 3.5,
      "duration": 0.25,
      "velocity": 78
    },
    {
      "pitch": 44,
      "start_time": 3.5,
      "duration": 0.125,
      "velocity": 86
    },
    {
      "pitch": 51,
      "start_time": 3.5,
      "duration": 1.2292,
      "velocity": 122
    },
    {
      "pitch": 42,
      "start_time": 3.75,
      "duration": 0.1146,
      "velocity": 47
    },
    {
      "pitch": 42,
      "start_time": 4.0,
      "duration": 0.1146,
      "velocity": 29
    },
    {
      "pitch": 36,
      "start_time": 4.5,
      "duration": 0.0833,
      "velocity": 37
    },
    {
      "pitch": 42,
      "start_time": 4.5,
      "duration": 0.0833,
      "velocity": 36
    },
    {
      "pitch": 44,
      "start_time": 4.5,
      "duration": 0.0938,
      "velocity": 76
    },
    {
      "pitch": 36,
      "start_time": 5.0,
      "duration": 0.1042,
      "velocity": 72
    },
    {
      "pitch": 42,
      "start_time": 5.0,
      "duration": 0.0938,
      "velocity": 40
    },
    {
      "pitch": 45,
      "start_time": 5.0,
      "duration": 0.1042,
      "velocity": 91
    },
    {
      "pitch": 52,
      "start_time": 5.0,
      "duration": 0.0521,
      "velocity": 74
    },
    {
      "pitch": 36,
      "start_time": 5.5,
      "duration": 0.25,
      "velocity": 28
    },
    {
      "pitch": 42,
      "start_time": 5.5,
      "duration": 0.0938,
      "velocity": 29
    },
    {
      "pitch": 52,
      "start_time": 5.5,
      "duration": 0.0417,
      "velocity": 58
    },
    {
      "pitch": 36,
      "start_time": 5.75,
      "duration": 0.1042,
      "velocity": 26
    },
    {
      "pitch": 52,
      "start_time": 5.75,
      "duration": 0.0938,
      "velocity": 81
    },
    {
      "pitch": 38,
      "start_time": 6.0,
      "duration": 0.0938,
      "velocity": 64
    },
    {
      "pitch": 42,
      "start_time": 6.0,
      "duration": 0.125,
      "velocity": 27
    },
    {
      "pitch": 46,
      "start_time": 6.0,
      "duration": 0.1146,
      "velocity": 79
    },
    {
      "pitch": 50,
      "start_time": 6.0,
      "duration": 0.0417,
      "velocity": 48
    },
    {
      "pitch": 53,
      "start_time": 6.0,
      "duration": 1.0417,
      "velocity": 95
    },
    {
      "pitch": 42,
      "start_time": 6.125,
      "duration": 0.125,
      "velocity": 27
    },
    {
      "pitch": 42,
      "start_time": 6.25,
      "duration": 0.125,
      "velocity": 26
    },
    {
      "pitch": 42,
      "start_time": 6.375,
      "duration": 0.125,
      "velocity": 29
    },
    {
      "pitch": 42,
      "start_time": 6.5,
      "duration": 0.125,
      "velocity": 28
    },
    {
      "pitch": 42,
      "start_time": 6.625,
      "duration": 0.125,
      "velocity": 25
    },
    {
      "pitch": 42,
      "start_time": 6.75,
      "duration": 0.0104,
      "velocity": 23
    },
    {
      "pitch": 42,
      "start_time": 7.0,
      "duration": 0.25,
      "velocity": 33
    },
    {
      "pitch": 49,
      "start_time": 7.0,
      "duration": 0.8125,
      "velocity": 77
    },
    {
      "pitch": 50,
      "start_time": 7.0,
      "duration": 0.0417,
      "velocity": 53
    },
    {
      "pitch": 38,
      "start_time": 7.25,
      "duration": 0.25,
      "velocity": 21
    },
    {
      "pitch": 42,
      "start_time": 7.25,
      "duration": 0.25,
      "velocity": 34
    },
    {
      "pitch": 38,
      "start_time": 7.5,
      "duration": 0.1875,
      "velocity": 4
    },
    {
      "pitch": 42,
      "start_time": 7.5,
      "duration": 0.25,
      "velocity": 46
    },
    {
      "pitch": 38,
      "start_time": 7.75,
      "duration": 0.0625,
      "velocity": 39
    },
    {
      "pitch": 42,
      "start_time": 7.75,
      "duration": 0.0521,
      "velocity": 56
    }
  ]
}