{
  "source": {
    "song": "packs",
    "track_index": 0,
    "track_name": "Beat Tools / MIDI Clips / 84 - 92 bpm / Agile Shot Kit groove 06_90 bpm",
    "slot_index": 0,
    "clip_name": "Beat Tools / MIDI Clips / 84 - 92 bpm / Agile Shot Kit groove 06_90 bpm",
    "mid_file": "/Users/darnold/Music/Ableton/Packs/Beat Tools/MIDI Clips/84 - 92 bpm/Agile Shot Kit groove 06_90 bpm.alc"
  },
  "meta": {
    "bpm": 90.0,
    "key": "?",
    "scale": "?",
    "length_beats": 8.0,
    "note_count": 64
  },
  "rhythm": {
    "density": 1.031,
    "hit_positions": [
      0.0,
      0.0,
      0.0,
      0.0,
      0.0,
      0.5,
      0.5,
      0.625,
      0.75,
      0.875,
      1.0,
      1.0,
      1.5,
      1.5,
      1.75,
      1.75,
      2.0,
      2.25,
      2.5,
      2.5,
      2.5,
      2.75,
      3.0,
      3.0,
      3.0,
      3.25,
      3.5,
      3.5,
      3.75,
      3.75,
      4.0,
      4.0,
      4.0,
      4.0,
      4.0,
      4.5,
      4.5,
      4.625,
      4.75,
      4.875,
      5.0,
      5.0,
      5.5,
      5.5,
      5.75,
      5.75,
      6.0,
      6.0,
      6.5,
      6.5,
      6.5,
      6.75,
      7.0,
      7.0,
      7.0,
      7.25,
      7.5,
      7.5,
      7.625,
      7.75,
      7.875,
      8.0,
      8.0,
      8.0
    ],
    "ioi": [
      0.0,
      0.0,
      0.0,
      0.0,
      0.5,
      0.0,
      0.125,
      0.125,
      0.125,
      0.125,
      0.0,
      0.5,
      0.0,
      0.25,
      0.0,
      0.25,
      0.25,
      0.25,
      0.0,
      0.0,
      0.25,
      0.25,
      0.0,
      0.0,
      0.25,
      0.25,
      0.0,
      0.25,
      0.0,
      0.25,
      0.0,
      0.0,
      0.0,
      0.0,
      0.5,
      0.0,
      0.125,
      0.125,
      0.125,
      0.125,
      0.0,
      0.5,
      0.0,
      0.25,
      0.0,
      0.25,
      0.0,
      0.5,
      0.0,
      0.0,
      0.25,
      0.25,
      0.0,
      0.0,
      0.25,
      0.25,
      0.0,
      0.125,
      0.125,
      0.125,
      0.125,
      0.0,
      0.0,
      0.0
    ],
    "grid": "16th",
    "euclidean_approx": [
      32,
      32
    ],
    "swing_ratio": 1.088
  },
  "pitch": {
    "notes_used": [
      36,
      38,
      39,
      40,
      42,
      43,
      44,
      45,
      46
    ],
    "intervals": [
      3,
      1,
      2,
      2,
      8,
      6,
      0,
      0,
      0,
      4,
      4,
      2,
      3,
      7,
      9,
      3,
      0,
      6,
      6,
      1,
      1,
      4,
      4,
      4,
      10,
      0,
      6,
      6,
      3,
      3,
      3,
      1,
      2,
      2,
      8,
      6,
      0,
      0,
      0,
      4,
      4,
      2,
      3,
      7,
      9,
      7,
      4,
      6,
      6,
      1,
      1,
      4,
      4,
      4,
      4,
      6,
      6,
      6,
      0,
      0,
      0,
      3,
      3
    ],
    "register": "low",
    "is_melodic": true,
    "pitch_range": 10,
    "pitch_distribution": {
      "36": 16,
      "39": 4,
      "40": 4,
      "42": 25,
      "44": 2,
      "38": 5,
      "43": 4,
      "45": 2,
      "46": 2
    }
  },
  "velocity": {
    "mean": 81.5,
    "variance": 275.4,
    "std": 16.6,
    "accents": [
      1,
      2,
      4,
      10,
      12,
      13,
      15,
      20,
      22,
      24,
      29,
      31,
      32,
      34,
      40,
      42,
      43,
      45,
      50,
      52,
      54,
      62
    ],
    "profile": [
      84,
      103,
      103,
      68,
      102,
      83,
      55,
      59,
      68,
      68,
      101,
      66,
      103,
      99,
      86,
      99,
      64,
      64,
      85,
      63,
      100,
      62,
      103,
      67,
      99,
      85,
      87,
      56,
      77,
      99,
      83,
      103,
      103,
      66,
      102,
      85,
      54,
      54,
      66,
      68,
      100,
      66,
      103,
      99,
      85,
      99,
      81,
      64,
      84,
      62,
      100,
      64,
      101,
      64,
      101,
      63,
      73,
      64,
      73,
      87,
      87,
      84,
      103,
      68
    ]
  },
  "notes": [
    {
      "pitch": 36,
      "start_time": 0.0,
      "duration": 0.0657,
      "velocity": 84
    },
    {
      "pitch": 39,
      "start_time": 0.0,
      "duration": 0.0715,
      "velocity": 103
    },
    {
      "pitch": 40,
      "start_time": 0.0,
      "duration": 0.0785,
      "velocity": 103
    },
    {
      "pitch": 42,
      "start_time": 0.0,
      "duration": 0.1144,
      "velocity": 68
    },
    {
      "pitch": 44,
      "start_time": 0.0,
      "duration": 0.0698,
      "velocity": 102
    },
    {
      "pitch": 36,
      "start_time": 0.5,
      "duration": 0.1047,
      "velocity": 83
    },
    {
      "pitch": 42,
      "start_time": 0.5,
      "duration": 0.125,
      "velocity": 55
    },
    {
      "pitch": 42,
      "start_time": 0.625,
      "duration": 0.125,
      "velocity": 59
    },
    {
      "pitch": 42,
      "start_time": 0.75,
      "duration": 0.125,
      "velocity": 68
    },
    {
      "pitch": 42,
      "start_time": 0.875,
      "duration": 0.0431,
      "velocity": 68
    },
    {
      "pitch": 38,
      "start_time": 1.0,
      "duration": 0.0813,
      "velocity": 101
    },
    {
      "pitch": 42,
      "start_time": 1.0,
      "duration": 0.192,
      "velocity": 66
    },
    {
      "pitch": 40,
      "start_time": 1.5,
      "duration": 0.0785,
      "velocity": 103
    },
    {
      "pitch": 43,
      "start_time": 1.5,
      "duration": 0.1396,
      "velocity": 99
    },
    {
      "pitch": 36,
      "start_time": 1.75,
      "duration": 0.0467,
      "velocity": 86
    },
    {
      "pitch": 45,
      "start_time": 1.75,
      "duration": 0.0671,
      "velocity": 99
    },
    {
      "pitch": 42,
      "start_time": 2.0,
      "duration": 0.1818,
      "velocity": 64
    },
    {
      "pitch": 42,
      "start_time": 2.25,
      "duration": 0.25,
      "velocity": 64
    },
    {
      "pitch": 36,
      "start_time": 2.5,
      "duration": 0.0918,
      "velocity": 85
    },
    {
      "pitch": 42,
      "start_time": 2.5,
      "duration": 0.25,
      "velocity": 63
    },
    {
      "pitch": 43,
      "start_time": 2.5,
      "duration": 0.1541,
      "velocity": 100
    },
    {
      "pitch": 42,
      "start_time": 2.75,
      "duration": 0.1597,
      "velocity": 62
    },
    {
      "pitch": 38,
      "start_time": 3.0,
      "duration": 0.0816,
      "velocity": 103
    },
    {
      "pitch": 42,
      "start_time": 3.0,
      "duration": 0.1962,
      "velocity": 67
    },
    {
      "pitch": 46,
      "start_time": 3.0,
      "duration": 0.0858,
      "velocity": 99
    },
    {
      "pitch": 36,
      "start_time": 3.25,
      "duration": 0.0611,
      "velocity": 85
    },
    {
      "pitch": 36,
      "start_time": 3.5,
      "duration": 0.0641,
      "velocity": 87
    },
    {
      "pitch": 42,
      "start_time": 3.5,
      "duration": 0.2139,
      "velocity": 56
    },
    {
      "pitch": 36,
      "start_time": 3.75,
      "duration": 0.0349,
      "velocity": 77
    },
    {
      "pitch": 39,
      "start_time": 3.75,
      "duration": 0.08,
      "velocity": 99
    },
    {
      "pitch": 36,
      "start_time": 4.0,
      "duration": 0.0713,
      "velocity": 83
    },
    {
      "pitch": 39,
      "start_time": 4.0,
      "duration": 0.0858,
      "velocity": 103
    },
    {
      "pitch": 40,
      "start_time": 4.0,
      "duration": 0.0812,
      "velocity": 103
    },
    {
      "pitch": 42,
      "start_time": 4.0,
      "duration": 0.2182,
      "velocity": 66
    },
    {
      "pitch": 44,
      "start_time": 4.0,
      "duration": 0.08,
      "velocity": 102
    },
    {
      "pitch": 36,
      "start_time": 4.5,
      "duration": 0.099,
      "velocity": 85
    },
    {
      "pitch": 42,
      "start_time": 4.5,
      "duration": 0.125,
      "velocity": 54
    },
    {
      "pitch": 42,
      "start_time": 4.625,
      "duration": 0.125,
      "velocity": 54
    },
    {
      "pitch": 42,
      "start_time": 4.75,
      "duration": 0.125,
      "velocity": 66
    },
    {
      "pitch": 42,
      "start_time": 4.875,
      "duration": 0.125,
      "velocity": 68
    },
    {
      "pitch": 38,
      "start_time": 5.0,
      "duration": 0.0828,
      "velocity": 100
    },
    {
      "pitch": 42,
      "start_time": 5.0,
      "duration": 0.005,
      "velocity": 66
    },
    {
      "pitch": 40,
      "start_time": 5.5,
      "duration": 0.0885,
      "velocity": 103
    },
    {
      "pitch": 43,
      "start_time": 5.5,
      "duration": 0.2109,
      "velocity": 99
    },
    {
      "pitch": 36,
      "start_time": 5.75,
      "duration": 0.0656,
      "velocity": 85
    },
    {
      "pitch": 45,
      "start_time": 5.75,
      "duration": 0.0743,
      "velocity": 99
    },
    {
      "pitch": 38,
      "start_time": 6.0,
      "duration": 0.25,
      "velocity": 81
    },
    {
      "pitch": 42,
      "start_time": 6.0,
      "duration": 0.2224,
      "velocity": 64
    },
    {
      "pitch": 36,
      "start_time": 6.5,
      "duration": 0.0873,
      "velocity": 84
    },
    {
      "pitch": 42,
      "start_time": 6.5,
      "duration": 0.25,
      "velocity": 62
    },
    {
      "pitch": 43,
      "start_time": 6.5,
      "duration": 0.1775,
      "velocity": 100
    },
    {
      "pitch": 42,
      "start_time": 6.75,
      "duration": 0.25,
      "velocity": 64
    },
    {
      "pitch": 38,
      "start_time": 7.0,
      "duration": 0.0888,
      "velocity": 101
    },
    {
      "pitch": 42,
      "start_time": 7.0,
      "duration": 0.25,
      "velocity": 64
    },
    {
      "pitch": 46,
      "start_time": 7.0,
      "duration": 0.0945,
      "velocity": 101
    },
    {
      "pitch": 42,
      "start_time": 7.25,
      "duration": 0.25,
      "velocity": 63
    },
    {
      "pitch": 36,
      "start_time": 7.5,
      "duration": 0.125,
      "velocity": 73
    },
    {
      "pitch": 42,
      "start_time": 7.5,
      "duration": 0.1017,
      "velocity": 64
    },
    {
      "pitch": 36,
      "start_time": 7.625,
      "duration": 0.125,
      "velocity": 73
    },
    {
      "pitch": 36,
      "start_time": 7.75,
      "duration": 0.125,
      "velocity": 87
    },
    {
      "pitch": 36,
      "start_time": 7.875,
      "duration": 0.0117,
      "velocity": 87
    },
    {
      "pitch": 36,
      "start_time": 8.0,
      "duration": 0.0215,
      "velocity": 84
    },
    {
      "pitch": 39,
      "start_time": 8.0,
      "duration": 0.0043,
      "velocity": 103
    },
    {
      "pitch": 42,
      "start_time": 8.0,
      "duration": 0.0036,
      "velocity": 68
    }
  ]
}