{
  "source": {
    "song": "packs",
    "track_index": 0,
    "track_name": "Beat Tools / MIDI Clips / 132 - 152 bpm / Castle Kit Groove 02_140 bpm",
    "slot_index": 0,
    "clip_name": "Beat Tools / MIDI Clips / 132 - 152 bpm / Castle Kit Groove 02_140 bpm",
    "mid_file": "/Users/darnold/Music/Ableton/Packs/Beat Tools/MIDI Clips/132 - 152 bpm/Castle Kit Groove 02_140 bpm.alc"
  },
  "meta": {
    "bpm": 140.0,
    "key": "?",
    "scale": "?",
    "length_beats": 8.0,
    "note_count": 39
  },
  "rhythm": {
    "density": 1.5,
    "hit_positions": [
      0.0,
      0.0,
      0.0,
      0.5,
      0.75,
      1.0,
      1.0,
      1.25,
      1.5,
      1.75,
      2.0,
      2.5,
      3.0,
      3.5,
      3.75,
      3.75,
      4.0,
      4.0,
      4.0,
      4.5,
      5.0,
      5.0,
      5.5,
      6.0,
      6.0,
      6.25,
      6.25,
      6.5,
      6.5,
      6.75,
      7.0,
      7.0,
      7.0,
      7.25,
      7.25,
      7.5,
      7.5,
      7.5,
      7.75
    ],
    "ioi": [
      0.0,
      0.0,
      0.5,
      0.25,
      0.25,
      0.0,
      0.25,
      0.25,
      0.25,
      0.25,
      0.5,
      0.5,
      0.5,
      0.25,
      0.0,
      0.25,
      0.0,
      0.0,
      0.5,
      0.5,
      0.0,
      0.5,
      0.5,
      0.0,
      0.25,
      0.0,
      0.25,
      0.0,
      0.25,
      0.25,
      0.0,
      0.0,
      0.25,
      0.0,
      0.25,
      0.0,
      0.0,
      0.25,
      0.25
    ],
    "grid": "8th",
    "euclidean_approx": [
      32,
      32
    ],
    "swing_ratio": 1.0
  },
  "pitch": {
    "notes_used": [
      36,
      37,
      38,
      39,
      40,
      42,
      43,
      44,
      46,
      47,
      48,
      49
    ],
    "intervals": [
      6,
      6,
      6,
      5,
      5,
      1,
      1,
      2,
      6,
      2,
      8,
      4,
      0,
      6,
      6,
      6,
      6,
      7,
      5,
      2,
      5,
      10,
      1,
      4,
      2,
      2,
      2,
      2,
      0,
      3,
      1,
      2,
      2,
      2,
      3,
      1,
      2,
      3
    ],
    "register": "low",
    "is_melodic": true,
    "pitch_range": 13,
    "pitch_distribution": {
      "36": 4,
      "42": 16,
      "48": 1,
      "37": 2,
      "43": 1,
      "44": 2,
      "38": 2,
      "46": 1,
      "49": 1,
      "47": 1,
      "40": 5,
      "39": 3
    }
  },
  "velocity": {
    "mean": 46.9,
    "variance": 545.2,
    "std": 23.4,
    "accents": [
      0,
      2,
      16,
      18,
      24
    ],
    "profile": [
      81,
      55,
      109,
      38,
      37,
      33,
      52,
      69,
      32,
      24,
      63,
      65,
      47,
      3,
      33,
      35,
      74,
      48,
      101,
      61,
      35,
      18,
      57,
      65,
      74,
      3,
      35,
      17,
      39,
      34,
      57,
      36,
      38,
      7,
      53,
      46,
      33,
      63,
      58
    ]
  },
  "notes": [
    {
      "pitch": 36,
      "start_time": 0.0,
      "duration": 0.1042,
      "velocity": 81
    },
    {
      "pitch": 42,
      "start_time": 0.0,
      "duration": 0.1146,
      "velocity": 55
    },
    {
      "pitch": 48,
      "start_time": 0.0,
      "duration": 3.8958,
      "velocity": 109
    },
    {
      "pitch": 42,
      "start_time": 0.5,
      "duration": 0.1146,
      "velocity": 38
    },
    {
      "pitch": 37,
      "start_time": 0.75,
      "duration": 0.125,
      "velocity": 37
    },
    {
      "pitch": 42,
      "start_time": 1.0,
      "duration": 0.0938,
      "velocity": 33
    },
    {
      "pitch": 43,
      "start_time": 1.0,
      "duration": 0.125,
      "velocity": 52
    },
    {
      "pitch": 44,
      "start_time": 1.25,
      "duration": 0.1146,
      "velocity": 69
    },
    {
      "pitch": 42,
      "start_time": 1.5,
      "duration": 0.0833,
      "velocity": 32
    },
    {
      "pitch": 36,
      "start_time": 1.75,
      "duration": 0.0729,
      "velocity": 24
    },
    {
      "pitch": 38,
      "start_time": 2.0,
      "duration": 0.1354,
      "velocity": 63
    },
    {
      "pitch": 46,
      "start_time": 2.5,
      "duration": 0.5312,
      "velocity": 65
    },
    {
      "pitch": 42,
      "start_time": 3.0,
      "duration": 0.1146,
      "velocity": 47
    },
    {
      "pitch": 42,
      "start_time": 3.5,
      "duration": 0.25,
      "velocity": 3
    },
    {
      "pitch": 36,
      "start_time": 3.75,
      "duration": 0.0938,
      "velocity": 33
    },
    {
      "pitch": 42,
      "start_time": 3.75,
      "duration": 0.0625,
      "velocity": 35
    },
    {
      "pitch": 36,
      "start_time": 4.0,
      "duration": 0.1042,
      "velocity": 74
    },
    {
      "pitch": 42,
      "start_time": 4.0,
      "duration": 0.1146,
      "velocity": 48
    },
    {
      "pitch": 49,
      "start_time": 4.0,
      "duration": 0.1354,
      "velocity": 101
    },
    {
      "pitch": 44,
      "start_time": 4.5,
      "duration": 0.1458,
      "velocity": 61
    },
    {
      "pitch": 42,
      "start_time": 5.0,
      "duration": 0.1146,
      "velocity": 35
    },
    {
      "pitch": 47,
      "start_time": 5.0,
      "duration": 0.8229,
      "velocity": 18
    },
    {
      "pitch": 37,
      "start_time": 5.5,
      "duration": 0.1146,
      "velocity": 57
    },
    {
      "pitch": 38,
      "start_time": 6.0,
      "duration": 0.125,
      "velocity": 65
    },
    {
      "pitch": 42,
      "start_time": 6.0,
      "duration": 0.25,
      "velocity": 74
    },
    {
      "pitch": 40,
      "start_time": 6.25,
      "duration": 0.25,
      "velocity": 3
    },
    {
      "pitch": 42,
      "start_time": 6.25,
      "duration": 0.25,
      "velocity": 35
    },
    {
      "pitch": 40,
      "start_time": 6.5,
      "duration": 0.2396,
      "velocity": 17
    },
    {
      "pitch": 42,
      "start_time": 6.5,
      "duration": 0.25,
      "velocity": 39
    },
    {
      "pitch": 42,
      "start_time": 6.75,
      "duration": 0.25,
      "velocity": 34
    },
    {
      "pitch": 39,
      "start_time": 7.0,
      "duration": 0.125,
      "velocity": 57
    },
    {
      "pitch": 40,
      "start_time": 7.0,
      "duration": 0.25,
      "velocity": 36
    },
    {
      "pitch": 42,
      "start_time": 7.0,
      "duration": 0.25,
      "velocity": 38
    },
    {
      "pitch": 40,
      "start_time": 7.25,
      "duration": 0.25,
      "velocity": 7
    },
    {
      "pitch": 42,
      "start_time": 7.25,
      "duration": 0.25,
      "velocity": 53
    },
    {
      "pitch": 39,
      "start_time": 7.5,
      "duration": 0.1458,
      "velocity": 46
    },
    {
      "pitch": 40,
      "start_time": 7.5,
      "duration": 0.2188,
      "velocity": 33
    },
    {
      "pitch": 42,
      "start_time": 7.5,
      "duration": 0.1979,
      "velocity": 63
    },
    {
      "pitch": 39,
      "start_time": 7.75,
      "duration": 0.0833,
      "velocity": 58
    }
  ]
}