{
  "source": {
    "song": "packs",
    "track_index": 0,
    "track_name": "Beat Tools / MIDI Clips / 59 - 80 bpm / Abyss Kit groove 04_62 bpm",
    "slot_index": 0,
    "clip_name": "Beat Tools / MIDI Clips / 59 - 80 bpm / Abyss Kit groove 04_62 bpm",
    "mid_file": "/Users/darnold/Music/Ableton/Packs/Beat Tools/MIDI Clips/59 - 80 bpm/Abyss Kit groove 04_62 bpm.alc"
  },
  "meta": {
    "bpm": 62.0,
    "key": "?",
    "scale": "?",
    "length_beats": 8.0,
    "note_count": 49
  },
  "rhythm": {
    "density": 0.938,
    "hit_positions": [
      0.0,
      0.0,
      0.0,
      0.0,
      0.5,
      0.75,
      0.75,
      1.0,
      1.0,
      1.2396,
      1.5,
      1.75,
      2.2292,
      2.5,
      2.75,
      3.0,
      3.0,
      3.5,
      3.75,
      4.0,
      4.0,
      4.0,
      4.25,
      4.5,
      4.5,
      4.75,
      4.75,
      5.0,
      5.0,
      5.2604,
      5.5,
      5.75,
      6.0,
      6.25,
      6.5,
      6.75,
      6.75,
      6.875,
      7.0,
      7.0,
      7.0,
      7.25,
      7.25,
      7.5,
      7.5,
      7.5,
      7.75,
      7.75,
      8.0
    ],
    "ioi": [
      0.0,
      0.0,
      0.0,
      0.5,
      0.25,
      0.0,
      0.25,
      0.0,
      0.2396,
      0.2604,
      0.25,
      0.4792,
      0.2708,
      0.25,
      0.25,
      0.0,
      0.5,
      0.25,
      0.25,
      0.0,
      0.0,
      0.25,
      0.25,
      0.0,
      0.25,
      0.0,
      0.25,
      0.0,
      0.2604,
      0.2396,
      0.25,
      0.25,
      0.25,
      0.25,
      0.25,
      0.0,
      0.125,
      0.125,
      0.0,
      0.0,
      0.25,
      0.0,
      0.25,
      0.0,
      0.0,
      0.25,
      0.0,
      0.25,
      0.0
    ],
    "grid": "16th",
    "euclidean_approx": [
      32,
      32
    ],
    "swing_ratio": 1.03
  },
  "pitch": {
    "notes_used": [
      36,
      38,
      40,
      42,
      43,
      44,
      45,
      46,
      48,
      49,
      50,
      51
    ],
    "intervals": [
      9,
      1,
      2,
      6,
      0,
      1,
      5,
      4,
      4,
      2,
      8,
      6,
      2,
      6,
      4,
      4,
      2,
      7,
      15,
      9,
      3,
      12,
      0,
      6,
      0,
      1,
      5,
      4,
      4,
      2,
      8,
      5,
      11,
      2,
      2,
      4,
      4,
      0,
      2,
      2,
      2,
      11,
      11,
      4,
      6,
      10,
      11,
      15
    ],
    "register": "low",
    "is_melodic": true,
    "pitch_range": 15,
    "pitch_distribution": {
      "36": 9,
      "45": 2,
      "46": 1,
      "48": 2,
      "42": 10,
      "43": 2,
      "38": 10,
      "44": 4,
      "51": 3,
      "49": 1,
      "40": 4,
      "50": 1
    }
  },
  "velocity": {
    "mean": 79.5,
    "variance": 1703.7,
    "std": 41.3,
    "accents": [
      0,
      3,
      6,
      13,
      15,
      19,
      20,
      21,
      22,
      23,
      26,
      27,
      34,
      38,
      45,
      48
    ],
    "profile": [
      127,
      100,
      31,
      127,
      55,
      55,
      127,
      120,
      55,
      7,
      120,
      63,
      7,
      127,
      55,
      124,
      55,
      63,
      63,
      124,
      125,
      122,
      127,
      127,
      55,
      55,
      127,
      127,
      55,
      7,
      106,
      63,
      100,
      7,
      127,
      7,
      55,
      7,
      124,
      39,
      55,
      63,
      63,
      71,
      63,
      127,
      95,
      63,
      127
    ]
  },
  "notes": [
    {
      "pitch": 36,
      "start_time": 0.0,
      "duration": 0.8438,
      "velocity": 127
    },
    {
      "pitch": 45,
      "start_time": 0.0,
      "duration": 2.0,
      "velocity": 100
    },
    {
      "pitch": 46,
      "start_time": 0.0,
      "duration": 1.3646,
      "velocity": 31
    },
    {
      "pitch": 48,
      "start_time": 0.0,
      "duration": 3.9688,
      "velocity": 127
    },
    {
      "pitch": 42,
      "start_time": 0.5,
      "duration": 0.125,
      "velocity": 55
    },
    {
      "pitch": 42,
      "start_time": 0.75,
      "duration": 0.125,
      "velocity": 55
    },
    {
      "pitch": 43,
      "start_time": 0.75,
      "duration": 0.2708,
      "velocity": 127
    },
    {
      "pitch": 38,
      "start_time": 1.0,
      "duration": 0.2396,
      "velocity": 120
    },
    {
      "pitch": 42,
      "start_time": 1.0,
      "duration": 0.1146,
      "velocity": 55
    },
    {
      "pitch": 38,
      "start_time": 1.2396,
      "duration": 0.4479,
      "velocity": 7
    },
    {
      "pitch": 36,
      "start_time": 1.5,
      "duration": 0.8438,
      "velocity": 120
    },
    {
      "pitch": 44,
      "start_time": 1.75,
      "duration": 0.2604,
      "velocity": 63
    },
    {
      "pitch": 38,
      "start_time": 2.2292,
      "duration": 0.2604,
      "velocity": 7
    },
    {
      "pitch": 36,
      "start_time": 2.5,
      "duration": 0.3958,
      "velocity": 127
    },
    {
      "pitch": 42,
      "start_time": 2.75,
      "duration": 0.125,
      "velocity": 55
    },
    {
      "pitch": 38,
      "start_time": 3.0,
      "duration": 0.875,
      "velocity": 124
    },
    {
      "pitch": 42,
      "start_time": 3.0,
      "duration": 0.0729,
      "velocity": 55
    },
    {
      "pitch": 44,
      "start_time": 3.5,
      "duration": 0.2083,
      "velocity": 63
    },
    {
      "pitch": 51,
      "start_time": 3.75,
      "duration": 0.2292,
      "velocity": 63
    },
    {
      "pitch": 36,
      "start_time": 4.0,
      "duration": 0.25,
      "velocity": 124
    },
    {
      "pitch": 45,
      "start_time": 4.0,
      "duration": 2.0208,
      "velocity": 125
    },
    {
      "pitch": 48,
      "start_time": 4.0,
      "duration": 2.0,
      "velocity": 122
    },
    {
      "pitch": 36,
      "start_time": 4.25,
      "duration": 0.25,
      "velocity": 127
    },
    {
      "pitch": 36,
      "start_time": 4.5,
      "duration": 0.25,
      "velocity": 127
    },
    {
      "pitch": 42,
      "start_time": 4.5,
      "duration": 0.125,
      "velocity": 55
    },
    {
      "pitch": 42,
      "start_time": 4.75,
      "duration": 0.125,
      "velocity": 55
    },
    {
      "pitch": 43,
      "start_time": 4.75,
      "duration": 0.2812,
      "velocity": 127
    },
    {
      "pitch": 38,
      "start_time": 5.0,
      "duration": 0.2604,
      "velocity": 127
    },
    {
      "pitch": 42,
      "start_time": 5.0,
      "duration": 0.0521,
      "velocity": 55
    },
    {
      "pitch": 38,
      "start_time": 5.2604,
      "duration": 0.25,
      "velocity": 7
    },
    {
      "pitch": 36,
      "start_time": 5.5,
      "duration": 0.8438,
      "velocity": 106
    },
    {
      "pitch": 44,
      "start_time": 5.75,
      "duration": 0.2188,
      "velocity": 63
    },
    {
      "pitch": 49,
      "start_time": 6.0,
      "duration": 2.0,
      "velocity": 100
    },
    {
      "pitch": 38,
      "start_time": 6.25,
      "duration": 0.3438,
      "velocity": 7
    },
    {
      "pitch": 36,
      "start_time": 6.5,
      "duration": 0.25,
      "velocity": 127
    },
    {
      "pitch": 38,
      "start_time": 6.75,
      "duration": 0.125,
      "velocity": 7
    },
    {
      "pitch": 42,
      "start_time": 6.75,
      "duration": 0.125,
      "velocity": 55
    },
    {
      "pitch": 38,
      "start_time": 6.875,
      "duration": 0.0625,
      "velocity": 7
    },
    {
      "pitch": 38,
      "start_time": 7.0,
      "duration": 0.375,
      "velocity": 124
    },
    {
      "pitch": 40,
      "start_time": 7.0,
      "duration": 0.2292,
      "velocity": 39
    },
    {
      "pitch": 42,
      "start_time": 7.0,
      "duration": 0.125,
      "velocity": 55
    },
    {
      "pitch": 40,
      "start_time": 7.25,
      "duration": 0.2292,
      "velocity": 63
    },
    {
      "pitch": 51,
      "start_time": 7.25,
      "duration": 0.2188,
      "velocity": 63
    },
    {
      "pitch": 40,
      "start_time": 7.5,
      "duration": 0.2292,
      "velocity": 71
    },
    {
      "pitch": 44,
      "start_time": 7.5,
      "duration": 0.1979,
      "velocity": 63
    },
    {
      "pitch": 50,
      "start_time": 7.5,
      "duration": 0.4583,
      "velocity": 127
    },
    {
      "pitch": 40,
      "start_time": 7.75,
      "duration": 0.25,
      "velocity": 95
    },
    {
      "pitch": 51,
      "start_time": 7.75,
      "duration": 0.2292,
      "velocity": 63
    },
    {
      "pitch": 36,
      "start_time": 8.0,
      "duration": 0.001,
      "velocity": 127
    }
  ]
}