{
  "source": {
    "song": "packs",
    "track_index": 0,
    "track_name": "Beat Tools / MIDI Clips / 132 - 152 bpm / Keys 2 Love Kit groove 03_144bpm",
    "slot_index": 0,
    "clip_name": "Beat Tools / MIDI Clips / 132 - 152 bpm / Keys 2 Love Kit groove 03_144bpm",
    "mid_file": "/Users/darnold/Music/Ableton/Packs/Beat Tools/MIDI Clips/132 - 152 bpm/Keys 2 Love Kit groove 03_144bpm.alc"
  },
  "meta": {
    "bpm": 144.0,
    "key": "?",
    "scale": "?",
    "length_beats": 8.0,
    "note_count": 30
  },
  "rhythm": {
    "density": 0.656,
    "hit_positions": [
      0.0,
      0.0,
      0.0312,
      0.5,
      1.0,
      1.0417,
      1.0417,
      1.5,
      1.5,
      2.0,
      2.0,
      2.0417,
      2.5,
      3.0,
      3.0,
      3.0104,
      3.5,
      3.5,
      3.8021,
      4.0,
      4.5,
      5.0,
      5.5,
      5.5729,
      5.6875,
      6.0,
      6.0,
      6.5,
      7.0,
      7.5
    ],
    "ioi": [
      0.0,
      0.0312,
      0.4688,
      0.5,
      0.0417,
      0.0,
      0.4583,
      0.0,
      0.5,
      0.0,
      0.0417,
      0.4583,
      0.5,
      0.0,
      0.0104,
      0.4896,
      0.0,
      0.3021,
      0.1979,
      0.5,
      0.5,
      0.5,
      0.0729,
      0.1146,
      0.3125,
      0.0,
      0.5,
      0.5,
      0.5,
      0.5
    ],
    "grid": "16th",
    "euclidean_approx": [
      30,
      32
    ],
    "swing_ratio": 1.208
  },
  "pitch": {
    "notes_used": [
      39,
      40,
      41,
      42,
      46,
      47,
      48,
      50,
      51,
      54,
      56,
      59
    ],
    "intervals": [
      2,
      5,
      5,
      4,
      2,
      3,
      11,
      2,
      1,
      1,
      8,
      8,
      3,
      1,
      7,
      7,
      2,
      14,
      14,
      0,
      4,
      4,
      17,
      5,
      13,
      1,
      0,
      4,
      4
    ],
    "register": "low",
    "is_melodic": true,
    "pitch_range": 20,
    "pitch_distribution": {
      "40": 4,
      "42": 12,
      "47": 2,
      "46": 3,
      "48": 1,
      "51": 1,
      "41": 2,
      "50": 1,
      "39": 1,
      "56": 1,
      "59": 1,
      "54": 1
    }
  },
  "velocity": {
    "mean": 112.8,
    "variance": 198.9,
    "std": 14.1,
    "accents": [
      14,
      15,
      16
    ],
    "profile": [
      122,
      105,
      125,
      116,
      116,
      69,
      126,
      119,
      105,
      126,
      111,
      126,
      116,
      119,
      127,
      127,
      127,
      109,
      80,
      116,
      112,
      116,
      108,
      80,
      106,
      125,
      112,
      116,
      115,
      107
    ]
  },
  "notes": [
    {
      "pitch": 40,
      "start_time": 0.0,
      "duration": 0.0938,
      "velocity": 122
    },
    {
      "pitch": 42,
      "start_time": 0.0,
      "duration": 0.0625,
      "velocity": 105
    },
    {
      "pitch": 47,
      "start_time": 0.0312,
      "duration": 0.1875,
      "velocity": 125
    },
    {
      "pitch": 42,
      "start_time": 0.5,
      "duration": 0.0938,
      "velocity": 116
    },
    {
      "pitch": 46,
      "start_time": 1.0,
      "duration": 0.1667,
      "velocity": 116
    },
    {
      "pitch": 48,
      "start_time": 1.0417,
      "duration": 0.0938,
      "velocity": 69
    },
    {
      "pitch": 51,
      "start_time": 1.0417,
      "duration": 0.1875,
      "velocity": 126
    },
    {
      "pitch": 40,
      "start_time": 1.5,
      "duration": 0.125,
      "velocity": 119
    },
    {
      "pitch": 42,
      "start_time": 1.5,
      "duration": 0.0625,
      "velocity": 105
    },
    {
      "pitch": 41,
      "start_time": 2.0,
      "duration": 0.2188,
      "velocity": 126
    },
    {
      "pitch": 42,
      "start_time": 2.0,
      "duration": 0.0833,
      "velocity": 111
    },
    {
      "pitch": 50,
      "start_time": 2.0417,
      "duration": 0.1458,
      "velocity": 126
    },
    {
      "pitch": 42,
      "start_time": 2.5,
      "duration": 0.1042,
      "velocity": 116
    },
    {
      "pitch": 39,
      "start_time": 3.0,
      "duration": 0.1771,
      "velocity": 119
    },
    {
      "pitch": 40,
      "start_time": 3.0,
      "duration": 0.1771,
      "velocity": 127
    },
    {
      "pitch": 47,
      "start_time": 3.0104,
      "duration": 0.0729,
      "velocity": 127
    },
    {
      "pitch": 40,
      "start_time": 3.5,
      "duration": 0.0833,
      "velocity": 127
    },
    {
      "pitch": 42,
      "start_time": 3.5,
      "duration": 0.0833,
      "velocity": 109
    },
    {
      "pitch": 56,
      "start_time": 3.8021,
      "duration": 0.0729,
      "velocity": 80
    },
    {
      "pitch": 42,
      "start_time": 4.0,
      "duration": 0.0938,
      "velocity": 116
    },
    {
      "pitch": 42,
      "start_time": 4.5,
      "duration": 0.1562,
      "velocity": 112
    },
    {
      "pitch": 46,
      "start_time": 5.0,
      "duration": 0.1771,
      "velocity": 116
    },
    {
      "pitch": 42,
      "start_time": 5.5,
      "duration": 0.0729,
      "velocity": 108
    },
    {
      "pitch": 59,
      "start_time": 5.5729,
      "duration": 0.0938,
      "velocity": 80
    },
    {
      "pitch": 54,
      "start_time": 5.6875,
      "duration": 0.0625,
      "velocity": 106
    },
    {
      "pitch": 41,
      "start_time": 6.0,
      "duration": 0.1875,
      "velocity": 125
    },
    {
      "pitch": 42,
      "start_time": 6.0,
      "duration": 0.0833,
      "velocity": 112
    },
    {
      "pitch": 42,
      "start_time": 6.5,
      "duration": 0.0938,
      "velocity": 116
    },
    {
      "pitch": 46,
      "start_time": 7.0,
      "duration": 0.1562,
      "velocity": 115
    },
    {
      "pitch": 42,
      "start_time": 7.5,
      "duration": 0.1667,
      "velocity": 107
    }
  ]
}