{
  "source": {
    "song": "packs",
    "track_index": 0,
    "track_name": "Beat Tools / MIDI Clips / 132 - 152 bpm / Durty Kit groove 01_134 bpm",
    "slot_index": 0,
    "clip_name": "Beat Tools / MIDI Clips / 132 - 152 bpm / Durty Kit groove 01_134 bpm",
    "mid_file": "/Users/darnold/Music/Ableton/Packs/Beat Tools/MIDI Clips/132 - 152 bpm/Durty Kit groove 01_134 bpm.alc"
  },
  "meta": {
    "bpm": 134.0,
    "key": "?",
    "scale": "?",
    "length_beats": 16.0,
    "note_count": 136
  },
  "rhythm": {
    "density": 1.656,
    "hit_positions": [
      0.0,
      0.0,
      0.0,
      0.5,
      1.0,
      1.0,
      1.5,
      1.5,
      1.5,
      2.0,
      2.0,
      2.0,
      2.0,
      2.0,
      2.25,
      2.5,
      2.5,
      2.75,
      3.0,
      3.0,
      3.0,
      3.0,
      3.25,
      3.5,
      3.75,
      4.0,
      4.0,
      4.0,
      4.5,
      4.5,
      4.75,
      4.75,
      5.0,
      5.0,
      5.25,
      5.5,
      5.5,
      5.5,
      5.5,
      5.5,
      5.75,
      5.75,
      5.75,
      6.0,
      6.0,
      6.0,
      6.0,
      6.0,
      6.0,
      6.25,
      6.25,
      6.5,
      6.5,
      6.5,
      6.5,
      6.75,
      6.75,
      7.0,
      7.0,
      7.0,
      7.25,
      7.25,
      7.25,
      7.5,
      7.5,
      8.0,
      8.0,
      8.0,
      8.0,
      8.5,
      8.5,
      9.0,
      9.0,
      9.0,
      9.25,
      9.5,
      9.5,
      9.5,
      10.0,
      10.0,
      10.0,
      10.0,
      10.0,
      10.25,
      10.5,
      10.75,
      11.0,
      11.0,
      11.0,
      11.25,
      11.5,
      12.0,
      12.0,
      12.5,
      12.5,
      12.5,
      12.75,
      13.0,
      13.0,
      13.0,
      13.0,
      13.0,
      13.25,
      13.5,
      13.5,
      13.5,
      13.75,
      13.75,
      13.75,
      14.0,
      14.0,
      14.0,
      14.0,
      14.0,
      14.25,
      14.5,
      14.5,
      14.5,
      14.5,
      14.5,
      14.75,
      14.75,
      15.0,
      15.0,
      15.0,
      15.0,
      15.0,
      15.25,
      15.25,
      15.25,
      15.25,
      15.25,
      15.5,
      15.5,
      15.75,
      15.75
    ],
    "ioi": [
      0.0,
      0.0,
      0.5,
      0.5,
      0.0,
      0.5,
      0.0,
      0.0,
      0.5,
      0.0,
      0.0,
      0.0,
      0.0,
      0.25,
      0.25,
      0.0,
      0.25,
      0.25,
      0.0,
      0.0,
      0.0,
      0.25,
      0.25,
      0.25,
      0.25,
      0.0,
      0.0,
      0.5,
      0.0,
      0.25,
      0.0,
      0.25,
      0.0,
      0.25,
      0.25,
      0.0,
      0.0,
      0.0,
      0.0,
      0.25,
      0.0,
      0.0,
      0.25,
      0.0,
      0.0,
      0.0,
      0.0,
      0.0,
      0.25,
      0.0,
      0.25,
      0.0,
      0.0,
      0.0,
      0.25,
      0.0,
      0.25,
      0.0,
      0.0,
      0.25,
      0.0,
      0.0,
      0.25,
      0.0,
      0.5,
      0.0,
      0.0,
      0.0,
      0.5,
      0.0,
      0.5,
      0.0,
      0.0,
      0.25,
      0.25,
      0.0,
      0.0,
      0.5,
      0.0,
      0.0,
      0.0,
      0.0,
      0.25,
      0.25,
      0.25,
      0.25,
      0.0,
      0.0,
      0.25,
      0.25,
      0.5,
      0.0,
      0.5,
      0.0,
      0.0,
      0.25,
      0.25,
      0.0,
      0.0,
      0.0,
      0.0,
      0.25,
      0.25,
      0.0,
      0.0,
      0.25,
      0.0,
      0.0,
      0.25,
      0.0,
      0.0,
      0.0,
      0.0,
      0.25,
      0.25,
      0.0,
      0.0,
      0.0,
      0.0,
      0.25,
      0.0,
      0.25,
      0.0,
      0.0,
      0.0,
      0.0,
      0.25,
      0.0,
      0.0,
      0.0,
      0.0,
      0.25,
      0.0,
      0.25,
      0.0,
      0.25
    ],
    "grid": "8th",
    "euclidean_approx": [
      64,
      64
    ],
    "swing_ratio": 1.0
  },
  "pitch": {
    "notes_used": [
      36,
      37,
      38,
      39,
      40,
      41,
      42,
      43,
      44,
      45,
      46,
      47,
      48,
      49
    ],
    "intervals": [
      6,
      2,
      1,
      1,
      1,
      7,
      7,
      3,
      8,
      1,
      3,
      1,
      6,
      6,
      1,
      1,
      0,
      7,
      6,
      1,
      5,
      5,
      1,
      1,
      3,
      2,
      1,
      1,
      1,
      3,
      2,
      0,
      1,
      1,
      5,
      3,
      2,
      1,
      4,
      5,
      1,
      4,
      10,
      1,
      1,
      3,
      1,
      4,
      7,
      3,
      3,
      3,
      1,
      1,
      8,
      6,
      3,
      2,
      3,
      8,
      3,
      8,
      11,
      4,
      5,
      6,
      1,
      1,
      2,
      1,
      7,
      6,
      1,
      1,
      6,
      7,
      3,
      8,
      1,
      3,
      1,
      6,
      6,
      1,
      1,
      7,
      6,
      6,
      5,
      0,
      1,
      1,
      7,
      6,
      1,
      2,
      9,
      4,
      2,
      1,
      2,
      3,
      0,
      1,
      2,
      9,
      4,
      3,
      5,
      1,
      3,
      1,
      2,
      3,
      2,
      2,
      1,
      1,
      3,
      10,
      6,
      6,
      3,
      1,
      1,
      1,
      6,
      3,
      2,
      1,
      5,
      6,
      1,
      1,
      1
    ],
    "register": "low",
    "is_melodic": true,
    "pitch_range": 13,
    "pitch_distribution": {
      "36": 10,
      "42": 34,
      "44": 4,
      "43": 40,
      "46": 2,
      "38": 4,
      "39": 4,
      "49": 2,
      "48": 4,
      "40": 12,
      "37": 8,
      "47": 4,
      "45": 6,
      "41": 2
    }
  },
  "velocity": {
    "mean": 46.6,
    "variance": 864.7,
    "std": 29.4,
    "accents": [
      2,
      8,
      10,
      21,
      24,
      45,
      48,
      53,
      62,
      65,
      68,
      79,
      82,
      86,
      88,
      89,
      92,
      97,
      106,
      109,
      110,
      118,
      131
    ],
    "profile": [
      75,
      50,
      77,
      23,
      39,
      21,
      55,
      21,
      78,
      67,
      127,
      43,
      19,
      70,
      21,
      32,
      11,
      15,
      76,
      51,
      26,
      87,
      43,
      2,
      111,
      19,
      37,
      41,
      59,
      24,
      19,
      20,
      40,
      30,
      38,
      3,
      22,
      38,
      56,
      13,
      45,
      21,
      24,
      31,
      61,
      127,
      42,
      21,
      84,
      40,
      25,
      33,
      8,
      107,
      45,
      11,
      40,
      23,
      32,
      44,
      8,
      23,
      93,
      29,
      23,
      101,
      63,
      34,
      97,
      25,
      20,
      4,
      38,
      34,
      55,
      66,
      53,
      55,
      56,
      127,
      43,
      27,
      79,
      27,
      20,
      46,
      82,
      53,
      103,
      87,
      21,
      46,
      99,
      39,
      31,
      29,
      28,
      98,
      28,
      42,
      24,
      63,
      39,
      48,
      23,
      50,
      86,
      23,
      41,
      86,
      127,
      40,
      32,
      65,
      52,
      25,
      48,
      69,
      118,
      34,
      3,
      29,
      27,
      31,
      36,
      41,
      25,
      26,
      27,
      48,
      30,
      127,
      54,
      34,
      58,
      54
    ]
  },
  "notes": [
    {
      "pitch": 36,
      "start_time": 0.0,
      "duration": 0.0938,
      "velocity": 75
    },
    {
      "pitch": 42,
      "start_time": 0.0,
      "duration": 0.0938,
      "velocity": 50
    },
    {
      "pitch": 44,
      "start_time": 0.0,
      "duration": 0.1146,
      "velocity": 77
    },
    {
      "pitch": 43,
      "start_time": 0.5,
      "duration": 0.5,
      "velocity": 23
    },
    {
      "pitch": 42,
      "start_time": 1.0,
      "duration": 0.1042,
      "velocity": 39
    },
    {
      "pitch": 43,
      "start_time": 1.0,
      "duration": 0.5,
      "velocity": 21
    },
    {
      "pitch": 36,
      "start_time": 1.5,
      "duration": 0.0833,
      "velocity": 55
    },
    {
      "pitch": 43,
      "start_time": 1.5,
      "duration": 0.5,
      "velocity": 21
    },
    {
      "pitch": 46,
      "start_time": 1.5,
      "duration": 0.4688,
      "velocity": 78
    },
    {
      "pitch": 38,
      "start_time": 2.0,
      "duration": 0.0729,
      "velocity": 67
    },
    {
      "pitch": 39,
      "start_time": 2.0,
      "duration": 0.125,
      "velocity": 127
    },
    {
      "pitch": 42,
      "start_time": 2.0,
      "duration": 0.0417,
      "velocity": 43
    },
    {
      "pitch": 43,
      "start_time": 2.0,
      "duration": 0.25,
      "velocity": 19
    },
    {
      "pitch": 49,
      "start_time": 2.0,
      "duration": 0.1042,
      "velocity": 70
    },
    {
      "pitch": 43,
      "start_time": 2.25,
      "duration": 0.25,
      "velocity": 21
    },
    {
      "pitch": 42,
      "start_time": 2.5,
      "duration": 0.0625,
      "velocity": 32
    },
    {
      "pitch": 43,
      "start_time": 2.5,
      "duration": 0.25,
      "velocity": 11
    },
    {
      "pitch": 43,
      "start_time": 2.75,
      "duration": 0.25,
      "velocity": 15
    },
    {
      "pitch": 36,
      "start_time": 3.0,
      "duration": 0.0729,
      "velocity": 76
    },
    {
      "pitch": 42,
      "start_time": 3.0,
      "duration": 0.0833,
      "velocity": 51
    },
    {
      "pitch": 43,
      "start_time": 3.0,
      "duration": 0.25,
      "velocity": 26
    },
    {
      "pitch": 48,
      "start_time": 3.0,
      "duration": 0.1042,
      "velocity": 87
    },
    {
      "pitch": 43,
      "start_time": 3.25,
      "duration": 0.0521,
      "velocity": 43
    },
    {
      "pitch": 42,
      "start_time": 3.5,
      "duration": 0.0104,
      "velocity": 2
    },
    {
      "pitch": 43,
      "start_time": 3.75,
      "duration": 0.25,
      "velocity": 111
    },
    {
      "pitch": 40,
      "start_time": 4.0,
      "duration": 0.0625,
      "velocity": 19
    },
    {
      "pitch": 42,
      "start_time": 4.0,
      "duration": 0.1042,
      "velocity": 37
    },
    {
      "pitch": 43,
      "start_time": 4.0,
      "duration": 0.0312,
      "velocity": 41
    },
    {
      "pitch": 42,
      "start_time": 4.5,
      "duration": 0.25,
      "velocity": 59
    },
    {
      "pitch": 43,
      "start_time": 4.5,
      "duration": 0.5,
      "velocity": 24
    },
    {
      "pitch": 40,
      "start_time": 4.75,
      "duration": 0.0833,
      "velocity": 19
    },
    {
      "pitch": 42,
      "start_time": 4.75,
      "duration": 0.25,
      "velocity": 20
    },
    {
      "pitch": 42,
      "start_time": 5.0,
      "duration": 0.25,
      "velocity": 40
    },
    {
      "pitch": 43,
      "start_time": 5.0,
      "duration": 0.4062,
      "velocity": 30
    },
    {
      "pitch": 42,
      "start_time": 5.25,
      "duration": 0.25,
      "velocity": 38
    },
    {
      "pitch": 37,
      "start_time": 5.5,
      "duration": 0.0104,
      "velocity": 3
    },
    {
      "pitch": 40,
      "start_time": 5.5,
      "duration": 0.0938,
      "velocity": 22
    },
    {
      "pitch": 42,
      "start_time": 5.5,
      "duration": 0.25,
      "velocity": 38
    },
    {
      "pitch": 43,
      "start_time": 5.5,
      "duration": 0.25,
      "velocity": 56
    },
    {
      "pitch": 47,
      "start_time": 5.5,
      "duration": 0.0417,
      "velocity": 13
    },
    {
      "pitch": 42,
      "start_time": 5.75,
      "duration": 0.0938,
      "velocity": 45
    },
    {
      "pitch": 43,
      "start_time": 5.75,
      "duration": 0.25,
      "velocity": 21
    },
    {
      "pitch": 47,
      "start_time": 5.75,
      "duration": 0.1146,
      "velocity": 24
    },
    {
      "pitch": 37,
      "start_time": 6.0,
      "duration": 0.2396,
      "velocity": 31
    },
    {
      "pitch": 38,
      "start_time": 6.0,
      "duration": 0.0625,
      "velocity": 61
    },
    {
      "pitch": 39,
      "start_time": 6.0,
      "duration": 0.125,
      "velocity": 127
    },
    {
      "pitch": 42,
      "start_time": 6.0,
      "duration": 0.0417,
      "velocity": 42
    },
    {
      "pitch": 43,
      "start_time": 6.0,
      "duration": 0.0104,
      "velocity": 21
    },
    {
      "pitch": 47,
      "start_time": 6.0,
      "duration": 0.1042,
      "velocity": 84
    },
    {
      "pitch": 40,
      "start_time": 6.25,
      "duration": 0.25,
      "velocity": 40
    },
    {
      "pitch": 43,
      "start_time": 6.25,
      "duration": 0.25,
      "velocity": 25
    },
    {
      "pitch": 40,
      "start_time": 6.5,
      "duration": 0.1354,
      "velocity": 33
    },
    {
      "pitch": 43,
      "start_time": 6.5,
      "duration": 0.25,
      "velocity": 8
    },
    {
      "pitch": 44,
      "start_time": 6.5,
      "duration": 0.1146,
      "velocity": 107
    },
    {
      "pitch": 45,
      "start_time": 6.5,
      "duration": 0.0625,
      "velocity": 45
    },
    {
      "pitch": 37,
      "start_time": 6.75,
      "duration": 0.1354,
      "velocity": 11
    },
    {
      "pitch": 43,
      "start_time": 6.75,
      "duration": 0.125,
      "velocity": 40
    },
    {
      "pitch": 40,
      "start_time": 7.0,
      "duration": 0.25,
      "velocity": 23
    },
    {
      "pitch": 42,
      "start_time": 7.0,
      "duration": 0.0938,
      "velocity": 32
    },
    {
      "pitch": 45,
      "start_time": 7.0,
      "duration": 0.0417,
      "velocity": 44
    },
    {
      "pitch": 37,
      "start_time": 7.25,
      "duration": 0.25,
      "velocity": 8
    },
    {
      "pitch": 40,
      "start_time": 7.25,
      "duration": 0.1875,
      "velocity": 23
    },
    {
      "pitch": 48,
      "start_time": 7.25,
      "duration": 0.0938,
      "velocity": 93
    },
    {
      "pitch": 37,
      "start_time": 7.5,
      "duration": 0.2292,
      "velocity": 29
    },
    {
      "pitch": 41,
      "start_time": 7.5,
      "duration": 0.0521,
      "velocity": 23
    },
    {
      "pitch": 36,
      "start_time": 8.0,
      "duration": 0.0938,
      "velocity": 101
    },
    {
      "pitch": 42,
      "start_time": 8.0,
      "duration": 0.0833,
      "velocity": 63
    },
    {
      "pitch": 43,
      "start_time": 8.0,
      "duration": 0.5,
      "velocity": 34
    },
    {
      "pitch": 44,
      "start_time": 8.0,
      "duration": 0.1042,
      "velocity": 97
    },
    {
      "pitch": 42,
      "start_time": 8.5,
      "duration": 0.0417,
      "velocity": 25
    },
    {
      "pitch": 43,
      "start_time": 8.5,
      "duration": 0.5,
      "velocity": 20
    },
    {
      "pitch": 36,
      "start_time": 9.0,
      "duration": 0.001,
      "velocity": 4
    },
    {
      "pitch": 42,
      "start_time": 9.0,
      "duration": 0.25,
      "velocity": 38
    },
    {
      "pitch": 43,
      "start_time": 9.0,
      "duration": 0.5,
      "velocity": 34
    },
    {
      "pitch": 42,
      "start_time": 9.25,
      "duration": 0.25,
      "velocity": 55
    },
    {
      "pitch": 36,
      "start_time": 9.5,
      "duration": 0.0625,
      "velocity": 66
    },
    {
      "pitch": 43,
      "start_time": 9.5,
      "duration": 0.5,
      "velocity": 53
    },
    {
      "pitch": 46,
      "start_time": 9.5,
      "duration": 0.5521,
      "velocity": 55
    },
    {
      "pitch": 38,
      "start_time": 10.0,
      "duration": 0.0729,
      "velocity": 56
    },
    {
      "pitch": 39,
      "start_time": 10.0,
      "duration": 0.1146,
      "velocity": 127
    },
    {
      "pitch": 42,
      "start_time": 10.0,
      "duration": 0.0417,
      "velocity": 43
    },
    {
      "pitch": 43,
      "start_time": 10.0,
      "duration": 0.25,
      "velocity": 27
    },
    {
      "pitch": 49,
      "start_time": 10.0,
      "duration": 0.1042,
      "velocity": 79
    },
    {
      "pitch": 43,
      "start_time": 10.25,
      "duration": 0.1979,
      "velocity": 27
    },
    {
      "pitch": 42,
      "start_time": 10.5,
      "duration": 0.0521,
      "velocity": 20
    },
    {
      "pitch": 43,
      "start_time": 10.75,
      "duration": 0.1979,
      "velocity": 46
    },
    {
      "pitch": 36,
      "start_time": 11.0,
      "duration": 0.0729,
      "velocity": 82
    },
    {
      "pitch": 42,
      "start_time": 11.0,
      "duration": 0.0833,
      "velocity": 53
    },
    {
      "pitch": 48,
      "start_time": 11.0,
      "duration": 0.1042,
      "velocity": 103
    },
    {
      "pitch": 43,
      "start_time": 11.25,
      "duration": 0.25,
      "velocity": 87
    },
    {
      "pitch": 43,
      "start_time": 11.5,
      "duration": 0.1354,
      "velocity": 21
    },
    {
      "pitch": 42,
      "start_time": 12.0,
      "duration": 0.1042,
      "velocity": 46
    },
    {
      "pitch": 43,
      "start_time": 12.0,
      "duration": 0.5,
      "velocity": 99
    },
    {
      "pitch": 36,
      "start_time": 12.5,
      "duration": 0.0417,
      "velocity": 39
    },
    {
      "pitch": 42,
      "start_time": 12.5,
      "duration": 0.0417,
      "velocity": 31
    },
    {
      "pitch": 43,
      "start_time": 12.5,
      "duration": 0.5,
      "velocity": 29
    },
    {
      "pitch": 45,
      "start_time": 12.75,
      "duration": 0.1042,
      "velocity": 28
    },
    {
      "pitch": 36,
      "start_time": 13.0,
      "duration": 0.0833,
      "velocity": 98
    },
    {
      "pitch": 40,
      "start_time": 13.0,
      "duration": 0.0625,
      "velocity": 28
    },
    {
      "pitch": 42,
      "start_time": 13.0,
      "duration": 0.25,
      "velocity": 42
    },
    {
      "pitch": 43,
      "start_time": 13.0,
      "duration": 0.0521,
      "velocity": 24
    },
    {
      "pitch": 45,
      "start_time": 13.0,
      "duration": 0.0729,
      "velocity": 63
    },
    {
      "pitch": 42,
      "start_time": 13.25,
      "duration": 0.25,
      "velocity": 39
    },
    {
      "pitch": 42,
      "start_time": 13.5,
      "duration": 0.0521,
      "velocity": 48
    },
    {
      "pitch": 43,
      "start_time": 13.5,
      "duration": 0.25,
      "velocity": 23
    },
    {
      "pitch": 45,
      "start_time": 13.5,
      "duration": 0.0833,
      "velocity": 50
    },
    {
      "pitch": 36,
      "start_time": 13.75,
      "duration": 0.0938,
      "velocity": 86
    },
    {
      "pitch": 40,
      "start_time": 13.75,
      "duration": 0.1979,
      "velocity": 23
    },
    {
      "pitch": 43,
      "start_time": 13.75,
      "duration": 0.25,
      "velocity": 41
    },
    {
      "pitch": 38,
      "start_time": 14.0,
      "duration": 0.0729,
      "velocity": 86
    },
    {
      "pitch": 39,
      "start_time": 14.0,
      "duration": 0.1042,
      "velocity": 127
    },
    {
      "pitch": 42,
      "start_time": 14.0,
      "duration": 0.25,
      "velocity": 40
    },
    {
      "pitch": 43,
      "start_time": 14.0,
      "duration": 0.0521,
      "velocity": 32
    },
    {
      "pitch": 45,
      "start_time": 14.0,
      "duration": 0.0938,
      "velocity": 65
    },
    {
      "pitch": 42,
      "start_time": 14.25,
      "duration": 0.25,
      "velocity": 52
    },
    {
      "pitch": 40,
      "start_time": 14.5,
      "duration": 0.1146,
      "velocity": 25
    },
    {
      "pitch": 42,
      "start_time": 14.5,
      "duration": 0.0417,
      "velocity": 48
    },
    {
      "pitch": 43,
      "start_time": 14.5,
      "duration": 0.25,
      "velocity": 69
    },
    {
      "pitch": 44,
      "start_time": 14.5,
      "duration": 0.0938,
      "velocity": 118
    },
    {
      "pitch": 47,
      "start_time": 14.5,
      "duration": 0.0625,
      "velocity": 34
    },
    {
      "pitch": 37,
      "start_time": 14.75,
      "duration": 0.25,
      "velocity": 3
    },
    {
      "pitch": 43,
      "start_time": 14.75,
      "duration": 0.25,
      "velocity": 29
    },
    {
      "pitch": 37,
      "start_time": 15.0,
      "duration": 0.25,
      "velocity": 27
    },
    {
      "pitch": 40,
      "start_time": 15.0,
      "duration": 0.25,
      "velocity": 31
    },
    {
      "pitch": 41,
      "start_time": 15.0,
      "duration": 0.0625,
      "velocity": 36
    },
    {
      "pitch": 42,
      "start_time": 15.0,
      "duration": 0.25,
      "velocity": 41
    },
    {
      "pitch": 43,
      "start_time": 15.0,
      "duration": 0.25,
      "velocity": 25
    },
    {
      "pitch": 37,
      "start_time": 15.25,
      "duration": 0.2396,
      "velocity": 26
    },
    {
      "pitch": 40,
      "start_time": 15.25,
      "duration": 0.1562,
      "velocity": 27
    },
    {
      "pitch": 42,
      "start_time": 15.25,
      "duration": 0.25,
      "velocity": 48
    },
    {
      "pitch": 43,
      "start_time": 15.25,
      "duration": 0.25,
      "velocity": 30
    },
    {
      "pitch": 48,
      "start_time": 15.25,
      "duration": 0.0833,
      "velocity": 127
    },
    {
      "pitch": 42,
      "start_time": 15.5,
      "duration": 0.25,
      "velocity": 54
    },
    {
      "pitch": 43,
      "start_time": 15.5,
      "duration": 0.25,
      "velocity": 34
    },
    {
      "pitch": 42,
      "start_time": 15.75,
      "duration": 0.0938,
      "velocity": 58
    },
    {
      "pitch": 43,
      "start_time": 15.75,
      "duration": 0.1458,
      "velocity": 54
    }
  ]
}