{
  "source": {
    "song": "packs",
    "track_index": 0,
    "track_name": "Beat Tools / MIDI Clips / 59 - 80 bpm / Voltage Kit groove 02_78 bpm",
    "slot_index": 0,
    "clip_name": "Beat Tools / MIDI Clips / 59 - 80 bpm / Voltage Kit groove 02_78 bpm",
    "mid_file": "/Users/darnold/Music/Ableton/Packs/Beat Tools/MIDI Clips/59 - 80 bpm/Voltage Kit groove 02_78 bpm.alc"
  },
  "meta": {
    "bpm": 78.0,
    "key": "?",
    "scale": "?",
    "length_beats": 8.0,
    "note_count": 52
  },
  "rhythm": {
    "density": 1.688,
    "hit_positions": [
      0.0,
      0.0,
      0.0,
      0.25,
      0.75,
      1.0,
      1.25,
      1.25,
      1.25,
      1.5,
      2.0,
      2.25,
      2.5,
      2.5,
      2.5,
      2.75,
      2.75,
      3.0,
      3.0,
      3.25,
      3.5,
      3.5,
      3.5,
      3.5,
      3.5,
      3.75,
      4.0,
      4.0,
      4.0,
      4.25,
      4.5,
      4.5,
      5.0,
      5.0,
      5.5,
      5.5,
      5.5,
      5.75,
      5.75,
      6.0,
      6.25,
      6.5,
      6.5,
      6.75,
      6.75,
      7.0,
      7.0,
      7.25,
      7.5,
      7.5,
      7.5,
      7.5
    ],
    "ioi": [
      0.0,
      0.0,
      0.25,
      0.5,
      0.25,
      0.25,
      0.0,
      0.0,
      0.25,
      0.5,
      0.25,
      0.25,
      0.0,
      0.0,
      0.25,
      0.0,
      0.25,
      0.0,
      0.25,
      0.25,
      0.0,
      0.0,
      0.0,
      0.0,
      0.25,
      0.25,
      0.0,
      0.0,
      0.25,
      0.25,
      0.0,
      0.5,
      0.0,
      0.5,
      0.0,
      0.0,
      0.25,
      0.0,
      0.25,
      0.25,
      0.25,
      0.0,
      0.25,
      0.0,
      0.25,
      0.0,
      0.25,
      0.25,
      0.0,
      0.0,
      0.0,
      0.5
    ],
    "grid": "8th",
    "euclidean_approx": [
      32,
      32
    ],
    "swing_ratio": 1.0
  },
  "pitch": {
    "notes_used": [
      36,
      37,
      38,
      40,
      41,
      42,
      43,
      44,
      45,
      46,
      47,
      48,
      49,
      50,
      51
    ],
    "intervals": [
      4,
      8,
      3,
      0,
      3,
      3,
      2,
      3,
      9,
      8,
      8,
      3,
      8,
      4,
      14,
      14,
      9,
      10,
      1,
      14,
      1,
      6,
      3,
      3,
      8,
      5,
      4,
      8,
      7,
      1,
      2,
      3,
      9,
      14,
      4,
      6,
      6,
      1,
      8,
      8,
      5,
      4,
      14,
      4,
      1,
      10,
      1,
      14,
      4,
      6,
      3
    ],
    "register": "low",
    "is_melodic": true,
    "pitch_range": 15,
    "pitch_distribution": {
      "36": 7,
      "40": 6,
      "48": 3,
      "45": 3,
      "47": 1,
      "50": 7,
      "41": 9,
      "49": 4,
      "38": 1,
      "46": 5,
      "51": 2,
      "37": 1,
      "43": 1,
      "42": 1,
      "44": 1
    }
  },
  "velocity": {
    "mean": 127.0,
    "variance": 0.0,
    "std": 0.0,
    "accents": [],
    "profile": [
      127,
      127,
      127,
      127,
      127,
      127,
      127,
      127,
      127,
      127,
      127,
      127,
      127,
      127,
      127,
      127,
      127,
      127,
      127,
      127,
      127,
      127,
      127,
      127,
      127,
      127,
      127,
      127,
      127,
      127,
      127,
      127,
      127,
      127,
      127,
      127,
      127,
      127,
      127,
      127,
      127,
      127,
      127,
      127,
      127,
      127,
      127,
      127,
      127,
      127,
      127,
      127
    ]
  },
  "notes": [
    {
      "pitch": 36,
      "start_time": 0.0,
      "duration": 0.0938,
      "velocity": 127
    },
    {
      "pitch": 40,
      "start_time": 0.0,
      "duration": 0.5,
      "velocity": 127
    },
    {
      "pitch": 48,
      "start_time": 0.0,
      "duration": 0.5312,
      "velocity": 127
    },
    {
      "pitch": 45,
      "start_time": 0.25,
      "duration": 0.0729,
      "velocity": 127
    },
    {
      "pitch": 45,
      "start_time": 0.75,
      "duration": 0.001,
      "velocity": 127
    },
    {
      "pitch": 48,
      "start_time": 1.0,
      "duration": 0.6667,
      "velocity": 127
    },
    {
      "pitch": 45,
      "start_time": 1.25,
      "duration": 0.0417,
      "velocity": 127
    },
    {
      "pitch": 47,
      "start_time": 1.25,
      "duration": 0.25,
      "velocity": 127
    },
    {
      "pitch": 50,
      "start_time": 1.25,
      "duration": 0.3021,
      "velocity": 127
    },
    {
      "pitch": 41,
      "start_time": 1.5,
      "duration": 0.25,
      "velocity": 127
    },
    {
      "pitch": 49,
      "start_time": 2.0,
      "duration": 0.8021,
      "velocity": 127
    },
    {
      "pitch": 41,
      "start_time": 2.25,
      "duration": 0.2708,
      "velocity": 127
    },
    {
      "pitch": 38,
      "start_time": 2.5,
      "duration": 0.9479,
      "velocity": 127
    },
    {
      "pitch": 46,
      "start_time": 2.5,
      "duration": 0.5521,
      "velocity": 127
    },
    {
      "pitch": 50,
      "start_time": 2.5,
      "duration": 0.25,
      "velocity": 127
    },
    {
      "pitch": 36,
      "start_time": 2.75,
      "duration": 0.2917,
      "velocity": 127
    },
    {
      "pitch": 50,
      "start_time": 2.75,
      "duration": 0.1667,
      "velocity": 127
    },
    {
      "pitch": 41,
      "start_time": 3.0,
      "duration": 0.1042,
      "velocity": 127
    },
    {
      "pitch": 51,
      "start_time": 3.0,
      "duration": 0.5417,
      "velocity": 127
    },
    {
      "pitch": 50,
      "start_time": 3.25,
      "duration": 0.2917,
      "velocity": 127
    },
    {
      "pitch": 36,
      "start_time": 3.5,
      "duration": 0.2708,
      "velocity": 127
    },
    {
      "pitch": 37,
      "start_time": 3.5,
      "duration": 0.6354,
      "velocity": 127
    },
    {
      "pitch": 43,
      "start_time": 3.5,
      "duration": 0.25,
      "velocity": 127
    },
    {
      "pitch": 46,
      "start_time": 3.5,
      "duration": 0.8542,
      "velocity": 127
    },
    {
      "pitch": 49,
      "start_time": 3.5,
      "duration": 0.2812,
      "velocity": 127
    },
    {
      "pitch": 41,
      "start_time": 3.75,
      "duration": 0.25,
      "velocity": 127
    },
    {
      "pitch": 36,
      "start_time": 4.0,
      "duration": 0.2812,
      "velocity": 127
    },
    {
      "pitch": 40,
      "start_time": 4.0,
      "duration": 0.5,
      "velocity": 127
    },
    {
      "pitch": 48,
      "start_time": 4.0,
      "duration": 0.25,
      "velocity": 127
    },
    {
      "pitch": 41,
      "start_time": 4.25,
      "duration": 0.1771,
      "velocity": 127
    },
    {
      "pitch": 42,
      "start_time": 4.5,
      "duration": 0.3958,
      "velocity": 127
    },
    {
      "pitch": 44,
      "start_time": 4.5,
      "duration": 0.4479,
      "velocity": 127
    },
    {
      "pitch": 41,
      "start_time": 5.0,
      "duration": 0.1042,
      "velocity": 127
    },
    {
      "pitch": 50,
      "start_time": 5.0,
      "duration": 0.7917,
      "velocity": 127
    },
    {
      "pitch": 36,
      "start_time": 5.5,
      "duration": 0.1875,
      "velocity": 127
    },
    {
      "pitch": 40,
      "start_time": 5.5,
      "duration": 0.25,
      "velocity": 127
    },
    {
      "pitch": 46,
      "start_time": 5.5,
      "duration": 0.25,
      "velocity": 127
    },
    {
      "pitch": 40,
      "start_time": 5.75,
      "duration": 0.1042,
      "velocity": 127
    },
    {
      "pitch": 41,
      "start_time": 5.75,
      "duration": 0.0833,
      "velocity": 127
    },
    {
      "pitch": 49,
      "start_time": 6.0,
      "duration": 1.0521,
      "velocity": 127
    },
    {
      "pitch": 41,
      "start_time": 6.25,
      "duration": 0.1667,
      "velocity": 127
    },
    {
      "pitch": 46,
      "start_time": 6.5,
      "duration": 0.5625,
      "velocity": 127
    },
    {
      "pitch": 50,
      "start_time": 6.5,
      "duration": 0.5208,
      "velocity": 127
    },
    {
      "pitch": 36,
      "start_time": 6.75,
      "duration": 0.0938,
      "velocity": 127
    },
    {
      "pitch": 40,
      "start_time": 6.75,
      "duration": 0.25,
      "velocity": 127
    },
    {
      "pitch": 41,
      "start_time": 7.0,
      "duration": 0.0833,
      "velocity": 127
    },
    {
      "pitch": 51,
      "start_time": 7.0,
      "duration": 0.5521,
      "velocity": 127
    },
    {
      "pitch": 50,
      "start_time": 7.25,
      "duration": 0.3229,
      "velocity": 127
    },
    {
      "pitch": 36,
      "start_time": 7.5,
      "duration": 0.125,
      "velocity": 127
    },
    {
      "pitch": 40,
      "start_time": 7.5,
      "duration": 0.25,
      "velocity": 127
    },
    {
      "pitch": 46,
      "start_time": 7.5,
      "duration": 0.5,
      "velocity": 127
    },
    {
      "pitch": 49,
      "start_time": 7.5,
      "duration": 0.2708,
      "velocity": 127
    }
  ]
}