{
  "source": {
    "song": "packs",
    "track_index": 0,
    "track_name": "Beat Tools / MIDI Clips / 94 - 105 bpm / Deep Knight groove 05_ 95bpm",
    "slot_index": 0,
    "clip_name": "Beat Tools / MIDI Clips / 94 - 105 bpm / Deep Knight groove 05_ 95bpm",
    "mid_file": "/Users/darnold/Music/Ableton/Packs/Beat Tools/MIDI Clips/94 - 105 bpm/Deep Knight groove 05_ 95bpm.alc"
  },
  "meta": {
    "bpm": 95.0,
    "key": "?",
    "scale": "?",
    "length_beats": 8.0,
    "note_count": 59
  },
  "rhythm": {
    "density": 1.094,
    "hit_positions": [
      0.0,
      0.0,
      0.0058,
      0.25,
      0.5,
      0.5,
      0.75,
      1.0,
      1.0,
      1.0,
      1.0066,
      1.25,
      1.5,
      1.75,
      2.0,
      2.0073,
      2.25,
      2.5,
      2.75,
      3.0,
      3.0,
      3.0,
      3.0027,
      3.25,
      3.5,
      3.75,
      3.75,
      4.0,
      4.0,
      4.0,
      4.25,
      4.5,
      4.5,
      4.5008,
      4.75,
      5.0,
      5.0,
      5.0,
      5.25,
      5.5,
      5.5,
      5.75,
      6.0,
      6.0024,
      6.25,
      6.5,
      6.75,
      7.0,
      7.0,
      7.003,
      7.25,
      7.375,
      7.5,
      7.5,
      7.625,
      7.625,
      7.75,
      7.75,
      7.875
    ],
    "ioi": [
      0.0,
      0.0058,
      0.2442,
      0.25,
      0.0,
      0.25,
      0.25,
      0.0,
      0.0,
      0.0066,
      0.2434,
      0.25,
      0.25,
      0.25,
      0.0073,
      0.2427,
      0.25,
      0.25,
      0.25,
      0.0,
      0.0,
      0.0027,
      0.2473,
      0.25,
      0.25,
      0.0,
      0.25,
      0.0,
      0.0,
      0.25,
      0.25,
      0.0,
      0.0008,
      0.2492,
      0.25,
      0.0,
      0.0,
      0.25,
      0.25,
      0.0,
      0.25,
      0.25,
      0.0024,
      0.2476,
      0.25,
      0.25,
      0.25,
      0.0,
      0.003,
      0.247,
      0.125,
      0.125,
      0.0,
      0.125,
      0.0,
      0.125,
      0.0,
      0.125,
      0.125
    ],
    "grid": "16th",
    "euclidean_approx": [
      32,
      32
    ],
    "swing_ratio": 1.05
  },
  "pitch": {
    "notes_used": [
      36,
      37,
      38,
      42,
      43,
      47,
      51,
      52,
      54
    ],
    "intervals": [
      16,
      5,
      5,
      6,
      6,
      0,
      5,
      1,
      4,
      1,
      1,
      0,
      0,
      0,
      5,
      5,
      0,
      0,
      4,
      4,
      9,
      8,
      1,
      0,
      4,
      4,
      6,
      6,
      12,
      12,
      6,
      6,
      5,
      5,
      5,
      1,
      4,
      0,
      6,
      6,
      0,
      0,
      5,
      5,
      0,
      0,
      4,
      4,
      1,
      1,
      0,
      4,
      4,
      4,
      4,
      4,
      4,
      4
    ],
    "register": "low",
    "is_melodic": true,
    "pitch_range": 18,
    "pitch_distribution": {
      "36": 5,
      "52": 1,
      "47": 4,
      "42": 33,
      "37": 2,
      "38": 9,
      "43": 3,
      "51": 1,
      "54": 1
    }
  },
  "velocity": {
    "mean": 68.5,
    "variance": 1448.0,
    "std": 38.1,
    "accents": [
      0,
      1,
      2,
      4,
      8,
      10,
      15,
      19,
      21,
      22,
      27,
      31,
      33,
      36,
      43,
      47
    ],
    "profile": [
      127,
      127,
      127,
      33,
      116,
      40,
      36,
      102,
      112,
      31,
      125,
      28,
      32,
      60,
      28,
      119,
      28,
      49,
      37,
      126,
      40,
      127,
      107,
      42,
      78,
      43,
      75,
      116,
      29,
      100,
      33,
      111,
      56,
      110,
      34,
      101,
      127,
      11,
      24,
      95,
      69,
      60,
      84,
      109,
      90,
      46,
      37,
      127,
      37,
      101,
      48,
      32,
      26,
      24,
      35,
      21,
      54,
      30,
      71
    ]
  },
  "notes": [
    {
      "pitch": 36,
      "start_time": 0.0,
      "duration": 0.0419,
      "velocity": 127
    },
    {
      "pitch": 52,
      "start_time": 0.0,
      "duration": 3.4323,
      "velocity": 127
    },
    {
      "pitch": 47,
      "start_time": 0.0058,
      "duration": 0.0814,
      "velocity": 127
    },
    {
      "pitch": 42,
      "start_time": 0.25,
      "duration": 0.25,
      "velocity": 33
    },
    {
      "pitch": 36,
      "start_time": 0.5,
      "duration": 0.0447,
      "velocity": 116
    },
    {
      "pitch": 42,
      "start_time": 0.5,
      "duration": 0.25,
      "velocity": 40
    },
    {
      "pitch": 42,
      "start_time": 0.75,
      "duration": 0.25,
      "velocity": 36
    },
    {
      "pitch": 37,
      "start_time": 1.0,
      "duration": 0.0432,
      "velocity": 102
    },
    {
      "pitch": 38,
      "start_time": 1.0,
      "duration": 0.0565,
      "velocity": 112
    },
    {
      "pitch": 42,
      "start_time": 1.0,
      "duration": 0.25,
      "velocity": 31
    },
    {
      "pitch": 43,
      "start_time": 1.0066,
      "duration": 0.0449,
      "velocity": 125
    },
    {
      "pitch": 42,
      "start_time": 1.25,
      "duration": 0.25,
      "velocity": 28
    },
    {
      "pitch": 42,
      "start_time": 1.5,
      "duration": 0.25,
      "velocity": 32
    },
    {
      "pitch": 42,
      "start_time": 1.75,
      "duration": 0.25,
      "velocity": 60
    },
    {
      "pitch": 42,
      "start_time": 2.0,
      "duration": 0.25,
      "velocity": 28
    },
    {
      "pitch": 47,
      "start_time": 2.0073,
      "duration": 0.0474,
      "velocity": 119
    },
    {
      "pitch": 42,
      "start_time": 2.25,
      "duration": 0.202,
      "velocity": 28
    },
    {
      "pitch": 42,
      "start_time": 2.5,
      "duration": 0.25,
      "velocity": 49
    },
    {
      "pitch": 42,
      "start_time": 2.75,
      "duration": 0.25,
      "velocity": 37
    },
    {
      "pitch": 38,
      "start_time": 3.0,
      "duration": 0.0773,
      "velocity": 126
    },
    {
      "pitch": 42,
      "start_time": 3.0,
      "duration": 0.25,
      "velocity": 40
    },
    {
      "pitch": 51,
      "start_time": 3.0,
      "duration": 0.7387,
      "velocity": 127
    },
    {
      "pitch": 43,
      "start_time": 3.0027,
      "duration": 0.0847,
      "velocity": 107
    },
    {
      "pitch": 42,
      "start_time": 3.25,
      "duration": 0.25,
      "velocity": 42
    },
    {
      "pitch": 42,
      "start_time": 3.5,
      "duration": 0.25,
      "velocity": 78
    },
    {
      "pitch": 38,
      "start_time": 3.75,
      "duration": 0.0463,
      "velocity": 43
    },
    {
      "pitch": 42,
      "start_time": 3.75,
      "duration": 0.25,
      "velocity": 75
    },
    {
      "pitch": 36,
      "start_time": 4.0,
      "duration": 0.0524,
      "velocity": 116
    },
    {
      "pitch": 42,
      "start_time": 4.0,
      "duration": 0.25,
      "velocity": 29
    },
    {
      "pitch": 54,
      "start_time": 4.0,
      "duration": 3.7487,
      "velocity": 100
    },
    {
      "pitch": 42,
      "start_time": 4.25,
      "duration": 0.1659,
      "velocity": 33
    },
    {
      "pitch": 36,
      "start_time": 4.5,
      "duration": 0.0486,
      "velocity": 111
    },
    {
      "pitch": 42,
      "start_time": 4.5,
      "duration": 0.25,
      "velocity": 56
    },
    {
      "pitch": 47,
      "start_time": 4.5008,
      "duration": 0.0508,
      "velocity": 110
    },
    {
      "pitch": 42,
      "start_time": 4.75,
      "duration": 0.25,
      "velocity": 34
    },
    {
      "pitch": 37,
      "start_time": 5.0,
      "duration": 0.0462,
      "velocity": 101
    },
    {
      "pitch": 38,
      "start_time": 5.0,
      "duration": 0.0694,
      "velocity": 127
    },
    {
      "pitch": 42,
      "start_time": 5.0,
      "duration": 0.25,
      "velocity": 11
    },
    {
      "pitch": 42,
      "start_time": 5.25,
      "duration": 0.25,
      "velocity": 24
    },
    {
      "pitch": 36,
      "start_time": 5.5,
      "duration": 0.0533,
      "velocity": 95
    },
    {
      "pitch": 42,
      "start_time": 5.5,
      "duration": 0.25,
      "velocity": 69
    },
    {
      "pitch": 42,
      "start_time": 5.75,
      "duration": 0.25,
      "velocity": 60
    },
    {
      "pitch": 42,
      "start_time": 6.0,
      "duration": 0.25,
      "velocity": 84
    },
    {
      "pitch": 47,
      "start_time": 6.0024,
      "duration": 0.058,
      "velocity": 109
    },
    {
      "pitch": 42,
      "start_time": 6.25,
      "duration": 0.25,
      "velocity": 90
    },
    {
      "pitch": 42,
      "start_time": 6.5,
      "duration": 0.25,
      "velocity": 46
    },
    {
      "pitch": 42,
      "start_time": 6.75,
      "duration": 0.25,
      "velocity": 37
    },
    {
      "pitch": 38,
      "start_time": 7.0,
      "duration": 0.0675,
      "velocity": 127
    },
    {
      "pitch": 42,
      "start_time": 7.0,
      "duration": 0.25,
      "velocity": 37
    },
    {
      "pitch": 43,
      "start_time": 7.003,
      "duration": 0.0429,
      "velocity": 101
    },
    {
      "pitch": 42,
      "start_time": 7.25,
      "duration": 0.125,
      "velocity": 48
    },
    {
      "pitch": 42,
      "start_time": 7.375,
      "duration": 0.125,
      "velocity": 32
    },
    {
      "pitch": 38,
      "start_time": 7.5,
      "duration": 0.125,
      "velocity": 26
    },
    {
      "pitch": 42,
      "start_time": 7.5,
      "duration": 0.125,
      "velocity": 24
    },
    {
      "pitch": 38,
      "start_time": 7.625,
      "duration": 0.125,
      "velocity": 35
    },
    {
      "pitch": 42,
      "start_time": 7.625,
      "duration": 0.125,
      "velocity": 21
    },
    {
      "pitch": 38,
      "start_time": 7.75,
      "duration": 0.125,
      "velocity": 54
    },
    {
      "pitch": 42,
      "start_time": 7.75,
      "duration": 0.1217,
      "velocity": 30
    },
    {
      "pitch": 38,
      "start_time": 7.875,
      "duration": 0.0975,
      "velocity": 71
    }
  ]
}