{
  "source": {
    "song": "packs",
    "track_index": 0,
    "track_name": "Beat Tools / MIDI Clips / 94 - 105 bpm / Shady Kit Groove 1_99 bpm",
    "slot_index": 0,
    "clip_name": "Beat Tools / MIDI Clips / 94 - 105 bpm / Shady Kit Groove 1_99 bpm",
    "mid_file": "/Users/darnold/Music/Ableton/Packs/Beat Tools/MIDI Clips/94 - 105 bpm/Shady Kit Groove 1_99 bpm.alc"
  },
  "meta": {
    "bpm": 99.0,
    "key": "?",
    "scale": "?",
    "length_beats": 8.0,
    "note_count": 56
  },
  "rhythm": {
    "density": 1.5,
    "hit_positions": [
      0.0,
      0.0,
      0.0,
      0.25,
      0.5,
      0.75,
      1.0,
      1.0,
      1.0,
      1.0,
      1.0,
      1.25,
      1.5,
      1.5,
      1.5,
      2.0,
      2.0,
      2.0,
      2.5,
      2.5,
      2.6667,
      2.8333,
      3.0,
      3.0,
      3.0,
      3.0,
      3.5,
      3.5,
      4.0,
      4.0,
      4.0,
      4.5,
      4.75,
      5.0,
      5.0,
      5.0,
      5.5,
      5.5,
      5.5,
      6.0,
      6.0,
      6.0,
      6.5,
      6.5,
      7.0,
      7.0,
      7.0,
      7.0,
      7.0,
      7.0,
      7.0,
      7.25,
      7.5,
      7.5,
      7.75,
      7.75
    ],
    "ioi": [
      0.0,
      0.0,
      0.25,
      0.25,
      0.25,
      0.25,
      0.0,
      0.0,
      0.0,
      0.0,
      0.25,
      0.25,
      0.0,
      0.0,
      0.5,
      0.0,
      0.0,
      0.5,
      0.0,
      0.1667,
      0.1666,
      0.1667,
      0.0,
      0.0,
      0.0,
      0.5,
      0.0,
      0.5,
      0.0,
      0.0,
      0.5,
      0.25,
      0.25,
      0.0,
      0.0,
      0.5,
      0.0,
      0.0,
      0.5,
      0.0,
      0.0,
      0.5,
      0.0,
      0.5,
      0.0,
      0.0,
      0.0,
      0.0,
      0.0,
      0.0,
      0.25,
      0.25,
      0.0,
      0.25,
      0.0,
      0.25
    ],
    "grid": "8th",
    "euclidean_approx": [
      32,
      32
    ],
    "swing_ratio": 1.042
  },
  "pitch": {
    "notes_used": [
      36,
      37,
      38,
      39,
      42,
      44,
      49,
      52,
      53,
      54,
      55,
      56,
      57,
      58,
      59
    ],
    "intervals": [
      6,
      14,
      12,
      2,
      6,
      1,
      1,
      4,
      13,
      2,
      13,
      8,
      6,
      10,
      16,
      6,
      16,
      19,
      13,
      13,
      0,
      2,
      1,
      1,
      3,
      0,
      10,
      16,
      6,
      14,
      14,
      6,
      1,
      1,
      4,
      6,
      6,
      15,
      21,
      6,
      16,
      16,
      17,
      22,
      1,
      1,
      3,
      7,
      5,
      1,
      16,
      0,
      14,
      14,
      14
    ],
    "register": "low",
    "is_melodic": true,
    "pitch_range": 23,
    "pitch_distribution": {
      "36": 8,
      "42": 14,
      "56": 2,
      "44": 2,
      "37": 4,
      "38": 4,
      "55": 2,
      "57": 2,
      "52": 3,
      "58": 2,
      "39": 8,
      "59": 1,
      "49": 1,
      "54": 1,
      "53": 2
    }
  },
  "velocity": {
    "mean": 40.7,
    "variance": 300.7,
    "std": 17.3,
    "accents": [
      10,
      15,
      22,
      25,
      28,
      35,
      47,
      52,
      54
    ],
    "profile": [
      57,
      44,
      56,
      30,
      15,
      28,
      53,
      39,
      57,
      33,
      61,
      3,
      43,
      38,
      26,
      70,
      52,
      37,
      5,
      25,
      33,
      30,
      62,
      45,
      34,
      65,
      16,
      2,
      64,
      53,
      33,
      32,
      31,
      56,
      37,
      61,
      50,
      43,
      52,
      58,
      47,
      27,
      26,
      44,
      53,
      54,
      54,
      61,
      30,
      39,
      26,
      26,
      62,
      22,
      73,
      8
    ]
  },
  "notes": [
    {
      "pitch": 36,
      "start_time": 0.0,
      "duration": 0.0833,
      "velocity": 57
    },
    {
      "pitch": 42,
      "start_time": 0.0,
      "duration": 0.0729,
      "velocity": 44
    },
    {
      "pitch": 56,
      "start_time": 0.0,
      "duration": 0.5104,
      "velocity": 56
    },
    {
      "pitch": 44,
      "start_time": 0.25,
      "duration": 0.0833,
      "velocity": 30
    },
    {
      "pitch": 42,
      "start_time": 0.5,
      "duration": 0.0417,
      "velocity": 15
    },
    {
      "pitch": 36,
      "start_time": 0.75,
      "duration": 0.0938,
      "velocity": 28
    },
    {
      "pitch": 37,
      "start_time": 1.0,
      "duration": 0.0625,
      "velocity": 53
    },
    {
      "pitch": 38,
      "start_time": 1.0,
      "duration": 0.0833,
      "velocity": 39
    },
    {
      "pitch": 42,
      "start_time": 1.0,
      "duration": 0.0833,
      "velocity": 57
    },
    {
      "pitch": 55,
      "start_time": 1.0,
      "duration": 0.0417,
      "velocity": 33
    },
    {
      "pitch": 57,
      "start_time": 1.0,
      "duration": 0.3854,
      "velocity": 61
    },
    {
      "pitch": 44,
      "start_time": 1.25,
      "duration": 0.0312,
      "velocity": 3
    },
    {
      "pitch": 36,
      "start_time": 1.5,
      "duration": 0.0729,
      "velocity": 43
    },
    {
      "pitch": 42,
      "start_time": 1.5,
      "duration": 0.0729,
      "velocity": 38
    },
    {
      "pitch": 52,
      "start_time": 1.5,
      "duration": 0.0833,
      "velocity": 26
    },
    {
      "pitch": 36,
      "start_time": 2.0,
      "duration": 0.0729,
      "velocity": 70
    },
    {
      "pitch": 42,
      "start_time": 2.0,
      "duration": 0.0729,
      "velocity": 52
    },
    {
      "pitch": 58,
      "start_time": 2.0,
      "duration": 1.5417,
      "velocity": 37
    },
    {
      "pitch": 39,
      "start_time": 2.5,
      "duration": 0.1667,
      "velocity": 5
    },
    {
      "pitch": 52,
      "start_time": 2.5,
      "duration": 0.0521,
      "velocity": 25
    },
    {
      "pitch": 39,
      "start_time": 2.6667,
      "duration": 0.1667,
      "velocity": 33
    },
    {
      "pitch": 39,
      "start_time": 2.8333,
      "duration": 0.1562,
      "velocity": 30
    },
    {
      "pitch": 37,
      "start_time": 3.0,
      "duration": 0.0521,
      "velocity": 62
    },
    {
      "pitch": 38,
      "start_time": 3.0,
      "duration": 0.0729,
      "velocity": 45
    },
    {
      "pitch": 39,
      "start_time": 3.0,
      "duration": 0.0417,
      "velocity": 34
    },
    {
      "pitch": 42,
      "start_time": 3.0,
      "duration": 0.0729,
      "velocity": 65
    },
    {
      "pitch": 42,
      "start_time": 3.5,
      "duration": 0.0625,
      "velocity": 16
    },
    {
      "pitch": 52,
      "start_time": 3.5,
      "duration": 0.0104,
      "velocity": 2
    },
    {
      "pitch": 36,
      "start_time": 4.0,
      "duration": 0.0833,
      "velocity": 64
    },
    {
      "pitch": 42,
      "start_time": 4.0,
      "duration": 0.0833,
      "velocity": 53
    },
    {
      "pitch": 56,
      "start_time": 4.0,
      "duration": 0.4479,
      "velocity": 33
    },
    {
      "pitch": 42,
      "start_time": 4.5,
      "duration": 0.0729,
      "velocity": 32
    },
    {
      "pitch": 36,
      "start_time": 4.75,
      "duration": 0.0833,
      "velocity": 31
    },
    {
      "pitch": 37,
      "start_time": 5.0,
      "duration": 0.0833,
      "velocity": 56
    },
    {
      "pitch": 38,
      "start_time": 5.0,
      "duration": 0.0833,
      "velocity": 37
    },
    {
      "pitch": 42,
      "start_time": 5.0,
      "duration": 0.0833,
      "velocity": 61
    },
    {
      "pitch": 36,
      "start_time": 5.5,
      "duration": 0.0729,
      "velocity": 50
    },
    {
      "pitch": 42,
      "start_time": 5.5,
      "duration": 0.0729,
      "velocity": 43
    },
    {
      "pitch": 57,
      "start_time": 5.5,
      "duration": 0.3542,
      "velocity": 52
    },
    {
      "pitch": 36,
      "start_time": 6.0,
      "duration": 0.0833,
      "velocity": 58
    },
    {
      "pitch": 42,
      "start_time": 6.0,
      "duration": 0.0833,
      "velocity": 47
    },
    {
      "pitch": 58,
      "start_time": 6.0,
      "duration": 1.1458,
      "velocity": 27
    },
    {
      "pitch": 42,
      "start_time": 6.5,
      "duration": 0.0625,
      "velocity": 26
    },
    {
      "pitch": 59,
      "start_time": 6.5,
      "duration": 0.2188,
      "velocity": 44
    },
    {
      "pitch": 37,
      "start_time": 7.0,
      "duration": 0.0625,
      "velocity": 53
    },
    {
      "pitch": 38,
      "start_time": 7.0,
      "duration": 0.0521,
      "velocity": 54
    },
    {
      "pitch": 39,
      "start_time": 7.0,
      "duration": 0.0521,
      "velocity": 54
    },
    {
      "pitch": 42,
      "start_time": 7.0,
      "duration": 0.0729,
      "velocity": 61
    },
    {
      "pitch": 49,
      "start_time": 7.0,
      "duration": 0.6979,
      "velocity": 30
    },
    {
      "pitch": 54,
      "start_time": 7.0,
      "duration": 0.1979,
      "velocity": 39
    },
    {
      "pitch": 55,
      "start_time": 7.0,
      "duration": 0.0312,
      "velocity": 26
    },
    {
      "pitch": 39,
      "start_time": 7.25,
      "duration": 0.0625,
      "velocity": 26
    },
    {
      "pitch": 39,
      "start_time": 7.5,
      "duration": 0.0521,
      "velocity": 62
    },
    {
      "pitch": 53,
      "start_time": 7.5,
      "duration": 0.0729,
      "velocity": 22
    },
    {
      "pitch": 39,
      "start_time": 7.75,
      "duration": 0.0729,
      "velocity": 73
    },
    {
      "pitch": 53,
      "start_time": 7.75,
      "duration": 0.1042,
      "velocity": 8
    }
  ]
}