{
  "source": {
    "song": "packs",
    "track_index": 0,
    "track_name": "Beat Tools / MIDI Clips / 132 - 152 bpm / Rock Wit Me groove 05_140 bpm",
    "slot_index": 0,
    "clip_name": "Beat Tools / MIDI Clips / 132 - 152 bpm / Rock Wit Me groove 05_140 bpm",
    "mid_file": "/Users/darnold/Music/Ableton/Packs/Beat Tools/MIDI Clips/132 - 152 bpm/Rock Wit Me groove 05_140 bpm.alc"
  },
  "meta": {
    "bpm": 140.0,
    "key": "?",
    "scale": "?",
    "length_beats": 8.0,
    "note_count": 78
  },
  "rhythm": {
    "density": 1.25,
    "hit_positions": [
      0.0,
      0.0625,
      0.0625,
      0.0729,
      0.25,
      0.5,
      0.5417,
      0.5521,
      0.5521,
      0.75,
      1.0,
      1.0208,
      1.0521,
      1.0521,
      1.0521,
      1.25,
      1.5,
      1.5417,
      1.5729,
      1.75,
      2.0,
      2.0417,
      2.0417,
      2.0521,
      2.1146,
      2.125,
      2.5,
      2.5208,
      2.5312,
      2.6146,
      3.0,
      3.0417,
      3.0521,
      3.0833,
      3.4792,
      3.5,
      3.5,
      3.5417,
      3.5625,
      4.0,
      4.0208,
      4.0208,
      4.0312,
      4.0312,
      4.0833,
      4.5,
      4.5104,
      5.0,
      5.0,
      5.0104,
      5.0208,
      5.0208,
      5.0833,
      5.4896,
      5.5,
      5.5729,
      5.5833,
      6.0,
      6.0,
      6.0,
      6.0,
      6.0833,
      6.0938,
      6.1146,
      6.25,
      6.4792,
      6.5,
      6.5417,
      6.5729,
      6.75,
      7.0,
      7.0,
      7.0417,
      7.0417,
      7.25,
      7.5,
      7.5312,
      7.75
    ],
    "ioi": [
      0.0625,
      0.0,
      0.0104,
      0.1771,
      0.25,
      0.0417,
      0.0104,
      0.0,
      0.1979,
      0.25,
      0.0208,
      0.0313,
      0.0,
      0.0,
      0.1979,
      0.25,
      0.0417,
      0.0312,
      0.1771,
      0.25,
      0.0417,
      0.0,
      0.0104,
      0.0625,
      0.0104,
      0.375,
      0.0208,
      0.0104,
      0.0834,
      0.3854,
      0.0417,
      0.0104,
      0.0312,
      0.3959,
      0.0208,
      0.0,
      0.0417,
      0.0208,
      0.4375,
      0.0208,
      0.0,
      0.0104,
      0.0,
      0.0521,
      0.4167,
      0.0104,
      0.4896,
      0.0,
      0.0104,
      0.0104,
      0.0,
      0.0625,
      0.4063,
      0.0104,
      0.0729,
      0.0104,
      0.4167,
      0.0,
      0.0,
      0.0,
      0.0833,
      0.0105,
      0.0208,
      0.1354,
      0.2292,
      0.0208,
      0.0417,
      0.0312,
      0.1771,
      0.25,
      0.0,
      0.0417,
      0.0,
      0.2083,
      0.25,
      0.0312,
      0.2188,
      0.25
    ],
    "grid": "16th",
    "euclidean_approx": [
      32,
      32
    ],
    "swing_ratio": 1.254
  },
  "pitch": {
    "notes_used": [
      36,
      37,
      39,
      40,
      41,
      42,
      44,
      45,
      49,
      50,
      51,
      52,
      53,
      54,
      55,
      56,
      57,
      58,
      59
    ],
    "intervals": [
      3,
      6,
      2,
      1,
      0,
      3,
      6,
      4,
      1,
      0,
      17,
      20,
      4,
      2,
      3,
      0,
      3,
      15,
      18,
      0,
      2,
      4,
      1,
      16,
      13,
      6,
      12,
      9,
      17,
      20,
      3,
      8,
      8,
      16,
      6,
      3,
      10,
      8,
      18,
      3,
      6,
      2,
      4,
      12,
      17,
      3,
      3,
      16,
      13,
      6,
      4,
      16,
      14,
      3,
      18,
      3,
      17,
      2,
      2,
      1,
      11,
      5,
      13,
      6,
      3,
      3,
      13,
      7,
      20,
      0,
      3,
      1,
      17,
      19,
      0,
      18,
      18
    ],
    "register": "low",
    "is_melodic": true,
    "pitch_range": 23,
    "pitch_distribution": {
      "39": 24,
      "36": 6,
      "42": 15,
      "40": 5,
      "56": 3,
      "57": 4,
      "37": 2,
      "41": 3,
      "58": 4,
      "45": 2,
      "51": 1,
      "59": 2,
      "50": 1,
      "49": 1,
      "44": 1,
      "55": 1,
      "54": 1,
      "53": 1,
      "52": 1
    }
  },
  "velocity": {
    "mean": 74.6,
    "variance": 1485.8,
    "std": 38.5,
    "accents": [
      11,
      21,
      22,
      25,
      27,
      29,
      32,
      33,
      37,
      38,
      43,
      44,
      52,
      55,
      57,
      59,
      62,
      63,
      68,
      73,
      76
    ],
    "profile": [
      64,
      89,
      48,
      73,
      43,
      38,
      53,
      91,
      51,
      25,
      33,
      127,
      109,
      103,
      65,
      28,
      26,
      46,
      112,
      32,
      33,
      115,
      124,
      74,
      110,
      127,
      16,
      127,
      44,
      127,
      23,
      55,
      127,
      127,
      39,
      33,
      47,
      123,
      127,
      18,
      104,
      62,
      96,
      127,
      127,
      27,
      44,
      36,
      71,
      67,
      112,
      78,
      127,
      43,
      42,
      121,
      78,
      127,
      3,
      126,
      94,
      66,
      127,
      117,
      43,
      40,
      29,
      76,
      127,
      34,
      49,
      84,
      28,
      122,
      51,
      63,
      126,
      50
    ]
  },
  "notes": [
    {
      "pitch": 39,
      "start_time": 0.0,
      "duration": 0.25,
      "velocity": 64
    },
    {
      "pitch": 36,
      "start_time": 0.0625,
      "duration": 0.1146,
      "velocity": 89
    },
    {
      "pitch": 42,
      "start_time": 0.0625,
      "duration": 0.1042,
      "velocity": 48
    },
    {
      "pitch": 40,
      "start_time": 0.0729,
      "duration": 0.0938,
      "velocity": 73
    },
    {
      "pitch": 39,
      "start_time": 0.25,
      "duration": 0.25,
      "velocity": 43
    },
    {
      "pitch": 39,
      "start_time": 0.5,
      "duration": 0.25,
      "velocity": 38
    },
    {
      "pitch": 42,
      "start_time": 0.5417,
      "duration": 0.1042,
      "velocity": 53
    },
    {
      "pitch": 36,
      "start_time": 0.5521,
      "duration": 0.0938,
      "velocity": 91
    },
    {
      "pitch": 40,
      "start_time": 0.5521,
      "duration": 0.0729,
      "velocity": 51
    },
    {
      "pitch": 39,
      "start_time": 0.75,
      "duration": 0.25,
      "velocity": 25
    },
    {
      "pitch": 39,
      "start_time": 1.0,
      "duration": 0.25,
      "velocity": 33
    },
    {
      "pitch": 56,
      "start_time": 1.0208,
      "duration": 0.1146,
      "velocity": 127
    },
    {
      "pitch": 36,
      "start_time": 1.0521,
      "duration": 0.1042,
      "velocity": 109
    },
    {
      "pitch": 40,
      "start_time": 1.0521,
      "duration": 0.1042,
      "velocity": 103
    },
    {
      "pitch": 42,
      "start_time": 1.0521,
      "duration": 0.0729,
      "velocity": 65
    },
    {
      "pitch": 39,
      "start_time": 1.25,
      "duration": 0.25,
      "velocity": 28
    },
    {
      "pitch": 39,
      "start_time": 1.5,
      "duration": 0.25,
      "velocity": 26
    },
    {
      "pitch": 42,
      "start_time": 1.5417,
      "duration": 0.1146,
      "velocity": 46
    },
    {
      "pitch": 57,
      "start_time": 1.5729,
      "duration": 0.1146,
      "velocity": 112
    },
    {
      "pitch": 39,
      "start_time": 1.75,
      "duration": 0.25,
      "velocity": 32
    },
    {
      "pitch": 39,
      "start_time": 2.0,
      "duration": 0.5,
      "velocity": 33
    },
    {
      "pitch": 37,
      "start_time": 2.0417,
      "duration": 0.1042,
      "velocity": 115
    },
    {
      "pitch": 41,
      "start_time": 2.0417,
      "duration": 0.1042,
      "velocity": 124
    },
    {
      "pitch": 42,
      "start_time": 2.0521,
      "duration": 0.0625,
      "velocity": 74
    },
    {
      "pitch": 58,
      "start_time": 2.1146,
      "duration": 0.1042,
      "velocity": 110
    },
    {
      "pitch": 45,
      "start_time": 2.125,
      "duration": 0.0625,
      "velocity": 127
    },
    {
      "pitch": 39,
      "start_time": 2.5,
      "duration": 0.5,
      "velocity": 16
    },
    {
      "pitch": 51,
      "start_time": 2.5208,
      "duration": 0.1562,
      "velocity": 127
    },
    {
      "pitch": 42,
      "start_time": 2.5312,
      "duration": 0.0938,
      "velocity": 44
    },
    {
      "pitch": 59,
      "start_time": 2.6146,
      "duration": 0.1042,
      "velocity": 127
    },
    {
      "pitch": 39,
      "start_time": 3.0,
      "duration": 0.5,
      "velocity": 23
    },
    {
      "pitch": 42,
      "start_time": 3.0417,
      "duration": 0.1146,
      "velocity": 55
    },
    {
      "pitch": 50,
      "start_time": 3.0521,
      "duration": 0.1146,
      "velocity": 127
    },
    {
      "pitch": 58,
      "start_time": 3.0833,
      "duration": 0.1146,
      "velocity": 127
    },
    {
      "pitch": 42,
      "start_time": 3.4792,
      "duration": 0.0833,
      "velocity": 39
    },
    {
      "pitch": 36,
      "start_time": 3.5,
      "duration": 0.0625,
      "velocity": 33
    },
    {
      "pitch": 39,
      "start_time": 3.5,
      "duration": 0.5,
      "velocity": 47
    },
    {
      "pitch": 49,
      "start_time": 3.5417,
      "duration": 0.1354,
      "velocity": 123
    },
    {
      "pitch": 57,
      "start_time": 3.5625,
      "duration": 0.1146,
      "velocity": 127
    },
    {
      "pitch": 39,
      "start_time": 4.0,
      "duration": 0.5,
      "velocity": 18
    },
    {
      "pitch": 36,
      "start_time": 4.0208,
      "duration": 0.1146,
      "velocity": 104
    },
    {
      "pitch": 42,
      "start_time": 4.0208,
      "duration": 0.0938,
      "velocity": 62
    },
    {
      "pitch": 40,
      "start_time": 4.0312,
      "duration": 0.0938,
      "velocity": 96
    },
    {
      "pitch": 44,
      "start_time": 4.0312,
      "duration": 0.0521,
      "velocity": 127
    },
    {
      "pitch": 56,
      "start_time": 4.0833,
      "duration": 0.1146,
      "velocity": 127
    },
    {
      "pitch": 39,
      "start_time": 4.5,
      "duration": 0.1875,
      "velocity": 27
    },
    {
      "pitch": 42,
      "start_time": 4.5104,
      "duration": 0.1042,
      "velocity": 44
    },
    {
      "pitch": 39,
      "start_time": 5.0,
      "duration": 0.5,
      "velocity": 36
    },
    {
      "pitch": 55,
      "start_time": 5.0,
      "duration": 0.125,
      "velocity": 71
    },
    {
      "pitch": 42,
      "start_time": 5.0104,
      "duration": 0.1146,
      "velocity": 67
    },
    {
      "pitch": 36,
      "start_time": 5.0208,
      "duration": 0.1042,
      "velocity": 112
    },
    {
      "pitch": 40,
      "start_time": 5.0208,
      "duration": 0.1042,
      "velocity": 78
    },
    {
      "pitch": 56,
      "start_time": 5.0833,
      "duration": 0.1146,
      "velocity": 127
    },
    {
      "pitch": 42,
      "start_time": 5.4896,
      "duration": 0.1146,
      "velocity": 43
    },
    {
      "pitch": 39,
      "start_time": 5.5,
      "duration": 0.5,
      "velocity": 42
    },
    {
      "pitch": 57,
      "start_time": 5.5729,
      "duration": 0.1146,
      "velocity": 121
    },
    {
      "pitch": 54,
      "start_time": 5.5833,
      "duration": 0.0521,
      "velocity": 78
    },
    {
      "pitch": 37,
      "start_time": 6.0,
      "duration": 0.1042,
      "velocity": 127
    },
    {
      "pitch": 39,
      "start_time": 6.0,
      "duration": 0.25,
      "velocity": 3
    },
    {
      "pitch": 41,
      "start_time": 6.0,
      "duration": 0.0938,
      "velocity": 126
    },
    {
      "pitch": 42,
      "start_time": 6.0,
      "duration": 0.0938,
      "velocity": 94
    },
    {
      "pitch": 53,
      "start_time": 6.0833,
      "duration": 0.0729,
      "velocity": 66
    },
    {
      "pitch": 58,
      "start_time": 6.0938,
      "duration": 0.1042,
      "velocity": 127
    },
    {
      "pitch": 45,
      "start_time": 6.1146,
      "duration": 0.1146,
      "velocity": 117
    },
    {
      "pitch": 39,
      "start_time": 6.25,
      "duration": 0.25,
      "velocity": 43
    },
    {
      "pitch": 42,
      "start_time": 6.4792,
      "duration": 0.0938,
      "velocity": 40
    },
    {
      "pitch": 39,
      "start_time": 6.5,
      "duration": 0.25,
      "velocity": 29
    },
    {
      "pitch": 52,
      "start_time": 6.5417,
      "duration": 0.0625,
      "velocity": 76
    },
    {
      "pitch": 59,
      "start_time": 6.5729,
      "duration": 0.1042,
      "velocity": 127
    },
    {
      "pitch": 39,
      "start_time": 6.75,
      "duration": 0.25,
      "velocity": 34
    },
    {
      "pitch": 39,
      "start_time": 7.0,
      "duration": 0.25,
      "velocity": 49
    },
    {
      "pitch": 42,
      "start_time": 7.0,
      "duration": 0.1771,
      "velocity": 84
    },
    {
      "pitch": 41,
      "start_time": 7.0417,
      "duration": 0.0521,
      "velocity": 28
    },
    {
      "pitch": 58,
      "start_time": 7.0417,
      "duration": 0.1146,
      "velocity": 122
    },
    {
      "pitch": 39,
      "start_time": 7.25,
      "duration": 0.25,
      "velocity": 51
    },
    {
      "pitch": 39,
      "start_time": 7.5,
      "duration": 0.25,
      "velocity": 63
    },
    {
      "pitch": 57,
      "start_time": 7.5312,
      "duration": 0.1146,
      "velocity": 126
    },
    {
      "pitch": 39,
      "start_time": 7.75,
      "duration": 0.0417,
      "velocity": 50
    }
  ]
}