{
  "source": {
    "song": "packs",
    "track_index": 0,
    "track_name": "Beat Tools / MIDI Clips / 94 - 105 bpm / Deep Knight groove 04_ 95bpm",
    "slot_index": 0,
    "clip_name": "Beat Tools / MIDI Clips / 94 - 105 bpm / Deep Knight groove 04_ 95bpm",
    "mid_file": "/Users/darnold/Music/Ableton/Packs/Beat Tools/MIDI Clips/94 - 105 bpm/Deep Knight groove 04_ 95bpm.alc"
  },
  "meta": {
    "bpm": 95.0,
    "key": "?",
    "scale": "?",
    "length_beats": 16.0,
    "note_count": 83
  },
  "rhythm": {
    "density": 0.75,
    "hit_positions": [
      -0.0,
      0.0013,
      0.0097,
      0.0167,
      0.5232,
      1.0107,
      1.012,
      1.016,
      1.5233,
      1.764,
      1.7722,
      2.0107,
      2.2691,
      2.501,
      2.5119,
      2.5145,
      3.0095,
      3.0107,
      3.0241,
      3.5338,
      3.7451,
      4.0034,
      4.0094,
      4.0204,
      4.5192,
      5.013,
      5.0142,
      5.0342,
      5.5217,
      5.7718,
      5.7976,
      6.019,
      6.0241,
      6.2623,
      6.5145,
      6.5227,
      7.0231,
      7.0293,
      7.0321,
      7.5451,
      8.0177,
      8.0256,
      8.0261,
      8.0432,
      8.5661,
      9.0124,
      9.0347,
      9.0549,
      9.5369,
      9.7584,
      9.7689,
      10.0289,
      10.2519,
      10.5018,
      10.5116,
      10.5256,
      10.9946,
      11.0028,
      11.013,
      11.5026,
      11.7387,
      11.9898,
      11.9976,
      12.0016,
      12.4875,
      12.5174,
      12.7342,
      12.9891,
      12.991,
      12.9985,
      13.5014,
      13.7498,
      13.7525,
      13.9894,
      14.0011,
      14.2486,
      14.4868,
      14.4962,
      14.9872,
      14.9967,
      15.0004,
      15.5101,
      15.9979
    ],
    "ioi": [
      0.0013,
      0.0084,
      0.007,
      0.5065,
      0.4875,
      0.0013,
      0.004,
      0.5073,
      0.2407,
      0.0082,
      0.2385,
      0.2584,
      0.2319,
      0.0109,
      0.0026,
      0.495,
      0.0012,
      0.0134,
      0.5097,
      0.2113,
      0.2583,
      0.006,
      0.011,
      0.4988,
      0.4938,
      0.0012,
      0.02,
      0.4875,
      0.2501,
      0.0258,
      0.2214,
      0.0051,
      0.2382,
      0.2522,
      0.0082,
      0.5004,
      0.0062,
      0.0028,
      0.513,
      0.4726,
      0.0079,
      0.0005,
      0.0171,
      0.5229,
      0.4463,
      0.0223,
      0.0202,
      0.482,
      0.2215,
      0.0105,
      0.26,
      0.223,
      0.2499,
      0.0098,
      0.014,
      0.469,
      0.0082,
      0.0102,
      0.4896,
      0.2361,
      0.2511,
      0.0078,
      0.004,
      0.4859,
      0.0299,
      0.2168,
      0.2549,
      0.0019,
      0.0075,
      0.5029,
      0.2484,
      0.0027,
      0.2369,
      0.0117,
      0.2475,
      0.2382,
      0.0094,
      0.491,
      0.0095,
      0.0037,
      0.5097,
      0.4878,
      0.0021
    ],
    "grid": "16th",
    "euclidean_approx": [
      64,
      64
    ],
    "swing_ratio": 1.578
  },
  "pitch": {
    "notes_used": [
      36,
      38,
      41,
      42,
      44,
      45,
      52
    ],
    "intervals": [
      8,
      8,
      6,
      0,
      4,
      7,
      3,
      0,
      6,
      8,
      2,
      6,
      8,
      2,
      6,
      2,
      7,
      3,
      0,
      6,
      0,
      8,
      2,
      0,
      4,
      4,
      3,
      3,
      6,
      8,
      2,
      6,
      0,
      0,
      6,
      0,
      4,
      7,
      3,
      2,
      8,
      16,
      10,
      0,
      3,
      7,
      4,
      0,
      6,
      8,
      2,
      6,
      0,
      8,
      2,
      4,
      7,
      3,
      0,
      6,
      8,
      2,
      6,
      0,
      6,
      6,
      9,
      7,
      4,
      0,
      6,
      8,
      2,
      1,
      5,
      6,
      6,
      9,
      7,
      4,
      0,
      10
    ],
    "register": "low",
    "is_melodic": true,
    "pitch_range": 16,
    "pitch_distribution": {
      "52": 3,
      "44": 10,
      "36": 21,
      "42": 32,
      "38": 8,
      "45": 8,
      "41": 1
    }
  },
  "velocity": {
    "mean": 94.3,
    "variance": 36.9,
    "std": 6.1,
    "accents": [],
    "profile": [
      95,
      98,
      98,
      98,
      83,
      98,
      98,
      98,
      87,
      98,
      98,
      98,
      97,
      98,
      83,
      98,
      98,
      98,
      98,
      87,
      92,
      98,
      98,
      98,
      82,
      98,
      98,
      98,
      81,
      96,
      98,
      97,
      95,
      94,
      98,
      84,
      98,
      98,
      98,
      82,
      98,
      98,
      98,
      98,
      81,
      98,
      98,
      98,
      80,
      98,
      98,
      98,
      94,
      98,
      98,
      84,
      98,
      98,
      96,
      80,
      89,
      98,
      96,
      98,
      94,
      78,
      95,
      98,
      98,
      98,
      80,
      98,
      98,
      96,
      98,
      94,
      82,
      98,
      98,
      98,
      95,
      87,
      95
    ]
  },
  "notes": [
    {
      "pitch": 52,
      "start_time": -0.0,
      "duration": 0.031,
      "velocity": 95
    },
    {
      "pitch": 44,
      "start_time": 0.0013,
      "duration": 0.0203,
      "velocity": 98
    },
    {
      "pitch": 36,
      "start_time": 0.0097,
      "duration": 0.0346,
      "velocity": 98
    },
    {
      "pitch": 42,
      "start_time": 0.0167,
      "duration": 0.1592,
      "velocity": 98
    },
    {
      "pitch": 42,
      "start_time": 0.5232,
      "duration": 0.1564,
      "velocity": 83
    },
    {
      "pitch": 38,
      "start_time": 1.0107,
      "duration": 0.0578,
      "velocity": 98
    },
    {
      "pitch": 45,
      "start_time": 1.012,
      "duration": 0.0575,
      "velocity": 98
    },
    {
      "pitch": 42,
      "start_time": 1.016,
      "duration": 0.173,
      "velocity": 98
    },
    {
      "pitch": 42,
      "start_time": 1.5233,
      "duration": 0.1627,
      "velocity": 87
    },
    {
      "pitch": 36,
      "start_time": 1.764,
      "duration": 0.0867,
      "velocity": 98
    },
    {
      "pitch": 44,
      "start_time": 1.7722,
      "duration": 0.0427,
      "velocity": 98
    },
    {
      "pitch": 42,
      "start_time": 2.0107,
      "duration": 0.1564,
      "velocity": 98
    },
    {
      "pitch": 36,
      "start_time": 2.2691,
      "duration": 0.0427,
      "velocity": 97
    },
    {
      "pitch": 44,
      "start_time": 2.501,
      "duration": 0.0895,
      "velocity": 98
    },
    {
      "pitch": 42,
      "start_time": 2.5119,
      "duration": 0.1366,
      "velocity": 83
    },
    {
      "pitch": 36,
      "start_time": 2.5145,
      "duration": 0.082,
      "velocity": 98
    },
    {
      "pitch": 38,
      "start_time": 3.0095,
      "duration": 0.0669,
      "velocity": 98
    },
    {
      "pitch": 45,
      "start_time": 3.0107,
      "duration": 0.0835,
      "velocity": 98
    },
    {
      "pitch": 42,
      "start_time": 3.0241,
      "duration": 0.1457,
      "velocity": 98
    },
    {
      "pitch": 42,
      "start_time": 3.5338,
      "duration": 0.1485,
      "velocity": 87
    },
    {
      "pitch": 36,
      "start_time": 3.7451,
      "duration": 0.0471,
      "velocity": 92
    },
    {
      "pitch": 36,
      "start_time": 4.0034,
      "duration": 0.0669,
      "velocity": 98
    },
    {
      "pitch": 44,
      "start_time": 4.0094,
      "duration": 0.0666,
      "velocity": 98
    },
    {
      "pitch": 42,
      "start_time": 4.0204,
      "duration": 0.185,
      "velocity": 98
    },
    {
      "pitch": 42,
      "start_time": 4.5192,
      "duration": 0.1671,
      "velocity": 82
    },
    {
      "pitch": 38,
      "start_time": 5.013,
      "duration": 0.0681,
      "velocity": 98
    },
    {
      "pitch": 42,
      "start_time": 5.0142,
      "duration": 0.173,
      "velocity": 98
    },
    {
      "pitch": 45,
      "start_time": 5.0342,
      "duration": 0.0832,
      "velocity": 98
    },
    {
      "pitch": 42,
      "start_time": 5.5217,
      "duration": 0.1699,
      "velocity": 81
    },
    {
      "pitch": 36,
      "start_time": 5.7718,
      "duration": 0.0499,
      "velocity": 96
    },
    {
      "pitch": 44,
      "start_time": 5.7976,
      "duration": 0.0638,
      "velocity": 98
    },
    {
      "pitch": 42,
      "start_time": 6.019,
      "duration": 0.196,
      "velocity": 97
    },
    {
      "pitch": 36,
      "start_time": 6.0241,
      "duration": 0.0392,
      "velocity": 95
    },
    {
      "pitch": 36,
      "start_time": 6.2623,
      "duration": 0.0546,
      "velocity": 94
    },
    {
      "pitch": 36,
      "start_time": 6.5145,
      "duration": 0.0515,
      "velocity": 98
    },
    {
      "pitch": 42,
      "start_time": 6.5227,
      "duration": 0.1667,
      "velocity": 84
    },
    {
      "pitch": 42,
      "start_time": 7.0231,
      "duration": 0.1683,
      "velocity": 98
    },
    {
      "pitch": 38,
      "start_time": 7.0293,
      "duration": 0.0625,
      "velocity": 98
    },
    {
      "pitch": 45,
      "start_time": 7.0321,
      "duration": 0.0396,
      "velocity": 98
    },
    {
      "pitch": 42,
      "start_time": 7.5451,
      "duration": 0.1501,
      "velocity": 82
    },
    {
      "pitch": 44,
      "start_time": 8.0177,
      "duration": 0.0393,
      "velocity": 98
    },
    {
      "pitch": 36,
      "start_time": 8.0256,
      "duration": 0.0729,
      "velocity": 98
    },
    {
      "pitch": 52,
      "start_time": 8.0261,
      "duration": 0.0396,
      "velocity": 98
    },
    {
      "pitch": 42,
      "start_time": 8.0432,
      "duration": 0.2142,
      "velocity": 98
    },
    {
      "pitch": 42,
      "start_time": 8.5661,
      "duration": 0.1212,
      "velocity": 81
    },
    {
      "pitch": 45,
      "start_time": 9.0124,
      "duration": 0.0776,
      "velocity": 98
    },
    {
      "pitch": 38,
      "start_time": 9.0347,
      "duration": 0.0575,
      "velocity": 98
    },
    {
      "pitch": 42,
      "start_time": 9.0549,
      "duration": 0.1988,
      "velocity": 98
    },
    {
      "pitch": 42,
      "start_time": 9.5369,
      "duration": 0.1335,
      "velocity": 80
    },
    {
      "pitch": 36,
      "start_time": 9.7584,
      "duration": 0.0776,
      "velocity": 98
    },
    {
      "pitch": 44,
      "start_time": 9.7689,
      "duration": 0.0832,
      "velocity": 98
    },
    {
      "pitch": 42,
      "start_time": 10.0289,
      "duration": 0.1853,
      "velocity": 98
    },
    {
      "pitch": 36,
      "start_time": 10.2519,
      "duration": 0.0424,
      "velocity": 94
    },
    {
      "pitch": 36,
      "start_time": 10.5018,
      "duration": 0.0622,
      "velocity": 98
    },
    {
      "pitch": 44,
      "start_time": 10.5116,
      "duration": 0.0848,
      "velocity": 98
    },
    {
      "pitch": 42,
      "start_time": 10.5256,
      "duration": 0.1486,
      "velocity": 84
    },
    {
      "pitch": 38,
      "start_time": 10.9946,
      "duration": 0.0804,
      "velocity": 98
    },
    {
      "pitch": 45,
      "start_time": 11.0028,
      "duration": 0.0424,
      "velocity": 98
    },
    {
      "pitch": 42,
      "start_time": 11.013,
      "duration": 0.173,
      "velocity": 96
    },
    {
      "pitch": 42,
      "start_time": 11.5026,
      "duration": 0.1259,
      "velocity": 80
    },
    {
      "pitch": 36,
      "start_time": 11.7387,
      "duration": 0.044,
      "velocity": 89
    },
    {
      "pitch": 44,
      "start_time": 11.9898,
      "duration": 0.0757,
      "velocity": 98
    },
    {
      "pitch": 42,
      "start_time": 11.9976,
      "duration": 0.1778,
      "velocity": 96
    },
    {
      "pitch": 36,
      "start_time": 12.0016,
      "duration": 0.076,
      "velocity": 98
    },
    {
      "pitch": 36,
      "start_time": 12.4875,
      "duration": 0.0483,
      "velocity": 94
    },
    {
      "pitch": 42,
      "start_time": 12.5174,
      "duration": 0.1046,
      "velocity": 78
    },
    {
      "pitch": 36,
      "start_time": 12.7342,
      "duration": 0.0503,
      "velocity": 95
    },
    {
      "pitch": 45,
      "start_time": 12.9891,
      "duration": 0.0773,
      "velocity": 98
    },
    {
      "pitch": 38,
      "start_time": 12.991,
      "duration": 0.0729,
      "velocity": 98
    },
    {
      "pitch": 42,
      "start_time": 12.9985,
      "duration": 0.1806,
      "velocity": 98
    },
    {
      "pitch": 42,
      "start_time": 13.5014,
      "duration": 0.1121,
      "velocity": 80
    },
    {
      "pitch": 36,
      "start_time": 13.7498,
      "duration": 0.0773,
      "velocity": 98
    },
    {
      "pitch": 44,
      "start_time": 13.7525,
      "duration": 0.0788,
      "velocity": 98
    },
    {
      "pitch": 42,
      "start_time": 13.9894,
      "duration": 0.1595,
      "velocity": 96
    },
    {
      "pitch": 41,
      "start_time": 14.0011,
      "duration": 0.0781,
      "velocity": 98
    },
    {
      "pitch": 36,
      "start_time": 14.2486,
      "duration": 0.0455,
      "velocity": 94
    },
    {
      "pitch": 42,
      "start_time": 14.4868,
      "duration": 0.1168,
      "velocity": 82
    },
    {
      "pitch": 36,
      "start_time": 14.4962,
      "duration": 0.0788,
      "velocity": 98
    },
    {
      "pitch": 45,
      "start_time": 14.9872,
      "duration": 0.0591,
      "velocity": 98
    },
    {
      "pitch": 38,
      "start_time": 14.9967,
      "duration": 0.0713,
      "velocity": 98
    },
    {
      "pitch": 42,
      "start_time": 15.0004,
      "duration": 0.1687,
      "velocity": 95
    },
    {
      "pitch": 42,
      "start_time": 15.5101,
      "duration": 0.1306,
      "velocity": 87
    },
    {
      "pitch": 52,
      "start_time": 15.9979,
      "duration": 0.0042,
      "velocity": 95
    }
  ]
}