{
  "source": {
    "song": "packs",
    "track_index": 0,
    "track_name": "Beat Tools / MIDI Clips / 132 - 152 bpm / Rock Wit Me groove 04_140 bpm",
    "slot_index": 0,
    "clip_name": "Beat Tools / MIDI Clips / 132 - 152 bpm / Rock Wit Me groove 04_140 bpm",
    "mid_file": "/Users/darnold/Music/Ableton/Packs/Beat Tools/MIDI Clips/132 - 152 bpm/Rock Wit Me groove 04_140 bpm.alc"
  },
  "meta": {
    "bpm": 140.0,
    "key": "?",
    "scale": "?",
    "length_beats": 8.0,
    "note_count": 79
  },
  "rhythm": {
    "density": 1.188,
    "hit_positions": [
      0.0,
      0.0,
      0.0,
      0.0,
      0.0,
      0.0,
      0.0104,
      0.25,
      0.25,
      0.5,
      0.5,
      0.75,
      0.75,
      0.9062,
      1.0,
      1.0,
      1.0,
      1.25,
      1.25,
      1.5,
      1.5,
      1.5,
      1.75,
      1.75,
      2.0,
      2.0,
      2.0,
      2.0,
      2.25,
      2.25,
      2.5,
      2.5,
      2.75,
      2.75,
      2.9688,
      3.0,
      3.0,
      3.0625,
      3.25,
      3.25,
      3.5,
      3.5,
      3.75,
      3.75,
      4.0,
      4.0,
      4.25,
      4.25,
      4.5,
      4.5,
      4.75,
      4.75,
      4.75,
      5.0,
      5.0,
      5.0104,
      5.25,
      5.25,
      5.5,
      5.5,
      5.75,
      5.75,
      5.9583,
      6.0,
      6.0,
      6.0312,
      6.25,
      6.5,
      6.75,
      6.9896,
      7.0,
      7.25,
      7.375,
      7.5,
      7.5,
      7.625,
      7.75,
      7.75,
      7.875
    ],
    "ioi": [
      0.0,
      0.0,
      0.0,
      0.0,
      0.0,
      0.0104,
      0.2396,
      0.0,
      0.25,
      0.0,
      0.25,
      0.0,
      0.1562,
      0.0938,
      0.0,
      0.0,
      0.25,
      0.0,
      0.25,
      0.0,
      0.0,
      0.25,
      0.0,
      0.25,
      0.0,
      0.0,
      0.0,
      0.25,
      0.0,
      0.25,
      0.0,
      0.25,
      0.0,
      0.2188,
      0.0312,
      0.0,
      0.0625,
      0.1875,
      0.0,
      0.25,
      0.0,
      0.25,
      0.0,
      0.25,
      0.0,
      0.25,
      0.0,
      0.25,
      0.0,
      0.25,
      0.0,
      0.0,
      0.25,
      0.0,
      0.0104,
      0.2396,
      0.0,
      0.25,
      0.0,
      0.25,
      0.0,
      0.2083,
      0.0417,
      0.0,
      0.0312,
      0.2188,
      0.25,
      0.25,
      0.2396,
      0.0104,
      0.25,
      0.125,
      0.125,
      0.0,
      0.125,
      0.125,
      0.0,
      0.125,
      0.125
    ],
    "grid": "16th",
    "euclidean_approx": [
      32,
      32
    ],
    "swing_ratio": 1.119
  },
  "pitch": {
    "notes_used": [
      37,
      38,
      39,
      42,
      44,
      46,
      48,
      50,
      51,
      56,
      57,
      59
    ],
    "intervals": [
      2,
      2,
      2,
      3,
      8,
      3,
      14,
      6,
      6,
      6,
      6,
      6,
      9,
      2,
      5,
      6,
      6,
      6,
      6,
      2,
      4,
      6,
      6,
      10,
      4,
      6,
      2,
      8,
      8,
      8,
      8,
      8,
      8,
      11,
      3,
      8,
      7,
      15,
      8,
      8,
      8,
      8,
      8,
      8,
      8,
      8,
      8,
      8,
      8,
      8,
      6,
      2,
      8,
      6,
      9,
      3,
      6,
      6,
      6,
      6,
      6,
      11,
      21,
      4,
      9,
      9,
      0,
      0,
      3,
      3,
      0,
      4,
      4,
      4,
      0,
      4,
      4,
      0
    ],
    "register": "low",
    "is_melodic": true,
    "pitch_range": 22,
    "pitch_distribution": {
      "42": 32,
      "44": 2,
      "46": 6,
      "48": 14,
      "51": 2,
      "59": 2,
      "56": 1,
      "39": 4,
      "37": 1,
      "38": 2,
      "50": 12,
      "57": 1
    }
  },
  "velocity": {
    "mean": 84.2,
    "variance": 779.5,
    "std": 27.9,
    "accents": [
      1,
      4,
      5,
      6,
      13,
      14,
      20,
      24,
      34,
      37,
      55,
      62,
      63,
      65
    ],
    "profile": [
      72,
      126,
      100,
      87,
      124,
      120,
      122,
      36,
      100,
      49,
      102,
      64,
      104,
      119,
      127,
      63,
      104,
      47,
      102,
      49,
      125,
      102,
      60,
      104,
      127,
      51,
      103,
      91,
      49,
      94,
      55,
      101,
      64,
      102,
      113,
      63,
      102,
      123,
      49,
      101,
      45,
      102,
      52,
      102,
      61,
      102,
      42,
      103,
      59,
      104,
      60,
      96,
      99,
      59,
      96,
      114,
      60,
      99,
      44,
      102,
      63,
      103,
      120,
      123,
      64,
      124,
      46,
      64,
      46,
      103,
      62,
      47,
      28,
      46,
      71,
      84,
      66,
      91,
      104
    ]
  },
  "notes": [
    {
      "pitch": 42,
      "start_time": 0.0,
      "duration": 0.25,
      "velocity": 72
    },
    {
      "pitch": 44,
      "start_time": 0.0,
      "duration": 0.0729,
      "velocity": 126
    },
    {
      "pitch": 46,
      "start_time": 0.0,
      "duration": 0.125,
      "velocity": 100
    },
    {
      "pitch": 48,
      "start_time": 0.0,
      "duration": 0.125,
      "velocity": 87
    },
    {
      "pitch": 51,
      "start_time": 0.0,
      "duration": 0.0417,
      "velocity": 124
    },
    {
      "pitch": 59,
      "start_time": 0.0,
      "duration": 0.0417,
      "velocity": 120
    },
    {
      "pitch": 56,
      "start_time": 0.0104,
      "duration": 2.7917,
      "velocity": 122
    },
    {
      "pitch": 42,
      "start_time": 0.25,
      "duration": 0.25,
      "velocity": 36
    },
    {
      "pitch": 48,
      "start_time": 0.25,
      "duration": 0.25,
      "velocity": 100
    },
    {
      "pitch": 42,
      "start_time": 0.5,
      "duration": 0.25,
      "velocity": 49
    },
    {
      "pitch": 48,
      "start_time": 0.5,
      "duration": 0.25,
      "velocity": 102
    },
    {
      "pitch": 42,
      "start_time": 0.75,
      "duration": 0.25,
      "velocity": 64
    },
    {
      "pitch": 48,
      "start_time": 0.75,
      "duration": 0.25,
      "velocity": 104
    },
    {
      "pitch": 39,
      "start_time": 0.9062,
      "duration": 0.0729,
      "velocity": 119
    },
    {
      "pitch": 37,
      "start_time": 1.0,
      "duration": 0.0833,
      "velocity": 127
    },
    {
      "pitch": 42,
      "start_time": 1.0,
      "duration": 0.25,
      "velocity": 63
    },
    {
      "pitch": 48,
      "start_time": 1.0,
      "duration": 0.25,
      "velocity": 104
    },
    {
      "pitch": 42,
      "start_time": 1.25,
      "duration": 0.25,
      "velocity": 47
    },
    {
      "pitch": 48,
      "start_time": 1.25,
      "duration": 0.25,
      "velocity": 102
    },
    {
      "pitch": 42,
      "start_time": 1.5,
      "duration": 0.25,
      "velocity": 49
    },
    {
      "pitch": 44,
      "start_time": 1.5,
      "duration": 0.0938,
      "velocity": 125
    },
    {
      "pitch": 48,
      "start_time": 1.5,
      "duration": 0.25,
      "velocity": 102
    },
    {
      "pitch": 42,
      "start_time": 1.75,
      "duration": 0.25,
      "velocity": 60
    },
    {
      "pitch": 48,
      "start_time": 1.75,
      "duration": 0.25,
      "velocity": 104
    },
    {
      "pitch": 38,
      "start_time": 2.0,
      "duration": 0.1042,
      "velocity": 127
    },
    {
      "pitch": 42,
      "start_time": 2.0,
      "duration": 0.25,
      "velocity": 51
    },
    {
      "pitch": 48,
      "start_time": 2.0,
      "duration": 0.0208,
      "velocity": 103
    },
    {
      "pitch": 50,
      "start_time": 2.0,
      "duration": 0.25,
      "velocity": 91
    },
    {
      "pitch": 42,
      "start_time": 2.25,
      "duration": 0.25,
      "velocity": 49
    },
    {
      "pitch": 50,
      "start_time": 2.25,
      "duration": 0.25,
      "velocity": 94
    },
    {
      "pitch": 42,
      "start_time": 2.5,
      "duration": 0.25,
      "velocity": 55
    },
    {
      "pitch": 50,
      "start_time": 2.5,
      "duration": 0.25,
      "velocity": 101
    },
    {
      "pitch": 42,
      "start_time": 2.75,
      "duration": 0.25,
      "velocity": 64
    },
    {
      "pitch": 50,
      "start_time": 2.75,
      "duration": 0.25,
      "velocity": 102
    },
    {
      "pitch": 39,
      "start_time": 2.9688,
      "duration": 0.0729,
      "velocity": 113
    },
    {
      "pitch": 42,
      "start_time": 3.0,
      "duration": 0.25,
      "velocity": 63
    },
    {
      "pitch": 50,
      "start_time": 3.0,
      "duration": 0.25,
      "velocity": 102
    },
    {
      "pitch": 57,
      "start_time": 3.0625,
      "duration": 2.9062,
      "velocity": 123
    },
    {
      "pitch": 42,
      "start_time": 3.25,
      "duration": 0.25,
      "velocity": 49
    },
    {
      "pitch": 50,
      "start_time": 3.25,
      "duration": 0.25,
      "velocity": 101
    },
    {
      "pitch": 42,
      "start_time": 3.5,
      "duration": 0.25,
      "velocity": 45
    },
    {
      "pitch": 50,
      "start_time": 3.5,
      "duration": 0.25,
      "velocity": 102
    },
    {
      "pitch": 42,
      "start_time": 3.75,
      "duration": 0.25,
      "velocity": 52
    },
    {
      "pitch": 50,
      "start_time": 3.75,
      "duration": 0.25,
      "velocity": 102
    },
    {
      "pitch": 42,
      "start_time": 4.0,
      "duration": 0.25,
      "velocity": 61
    },
    {
      "pitch": 50,
      "start_time": 4.0,
      "duration": 0.25,
      "velocity": 102
    },
    {
      "pitch": 42,
      "start_time": 4.25,
      "duration": 0.25,
      "velocity": 42
    },
    {
      "pitch": 50,
      "start_time": 4.25,
      "duration": 0.25,
      "velocity": 103
    },
    {
      "pitch": 42,
      "start_time": 4.5,
      "duration": 0.25,
      "velocity": 59
    },
    {
      "pitch": 50,
      "start_time": 4.5,
      "duration": 0.25,
      "velocity": 104
    },
    {
      "pitch": 42,
      "start_time": 4.75,
      "duration": 0.25,
      "velocity": 60
    },
    {
      "pitch": 48,
      "start_time": 4.75,
      "duration": 0.25,
      "velocity": 96
    },
    {
      "pitch": 50,
      "start_time": 4.75,
      "duration": 0.0417,
      "velocity": 99
    },
    {
      "pitch": 42,
      "start_time": 5.0,
      "duration": 0.25,
      "velocity": 59
    },
    {
      "pitch": 48,
      "start_time": 5.0,
      "duration": 0.25,
      "velocity": 96
    },
    {
      "pitch": 39,
      "start_time": 5.0104,
      "duration": 0.0729,
      "velocity": 114
    },
    {
      "pitch": 42,
      "start_time": 5.25,
      "duration": 0.25,
      "velocity": 60
    },
    {
      "pitch": 48,
      "start_time": 5.25,
      "duration": 0.25,
      "velocity": 99
    },
    {
      "pitch": 42,
      "start_time": 5.5,
      "duration": 0.25,
      "velocity": 44
    },
    {
      "pitch": 48,
      "start_time": 5.5,
      "duration": 0.25,
      "velocity": 102
    },
    {
      "pitch": 42,
      "start_time": 5.75,
      "duration": 0.25,
      "velocity": 63
    },
    {
      "pitch": 48,
      "start_time": 5.75,
      "duration": 0.1979,
      "velocity": 103
    },
    {
      "pitch": 59,
      "start_time": 5.9583,
      "duration": 2.0417,
      "velocity": 120
    },
    {
      "pitch": 38,
      "start_time": 6.0,
      "duration": 0.1562,
      "velocity": 123
    },
    {
      "pitch": 42,
      "start_time": 6.0,
      "duration": 0.25,
      "velocity": 64
    },
    {
      "pitch": 51,
      "start_time": 6.0312,
      "duration": 1.9688,
      "velocity": 124
    },
    {
      "pitch": 42,
      "start_time": 6.25,
      "duration": 0.25,
      "velocity": 46
    },
    {
      "pitch": 42,
      "start_time": 6.5,
      "duration": 0.25,
      "velocity": 64
    },
    {
      "pitch": 42,
      "start_time": 6.75,
      "duration": 0.25,
      "velocity": 46
    },
    {
      "pitch": 39,
      "start_time": 6.9896,
      "duration": 0.1042,
      "velocity": 103
    },
    {
      "pitch": 42,
      "start_time": 7.0,
      "duration": 0.25,
      "velocity": 62
    },
    {
      "pitch": 42,
      "start_time": 7.25,
      "duration": 0.25,
      "velocity": 47
    },
    {
      "pitch": 46,
      "start_time": 7.375,
      "duration": 0.125,
      "velocity": 28
    },
    {
      "pitch": 42,
      "start_time": 7.5,
      "duration": 0.25,
      "velocity": 46
    },
    {
      "pitch": 46,
      "start_time": 7.5,
      "duration": 0.125,
      "velocity": 71
    },
    {
      "pitch": 46,
      "start_time": 7.625,
      "duration": 0.125,
      "velocity": 84
    },
    {
      "pitch": 42,
      "start_time": 7.75,
      "duration": 0.1667,
      "velocity": 66
    },
    {
      "pitch": 46,
      "start_time": 7.75,
      "duration": 0.125,
      "velocity": 91
    },
    {
      "pitch": 46,
      "start_time": 7.875,
      "duration": 0.1042,
      "velocity": 104
    }
  ]
}