{
  "source": {
    "song": "packs",
    "track_index": 0,
    "track_name": "Beat Tools / MIDI Clips / 132 - 152 bpm / Agile Shot Kit groove 04_132 bpm",
    "slot_index": 0,
    "clip_name": "Beat Tools / MIDI Clips / 132 - 152 bpm / Agile Shot Kit groove 04_132 bpm",
    "mid_file": "/Users/darnold/Music/Ableton/Packs/Beat Tools/MIDI Clips/132 - 152 bpm/Agile Shot Kit groove 04_132 bpm.alc"
  },
  "meta": {
    "bpm": 132.0,
    "key": "?",
    "scale": "?",
    "length_beats": 8.0,
    "note_count": 51
  },
  "rhythm": {
    "density": 0.844,
    "hit_positions": [
      0.0,
      0.0,
      0.0,
      0.0,
      0.0,
      0.5,
      1.0,
      1.0,
      1.25,
      1.5,
      1.5,
      1.5,
      2.0,
      2.0,
      2.0,
      3.0,
      3.0,
      3.0,
      3.25,
      3.5,
      3.5,
      3.75,
      4.0,
      4.0,
      4.75,
      5.0,
      5.0,
      5.0,
      5.5,
      5.5,
      5.5,
      5.75,
      6.0,
      6.0,
      6.25,
      6.5,
      6.5,
      6.75,
      7.0,
      7.0,
      7.0,
      7.0,
      7.125,
      7.25,
      7.25,
      7.375,
      7.5,
      7.5,
      7.625,
      7.75,
      7.875
    ],
    "ioi": [
      0.0,
      0.0,
      0.0,
      0.0,
      0.5,
      0.5,
      0.0,
      0.25,
      0.25,
      0.0,
      0.0,
      0.5,
      0.0,
      0.0,
      1.0,
      0.0,
      0.0,
      0.25,
      0.25,
      0.0,
      0.25,
      0.25,
      0.0,
      0.75,
      0.25,
      0.0,
      0.0,
      0.5,
      0.0,
      0.0,
      0.25,
      0.25,
      0.0,
      0.25,
      0.25,
      0.0,
      0.25,
      0.25,
      0.0,
      0.0,
      0.0,
      0.125,
      0.125,
      0.0,
      0.125,
      0.125,
      0.0,
      0.125,
      0.125,
      0.125,
      0.125
    ],
    "grid": "16th",
    "euclidean_approx": [
      32,
      32
    ],
    "swing_ratio": 1.083
  },
  "pitch": {
    "notes_used": [
      36,
      37,
      38,
      39,
      40,
      42,
      48,
      49,
      52,
      54,
      56,
      58
    ],
    "intervals": [
      3,
      1,
      2,
      7,
      5,
      12,
      12,
      12,
      6,
      6,
      6,
      11,
      12,
      3,
      16,
      13,
      7,
      14,
      4,
      4,
      4,
      0,
      20,
      16,
      6,
      6,
      6,
      12,
      6,
      6,
      10,
      1,
      5,
      0,
      4,
      4,
      0,
      6,
      2,
      2,
      2,
      0,
      4,
      4,
      0,
      4,
      4,
      0,
      0,
      0
    ],
    "register": "low",
    "is_melodic": true,
    "pitch_range": 22,
    "pitch_distribution": {
      "36": 6,
      "39": 1,
      "40": 2,
      "42": 21,
      "49": 3,
      "54": 2,
      "48": 3,
      "37": 2,
      "52": 1,
      "56": 1,
      "38": 8,
      "58": 1
    }
  },
  "velocity": {
    "mean": 63.1,
    "variance": 1492.6,
    "std": 38.6,
    "accents": [
      1,
      2,
      4,
      13,
      16,
      27,
      30,
      31,
      40
    ],
    "profile": [
      91,
      127,
      127,
      72,
      127,
      98,
      74,
      82,
      74,
      50,
      29,
      86,
      100,
      127,
      86,
      61,
      111,
      66,
      91,
      57,
      37,
      30,
      34,
      85,
      34,
      50,
      38,
      110,
      59,
      69,
      127,
      112,
      96,
      5,
      5,
      90,
      19,
      1,
      50,
      98,
      104,
      1,
      2,
      28,
      2,
      14,
      51,
      16,
      33,
      45,
      35
    ]
  },
  "notes": [
    {
      "pitch": 36,
      "start_time": 0.0,
      "duration": 0.1183,
      "velocity": 91
    },
    {
      "pitch": 39,
      "start_time": 0.0,
      "duration": 1.9454,
      "velocity": 127
    },
    {
      "pitch": 40,
      "start_time": 0.0,
      "duration": 1.9386,
      "velocity": 127
    },
    {
      "pitch": 42,
      "start_time": 0.0,
      "duration": 0.0922,
      "velocity": 72
    },
    {
      "pitch": 49,
      "start_time": 0.0,
      "duration": 0.098,
      "velocity": 127
    },
    {
      "pitch": 54,
      "start_time": 0.5,
      "duration": 0.0997,
      "velocity": 98
    },
    {
      "pitch": 42,
      "start_time": 1.0,
      "duration": 0.25,
      "velocity": 74
    },
    {
      "pitch": 54,
      "start_time": 1.0,
      "duration": 0.6612,
      "velocity": 82
    },
    {
      "pitch": 42,
      "start_time": 1.25,
      "duration": 0.25,
      "velocity": 74
    },
    {
      "pitch": 36,
      "start_time": 1.5,
      "duration": 0.1297,
      "velocity": 50
    },
    {
      "pitch": 42,
      "start_time": 1.5,
      "duration": 0.0746,
      "velocity": 29
    },
    {
      "pitch": 48,
      "start_time": 1.5,
      "duration": 0.1015,
      "velocity": 86
    },
    {
      "pitch": 37,
      "start_time": 2.0,
      "duration": 0.1279,
      "velocity": 100
    },
    {
      "pitch": 49,
      "start_time": 2.0,
      "duration": 0.1303,
      "velocity": 127
    },
    {
      "pitch": 52,
      "start_time": 2.0,
      "duration": 0.9551,
      "velocity": 86
    },
    {
      "pitch": 36,
      "start_time": 3.0,
      "duration": 0.1057,
      "velocity": 61
    },
    {
      "pitch": 49,
      "start_time": 3.0,
      "duration": 0.0939,
      "velocity": 111
    },
    {
      "pitch": 56,
      "start_time": 3.0,
      "duration": 0.0541,
      "velocity": 66
    },
    {
      "pitch": 42,
      "start_time": 3.25,
      "duration": 0.25,
      "velocity": 91
    },
    {
      "pitch": 38,
      "start_time": 3.5,
      "duration": 0.25,
      "velocity": 57
    },
    {
      "pitch": 42,
      "start_time": 3.5,
      "duration": 0.0935,
      "velocity": 37
    },
    {
      "pitch": 38,
      "start_time": 3.75,
      "duration": 0.25,
      "velocity": 30
    },
    {
      "pitch": 38,
      "start_time": 4.0,
      "duration": 0.1541,
      "velocity": 34
    },
    {
      "pitch": 58,
      "start_time": 4.0,
      "duration": 0.0878,
      "velocity": 85
    },
    {
      "pitch": 42,
      "start_time": 4.75,
      "duration": 0.25,
      "velocity": 34
    },
    {
      "pitch": 36,
      "start_time": 5.0,
      "duration": 0.101,
      "velocity": 50
    },
    {
      "pitch": 42,
      "start_time": 5.0,
      "duration": 0.1063,
      "velocity": 38
    },
    {
      "pitch": 48,
      "start_time": 5.0,
      "duration": 0.1028,
      "velocity": 110
    },
    {
      "pitch": 36,
      "start_time": 5.5,
      "duration": 0.1048,
      "velocity": 59
    },
    {
      "pitch": 42,
      "start_time": 5.5,
      "duration": 0.123,
      "velocity": 69
    },
    {
      "pitch": 48,
      "start_time": 5.5,
      "duration": 0.0976,
      "velocity": 127
    },
    {
      "pitch": 38,
      "start_time": 5.75,
      "duration": 0.033,
      "velocity": 112
    },
    {
      "pitch": 37,
      "start_time": 6.0,
      "duration": 0.1563,
      "velocity": 96
    },
    {
      "pitch": 42,
      "start_time": 6.0,
      "duration": 0.25,
      "velocity": 5
    },
    {
      "pitch": 42,
      "start_time": 6.25,
      "duration": 0.25,
      "velocity": 5
    },
    {
      "pitch": 38,
      "start_time": 6.5,
      "duration": 0.0798,
      "velocity": 90
    },
    {
      "pitch": 42,
      "start_time": 6.5,
      "duration": 0.25,
      "velocity": 19
    },
    {
      "pitch": 42,
      "start_time": 6.75,
      "duration": 0.25,
      "velocity": 1
    },
    {
      "pitch": 36,
      "start_time": 7.0,
      "duration": 0.1208,
      "velocity": 50
    },
    {
      "pitch": 38,
      "start_time": 7.0,
      "duration": 0.25,
      "velocity": 98
    },
    {
      "pitch": 40,
      "start_time": 7.0,
      "duration": 0.058,
      "velocity": 104
    },
    {
      "pitch": 42,
      "start_time": 7.0,
      "duration": 0.125,
      "velocity": 1
    },
    {
      "pitch": 42,
      "start_time": 7.125,
      "duration": 0.125,
      "velocity": 2
    },
    {
      "pitch": 38,
      "start_time": 7.25,
      "duration": 0.25,
      "velocity": 28
    },
    {
      "pitch": 42,
      "start_time": 7.25,
      "duration": 0.125,
      "velocity": 2
    },
    {
      "pitch": 42,
      "start_time": 7.375,
      "duration": 0.125,
      "velocity": 14
    },
    {
      "pitch": 38,
      "start_time": 7.5,
      "duration": 0.1164,
      "velocity": 51
    },
    {
      "pitch": 42,
      "start_time": 7.5,
      "duration": 0.125,
      "velocity": 16
    },
    {
      "pitch": 42,
      "start_time": 7.625,
      "duration": 0.125,
      "velocity": 33
    },
    {
      "pitch": 42,
      "start_time": 7.75,
      "duration": 0.125,
      "velocity": 45
    },
    {
      "pitch": 42,
      "start_time": 7.875,
      "duration": 0.0451,
      "velocity": 35
    }
  ]
}