{
  "source": {
    "song": "packs",
    "track_index": 0,
    "track_name": "Beat Tools / MIDI Clips / 110 - 124 bpm / Azimuth Kit groove 03_114 bpm",
    "slot_index": 0,
    "clip_name": "Beat Tools / MIDI Clips / 110 - 124 bpm / Azimuth Kit groove 03_114 bpm",
    "mid_file": "/Users/darnold/Music/Ableton/Packs/Beat Tools/MIDI Clips/110 - 124 bpm/Azimuth Kit groove 03_114 bpm.alc"
  },
  "meta": {
    "bpm": 114.0,
    "key": "?",
    "scale": "?",
    "length_beats": 8.0,
    "note_count": 56
  },
  "rhythm": {
    "density": 0.844,
    "hit_positions": [
      0.0,
      0.0,
      0.0,
      0.0,
      0.0,
      0.5,
      0.5,
      0.75,
      1.0,
      1.0,
      1.0,
      1.25,
      1.5,
      1.5,
      1.5,
      2.0,
      2.0,
      2.0,
      2.0,
      2.5,
      3.0,
      3.5,
      3.5,
      3.5,
      3.625,
      3.75,
      3.875,
      4.0,
      4.0,
      4.0,
      4.0,
      4.5,
      4.5,
      4.5,
      5.0,
      5.0,
      5.0,
      5.3333,
      5.5,
      5.6667,
      6.0,
      6.0,
      6.0,
      6.0,
      6.0,
      6.5,
      6.75,
      7.0,
      7.0,
      7.5,
      7.5,
      7.5,
      7.625,
      7.75,
      7.75,
      7.875
    ],
    "ioi": [
      0.0,
      0.0,
      0.0,
      0.0,
      0.5,
      0.0,
      0.25,
      0.25,
      0.0,
      0.0,
      0.25,
      0.25,
      0.0,
      0.0,
      0.5,
      0.0,
      0.0,
      0.0,
      0.5,
      0.5,
      0.5,
      0.0,
      0.0,
      0.125,
      0.125,
      0.125,
      0.125,
      0.0,
      0.0,
      0.0,
      0.5,
      0.0,
      0.0,
      0.5,
      0.0,
      0.0,
      0.3333,
      0.1667,
      0.1667,
      0.3333,
      0.0,
      0.0,
      0.0,
      0.0,
      0.5,
      0.25,
      0.25,
      0.0,
      0.5,
      0.0,
      0.0,
      0.125,
      0.125,
      0.0,
      0.125,
      0.125
    ],
    "grid": "16th",
    "euclidean_approx": [
      32,
      32
    ],
    "swing_ratio": 1.148
  },
  "pitch": {
    "notes_used": [
      36,
      38,
      39,
      42,
      43,
      44,
      46,
      49,
      50,
      53,
      54
    ],
    "intervals": [
      6,
      2,
      5,
      5,
      12,
      7,
      13,
      0,
      6,
      8,
      8,
      0,
      1,
      6,
      11,
      1,
      3,
      7,
      7,
      0,
      6,
      6,
      1,
      1,
      0,
      0,
      6,
      6,
      4,
      3,
      7,
      7,
      4,
      11,
      4,
      3,
      7,
      1,
      1,
      4,
      1,
      3,
      4,
      3,
      7,
      0,
      0,
      4,
      10,
      6,
      8,
      8,
      6,
      6,
      0
    ],
    "register": "low",
    "is_melodic": true,
    "pitch_range": 18,
    "pitch_distribution": {
      "36": 7,
      "42": 25,
      "44": 1,
      "49": 8,
      "54": 1,
      "50": 2,
      "43": 3,
      "38": 2,
      "39": 2,
      "46": 4,
      "53": 1
    }
  },
  "velocity": {
    "mean": 70.8,
    "variance": 816.5,
    "std": 28.6,
    "accents": [
      2,
      3,
      18,
      29,
      35,
      36,
      41,
      43,
      44,
      48,
      53
    ],
    "profile": [
      67,
      49,
      122,
      109,
      79,
      32,
      89,
      57,
      64,
      87,
      96,
      43,
      66,
      62,
      68,
      88,
      95,
      59,
      103,
      21,
      45,
      3,
      58,
      37,
      33,
      38,
      43,
      97,
      43,
      102,
      93,
      33,
      97,
      49,
      44,
      119,
      102,
      58,
      38,
      63,
      99,
      101,
      64,
      126,
      111,
      55,
      82,
      70,
      124,
      76,
      57,
      81,
      57,
      105,
      50,
      54
    ]
  },
  "notes": [
    {
      "pitch": 36,
      "start_time": 0.0,
      "duration": 0.0729,
      "velocity": 67
    },
    {
      "pitch": 42,
      "start_time": 0.0,
      "duration": 0.0625,
      "velocity": 49
    },
    {
      "pitch": 44,
      "start_time": 0.0,
      "duration": 2.6042,
      "velocity": 122
    },
    {
      "pitch": 49,
      "start_time": 0.0,
      "duration": 0.0417,
      "velocity": 109
    },
    {
      "pitch": 54,
      "start_time": 0.0,
      "duration": 7.8125,
      "velocity": 79
    },
    {
      "pitch": 42,
      "start_time": 0.5,
      "duration": 0.0625,
      "velocity": 32
    },
    {
      "pitch": 49,
      "start_time": 0.5,
      "duration": 0.7917,
      "velocity": 89
    },
    {
      "pitch": 36,
      "start_time": 0.75,
      "duration": 0.0729,
      "velocity": 57
    },
    {
      "pitch": 36,
      "start_time": 1.0,
      "duration": 0.0729,
      "velocity": 64
    },
    {
      "pitch": 42,
      "start_time": 1.0,
      "duration": 0.25,
      "velocity": 87
    },
    {
      "pitch": 50,
      "start_time": 1.0,
      "duration": 2.6667,
      "velocity": 96
    },
    {
      "pitch": 42,
      "start_time": 1.25,
      "duration": 0.25,
      "velocity": 43
    },
    {
      "pitch": 42,
      "start_time": 1.5,
      "duration": 0.1146,
      "velocity": 66
    },
    {
      "pitch": 43,
      "start_time": 1.5,
      "duration": 0.4792,
      "velocity": 62
    },
    {
      "pitch": 49,
      "start_time": 1.5,
      "duration": 0.0625,
      "velocity": 68
    },
    {
      "pitch": 38,
      "start_time": 2.0,
      "duration": 0.0729,
      "velocity": 88
    },
    {
      "pitch": 39,
      "start_time": 2.0,
      "duration": 0.4688,
      "velocity": 95
    },
    {
      "pitch": 42,
      "start_time": 2.0,
      "duration": 0.0729,
      "velocity": 59
    },
    {
      "pitch": 49,
      "start_time": 2.0,
      "duration": 1.5417,
      "velocity": 103
    },
    {
      "pitch": 42,
      "start_time": 2.5,
      "duration": 0.0417,
      "velocity": 21
    },
    {
      "pitch": 42,
      "start_time": 3.0,
      "duration": 0.0938,
      "velocity": 45
    },
    {
      "pitch": 36,
      "start_time": 3.5,
      "duration": 0.001,
      "velocity": 3
    },
    {
      "pitch": 42,
      "start_time": 3.5,
      "duration": 0.125,
      "velocity": 58
    },
    {
      "pitch": 43,
      "start_time": 3.5,
      "duration": 0.4167,
      "velocity": 37
    },
    {
      "pitch": 42,
      "start_time": 3.625,
      "duration": 0.125,
      "velocity": 33
    },
    {
      "pitch": 42,
      "start_time": 3.75,
      "duration": 0.125,
      "velocity": 38
    },
    {
      "pitch": 42,
      "start_time": 3.875,
      "duration": 0.0938,
      "velocity": 43
    },
    {
      "pitch": 36,
      "start_time": 4.0,
      "duration": 0.0938,
      "velocity": 97
    },
    {
      "pitch": 42,
      "start_time": 4.0,
      "duration": 0.0312,
      "velocity": 43
    },
    {
      "pitch": 46,
      "start_time": 4.0,
      "duration": 0.1146,
      "velocity": 102
    },
    {
      "pitch": 49,
      "start_time": 4.0,
      "duration": 0.0521,
      "velocity": 93
    },
    {
      "pitch": 42,
      "start_time": 4.5,
      "duration": 0.0625,
      "velocity": 33
    },
    {
      "pitch": 49,
      "start_time": 4.5,
      "duration": 0.0521,
      "velocity": 97
    },
    {
      "pitch": 53,
      "start_time": 4.5,
      "duration": 1.2188,
      "velocity": 49
    },
    {
      "pitch": 42,
      "start_time": 5.0,
      "duration": 0.0833,
      "velocity": 44
    },
    {
      "pitch": 46,
      "start_time": 5.0,
      "duration": 0.1042,
      "velocity": 119
    },
    {
      "pitch": 49,
      "start_time": 5.0,
      "duration": 0.8438,
      "velocity": 102
    },
    {
      "pitch": 42,
      "start_time": 5.3333,
      "duration": 0.3333,
      "velocity": 58
    },
    {
      "pitch": 43,
      "start_time": 5.5,
      "duration": 0.4896,
      "velocity": 38
    },
    {
      "pitch": 42,
      "start_time": 5.6667,
      "duration": 0.1458,
      "velocity": 63
    },
    {
      "pitch": 38,
      "start_time": 6.0,
      "duration": 0.0625,
      "velocity": 99
    },
    {
      "pitch": 39,
      "start_time": 6.0,
      "duration": 0.3333,
      "velocity": 101
    },
    {
      "pitch": 42,
      "start_time": 6.0,
      "duration": 0.0521,
      "velocity": 64
    },
    {
      "pitch": 46,
      "start_time": 6.0,
      "duration": 0.1042,
      "velocity": 126
    },
    {
      "pitch": 49,
      "start_time": 6.0,
      "duration": 1.75,
      "velocity": 111
    },
    {
      "pitch": 42,
      "start_time": 6.5,
      "duration": 0.0938,
      "velocity": 55
    },
    {
      "pitch": 42,
      "start_time": 6.75,
      "duration": 0.1771,
      "velocity": 82
    },
    {
      "pitch": 42,
      "start_time": 7.0,
      "duration": 0.0833,
      "velocity": 70
    },
    {
      "pitch": 46,
      "start_time": 7.0,
      "duration": 0.1146,
      "velocity": 124
    },
    {
      "pitch": 36,
      "start_time": 7.5,
      "duration": 0.0521,
      "velocity": 76
    },
    {
      "pitch": 42,
      "start_time": 7.5,
      "duration": 0.125,
      "velocity": 57
    },
    {
      "pitch": 50,
      "start_time": 7.5,
      "duration": 0.0417,
      "velocity": 81
    },
    {
      "pitch": 42,
      "start_time": 7.625,
      "duration": 0.125,
      "velocity": 57
    },
    {
      "pitch": 36,
      "start_time": 7.75,
      "duration": 0.0938,
      "velocity": 105
    },
    {
      "pitch": 42,
      "start_time": 7.75,
      "duration": 0.125,
      "velocity": 50
    },
    {
      "pitch": 42,
      "start_time": 7.875,
      "duration": 0.0521,
      "velocity": 54
    }
  ]
}