{
  "source": {
    "song": "packs",
    "track_index": 0,
    "track_name": "Beat Tools / MIDI Clips / 132 - 152 bpm / Miramar Kit Groove 135 bpm",
    "slot_index": 0,
    "clip_name": "Beat Tools / MIDI Clips / 132 - 152 bpm / Miramar Kit Groove 135 bpm",
    "mid_file": "/Users/darnold/Music/Ableton/Packs/Beat Tools/MIDI Clips/132 - 152 bpm/Miramar Kit Groove 135 bpm.alc"
  },
  "meta": {
    "bpm": 135.0,
    "key": "?",
    "scale": "?",
    "length_beats": 8.0,
    "note_count": 41
  },
  "rhythm": {
    "density": 1.375,
    "hit_positions": [
      0.0,
      0.0,
      0.0,
      0.5,
      0.5,
      0.75,
      1.0,
      1.0,
      1.5,
      2.0,
      2.0,
      2.0,
      3.0,
      3.0,
      4.0,
      4.0,
      4.5,
      4.75,
      5.0,
      5.25,
      5.5,
      5.5,
      5.75,
      6.0,
      6.0,
      6.0,
      6.0,
      6.0,
      6.25,
      6.5,
      6.5,
      6.5,
      6.75,
      7.0,
      7.0,
      7.0,
      7.25,
      7.5,
      7.5,
      7.5,
      7.75
    ],
    "ioi": [
      0.0,
      0.0,
      0.5,
      0.0,
      0.25,
      0.25,
      0.0,
      0.5,
      0.5,
      0.0,
      0.0,
      1.0,
      0.0,
      1.0,
      0.0,
      0.5,
      0.25,
      0.25,
      0.25,
      0.25,
      0.0,
      0.25,
      0.25,
      0.0,
      0.0,
      0.0,
      0.0,
      0.25,
      0.25,
      0.0,
      0.0,
      0.25,
      0.25,
      0.0,
      0.0,
      0.25,
      0.25,
      0.0,
      0.0,
      0.25,
      0.25
    ],
    "grid": "8th",
    "euclidean_approx": [
      32,
      32
    ],
    "swing_ratio": 1.0
  },
  "pitch": {
    "notes_used": [
      36,
      37,
      38,
      42,
      43,
      46,
      47,
      48,
      49,
      52,
      56,
      57
    ],
    "intervals": [
      6,
      7,
      7,
      10,
      10,
      0,
      7,
      7,
      5,
      1,
      19,
      11,
      10,
      20,
      6,
      0,
      0,
      0,
      0,
      6,
      6,
      0,
      4,
      4,
      1,
      4,
      1,
      1,
      5,
      5,
      2,
      2,
      11,
      6,
      5,
      2,
      7,
      5,
      1,
      1
    ],
    "register": "low",
    "is_melodic": true,
    "pitch_range": 21,
    "pitch_distribution": {
      "36": 4,
      "42": 16,
      "49": 4,
      "52": 1,
      "37": 1,
      "38": 2,
      "57": 1,
      "46": 1,
      "56": 1,
      "43": 1,
      "47": 7,
      "48": 2
    }
  },
  "velocity": {
    "mean": 61.9,
    "variance": 1047.7,
    "std": 32.4,
    "accents": [
      2,
      9,
      12,
      14,
      20,
      23,
      33,
      37
    ],
    "profile": [
      84,
      57,
      96,
      47,
      92,
      22,
      89,
      17,
      51,
      105,
      94,
      60,
      104,
      63,
      100,
      85,
      43,
      13,
      80,
      42,
      116,
      55,
      38,
      120,
      86,
      15,
      29,
      45,
      3,
      52,
      2,
      33,
      29,
      105,
      93,
      59,
      43,
      103,
      46,
      72,
      48
    ]
  },
  "notes": [
    {
      "pitch": 36,
      "start_time": 0.0,
      "duration": 0.4062,
      "velocity": 84
    },
    {
      "pitch": 42,
      "start_time": 0.0,
      "duration": 0.0729,
      "velocity": 57
    },
    {
      "pitch": 49,
      "start_time": 0.0,
      "duration": 0.0625,
      "velocity": 96
    },
    {
      "pitch": 42,
      "start_time": 0.5,
      "duration": 0.0521,
      "velocity": 47
    },
    {
      "pitch": 52,
      "start_time": 0.5,
      "duration": 1.4583,
      "velocity": 92
    },
    {
      "pitch": 42,
      "start_time": 0.75,
      "duration": 0.1146,
      "velocity": 22
    },
    {
      "pitch": 42,
      "start_time": 1.0,
      "duration": 0.125,
      "velocity": 89
    },
    {
      "pitch": 49,
      "start_time": 1.0,
      "duration": 0.0417,
      "velocity": 17
    },
    {
      "pitch": 42,
      "start_time": 1.5,
      "duration": 0.1354,
      "velocity": 51
    },
    {
      "pitch": 37,
      "start_time": 2.0,
      "duration": 0.6458,
      "velocity": 105
    },
    {
      "pitch": 38,
      "start_time": 2.0,
      "duration": 0.1146,
      "velocity": 94
    },
    {
      "pitch": 57,
      "start_time": 2.0,
      "duration": 1.125,
      "velocity": 60
    },
    {
      "pitch": 46,
      "start_time": 3.0,
      "duration": 0.0521,
      "velocity": 104
    },
    {
      "pitch": 56,
      "start_time": 3.0,
      "duration": 0.0521,
      "velocity": 63
    },
    {
      "pitch": 36,
      "start_time": 4.0,
      "duration": 0.9479,
      "velocity": 100
    },
    {
      "pitch": 42,
      "start_time": 4.0,
      "duration": 0.1458,
      "velocity": 85
    },
    {
      "pitch": 42,
      "start_time": 4.5,
      "duration": 0.0729,
      "velocity": 43
    },
    {
      "pitch": 42,
      "start_time": 4.75,
      "duration": 0.0833,
      "velocity": 13
    },
    {
      "pitch": 42,
      "start_time": 5.0,
      "duration": 0.1146,
      "velocity": 80
    },
    {
      "pitch": 42,
      "start_time": 5.25,
      "duration": 0.1458,
      "velocity": 42
    },
    {
      "pitch": 36,
      "start_time": 5.5,
      "duration": 0.3021,
      "velocity": 116
    },
    {
      "pitch": 42,
      "start_time": 5.5,
      "duration": 0.0521,
      "velocity": 55
    },
    {
      "pitch": 42,
      "start_time": 5.75,
      "duration": 0.0938,
      "velocity": 38
    },
    {
      "pitch": 38,
      "start_time": 6.0,
      "duration": 0.5833,
      "velocity": 120
    },
    {
      "pitch": 42,
      "start_time": 6.0,
      "duration": 0.1354,
      "velocity": 86
    },
    {
      "pitch": 43,
      "start_time": 6.0,
      "duration": 0.0417,
      "velocity": 15
    },
    {
      "pitch": 47,
      "start_time": 6.0,
      "duration": 0.0521,
      "velocity": 29
    },
    {
      "pitch": 48,
      "start_time": 6.0,
      "duration": 0.0938,
      "velocity": 45
    },
    {
      "pitch": 47,
      "start_time": 6.25,
      "duration": 0.0833,
      "velocity": 3
    },
    {
      "pitch": 42,
      "start_time": 6.5,
      "duration": 0.1354,
      "velocity": 52
    },
    {
      "pitch": 47,
      "start_time": 6.5,
      "duration": 0.001,
      "velocity": 2
    },
    {
      "pitch": 49,
      "start_time": 6.5,
      "duration": 0.125,
      "velocity": 33
    },
    {
      "pitch": 47,
      "start_time": 6.75,
      "duration": 0.0938,
      "velocity": 29
    },
    {
      "pitch": 36,
      "start_time": 7.0,
      "duration": 0.4688,
      "velocity": 105
    },
    {
      "pitch": 42,
      "start_time": 7.0,
      "duration": 0.1458,
      "velocity": 93
    },
    {
      "pitch": 47,
      "start_time": 7.0,
      "duration": 0.0729,
      "velocity": 59
    },
    {
      "pitch": 49,
      "start_time": 7.25,
      "duration": 0.1042,
      "velocity": 43
    },
    {
      "pitch": 42,
      "start_time": 7.5,
      "duration": 0.125,
      "velocity": 103
    },
    {
      "pitch": 47,
      "start_time": 7.5,
      "duration": 0.0521,
      "velocity": 46
    },
    {
      "pitch": 48,
      "start_time": 7.5,
      "duration": 0.1042,
      "velocity": 72
    },
    {
      "pitch": 47,
      "start_time": 7.75,
      "duration": 0.1146,
      "velocity": 48
    }
  ]
}