{
  "source": {
    "song": "packs",
    "track_index": 0,
    "track_name": "Beat Tools / MIDI Clips / 94 - 105 bpm / Shady Kit Groove 2_99 bpm",
    "slot_index": 0,
    "clip_name": "Beat Tools / MIDI Clips / 94 - 105 bpm / Shady Kit Groove 2_99 bpm",
    "mid_file": "/Users/darnold/Music/Ableton/Packs/Beat Tools/MIDI Clips/94 - 105 bpm/Shady Kit Groove 2_99 bpm.alc"
  },
  "meta": {
    "bpm": 99.0,
    "key": "?",
    "scale": "?",
    "length_beats": 8.0,
    "note_count": 52
  },
  "rhythm": {
    "density": 1.25,
    "hit_positions": [
      0.0,
      0.0,
      0.0,
      0.5,
      0.5,
      0.75,
      1.0,
      1.0,
      1.0,
      1.5,
      1.5,
      2.0,
      2.0,
      2.0,
      2.0,
      2.5,
      2.75,
      3.0,
      3.0,
      3.0,
      3.0,
      3.0,
      3.25,
      3.5,
      3.5,
      4.0,
      4.0,
      4.0,
      4.5,
      4.75,
      5.0,
      5.0,
      5.0,
      5.5,
      5.5,
      5.5,
      6.0,
      6.0,
      6.0,
      6.0,
      6.5,
      6.5,
      6.5,
      6.5,
      7.0,
      7.0,
      7.0,
      7.0,
      7.5,
      7.5,
      7.5,
      7.5
    ],
    "ioi": [
      0.0,
      0.0,
      0.5,
      0.0,
      0.25,
      0.25,
      0.0,
      0.0,
      0.5,
      0.0,
      0.5,
      0.0,
      0.0,
      0.0,
      0.5,
      0.25,
      0.25,
      0.0,
      0.0,
      0.0,
      0.0,
      0.25,
      0.25,
      0.0,
      0.5,
      0.0,
      0.0,
      0.5,
      0.25,
      0.25,
      0.0,
      0.0,
      0.5,
      0.0,
      0.0,
      0.5,
      0.0,
      0.0,
      0.0,
      0.5,
      0.0,
      0.0,
      0.0,
      0.5,
      0.0,
      0.0,
      0.0,
      0.5,
      0.0,
      0.0,
      0.0,
      0.5
    ],
    "grid": "8th",
    "euclidean_approx": [
      32,
      32
    ],
    "swing_ratio": 1.0
  },
  "pitch": {
    "notes_used": [
      36,
      37,
      38,
      41,
      42,
      43,
      44,
      45,
      47,
      48,
      52,
      53,
      54,
      55
    ],
    "intervals": [
      6,
      13,
      13,
      12,
      6,
      11,
      5,
      13,
      11,
      10,
      18,
      6,
      10,
      3,
      13,
      5,
      10,
      1,
      4,
      5,
      8,
      8,
      5,
      3,
      9,
      6,
      13,
      13,
      6,
      11,
      5,
      13,
      12,
      1,
      10,
      12,
      1,
      9,
      3,
      19,
      5,
      1,
      10,
      15,
      5,
      11,
      2,
      19,
      5,
      1,
      11
    ],
    "register": "low",
    "is_melodic": true,
    "pitch_range": 19,
    "pitch_distribution": {
      "36": 5,
      "42": 14,
      "55": 8,
      "54": 3,
      "48": 2,
      "37": 4,
      "44": 2,
      "52": 3,
      "47": 3,
      "38": 1,
      "45": 1,
      "43": 2,
      "41": 2,
      "53": 2
    }
  },
  "velocity": {
    "mean": 42.7,
    "variance": 340.7,
    "std": 18.5,
    "accents": [
      9,
      19,
      22,
      29,
      30,
      31,
      34,
      36,
      42,
      44,
      45
    ],
    "profile": [
      46,
      46,
      31,
      18,
      30,
      52,
      59,
      61,
      33,
      74,
      34,
      31,
      35,
      46,
      35,
      47,
      9,
      59,
      33,
      63,
      50,
      31,
      66,
      21,
      50,
      53,
      53,
      33,
      20,
      66,
      63,
      63,
      20,
      18,
      73,
      32,
      63,
      3,
      28,
      27,
      42,
      25,
      62,
      50,
      65,
      86,
      20,
      23,
      47,
      20,
      52,
      51
    ]
  },
  "notes": [
    {
      "pitch": 36,
      "start_time": 0.0,
      "duration": 0.0625,
      "velocity": 46
    },
    {
      "pitch": 42,
      "start_time": 0.0,
      "duration": 0.0521,
      "velocity": 46
    },
    {
      "pitch": 55,
      "start_time": 0.0,
      "duration": 0.0208,
      "velocity": 31
    },
    {
      "pitch": 42,
      "start_time": 0.5,
      "duration": 0.0521,
      "velocity": 18
    },
    {
      "pitch": 54,
      "start_time": 0.5,
      "duration": 0.4688,
      "velocity": 30
    },
    {
      "pitch": 48,
      "start_time": 0.75,
      "duration": 0.0833,
      "velocity": 52
    },
    {
      "pitch": 37,
      "start_time": 1.0,
      "duration": 0.0625,
      "velocity": 59
    },
    {
      "pitch": 42,
      "start_time": 1.0,
      "duration": 0.0729,
      "velocity": 61
    },
    {
      "pitch": 55,
      "start_time": 1.0,
      "duration": 0.0312,
      "velocity": 33
    },
    {
      "pitch": 44,
      "start_time": 1.5,
      "duration": 0.0833,
      "velocity": 74
    },
    {
      "pitch": 54,
      "start_time": 1.5,
      "duration": 0.0729,
      "velocity": 34
    },
    {
      "pitch": 36,
      "start_time": 2.0,
      "duration": 0.0625,
      "velocity": 31
    },
    {
      "pitch": 42,
      "start_time": 2.0,
      "duration": 0.0625,
      "velocity": 35
    },
    {
      "pitch": 52,
      "start_time": 2.0,
      "duration": 0.0312,
      "velocity": 46
    },
    {
      "pitch": 55,
      "start_time": 2.0,
      "duration": 0.0417,
      "velocity": 35
    },
    {
      "pitch": 42,
      "start_time": 2.5,
      "duration": 0.0938,
      "velocity": 47
    },
    {
      "pitch": 47,
      "start_time": 2.75,
      "duration": 0.0625,
      "velocity": 9
    },
    {
      "pitch": 37,
      "start_time": 3.0,
      "duration": 0.0729,
      "velocity": 59
    },
    {
      "pitch": 38,
      "start_time": 3.0,
      "duration": 0.0729,
      "velocity": 33
    },
    {
      "pitch": 42,
      "start_time": 3.0,
      "duration": 0.0625,
      "velocity": 63
    },
    {
      "pitch": 47,
      "start_time": 3.0,
      "duration": 0.0521,
      "velocity": 50
    },
    {
      "pitch": 55,
      "start_time": 3.0,
      "duration": 0.0417,
      "velocity": 31
    },
    {
      "pitch": 47,
      "start_time": 3.25,
      "duration": 0.0833,
      "velocity": 66
    },
    {
      "pitch": 42,
      "start_time": 3.5,
      "duration": 0.0625,
      "velocity": 21
    },
    {
      "pitch": 45,
      "start_time": 3.5,
      "duration": 0.1146,
      "velocity": 50
    },
    {
      "pitch": 36,
      "start_time": 4.0,
      "duration": 0.0625,
      "velocity": 53
    },
    {
      "pitch": 42,
      "start_time": 4.0,
      "duration": 0.0729,
      "velocity": 53
    },
    {
      "pitch": 55,
      "start_time": 4.0,
      "duration": 0.0312,
      "velocity": 33
    },
    {
      "pitch": 42,
      "start_time": 4.5,
      "duration": 0.0521,
      "velocity": 20
    },
    {
      "pitch": 48,
      "start_time": 4.75,
      "duration": 0.0938,
      "velocity": 66
    },
    {
      "pitch": 37,
      "start_time": 5.0,
      "duration": 0.0625,
      "velocity": 63
    },
    {
      "pitch": 42,
      "start_time": 5.0,
      "duration": 0.0729,
      "velocity": 63
    },
    {
      "pitch": 55,
      "start_time": 5.0,
      "duration": 0.0312,
      "velocity": 20
    },
    {
      "pitch": 43,
      "start_time": 5.5,
      "duration": 0.0312,
      "velocity": 18
    },
    {
      "pitch": 44,
      "start_time": 5.5,
      "duration": 0.0833,
      "velocity": 73
    },
    {
      "pitch": 54,
      "start_time": 5.5,
      "duration": 0.3333,
      "velocity": 32
    },
    {
      "pitch": 42,
      "start_time": 6.0,
      "duration": 0.0938,
      "velocity": 63
    },
    {
      "pitch": 43,
      "start_time": 6.0,
      "duration": 0.0104,
      "velocity": 3
    },
    {
      "pitch": 52,
      "start_time": 6.0,
      "duration": 0.1667,
      "velocity": 28
    },
    {
      "pitch": 55,
      "start_time": 6.0,
      "duration": 0.0312,
      "velocity": 27
    },
    {
      "pitch": 36,
      "start_time": 6.5,
      "duration": 0.0729,
      "velocity": 42
    },
    {
      "pitch": 41,
      "start_time": 6.5,
      "duration": 0.0417,
      "velocity": 25
    },
    {
      "pitch": 42,
      "start_time": 6.5,
      "duration": 0.0938,
      "velocity": 62
    },
    {
      "pitch": 52,
      "start_time": 6.5,
      "duration": 0.0833,
      "velocity": 50
    },
    {
      "pitch": 37,
      "start_time": 7.0,
      "duration": 0.0625,
      "velocity": 65
    },
    {
      "pitch": 42,
      "start_time": 7.0,
      "duration": 0.0833,
      "velocity": 86
    },
    {
      "pitch": 53,
      "start_time": 7.0,
      "duration": 0.0312,
      "velocity": 20
    },
    {
      "pitch": 55,
      "start_time": 7.0,
      "duration": 0.0104,
      "velocity": 23
    },
    {
      "pitch": 36,
      "start_time": 7.5,
      "duration": 0.0729,
      "velocity": 47
    },
    {
      "pitch": 41,
      "start_time": 7.5,
      "duration": 0.0625,
      "velocity": 20
    },
    {
      "pitch": 42,
      "start_time": 7.5,
      "duration": 0.0729,
      "velocity": 52
    },
    {
      "pitch": 53,
      "start_time": 7.5,
      "duration": 0.0833,
      "velocity": 51
    }
  ]
}