{
  "source": {
    "song": "packs",
    "track_index": 0,
    "track_name": "Beat Tools / MIDI Clips / 59 - 80 bpm / Takeover Kit groove 02_69 bpm",
    "slot_index": 0,
    "clip_name": "Beat Tools / MIDI Clips / 59 - 80 bpm / Takeover Kit groove 02_69 bpm",
    "mid_file": "/Users/darnold/Music/Ableton/Packs/Beat Tools/MIDI Clips/59 - 80 bpm/Takeover Kit groove 02_69 bpm.alc"
  },
  "meta": {
    "bpm": 69.0,
    "key": "?",
    "scale": "?",
    "length_beats": 4.0,
    "note_count": 104
  },
  "rhythm": {
    "density": 2.25,
    "hit_positions": [
      0.0,
      0.0,
      0.0,
      0.0,
      0.0,
      0.125,
      0.25,
      0.25,
      0.25,
      0.25,
      0.25,
      0.25,
      0.375,
      0.5,
      0.5,
      0.5,
      0.5,
      0.625,
      0.75,
      0.75,
      0.75,
      0.75,
      0.875,
      1.0,
      1.0,
      1.0,
      1.0,
      1.0,
      1.0,
      1.0833,
      1.1667,
      1.25,
      1.25,
      1.25,
      1.25,
      1.3333,
      1.4152,
      1.5,
      1.5,
      1.5,
      1.5,
      1.5,
      1.5,
      1.5,
      1.625,
      1.75,
      1.75,
      1.75,
      1.75,
      1.875,
      1.875,
      2.0,
      2.0,
      2.0,
      2.0,
      2.0,
      2.125,
      2.25,
      2.25,
      2.25,
      2.25,
      2.25,
      2.25,
      2.375,
      2.5,
      2.5,
      2.5,
      2.5,
      2.625,
      2.75,
      2.75,
      2.75,
      2.75,
      2.75,
      2.75,
      2.875,
      3.0,
      3.0,
      3.0,
      3.0,
      3.0,
      3.0,
      3.0833,
      3.1667,
      3.25,
      3.25,
      3.25,
      3.25,
      3.25,
      3.3333,
      3.4167,
      3.5,
      3.5,
      3.5,
      3.5,
      3.5,
      3.5,
      3.625,
      3.75,
      3.75,
      3.75,
      3.75,
      3.75,
      3.875
    ],
    "ioi": [
      0.0,
      0.0,
      0.0,
      0.0,
      0.125,
      0.125,
      0.0,
      0.0,
      0.0,
      0.0,
      0.0,
      0.125,
      0.125,
      0.0,
      0.0,
      0.0,
      0.125,
      0.125,
      0.0,
      0.0,
      0.0,
      0.125,
      0.125,
      0.0,
      0.0,
      0.0,
      0.0,
      0.0,
      0.0833,
      0.0834,
      0.0833,
      0.0,
      0.0,
      0.0,
      0.0833,
      0.0819,
      0.0848,
      0.0,
      0.0,
      0.0,
      0.0,
      0.0,
      0.0,
      0.125,
      0.125,
      0.0,
      0.0,
      0.0,
      0.125,
      0.0,
      0.125,
      0.0,
      0.0,
      0.0,
      0.0,
      0.125,
      0.125,
      0.0,
      0.0,
      0.0,
      0.0,
      0.0,
      0.125,
      0.125,
      0.0,
      0.0,
      0.0,
      0.125,
      0.125,
      0.0,
      0.0,
      0.0,
      0.0,
      0.0,
      0.125,
      0.125,
      0.0,
      0.0,
      0.0,
      0.0,
      0.0,
      0.0833,
      0.0834,
      0.0833,
      0.0,
      0.0,
      0.0,
      0.0,
      0.0833,
      0.0834,
      0.0833,
      0.0,
      0.0,
      0.0,
      0.0,
      0.0,
      0.125,
      0.125,
      0.0,
      0.0,
      0.0,
      0.0,
      0.125,
      0.125
    ],
    "grid": "16th",
    "euclidean_approx": [
      16,
      16
    ],
    "swing_ratio": 1.108
  },
  "pitch": {
    "notes_used": [
      36,
      37,
      38,
      39,
      41,
      42,
      43,
      44,
      46,
      48,
      49,
      51
    ],
    "intervals": [
      5,
      3,
      2,
      3,
      8,
      5,
      3,
      2,
      1,
      2,
      4,
      7,
      0,
      1,
      2,
      4,
      7,
      0,
      1,
      2,
      5,
      8,
      4,
      1,
      3,
      1,
      2,
      4,
      7,
      0,
      0,
      1,
      2,
      4,
      7,
      0,
      5,
      2,
      3,
      1,
      1,
      1,
      5,
      8,
      0,
      1,
      2,
      4,
      7,
      1,
      6,
      5,
      1,
      2,
      4,
      7,
      2,
      2,
      1,
      2,
      4,
      1,
      8,
      0,
      1,
      2,
      4,
      7,
      5,
      3,
      2,
      1,
      2,
      4,
      7,
      4,
      1,
      3,
      1,
      2,
      5,
      8,
      0,
      5,
      5,
      1,
      2,
      5,
      8,
      0,
      3,
      3,
      1,
      1,
      1,
      7,
      10,
      5,
      2,
      3,
      1,
      2,
      3
    ],
    "register": "low",
    "is_melodic": true,
    "pitch_range": 15,
    "pitch_distribution": {
      "36": 7,
      "41": 36,
      "44": 16,
      "46": 1,
      "49": 6,
      "39": 3,
      "42": 16,
      "48": 9,
      "37": 2,
      "38": 5,
      "43": 2,
      "51": 1
    }
  },
  "velocity": {
    "mean": 55.7,
    "variance": 1338.8,
    "std": 36.6,
    "accents": [
      2,
      10,
      15,
      20,
      24,
      27,
      33,
      38,
      41,
      47,
      60,
      66,
      77,
      80,
      87,
      91,
      94,
      95,
      102
    ],
    "profile": [
      54,
      40,
      127,
      64,
      73,
      28,
      35,
      52,
      28,
      34,
      105,
      30,
      19,
      14,
      36,
      121,
      56,
      5,
      5,
      32,
      93,
      52,
      5,
      76,
      120,
      55,
      53,
      108,
      44,
      55,
      80,
      80,
      27,
      94,
      53,
      83,
      83,
      45,
      101,
      5,
      35,
      103,
      90,
      34,
      5,
      5,
      25,
      108,
      54,
      5,
      28,
      62,
      5,
      47,
      85,
      64,
      5,
      52,
      5,
      20,
      109,
      66,
      45,
      5,
      5,
      24,
      127,
      49,
      5,
      47,
      52,
      5,
      37,
      68,
      72,
      5,
      78,
      127,
      64,
      58,
      112,
      60,
      62,
      78,
      70,
      82,
      40,
      127,
      75,
      86,
      86,
      109,
      5,
      37,
      95,
      127,
      82,
      5,
      70,
      46,
      5,
      50,
      127,
      5
    ]
  },
  "notes": [
    {
      "pitch": 36,
      "start_time": 0.0,
      "duration": 0.0316,
      "velocity": 54
    },
    {
      "pitch": 41,
      "start_time": 0.0,
      "duration": 0.125,
      "velocity": 40
    },
    {
      "pitch": 44,
      "start_time": 0.0,
      "duration": 0.0557,
      "velocity": 127
    },
    {
      "pitch": 46,
      "start_time": 0.0,
      "duration": 0.0378,
      "velocity": 64
    },
    {
      "pitch": 49,
      "start_time": 0.0,
      "duration": 0.0431,
      "velocity": 73
    },
    {
      "pitch": 41,
      "start_time": 0.125,
      "duration": 0.125,
      "velocity": 28
    },
    {
      "pitch": 36,
      "start_time": 0.25,
      "duration": 0.0306,
      "velocity": 35
    },
    {
      "pitch": 39,
      "start_time": 0.25,
      "duration": 0.0517,
      "velocity": 52
    },
    {
      "pitch": 41,
      "start_time": 0.25,
      "duration": 0.125,
      "velocity": 28
    },
    {
      "pitch": 42,
      "start_time": 0.25,
      "duration": 0.0696,
      "velocity": 34
    },
    {
      "pitch": 44,
      "start_time": 0.25,
      "duration": 0.0636,
      "velocity": 105
    },
    {
      "pitch": 48,
      "start_time": 0.25,
      "duration": 0.0348,
      "velocity": 30
    },
    {
      "pitch": 41,
      "start_time": 0.375,
      "duration": 0.125,
      "velocity": 19
    },
    {
      "pitch": 41,
      "start_time": 0.5,
      "duration": 0.125,
      "velocity": 14
    },
    {
      "pitch": 42,
      "start_time": 0.5,
      "duration": 0.0683,
      "velocity": 36
    },
    {
      "pitch": 44,
      "start_time": 0.5,
      "duration": 0.0374,
      "velocity": 121
    },
    {
      "pitch": 48,
      "start_time": 0.5,
      "duration": 0.0553,
      "velocity": 56
    },
    {
      "pitch": 41,
      "start_time": 0.625,
      "duration": 0.125,
      "velocity": 5
    },
    {
      "pitch": 41,
      "start_time": 0.75,
      "duration": 0.125,
      "velocity": 5
    },
    {
      "pitch": 42,
      "start_time": 0.75,
      "duration": 0.0492,
      "velocity": 32
    },
    {
      "pitch": 44,
      "start_time": 0.75,
      "duration": 0.038,
      "velocity": 93
    },
    {
      "pitch": 49,
      "start_time": 0.75,
      "duration": 0.0268,
      "velocity": 52
    },
    {
      "pitch": 41,
      "start_time": 0.875,
      "duration": 0.125,
      "velocity": 5
    },
    {
      "pitch": 37,
      "start_time": 1.0,
      "duration": 0.0623,
      "velocity": 76
    },
    {
      "pitch": 38,
      "start_time": 1.0,
      "duration": 0.0424,
      "velocity": 120
    },
    {
      "pitch": 41,
      "start_time": 1.0,
      "duration": 0.0833,
      "velocity": 55
    },
    {
      "pitch": 42,
      "start_time": 1.0,
      "duration": 0.0571,
      "velocity": 53
    },
    {
      "pitch": 44,
      "start_time": 1.0,
      "duration": 0.0327,
      "velocity": 108
    },
    {
      "pitch": 48,
      "start_time": 1.0,
      "duration": 0.0359,
      "velocity": 44
    },
    {
      "pitch": 41,
      "start_time": 1.0833,
      "duration": 0.0833,
      "velocity": 55
    },
    {
      "pitch": 41,
      "start_time": 1.1667,
      "duration": 0.0833,
      "velocity": 80
    },
    {
      "pitch": 41,
      "start_time": 1.25,
      "duration": 0.0833,
      "velocity": 80
    },
    {
      "pitch": 42,
      "start_time": 1.25,
      "duration": 0.0363,
      "velocity": 27
    },
    {
      "pitch": 44,
      "start_time": 1.25,
      "duration": 0.0428,
      "velocity": 94
    },
    {
      "pitch": 48,
      "start_time": 1.25,
      "duration": 0.0461,
      "velocity": 53
    },
    {
      "pitch": 41,
      "start_time": 1.3333,
      "duration": 0.0819,
      "velocity": 83
    },
    {
      "pitch": 41,
      "start_time": 1.4152,
      "duration": 0.0819,
      "velocity": 83
    },
    {
      "pitch": 36,
      "start_time": 1.5,
      "duration": 0.0635,
      "velocity": 45
    },
    {
      "pitch": 38,
      "start_time": 1.5,
      "duration": 0.0482,
      "velocity": 101
    },
    {
      "pitch": 41,
      "start_time": 1.5,
      "duration": 0.125,
      "velocity": 5
    },
    {
      "pitch": 42,
      "start_time": 1.5,
      "duration": 0.0573,
      "velocity": 35
    },
    {
      "pitch": 43,
      "start_time": 1.5,
      "duration": 0.0375,
      "velocity": 103
    },
    {
      "pitch": 44,
      "start_time": 1.5,
      "duration": 0.0473,
      "velocity": 90
    },
    {
      "pitch": 49,
      "start_time": 1.5,
      "duration": 0.0371,
      "velocity": 34
    },
    {
      "pitch": 41,
      "start_time": 1.625,
      "duration": 0.125,
      "velocity": 5
    },
    {
      "pitch": 41,
      "start_time": 1.75,
      "duration": 0.125,
      "velocity": 5
    },
    {
      "pitch": 42,
      "start_time": 1.75,
      "duration": 0.125,
      "velocity": 25
    },
    {
      "pitch": 44,
      "start_time": 1.75,
      "duration": 0.0444,
      "velocity": 108
    },
    {
      "pitch": 48,
      "start_time": 1.75,
      "duration": 0.05,
      "velocity": 54
    },
    {
      "pitch": 41,
      "start_time": 1.875,
      "duration": 0.125,
      "velocity": 5
    },
    {
      "pitch": 42,
      "start_time": 1.875,
      "duration": 0.0074,
      "velocity": 28
    },
    {
      "pitch": 36,
      "start_time": 2.0,
      "duration": 0.0704,
      "velocity": 62
    },
    {
      "pitch": 41,
      "start_time": 2.0,
      "duration": 0.125,
      "velocity": 5
    },
    {
      "pitch": 42,
      "start_time": 2.0,
      "duration": 0.0729,
      "velocity": 47
    },
    {
      "pitch": 44,
      "start_time": 2.0,
      "duration": 0.0429,
      "velocity": 85
    },
    {
      "pitch": 48,
      "start_time": 2.0,
      "duration": 0.0537,
      "velocity": 64
    },
    {
      "pitch": 41,
      "start_time": 2.125,
      "duration": 0.125,
      "velocity": 5
    },
    {
      "pitch": 39,
      "start_time": 2.25,
      "duration": 0.034,
      "velocity": 52
    },
    {
      "pitch": 41,
      "start_time": 2.25,
      "duration": 0.125,
      "velocity": 5
    },
    {
      "pitch": 42,
      "start_time": 2.25,
      "duration": 0.0567,
      "velocity": 20
    },
    {
      "pitch": 44,
      "start_time": 2.25,
      "duration": 0.045,
      "velocity": 109
    },
    {
      "pitch": 48,
      "start_time": 2.25,
      "duration": 0.25,
      "velocity": 66
    },
    {
      "pitch": 49,
      "start_time": 2.25,
      "duration": 0.0343,
      "velocity": 45
    },
    {
      "pitch": 41,
      "start_time": 2.375,
      "duration": 0.125,
      "velocity": 5
    },
    {
      "pitch": 41,
      "start_time": 2.5,
      "duration": 0.125,
      "velocity": 5
    },
    {
      "pitch": 42,
      "start_time": 2.5,
      "duration": 0.0616,
      "velocity": 24
    },
    {
      "pitch": 44,
      "start_time": 2.5,
      "duration": 0.0467,
      "velocity": 127
    },
    {
      "pitch": 48,
      "start_time": 2.5,
      "duration": 0.1043,
      "velocity": 49
    },
    {
      "pitch": 41,
      "start_time": 2.625,
      "duration": 0.125,
      "velocity": 5
    },
    {
      "pitch": 36,
      "start_time": 2.75,
      "duration": 0.0457,
      "velocity": 47
    },
    {
      "pitch": 39,
      "start_time": 2.75,
      "duration": 0.0622,
      "velocity": 52
    },
    {
      "pitch": 41,
      "start_time": 2.75,
      "duration": 0.125,
      "velocity": 5
    },
    {
      "pitch": 42,
      "start_time": 2.75,
      "duration": 0.0565,
      "velocity": 37
    },
    {
      "pitch": 44,
      "start_time": 2.75,
      "duration": 0.036,
      "velocity": 68
    },
    {
      "pitch": 48,
      "start_time": 2.75,
      "duration": 0.0508,
      "velocity": 72
    },
    {
      "pitch": 41,
      "start_time": 2.875,
      "duration": 0.125,
      "velocity": 5
    },
    {
      "pitch": 37,
      "start_time": 3.0,
      "duration": 0.0615,
      "velocity": 78
    },
    {
      "pitch": 38,
      "start_time": 3.0,
      "duration": 0.0397,
      "velocity": 127
    },
    {
      "pitch": 41,
      "start_time": 3.0,
      "duration": 0.0833,
      "velocity": 64
    },
    {
      "pitch": 42,
      "start_time": 3.0,
      "duration": 0.0613,
      "velocity": 58
    },
    {
      "pitch": 44,
      "start_time": 3.0,
      "duration": 0.0436,
      "velocity": 112
    },
    {
      "pitch": 49,
      "start_time": 3.0,
      "duration": 0.0365,
      "velocity": 60
    },
    {
      "pitch": 41,
      "start_time": 3.0833,
      "duration": 0.0833,
      "velocity": 62
    },
    {
      "pitch": 41,
      "start_time": 3.1667,
      "duration": 0.0833,
      "velocity": 78
    },
    {
      "pitch": 36,
      "start_time": 3.25,
      "duration": 0.062,
      "velocity": 70
    },
    {
      "pitch": 41,
      "start_time": 3.25,
      "duration": 0.0833,
      "velocity": 82
    },
    {
      "pitch": 42,
      "start_time": 3.25,
      "duration": 0.0812,
      "velocity": 40
    },
    {
      "pitch": 44,
      "start_time": 3.25,
      "duration": 0.0649,
      "velocity": 127
    },
    {
      "pitch": 49,
      "start_time": 3.25,
      "duration": 0.044,
      "velocity": 75
    },
    {
      "pitch": 41,
      "start_time": 3.3333,
      "duration": 0.0833,
      "velocity": 86
    },
    {
      "pitch": 41,
      "start_time": 3.4167,
      "duration": 0.0833,
      "velocity": 86
    },
    {
      "pitch": 38,
      "start_time": 3.5,
      "duration": 0.064,
      "velocity": 109
    },
    {
      "pitch": 41,
      "start_time": 3.5,
      "duration": 0.125,
      "velocity": 5
    },
    {
      "pitch": 42,
      "start_time": 3.5,
      "duration": 0.0531,
      "velocity": 37
    },
    {
      "pitch": 43,
      "start_time": 3.5,
      "duration": 0.033,
      "velocity": 95
    },
    {
      "pitch": 44,
      "start_time": 3.5,
      "duration": 0.0543,
      "velocity": 127
    },
    {
      "pitch": 51,
      "start_time": 3.5,
      "duration": 0.298,
      "velocity": 82
    },
    {
      "pitch": 41,
      "start_time": 3.625,
      "duration": 0.125,
      "velocity": 5
    },
    {
      "pitch": 36,
      "start_time": 3.75,
      "duration": 0.0638,
      "velocity": 70
    },
    {
      "pitch": 38,
      "start_time": 3.75,
      "duration": 0.0427,
      "velocity": 46
    },
    {
      "pitch": 41,
      "start_time": 3.75,
      "duration": 0.125,
      "velocity": 5
    },
    {
      "pitch": 42,
      "start_time": 3.75,
      "duration": 0.0601,
      "velocity": 50
    },
    {
      "pitch": 44,
      "start_time": 3.75,
      "duration": 0.0483,
      "velocity": 127
    },
    {
      "pitch": 41,
      "start_time": 3.875,
      "duration": 0.1087,
      "velocity": 5
    }
  ]
}