{
  "source": {
    "song": "packs",
    "track_index": 0,
    "track_name": "Beat Tools / MIDI Clips / 84 - 92 bpm / Gotta Feel Kit groove 02_84 bpm",
    "slot_index": 0,
    "clip_name": "Beat Tools / MIDI Clips / 84 - 92 bpm / Gotta Feel Kit groove 02_84 bpm",
    "mid_file": "/Users/darnold/Music/Ableton/Packs/Beat Tools/MIDI Clips/84 - 92 bpm/Gotta Feel Kit groove 02_84 bpm.alc"
  },
  "meta": {
    "bpm": 84.0,
    "key": "?",
    "scale": "?",
    "length_beats": 8.0,
    "note_count": 68
  },
  "rhythm": {
    "density": 1.125,
    "hit_positions": [
      0.0,
      0.0,
      0.0,
      0.0,
      0.0104,
      0.25,
      0.5,
      0.5521,
      0.75,
      1.0,
      1.0,
      1.25,
      1.5,
      1.5312,
      1.7396,
      1.75,
      2.0,
      2.0104,
      2.25,
      2.5,
      2.5104,
      2.75,
      2.9688,
      3.0,
      3.0,
      3.25,
      3.5,
      3.5208,
      3.75,
      3.75,
      3.75,
      4.0,
      4.0,
      4.0,
      4.0104,
      4.0417,
      4.25,
      4.5,
      4.5104,
      4.75,
      4.9792,
      5.0,
      5.25,
      5.5,
      5.5312,
      5.75,
      5.75,
      6.0,
      6.0,
      6.25,
      6.25,
      6.5,
      6.5,
      6.5312,
      6.75,
      6.75,
      6.8021,
      6.9688,
      6.9896,
      7.0,
      7.0,
      7.25,
      7.5,
      7.5,
      7.5,
      7.75,
      7.75,
      7.9167
    ],
    "ioi": [
      0.0,
      0.0,
      0.0,
      0.0104,
      0.2396,
      0.25,
      0.0521,
      0.1979,
      0.25,
      0.0,
      0.25,
      0.25,
      0.0312,
      0.2084,
      0.0104,
      0.25,
      0.0104,
      0.2396,
      0.25,
      0.0104,
      0.2396,
      0.2188,
      0.0312,
      0.0,
      0.25,
      0.25,
      0.0208,
      0.2292,
      0.0,
      0.0,
      0.25,
      0.0,
      0.0,
      0.0104,
      0.0313,
      0.2083,
      0.25,
      0.0104,
      0.2396,
      0.2292,
      0.0208,
      0.25,
      0.25,
      0.0312,
      0.2188,
      0.0,
      0.25,
      0.0,
      0.25,
      0.0,
      0.25,
      0.0,
      0.0312,
      0.2188,
      0.0,
      0.0521,
      0.1667,
      0.0208,
      0.0104,
      0.0,
      0.25,
      0.25,
      0.0,
      0.0,
      0.25,
      0.0,
      0.1667,
      0.0833
    ],
    "grid": "16th",
    "euclidean_approx": [
      32,
      32
    ],
    "swing_ratio": 1.161
  },
  "pitch": {
    "notes_used": [
      36,
      37,
      39,
      40,
      42,
      45,
      46,
      47,
      51,
      52
    ],
    "intervals": [
      3,
      3,
      10,
      5,
      5,
      0,
      5,
      5,
      5,
      5,
      0,
      0,
      5,
      7,
      2,
      0,
      9,
      9,
      0,
      5,
      5,
      5,
      5,
      9,
      9,
      0,
      5,
      11,
      3,
      3,
      6,
      3,
      13,
      5,
      5,
      0,
      0,
      5,
      5,
      5,
      5,
      0,
      0,
      5,
      7,
      2,
      0,
      9,
      11,
      2,
      2,
      2,
      5,
      10,
      5,
      5,
      0,
      14,
      12,
      3,
      3,
      0,
      3,
      4,
      7,
      3,
      3
    ],
    "register": "low",
    "is_melodic": true,
    "pitch_range": 16,
    "pitch_distribution": {
      "36": 3,
      "39": 7,
      "42": 31,
      "52": 2,
      "47": 9,
      "37": 6,
      "40": 4,
      "51": 4,
      "46": 1,
      "45": 1
    }
  },
  "velocity": {
    "mean": 83.9,
    "variance": 1228.2,
    "std": 35.0,
    "accents": [
      0,
      1,
      4,
      9,
      14,
      22,
      23,
      24,
      28,
      31,
      32,
      34,
      40,
      45,
      49,
      51,
      57,
      62,
      64,
      65,
      67
    ],
    "profile": [
      127,
      127,
      41,
      101,
      125,
      72,
      73,
      55,
      49,
      127,
      90,
      75,
      28,
      56,
      127,
      41,
      87,
      106,
      51,
      76,
      57,
      53,
      127,
      123,
      120,
      42,
      60,
      53,
      121,
      113,
      88,
      127,
      127,
      104,
      127,
      98,
      55,
      41,
      56,
      32,
      127,
      41,
      60,
      46,
      56,
      127,
      55,
      38,
      103,
      122,
      99,
      127,
      32,
      38,
      49,
      33,
      92,
      121,
      112,
      111,
      33,
      111,
      125,
      50,
      123,
      127,
      64,
      123
    ]
  },
  "notes": [
    {
      "pitch": 36,
      "start_time": 0.0,
      "duration": 1.6458,
      "velocity": 127
    },
    {
      "pitch": 39,
      "start_time": 0.0,
      "duration": 3.625,
      "velocity": 127
    },
    {
      "pitch": 42,
      "start_time": 0.0,
      "duration": 0.25,
      "velocity": 41
    },
    {
      "pitch": 52,
      "start_time": 0.0,
      "duration": 1.9792,
      "velocity": 101
    },
    {
      "pitch": 47,
      "start_time": 0.0104,
      "duration": 0.0312,
      "velocity": 125
    },
    {
      "pitch": 42,
      "start_time": 0.25,
      "duration": 0.1979,
      "velocity": 72
    },
    {
      "pitch": 42,
      "start_time": 0.5,
      "duration": 0.25,
      "velocity": 73
    },
    {
      "pitch": 47,
      "start_time": 0.5521,
      "duration": 0.1875,
      "velocity": 55
    },
    {
      "pitch": 42,
      "start_time": 0.75,
      "duration": 0.1875,
      "velocity": 49
    },
    {
      "pitch": 37,
      "start_time": 1.0,
      "duration": 0.0521,
      "velocity": 127
    },
    {
      "pitch": 42,
      "start_time": 1.0,
      "duration": 0.25,
      "velocity": 90
    },
    {
      "pitch": 42,
      "start_time": 1.25,
      "duration": 0.25,
      "velocity": 75
    },
    {
      "pitch": 42,
      "start_time": 1.5,
      "duration": 0.25,
      "velocity": 28
    },
    {
      "pitch": 47,
      "start_time": 1.5312,
      "duration": 0.1875,
      "velocity": 56
    },
    {
      "pitch": 40,
      "start_time": 1.7396,
      "duration": 0.6875,
      "velocity": 127
    },
    {
      "pitch": 42,
      "start_time": 1.75,
      "duration": 0.1875,
      "velocity": 41
    },
    {
      "pitch": 42,
      "start_time": 2.0,
      "duration": 0.25,
      "velocity": 87
    },
    {
      "pitch": 51,
      "start_time": 2.0104,
      "duration": 0.875,
      "velocity": 106
    },
    {
      "pitch": 42,
      "start_time": 2.25,
      "duration": 0.1667,
      "velocity": 51
    },
    {
      "pitch": 42,
      "start_time": 2.5,
      "duration": 0.25,
      "velocity": 76
    },
    {
      "pitch": 47,
      "start_time": 2.5104,
      "duration": 0.2083,
      "velocity": 57
    },
    {
      "pitch": 42,
      "start_time": 2.75,
      "duration": 0.1458,
      "velocity": 53
    },
    {
      "pitch": 37,
      "start_time": 2.9688,
      "duration": 0.0625,
      "velocity": 127
    },
    {
      "pitch": 42,
      "start_time": 3.0,
      "duration": 0.0729,
      "velocity": 123
    },
    {
      "pitch": 51,
      "start_time": 3.0,
      "duration": 0.9479,
      "velocity": 120
    },
    {
      "pitch": 42,
      "start_time": 3.25,
      "duration": 0.25,
      "velocity": 42
    },
    {
      "pitch": 42,
      "start_time": 3.5,
      "duration": 0.25,
      "velocity": 60
    },
    {
      "pitch": 47,
      "start_time": 3.5208,
      "duration": 0.1562,
      "velocity": 53
    },
    {
      "pitch": 36,
      "start_time": 3.75,
      "duration": 0.0729,
      "velocity": 121
    },
    {
      "pitch": 39,
      "start_time": 3.75,
      "duration": 0.0833,
      "velocity": 113
    },
    {
      "pitch": 42,
      "start_time": 3.75,
      "duration": 0.1354,
      "velocity": 88
    },
    {
      "pitch": 36,
      "start_time": 4.0,
      "duration": 1.6979,
      "velocity": 127
    },
    {
      "pitch": 39,
      "start_time": 4.0,
      "duration": 2.8333,
      "velocity": 127
    },
    {
      "pitch": 52,
      "start_time": 4.0,
      "duration": 1.9583,
      "velocity": 104
    },
    {
      "pitch": 47,
      "start_time": 4.0104,
      "duration": 0.0312,
      "velocity": 127
    },
    {
      "pitch": 42,
      "start_time": 4.0417,
      "duration": 0.2083,
      "velocity": 98
    },
    {
      "pitch": 42,
      "start_time": 4.25,
      "duration": 0.25,
      "velocity": 55
    },
    {
      "pitch": 42,
      "start_time": 4.5,
      "duration": 0.25,
      "velocity": 41
    },
    {
      "pitch": 47,
      "start_time": 4.5104,
      "duration": 0.2292,
      "velocity": 56
    },
    {
      "pitch": 42,
      "start_time": 4.75,
      "duration": 0.25,
      "velocity": 32
    },
    {
      "pitch": 37,
      "start_time": 4.9792,
      "duration": 0.0625,
      "velocity": 127
    },
    {
      "pitch": 42,
      "start_time": 5.0,
      "duration": 0.25,
      "velocity": 41
    },
    {
      "pitch": 42,
      "start_time": 5.25,
      "duration": 0.25,
      "velocity": 60
    },
    {
      "pitch": 42,
      "start_time": 5.5,
      "duration": 0.25,
      "velocity": 46
    },
    {
      "pitch": 47,
      "start_time": 5.5312,
      "duration": 0.1562,
      "velocity": 56
    },
    {
      "pitch": 40,
      "start_time": 5.75,
      "duration": 0.1979,
      "velocity": 127
    },
    {
      "pitch": 42,
      "start_time": 5.75,
      "duration": 0.25,
      "velocity": 55
    },
    {
      "pitch": 42,
      "start_time": 6.0,
      "duration": 0.25,
      "velocity": 38
    },
    {
      "pitch": 51,
      "start_time": 6.0,
      "duration": 0.875,
      "velocity": 103
    },
    {
      "pitch": 40,
      "start_time": 6.25,
      "duration": 0.0521,
      "velocity": 122
    },
    {
      "pitch": 42,
      "start_time": 6.25,
      "duration": 0.25,
      "velocity": 99
    },
    {
      "pitch": 40,
      "start_time": 6.5,
      "duration": 0.5938,
      "velocity": 127
    },
    {
      "pitch": 42,
      "start_time": 6.5,
      "duration": 0.25,
      "velocity": 32
    },
    {
      "pitch": 47,
      "start_time": 6.5312,
      "duration": 0.1042,
      "velocity": 38
    },
    {
      "pitch": 37,
      "start_time": 6.75,
      "duration": 0.0521,
      "velocity": 49
    },
    {
      "pitch": 42,
      "start_time": 6.75,
      "duration": 0.25,
      "velocity": 33
    },
    {
      "pitch": 37,
      "start_time": 6.8021,
      "duration": 0.0625,
      "velocity": 92
    },
    {
      "pitch": 37,
      "start_time": 6.9688,
      "duration": 0.0625,
      "velocity": 121
    },
    {
      "pitch": 51,
      "start_time": 6.9896,
      "duration": 0.6458,
      "velocity": 112
    },
    {
      "pitch": 39,
      "start_time": 7.0,
      "duration": 0.0833,
      "velocity": 111
    },
    {
      "pitch": 42,
      "start_time": 7.0,
      "duration": 0.2396,
      "velocity": 33
    },
    {
      "pitch": 39,
      "start_time": 7.25,
      "duration": 0.0833,
      "velocity": 111
    },
    {
      "pitch": 39,
      "start_time": 7.5,
      "duration": 0.0833,
      "velocity": 125
    },
    {
      "pitch": 42,
      "start_time": 7.5,
      "duration": 0.25,
      "velocity": 50
    },
    {
      "pitch": 46,
      "start_time": 7.5,
      "duration": 0.0729,
      "velocity": 123
    },
    {
      "pitch": 39,
      "start_time": 7.75,
      "duration": 0.0833,
      "velocity": 127
    },
    {
      "pitch": 42,
      "start_time": 7.75,
      "duration": 0.25,
      "velocity": 64
    },
    {
      "pitch": 45,
      "start_time": 7.9167,
      "duration": 0.0312,
      "velocity": 123
    }
  ]
}