{
  "source": {
    "song": "packs",
    "track_index": 0,
    "track_name": "Beat Tools / MIDI Clips / 94 - 105 bpm / Deep Knight groove 06_ 95bpm",
    "slot_index": 0,
    "clip_name": "Beat Tools / MIDI Clips / 94 - 105 bpm / Deep Knight groove 06_ 95bpm",
    "mid_file": "/Users/darnold/Music/Ableton/Packs/Beat Tools/MIDI Clips/94 - 105 bpm/Deep Knight groove 06_ 95bpm.alc"
  },
  "meta": {
    "bpm": 95.0,
    "key": "?",
    "scale": "?",
    "length_beats": 8.0,
    "note_count": 45
  },
  "rhythm": {
    "density": 1.062,
    "hit_positions": [
      0.0,
      0.0,
      0.0,
      0.0,
      0.0,
      0.5,
      0.5,
      1.0,
      1.0,
      1.0,
      1.5,
      1.5,
      2.0,
      2.5,
      2.5,
      2.5,
      3.0,
      3.0,
      3.0,
      3.5,
      3.5,
      3.5,
      4.0,
      4.0,
      4.0,
      4.0,
      4.0,
      4.5,
      4.5,
      5.0,
      5.0,
      5.0,
      5.5,
      5.5,
      6.0,
      6.0,
      6.0,
      6.5,
      6.5,
      6.75,
      7.0,
      7.0,
      7.0,
      7.5,
      7.5
    ],
    "ioi": [
      0.0,
      0.0,
      0.0,
      0.0,
      0.5,
      0.0,
      0.5,
      0.0,
      0.0,
      0.5,
      0.0,
      0.5,
      0.5,
      0.0,
      0.0,
      0.5,
      0.0,
      0.0,
      0.5,
      0.0,
      0.0,
      0.5,
      0.0,
      0.0,
      0.0,
      0.0,
      0.5,
      0.0,
      0.5,
      0.0,
      0.0,
      0.5,
      0.0,
      0.5,
      0.0,
      0.0,
      0.5,
      0.0,
      0.25,
      0.25,
      0.0,
      0.0,
      0.5,
      0.0,
      0.5
    ],
    "grid": "8th",
    "euclidean_approx": [
      32,
      32
    ],
    "swing_ratio": 1.0
  },
  "pitch": {
    "notes_used": [
      36,
      38,
      39,
      42,
      43,
      48,
      49,
      68
    ],
    "intervals": [
      6,
      1,
      5,
      20,
      26,
      1,
      5,
      4,
      1,
      1,
      1,
      0,
      7,
      6,
      1,
      5,
      4,
      1,
      7,
      6,
      1,
      7,
      3,
      3,
      1,
      6,
      7,
      1,
      5,
      4,
      1,
      1,
      1,
      7,
      6,
      1,
      1,
      1,
      7,
      2,
      4,
      1,
      7,
      7
    ],
    "register": "low",
    "is_melodic": true,
    "pitch_range": 32,
    "pitch_distribution": {
      "36": 7,
      "42": 14,
      "43": 16,
      "48": 1,
      "68": 1,
      "38": 4,
      "39": 1,
      "49": 1
    }
  },
  "velocity": {
    "mean": 82.2,
    "variance": 782.2,
    "std": 28.0,
    "accents": [
      3,
      7,
      29,
      40,
      41
    ],
    "profile": [
      108,
      64,
      95,
      127,
      16,
      25,
      89,
      117,
      82,
      98,
      3,
      83,
      97,
      87,
      56,
      79,
      100,
      72,
      97,
      75,
      53,
      99,
      108,
      105,
      76,
      104,
      107,
      30,
      90,
      112,
      93,
      99,
      32,
      77,
      110,
      80,
      76,
      48,
      62,
      98,
      115,
      113,
      70,
      81,
      91
    ]
  },
  "notes": [
    {
      "pitch": 36,
      "start_time": 0.0,
      "duration": 0.1032,
      "velocity": 108
    },
    {
      "pitch": 42,
      "start_time": 0.0,
      "duration": 0.0962,
      "velocity": 64
    },
    {
      "pitch": 43,
      "start_time": 0.0,
      "duration": 0.0522,
      "velocity": 95
    },
    {
      "pitch": 48,
      "start_time": 0.0,
      "duration": 3.6808,
      "velocity": 127
    },
    {
      "pitch": 68,
      "start_time": 0.0,
      "duration": 0.0384,
      "velocity": 16
    },
    {
      "pitch": 42,
      "start_time": 0.5,
      "duration": 0.0652,
      "velocity": 25
    },
    {
      "pitch": 43,
      "start_time": 0.5,
      "duration": 0.0519,
      "velocity": 89
    },
    {
      "pitch": 38,
      "start_time": 1.0,
      "duration": 0.0816,
      "velocity": 117
    },
    {
      "pitch": 42,
      "start_time": 1.0,
      "duration": 0.0714,
      "velocity": 82
    },
    {
      "pitch": 43,
      "start_time": 1.0,
      "duration": 0.0479,
      "velocity": 98
    },
    {
      "pitch": 42,
      "start_time": 1.5,
      "duration": 0.023,
      "velocity": 3
    },
    {
      "pitch": 43,
      "start_time": 1.5,
      "duration": 0.0432,
      "velocity": 83
    },
    {
      "pitch": 43,
      "start_time": 2.0,
      "duration": 0.0483,
      "velocity": 97
    },
    {
      "pitch": 36,
      "start_time": 2.5,
      "duration": 0.0761,
      "velocity": 87
    },
    {
      "pitch": 42,
      "start_time": 2.5,
      "duration": 0.0736,
      "velocity": 56
    },
    {
      "pitch": 43,
      "start_time": 2.5,
      "duration": 0.0471,
      "velocity": 79
    },
    {
      "pitch": 38,
      "start_time": 3.0,
      "duration": 0.0781,
      "velocity": 100
    },
    {
      "pitch": 42,
      "start_time": 3.0,
      "duration": 0.067,
      "velocity": 72
    },
    {
      "pitch": 43,
      "start_time": 3.0,
      "duration": 0.0506,
      "velocity": 97
    },
    {
      "pitch": 36,
      "start_time": 3.5,
      "duration": 0.0761,
      "velocity": 75
    },
    {
      "pitch": 42,
      "start_time": 3.5,
      "duration": 0.0643,
      "velocity": 53
    },
    {
      "pitch": 43,
      "start_time": 3.5,
      "duration": 0.0573,
      "velocity": 99
    },
    {
      "pitch": 36,
      "start_time": 4.0,
      "duration": 0.0862,
      "velocity": 108
    },
    {
      "pitch": 39,
      "start_time": 4.0,
      "duration": 0.0449,
      "velocity": 105
    },
    {
      "pitch": 42,
      "start_time": 4.0,
      "duration": 0.0818,
      "velocity": 76
    },
    {
      "pitch": 43,
      "start_time": 4.0,
      "duration": 0.0526,
      "velocity": 104
    },
    {
      "pitch": 49,
      "start_time": 4.0,
      "duration": 2.6501,
      "velocity": 107
    },
    {
      "pitch": 42,
      "start_time": 4.5,
      "duration": 0.0635,
      "velocity": 30
    },
    {
      "pitch": 43,
      "start_time": 4.5,
      "duration": 0.0528,
      "velocity": 90
    },
    {
      "pitch": 38,
      "start_time": 5.0,
      "duration": 0.0766,
      "velocity": 112
    },
    {
      "pitch": 42,
      "start_time": 5.0,
      "duration": 0.0753,
      "velocity": 93
    },
    {
      "pitch": 43,
      "start_time": 5.0,
      "duration": 0.0537,
      "velocity": 99
    },
    {
      "pitch": 42,
      "start_time": 5.5,
      "duration": 0.0611,
      "velocity": 32
    },
    {
      "pitch": 43,
      "start_time": 5.5,
      "duration": 0.0524,
      "velocity": 77
    },
    {
      "pitch": 36,
      "start_time": 6.0,
      "duration": 0.0836,
      "velocity": 110
    },
    {
      "pitch": 42,
      "start_time": 6.0,
      "duration": 0.087,
      "velocity": 80
    },
    {
      "pitch": 43,
      "start_time": 6.0,
      "duration": 0.0448,
      "velocity": 76
    },
    {
      "pitch": 42,
      "start_time": 6.5,
      "duration": 0.0847,
      "velocity": 48
    },
    {
      "pitch": 43,
      "start_time": 6.5,
      "duration": 0.0389,
      "velocity": 62
    },
    {
      "pitch": 36,
      "start_time": 6.75,
      "duration": 0.1642,
      "velocity": 98
    },
    {
      "pitch": 38,
      "start_time": 7.0,
      "duration": 0.0867,
      "velocity": 115
    },
    {
      "pitch": 42,
      "start_time": 7.0,
      "duration": 0.0873,
      "velocity": 113
    },
    {
      "pitch": 43,
      "start_time": 7.0,
      "duration": 0.0451,
      "velocity": 70
    },
    {
      "pitch": 36,
      "start_time": 7.5,
      "duration": 0.1193,
      "velocity": 81
    },
    {
      "pitch": 43,
      "start_time": 7.5,
      "duration": 0.0522,
      "velocity": 91
    }
  ]
}