{
  "source": {
    "song": "packs",
    "track_index": 0,
    "track_name": "Beat Tools / MIDI Clips / 59 - 80 bpm / Agile Shot Kit groove 05_74 bpm",
    "slot_index": 0,
    "clip_name": "Beat Tools / MIDI Clips / 59 - 80 bpm / Agile Shot Kit groove 05_74 bpm",
    "mid_file": "/Users/darnold/Music/Ableton/Packs/Beat Tools/MIDI Clips/59 - 80 bpm/Agile Shot Kit groove 05_74 bpm.alc"
  },
  "meta": {
    "bpm": 74.0,
    "key": "?",
    "scale": "?",
    "length_beats": 8.0,
    "note_count": 60
  },
  "rhythm": {
    "density": 1.125,
    "hit_positions": [
      0.0,
      0.0,
      0.0,
      0.0,
      0.0,
      0.25,
      0.375,
      0.5,
      0.625,
      0.75,
      0.75,
      0.75,
      1.0,
      1.0,
      1.0,
      1.5,
      1.5,
      1.5,
      1.5,
      2.0,
      2.125,
      2.25,
      2.375,
      2.5,
      2.5,
      2.5,
      2.625,
      3.0,
      3.75,
      3.8125,
      3.875,
      4.0,
      4.0,
      4.0,
      4.0,
      4.0625,
      4.25,
      4.375,
      4.5,
      4.625,
      4.75,
      4.75,
      4.75,
      5.0,
      5.0,
      5.25,
      5.5,
      5.5,
      5.5,
      5.5,
      6.0,
      6.25,
      6.25,
      6.375,
      6.5,
      6.5,
      6.625,
      6.75,
      7.0,
      7.1875
    ],
    "ioi": [
      0.0,
      0.0,
      0.0,
      0.0,
      0.25,
      0.125,
      0.125,
      0.125,
      0.125,
      0.0,
      0.0,
      0.25,
      0.0,
      0.0,
      0.5,
      0.0,
      0.0,
      0.0,
      0.5,
      0.125,
      0.125,
      0.125,
      0.125,
      0.0,
      0.0,
      0.125,
      0.375,
      0.75,
      0.0625,
      0.0625,
      0.125,
      0.0,
      0.0,
      0.0,
      0.0625,
      0.1875,
      0.125,
      0.125,
      0.125,
      0.125,
      0.0,
      0.0,
      0.25,
      0.0,
      0.25,
      0.25,
      0.0,
      0.0,
      0.0,
      0.5,
      0.25,
      0.0,
      0.125,
      0.125,
      0.0,
      0.125,
      0.125,
      0.25,
      0.1875,
      0.8125
    ],
    "grid": "16th",
    "euclidean_approx": [
      32,
      32
    ],
    "swing_ratio": 1.137
  },
  "pitch": {
    "notes_used": [
      36,
      38,
      40,
      42,
      48,
      49,
      50,
      51,
      56,
      57,
      59
    ],
    "intervals": [
      4,
      2,
      6,
      8,
      14,
      0,
      0,
      0,
      6,
      4,
      8,
      10,
      4,
      7,
      13,
      4,
      10,
      7,
      15,
      0,
      0,
      0,
      6,
      6,
      15,
      15,
      4,
      4,
      0,
      0,
      6,
      4,
      2,
      6,
      8,
      14,
      0,
      0,
      0,
      6,
      4,
      8,
      10,
      11,
      9,
      4,
      4,
      10,
      7,
      15,
      6,
      6,
      0,
      6,
      23,
      17,
      0,
      4,
      13
    ],
    "register": "low",
    "is_melodic": true,
    "pitch_range": 23,
    "pitch_distribution": {
      "36": 9,
      "40": 7,
      "42": 25,
      "48": 4,
      "56": 2,
      "38": 4,
      "49": 2,
      "50": 2,
      "57": 3,
      "59": 1,
      "51": 1
    }
  },
  "velocity": {
    "mean": 85.3,
    "variance": 382.5,
    "std": 19.6,
    "accents": [
      23,
      51,
      54,
      58
    ],
    "profile": [
      96,
      96,
      70,
      96,
      96,
      66,
      68,
      70,
      71,
      95,
      95,
      96,
      95,
      73,
      96,
      95,
      92,
      96,
      96,
      65,
      63,
      66,
      68,
      127,
      69,
      96,
      70,
      96,
      54,
      64,
      73,
      96,
      96,
      72,
      96,
      96,
      11,
      66,
      67,
      70,
      95,
      96,
      96,
      95,
      96,
      86,
      96,
      96,
      96,
      96,
      73,
      127,
      71,
      73,
      127,
      96,
      72,
      69,
      127,
      96
    ]
  },
  "notes": [
    {
      "pitch": 36,
      "start_time": 0.0,
      "duration": 0.0521,
      "velocity": 96
    },
    {
      "pitch": 40,
      "start_time": 0.0,
      "duration": 0.0521,
      "velocity": 96
    },
    {
      "pitch": 42,
      "start_time": 0.0,
      "duration": 0.0729,
      "velocity": 70
    },
    {
      "pitch": 48,
      "start_time": 0.0,
      "duration": 0.0417,
      "velocity": 96
    },
    {
      "pitch": 56,
      "start_time": 0.0,
      "duration": 0.0417,
      "velocity": 96
    },
    {
      "pitch": 42,
      "start_time": 0.25,
      "duration": 0.0521,
      "velocity": 66
    },
    {
      "pitch": 42,
      "start_time": 0.375,
      "duration": 0.0417,
      "velocity": 68
    },
    {
      "pitch": 42,
      "start_time": 0.5,
      "duration": 0.0625,
      "velocity": 70
    },
    {
      "pitch": 42,
      "start_time": 0.625,
      "duration": 0.0625,
      "velocity": 71
    },
    {
      "pitch": 36,
      "start_time": 0.75,
      "duration": 0.0625,
      "velocity": 95
    },
    {
      "pitch": 40,
      "start_time": 0.75,
      "duration": 0.0729,
      "velocity": 95
    },
    {
      "pitch": 48,
      "start_time": 0.75,
      "duration": 0.0521,
      "velocity": 96
    },
    {
      "pitch": 38,
      "start_time": 1.0,
      "duration": 0.0729,
      "velocity": 95
    },
    {
      "pitch": 42,
      "start_time": 1.0,
      "duration": 0.0625,
      "velocity": 73
    },
    {
      "pitch": 49,
      "start_time": 1.0,
      "duration": 0.0625,
      "velocity": 96
    },
    {
      "pitch": 36,
      "start_time": 1.5,
      "duration": 0.0521,
      "velocity": 95
    },
    {
      "pitch": 40,
      "start_time": 1.5,
      "duration": 0.0625,
      "velocity": 92
    },
    {
      "pitch": 50,
      "start_time": 1.5,
      "duration": 0.0521,
      "velocity": 96
    },
    {
      "pitch": 57,
      "start_time": 1.5,
      "duration": 0.0521,
      "velocity": 96
    },
    {
      "pitch": 42,
      "start_time": 2.0,
      "duration": 0.0312,
      "velocity": 65
    },
    {
      "pitch": 42,
      "start_time": 2.125,
      "duration": 0.0417,
      "velocity": 63
    },
    {
      "pitch": 42,
      "start_time": 2.25,
      "duration": 0.0521,
      "velocity": 66
    },
    {
      "pitch": 42,
      "start_time": 2.375,
      "duration": 0.0521,
      "velocity": 68
    },
    {
      "pitch": 36,
      "start_time": 2.5,
      "duration": 0.3958,
      "velocity": 127
    },
    {
      "pitch": 42,
      "start_time": 2.5,
      "duration": 0.0625,
      "velocity": 69
    },
    {
      "pitch": 57,
      "start_time": 2.5,
      "duration": 0.0417,
      "velocity": 96
    },
    {
      "pitch": 42,
      "start_time": 2.625,
      "duration": 0.0729,
      "velocity": 70
    },
    {
      "pitch": 38,
      "start_time": 3.0,
      "duration": 0.0521,
      "velocity": 96
    },
    {
      "pitch": 42,
      "start_time": 3.75,
      "duration": 0.0625,
      "velocity": 54
    },
    {
      "pitch": 42,
      "start_time": 3.8125,
      "duration": 0.0625,
      "velocity": 64
    },
    {
      "pitch": 42,
      "start_time": 3.875,
      "duration": 0.0312,
      "velocity": 73
    },
    {
      "pitch": 36,
      "start_time": 4.0,
      "duration": 0.0521,
      "velocity": 96
    },
    {
      "pitch": 40,
      "start_time": 4.0,
      "duration": 0.0625,
      "velocity": 96
    },
    {
      "pitch": 42,
      "start_time": 4.0,
      "duration": 0.0833,
      "velocity": 72
    },
    {
      "pitch": 48,
      "start_time": 4.0,
      "duration": 0.0521,
      "velocity": 96
    },
    {
      "pitch": 56,
      "start_time": 4.0625,
      "duration": 0.0521,
      "velocity": 96
    },
    {
      "pitch": 42,
      "start_time": 4.25,
      "duration": 0.001,
      "velocity": 11
    },
    {
      "pitch": 42,
      "start_time": 4.375,
      "duration": 0.0521,
      "velocity": 66
    },
    {
      "pitch": 42,
      "start_time": 4.5,
      "duration": 0.0625,
      "velocity": 67
    },
    {
      "pitch": 42,
      "start_time": 4.625,
      "duration": 0.0625,
      "velocity": 70
    },
    {
      "pitch": 36,
      "start_time": 4.75,
      "duration": 0.0729,
      "velocity": 95
    },
    {
      "pitch": 40,
      "start_time": 4.75,
      "duration": 0.0729,
      "velocity": 96
    },
    {
      "pitch": 48,
      "start_time": 4.75,
      "duration": 0.0521,
      "velocity": 96
    },
    {
      "pitch": 38,
      "start_time": 5.0,
      "duration": 0.0729,
      "velocity": 95
    },
    {
      "pitch": 49,
      "start_time": 5.0,
      "duration": 0.0625,
      "velocity": 96
    },
    {
      "pitch": 40,
      "start_time": 5.25,
      "duration": 0.0417,
      "velocity": 86
    },
    {
      "pitch": 36,
      "start_time": 5.5,
      "duration": 0.0521,
      "velocity": 96
    },
    {
      "pitch": 40,
      "start_time": 5.5,
      "duration": 0.0521,
      "velocity": 96
    },
    {
      "pitch": 50,
      "start_time": 5.5,
      "duration": 0.0521,
      "velocity": 96
    },
    {
      "pitch": 57,
      "start_time": 5.5,
      "duration": 0.0521,
      "velocity": 96
    },
    {
      "pitch": 42,
      "start_time": 6.0,
      "duration": 0.0833,
      "velocity": 73
    },
    {
      "pitch": 36,
      "start_time": 6.25,
      "duration": 0.1146,
      "velocity": 127
    },
    {
      "pitch": 42,
      "start_time": 6.25,
      "duration": 0.0625,
      "velocity": 71
    },
    {
      "pitch": 42,
      "start_time": 6.375,
      "duration": 0.0729,
      "velocity": 73
    },
    {
      "pitch": 36,
      "start_time": 6.5,
      "duration": 0.3021,
      "velocity": 127
    },
    {
      "pitch": 59,
      "start_time": 6.5,
      "duration": 0.0729,
      "velocity": 96
    },
    {
      "pitch": 42,
      "start_time": 6.625,
      "duration": 0.0521,
      "velocity": 72
    },
    {
      "pitch": 42,
      "start_time": 6.75,
      "duration": 0.0521,
      "velocity": 69
    },
    {
      "pitch": 38,
      "start_time": 7.0,
      "duration": 0.0833,
      "velocity": 127
    },
    {
      "pitch": 51,
      "start_time": 7.1875,
      "duration": 0.1146,
      "velocity": 96
    }
  ]
}