{
  "source": {
    "song": "packs",
    "track_index": 0,
    "track_name": "Beat Tools / MIDI Clips / 59 - 80 bpm / Abyss Kit groove 03_59 bpm",
    "slot_index": 0,
    "clip_name": "Beat Tools / MIDI Clips / 59 - 80 bpm / Abyss Kit groove 03_59 bpm",
    "mid_file": "/Users/darnold/Music/Ableton/Packs/Beat Tools/MIDI Clips/59 - 80 bpm/Abyss Kit groove 03_59 bpm.alc"
  },
  "meta": {
    "bpm": 59.0,
    "key": "?",
    "scale": "?",
    "length_beats": 4.0,
    "note_count": 41
  },
  "rhythm": {
    "density": 1.438,
    "hit_positions": [
      0.0,
      0.0,
      0.25,
      0.25,
      0.25,
      0.375,
      0.5,
      0.625,
      0.75,
      0.75,
      0.75,
      0.75,
      1.0,
      1.0,
      1.0,
      1.25,
      1.5,
      1.75,
      1.875,
      2.0,
      2.0,
      2.25,
      2.25,
      2.25,
      2.5,
      2.625,
      2.75,
      2.75,
      2.75,
      2.875,
      3.0,
      3.25,
      3.5,
      3.625,
      3.625,
      3.75,
      3.75,
      3.75,
      3.875,
      3.875,
      3.875
    ],
    "ioi": [
      0.0,
      0.25,
      0.0,
      0.0,
      0.125,
      0.125,
      0.125,
      0.125,
      0.0,
      0.0,
      0.0,
      0.25,
      0.0,
      0.0,
      0.25,
      0.25,
      0.25,
      0.125,
      0.125,
      0.0,
      0.25,
      0.0,
      0.0,
      0.25,
      0.125,
      0.125,
      0.0,
      0.0,
      0.125,
      0.125,
      0.25,
      0.25,
      0.125,
      0.0,
      0.125,
      0.0,
      0.0,
      0.125,
      0.0,
      0.0,
      0.125
    ],
    "grid": "16th",
    "euclidean_approx": [
      16,
      16
    ],
    "swing_ratio": 1.12
  },
  "pitch": {
    "notes_used": [
      36,
      37,
      38,
      39,
      40,
      41,
      42,
      44,
      45,
      47
    ],
    "intervals": [
      6,
      6,
      5,
      6,
      3,
      2,
      2,
      1,
      1,
      2,
      1,
      8,
      1,
      4,
      1,
      1,
      1,
      1,
      4,
      6,
      6,
      5,
      6,
      5,
      2,
      3,
      1,
      3,
      9,
      2,
      3,
      4,
      1,
      5,
      5,
      3,
      2,
      5,
      3,
      2
    ],
    "register": "low",
    "is_melodic": true,
    "pitch_range": 11,
    "pitch_distribution": {
      "36": 8,
      "42": 8,
      "41": 10,
      "47": 2,
      "44": 3,
      "40": 2,
      "45": 2,
      "37": 2,
      "38": 2,
      "39": 2
    }
  },
  "velocity": {
    "mean": 50.2,
    "variance": 958.3,
    "std": 31.0,
    "accents": [
      0,
      2,
      4,
      13,
      23,
      28,
      30
    ],
    "profile": [
      82,
      62,
      83,
      17,
      115,
      52,
      19,
      62,
      19,
      29,
      31,
      69,
      62,
      104,
      48,
      26,
      44,
      26,
      44,
      51,
      49,
      77,
      20,
      121,
      3,
      77,
      21,
      22,
      127,
      49,
      86,
      24,
      78,
      12,
      31,
      28,
      67,
      28,
      24,
      40,
      29
    ]
  },
  "notes": [
    {
      "pitch": 36,
      "start_time": 0.0,
      "duration": 0.0084,
      "velocity": 82
    },
    {
      "pitch": 42,
      "start_time": 0.0,
      "duration": 0.0015,
      "velocity": 62
    },
    {
      "pitch": 36,
      "start_time": 0.25,
      "duration": 0.0444,
      "velocity": 83
    },
    {
      "pitch": 41,
      "start_time": 0.25,
      "duration": 0.0228,
      "velocity": 17
    },
    {
      "pitch": 47,
      "start_time": 0.25,
      "duration": 0.4963,
      "velocity": 115
    },
    {
      "pitch": 44,
      "start_time": 0.375,
      "duration": 0.0516,
      "velocity": 52
    },
    {
      "pitch": 42,
      "start_time": 0.5,
      "duration": 0.0492,
      "velocity": 19
    },
    {
      "pitch": 40,
      "start_time": 0.625,
      "duration": 0.0462,
      "velocity": 62
    },
    {
      "pitch": 41,
      "start_time": 0.75,
      "duration": 0.0231,
      "velocity": 19
    },
    {
      "pitch": 42,
      "start_time": 0.75,
      "duration": 0.0392,
      "velocity": 29
    },
    {
      "pitch": 44,
      "start_time": 0.75,
      "duration": 0.2094,
      "velocity": 31
    },
    {
      "pitch": 45,
      "start_time": 0.75,
      "duration": 0.2429,
      "velocity": 69
    },
    {
      "pitch": 37,
      "start_time": 1.0,
      "duration": 0.0483,
      "velocity": 62
    },
    {
      "pitch": 38,
      "start_time": 1.0,
      "duration": 0.0273,
      "velocity": 104
    },
    {
      "pitch": 42,
      "start_time": 1.0,
      "duration": 0.0435,
      "velocity": 48
    },
    {
      "pitch": 41,
      "start_time": 1.25,
      "duration": 0.0279,
      "velocity": 26
    },
    {
      "pitch": 42,
      "start_time": 1.5,
      "duration": 0.0544,
      "velocity": 44
    },
    {
      "pitch": 41,
      "start_time": 1.75,
      "duration": 0.0265,
      "velocity": 26
    },
    {
      "pitch": 40,
      "start_time": 1.875,
      "duration": 0.0382,
      "velocity": 44
    },
    {
      "pitch": 36,
      "start_time": 2.0,
      "duration": 0.0452,
      "velocity": 51
    },
    {
      "pitch": 42,
      "start_time": 2.0,
      "duration": 0.0538,
      "velocity": 49
    },
    {
      "pitch": 36,
      "start_time": 2.25,
      "duration": 0.0634,
      "velocity": 77
    },
    {
      "pitch": 41,
      "start_time": 2.25,
      "duration": 0.0443,
      "velocity": 20
    },
    {
      "pitch": 47,
      "start_time": 2.25,
      "duration": 0.4954,
      "velocity": 121
    },
    {
      "pitch": 42,
      "start_time": 2.5,
      "duration": 0.0089,
      "velocity": 3
    },
    {
      "pitch": 44,
      "start_time": 2.625,
      "duration": 0.0621,
      "velocity": 77
    },
    {
      "pitch": 41,
      "start_time": 2.75,
      "duration": 0.0282,
      "velocity": 21
    },
    {
      "pitch": 42,
      "start_time": 2.75,
      "duration": 0.0231,
      "velocity": 22
    },
    {
      "pitch": 45,
      "start_time": 2.75,
      "duration": 0.1949,
      "velocity": 127
    },
    {
      "pitch": 36,
      "start_time": 2.875,
      "duration": 0.0479,
      "velocity": 49
    },
    {
      "pitch": 38,
      "start_time": 3.0,
      "duration": 0.046,
      "velocity": 86
    },
    {
      "pitch": 41,
      "start_time": 3.25,
      "duration": 0.0363,
      "velocity": 24
    },
    {
      "pitch": 37,
      "start_time": 3.5,
      "duration": 0.0545,
      "velocity": 78
    },
    {
      "pitch": 36,
      "start_time": 3.625,
      "duration": 0.125,
      "velocity": 12
    },
    {
      "pitch": 41,
      "start_time": 3.625,
      "duration": 0.125,
      "velocity": 31
    },
    {
      "pitch": 36,
      "start_time": 3.75,
      "duration": 0.125,
      "velocity": 28
    },
    {
      "pitch": 39,
      "start_time": 3.75,
      "duration": 0.0525,
      "velocity": 67
    },
    {
      "pitch": 41,
      "start_time": 3.75,
      "duration": 0.125,
      "velocity": 28
    },
    {
      "pitch": 36,
      "start_time": 3.875,
      "duration": 0.0722,
      "velocity": 24
    },
    {
      "pitch": 39,
      "start_time": 3.875,
      "duration": 0.0368,
      "velocity": 40
    },
    {
      "pitch": 41,
      "start_time": 3.875,
      "duration": 0.0515,
      "velocity": 29
    }
  ]
}