{
  "source": {
    "song": "packs",
    "track_index": 0,
    "track_name": "Beat Tools / MIDI Clips / 132 - 152 bpm / Agile Shot Kit groove 01_132 bpm",
    "slot_index": 0,
    "clip_name": "Beat Tools / MIDI Clips / 132 - 152 bpm / Agile Shot Kit groove 01_132 bpm",
    "mid_file": "/Users/darnold/Music/Ableton/Packs/Beat Tools/MIDI Clips/132 - 152 bpm/Agile Shot Kit groove 01_132 bpm.alc"
  },
  "meta": {
    "bpm": 132.0,
    "key": "?",
    "scale": "?",
    "length_beats": 16.0,
    "note_count": 60
  },
  "rhythm": {
    "density": 0.562,
    "hit_positions": [
      0.0,
      0.0,
      0.0,
      0.0,
      0.0,
      0.5,
      0.75,
      1.0,
      1.25,
      1.5,
      1.5,
      1.5,
      2.0,
      2.0,
      2.0,
      3.0,
      3.0,
      3.0,
      3.0,
      4.0,
      4.25,
      4.5,
      4.75,
      5.0,
      5.0,
      5.25,
      6.0,
      6.0,
      7.5,
      7.6255,
      7.75,
      8.0,
      8.0,
      8.0,
      8.0,
      8.1255,
      8.5,
      8.75,
      9.0,
      9.25,
      9.5,
      9.5,
      9.5,
      10.0,
      10.0,
      10.5,
      10.5,
      11.0,
      11.0,
      11.0,
      11.0,
      12.0,
      12.5,
      12.75,
      13.0,
      13.25,
      13.5,
      14.0,
      14.0,
      15.0
    ],
    "ioi": [
      0.0,
      0.0,
      0.0,
      0.0,
      0.5,
      0.25,
      0.25,
      0.25,
      0.25,
      0.0,
      0.0,
      0.5,
      0.0,
      0.0,
      1.0,
      0.0,
      0.0,
      0.0,
      1.0,
      0.25,
      0.25,
      0.25,
      0.25,
      0.0,
      0.25,
      0.75,
      0.0,
      1.5,
      0.1255,
      0.1245,
      0.25,
      0.0,
      0.0,
      0.0,
      0.1255,
      0.3745,
      0.25,
      0.25,
      0.25,
      0.25,
      0.0,
      0.0,
      0.5,
      0.0,
      0.5,
      0.0,
      0.5,
      0.0,
      0.0,
      0.0,
      1.0,
      0.5,
      0.25,
      0.25,
      0.25,
      0.25,
      0.5,
      0.0,
      1.0,
      1.0
    ],
    "grid": "16th",
    "euclidean_approx": [
      60,
      64
    ],
    "swing_ratio": 1.0
  },
  "pitch": {
    "notes_used": [
      36,
      37,
      40,
      42,
      48,
      49,
      50,
      51,
      56,
      57,
      59
    ],
    "intervals": [
      4,
      2,
      6,
      8,
      14,
      0,
      0,
      0,
      6,
      4,
      8,
      11,
      5,
      7,
      13,
      4,
      10,
      7,
      15,
      0,
      0,
      0,
      0,
      15,
      15,
      5,
      14,
      9,
      0,
      0,
      6,
      4,
      2,
      6,
      8,
      14,
      0,
      0,
      0,
      6,
      4,
      8,
      11,
      12,
      13,
      4,
      4,
      4,
      10,
      7,
      15,
      0,
      0,
      17,
      17,
      0,
      5,
      14,
      8
    ],
    "register": "low",
    "is_melodic": true,
    "pitch_range": 23,
    "pitch_distribution": {
      "36": 7,
      "40": 7,
      "42": 25,
      "48": 4,
      "56": 2,
      "37": 4,
      "49": 2,
      "50": 2,
      "57": 3,
      "51": 2,
      "59": 2
    }
  },
  "velocity": {
    "mean": 83.1,
    "variance": 266.5,
    "std": 16.3,
    "accents": [],
    "profile": [
      96,
      96,
      70,
      96,
      96,
      66,
      68,
      70,
      71,
      95,
      95,
      96,
      95,
      73,
      96,
      95,
      92,
      96,
      96,
      65,
      63,
      66,
      68,
      69,
      96,
      70,
      96,
      96,
      54,
      64,
      73,
      96,
      96,
      72,
      96,
      96,
      11,
      66,
      67,
      70,
      95,
      96,
      96,
      95,
      96,
      89,
      86,
      96,
      96,
      96,
      96,
      73,
      71,
      73,
      96,
      72,
      69,
      94,
      96,
      95
    ]
  },
  "notes": [
    {
      "pitch": 36,
      "start_time": 0.0,
      "duration": 0.1128,
      "velocity": 96
    },
    {
      "pitch": 40,
      "start_time": 0.0,
      "duration": 0.119,
      "velocity": 96
    },
    {
      "pitch": 42,
      "start_time": 0.0,
      "duration": 0.1534,
      "velocity": 70
    },
    {
      "pitch": 48,
      "start_time": 0.0,
      "duration": 0.1022,
      "velocity": 96
    },
    {
      "pitch": 56,
      "start_time": 0.0,
      "duration": 0.0934,
      "velocity": 96
    },
    {
      "pitch": 42,
      "start_time": 0.5,
      "duration": 0.1066,
      "velocity": 66
    },
    {
      "pitch": 42,
      "start_time": 0.75,
      "duration": 0.0912,
      "velocity": 68
    },
    {
      "pitch": 42,
      "start_time": 1.0,
      "duration": 0.1322,
      "velocity": 70
    },
    {
      "pitch": 42,
      "start_time": 1.25,
      "duration": 0.1406,
      "velocity": 71
    },
    {
      "pitch": 36,
      "start_time": 1.5,
      "duration": 0.1406,
      "velocity": 95
    },
    {
      "pitch": 40,
      "start_time": 1.5,
      "duration": 0.1512,
      "velocity": 95
    },
    {
      "pitch": 48,
      "start_time": 1.5,
      "duration": 0.1194,
      "velocity": 96
    },
    {
      "pitch": 37,
      "start_time": 2.0,
      "duration": 0.1573,
      "velocity": 95
    },
    {
      "pitch": 42,
      "start_time": 2.0,
      "duration": 0.1406,
      "velocity": 73
    },
    {
      "pitch": 49,
      "start_time": 2.0,
      "duration": 0.13,
      "velocity": 96
    },
    {
      "pitch": 36,
      "start_time": 3.0,
      "duration": 0.1195,
      "velocity": 95
    },
    {
      "pitch": 40,
      "start_time": 3.0,
      "duration": 0.1278,
      "velocity": 92
    },
    {
      "pitch": 50,
      "start_time": 3.0,
      "duration": 0.1044,
      "velocity": 96
    },
    {
      "pitch": 57,
      "start_time": 3.0,
      "duration": 0.1088,
      "velocity": 96
    },
    {
      "pitch": 42,
      "start_time": 4.0,
      "duration": 0.0705,
      "velocity": 65
    },
    {
      "pitch": 42,
      "start_time": 4.25,
      "duration": 0.0895,
      "velocity": 63
    },
    {
      "pitch": 42,
      "start_time": 4.5,
      "duration": 0.1066,
      "velocity": 66
    },
    {
      "pitch": 42,
      "start_time": 4.75,
      "duration": 0.1066,
      "velocity": 68
    },
    {
      "pitch": 42,
      "start_time": 5.0,
      "duration": 0.1344,
      "velocity": 69
    },
    {
      "pitch": 57,
      "start_time": 5.0,
      "duration": 0.0961,
      "velocity": 96
    },
    {
      "pitch": 42,
      "start_time": 5.25,
      "duration": 0.1467,
      "velocity": 70
    },
    {
      "pitch": 37,
      "start_time": 6.0,
      "duration": 0.119,
      "velocity": 96
    },
    {
      "pitch": 51,
      "start_time": 6.0,
      "duration": 0.1111,
      "velocity": 96
    },
    {
      "pitch": 42,
      "start_time": 7.5,
      "duration": 0.1255,
      "velocity": 54
    },
    {
      "pitch": 42,
      "start_time": 7.6255,
      "duration": 0.1245,
      "velocity": 64
    },
    {
      "pitch": 42,
      "start_time": 7.75,
      "duration": 0.0713,
      "velocity": 73
    },
    {
      "pitch": 36,
      "start_time": 8.0,
      "duration": 0.1194,
      "velocity": 96
    },
    {
      "pitch": 40,
      "start_time": 8.0,
      "duration": 0.1278,
      "velocity": 96
    },
    {
      "pitch": 42,
      "start_time": 8.0,
      "duration": 0.1745,
      "velocity": 72
    },
    {
      "pitch": 48,
      "start_time": 8.0,
      "duration": 0.1044,
      "velocity": 96
    },
    {
      "pitch": 56,
      "start_time": 8.1255,
      "duration": 0.115,
      "velocity": 96
    },
    {
      "pitch": 42,
      "start_time": 8.5,
      "duration": 0.0128,
      "velocity": 11
    },
    {
      "pitch": 42,
      "start_time": 8.75,
      "duration": 0.1133,
      "velocity": 66
    },
    {
      "pitch": 42,
      "start_time": 9.0,
      "duration": 0.1344,
      "velocity": 67
    },
    {
      "pitch": 42,
      "start_time": 9.25,
      "duration": 0.134,
      "velocity": 70
    },
    {
      "pitch": 36,
      "start_time": 9.5,
      "duration": 0.1494,
      "velocity": 95
    },
    {
      "pitch": 40,
      "start_time": 9.5,
      "duration": 0.1639,
      "velocity": 96
    },
    {
      "pitch": 48,
      "start_time": 9.5,
      "duration": 0.1172,
      "velocity": 96
    },
    {
      "pitch": 37,
      "start_time": 10.0,
      "duration": 0.1511,
      "velocity": 95
    },
    {
      "pitch": 49,
      "start_time": 10.0,
      "duration": 0.1256,
      "velocity": 96
    },
    {
      "pitch": 36,
      "start_time": 10.5,
      "duration": 0.0767,
      "velocity": 89
    },
    {
      "pitch": 40,
      "start_time": 10.5,
      "duration": 0.0961,
      "velocity": 86
    },
    {
      "pitch": 36,
      "start_time": 11.0,
      "duration": 0.1084,
      "velocity": 96
    },
    {
      "pitch": 40,
      "start_time": 11.0,
      "duration": 0.1066,
      "velocity": 96
    },
    {
      "pitch": 50,
      "start_time": 11.0,
      "duration": 0.1084,
      "velocity": 96
    },
    {
      "pitch": 57,
      "start_time": 11.0,
      "duration": 0.1062,
      "velocity": 96
    },
    {
      "pitch": 42,
      "start_time": 12.0,
      "duration": 0.1705,
      "velocity": 73
    },
    {
      "pitch": 42,
      "start_time": 12.5,
      "duration": 0.1278,
      "velocity": 71
    },
    {
      "pitch": 42,
      "start_time": 12.75,
      "duration": 0.1617,
      "velocity": 73
    },
    {
      "pitch": 59,
      "start_time": 13.0,
      "duration": 0.1494,
      "velocity": 96
    },
    {
      "pitch": 42,
      "start_time": 13.25,
      "duration": 0.1172,
      "velocity": 72
    },
    {
      "pitch": 42,
      "start_time": 13.5,
      "duration": 0.1194,
      "velocity": 69
    },
    {
      "pitch": 37,
      "start_time": 14.0,
      "duration": 0.0978,
      "velocity": 94
    },
    {
      "pitch": 51,
      "start_time": 14.0,
      "duration": 0.115,
      "velocity": 96
    },
    {
      "pitch": 59,
      "start_time": 15.0,
      "duration": 0.1212,
      "velocity": 95
    }
  ]
}