{
  "source": {
    "song": "packs",
    "track_index": 0,
    "track_name": "Beat Tools / MIDI Clips / 59 - 80 bpm / Voltage Kit groove 04_78 bpm",
    "slot_index": 0,
    "clip_name": "Beat Tools / MIDI Clips / 59 - 80 bpm / Voltage Kit groove 04_78 bpm",
    "mid_file": "/Users/darnold/Music/Ableton/Packs/Beat Tools/MIDI Clips/59 - 80 bpm/Voltage Kit groove 04_78 bpm.alc"
  },
  "meta": {
    "bpm": 78.0,
    "key": "?",
    "scale": "?",
    "length_beats": 8.0,
    "note_count": 82
  },
  "rhythm": {
    "density": 1.5,
    "hit_positions": [
      0.0,
      0.0,
      0.0,
      0.25,
      0.25,
      0.5,
      0.5,
      0.5,
      0.75,
      1.0,
      1.0,
      1.0,
      1.25,
      1.375,
      1.5,
      1.5,
      1.625,
      1.625,
      1.75,
      1.75,
      1.75,
      1.875,
      1.875,
      2.0,
      2.0,
      2.0,
      2.125,
      2.25,
      2.375,
      2.5,
      2.5,
      2.6667,
      2.8333,
      3.0,
      3.1667,
      3.3333,
      3.5,
      3.75,
      4.0,
      4.0,
      4.0,
      4.25,
      4.25,
      4.5,
      4.5,
      4.5,
      4.625,
      4.75,
      5.0,
      5.0,
      5.0,
      5.25,
      5.5,
      5.75,
      6.0,
      6.0,
      6.25,
      6.5,
      6.5,
      6.625,
      6.6667,
      6.75,
      6.7917,
      6.8125,
      6.8229,
      6.8438,
      6.8542,
      6.875,
      6.8854,
      6.9167,
      6.9479,
      6.9792,
      7.0,
      7.0,
      7.25,
      7.3333,
      7.5,
      7.5,
      7.625,
      7.75,
      7.75,
      7.875
    ],
    "ioi": [
      0.0,
      0.0,
      0.25,
      0.0,
      0.25,
      0.0,
      0.0,
      0.25,
      0.25,
      0.0,
      0.0,
      0.25,
      0.125,
      0.125,
      0.0,
      0.125,
      0.0,
      0.125,
      0.0,
      0.0,
      0.125,
      0.0,
      0.125,
      0.0,
      0.0,
      0.125,
      0.125,
      0.125,
      0.125,
      0.0,
      0.1667,
      0.1666,
      0.1667,
      0.1667,
      0.1666,
      0.1667,
      0.25,
      0.25,
      0.0,
      0.0,
      0.25,
      0.0,
      0.25,
      0.0,
      0.0,
      0.125,
      0.125,
      0.25,
      0.0,
      0.0,
      0.25,
      0.25,
      0.25,
      0.25,
      0.0,
      0.25,
      0.25,
      0.0,
      0.125,
      0.0417,
      0.0833,
      0.0417,
      0.0208,
      0.0104,
      0.0209,
      0.0104,
      0.0208,
      0.0104,
      0.0313,
      0.0312,
      0.0313,
      0.0208,
      0.0,
      0.25,
      0.0833,
      0.1667,
      0.0,
      0.125,
      0.125,
      0.0,
      0.125,
      0.125
    ],
    "grid": "16th",
    "euclidean_approx": [
      32,
      32
    ],
    "swing_ratio": 1.227
  },
  "pitch": {
    "notes_used": [
      36,
      39,
      41,
      45,
      46,
      52,
      53,
      54,
      55,
      64
    ],
    "intervals": [
      3,
      13,
      16,
      3,
      3,
      3,
      7,
      7,
      0,
      6,
      8,
      14,
      0,
      0,
      6,
      6,
      6,
      6,
      6,
      19,
      25,
      6,
      9,
      3,
      15,
      15,
      0,
      0,
      0,
      16,
      16,
      0,
      0,
      0,
      0,
      6,
      9,
      0,
      3,
      13,
      16,
      3,
      3,
      3,
      7,
      7,
      0,
      0,
      6,
      8,
      14,
      0,
      0,
      0,
      15,
      15,
      2,
      14,
      14,
      2,
      3,
      3,
      0,
      0,
      0,
      0,
      0,
      0,
      0,
      0,
      0,
      0,
      6,
      9,
      3,
      0,
      16,
      16,
      0,
      6,
      6
    ],
    "register": "low",
    "is_melodic": true,
    "pitch_range": 28,
    "pitch_distribution": {
      "36": 10,
      "39": 49,
      "52": 2,
      "46": 2,
      "45": 9,
      "53": 2,
      "64": 1,
      "54": 2,
      "55": 3,
      "41": 2
    }
  },
  "velocity": {
    "mean": 80.0,
    "variance": 1384.1,
    "std": 37.2,
    "accents": [
      2,
      4,
      10,
      18,
      25,
      30,
      36,
      39,
      40,
      49,
      50,
      55,
      58,
      70,
      71,
      73,
      77,
      80
    ],
    "profile": [
      116,
      69,
      127,
      82,
      122,
      53,
      71,
      104,
      28,
      25,
      127,
      108,
      97,
      60,
      33,
      92,
      23,
      92,
      125,
      82,
      31,
      62,
      80,
      116,
      38,
      127,
      28,
      28,
      90,
      100,
      127,
      28,
      28,
      67,
      73,
      60,
      127,
      116,
      116,
      125,
      127,
      116,
      44,
      116,
      98,
      99,
      98,
      30,
      16,
      127,
      125,
      11,
      96,
      36,
      36,
      127,
      64,
      81,
      127,
      110,
      23,
      116,
      24,
      36,
      45,
      53,
      57,
      57,
      73,
      94,
      118,
      122,
      63,
      127,
      116,
      69,
      53,
      127,
      39,
      44,
      127,
      87
    ]
  },
  "notes": [
    {
      "pitch": 36,
      "start_time": 0.0,
      "duration": 0.0312,
      "velocity": 116
    },
    {
      "pitch": 39,
      "start_time": 0.0,
      "duration": 0.1562,
      "velocity": 69
    },
    {
      "pitch": 52,
      "start_time": 0.0,
      "duration": 0.9375,
      "velocity": 127
    },
    {
      "pitch": 36,
      "start_time": 0.25,
      "duration": 0.0417,
      "velocity": 82
    },
    {
      "pitch": 39,
      "start_time": 0.25,
      "duration": 0.25,
      "velocity": 122
    },
    {
      "pitch": 36,
      "start_time": 0.5,
      "duration": 0.0208,
      "velocity": 53
    },
    {
      "pitch": 39,
      "start_time": 0.5,
      "duration": 0.25,
      "velocity": 71
    },
    {
      "pitch": 46,
      "start_time": 0.5,
      "duration": 0.5104,
      "velocity": 104
    },
    {
      "pitch": 39,
      "start_time": 0.75,
      "duration": 0.25,
      "velocity": 28
    },
    {
      "pitch": 39,
      "start_time": 1.0,
      "duration": 0.25,
      "velocity": 25
    },
    {
      "pitch": 45,
      "start_time": 1.0,
      "duration": 0.0208,
      "velocity": 127
    },
    {
      "pitch": 53,
      "start_time": 1.0,
      "duration": 0.8333,
      "velocity": 108
    },
    {
      "pitch": 39,
      "start_time": 1.25,
      "duration": 0.125,
      "velocity": 97
    },
    {
      "pitch": 39,
      "start_time": 1.375,
      "duration": 0.125,
      "velocity": 60
    },
    {
      "pitch": 39,
      "start_time": 1.5,
      "duration": 0.125,
      "velocity": 33
    },
    {
      "pitch": 45,
      "start_time": 1.5,
      "duration": 0.125,
      "velocity": 92
    },
    {
      "pitch": 39,
      "start_time": 1.625,
      "duration": 0.001,
      "velocity": 23
    },
    {
      "pitch": 45,
      "start_time": 1.625,
      "duration": 0.125,
      "velocity": 92
    },
    {
      "pitch": 39,
      "start_time": 1.75,
      "duration": 0.125,
      "velocity": 125
    },
    {
      "pitch": 45,
      "start_time": 1.75,
      "duration": 0.125,
      "velocity": 82
    },
    {
      "pitch": 64,
      "start_time": 1.75,
      "duration": 0.001,
      "velocity": 31
    },
    {
      "pitch": 39,
      "start_time": 1.875,
      "duration": 0.125,
      "velocity": 62
    },
    {
      "pitch": 45,
      "start_time": 1.875,
      "duration": 0.1042,
      "velocity": 80
    },
    {
      "pitch": 36,
      "start_time": 2.0,
      "duration": 0.0417,
      "velocity": 116
    },
    {
      "pitch": 39,
      "start_time": 2.0,
      "duration": 0.125,
      "velocity": 38
    },
    {
      "pitch": 54,
      "start_time": 2.0,
      "duration": 0.2812,
      "velocity": 127
    },
    {
      "pitch": 39,
      "start_time": 2.125,
      "duration": 0.125,
      "velocity": 28
    },
    {
      "pitch": 39,
      "start_time": 2.25,
      "duration": 0.0208,
      "velocity": 28
    },
    {
      "pitch": 39,
      "start_time": 2.375,
      "duration": 0.125,
      "velocity": 90
    },
    {
      "pitch": 39,
      "start_time": 2.5,
      "duration": 0.1667,
      "velocity": 100
    },
    {
      "pitch": 55,
      "start_time": 2.5,
      "duration": 0.4688,
      "velocity": 127
    },
    {
      "pitch": 39,
      "start_time": 2.6667,
      "duration": 0.1667,
      "velocity": 28
    },
    {
      "pitch": 39,
      "start_time": 2.8333,
      "duration": 0.0312,
      "velocity": 28
    },
    {
      "pitch": 39,
      "start_time": 3.0,
      "duration": 0.1667,
      "velocity": 67
    },
    {
      "pitch": 39,
      "start_time": 3.1667,
      "duration": 0.1667,
      "velocity": 73
    },
    {
      "pitch": 39,
      "start_time": 3.3333,
      "duration": 0.2292,
      "velocity": 60
    },
    {
      "pitch": 45,
      "start_time": 3.5,
      "duration": 0.0312,
      "velocity": 127
    },
    {
      "pitch": 36,
      "start_time": 3.75,
      "duration": 0.0521,
      "velocity": 116
    },
    {
      "pitch": 36,
      "start_time": 4.0,
      "duration": 0.0208,
      "velocity": 116
    },
    {
      "pitch": 39,
      "start_time": 4.0,
      "duration": 0.25,
      "velocity": 125
    },
    {
      "pitch": 52,
      "start_time": 4.0,
      "duration": 0.8958,
      "velocity": 127
    },
    {
      "pitch": 36,
      "start_time": 4.25,
      "duration": 0.0521,
      "velocity": 116
    },
    {
      "pitch": 39,
      "start_time": 4.25,
      "duration": 0.25,
      "velocity": 44
    },
    {
      "pitch": 36,
      "start_time": 4.5,
      "duration": 0.0312,
      "velocity": 116
    },
    {
      "pitch": 39,
      "start_time": 4.5,
      "duration": 0.125,
      "velocity": 98
    },
    {
      "pitch": 46,
      "start_time": 4.5,
      "duration": 0.4271,
      "velocity": 99
    },
    {
      "pitch": 39,
      "start_time": 4.625,
      "duration": 0.125,
      "velocity": 98
    },
    {
      "pitch": 39,
      "start_time": 4.75,
      "duration": 0.001,
      "velocity": 30
    },
    {
      "pitch": 39,
      "start_time": 5.0,
      "duration": 0.25,
      "velocity": 16
    },
    {
      "pitch": 45,
      "start_time": 5.0,
      "duration": 0.0312,
      "velocity": 127
    },
    {
      "pitch": 53,
      "start_time": 5.0,
      "duration": 0.8542,
      "velocity": 125
    },
    {
      "pitch": 39,
      "start_time": 5.25,
      "duration": 0.1146,
      "velocity": 11
    },
    {
      "pitch": 39,
      "start_time": 5.5,
      "duration": 0.25,
      "velocity": 96
    },
    {
      "pitch": 39,
      "start_time": 5.75,
      "duration": 0.25,
      "velocity": 36
    },
    {
      "pitch": 39,
      "start_time": 6.0,
      "duration": 0.25,
      "velocity": 36
    },
    {
      "pitch": 54,
      "start_time": 6.0,
      "duration": 0.3229,
      "velocity": 127
    },
    {
      "pitch": 39,
      "start_time": 6.25,
      "duration": 0.4167,
      "velocity": 64
    },
    {
      "pitch": 41,
      "start_time": 6.5,
      "duration": 0.125,
      "velocity": 81
    },
    {
      "pitch": 55,
      "start_time": 6.5,
      "duration": 0.2188,
      "velocity": 127
    },
    {
      "pitch": 41,
      "start_time": 6.625,
      "duration": 0.125,
      "velocity": 110
    },
    {
      "pitch": 39,
      "start_time": 6.6667,
      "duration": 0.1042,
      "velocity": 23
    },
    {
      "pitch": 36,
      "start_time": 6.75,
      "duration": 0.0625,
      "velocity": 116
    },
    {
      "pitch": 39,
      "start_time": 6.7917,
      "duration": 0.0208,
      "velocity": 24
    },
    {
      "pitch": 39,
      "start_time": 6.8125,
      "duration": 0.0104,
      "velocity": 36
    },
    {
      "pitch": 39,
      "start_time": 6.8229,
      "duration": 0.0208,
      "velocity": 45
    },
    {
      "pitch": 39,
      "start_time": 6.8438,
      "duration": 0.0104,
      "velocity": 53
    },
    {
      "pitch": 39,
      "start_time": 6.8542,
      "duration": 0.0208,
      "velocity": 57
    },
    {
      "pitch": 39,
      "start_time": 6.875,
      "duration": 0.0104,
      "velocity": 57
    },
    {
      "pitch": 39,
      "start_time": 6.8854,
      "duration": 0.0208,
      "velocity": 73
    },
    {
      "pitch": 39,
      "start_time": 6.9167,
      "duration": 0.0208,
      "velocity": 94
    },
    {
      "pitch": 39,
      "start_time": 6.9479,
      "duration": 0.0208,
      "velocity": 118
    },
    {
      "pitch": 39,
      "start_time": 6.9792,
      "duration": 0.0208,
      "velocity": 122
    },
    {
      "pitch": 39,
      "start_time": 7.0,
      "duration": 0.3333,
      "velocity": 63
    },
    {
      "pitch": 45,
      "start_time": 7.0,
      "duration": 0.0521,
      "velocity": 127
    },
    {
      "pitch": 36,
      "start_time": 7.25,
      "duration": 0.0729,
      "velocity": 116
    },
    {
      "pitch": 39,
      "start_time": 7.3333,
      "duration": 0.1667,
      "velocity": 69
    },
    {
      "pitch": 39,
      "start_time": 7.5,
      "duration": 0.125,
      "velocity": 53
    },
    {
      "pitch": 55,
      "start_time": 7.5,
      "duration": 0.2083,
      "velocity": 127
    },
    {
      "pitch": 39,
      "start_time": 7.625,
      "duration": 0.125,
      "velocity": 39
    },
    {
      "pitch": 39,
      "start_time": 7.75,
      "duration": 0.125,
      "velocity": 44
    },
    {
      "pitch": 45,
      "start_time": 7.75,
      "duration": 0.0521,
      "velocity": 127
    },
    {
      "pitch": 39,
      "start_time": 7.875,
      "duration": 0.0729,
      "velocity": 87
    }
  ]
}