{
  "source": {
    "song": "packs",
    "track_index": 0,
    "track_name": "Beat Tools / MIDI Clips / 110 - 124 bpm / Bonzo Kit Groove 2_110 bpm",
    "slot_index": 0,
    "clip_name": "Beat Tools / MIDI Clips / 110 - 124 bpm / Bonzo Kit Groove 2_110 bpm",
    "mid_file": "/Users/darnold/Music/Ableton/Packs/Beat Tools/MIDI Clips/110 - 124 bpm/Bonzo Kit Groove 2_110 bpm.alc"
  },
  "meta": {
    "bpm": 110.0,
    "key": "?",
    "scale": "?",
    "length_beats": 8.0,
    "note_count": 80
  },
  "rhythm": {
    "density": 1.219,
    "hit_positions": [
      0.0,
      0.0,
      0.0,
      0.0,
      0.25,
      0.5,
      0.5,
      0.75,
      1.0,
      1.0,
      1.0,
      1.0,
      1.0,
      1.0,
      1.0,
      1.25,
      1.5,
      1.75,
      2.0,
      2.0,
      2.25,
      2.5,
      2.5,
      2.5,
      2.5,
      2.5,
      2.5,
      2.75,
      3.0,
      3.0,
      3.0,
      3.25,
      3.5,
      3.5,
      3.5,
      3.5,
      3.75,
      4.0,
      4.0,
      4.0,
      4.0,
      4.0,
      4.25,
      4.3333,
      4.5,
      4.6667,
      4.75,
      5.0,
      5.0,
      5.0,
      5.0,
      5.0,
      5.0,
      5.0,
      5.3333,
      5.6667,
      6.0,
      6.1667,
      6.3333,
      6.5,
      6.5,
      6.5,
      6.5,
      6.5,
      6.6667,
      6.8333,
      7.0,
      7.0,
      7.0,
      7.0,
      7.1667,
      7.25,
      7.25,
      7.25,
      7.3333,
      7.5,
      7.5,
      7.6667,
      7.75,
      7.8333
    ],
    "ioi": [
      0.0,
      0.0,
      0.0,
      0.25,
      0.25,
      0.0,
      0.25,
      0.25,
      0.0,
      0.0,
      0.0,
      0.0,
      0.0,
      0.0,
      0.25,
      0.25,
      0.25,
      0.25,
      0.0,
      0.25,
      0.25,
      0.0,
      0.0,
      0.0,
      0.0,
      0.0,
      0.25,
      0.25,
      0.0,
      0.0,
      0.25,
      0.25,
      0.0,
      0.0,
      0.0,
      0.25,
      0.25,
      0.0,
      0.0,
      0.0,
      0.0,
      0.25,
      0.0833,
      0.1667,
      0.1667,
      0.0833,
      0.25,
      0.0,
      0.0,
      0.0,
      0.0,
      0.0,
      0.0,
      0.3333,
      0.3334,
      0.3333,
      0.1667,
      0.1666,
      0.1667,
      0.0,
      0.0,
      0.0,
      0.0,
      0.1667,
      0.1666,
      0.1667,
      0.0,
      0.0,
      0.0,
      0.1667,
      0.0833,
      0.0,
      0.0,
      0.0833,
      0.1667,
      0.0,
      0.1667,
      0.0833,
      0.0833,
      0.1667
    ],
    "grid": "16th",
    "euclidean_approx": [
      32,
      32
    ],
    "swing_ratio": 1.1
  },
  "pitch": {
    "notes_used": [
      36,
      37,
      38,
      39,
      40,
      41,
      42,
      45,
      47,
      51,
      52,
      54,
      58,
      63
    ],
    "intervals": [
      5,
      1,
      5,
      0,
      0,
      5,
      5,
      10,
      1,
      1,
      1,
      5,
      2,
      16,
      16,
      0,
      0,
      0,
      7,
      7,
      11,
      5,
      1,
      5,
      4,
      7,
      11,
      9,
      1,
      8,
      0,
      11,
      5,
      1,
      5,
      0,
      11,
      5,
      1,
      5,
      5,
      10,
      5,
      5,
      5,
      5,
      5,
      1,
      1,
      1,
      5,
      2,
      16,
      16,
      0,
      0,
      0,
      0,
      11,
      5,
      1,
      5,
      4,
      4,
      0,
      10,
      1,
      1,
      8,
      0,
      11,
      5,
      1,
      5,
      9,
      9,
      0,
      9,
      9
    ],
    "register": "low",
    "is_melodic": true,
    "pitch_range": 27,
    "pitch_distribution": {
      "36": 6,
      "41": 6,
      "42": 9,
      "47": 34,
      "52": 2,
      "37": 3,
      "38": 6,
      "39": 4,
      "40": 2,
      "45": 2,
      "63": 2,
      "54": 1,
      "51": 2,
      "58": 1
    }
  },
  "velocity": {
    "mean": 52.2,
    "variance": 1151.0,
    "std": 33.9,
    "accents": [
      1,
      6,
      9,
      11,
      14,
      38,
      41,
      49,
      50,
      53,
      60,
      67,
      71,
      72,
      73
    ],
    "profile": [
      79,
      98,
      66,
      34,
      22,
      19,
      126,
      9,
      28,
      92,
      82,
      120,
      45,
      13,
      127,
      20,
      3,
      41,
      24,
      30,
      10,
      54,
      74,
      49,
      51,
      43,
      26,
      47,
      84,
      68,
      20,
      12,
      47,
      54,
      44,
      43,
      41,
      84,
      96,
      83,
      33,
      120,
      22,
      33,
      5,
      46,
      11,
      66,
      73,
      87,
      114,
      37,
      38,
      110,
      44,
      47,
      36,
      32,
      30,
      54,
      92,
      57,
      17,
      57,
      8,
      8,
      38,
      92,
      70,
      8,
      8,
      114,
      127,
      105,
      8,
      29,
      50,
      51,
      40,
      54
    ]
  },
  "notes": [
    {
      "pitch": 36,
      "start_time": 0.0,
      "duration": 0.1042,
      "velocity": 79
    },
    {
      "pitch": 41,
      "start_time": 0.0,
      "duration": 0.1042,
      "velocity": 98
    },
    {
      "pitch": 42,
      "start_time": 0.0,
      "duration": 0.1042,
      "velocity": 66
    },
    {
      "pitch": 47,
      "start_time": 0.0,
      "duration": 0.25,
      "velocity": 34
    },
    {
      "pitch": 47,
      "start_time": 0.25,
      "duration": 0.25,
      "velocity": 22
    },
    {
      "pitch": 47,
      "start_time": 0.5,
      "duration": 0.25,
      "velocity": 19
    },
    {
      "pitch": 52,
      "start_time": 0.5,
      "duration": 0.1042,
      "velocity": 126
    },
    {
      "pitch": 47,
      "start_time": 0.75,
      "duration": 0.25,
      "velocity": 9
    },
    {
      "pitch": 37,
      "start_time": 1.0,
      "duration": 0.0729,
      "velocity": 28
    },
    {
      "pitch": 38,
      "start_time": 1.0,
      "duration": 0.0833,
      "velocity": 92
    },
    {
      "pitch": 39,
      "start_time": 1.0,
      "duration": 0.0833,
      "velocity": 82
    },
    {
      "pitch": 40,
      "start_time": 1.0,
      "duration": 0.0521,
      "velocity": 120
    },
    {
      "pitch": 45,
      "start_time": 1.0,
      "duration": 0.0625,
      "velocity": 45
    },
    {
      "pitch": 47,
      "start_time": 1.0,
      "duration": 0.25,
      "velocity": 13
    },
    {
      "pitch": 63,
      "start_time": 1.0,
      "duration": 1.3125,
      "velocity": 127
    },
    {
      "pitch": 47,
      "start_time": 1.25,
      "duration": 0.25,
      "velocity": 20
    },
    {
      "pitch": 47,
      "start_time": 1.5,
      "duration": 0.25,
      "velocity": 3
    },
    {
      "pitch": 47,
      "start_time": 1.75,
      "duration": 0.25,
      "velocity": 41
    },
    {
      "pitch": 47,
      "start_time": 2.0,
      "duration": 0.25,
      "velocity": 24
    },
    {
      "pitch": 54,
      "start_time": 2.0,
      "duration": 0.0521,
      "velocity": 30
    },
    {
      "pitch": 47,
      "start_time": 2.25,
      "duration": 0.25,
      "velocity": 10
    },
    {
      "pitch": 36,
      "start_time": 2.5,
      "duration": 0.0729,
      "velocity": 54
    },
    {
      "pitch": 41,
      "start_time": 2.5,
      "duration": 0.0625,
      "velocity": 74
    },
    {
      "pitch": 42,
      "start_time": 2.5,
      "duration": 0.0521,
      "velocity": 49
    },
    {
      "pitch": 47,
      "start_time": 2.5,
      "duration": 0.25,
      "velocity": 51
    },
    {
      "pitch": 51,
      "start_time": 2.5,
      "duration": 0.4479,
      "velocity": 43
    },
    {
      "pitch": 58,
      "start_time": 2.5,
      "duration": 1.3021,
      "velocity": 26
    },
    {
      "pitch": 47,
      "start_time": 2.75,
      "duration": 0.25,
      "velocity": 47
    },
    {
      "pitch": 38,
      "start_time": 3.0,
      "duration": 0.0625,
      "velocity": 84
    },
    {
      "pitch": 39,
      "start_time": 3.0,
      "duration": 0.0625,
      "velocity": 68
    },
    {
      "pitch": 47,
      "start_time": 3.0,
      "duration": 0.25,
      "velocity": 20
    },
    {
      "pitch": 47,
      "start_time": 3.25,
      "duration": 0.25,
      "velocity": 12
    },
    {
      "pitch": 36,
      "start_time": 3.5,
      "duration": 0.0521,
      "velocity": 47
    },
    {
      "pitch": 41,
      "start_time": 3.5,
      "duration": 0.0417,
      "velocity": 54
    },
    {
      "pitch": 42,
      "start_time": 3.5,
      "duration": 0.0417,
      "velocity": 44
    },
    {
      "pitch": 47,
      "start_time": 3.5,
      "duration": 0.25,
      "velocity": 43
    },
    {
      "pitch": 47,
      "start_time": 3.75,
      "duration": 0.25,
      "velocity": 41
    },
    {
      "pitch": 36,
      "start_time": 4.0,
      "duration": 0.0833,
      "velocity": 84
    },
    {
      "pitch": 41,
      "start_time": 4.0,
      "duration": 0.0729,
      "velocity": 96
    },
    {
      "pitch": 42,
      "start_time": 4.0,
      "duration": 0.0729,
      "velocity": 83
    },
    {
      "pitch": 47,
      "start_time": 4.0,
      "duration": 0.3333,
      "velocity": 33
    },
    {
      "pitch": 52,
      "start_time": 4.0,
      "duration": 0.1146,
      "velocity": 120
    },
    {
      "pitch": 42,
      "start_time": 4.25,
      "duration": 0.25,
      "velocity": 22
    },
    {
      "pitch": 47,
      "start_time": 4.3333,
      "duration": 0.3333,
      "velocity": 33
    },
    {
      "pitch": 42,
      "start_time": 4.5,
      "duration": 0.25,
      "velocity": 5
    },
    {
      "pitch": 47,
      "start_time": 4.6667,
      "duration": 0.3333,
      "velocity": 46
    },
    {
      "pitch": 42,
      "start_time": 4.75,
      "duration": 0.2292,
      "velocity": 11
    },
    {
      "pitch": 37,
      "start_time": 5.0,
      "duration": 0.0833,
      "velocity": 66
    },
    {
      "pitch": 38,
      "start_time": 5.0,
      "duration": 0.0729,
      "velocity": 73
    },
    {
      "pitch": 39,
      "start_time": 5.0,
      "duration": 0.0938,
      "velocity": 87
    },
    {
      "pitch": 40,
      "start_time": 5.0,
      "duration": 0.0521,
      "velocity": 114
    },
    {
      "pitch": 45,
      "start_time": 5.0,
      "duration": 0.0521,
      "velocity": 37
    },
    {
      "pitch": 47,
      "start_time": 5.0,
      "duration": 0.3333,
      "velocity": 38
    },
    {
      "pitch": 63,
      "start_time": 5.0,
      "duration": 1.0521,
      "velocity": 110
    },
    {
      "pitch": 47,
      "start_time": 5.3333,
      "duration": 0.3333,
      "velocity": 44
    },
    {
      "pitch": 47,
      "start_time": 5.6667,
      "duration": 0.3333,
      "velocity": 47
    },
    {
      "pitch": 47,
      "start_time": 6.0,
      "duration": 0.1667,
      "velocity": 36
    },
    {
      "pitch": 47,
      "start_time": 6.1667,
      "duration": 0.1667,
      "velocity": 32
    },
    {
      "pitch": 47,
      "start_time": 6.3333,
      "duration": 0.1667,
      "velocity": 30
    },
    {
      "pitch": 36,
      "start_time": 6.5,
      "duration": 0.0729,
      "velocity": 54
    },
    {
      "pitch": 41,
      "start_time": 6.5,
      "duration": 0.0833,
      "velocity": 92
    },
    {
      "pitch": 42,
      "start_time": 6.5,
      "duration": 0.0729,
      "velocity": 57
    },
    {
      "pitch": 47,
      "start_time": 6.5,
      "duration": 0.1667,
      "velocity": 17
    },
    {
      "pitch": 51,
      "start_time": 6.5,
      "duration": 0.5625,
      "velocity": 57
    },
    {
      "pitch": 47,
      "start_time": 6.6667,
      "duration": 0.1667,
      "velocity": 8
    },
    {
      "pitch": 47,
      "start_time": 6.8333,
      "duration": 0.1667,
      "velocity": 8
    },
    {
      "pitch": 37,
      "start_time": 7.0,
      "duration": 0.0625,
      "velocity": 38
    },
    {
      "pitch": 38,
      "start_time": 7.0,
      "duration": 0.0729,
      "velocity": 92
    },
    {
      "pitch": 39,
      "start_time": 7.0,
      "duration": 0.0521,
      "velocity": 70
    },
    {
      "pitch": 47,
      "start_time": 7.0,
      "duration": 0.1667,
      "velocity": 8
    },
    {
      "pitch": 47,
      "start_time": 7.1667,
      "duration": 0.1667,
      "velocity": 8
    },
    {
      "pitch": 36,
      "start_time": 7.25,
      "duration": 0.0625,
      "velocity": 114
    },
    {
      "pitch": 41,
      "start_time": 7.25,
      "duration": 0.0729,
      "velocity": 127
    },
    {
      "pitch": 42,
      "start_time": 7.25,
      "duration": 0.0729,
      "velocity": 105
    },
    {
      "pitch": 47,
      "start_time": 7.3333,
      "duration": 0.0312,
      "velocity": 8
    },
    {
      "pitch": 38,
      "start_time": 7.5,
      "duration": 0.25,
      "velocity": 29
    },
    {
      "pitch": 47,
      "start_time": 7.5,
      "duration": 0.1667,
      "velocity": 50
    },
    {
      "pitch": 47,
      "start_time": 7.6667,
      "duration": 0.1667,
      "velocity": 51
    },
    {
      "pitch": 38,
      "start_time": 7.75,
      "duration": 0.0729,
      "velocity": 40
    },
    {
      "pitch": 47,
      "start_time": 7.8333,
      "duration": 0.0833,
      "velocity": 54
    }
  ]
}