{
  "source": {
    "song": "packs",
    "track_index": 0,
    "track_name": "Beat Tools / MIDI Clips / 84 - 92 bpm / Psycho Kit groove 03_86 bpm",
    "slot_index": 0,
    "clip_name": "Beat Tools / MIDI Clips / 84 - 92 bpm / Psycho Kit groove 03_86 bpm",
    "mid_file": "/Users/darnold/Music/Ableton/Packs/Beat Tools/MIDI Clips/84 - 92 bpm/Psycho Kit groove 03_86 bpm.alc"
  },
  "meta": {
    "bpm": 86.0,
    "key": "?",
    "scale": "?",
    "length_beats": 8.0,
    "note_count": 84
  },
  "rhythm": {
    "density": 1.438,
    "hit_positions": [
      0.0,
      0.0,
      0.0,
      0.0,
      0.25,
      0.5,
      0.5,
      0.75,
      0.75,
      0.75,
      1.0,
      1.0,
      1.25,
      1.5,
      1.5,
      1.5,
      1.75,
      2.0,
      2.0,
      2.125,
      2.25,
      2.375,
      2.5,
      2.5,
      2.75,
      2.75,
      2.75,
      3.0,
      3.0,
      3.0,
      3.0,
      3.125,
      3.25,
      3.375,
      3.5,
      3.5,
      3.5,
      3.75,
      3.75,
      4.0,
      4.0,
      4.0,
      4.0,
      4.125,
      4.25,
      4.375,
      4.5,
      4.5,
      4.5,
      4.75,
      4.75,
      4.75,
      5.0,
      5.0,
      5.25,
      5.5,
      5.5,
      5.5,
      5.5,
      5.625,
      5.75,
      5.875,
      6.0,
      6.0,
      6.25,
      6.25,
      6.375,
      6.5,
      6.5,
      6.5,
      6.625,
      6.75,
      6.875,
      7.0,
      7.0,
      7.0,
      7.0,
      7.125,
      7.25,
      7.375,
      7.5,
      7.5,
      7.6667,
      7.8333
    ],
    "ioi": [
      0.0,
      0.0,
      0.0,
      0.25,
      0.25,
      0.0,
      0.25,
      0.0,
      0.0,
      0.25,
      0.0,
      0.25,
      0.25,
      0.0,
      0.0,
      0.25,
      0.25,
      0.0,
      0.125,
      0.125,
      0.125,
      0.125,
      0.0,
      0.25,
      0.0,
      0.0,
      0.25,
      0.0,
      0.0,
      0.0,
      0.125,
      0.125,
      0.125,
      0.125,
      0.0,
      0.0,
      0.25,
      0.0,
      0.25,
      0.0,
      0.0,
      0.0,
      0.125,
      0.125,
      0.125,
      0.125,
      0.0,
      0.0,
      0.25,
      0.0,
      0.0,
      0.25,
      0.0,
      0.25,
      0.25,
      0.0,
      0.0,
      0.0,
      0.125,
      0.125,
      0.125,
      0.125,
      0.0,
      0.25,
      0.0,
      0.125,
      0.125,
      0.0,
      0.0,
      0.125,
      0.125,
      0.125,
      0.125,
      0.0,
      0.0,
      0.0,
      0.125,
      0.125,
      0.125,
      0.125,
      0.0,
      0.1667,
      0.1666,
      0.1667
    ],
    "grid": "16th",
    "euclidean_approx": [
      32,
      32
    ],
    "swing_ratio": 1.124
  },
  "pitch": {
    "notes_used": [
      36,
      37,
      38,
      39,
      42,
      43,
      48,
      54,
      58,
      59,
      89
    ],
    "intervals": [
      6,
      6,
      10,
      16,
      0,
      16,
      21,
      2,
      3,
      0,
      17,
      17,
      0,
      1,
      46,
      47,
      6,
      6,
      0,
      0,
      0,
      0,
      16,
      22,
      1,
      5,
      5,
      1,
      4,
      17,
      17,
      0,
      0,
      6,
      6,
      16,
      16,
      6,
      12,
      6,
      6,
      10,
      16,
      0,
      0,
      0,
      12,
      4,
      21,
      2,
      3,
      0,
      17,
      17,
      6,
      6,
      1,
      15,
      16,
      0,
      0,
      5,
      5,
      5,
      5,
      5,
      0,
      5,
      16,
      16,
      0,
      0,
      5,
      1,
      4,
      17,
      17,
      0,
      0,
      0,
      16,
      16,
      0
    ],
    "register": "low",
    "is_melodic": true,
    "pitch_range": 53,
    "pitch_distribution": {
      "36": 6,
      "42": 45,
      "48": 3,
      "58": 9,
      "37": 9,
      "39": 2,
      "59": 4,
      "43": 2,
      "89": 1,
      "38": 2,
      "54": 1
    }
  },
  "velocity": {
    "mean": 36.5,
    "variance": 302.3,
    "std": 17.4,
    "accents": [
      2,
      7,
      11,
      25,
      27,
      39,
      41,
      53,
      55,
      74,
      76,
      80
    ],
    "profile": [
      50,
      20,
      76,
      40,
      31,
      27,
      36,
      60,
      45,
      27,
      25,
      60,
      29,
      30,
      1,
      2,
      27,
      35,
      28,
      28,
      28,
      30,
      27,
      25,
      39,
      98,
      26,
      62,
      51,
      27,
      38,
      31,
      30,
      33,
      25,
      29,
      31,
      28,
      39,
      65,
      29,
      104,
      38,
      35,
      32,
      35,
      30,
      33,
      30,
      44,
      49,
      31,
      31,
      54,
      34,
      64,
      34,
      1,
      31,
      35,
      31,
      31,
      8,
      34,
      14,
      34,
      25,
      18,
      32,
      33,
      35,
      31,
      32,
      38,
      54,
      33,
      56,
      35,
      32,
      31,
      84,
      36,
      48,
      51
    ]
  },
  "notes": [
    {
      "pitch": 36,
      "start_time": 0.0,
      "duration": 0.0938,
      "velocity": 50
    },
    {
      "pitch": 42,
      "start_time": 0.0,
      "duration": 0.25,
      "velocity": 20
    },
    {
      "pitch": 48,
      "start_time": 0.0,
      "duration": 0.1146,
      "velocity": 76
    },
    {
      "pitch": 58,
      "start_time": 0.0,
      "duration": 0.0729,
      "velocity": 40
    },
    {
      "pitch": 42,
      "start_time": 0.25,
      "duration": 0.25,
      "velocity": 31
    },
    {
      "pitch": 42,
      "start_time": 0.5,
      "duration": 0.25,
      "velocity": 27
    },
    {
      "pitch": 58,
      "start_time": 0.5,
      "duration": 0.0625,
      "velocity": 36
    },
    {
      "pitch": 37,
      "start_time": 0.75,
      "duration": 0.0938,
      "velocity": 60
    },
    {
      "pitch": 39,
      "start_time": 0.75,
      "duration": 0.0625,
      "velocity": 45
    },
    {
      "pitch": 42,
      "start_time": 0.75,
      "duration": 0.25,
      "velocity": 27
    },
    {
      "pitch": 42,
      "start_time": 1.0,
      "duration": 0.25,
      "velocity": 25
    },
    {
      "pitch": 59,
      "start_time": 1.0,
      "duration": 0.0521,
      "velocity": 60
    },
    {
      "pitch": 42,
      "start_time": 1.25,
      "duration": 0.25,
      "velocity": 29
    },
    {
      "pitch": 42,
      "start_time": 1.5,
      "duration": 0.25,
      "velocity": 30
    },
    {
      "pitch": 43,
      "start_time": 1.5,
      "duration": 0.0417,
      "velocity": 1
    },
    {
      "pitch": 89,
      "start_time": 1.5,
      "duration": 0.0833,
      "velocity": 2
    },
    {
      "pitch": 42,
      "start_time": 1.75,
      "duration": 0.25,
      "velocity": 27
    },
    {
      "pitch": 36,
      "start_time": 2.0,
      "duration": 0.1042,
      "velocity": 35
    },
    {
      "pitch": 42,
      "start_time": 2.0,
      "duration": 0.125,
      "velocity": 28
    },
    {
      "pitch": 42,
      "start_time": 2.125,
      "duration": 0.125,
      "velocity": 28
    },
    {
      "pitch": 42,
      "start_time": 2.25,
      "duration": 0.125,
      "velocity": 28
    },
    {
      "pitch": 42,
      "start_time": 2.375,
      "duration": 0.125,
      "velocity": 30
    },
    {
      "pitch": 42,
      "start_time": 2.5,
      "duration": 0.25,
      "velocity": 27
    },
    {
      "pitch": 58,
      "start_time": 2.5,
      "duration": 0.0729,
      "velocity": 25
    },
    {
      "pitch": 36,
      "start_time": 2.75,
      "duration": 0.0729,
      "velocity": 39
    },
    {
      "pitch": 37,
      "start_time": 2.75,
      "duration": 0.1562,
      "velocity": 98
    },
    {
      "pitch": 42,
      "start_time": 2.75,
      "duration": 0.25,
      "velocity": 26
    },
    {
      "pitch": 37,
      "start_time": 3.0,
      "duration": 0.1042,
      "velocity": 62
    },
    {
      "pitch": 38,
      "start_time": 3.0,
      "duration": 0.0521,
      "velocity": 51
    },
    {
      "pitch": 42,
      "start_time": 3.0,
      "duration": 0.125,
      "velocity": 27
    },
    {
      "pitch": 59,
      "start_time": 3.0,
      "duration": 0.0312,
      "velocity": 38
    },
    {
      "pitch": 42,
      "start_time": 3.125,
      "duration": 0.125,
      "velocity": 31
    },
    {
      "pitch": 42,
      "start_time": 3.25,
      "duration": 0.125,
      "velocity": 30
    },
    {
      "pitch": 42,
      "start_time": 3.375,
      "duration": 0.125,
      "velocity": 33
    },
    {
      "pitch": 36,
      "start_time": 3.5,
      "duration": 0.0833,
      "velocity": 25
    },
    {
      "pitch": 42,
      "start_time": 3.5,
      "duration": 0.25,
      "velocity": 29
    },
    {
      "pitch": 58,
      "start_time": 3.5,
      "duration": 0.0729,
      "velocity": 31
    },
    {
      "pitch": 42,
      "start_time": 3.75,
      "duration": 0.25,
      "velocity": 28
    },
    {
      "pitch": 48,
      "start_time": 3.75,
      "duration": 0.0625,
      "velocity": 39
    },
    {
      "pitch": 36,
      "start_time": 4.0,
      "duration": 0.0938,
      "velocity": 65
    },
    {
      "pitch": 42,
      "start_time": 4.0,
      "duration": 0.125,
      "velocity": 29
    },
    {
      "pitch": 48,
      "start_time": 4.0,
      "duration": 0.0938,
      "velocity": 104
    },
    {
      "pitch": 58,
      "start_time": 4.0,
      "duration": 0.0625,
      "velocity": 38
    },
    {
      "pitch": 42,
      "start_time": 4.125,
      "duration": 0.125,
      "velocity": 35
    },
    {
      "pitch": 42,
      "start_time": 4.25,
      "duration": 0.125,
      "velocity": 32
    },
    {
      "pitch": 42,
      "start_time": 4.375,
      "duration": 0.125,
      "velocity": 35
    },
    {
      "pitch": 42,
      "start_time": 4.5,
      "duration": 0.25,
      "velocity": 30
    },
    {
      "pitch": 54,
      "start_time": 4.5,
      "duration": 0.0312,
      "velocity": 33
    },
    {
      "pitch": 58,
      "start_time": 4.5,
      "duration": 0.0417,
      "velocity": 30
    },
    {
      "pitch": 37,
      "start_time": 4.75,
      "duration": 0.0833,
      "velocity": 44
    },
    {
      "pitch": 39,
      "start_time": 4.75,
      "duration": 0.0729,
      "velocity": 49
    },
    {
      "pitch": 42,
      "start_time": 4.75,
      "duration": 0.25,
      "velocity": 31
    },
    {
      "pitch": 42,
      "start_time": 5.0,
      "duration": 0.25,
      "velocity": 31
    },
    {
      "pitch": 59,
      "start_time": 5.0,
      "duration": 0.0312,
      "velocity": 54
    },
    {
      "pitch": 42,
      "start_time": 5.25,
      "duration": 0.25,
      "velocity": 34
    },
    {
      "pitch": 36,
      "start_time": 5.5,
      "duration": 0.0833,
      "velocity": 64
    },
    {
      "pitch": 42,
      "start_time": 5.5,
      "duration": 0.125,
      "velocity": 34
    },
    {
      "pitch": 43,
      "start_time": 5.5,
      "duration": 0.0521,
      "velocity": 1
    },
    {
      "pitch": 58,
      "start_time": 5.5,
      "duration": 0.0729,
      "velocity": 31
    },
    {
      "pitch": 42,
      "start_time": 5.625,
      "duration": 0.125,
      "velocity": 35
    },
    {
      "pitch": 42,
      "start_time": 5.75,
      "duration": 0.125,
      "velocity": 31
    },
    {
      "pitch": 42,
      "start_time": 5.875,
      "duration": 0.125,
      "velocity": 31
    },
    {
      "pitch": 37,
      "start_time": 6.0,
      "duration": 0.25,
      "velocity": 8
    },
    {
      "pitch": 42,
      "start_time": 6.0,
      "duration": 0.25,
      "velocity": 34
    },
    {
      "pitch": 37,
      "start_time": 6.25,
      "duration": 0.125,
      "velocity": 14
    },
    {
      "pitch": 42,
      "start_time": 6.25,
      "duration": 0.25,
      "velocity": 34
    },
    {
      "pitch": 37,
      "start_time": 6.375,
      "duration": 0.125,
      "velocity": 25
    },
    {
      "pitch": 37,
      "start_time": 6.5,
      "duration": 0.125,
      "velocity": 18
    },
    {
      "pitch": 42,
      "start_time": 6.5,
      "duration": 0.125,
      "velocity": 32
    },
    {
      "pitch": 58,
      "start_time": 6.5,
      "duration": 0.0729,
      "velocity": 33
    },
    {
      "pitch": 42,
      "start_time": 6.625,
      "duration": 0.125,
      "velocity": 35
    },
    {
      "pitch": 42,
      "start_time": 6.75,
      "duration": 0.125,
      "velocity": 31
    },
    {
      "pitch": 42,
      "start_time": 6.875,
      "duration": 0.125,
      "velocity": 32
    },
    {
      "pitch": 37,
      "start_time": 7.0,
      "duration": 0.0938,
      "velocity": 38
    },
    {
      "pitch": 38,
      "start_time": 7.0,
      "duration": 0.0833,
      "velocity": 54
    },
    {
      "pitch": 42,
      "start_time": 7.0,
      "duration": 0.125,
      "velocity": 33
    },
    {
      "pitch": 59,
      "start_time": 7.0,
      "duration": 0.0625,
      "velocity": 56
    },
    {
      "pitch": 42,
      "start_time": 7.125,
      "duration": 0.125,
      "velocity": 35
    },
    {
      "pitch": 42,
      "start_time": 7.25,
      "duration": 0.125,
      "velocity": 32
    },
    {
      "pitch": 42,
      "start_time": 7.375,
      "duration": 0.125,
      "velocity": 31
    },
    {
      "pitch": 42,
      "start_time": 7.5,
      "duration": 0.1667,
      "velocity": 84
    },
    {
      "pitch": 58,
      "start_time": 7.5,
      "duration": 0.0729,
      "velocity": 36
    },
    {
      "pitch": 42,
      "start_time": 7.6667,
      "duration": 0.1667,
      "velocity": 48
    },
    {
      "pitch": 42,
      "start_time": 7.8333,
      "duration": 0.125,
      "velocity": 51
    }
  ]
}