{
  "source": {
    "song": "packs",
    "track_index": 0,
    "track_name": "Beat Tools / MIDI Clips / 132 - 152 bpm / Rock Wit Me groove 06_140 bpm",
    "slot_index": 0,
    "clip_name": "Beat Tools / MIDI Clips / 132 - 152 bpm / Rock Wit Me groove 06_140 bpm",
    "mid_file": "/Users/darnold/Music/Ableton/Packs/Beat Tools/MIDI Clips/132 - 152 bpm/Rock Wit Me groove 06_140 bpm.alc"
  },
  "meta": {
    "bpm": 140.0,
    "key": "?",
    "scale": "?",
    "length_beats": 8.0,
    "note_count": 32
  },
  "rhythm": {
    "density": 0.531,
    "hit_positions": [
      0.0,
      0.0,
      0.0,
      0.0,
      1.0,
      1.0,
      1.0,
      1.9792,
      2.0,
      2.0,
      2.0,
      3.5,
      3.5,
      4.0,
      4.0,
      4.0,
      4.6042,
      5.2396,
      5.375,
      5.5,
      5.5,
      5.625,
      5.75,
      5.875,
      5.9688,
      6.0,
      6.0,
      6.6562,
      6.9688,
      7.3333,
      7.5,
      7.5
    ],
    "ioi": [
      0.0,
      0.0,
      0.0,
      1.0,
      0.0,
      0.0,
      0.9792,
      0.0208,
      0.0,
      0.0,
      1.5,
      0.0,
      0.5,
      0.0,
      0.0,
      0.6042,
      0.6354,
      0.1354,
      0.125,
      0.0,
      0.125,
      0.125,
      0.125,
      0.0938,
      0.0312,
      0.0,
      0.6562,
      0.3126,
      0.3645,
      0.1667,
      0.0,
      0.5
    ],
    "grid": "16th",
    "euclidean_approx": [
      32,
      32
    ],
    "swing_ratio": 1.571
  },
  "pitch": {
    "notes_used": [
      36,
      37,
      39,
      40,
      41,
      42,
      43,
      44,
      47,
      52,
      56,
      57,
      58,
      59
    ],
    "intervals": [
      4,
      2,
      10,
      12,
      2,
      2,
      7,
      4,
      2,
      4,
      11,
      6,
      6,
      4,
      2,
      16,
      1,
      18,
      0,
      3,
      3,
      0,
      0,
      20,
      18,
      6,
      9,
      17,
      18,
      21,
      6
    ],
    "register": "low",
    "is_melodic": true,
    "pitch_range": 23,
    "pitch_distribution": {
      "36": 4,
      "40": 3,
      "42": 6,
      "52": 1,
      "44": 1,
      "37": 1,
      "41": 2,
      "43": 1,
      "47": 2,
      "58": 1,
      "57": 2,
      "39": 6,
      "59": 1,
      "56": 1
    }
  },
  "velocity": {
    "mean": 74.2,
    "variance": 791.3,
    "std": 28.1,
    "accents": [
      3,
      8,
      10,
      24,
      26
    ],
    "profile": [
      82,
      89,
      58,
      109,
      98,
      58,
      83,
      53,
      114,
      87,
      127,
      57,
      41,
      81,
      96,
      65,
      85,
      74,
      10,
      29,
      63,
      40,
      54,
      62,
      121,
      87,
      127,
      75,
      84,
      83,
      48,
      35
    ]
  },
  "notes": [
    {
      "pitch": 36,
      "start_time": 0.0,
      "duration": 0.1354,
      "velocity": 82
    },
    {
      "pitch": 40,
      "start_time": 0.0,
      "duration": 0.0521,
      "velocity": 89
    },
    {
      "pitch": 42,
      "start_time": 0.0,
      "duration": 0.1354,
      "velocity": 58
    },
    {
      "pitch": 52,
      "start_time": 0.0,
      "duration": 0.1562,
      "velocity": 109
    },
    {
      "pitch": 40,
      "start_time": 1.0,
      "duration": 0.0521,
      "velocity": 98
    },
    {
      "pitch": 42,
      "start_time": 1.0,
      "duration": 0.1562,
      "velocity": 58
    },
    {
      "pitch": 44,
      "start_time": 1.0,
      "duration": 0.0625,
      "velocity": 83
    },
    {
      "pitch": 37,
      "start_time": 1.9792,
      "duration": 0.0625,
      "velocity": 53
    },
    {
      "pitch": 41,
      "start_time": 2.0,
      "duration": 0.0938,
      "velocity": 114
    },
    {
      "pitch": 43,
      "start_time": 2.0,
      "duration": 0.1562,
      "velocity": 87
    },
    {
      "pitch": 47,
      "start_time": 2.0,
      "duration": 0.0521,
      "velocity": 127
    },
    {
      "pitch": 36,
      "start_time": 3.5,
      "duration": 0.1042,
      "velocity": 57
    },
    {
      "pitch": 42,
      "start_time": 3.5,
      "duration": 0.0938,
      "velocity": 41
    },
    {
      "pitch": 36,
      "start_time": 4.0,
      "duration": 0.125,
      "velocity": 81
    },
    {
      "pitch": 40,
      "start_time": 4.0,
      "duration": 0.0625,
      "velocity": 96
    },
    {
      "pitch": 42,
      "start_time": 4.0,
      "duration": 0.1458,
      "velocity": 65
    },
    {
      "pitch": 58,
      "start_time": 4.6042,
      "duration": 0.1458,
      "velocity": 85
    },
    {
      "pitch": 57,
      "start_time": 5.2396,
      "duration": 0.1667,
      "velocity": 74
    },
    {
      "pitch": 39,
      "start_time": 5.375,
      "duration": 0.125,
      "velocity": 10
    },
    {
      "pitch": 39,
      "start_time": 5.5,
      "duration": 0.125,
      "velocity": 29
    },
    {
      "pitch": 42,
      "start_time": 5.5,
      "duration": 0.1771,
      "velocity": 63
    },
    {
      "pitch": 39,
      "start_time": 5.625,
      "duration": 0.125,
      "velocity": 40
    },
    {
      "pitch": 39,
      "start_time": 5.75,
      "duration": 0.125,
      "velocity": 54
    },
    {
      "pitch": 39,
      "start_time": 5.875,
      "duration": 0.125,
      "velocity": 62
    },
    {
      "pitch": 59,
      "start_time": 5.9688,
      "duration": 0.1458,
      "velocity": 121
    },
    {
      "pitch": 41,
      "start_time": 6.0,
      "duration": 0.1042,
      "velocity": 87
    },
    {
      "pitch": 47,
      "start_time": 6.0,
      "duration": 0.0938,
      "velocity": 127
    },
    {
      "pitch": 56,
      "start_time": 6.6562,
      "duration": 0.1458,
      "velocity": 75
    },
    {
      "pitch": 39,
      "start_time": 6.9688,
      "duration": 0.0625,
      "velocity": 84
    },
    {
      "pitch": 57,
      "start_time": 7.3333,
      "duration": 0.1146,
      "velocity": 83
    },
    {
      "pitch": 36,
      "start_time": 7.5,
      "duration": 0.1458,
      "velocity": 48
    },
    {
      "pitch": 42,
      "start_time": 7.5,
      "duration": 0.1458,
      "velocity": 35
    }
  ]
}