{
  "source": {
    "song": "packs",
    "track_index": 0,
    "track_name": "Beat Tools / MIDI Clips / 94 - 105 bpm / Monuments Kit Groove_105 bpm",
    "slot_index": 0,
    "clip_name": "Beat Tools / MIDI Clips / 94 - 105 bpm / Monuments Kit Groove_105 bpm",
    "mid_file": "/Users/darnold/Music/Ableton/Packs/Beat Tools/MIDI Clips/94 - 105 bpm/Monuments Kit Groove_105 bpm.alc"
  },
  "meta": {
    "bpm": 105.0,
    "key": "?",
    "scale": "?",
    "length_beats": 8.0,
    "note_count": 68
  },
  "rhythm": {
    "density": 2.0,
    "hit_positions": [
      0.0,
      0.0,
      0.0,
      0.2604,
      0.5,
      0.5,
      0.7604,
      1.0,
      1.0,
      1.0,
      1.0,
      1.2604,
      1.5,
      1.5,
      1.7604,
      2.0,
      2.0,
      2.0,
      2.0,
      2.2604,
      2.5,
      2.5,
      2.5,
      2.7604,
      3.0,
      3.0,
      3.0,
      3.0,
      3.0,
      3.2604,
      3.5,
      3.5,
      3.7604,
      4.0,
      4.0,
      4.0,
      4.0,
      4.2604,
      4.5,
      4.5,
      4.7604,
      5.0,
      5.0,
      5.0,
      5.0,
      5.25,
      5.5,
      5.5,
      5.75,
      6.0,
      6.0,
      6.0,
      6.0,
      6.2604,
      6.5,
      6.5,
      6.7708,
      7.0,
      7.0,
      7.0,
      7.0,
      7.0,
      7.0,
      7.2604,
      7.5,
      7.5,
      7.75,
      7.75
    ],
    "ioi": [
      0.0,
      0.0,
      0.2604,
      0.2396,
      0.0,
      0.2604,
      0.2396,
      0.0,
      0.0,
      0.0,
      0.2604,
      0.2396,
      0.0,
      0.2604,
      0.2396,
      0.0,
      0.0,
      0.0,
      0.2604,
      0.2396,
      0.0,
      0.0,
      0.2604,
      0.2396,
      0.0,
      0.0,
      0.0,
      0.0,
      0.2604,
      0.2396,
      0.0,
      0.2604,
      0.2396,
      0.0,
      0.0,
      0.0,
      0.2604,
      0.2396,
      0.0,
      0.2604,
      0.2396,
      0.0,
      0.0,
      0.0,
      0.25,
      0.25,
      0.0,
      0.25,
      0.25,
      0.0,
      0.0,
      0.0,
      0.2604,
      0.2396,
      0.0,
      0.2708,
      0.2292,
      0.0,
      0.0,
      0.0,
      0.0,
      0.0,
      0.2604,
      0.2396,
      0.0,
      0.25,
      0.0,
      0.25
    ],
    "grid": "8th",
    "euclidean_approx": [
      32,
      32
    ],
    "swing_ratio": 1.034
  },
  "pitch": {
    "notes_used": [
      36,
      37,
      38,
      39,
      41,
      42,
      47,
      48,
      49,
      50,
      51
    ],
    "intervals": [
      6,
      6,
      7,
      0,
      1,
      1,
      4,
      4,
      1,
      7,
      8,
      0,
      1,
      1,
      5,
      5,
      1,
      8,
      9,
      0,
      1,
      5,
      6,
      4,
      1,
      3,
      1,
      9,
      10,
      0,
      1,
      1,
      5,
      5,
      1,
      6,
      7,
      0,
      1,
      1,
      4,
      4,
      1,
      7,
      8,
      0,
      1,
      1,
      5,
      5,
      1,
      8,
      9,
      0,
      1,
      1,
      4,
      1,
      1,
      2,
      1,
      9,
      10,
      4,
      4,
      4,
      4
    ],
    "register": "low",
    "is_melodic": true,
    "pitch_range": 15,
    "pitch_distribution": {
      "36": 4,
      "42": 15,
      "48": 2,
      "41": 31,
      "37": 6,
      "49": 2,
      "50": 2,
      "47": 1,
      "38": 2,
      "51": 2,
      "39": 1
    }
  },
  "velocity": {
    "mean": 37.9,
    "variance": 217.5,
    "std": 14.7,
    "accents": [
      2,
      25,
      36,
      44,
      58,
      59,
      62
    ],
    "profile": [
      38,
      44,
      89,
      11,
      25,
      34,
      22,
      39,
      13,
      49,
      47,
      13,
      30,
      33,
      25,
      41,
      12,
      32,
      50,
      5,
      35,
      38,
      19,
      31,
      46,
      65,
      34,
      51,
      50,
      33,
      35,
      40,
      31,
      48,
      33,
      36,
      67,
      35,
      37,
      33,
      30,
      36,
      30,
      43,
      59,
      31,
      32,
      38,
      31,
      37,
      32,
      34,
      42,
      33,
      33,
      34,
      33,
      45,
      75,
      59,
      34,
      47,
      79,
      36,
      28,
      37,
      36,
      45
    ]
  },
  "notes": [
    {
      "pitch": 36,
      "start_time": 0.0,
      "duration": 0.1042,
      "velocity": 38
    },
    {
      "pitch": 42,
      "start_time": 0.0,
      "duration": 0.1146,
      "velocity": 44
    },
    {
      "pitch": 48,
      "start_time": 0.0,
      "duration": 0.875,
      "velocity": 89
    },
    {
      "pitch": 41,
      "start_time": 0.2604,
      "duration": 0.2396,
      "velocity": 11
    },
    {
      "pitch": 41,
      "start_time": 0.5,
      "duration": 0.2604,
      "velocity": 25
    },
    {
      "pitch": 42,
      "start_time": 0.5,
      "duration": 0.1042,
      "velocity": 34
    },
    {
      "pitch": 41,
      "start_time": 0.7604,
      "duration": 0.2396,
      "velocity": 22
    },
    {
      "pitch": 37,
      "start_time": 1.0,
      "duration": 0.0833,
      "velocity": 39
    },
    {
      "pitch": 41,
      "start_time": 1.0,
      "duration": 0.2604,
      "velocity": 13
    },
    {
      "pitch": 42,
      "start_time": 1.0,
      "duration": 0.1042,
      "velocity": 49
    },
    {
      "pitch": 49,
      "start_time": 1.0,
      "duration": 0.7812,
      "velocity": 47
    },
    {
      "pitch": 41,
      "start_time": 1.2604,
      "duration": 0.1042,
      "velocity": 13
    },
    {
      "pitch": 41,
      "start_time": 1.5,
      "duration": 0.2604,
      "velocity": 30
    },
    {
      "pitch": 42,
      "start_time": 1.5,
      "duration": 0.0833,
      "velocity": 33
    },
    {
      "pitch": 41,
      "start_time": 1.7604,
      "duration": 0.2396,
      "velocity": 25
    },
    {
      "pitch": 36,
      "start_time": 2.0,
      "duration": 0.0938,
      "velocity": 41
    },
    {
      "pitch": 41,
      "start_time": 2.0,
      "duration": 0.2604,
      "velocity": 12
    },
    {
      "pitch": 42,
      "start_time": 2.0,
      "duration": 0.0833,
      "velocity": 32
    },
    {
      "pitch": 50,
      "start_time": 2.0,
      "duration": 0.7396,
      "velocity": 50
    },
    {
      "pitch": 41,
      "start_time": 2.2604,
      "duration": 0.2396,
      "velocity": 5
    },
    {
      "pitch": 41,
      "start_time": 2.5,
      "duration": 0.2604,
      "velocity": 35
    },
    {
      "pitch": 42,
      "start_time": 2.5,
      "duration": 0.1042,
      "velocity": 38
    },
    {
      "pitch": 47,
      "start_time": 2.5,
      "duration": 0.5104,
      "velocity": 19
    },
    {
      "pitch": 41,
      "start_time": 2.7604,
      "duration": 0.2396,
      "velocity": 31
    },
    {
      "pitch": 37,
      "start_time": 3.0,
      "duration": 0.0833,
      "velocity": 46
    },
    {
      "pitch": 38,
      "start_time": 3.0,
      "duration": 0.1146,
      "velocity": 65
    },
    {
      "pitch": 41,
      "start_time": 3.0,
      "duration": 0.2604,
      "velocity": 34
    },
    {
      "pitch": 42,
      "start_time": 3.0,
      "duration": 0.0938,
      "velocity": 51
    },
    {
      "pitch": 51,
      "start_time": 3.0,
      "duration": 0.6875,
      "velocity": 50
    },
    {
      "pitch": 41,
      "start_time": 3.2604,
      "duration": 0.2396,
      "velocity": 33
    },
    {
      "pitch": 41,
      "start_time": 3.5,
      "duration": 0.2604,
      "velocity": 35
    },
    {
      "pitch": 42,
      "start_time": 3.5,
      "duration": 0.125,
      "velocity": 40
    },
    {
      "pitch": 41,
      "start_time": 3.7604,
      "duration": 0.2396,
      "velocity": 31
    },
    {
      "pitch": 36,
      "start_time": 4.0,
      "duration": 0.0938,
      "velocity": 48
    },
    {
      "pitch": 41,
      "start_time": 4.0,
      "duration": 0.2604,
      "velocity": 33
    },
    {
      "pitch": 42,
      "start_time": 4.0,
      "duration": 0.0938,
      "velocity": 36
    },
    {
      "pitch": 48,
      "start_time": 4.0,
      "duration": 0.8125,
      "velocity": 67
    },
    {
      "pitch": 41,
      "start_time": 4.2604,
      "duration": 0.2396,
      "velocity": 35
    },
    {
      "pitch": 41,
      "start_time": 4.5,
      "duration": 0.2604,
      "velocity": 37
    },
    {
      "pitch": 42,
      "start_time": 4.5,
      "duration": 0.0938,
      "velocity": 33
    },
    {
      "pitch": 41,
      "start_time": 4.7604,
      "duration": 0.2396,
      "velocity": 30
    },
    {
      "pitch": 37,
      "start_time": 5.0,
      "duration": 0.0938,
      "velocity": 36
    },
    {
      "pitch": 41,
      "start_time": 5.0,
      "duration": 0.25,
      "velocity": 30
    },
    {
      "pitch": 42,
      "start_time": 5.0,
      "duration": 0.0833,
      "velocity": 43
    },
    {
      "pitch": 49,
      "start_time": 5.0,
      "duration": 0.7188,
      "velocity": 59
    },
    {
      "pitch": 41,
      "start_time": 5.25,
      "duration": 0.25,
      "velocity": 31
    },
    {
      "pitch": 41,
      "start_time": 5.5,
      "duration": 0.25,
      "velocity": 32
    },
    {
      "pitch": 42,
      "start_time": 5.5,
      "duration": 0.125,
      "velocity": 38
    },
    {
      "pitch": 41,
      "start_time": 5.75,
      "duration": 0.25,
      "velocity": 31
    },
    {
      "pitch": 36,
      "start_time": 6.0,
      "duration": 0.0833,
      "velocity": 37
    },
    {
      "pitch": 41,
      "start_time": 6.0,
      "duration": 0.2604,
      "velocity": 32
    },
    {
      "pitch": 42,
      "start_time": 6.0,
      "duration": 0.1042,
      "velocity": 34
    },
    {
      "pitch": 50,
      "start_time": 6.0,
      "duration": 0.6458,
      "velocity": 42
    },
    {
      "pitch": 41,
      "start_time": 6.2604,
      "duration": 0.2396,
      "velocity": 33
    },
    {
      "pitch": 41,
      "start_time": 6.5,
      "duration": 0.2708,
      "velocity": 33
    },
    {
      "pitch": 42,
      "start_time": 6.5,
      "duration": 0.1146,
      "velocity": 34
    },
    {
      "pitch": 41,
      "start_time": 6.7708,
      "duration": 0.2292,
      "velocity": 33
    },
    {
      "pitch": 37,
      "start_time": 7.0,
      "duration": 0.0938,
      "velocity": 45
    },
    {
      "pitch": 38,
      "start_time": 7.0,
      "duration": 0.0729,
      "velocity": 75
    },
    {
      "pitch": 39,
      "start_time": 7.0,
      "duration": 0.0625,
      "velocity": 59
    },
    {
      "pitch": 41,
      "start_time": 7.0,
      "duration": 0.2604,
      "velocity": 34
    },
    {
      "pitch": 42,
      "start_time": 7.0,
      "duration": 0.1042,
      "velocity": 47
    },
    {
      "pitch": 51,
      "start_time": 7.0,
      "duration": 0.1875,
      "velocity": 79
    },
    {
      "pitch": 41,
      "start_time": 7.2604,
      "duration": 0.2396,
      "velocity": 36
    },
    {
      "pitch": 37,
      "start_time": 7.5,
      "duration": 0.0417,
      "velocity": 28
    },
    {
      "pitch": 41,
      "start_time": 7.5,
      "duration": 0.25,
      "velocity": 37
    },
    {
      "pitch": 37,
      "start_time": 7.75,
      "duration": 0.0938,
      "velocity": 36
    },
    {
      "pitch": 41,
      "start_time": 7.75,
      "duration": 0.1458,
      "velocity": 45
    }
  ]
}