{
  "source": {
    "song": "packs",
    "track_index": 0,
    "track_name": "Beat Tools / MIDI Clips / 110 - 124 bpm / Deep Knight groove 07_114bpm",
    "slot_index": 0,
    "clip_name": "Beat Tools / MIDI Clips / 110 - 124 bpm / Deep Knight groove 07_114bpm",
    "mid_file": "/Users/darnold/Music/Ableton/Packs/Beat Tools/MIDI Clips/110 - 124 bpm/Deep Knight groove 07_114bpm.alc"
  },
  "meta": {
    "bpm": 114.0,
    "key": "?",
    "scale": "?",
    "length_beats": 8.0,
    "note_count": 46
  },
  "rhythm": {
    "density": 0.781,
    "hit_positions": [
      0.0,
      0.0,
      0.0,
      0.0,
      0.5,
      1.0,
      1.0,
      1.0,
      1.0,
      1.5,
      2.0,
      2.0,
      2.0,
      2.125,
      2.25,
      2.375,
      2.5,
      2.5,
      2.5,
      2.625,
      2.75,
      3.0,
      3.25,
      3.25,
      3.75,
      3.75,
      4.0,
      4.0,
      4.0,
      4.5,
      5.0,
      5.0,
      5.0,
      5.0,
      5.0,
      5.5,
      6.0,
      6.0,
      6.5,
      6.5,
      6.5,
      7.0,
      7.25,
      7.3333,
      7.6667,
      7.75
    ],
    "ioi": [
      0.0,
      0.0,
      0.0,
      0.5,
      0.5,
      0.0,
      0.0,
      0.0,
      0.5,
      0.5,
      0.0,
      0.0,
      0.125,
      0.125,
      0.125,
      0.125,
      0.0,
      0.0,
      0.125,
      0.125,
      0.25,
      0.25,
      0.0,
      0.5,
      0.0,
      0.25,
      0.0,
      0.0,
      0.5,
      0.5,
      0.0,
      0.0,
      0.0,
      0.0,
      0.5,
      0.5,
      0.0,
      0.5,
      0.0,
      0.0,
      0.5,
      0.25,
      0.0833,
      0.3334,
      0.0833,
      0.25
    ],
    "grid": "16th",
    "euclidean_approx": [
      32,
      32
    ],
    "swing_ratio": 1.083
  },
  "pitch": {
    "notes_used": [
      36,
      37,
      38,
      40,
      41,
      42,
      43,
      46,
      47
    ],
    "intervals": [
      5,
      1,
      4,
      4,
      6,
      4,
      2,
      4,
      4,
      5,
      1,
      4,
      0,
      0,
      0,
      6,
      6,
      4,
      4,
      0,
      0,
      6,
      6,
      6,
      6,
      6,
      6,
      5,
      5,
      6,
      4,
      2,
      1,
      4,
      5,
      5,
      5,
      6,
      6,
      5,
      5,
      6,
      6,
      0,
      6
    ],
    "register": "low",
    "is_melodic": true,
    "pitch_range": 11,
    "pitch_distribution": {
      "36": 10,
      "41": 1,
      "42": 23,
      "46": 3,
      "40": 2,
      "37": 2,
      "38": 1,
      "47": 3,
      "43": 1
    }
  },
  "velocity": {
    "mean": 57.7,
    "variance": 1246.1,
    "std": 35.3,
    "accents": [
      1,
      3,
      6,
      8,
      26,
      31,
      42,
      45
    ],
    "profile": [
      65,
      114,
      50,
      94,
      25,
      70,
      112,
      57,
      126,
      11,
      28,
      57,
      64,
      28,
      5,
      11,
      77,
      9,
      91,
      8,
      15,
      14,
      64,
      41,
      51,
      29,
      119,
      78,
      88,
      52,
      69,
      116,
      38,
      9,
      77,
      26,
      75,
      64,
      84,
      26,
      85,
      33,
      103,
      36,
      36,
      125
    ]
  },
  "notes": [
    {
      "pitch": 36,
      "start_time": 0.0,
      "duration": 0.1148,
      "velocity": 65
    },
    {
      "pitch": 41,
      "start_time": 0.0,
      "duration": 0.044,
      "velocity": 114
    },
    {
      "pitch": 42,
      "start_time": 0.0,
      "duration": 0.1035,
      "velocity": 50
    },
    {
      "pitch": 46,
      "start_time": 0.0,
      "duration": 0.0424,
      "velocity": 94
    },
    {
      "pitch": 42,
      "start_time": 0.5,
      "duration": 0.0875,
      "velocity": 25
    },
    {
      "pitch": 36,
      "start_time": 1.0,
      "duration": 0.1076,
      "velocity": 70
    },
    {
      "pitch": 40,
      "start_time": 1.0,
      "duration": 1.0507,
      "velocity": 112
    },
    {
      "pitch": 42,
      "start_time": 1.0,
      "duration": 0.0938,
      "velocity": 57
    },
    {
      "pitch": 46,
      "start_time": 1.0,
      "duration": 0.0956,
      "velocity": 126
    },
    {
      "pitch": 42,
      "start_time": 1.5,
      "duration": 0.0712,
      "velocity": 11
    },
    {
      "pitch": 37,
      "start_time": 2.0,
      "duration": 0.062,
      "velocity": 28
    },
    {
      "pitch": 38,
      "start_time": 2.0,
      "duration": 0.0862,
      "velocity": 57
    },
    {
      "pitch": 42,
      "start_time": 2.0,
      "duration": 0.0754,
      "velocity": 64
    },
    {
      "pitch": 42,
      "start_time": 2.125,
      "duration": 0.125,
      "velocity": 28
    },
    {
      "pitch": 42,
      "start_time": 2.25,
      "duration": 0.125,
      "velocity": 5
    },
    {
      "pitch": 42,
      "start_time": 2.375,
      "duration": 0.125,
      "velocity": 11
    },
    {
      "pitch": 36,
      "start_time": 2.5,
      "duration": 0.0923,
      "velocity": 77
    },
    {
      "pitch": 42,
      "start_time": 2.5,
      "duration": 0.125,
      "velocity": 9
    },
    {
      "pitch": 46,
      "start_time": 2.5,
      "duration": 0.0708,
      "velocity": 91
    },
    {
      "pitch": 42,
      "start_time": 2.625,
      "duration": 0.125,
      "velocity": 8
    },
    {
      "pitch": 42,
      "start_time": 2.75,
      "duration": 0.051,
      "velocity": 15
    },
    {
      "pitch": 42,
      "start_time": 3.0,
      "duration": 0.0785,
      "velocity": 14
    },
    {
      "pitch": 36,
      "start_time": 3.25,
      "duration": 0.0872,
      "velocity": 64
    },
    {
      "pitch": 42,
      "start_time": 3.25,
      "duration": 0.0765,
      "velocity": 41
    },
    {
      "pitch": 36,
      "start_time": 3.75,
      "duration": 0.0438,
      "velocity": 51
    },
    {
      "pitch": 42,
      "start_time": 3.75,
      "duration": 0.0441,
      "velocity": 29
    },
    {
      "pitch": 36,
      "start_time": 4.0,
      "duration": 0.1567,
      "velocity": 119
    },
    {
      "pitch": 42,
      "start_time": 4.0,
      "duration": 0.1674,
      "velocity": 78
    },
    {
      "pitch": 47,
      "start_time": 4.0,
      "duration": 0.08,
      "velocity": 88
    },
    {
      "pitch": 42,
      "start_time": 4.5,
      "duration": 0.11,
      "velocity": 52
    },
    {
      "pitch": 36,
      "start_time": 5.0,
      "duration": 0.1061,
      "velocity": 69
    },
    {
      "pitch": 40,
      "start_time": 5.0,
      "duration": 1.5934,
      "velocity": 116
    },
    {
      "pitch": 42,
      "start_time": 5.0,
      "duration": 0.095,
      "velocity": 38
    },
    {
      "pitch": 43,
      "start_time": 5.0,
      "duration": 0.0515,
      "velocity": 9
    },
    {
      "pitch": 47,
      "start_time": 5.0,
      "duration": 0.0658,
      "velocity": 77
    },
    {
      "pitch": 42,
      "start_time": 5.5,
      "duration": 0.1102,
      "velocity": 26
    },
    {
      "pitch": 37,
      "start_time": 6.0,
      "duration": 0.0981,
      "velocity": 75
    },
    {
      "pitch": 42,
      "start_time": 6.0,
      "duration": 0.0749,
      "velocity": 64
    },
    {
      "pitch": 36,
      "start_time": 6.5,
      "duration": 0.1036,
      "velocity": 84
    },
    {
      "pitch": 42,
      "start_time": 6.5,
      "duration": 0.0684,
      "velocity": 26
    },
    {
      "pitch": 47,
      "start_time": 6.5,
      "duration": 0.061,
      "velocity": 85
    },
    {
      "pitch": 42,
      "start_time": 7.0,
      "duration": 0.3333,
      "velocity": 33
    },
    {
      "pitch": 36,
      "start_time": 7.25,
      "duration": 0.1142,
      "velocity": 103
    },
    {
      "pitch": 42,
      "start_time": 7.3333,
      "duration": 0.3333,
      "velocity": 36
    },
    {
      "pitch": 42,
      "start_time": 7.6667,
      "duration": 0.2109,
      "velocity": 36
    },
    {
      "pitch": 36,
      "start_time": 7.75,
      "duration": 0.0921,
      "velocity": 125
    }
  ]
}