{
  "source": {
    "song": "packs",
    "track_index": 0,
    "track_name": "Beat Tools / MIDI Clips / 84 - 92 bpm / Street Kit groove 01_92 bpm",
    "slot_index": 0,
    "clip_name": "Beat Tools / MIDI Clips / 84 - 92 bpm / Street Kit groove 01_92 bpm",
    "mid_file": "/Users/darnold/Music/Ableton/Packs/Beat Tools/MIDI Clips/84 - 92 bpm/Street Kit groove 01_92 bpm.alc"
  },
  "meta": {
    "bpm": 92.0,
    "key": "?",
    "scale": "?",
    "length_beats": 8.0,
    "note_count": 110
  },
  "rhythm": {
    "density": 1.219,
    "hit_positions": [
      0.0,
      0.0,
      0.0,
      0.0,
      0.0,
      0.0,
      0.0,
      0.0,
      0.0,
      0.25,
      0.5,
      0.5,
      0.5,
      0.75,
      0.75,
      1.0,
      1.0,
      1.0,
      1.0,
      1.0,
      1.25,
      1.5,
      1.5,
      1.5,
      1.5,
      1.75,
      2.0,
      2.0,
      2.0,
      2.0,
      2.0,
      2.25,
      2.5,
      2.5,
      2.5,
      2.5,
      2.75,
      3.0,
      3.0,
      3.0,
      3.0,
      3.125,
      3.25,
      3.25,
      3.25,
      3.5,
      3.5,
      3.5,
      3.625,
      3.75,
      3.75,
      3.875,
      4.0,
      4.0,
      4.0,
      4.0,
      4.0,
      4.0,
      4.0,
      4.0,
      4.25,
      4.5,
      4.5,
      4.5,
      4.75,
      5.0,
      5.0,
      5.0,
      5.0,
      5.25,
      5.5,
      5.5,
      5.5,
      5.75,
      6.0,
      6.0,
      6.0,
      6.0,
      6.125,
      6.25,
      6.25,
      6.25,
      6.5,
      6.5,
      6.5,
      6.5,
      6.5,
      6.625,
      6.75,
      6.75,
      6.75,
      6.75,
      7.0,
      7.0,
      7.0,
      7.0,
      7.0,
      7.125,
      7.25,
      7.25,
      7.25,
      7.5,
      7.5,
      7.5,
      7.5,
      7.625,
      7.75,
      7.75,
      7.75,
      7.75
    ],
    "ioi": [
      0.0,
      0.0,
      0.0,
      0.0,
      0.0,
      0.0,
      0.0,
      0.0,
      0.25,
      0.25,
      0.0,
      0.0,
      0.25,
      0.0,
      0.25,
      0.0,
      0.0,
      0.0,
      0.0,
      0.25,
      0.25,
      0.0,
      0.0,
      0.0,
      0.25,
      0.25,
      0.0,
      0.0,
      0.0,
      0.0,
      0.25,
      0.25,
      0.0,
      0.0,
      0.0,
      0.25,
      0.25,
      0.0,
      0.0,
      0.0,
      0.125,
      0.125,
      0.0,
      0.0,
      0.25,
      0.0,
      0.0,
      0.125,
      0.125,
      0.0,
      0.125,
      0.125,
      0.0,
      0.0,
      0.0,
      0.0,
      0.0,
      0.0,
      0.0,
      0.25,
      0.25,
      0.0,
      0.0,
      0.25,
      0.25,
      0.0,
      0.0,
      0.0,
      0.25,
      0.25,
      0.0,
      0.0,
      0.25,
      0.25,
      0.0,
      0.0,
      0.0,
      0.125,
      0.125,
      0.0,
      0.0,
      0.25,
      0.0,
      0.0,
      0.0,
      0.0,
      0.125,
      0.125,
      0.0,
      0.0,
      0.0,
      0.25,
      0.0,
      0.0,
      0.0,
      0.0,
      0.125,
      0.125,
      0.0,
      0.0,
      0.25,
      0.0,
      0.0,
      0.0,
      0.125,
      0.125,
      0.0,
      0.0,
      0.0,
      0.25
    ],
    "grid": "16th",
    "euclidean_approx": [
      32,
      32
    ],
    "swing_ratio": 1.016
  },
  "pitch": {
    "notes_used": [
      36,
      37,
      39,
      40,
      42,
      44,
      45,
      48,
      50,
      51,
      53,
      54,
      56,
      57,
      58,
      59
    ],
    "intervals": [
      4,
      2,
      2,
      1,
      3,
      2,
      1,
      8,
      8,
      9,
      9,
      3,
      12,
      9,
      14,
      2,
      3,
      9,
      7,
      7,
      15,
      6,
      9,
      6,
      6,
      15,
      6,
      8,
      1,
      5,
      5,
      9,
      3,
      6,
      3,
      3,
      14,
      2,
      3,
      9,
      9,
      0,
      3,
      6,
      15,
      6,
      9,
      9,
      0,
      9,
      9,
      6,
      4,
      2,
      2,
      1,
      3,
      3,
      2,
      2,
      9,
      9,
      3,
      3,
      14,
      2,
      3,
      9,
      0,
      15,
      6,
      9,
      0,
      15,
      3,
      3,
      9,
      9,
      3,
      3,
      9,
      15,
      3,
      3,
      9,
      3,
      15,
      3,
      3,
      6,
      6,
      15,
      1,
      2,
      3,
      9,
      12,
      3,
      9,
      6,
      15,
      3,
      6,
      6,
      12,
      3,
      3,
      6,
      6
    ],
    "register": "low",
    "is_melodic": true,
    "pitch_range": 23,
    "pitch_distribution": {
      "36": 13,
      "40": 2,
      "42": 23,
      "44": 2,
      "45": 8,
      "48": 2,
      "50": 2,
      "51": 32,
      "59": 1,
      "54": 4,
      "37": 4,
      "39": 13,
      "58": 1,
      "57": 1,
      "56": 1,
      "53": 1
    }
  },
  "velocity": {
    "mean": 57.0,
    "variance": 821.4,
    "std": 28.7,
    "accents": [
      4,
      6,
      8,
      28,
      30,
      33,
      42,
      43,
      49,
      51,
      56,
      66,
      76,
      78,
      80,
      90,
      101,
      106,
      108
    ],
    "profile": [
      62,
      53,
      26,
      83,
      127,
      76,
      105,
      33,
      96,
      21,
      28,
      36,
      51,
      27,
      23,
      52,
      74,
      38,
      36,
      60,
      30,
      65,
      34,
      37,
      47,
      29,
      66,
      35,
      102,
      36,
      89,
      19,
      20,
      116,
      34,
      57,
      29,
      57,
      83,
      82,
      34,
      82,
      92,
      103,
      31,
      52,
      63,
      41,
      63,
      121,
      41,
      127,
      63,
      38,
      45,
      48,
      110,
      67,
      37,
      29,
      29,
      32,
      26,
      53,
      34,
      67,
      100,
      60,
      26,
      30,
      35,
      32,
      23,
      18,
      57,
      75,
      105,
      26,
      99,
      64,
      127,
      28,
      50,
      55,
      35,
      17,
      60,
      60,
      62,
      54,
      93,
      32,
      68,
      50,
      67,
      42,
      36,
      41,
      83,
      84,
      25,
      95,
      58,
      85,
      36,
      56,
      111,
      72,
      107,
      32
    ]
  },
  "notes": [
    {
      "pitch": 36,
      "start_time": 0.0,
      "duration": 0.1146,
      "velocity": 62
    },
    {
      "pitch": 40,
      "start_time": 0.0,
      "duration": 0.0833,
      "velocity": 53
    },
    {
      "pitch": 42,
      "start_time": 0.0,
      "duration": 0.0417,
      "velocity": 26
    },
    {
      "pitch": 44,
      "start_time": 0.0,
      "duration": 0.0833,
      "velocity": 83
    },
    {
      "pitch": 45,
      "start_time": 0.0,
      "duration": 0.0833,
      "velocity": 127
    },
    {
      "pitch": 48,
      "start_time": 0.0,
      "duration": 0.0833,
      "velocity": 76
    },
    {
      "pitch": 50,
      "start_time": 0.0,
      "duration": 0.0312,
      "velocity": 105
    },
    {
      "pitch": 51,
      "start_time": 0.0,
      "duration": 0.0417,
      "velocity": 33
    },
    {
      "pitch": 59,
      "start_time": 0.0,
      "duration": 0.7812,
      "velocity": 96
    },
    {
      "pitch": 51,
      "start_time": 0.25,
      "duration": 0.0833,
      "velocity": 21
    },
    {
      "pitch": 42,
      "start_time": 0.5,
      "duration": 0.0521,
      "velocity": 28
    },
    {
      "pitch": 51,
      "start_time": 0.5,
      "duration": 0.0417,
      "velocity": 36
    },
    {
      "pitch": 54,
      "start_time": 0.5,
      "duration": 0.0417,
      "velocity": 51
    },
    {
      "pitch": 42,
      "start_time": 0.75,
      "duration": 0.0417,
      "velocity": 27
    },
    {
      "pitch": 51,
      "start_time": 0.75,
      "duration": 0.0938,
      "velocity": 23
    },
    {
      "pitch": 37,
      "start_time": 1.0,
      "duration": 0.0833,
      "velocity": 52
    },
    {
      "pitch": 39,
      "start_time": 1.0,
      "duration": 0.0521,
      "velocity": 74
    },
    {
      "pitch": 42,
      "start_time": 1.0,
      "duration": 0.0417,
      "velocity": 38
    },
    {
      "pitch": 51,
      "start_time": 1.0,
      "duration": 0.0417,
      "velocity": 36
    },
    {
      "pitch": 58,
      "start_time": 1.0,
      "duration": 0.3125,
      "velocity": 60
    },
    {
      "pitch": 51,
      "start_time": 1.25,
      "duration": 0.0833,
      "velocity": 30
    },
    {
      "pitch": 36,
      "start_time": 1.5,
      "duration": 0.1042,
      "velocity": 65
    },
    {
      "pitch": 42,
      "start_time": 1.5,
      "duration": 0.0625,
      "velocity": 34
    },
    {
      "pitch": 51,
      "start_time": 1.5,
      "duration": 0.0417,
      "velocity": 37
    },
    {
      "pitch": 57,
      "start_time": 1.5,
      "duration": 0.375,
      "velocity": 47
    },
    {
      "pitch": 51,
      "start_time": 1.75,
      "duration": 0.0833,
      "velocity": 29
    },
    {
      "pitch": 36,
      "start_time": 2.0,
      "duration": 0.0938,
      "velocity": 66
    },
    {
      "pitch": 42,
      "start_time": 2.0,
      "duration": 0.0833,
      "velocity": 35
    },
    {
      "pitch": 50,
      "start_time": 2.0,
      "duration": 0.0417,
      "velocity": 102
    },
    {
      "pitch": 51,
      "start_time": 2.0,
      "duration": 0.0417,
      "velocity": 36
    },
    {
      "pitch": 56,
      "start_time": 2.0,
      "duration": 4.5833,
      "velocity": 89
    },
    {
      "pitch": 51,
      "start_time": 2.25,
      "duration": 0.0729,
      "velocity": 19
    },
    {
      "pitch": 42,
      "start_time": 2.5,
      "duration": 0.0521,
      "velocity": 20
    },
    {
      "pitch": 45,
      "start_time": 2.5,
      "duration": 0.0833,
      "velocity": 116
    },
    {
      "pitch": 51,
      "start_time": 2.5,
      "duration": 0.0312,
      "velocity": 34
    },
    {
      "pitch": 54,
      "start_time": 2.5,
      "duration": 0.0625,
      "velocity": 57
    },
    {
      "pitch": 51,
      "start_time": 2.75,
      "duration": 0.0833,
      "velocity": 29
    },
    {
      "pitch": 37,
      "start_time": 3.0,
      "duration": 0.0625,
      "velocity": 57
    },
    {
      "pitch": 39,
      "start_time": 3.0,
      "duration": 0.0417,
      "velocity": 83
    },
    {
      "pitch": 42,
      "start_time": 3.0,
      "duration": 0.125,
      "velocity": 82
    },
    {
      "pitch": 51,
      "start_time": 3.0,
      "duration": 0.0417,
      "velocity": 34
    },
    {
      "pitch": 42,
      "start_time": 3.125,
      "duration": 0.125,
      "velocity": 82
    },
    {
      "pitch": 42,
      "start_time": 3.25,
      "duration": 0.1146,
      "velocity": 92
    },
    {
      "pitch": 45,
      "start_time": 3.25,
      "duration": 0.0938,
      "velocity": 103
    },
    {
      "pitch": 51,
      "start_time": 3.25,
      "duration": 0.0833,
      "velocity": 31
    },
    {
      "pitch": 36,
      "start_time": 3.5,
      "duration": 0.0729,
      "velocity": 52
    },
    {
      "pitch": 42,
      "start_time": 3.5,
      "duration": 0.125,
      "velocity": 63
    },
    {
      "pitch": 51,
      "start_time": 3.5,
      "duration": 0.0521,
      "velocity": 41
    },
    {
      "pitch": 42,
      "start_time": 3.625,
      "duration": 0.125,
      "velocity": 63
    },
    {
      "pitch": 42,
      "start_time": 3.75,
      "duration": 0.125,
      "velocity": 121
    },
    {
      "pitch": 51,
      "start_time": 3.75,
      "duration": 0.0729,
      "velocity": 41
    },
    {
      "pitch": 42,
      "start_time": 3.875,
      "duration": 0.0833,
      "velocity": 127
    },
    {
      "pitch": 36,
      "start_time": 4.0,
      "duration": 0.0729,
      "velocity": 63
    },
    {
      "pitch": 40,
      "start_time": 4.0,
      "duration": 0.0312,
      "velocity": 38
    },
    {
      "pitch": 42,
      "start_time": 4.0,
      "duration": 0.0833,
      "velocity": 45
    },
    {
      "pitch": 44,
      "start_time": 4.0,
      "duration": 0.0833,
      "velocity": 48
    },
    {
      "pitch": 45,
      "start_time": 4.0,
      "duration": 0.0833,
      "velocity": 110
    },
    {
      "pitch": 48,
      "start_time": 4.0,
      "duration": 0.0938,
      "velocity": 67
    },
    {
      "pitch": 51,
      "start_time": 4.0,
      "duration": 0.0417,
      "velocity": 37
    },
    {
      "pitch": 53,
      "start_time": 4.0,
      "duration": 1.9896,
      "velocity": 29
    },
    {
      "pitch": 51,
      "start_time": 4.25,
      "duration": 0.0833,
      "velocity": 29
    },
    {
      "pitch": 42,
      "start_time": 4.5,
      "duration": 0.0833,
      "velocity": 32
    },
    {
      "pitch": 51,
      "start_time": 4.5,
      "duration": 0.0312,
      "velocity": 26
    },
    {
      "pitch": 54,
      "start_time": 4.5,
      "duration": 0.0729,
      "velocity": 53
    },
    {
      "pitch": 51,
      "start_time": 4.75,
      "duration": 0.0833,
      "velocity": 34
    },
    {
      "pitch": 37,
      "start_time": 5.0,
      "duration": 0.0625,
      "velocity": 67
    },
    {
      "pitch": 39,
      "start_time": 5.0,
      "duration": 0.0729,
      "velocity": 100
    },
    {
      "pitch": 42,
      "start_time": 5.0,
      "duration": 0.0625,
      "velocity": 60
    },
    {
      "pitch": 51,
      "start_time": 5.0,
      "duration": 0.0417,
      "velocity": 26
    },
    {
      "pitch": 51,
      "start_time": 5.25,
      "duration": 0.0729,
      "velocity": 30
    },
    {
      "pitch": 36,
      "start_time": 5.5,
      "duration": 0.0625,
      "velocity": 35
    },
    {
      "pitch": 42,
      "start_time": 5.5,
      "duration": 0.0625,
      "velocity": 32
    },
    {
      "pitch": 51,
      "start_time": 5.5,
      "duration": 0.0312,
      "velocity": 23
    },
    {
      "pitch": 51,
      "start_time": 5.75,
      "duration": 0.0938,
      "velocity": 18
    },
    {
      "pitch": 36,
      "start_time": 6.0,
      "duration": 0.0625,
      "velocity": 57
    },
    {
      "pitch": 39,
      "start_time": 6.0,
      "duration": 0.25,
      "velocity": 75
    },
    {
      "pitch": 42,
      "start_time": 6.0,
      "duration": 0.125,
      "velocity": 105
    },
    {
      "pitch": 51,
      "start_time": 6.0,
      "duration": 0.0312,
      "velocity": 26
    },
    {
      "pitch": 42,
      "start_time": 6.125,
      "duration": 0.125,
      "velocity": 99
    },
    {
      "pitch": 39,
      "start_time": 6.25,
      "duration": 0.25,
      "velocity": 64
    },
    {
      "pitch": 42,
      "start_time": 6.25,
      "duration": 0.1146,
      "velocity": 127
    },
    {
      "pitch": 51,
      "start_time": 6.25,
      "duration": 0.0833,
      "velocity": 28
    },
    {
      "pitch": 36,
      "start_time": 6.5,
      "duration": 0.0521,
      "velocity": 50
    },
    {
      "pitch": 39,
      "start_time": 6.5,
      "duration": 0.125,
      "velocity": 55
    },
    {
      "pitch": 42,
      "start_time": 6.5,
      "duration": 0.0625,
      "velocity": 35
    },
    {
      "pitch": 51,
      "start_time": 6.5,
      "duration": 0.0312,
      "velocity": 17
    },
    {
      "pitch": 54,
      "start_time": 6.5,
      "duration": 0.0417,
      "velocity": 60
    },
    {
      "pitch": 39,
      "start_time": 6.625,
      "duration": 0.125,
      "velocity": 60
    },
    {
      "pitch": 36,
      "start_time": 6.75,
      "duration": 0.0938,
      "velocity": 62
    },
    {
      "pitch": 39,
      "start_time": 6.75,
      "duration": 0.0104,
      "velocity": 54
    },
    {
      "pitch": 45,
      "start_time": 6.75,
      "duration": 0.0729,
      "velocity": 93
    },
    {
      "pitch": 51,
      "start_time": 6.75,
      "duration": 0.0729,
      "velocity": 32
    },
    {
      "pitch": 36,
      "start_time": 7.0,
      "duration": 0.0417,
      "velocity": 68
    },
    {
      "pitch": 37,
      "start_time": 7.0,
      "duration": 0.0417,
      "velocity": 50
    },
    {
      "pitch": 39,
      "start_time": 7.0,
      "duration": 0.125,
      "velocity": 67
    },
    {
      "pitch": 42,
      "start_time": 7.0,
      "duration": 0.0625,
      "velocity": 42
    },
    {
      "pitch": 51,
      "start_time": 7.0,
      "duration": 0.0417,
      "velocity": 36
    },
    {
      "pitch": 39,
      "start_time": 7.125,
      "duration": 0.0208,
      "velocity": 41
    },
    {
      "pitch": 36,
      "start_time": 7.25,
      "duration": 0.0521,
      "velocity": 83
    },
    {
      "pitch": 45,
      "start_time": 7.25,
      "duration": 0.0625,
      "velocity": 84
    },
    {
      "pitch": 51,
      "start_time": 7.25,
      "duration": 0.0625,
      "velocity": 25
    },
    {
      "pitch": 36,
      "start_time": 7.5,
      "duration": 0.0729,
      "velocity": 95
    },
    {
      "pitch": 39,
      "start_time": 7.5,
      "duration": 0.125,
      "velocity": 58
    },
    {
      "pitch": 45,
      "start_time": 7.5,
      "duration": 0.0625,
      "velocity": 85
    },
    {
      "pitch": 51,
      "start_time": 7.5,
      "duration": 0.0417,
      "velocity": 36
    },
    {
      "pitch": 39,
      "start_time": 7.625,
      "duration": 0.125,
      "velocity": 56
    },
    {
      "pitch": 36,
      "start_time": 7.75,
      "duration": 0.0625,
      "velocity": 111
    },
    {
      "pitch": 39,
      "start_time": 7.75,
      "duration": 0.0104,
      "velocity": 72
    },
    {
      "pitch": 45,
      "start_time": 7.75,
      "duration": 0.0625,
      "velocity": 107
    },
    {
      "pitch": 51,
      "start_time": 7.75,
      "duration": 0.0729,
      "velocity": 32
    }
  ]
}