{
  "source": {
    "song": "packs",
    "track_index": 0,
    "track_name": "Drum Essentials / MIDI Clips / 91 - 110 bpm / Mixed Overseas Kit groove 02_102 bpm",
    "slot_index": 0,
    "clip_name": "Drum Essentials / MIDI Clips / 91 - 110 bpm / Mixed Overseas Kit groove 02_102 bpm",
    "mid_file": "/Users/darnold/Music/Ableton/Packs/Drum Essentials/MIDI Clips/91 - 110 bpm/Mixed Overseas Kit groove 02_102 bpm.alc"
  },
  "meta": {
    "bpm": 102.0,
    "key": "?",
    "scale": "?",
    "length_beats": 8.0,
    "note_count": 45
  },
  "rhythm": {
    "density": 0.812,
    "hit_positions": [
      0.0,
      0.0,
      0.5,
      1.0,
      1.0,
      1.5,
      1.5,
      1.5,
      1.75,
      2.0,
      2.25,
      2.5,
      2.5,
      2.5,
      2.5,
      2.75,
      3.0,
      3.0,
      3.0,
      3.25,
      3.5,
      4.0,
      4.0,
      4.5,
      5.0,
      5.0,
      5.5,
      5.5,
      6.0,
      6.25,
      6.25,
      6.5,
      6.5,
      6.75,
      6.875,
      7.0,
      7.0,
      7.0,
      7.0,
      7.25,
      7.25,
      7.5,
      7.5,
      7.75,
      7.875
    ],
    "ioi": [
      0.0,
      0.5,
      0.5,
      0.0,
      0.5,
      0.0,
      0.0,
      0.25,
      0.25,
      0.25,
      0.25,
      0.0,
      0.0,
      0.0,
      0.25,
      0.25,
      0.0,
      0.0,
      0.25,
      0.25,
      0.5,
      0.0,
      0.5,
      0.5,
      0.0,
      0.5,
      0.0,
      0.5,
      0.25,
      0.0,
      0.25,
      0.0,
      0.25,
      0.125,
      0.125,
      0.0,
      0.0,
      0.0,
      0.25,
      0.0,
      0.25,
      0.0,
      0.25,
      0.125,
      0.125
    ],
    "grid": "16th",
    "euclidean_approx": [
      32,
      32
    ],
    "swing_ratio": 1.083
  },
  "pitch": {
    "notes_used": [
      36,
      40,
      41,
      42,
      44,
      45,
      46,
      47,
      48
    ],
    "intervals": [
      10,
      4,
      2,
      2,
      1,
      1,
      2,
      0,
      2,
      2,
      3,
      1,
      2,
      1,
      5,
      0,
      6,
      1,
      6,
      1,
      6,
      10,
      4,
      2,
      2,
      1,
      1,
      4,
      5,
      5,
      5,
      1,
      2,
      0,
      0,
      5,
      1,
      1,
      6,
      4,
      3,
      6,
      0,
      0
    ],
    "register": "low",
    "is_melodic": true,
    "pitch_range": 12,
    "pitch_distribution": {
      "36": 2,
      "46": 6,
      "42": 11,
      "40": 7,
      "41": 7,
      "44": 4,
      "45": 3,
      "47": 2,
      "48": 3
    }
  },
  "velocity": {
    "mean": 107.3,
    "variance": 765.0,
    "std": 27.7,
    "accents": [],
    "profile": [
      127,
      127,
      34,
      127,
      116,
      127,
      54,
      61,
      127,
      78,
      107,
      127,
      80,
      111,
      35,
      127,
      127,
      127,
      127,
      127,
      79,
      127,
      127,
      49,
      127,
      92,
      127,
      103,
      99,
      65,
      127,
      127,
      127,
      120,
      127,
      127,
      101,
      127,
      127,
      127,
      127,
      90,
      90,
      89,
      127
    ]
  },
  "notes": [
    {
      "pitch": 36,
      "start_time": 0.0,
      "duration": 0.0964,
      "velocity": 127
    },
    {
      "pitch": 46,
      "start_time": 0.0,
      "duration": 0.0486,
      "velocity": 127
    },
    {
      "pitch": 42,
      "start_time": 0.5,
      "duration": 0.0832,
      "velocity": 34
    },
    {
      "pitch": 40,
      "start_time": 1.0,
      "duration": 0.1088,
      "velocity": 127
    },
    {
      "pitch": 42,
      "start_time": 1.0,
      "duration": 0.1631,
      "velocity": 116
    },
    {
      "pitch": 41,
      "start_time": 1.5,
      "duration": 0.1579,
      "velocity": 127
    },
    {
      "pitch": 42,
      "start_time": 1.5,
      "duration": 0.0969,
      "velocity": 54
    },
    {
      "pitch": 44,
      "start_time": 1.5,
      "duration": 0.0425,
      "velocity": 61
    },
    {
      "pitch": 44,
      "start_time": 1.75,
      "duration": 0.1002,
      "velocity": 127
    },
    {
      "pitch": 42,
      "start_time": 2.0,
      "duration": 0.1256,
      "velocity": 78
    },
    {
      "pitch": 44,
      "start_time": 2.25,
      "duration": 0.0408,
      "velocity": 107
    },
    {
      "pitch": 41,
      "start_time": 2.5,
      "duration": 0.1717,
      "velocity": 127
    },
    {
      "pitch": 42,
      "start_time": 2.5,
      "duration": 0.148,
      "velocity": 80
    },
    {
      "pitch": 44,
      "start_time": 2.5,
      "duration": 0.0527,
      "velocity": 111
    },
    {
      "pitch": 45,
      "start_time": 2.5,
      "duration": 0.0408,
      "velocity": 35
    },
    {
      "pitch": 40,
      "start_time": 2.75,
      "duration": 0.0595,
      "velocity": 127
    },
    {
      "pitch": 40,
      "start_time": 3.0,
      "duration": 0.0986,
      "velocity": 127
    },
    {
      "pitch": 46,
      "start_time": 3.0,
      "duration": 0.1019,
      "velocity": 127
    },
    {
      "pitch": 47,
      "start_time": 3.0,
      "duration": 0.0779,
      "velocity": 127
    },
    {
      "pitch": 41,
      "start_time": 3.25,
      "duration": 0.1632,
      "velocity": 127
    },
    {
      "pitch": 42,
      "start_time": 3.5,
      "duration": 0.1155,
      "velocity": 79
    },
    {
      "pitch": 36,
      "start_time": 4.0,
      "duration": 0.0884,
      "velocity": 127
    },
    {
      "pitch": 46,
      "start_time": 4.0,
      "duration": 0.0935,
      "velocity": 127
    },
    {
      "pitch": 42,
      "start_time": 4.5,
      "duration": 0.0715,
      "velocity": 49
    },
    {
      "pitch": 40,
      "start_time": 5.0,
      "duration": 0.0985,
      "velocity": 127
    },
    {
      "pitch": 42,
      "start_time": 5.0,
      "duration": 0.1172,
      "velocity": 92
    },
    {
      "pitch": 41,
      "start_time": 5.5,
      "duration": 0.1701,
      "velocity": 127
    },
    {
      "pitch": 42,
      "start_time": 5.5,
      "duration": 0.1376,
      "velocity": 103
    },
    {
      "pitch": 46,
      "start_time": 6.0,
      "duration": 0.0544,
      "velocity": 99
    },
    {
      "pitch": 41,
      "start_time": 6.25,
      "duration": 0.0391,
      "velocity": 65
    },
    {
      "pitch": 46,
      "start_time": 6.25,
      "duration": 0.1292,
      "velocity": 127
    },
    {
      "pitch": 41,
      "start_time": 6.5,
      "duration": 0.1563,
      "velocity": 127
    },
    {
      "pitch": 42,
      "start_time": 6.5,
      "duration": 0.158,
      "velocity": 127
    },
    {
      "pitch": 40,
      "start_time": 6.75,
      "duration": 0.0763,
      "velocity": 120
    },
    {
      "pitch": 40,
      "start_time": 6.875,
      "duration": 0.076,
      "velocity": 127
    },
    {
      "pitch": 40,
      "start_time": 7.0,
      "duration": 0.1258,
      "velocity": 127
    },
    {
      "pitch": 45,
      "start_time": 7.0,
      "duration": 0.1121,
      "velocity": 101
    },
    {
      "pitch": 46,
      "start_time": 7.0,
      "duration": 0.1241,
      "velocity": 127
    },
    {
      "pitch": 47,
      "start_time": 7.0,
      "duration": 0.063,
      "velocity": 127
    },
    {
      "pitch": 41,
      "start_time": 7.25,
      "duration": 0.1495,
      "velocity": 127
    },
    {
      "pitch": 45,
      "start_time": 7.25,
      "duration": 0.097,
      "velocity": 127
    },
    {
      "pitch": 42,
      "start_time": 7.5,
      "duration": 0.1308,
      "velocity": 90
    },
    {
      "pitch": 48,
      "start_time": 7.5,
      "duration": 0.0902,
      "velocity": 90
    },
    {
      "pitch": 48,
      "start_time": 7.75,
      "duration": 0.0748,
      "velocity": 89
    },
    {
      "pitch": 48,
      "start_time": 7.875,
      "duration": 0.078,
      "velocity": 127
    }
  ]
}