{
  "source": {
    "song": "packs",
    "track_index": 0,
    "track_name": "Drum Essentials / MIDI Clips / 111 - 130 bpm / 707 Funky Beans Kit groove 04_120 bpm",
    "slot_index": 0,
    "clip_name": "Drum Essentials / MIDI Clips / 111 - 130 bpm / 707 Funky Beans Kit groove 04_120 bpm",
    "mid_file": "/Users/darnold/Music/Ableton/Packs/Drum Essentials/MIDI Clips/111 - 130 bpm/707 Funky Beans Kit groove 04_120 bpm.alc"
  },
  "meta": {
    "bpm": 120.0,
    "key": "?",
    "scale": "?",
    "length_beats": 8.0,
    "note_count": 44
  },
  "rhythm": {
    "density": 1.812,
    "hit_positions": [
      0.0,
      0.0,
      0.25,
      0.5,
      0.75,
      1.0,
      1.0,
      1.0,
      1.25,
      1.5,
      1.75,
      2.0,
      2.0,
      2.25,
      2.5,
      2.75,
      3.0,
      3.0,
      3.0,
      3.5,
      3.5,
      4.0,
      4.0,
      4.25,
      4.5,
      4.75,
      5.0,
      5.0,
      5.0,
      5.0,
      5.25,
      5.5,
      5.75,
      6.0,
      6.25,
      6.5,
      6.5,
      6.75,
      6.75,
      7.0,
      7.0,
      7.0,
      7.25,
      7.5
    ],
    "ioi": [
      0.0,
      0.25,
      0.25,
      0.25,
      0.25,
      0.0,
      0.0,
      0.25,
      0.25,
      0.25,
      0.25,
      0.0,
      0.25,
      0.25,
      0.25,
      0.25,
      0.0,
      0.0,
      0.5,
      0.0,
      0.5,
      0.0,
      0.25,
      0.25,
      0.25,
      0.25,
      0.0,
      0.0,
      0.0,
      0.25,
      0.25,
      0.25,
      0.25,
      0.25,
      0.25,
      0.0,
      0.25,
      0.0,
      0.25,
      0.0,
      0.0,
      0.25,
      0.25,
      0.5
    ],
    "grid": "8th",
    "euclidean_approx": [
      32,
      32
    ],
    "swing_ratio": 1.0
  },
  "pitch": {
    "notes_used": [
      36,
      37,
      38,
      39,
      42,
      43,
      44,
      49
    ],
    "intervals": [
      6,
      2,
      2,
      6,
      2,
      1,
      3,
      7,
      7,
      2,
      8,
      6,
      7,
      7,
      7,
      11,
      1,
      3,
      5,
      5,
      6,
      6,
      7,
      7,
      6,
      2,
      1,
      3,
      1,
      1,
      2,
      7,
      7,
      6,
      0,
      6,
      5,
      12,
      11,
      1,
      3,
      7,
      7
    ],
    "register": "low",
    "is_melodic": true,
    "pitch_range": 13,
    "pitch_distribution": {
      "36": 7,
      "42": 16,
      "44": 3,
      "38": 4,
      "39": 4,
      "49": 7,
      "37": 2,
      "43": 1
    }
  },
  "velocity": {
    "mean": 51.7,
    "variance": 440.4,
    "std": 21.0,
    "accents": [
      5,
      7,
      16,
      18,
      26,
      27,
      39,
      40,
      42
    ],
    "profile": [
      60,
      46,
      30,
      30,
      40,
      91,
      51,
      94,
      59,
      34,
      44,
      37,
      44,
      53,
      40,
      61,
      94,
      44,
      81,
      29,
      38,
      60,
      52,
      32,
      39,
      32,
      83,
      77,
      62,
      17,
      46,
      31,
      70,
      27,
      47,
      40,
      40,
      14,
      59,
      85,
      84,
      66,
      79,
      34
    ]
  },
  "notes": [
    {
      "pitch": 36,
      "start_time": 0.0,
      "duration": 0.1165,
      "velocity": 60
    },
    {
      "pitch": 42,
      "start_time": 0.0,
      "duration": 0.0911,
      "velocity": 46
    },
    {
      "pitch": 44,
      "start_time": 0.25,
      "duration": 0.1026,
      "velocity": 30
    },
    {
      "pitch": 42,
      "start_time": 0.5,
      "duration": 0.1166,
      "velocity": 30
    },
    {
      "pitch": 36,
      "start_time": 0.75,
      "duration": 0.1187,
      "velocity": 40
    },
    {
      "pitch": 38,
      "start_time": 1.0,
      "duration": 0.0996,
      "velocity": 91
    },
    {
      "pitch": 39,
      "start_time": 1.0,
      "duration": 0.0824,
      "velocity": 51
    },
    {
      "pitch": 42,
      "start_time": 1.0,
      "duration": 0.065,
      "velocity": 94
    },
    {
      "pitch": 49,
      "start_time": 1.25,
      "duration": 0.0872,
      "velocity": 59
    },
    {
      "pitch": 42,
      "start_time": 1.5,
      "duration": 0.1105,
      "velocity": 34
    },
    {
      "pitch": 44,
      "start_time": 1.75,
      "duration": 0.0481,
      "velocity": 44
    },
    {
      "pitch": 36,
      "start_time": 2.0,
      "duration": 0.118,
      "velocity": 37
    },
    {
      "pitch": 42,
      "start_time": 2.0,
      "duration": 0.0985,
      "velocity": 44
    },
    {
      "pitch": 49,
      "start_time": 2.25,
      "duration": 0.1137,
      "velocity": 53
    },
    {
      "pitch": 42,
      "start_time": 2.5,
      "duration": 0.1436,
      "velocity": 40
    },
    {
      "pitch": 49,
      "start_time": 2.75,
      "duration": 0.0864,
      "velocity": 61
    },
    {
      "pitch": 38,
      "start_time": 3.0,
      "duration": 0.1046,
      "velocity": 94
    },
    {
      "pitch": 39,
      "start_time": 3.0,
      "duration": 0.1158,
      "velocity": 44
    },
    {
      "pitch": 42,
      "start_time": 3.0,
      "duration": 0.0631,
      "velocity": 81
    },
    {
      "pitch": 37,
      "start_time": 3.5,
      "duration": 0.0864,
      "velocity": 29
    },
    {
      "pitch": 42,
      "start_time": 3.5,
      "duration": 0.1151,
      "velocity": 38
    },
    {
      "pitch": 36,
      "start_time": 4.0,
      "duration": 0.1144,
      "velocity": 60
    },
    {
      "pitch": 42,
      "start_time": 4.0,
      "duration": 0.1206,
      "velocity": 52
    },
    {
      "pitch": 49,
      "start_time": 4.25,
      "duration": 0.0859,
      "velocity": 32
    },
    {
      "pitch": 42,
      "start_time": 4.5,
      "duration": 0.1158,
      "velocity": 39
    },
    {
      "pitch": 36,
      "start_time": 4.75,
      "duration": 0.1098,
      "velocity": 32
    },
    {
      "pitch": 38,
      "start_time": 5.0,
      "duration": 0.108,
      "velocity": 83
    },
    {
      "pitch": 39,
      "start_time": 5.0,
      "duration": 0.069,
      "velocity": 77
    },
    {
      "pitch": 42,
      "start_time": 5.0,
      "duration": 0.0863,
      "velocity": 62
    },
    {
      "pitch": 43,
      "start_time": 5.0,
      "duration": 0.0466,
      "velocity": 17
    },
    {
      "pitch": 44,
      "start_time": 5.25,
      "duration": 0.0686,
      "velocity": 46
    },
    {
      "pitch": 42,
      "start_time": 5.5,
      "duration": 0.1172,
      "velocity": 31
    },
    {
      "pitch": 49,
      "start_time": 5.75,
      "duration": 0.1218,
      "velocity": 70
    },
    {
      "pitch": 42,
      "start_time": 6.0,
      "duration": 0.1061,
      "velocity": 27
    },
    {
      "pitch": 36,
      "start_time": 6.25,
      "duration": 0.1126,
      "velocity": 47
    },
    {
      "pitch": 36,
      "start_time": 6.5,
      "duration": 0.0907,
      "velocity": 40
    },
    {
      "pitch": 42,
      "start_time": 6.5,
      "duration": 0.1087,
      "velocity": 40
    },
    {
      "pitch": 37,
      "start_time": 6.75,
      "duration": 0.0917,
      "velocity": 14
    },
    {
      "pitch": 49,
      "start_time": 6.75,
      "duration": 0.0848,
      "velocity": 59
    },
    {
      "pitch": 38,
      "start_time": 7.0,
      "duration": 0.0902,
      "velocity": 85
    },
    {
      "pitch": 39,
      "start_time": 7.0,
      "duration": 0.065,
      "velocity": 84
    },
    {
      "pitch": 42,
      "start_time": 7.0,
      "duration": 0.0911,
      "velocity": 66
    },
    {
      "pitch": 49,
      "start_time": 7.25,
      "duration": 0.1105,
      "velocity": 79
    },
    {
      "pitch": 42,
      "start_time": 7.5,
      "duration": 0.1259,
      "velocity": 34
    }
  ]
}