{
  "source": {
    "song": "packs",
    "track_index": 0,
    "track_name": "Drum Essentials / MIDI Clips / 91 - 110 bpm / Onyx Kit groove 03_100 bpm",
    "slot_index": 0,
    "clip_name": "Drum Essentials / MIDI Clips / 91 - 110 bpm / Onyx Kit groove 03_100 bpm",
    "mid_file": "/Users/darnold/Music/Ableton/Packs/Drum Essentials/MIDI Clips/91 - 110 bpm/Onyx Kit groove 03_100 bpm.alc"
  },
  "meta": {
    "bpm": 100.0,
    "key": "?",
    "scale": "?",
    "length_beats": 8.0,
    "note_count": 46
  },
  "rhythm": {
    "density": 1.688,
    "hit_positions": [
      0.0,
      0.0,
      0.5,
      0.5,
      0.8333,
      0.8333,
      1.0,
      1.0,
      1.3333,
      1.5,
      1.5,
      1.8333,
      2.0,
      2.0,
      2.0,
      2.3333,
      2.5,
      2.5,
      2.5,
      2.6667,
      2.8333,
      3.0,
      3.0,
      3.0,
      3.5,
      4.0,
      4.0,
      4.5,
      4.5,
      4.8333,
      5.0,
      5.0,
      5.3333,
      5.5,
      5.5,
      5.8333,
      6.0,
      6.3333,
      6.5,
      6.5,
      6.8333,
      7.0,
      7.0,
      7.0,
      7.0,
      7.3333
    ],
    "ioi": [
      0.0,
      0.5,
      0.0,
      0.3333,
      0.0,
      0.1667,
      0.0,
      0.3333,
      0.1667,
      0.0,
      0.3333,
      0.1667,
      0.0,
      0.0,
      0.3333,
      0.1667,
      0.0,
      0.0,
      0.1667,
      0.1666,
      0.1667,
      0.0,
      0.0,
      0.5,
      0.5,
      0.0,
      0.5,
      0.0,
      0.3333,
      0.1667,
      0.0,
      0.3333,
      0.1667,
      0.0,
      0.3333,
      0.1667,
      0.3333,
      0.1667,
      0.0,
      0.3333,
      0.1667,
      0.0,
      0.0,
      0.0,
      0.3333,
      0.6667
    ],
    "grid": "8th",
    "euclidean_approx": [
      32,
      32
    ],
    "swing_ratio": 1.333
  },
  "pitch": {
    "notes_used": [
      36,
      37,
      38,
      41,
      42,
      43,
      44,
      46,
      50,
      51
    ],
    "intervals": [
      6,
      6,
      6,
      4,
      4,
      13,
      5,
      6,
      6,
      9,
      7,
      8,
      2,
      4,
      0,
      6,
      6,
      9,
      9,
      0,
      5,
      4,
      1,
      0,
      6,
      6,
      6,
      6,
      8,
      13,
      5,
      6,
      6,
      9,
      7,
      2,
      6,
      0,
      6,
      2,
      7,
      1,
      4,
      1,
      7
    ],
    "register": "low",
    "is_melodic": true,
    "pitch_range": 15,
    "pitch_distribution": {
      "36": 11,
      "42": 18,
      "46": 1,
      "50": 2,
      "37": 4,
      "51": 3,
      "44": 3,
      "38": 2,
      "41": 1,
      "43": 1
    }
  },
  "velocity": {
    "mean": 34.0,
    "variance": 120.9,
    "std": 11.0,
    "accents": [
      6,
      8,
      22,
      30,
      41,
      45
    ],
    "profile": [
      39,
      37,
      40,
      43,
      18,
      30,
      57,
      36,
      46,
      24,
      35,
      37,
      41,
      22,
      39,
      23,
      11,
      31,
      10,
      28,
      29,
      41,
      49,
      31,
      20,
      36,
      37,
      30,
      32,
      30,
      53,
      36,
      39,
      19,
      43,
      38,
      19,
      33,
      31,
      33,
      21,
      56,
      25,
      38,
      43,
      57
    ]
  },
  "notes": [
    {
      "pitch": 36,
      "start_time": 0.0,
      "duration": 0.0857,
      "velocity": 39
    },
    {
      "pitch": 42,
      "start_time": 0.0,
      "duration": 0.0736,
      "velocity": 37
    },
    {
      "pitch": 36,
      "start_time": 0.5,
      "duration": 0.0724,
      "velocity": 40
    },
    {
      "pitch": 42,
      "start_time": 0.5,
      "duration": 0.083,
      "velocity": 43
    },
    {
      "pitch": 46,
      "start_time": 0.8333,
      "duration": 0.109,
      "velocity": 18
    },
    {
      "pitch": 50,
      "start_time": 0.8333,
      "duration": 0.0474,
      "velocity": 30
    },
    {
      "pitch": 37,
      "start_time": 1.0,
      "duration": 0.0842,
      "velocity": 57
    },
    {
      "pitch": 42,
      "start_time": 1.0,
      "duration": 0.052,
      "velocity": 36
    },
    {
      "pitch": 36,
      "start_time": 1.3333,
      "duration": 0.0914,
      "velocity": 46
    },
    {
      "pitch": 42,
      "start_time": 1.5,
      "duration": 0.0917,
      "velocity": 24
    },
    {
      "pitch": 51,
      "start_time": 1.5,
      "duration": 0.0461,
      "velocity": 35
    },
    {
      "pitch": 44,
      "start_time": 1.8333,
      "duration": 0.0388,
      "velocity": 37
    },
    {
      "pitch": 36,
      "start_time": 2.0,
      "duration": 0.1052,
      "velocity": 41
    },
    {
      "pitch": 38,
      "start_time": 2.0,
      "duration": 0.0665,
      "velocity": 22
    },
    {
      "pitch": 42,
      "start_time": 2.0,
      "duration": 0.0838,
      "velocity": 39
    },
    {
      "pitch": 42,
      "start_time": 2.3333,
      "duration": 0.1667,
      "velocity": 23
    },
    {
      "pitch": 36,
      "start_time": 2.5,
      "duration": 0.0715,
      "velocity": 11
    },
    {
      "pitch": 42,
      "start_time": 2.5,
      "duration": 0.1667,
      "velocity": 31
    },
    {
      "pitch": 51,
      "start_time": 2.5,
      "duration": 0.0467,
      "velocity": 10
    },
    {
      "pitch": 42,
      "start_time": 2.6667,
      "duration": 0.1667,
      "velocity": 28
    },
    {
      "pitch": 42,
      "start_time": 2.8333,
      "duration": 0.1056,
      "velocity": 29
    },
    {
      "pitch": 37,
      "start_time": 3.0,
      "duration": 0.0837,
      "velocity": 41
    },
    {
      "pitch": 41,
      "start_time": 3.0,
      "duration": 0.0488,
      "velocity": 49
    },
    {
      "pitch": 42,
      "start_time": 3.0,
      "duration": 0.0762,
      "velocity": 31
    },
    {
      "pitch": 42,
      "start_time": 3.5,
      "duration": 0.0657,
      "velocity": 20
    },
    {
      "pitch": 36,
      "start_time": 4.0,
      "duration": 0.0819,
      "velocity": 36
    },
    {
      "pitch": 42,
      "start_time": 4.0,
      "duration": 0.0796,
      "velocity": 37
    },
    {
      "pitch": 36,
      "start_time": 4.5,
      "duration": 0.082,
      "velocity": 30
    },
    {
      "pitch": 42,
      "start_time": 4.5,
      "duration": 0.0866,
      "velocity": 32
    },
    {
      "pitch": 50,
      "start_time": 4.8333,
      "duration": 0.0499,
      "velocity": 30
    },
    {
      "pitch": 37,
      "start_time": 5.0,
      "duration": 0.0758,
      "velocity": 53
    },
    {
      "pitch": 42,
      "start_time": 5.0,
      "duration": 0.0658,
      "velocity": 36
    },
    {
      "pitch": 36,
      "start_time": 5.3333,
      "duration": 0.1047,
      "velocity": 39
    },
    {
      "pitch": 42,
      "start_time": 5.5,
      "duration": 0.0929,
      "velocity": 19
    },
    {
      "pitch": 51,
      "start_time": 5.5,
      "duration": 0.0459,
      "velocity": 43
    },
    {
      "pitch": 44,
      "start_time": 5.8333,
      "duration": 0.052,
      "velocity": 38
    },
    {
      "pitch": 42,
      "start_time": 6.0,
      "duration": 0.0944,
      "velocity": 19
    },
    {
      "pitch": 36,
      "start_time": 6.3333,
      "duration": 0.0437,
      "velocity": 33
    },
    {
      "pitch": 36,
      "start_time": 6.5,
      "duration": 0.0967,
      "velocity": 31
    },
    {
      "pitch": 42,
      "start_time": 6.5,
      "duration": 0.1032,
      "velocity": 33
    },
    {
      "pitch": 44,
      "start_time": 6.8333,
      "duration": 0.0389,
      "velocity": 21
    },
    {
      "pitch": 37,
      "start_time": 7.0,
      "duration": 0.0877,
      "velocity": 56
    },
    {
      "pitch": 38,
      "start_time": 7.0,
      "duration": 0.0727,
      "velocity": 25
    },
    {
      "pitch": 42,
      "start_time": 7.0,
      "duration": 0.0863,
      "velocity": 38
    },
    {
      "pitch": 43,
      "start_time": 7.0,
      "duration": 0.0415,
      "velocity": 43
    },
    {
      "pitch": 36,
      "start_time": 7.3333,
      "duration": 0.1129,
      "velocity": 57
    }
  ]
}