{
  "source": {
    "song": "packs",
    "track_index": 0,
    "track_name": "Drum Essentials / MIDI Clips / 91 - 110 bpm / 707 Cannibals Kit groove 05_105 bpm",
    "slot_index": 0,
    "clip_name": "Drum Essentials / MIDI Clips / 91 - 110 bpm / 707 Cannibals Kit groove 05_105 bpm",
    "mid_file": "/Users/darnold/Music/Ableton/Packs/Drum Essentials/MIDI Clips/91 - 110 bpm/707 Cannibals Kit groove 05_105 bpm.alc"
  },
  "meta": {
    "bpm": 105.0,
    "key": "?",
    "scale": "?",
    "length_beats": 8.0,
    "note_count": 34
  },
  "rhythm": {
    "density": 1.125,
    "hit_positions": [
      0.0,
      0.0,
      0.5,
      1.0,
      1.0,
      1.5,
      2.0,
      2.0,
      2.5,
      2.5,
      3.0,
      3.0,
      3.0,
      3.5,
      3.5,
      4.0,
      4.0,
      4.5,
      5.0,
      5.0,
      5.5,
      5.75,
      6.0,
      6.0,
      6.5,
      6.5,
      6.75,
      7.0,
      7.0,
      7.0,
      7.0,
      7.5,
      7.5,
      7.5
    ],
    "ioi": [
      0.0,
      0.5,
      0.5,
      0.0,
      0.5,
      0.5,
      0.0,
      0.5,
      0.0,
      0.5,
      0.0,
      0.0,
      0.5,
      0.0,
      0.5,
      0.0,
      0.5,
      0.5,
      0.0,
      0.5,
      0.25,
      0.25,
      0.0,
      0.5,
      0.0,
      0.25,
      0.25,
      0.0,
      0.0,
      0.0,
      0.5,
      0.0,
      0.0,
      0.5
    ],
    "grid": "8th",
    "euclidean_approx": [
      32,
      32
    ],
    "swing_ratio": 1.0
  },
  "pitch": {
    "notes_used": [
      36,
      38,
      39,
      42,
      43,
      45,
      46,
      47
    ],
    "intervals": [
      10,
      4,
      4,
      4,
      0,
      6,
      6,
      6,
      6,
      4,
      1,
      3,
      4,
      4,
      6,
      10,
      4,
      4,
      4,
      0,
      6,
      0,
      6,
      6,
      6,
      5,
      9,
      1,
      3,
      3,
      9,
      6,
      1
    ],
    "register": "low",
    "is_melodic": true,
    "pitch_range": 11,
    "pitch_distribution": {
      "36": 8,
      "46": 2,
      "42": 14,
      "38": 5,
      "39": 2,
      "47": 1,
      "45": 1,
      "43": 1
    }
  },
  "velocity": {
    "mean": 47.4,
    "variance": 697.2,
    "std": 26.4,
    "accents": [
      1,
      3,
      10,
      18,
      19,
      27
    ],
    "profile": [
      57,
      89,
      18,
      99,
      62,
      17,
      32,
      28,
      38,
      37,
      101,
      36,
      55,
      26,
      21,
      48,
      71,
      13,
      100,
      78,
      25,
      16,
      41,
      46,
      37,
      35,
      38,
      101,
      49,
      71,
      15,
      42,
      38,
      31
    ]
  },
  "notes": [
    {
      "pitch": 36,
      "start_time": 0.0,
      "duration": 0.0769,
      "velocity": 57
    },
    {
      "pitch": 46,
      "start_time": 0.0,
      "duration": 0.0715,
      "velocity": 89
    },
    {
      "pitch": 42,
      "start_time": 0.5,
      "duration": 0.0991,
      "velocity": 18
    },
    {
      "pitch": 38,
      "start_time": 1.0,
      "duration": 0.0764,
      "velocity": 99
    },
    {
      "pitch": 42,
      "start_time": 1.0,
      "duration": 0.0618,
      "velocity": 62
    },
    {
      "pitch": 42,
      "start_time": 1.5,
      "duration": 0.1001,
      "velocity": 17
    },
    {
      "pitch": 36,
      "start_time": 2.0,
      "duration": 0.086,
      "velocity": 32
    },
    {
      "pitch": 42,
      "start_time": 2.0,
      "duration": 0.0862,
      "velocity": 28
    },
    {
      "pitch": 36,
      "start_time": 2.5,
      "duration": 0.0901,
      "velocity": 38
    },
    {
      "pitch": 42,
      "start_time": 2.5,
      "duration": 0.0763,
      "velocity": 37
    },
    {
      "pitch": 38,
      "start_time": 3.0,
      "duration": 0.0816,
      "velocity": 101
    },
    {
      "pitch": 39,
      "start_time": 3.0,
      "duration": 0.0592,
      "velocity": 36
    },
    {
      "pitch": 42,
      "start_time": 3.0,
      "duration": 0.0621,
      "velocity": 55
    },
    {
      "pitch": 38,
      "start_time": 3.5,
      "duration": 0.069,
      "velocity": 26
    },
    {
      "pitch": 42,
      "start_time": 3.5,
      "duration": 0.0803,
      "velocity": 21
    },
    {
      "pitch": 36,
      "start_time": 4.0,
      "duration": 0.0952,
      "velocity": 48
    },
    {
      "pitch": 46,
      "start_time": 4.0,
      "duration": 0.0971,
      "velocity": 71
    },
    {
      "pitch": 42,
      "start_time": 4.5,
      "duration": 0.076,
      "velocity": 13
    },
    {
      "pitch": 38,
      "start_time": 5.0,
      "duration": 0.0735,
      "velocity": 100
    },
    {
      "pitch": 42,
      "start_time": 5.0,
      "duration": 0.0625,
      "velocity": 78
    },
    {
      "pitch": 42,
      "start_time": 5.5,
      "duration": 0.075,
      "velocity": 25
    },
    {
      "pitch": 36,
      "start_time": 5.75,
      "duration": 0.0796,
      "velocity": 16
    },
    {
      "pitch": 36,
      "start_time": 6.0,
      "duration": 0.094,
      "velocity": 41
    },
    {
      "pitch": 42,
      "start_time": 6.0,
      "duration": 0.0887,
      "velocity": 46
    },
    {
      "pitch": 36,
      "start_time": 6.5,
      "duration": 0.08,
      "velocity": 37
    },
    {
      "pitch": 42,
      "start_time": 6.5,
      "duration": 0.0927,
      "velocity": 35
    },
    {
      "pitch": 47,
      "start_time": 6.75,
      "duration": 0.0577,
      "velocity": 38
    },
    {
      "pitch": 38,
      "start_time": 7.0,
      "duration": 0.0755,
      "velocity": 101
    },
    {
      "pitch": 39,
      "start_time": 7.0,
      "duration": 0.0692,
      "velocity": 49
    },
    {
      "pitch": 42,
      "start_time": 7.0,
      "duration": 0.0599,
      "velocity": 71
    },
    {
      "pitch": 45,
      "start_time": 7.0,
      "duration": 0.0413,
      "velocity": 15
    },
    {
      "pitch": 36,
      "start_time": 7.5,
      "duration": 0.0742,
      "velocity": 42
    },
    {
      "pitch": 42,
      "start_time": 7.5,
      "duration": 0.0992,
      "velocity": 38
    },
    {
      "pitch": 43,
      "start_time": 7.5,
      "duration": 0.0427,
      "velocity": 31
    }
  ]
}