{
  "source": {
    "song": "packs",
    "track_index": 0,
    "track_name": "Drum Essentials / MIDI Clips / 91 - 110 bpm / Selector Kit Producer groove 05_105 bpm",
    "slot_index": 0,
    "clip_name": "Drum Essentials / MIDI Clips / 91 - 110 bpm / Selector Kit Producer groove 05_105 bpm",
    "mid_file": "/Users/darnold/Music/Ableton/Packs/Drum Essentials/MIDI Clips/91 - 110 bpm/Selector Kit Producer groove 05_105 bpm.alc"
  },
  "meta": {
    "bpm": 105.0,
    "key": "?",
    "scale": "?",
    "length_beats": 8.0,
    "note_count": 31
  },
  "rhythm": {
    "density": 1.125,
    "hit_positions": [
      0.0,
      0.0,
      0.5,
      1.0,
      1.0,
      1.5,
      1.5,
      2.0,
      2.0,
      2.25,
      2.5,
      2.5,
      3.0,
      3.0,
      3.5,
      3.5,
      4.0,
      4.0,
      4.5,
      5.0,
      5.5,
      5.5,
      6.0,
      6.0,
      6.25,
      6.5,
      6.5,
      7.0,
      7.0,
      7.5,
      7.5
    ],
    "ioi": [
      0.0,
      0.5,
      0.5,
      0.0,
      0.5,
      0.0,
      0.5,
      0.0,
      0.25,
      0.25,
      0.0,
      0.5,
      0.0,
      0.5,
      0.0,
      0.5,
      0.0,
      0.5,
      0.5,
      0.5,
      0.0,
      0.5,
      0.0,
      0.25,
      0.25,
      0.0,
      0.5,
      0.0,
      0.5,
      0.0,
      0.5
    ],
    "grid": "8th",
    "euclidean_approx": [
      31,
      32
    ],
    "swing_ratio": 1.0
  },
  "pitch": {
    "notes_used": [
      36,
      39,
      41,
      42,
      43,
      45,
      47
    ],
    "intervals": [
      5,
      1,
      3,
      4,
      7,
      9,
      9,
      6,
      6,
      0,
      11,
      8,
      6,
      9,
      6,
      6,
      7,
      2,
      6,
      3,
      5,
      5,
      6,
      6,
      0,
      6,
      3,
      6,
      9,
      7
    ],
    "register": "low",
    "is_melodic": true,
    "pitch_range": 11,
    "pitch_distribution": {
      "36": 12,
      "41": 2,
      "42": 5,
      "39": 4,
      "43": 3,
      "45": 4,
      "47": 1
    }
  },
  "velocity": {
    "mean": 79.5,
    "variance": 497.2,
    "std": 22.3,
    "accents": [
      12,
      16,
      19,
      20,
      25,
      26,
      27,
      29,
      30
    ],
    "profile": [
      66,
      81,
      44,
      91,
      81,
      51,
      66,
      54,
      32,
      71,
      83,
      50,
      105,
      63,
      87,
      62,
      105,
      78,
      54,
      114,
      105,
      78,
      90,
      91,
      70,
      106,
      105,
      114,
      58,
      106,
      102
    ]
  },
  "notes": [
    {
      "pitch": 36,
      "start_time": 0.0,
      "duration": 0.5639,
      "velocity": 66
    },
    {
      "pitch": 41,
      "start_time": 0.0,
      "duration": 0.3432,
      "velocity": 81
    },
    {
      "pitch": 42,
      "start_time": 0.5,
      "duration": 0.275,
      "velocity": 44
    },
    {
      "pitch": 39,
      "start_time": 1.0,
      "duration": 0.2598,
      "velocity": 91
    },
    {
      "pitch": 43,
      "start_time": 1.0,
      "duration": 0.3216,
      "velocity": 81
    },
    {
      "pitch": 36,
      "start_time": 1.5,
      "duration": 0.24,
      "velocity": 51
    },
    {
      "pitch": 45,
      "start_time": 1.5,
      "duration": 0.2067,
      "velocity": 66
    },
    {
      "pitch": 36,
      "start_time": 2.0,
      "duration": 0.1084,
      "velocity": 54
    },
    {
      "pitch": 42,
      "start_time": 2.0,
      "duration": 0.3301,
      "velocity": 32
    },
    {
      "pitch": 36,
      "start_time": 2.25,
      "duration": 0.1,
      "velocity": 71
    },
    {
      "pitch": 36,
      "start_time": 2.5,
      "duration": 0.2616,
      "velocity": 83
    },
    {
      "pitch": 47,
      "start_time": 2.5,
      "duration": 0.2833,
      "velocity": 50
    },
    {
      "pitch": 39,
      "start_time": 3.0,
      "duration": 0.31,
      "velocity": 105
    },
    {
      "pitch": 45,
      "start_time": 3.0,
      "duration": 0.3483,
      "velocity": 63
    },
    {
      "pitch": 36,
      "start_time": 3.5,
      "duration": 0.2533,
      "velocity": 87
    },
    {
      "pitch": 42,
      "start_time": 3.5,
      "duration": 0.2201,
      "velocity": 62
    },
    {
      "pitch": 36,
      "start_time": 4.0,
      "duration": 0.4517,
      "velocity": 105
    },
    {
      "pitch": 43,
      "start_time": 4.0,
      "duration": 0.3681,
      "velocity": 78
    },
    {
      "pitch": 45,
      "start_time": 4.5,
      "duration": 0.2366,
      "velocity": 54
    },
    {
      "pitch": 39,
      "start_time": 5.0,
      "duration": 0.267,
      "velocity": 114
    },
    {
      "pitch": 36,
      "start_time": 5.5,
      "duration": 0.2384,
      "velocity": 105
    },
    {
      "pitch": 41,
      "start_time": 5.5,
      "duration": 0.4014,
      "velocity": 78
    },
    {
      "pitch": 36,
      "start_time": 6.0,
      "duration": 0.0851,
      "velocity": 90
    },
    {
      "pitch": 42,
      "start_time": 6.0,
      "duration": 0.2333,
      "velocity": 91
    },
    {
      "pitch": 36,
      "start_time": 6.25,
      "duration": 0.0653,
      "velocity": 70
    },
    {
      "pitch": 36,
      "start_time": 6.5,
      "duration": 0.205,
      "velocity": 106
    },
    {
      "pitch": 42,
      "start_time": 6.5,
      "duration": 0.1733,
      "velocity": 105
    },
    {
      "pitch": 39,
      "start_time": 7.0,
      "duration": 0.2597,
      "velocity": 114
    },
    {
      "pitch": 45,
      "start_time": 7.0,
      "duration": 0.3583,
      "velocity": 58
    },
    {
      "pitch": 36,
      "start_time": 7.5,
      "duration": 0.2352,
      "velocity": 106
    },
    {
      "pitch": 43,
      "start_time": 7.5,
      "duration": 0.3316,
      "velocity": 102
    }
  ]
}