{
  "source": {
    "song": "packs",
    "track_index": 0,
    "track_name": "Drum Essentials / MIDI Clips / 91 - 110 bpm / Head Smack Kit groove 03_105 bpm",
    "slot_index": 0,
    "clip_name": "Drum Essentials / MIDI Clips / 91 - 110 bpm / Head Smack Kit groove 03_105 bpm",
    "mid_file": "/Users/darnold/Music/Ableton/Packs/Drum Essentials/MIDI Clips/91 - 110 bpm/Head Smack Kit groove 03_105 bpm.alc"
  },
  "meta": {
    "bpm": 105.0,
    "key": "?",
    "scale": "?",
    "length_beats": 8.0,
    "note_count": 44
  },
  "rhythm": {
    "density": 0.875,
    "hit_positions": [
      0.0,
      0.0,
      0.0,
      0.0,
      0.5,
      0.5,
      0.6667,
      1.0,
      1.25,
      1.3333,
      1.4352,
      1.5,
      2.0,
      2.0,
      2.0,
      2.5,
      2.6667,
      3.0,
      3.0,
      3.3333,
      3.5,
      3.5,
      4.0,
      4.0,
      4.0,
      4.0273,
      4.5,
      4.5,
      4.6667,
      4.9587,
      5.0,
      5.25,
      5.3333,
      5.5,
      6.0,
      6.0,
      6.0,
      6.0131,
      6.5,
      6.6667,
      7.0,
      7.0,
      7.3333,
      7.5
    ],
    "ioi": [
      0.0,
      0.0,
      0.0,
      0.5,
      0.0,
      0.1667,
      0.3333,
      0.25,
      0.0833,
      0.1019,
      0.0648,
      0.5,
      0.0,
      0.0,
      0.5,
      0.1667,
      0.3333,
      0.0,
      0.3333,
      0.1667,
      0.0,
      0.5,
      0.0,
      0.0,
      0.0273,
      0.4727,
      0.0,
      0.1667,
      0.292,
      0.0413,
      0.25,
      0.0833,
      0.1667,
      0.5,
      0.0,
      0.0,
      0.0131,
      0.4869,
      0.1667,
      0.3333,
      0.0,
      0.3333,
      0.1667,
      0.5
    ],
    "grid": "16th",
    "euclidean_approx": [
      32,
      32
    ],
    "swing_ratio": 1.364
  },
  "pitch": {
    "notes_used": [
      36,
      37,
      38,
      39,
      41,
      42,
      43,
      44,
      45,
      47
    ],
    "intervals": [
      6,
      1,
      4,
      2,
      2,
      4,
      4,
      6,
      2,
      7,
      11,
      10,
      6,
      4,
      0,
      4,
      1,
      5,
      4,
      1,
      3,
      11,
      6,
      1,
      4,
      6,
      6,
      4,
      7,
      11,
      2,
      2,
      4,
      9,
      5,
      4,
      8,
      8,
      4,
      1,
      5,
      4,
      4
    ],
    "register": "low",
    "is_melodic": true,
    "pitch_range": 11,
    "pitch_distribution": {
      "36": 4,
      "42": 4,
      "43": 12,
      "47": 16,
      "45": 2,
      "41": 2,
      "37": 1,
      "44": 1,
      "38": 1,
      "39": 1
    }
  },
  "velocity": {
    "mean": 27.7,
    "variance": 566.4,
    "std": 23.8,
    "accents": [
      0,
      12,
      22,
      23,
      34,
      37
    ],
    "profile": [
      72,
      51,
      8,
      22,
      26,
      21,
      2,
      45,
      46,
      2,
      17,
      17,
      87,
      35,
      28,
      6,
      8,
      10,
      37,
      3,
      33,
      23,
      69,
      60,
      22,
      49,
      46,
      23,
      3,
      27,
      9,
      25,
      3,
      6,
      89,
      3,
      6,
      71,
      18,
      3,
      48,
      15,
      3,
      22
    ]
  },
  "notes": [
    {
      "pitch": 36,
      "start_time": 0.0,
      "duration": 0.0722,
      "velocity": 72
    },
    {
      "pitch": 42,
      "start_time": 0.0,
      "duration": 0.0547,
      "velocity": 51
    },
    {
      "pitch": 43,
      "start_time": 0.0,
      "duration": 0.0443,
      "velocity": 8
    },
    {
      "pitch": 47,
      "start_time": 0.0,
      "duration": 0.5,
      "velocity": 22
    },
    {
      "pitch": 45,
      "start_time": 0.5,
      "duration": 0.0549,
      "velocity": 26
    },
    {
      "pitch": 47,
      "start_time": 0.5,
      "duration": 0.3683,
      "velocity": 21
    },
    {
      "pitch": 43,
      "start_time": 0.6667,
      "duration": 0.6667,
      "velocity": 2
    },
    {
      "pitch": 47,
      "start_time": 1.0,
      "duration": 0.5,
      "velocity": 45
    },
    {
      "pitch": 41,
      "start_time": 1.25,
      "duration": 0.0779,
      "velocity": 46
    },
    {
      "pitch": 43,
      "start_time": 1.3333,
      "duration": 0.5739,
      "velocity": 2
    },
    {
      "pitch": 36,
      "start_time": 1.4352,
      "duration": 0.1205,
      "velocity": 17
    },
    {
      "pitch": 47,
      "start_time": 1.5,
      "duration": 0.5,
      "velocity": 17
    },
    {
      "pitch": 37,
      "start_time": 2.0,
      "duration": 0.1489,
      "velocity": 87
    },
    {
      "pitch": 43,
      "start_time": 2.0,
      "duration": 0.6667,
      "velocity": 35
    },
    {
      "pitch": 47,
      "start_time": 2.0,
      "duration": 0.5,
      "velocity": 28
    },
    {
      "pitch": 47,
      "start_time": 2.5,
      "duration": 0.5,
      "velocity": 6
    },
    {
      "pitch": 43,
      "start_time": 2.6667,
      "duration": 0.6667,
      "velocity": 8
    },
    {
      "pitch": 42,
      "start_time": 3.0,
      "duration": 0.0547,
      "velocity": 10
    },
    {
      "pitch": 47,
      "start_time": 3.0,
      "duration": 0.5,
      "velocity": 37
    },
    {
      "pitch": 43,
      "start_time": 3.3333,
      "duration": 0.6667,
      "velocity": 3
    },
    {
      "pitch": 44,
      "start_time": 3.5,
      "duration": 0.0549,
      "velocity": 33
    },
    {
      "pitch": 47,
      "start_time": 3.5,
      "duration": 0.4382,
      "velocity": 23
    },
    {
      "pitch": 36,
      "start_time": 4.0,
      "duration": 0.1489,
      "velocity": 69
    },
    {
      "pitch": 42,
      "start_time": 4.0,
      "duration": 0.1347,
      "velocity": 60
    },
    {
      "pitch": 43,
      "start_time": 4.0,
      "duration": 0.6667,
      "velocity": 22
    },
    {
      "pitch": 47,
      "start_time": 4.0273,
      "duration": 0.4727,
      "velocity": 49
    },
    {
      "pitch": 41,
      "start_time": 4.5,
      "duration": 0.0712,
      "velocity": 46
    },
    {
      "pitch": 47,
      "start_time": 4.5,
      "duration": 0.5,
      "velocity": 23
    },
    {
      "pitch": 43,
      "start_time": 4.6667,
      "duration": 0.6667,
      "velocity": 3
    },
    {
      "pitch": 36,
      "start_time": 4.9587,
      "duration": 0.1553,
      "velocity": 27
    },
    {
      "pitch": 47,
      "start_time": 5.0,
      "duration": 0.5,
      "velocity": 9
    },
    {
      "pitch": 45,
      "start_time": 5.25,
      "duration": 0.0544,
      "velocity": 25
    },
    {
      "pitch": 43,
      "start_time": 5.3333,
      "duration": 0.6667,
      "velocity": 3
    },
    {
      "pitch": 47,
      "start_time": 5.5,
      "duration": 0.5,
      "velocity": 6
    },
    {
      "pitch": 38,
      "start_time": 6.0,
      "duration": 0.1623,
      "velocity": 89
    },
    {
      "pitch": 43,
      "start_time": 6.0,
      "duration": 0.6667,
      "velocity": 3
    },
    {
      "pitch": 47,
      "start_time": 6.0,
      "duration": 0.5,
      "velocity": 6
    },
    {
      "pitch": 39,
      "start_time": 6.0131,
      "duration": 0.2594,
      "velocity": 71
    },
    {
      "pitch": 47,
      "start_time": 6.5,
      "duration": 0.5,
      "velocity": 18
    },
    {
      "pitch": 43,
      "start_time": 6.6667,
      "duration": 0.6667,
      "velocity": 3
    },
    {
      "pitch": 42,
      "start_time": 7.0,
      "duration": 0.1232,
      "velocity": 48
    },
    {
      "pitch": 47,
      "start_time": 7.0,
      "duration": 0.5,
      "velocity": 15
    },
    {
      "pitch": 43,
      "start_time": 7.3333,
      "duration": 0.4942,
      "velocity": 3
    },
    {
      "pitch": 47,
      "start_time": 7.5,
      "duration": 0.5,
      "velocity": 22
    }
  ]
}