{
  "source": {
    "song": "packs",
    "track_index": 0,
    "track_name": "Drum Essentials / MIDI Clips / 111 - 130 bpm / Cosine Kit groove 01_124 bpm",
    "slot_index": 0,
    "clip_name": "Drum Essentials / MIDI Clips / 111 - 130 bpm / Cosine Kit groove 01_124 bpm",
    "mid_file": "/Users/darnold/Music/Ableton/Packs/Drum Essentials/MIDI Clips/111 - 130 bpm/Cosine Kit groove 01_124 bpm.alc"
  },
  "meta": {
    "bpm": 124.0,
    "key": "?",
    "scale": "?",
    "length_beats": 16.0,
    "note_count": 55
  },
  "rhythm": {
    "density": 0.859,
    "hit_positions": [
      0.0,
      0.25,
      0.5,
      0.75,
      1.0,
      1.5,
      1.75,
      2.0,
      2.5,
      3.0,
      3.25,
      3.5,
      3.75,
      4.0,
      4.25,
      4.5,
      4.75,
      5.0,
      5.5,
      5.75,
      6.0,
      6.5,
      7.0,
      7.25,
      7.5,
      7.75,
      8.0,
      8.25,
      8.5,
      8.75,
      9.0,
      9.5,
      9.75,
      10.0,
      10.5,
      11.0,
      11.25,
      11.5,
      11.75,
      12.0,
      12.25,
      12.5,
      12.75,
      13.0,
      13.5,
      13.75,
      14.0,
      14.5,
      14.75,
      15.0,
      15.25,
      15.5,
      15.625,
      15.75,
      15.875
    ],
    "ioi": [
      0.25,
      0.25,
      0.25,
      0.25,
      0.5,
      0.25,
      0.25,
      0.5,
      0.5,
      0.25,
      0.25,
      0.25,
      0.25,
      0.25,
      0.25,
      0.25,
      0.25,
      0.5,
      0.25,
      0.25,
      0.5,
      0.5,
      0.25,
      0.25,
      0.25,
      0.25,
      0.25,
      0.25,
      0.25,
      0.25,
      0.5,
      0.25,
      0.25,
      0.5,
      0.5,
      0.25,
      0.25,
      0.25,
      0.25,
      0.25,
      0.25,
      0.25,
      0.25,
      0.5,
      0.25,
      0.25,
      0.5,
      0.25,
      0.25,
      0.25,
      0.25,
      0.125,
      0.125,
      0.125,
      0.125
    ],
    "grid": "16th",
    "euclidean_approx": [
      55,
      64
    ],
    "swing_ratio": 1.023
  },
  "pitch": {
    "notes_used": [
      36,
      37,
      38,
      39,
      40,
      41,
      42,
      43,
      44,
      45,
      46,
      47,
      48,
      49,
      50,
      51
    ],
    "intervals": [
      4,
      3,
      7,
      2,
      4,
      3,
      7,
      10,
      2,
      2,
      0,
      6,
      6,
      8,
      7,
      1,
      2,
      4,
      3,
      11,
      14,
      2,
      2,
      5,
      1,
      6,
      0,
      4,
      5,
      7,
      4,
      3,
      10,
      13,
      2,
      2,
      0,
      6,
      6,
      11,
      10,
      1,
      2,
      4,
      3,
      12,
      15,
      12,
      10,
      2,
      6,
      0,
      0,
      0
    ],
    "register": "low",
    "is_melodic": true,
    "pitch_range": 15,
    "pitch_distribution": {
      "36": 18,
      "40": 2,
      "43": 1,
      "38": 8,
      "42": 11,
      "39": 4,
      "46": 1,
      "44": 1,
      "37": 2,
      "50": 1,
      "41": 1,
      "45": 1,
      "49": 1,
      "47": 1,
      "51": 1,
      "48": 1
    }
  },
  "velocity": {
    "mean": 95.3,
    "variance": 214.3,
    "std": 14.6,
    "accents": [],
    "profile": [
      107,
      106,
      83,
      107,
      106,
      83,
      83,
      106,
      107,
      98,
      107,
      107,
      83,
      107,
      83,
      83,
      107,
      106,
      83,
      83,
      106,
      107,
      106,
      107,
      83,
      83,
      107,
      107,
      83,
      83,
      106,
      83,
      83,
      106,
      107,
      106,
      107,
      107,
      83,
      107,
      83,
      83,
      107,
      106,
      83,
      83,
      106,
      107,
      83,
      106,
      107,
      37,
      60,
      82,
      105
    ]
  },
  "notes": [
    {
      "pitch": 36,
      "start_time": 0.0,
      "duration": 0.125,
      "velocity": 107
    },
    {
      "pitch": 40,
      "start_time": 0.25,
      "duration": 0.125,
      "velocity": 106
    },
    {
      "pitch": 43,
      "start_time": 0.5,
      "duration": 0.125,
      "velocity": 83
    },
    {
      "pitch": 36,
      "start_time": 0.75,
      "duration": 0.125,
      "velocity": 107
    },
    {
      "pitch": 38,
      "start_time": 1.0,
      "duration": 0.125,
      "velocity": 106
    },
    {
      "pitch": 42,
      "start_time": 1.5,
      "duration": 0.125,
      "velocity": 83
    },
    {
      "pitch": 39,
      "start_time": 1.75,
      "duration": 0.125,
      "velocity": 83
    },
    {
      "pitch": 46,
      "start_time": 2.0,
      "duration": 0.125,
      "velocity": 106
    },
    {
      "pitch": 36,
      "start_time": 2.5,
      "duration": 0.125,
      "velocity": 107
    },
    {
      "pitch": 38,
      "start_time": 3.0,
      "duration": 0.125,
      "velocity": 98
    },
    {
      "pitch": 36,
      "start_time": 3.25,
      "duration": 0.125,
      "velocity": 107
    },
    {
      "pitch": 36,
      "start_time": 3.5,
      "duration": 0.125,
      "velocity": 107
    },
    {
      "pitch": 42,
      "start_time": 3.75,
      "duration": 0.125,
      "velocity": 83
    },
    {
      "pitch": 36,
      "start_time": 4.0,
      "duration": 0.125,
      "velocity": 107
    },
    {
      "pitch": 44,
      "start_time": 4.25,
      "duration": 0.125,
      "velocity": 83
    },
    {
      "pitch": 37,
      "start_time": 4.5,
      "duration": 0.125,
      "velocity": 83
    },
    {
      "pitch": 36,
      "start_time": 4.75,
      "duration": 0.125,
      "velocity": 107
    },
    {
      "pitch": 38,
      "start_time": 5.0,
      "duration": 0.125,
      "velocity": 106
    },
    {
      "pitch": 42,
      "start_time": 5.5,
      "duration": 0.125,
      "velocity": 83
    },
    {
      "pitch": 39,
      "start_time": 5.75,
      "duration": 0.125,
      "velocity": 83
    },
    {
      "pitch": 50,
      "start_time": 6.0,
      "duration": 0.125,
      "velocity": 106
    },
    {
      "pitch": 36,
      "start_time": 6.5,
      "duration": 0.125,
      "velocity": 107
    },
    {
      "pitch": 38,
      "start_time": 7.0,
      "duration": 0.125,
      "velocity": 106
    },
    {
      "pitch": 36,
      "start_time": 7.25,
      "duration": 0.125,
      "velocity": 107
    },
    {
      "pitch": 41,
      "start_time": 7.5,
      "duration": 0.125,
      "velocity": 83
    },
    {
      "pitch": 42,
      "start_time": 7.75,
      "duration": 0.125,
      "velocity": 83
    },
    {
      "pitch": 36,
      "start_time": 8.0,
      "duration": 0.125,
      "velocity": 107
    },
    {
      "pitch": 36,
      "start_time": 8.25,
      "duration": 0.125,
      "velocity": 107
    },
    {
      "pitch": 40,
      "start_time": 8.5,
      "duration": 0.125,
      "velocity": 83
    },
    {
      "pitch": 45,
      "start_time": 8.75,
      "duration": 0.125,
      "velocity": 83
    },
    {
      "pitch": 38,
      "start_time": 9.0,
      "duration": 0.125,
      "velocity": 106
    },
    {
      "pitch": 42,
      "start_time": 9.5,
      "duration": 0.125,
      "velocity": 83
    },
    {
      "pitch": 39,
      "start_time": 9.75,
      "duration": 0.125,
      "velocity": 83
    },
    {
      "pitch": 49,
      "start_time": 10.0,
      "duration": 0.125,
      "velocity": 106
    },
    {
      "pitch": 36,
      "start_time": 10.5,
      "duration": 0.125,
      "velocity": 107
    },
    {
      "pitch": 38,
      "start_time": 11.0,
      "duration": 0.125,
      "velocity": 106
    },
    {
      "pitch": 36,
      "start_time": 11.25,
      "duration": 0.125,
      "velocity": 107
    },
    {
      "pitch": 36,
      "start_time": 11.5,
      "duration": 0.125,
      "velocity": 107
    },
    {
      "pitch": 42,
      "start_time": 11.75,
      "duration": 0.125,
      "velocity": 83
    },
    {
      "pitch": 36,
      "start_time": 12.0,
      "duration": 0.125,
      "velocity": 107
    },
    {
      "pitch": 47,
      "start_time": 12.25,
      "duration": 0.125,
      "velocity": 83
    },
    {
      "pitch": 37,
      "start_time": 12.5,
      "duration": 0.125,
      "velocity": 83
    },
    {
      "pitch": 36,
      "start_time": 12.75,
      "duration": 0.125,
      "velocity": 107
    },
    {
      "pitch": 38,
      "start_time": 13.0,
      "duration": 0.125,
      "velocity": 106
    },
    {
      "pitch": 42,
      "start_time": 13.5,
      "duration": 0.125,
      "velocity": 83
    },
    {
      "pitch": 39,
      "start_time": 13.75,
      "duration": 0.125,
      "velocity": 83
    },
    {
      "pitch": 51,
      "start_time": 14.0,
      "duration": 0.125,
      "velocity": 106
    },
    {
      "pitch": 36,
      "start_time": 14.5,
      "duration": 0.125,
      "velocity": 107
    },
    {
      "pitch": 48,
      "start_time": 14.75,
      "duration": 0.125,
      "velocity": 83
    },
    {
      "pitch": 38,
      "start_time": 15.0,
      "duration": 0.125,
      "velocity": 106
    },
    {
      "pitch": 36,
      "start_time": 15.25,
      "duration": 0.125,
      "velocity": 107
    },
    {
      "pitch": 42,
      "start_time": 15.5,
      "duration": 0.125,
      "velocity": 37
    },
    {
      "pitch": 42,
      "start_time": 15.625,
      "duration": 0.125,
      "velocity": 60
    },
    {
      "pitch": 42,
      "start_time": 15.75,
      "duration": 0.125,
      "velocity": 82
    },
    {
      "pitch": 42,
      "start_time": 15.875,
      "duration": 0.125,
      "velocity": 105
    }
  ]
}