{
  "source": {
    "song": "packs",
    "track_index": 0,
    "track_name": "Drum Essentials / MIDI Clips / 91 - 110 bpm / Kimbo Kit groove 01_110 bpm",
    "slot_index": 0,
    "clip_name": "Drum Essentials / MIDI Clips / 91 - 110 bpm / Kimbo Kit groove 01_110 bpm",
    "mid_file": "/Users/darnold/Music/Ableton/Packs/Drum Essentials/MIDI Clips/91 - 110 bpm/Kimbo Kit groove 01_110 bpm.alc"
  },
  "meta": {
    "bpm": 110.0,
    "key": "?",
    "scale": "?",
    "length_beats": 8.0,
    "note_count": 33
  },
  "rhythm": {
    "density": 1.188,
    "hit_positions": [
      0.0,
      0.0,
      0.5,
      1.0,
      1.0,
      1.5,
      1.5,
      2.0,
      2.0,
      2.0,
      2.5,
      3.0,
      3.0,
      3.5,
      3.5,
      3.5,
      4.0,
      4.0,
      4.5,
      4.75,
      5.0,
      5.5,
      5.5,
      5.5,
      6.0,
      6.0,
      6.0,
      6.5,
      7.0,
      7.0,
      7.25,
      7.5,
      7.75
    ],
    "ioi": [
      0.0,
      0.5,
      0.5,
      0.0,
      0.5,
      0.0,
      0.5,
      0.0,
      0.0,
      0.5,
      0.5,
      0.0,
      0.5,
      0.0,
      0.0,
      0.5,
      0.0,
      0.5,
      0.25,
      0.25,
      0.5,
      0.0,
      0.0,
      0.5,
      0.0,
      0.0,
      0.5,
      0.5,
      0.0,
      0.25,
      0.25,
      0.25,
      0.25
    ],
    "grid": "8th",
    "euclidean_approx": [
      32,
      32
    ],
    "swing_ratio": 1.0
  },
  "pitch": {
    "notes_used": [
      36,
      37,
      39,
      40,
      42,
      43,
      44,
      45
    ],
    "intervals": [
      6,
      0,
      6,
      6,
      2,
      2,
      5,
      2,
      3,
      0,
      0,
      2,
      8,
      6,
      3,
      9,
      6,
      0,
      6,
      6,
      6,
      4,
      2,
      5,
      2,
      3,
      0,
      5,
      5,
      1,
      1,
      3
    ],
    "register": "low",
    "is_melodic": true,
    "pitch_range": 9,
    "pitch_distribution": {
      "36": 6,
      "42": 16,
      "40": 2,
      "37": 3,
      "39": 2,
      "44": 1,
      "45": 2,
      "43": 1
    }
  },
  "velocity": {
    "mean": 77.2,
    "variance": 998.6,
    "std": 31.6,
    "accents": [
      5,
      8,
      22,
      24,
      25
    ],
    "profile": [
      92,
      77,
      43,
      91,
      78,
      127,
      20,
      108,
      127,
      96,
      21,
      40,
      108,
      52,
      36,
      82,
      81,
      77,
      37,
      77,
      39,
      81,
      127,
      76,
      110,
      127,
      107,
      29,
      51,
      92,
      88,
      58,
      93
    ]
  },
  "notes": [
    {
      "pitch": 36,
      "start_time": 0.0,
      "duration": 0.0876,
      "velocity": 92
    },
    {
      "pitch": 42,
      "start_time": 0.0,
      "duration": 0.088,
      "velocity": 77
    },
    {
      "pitch": 42,
      "start_time": 0.5,
      "duration": 0.0784,
      "velocity": 43
    },
    {
      "pitch": 36,
      "start_time": 1.0,
      "duration": 0.0836,
      "velocity": 91
    },
    {
      "pitch": 42,
      "start_time": 1.0,
      "duration": 0.0847,
      "velocity": 78
    },
    {
      "pitch": 40,
      "start_time": 1.5,
      "duration": 0.0853,
      "velocity": 127
    },
    {
      "pitch": 42,
      "start_time": 1.5,
      "duration": 0.0577,
      "velocity": 20
    },
    {
      "pitch": 37,
      "start_time": 2.0,
      "duration": 0.0725,
      "velocity": 108
    },
    {
      "pitch": 39,
      "start_time": 2.0,
      "duration": 0.0811,
      "velocity": 127
    },
    {
      "pitch": 42,
      "start_time": 2.0,
      "duration": 0.0798,
      "velocity": 96
    },
    {
      "pitch": 42,
      "start_time": 2.5,
      "duration": 0.0502,
      "velocity": 21
    },
    {
      "pitch": 42,
      "start_time": 3.0,
      "duration": 0.0733,
      "velocity": 40
    },
    {
      "pitch": 44,
      "start_time": 3.0,
      "duration": 0.0499,
      "velocity": 108
    },
    {
      "pitch": 36,
      "start_time": 3.5,
      "duration": 0.0677,
      "velocity": 52
    },
    {
      "pitch": 42,
      "start_time": 3.5,
      "duration": 0.0496,
      "velocity": 36
    },
    {
      "pitch": 45,
      "start_time": 3.5,
      "duration": 0.0427,
      "velocity": 82
    },
    {
      "pitch": 36,
      "start_time": 4.0,
      "duration": 0.0916,
      "velocity": 81
    },
    {
      "pitch": 42,
      "start_time": 4.0,
      "duration": 0.0841,
      "velocity": 77
    },
    {
      "pitch": 42,
      "start_time": 4.5,
      "duration": 0.0732,
      "velocity": 37
    },
    {
      "pitch": 36,
      "start_time": 4.75,
      "duration": 0.1252,
      "velocity": 77
    },
    {
      "pitch": 42,
      "start_time": 5.0,
      "duration": 0.0972,
      "velocity": 39
    },
    {
      "pitch": 36,
      "start_time": 5.5,
      "duration": 0.0821,
      "velocity": 81
    },
    {
      "pitch": 40,
      "start_time": 5.5,
      "duration": 0.0819,
      "velocity": 127
    },
    {
      "pitch": 42,
      "start_time": 5.5,
      "duration": 0.0901,
      "velocity": 76
    },
    {
      "pitch": 37,
      "start_time": 6.0,
      "duration": 0.0787,
      "velocity": 110
    },
    {
      "pitch": 39,
      "start_time": 6.0,
      "duration": 0.0841,
      "velocity": 127
    },
    {
      "pitch": 42,
      "start_time": 6.0,
      "duration": 0.0868,
      "velocity": 107
    },
    {
      "pitch": 42,
      "start_time": 6.5,
      "duration": 0.0531,
      "velocity": 29
    },
    {
      "pitch": 37,
      "start_time": 7.0,
      "duration": 0.0654,
      "velocity": 51
    },
    {
      "pitch": 42,
      "start_time": 7.0,
      "duration": 0.1076,
      "velocity": 92
    },
    {
      "pitch": 43,
      "start_time": 7.25,
      "duration": 0.0711,
      "velocity": 88
    },
    {
      "pitch": 42,
      "start_time": 7.5,
      "duration": 0.0861,
      "velocity": 58
    },
    {
      "pitch": 45,
      "start_time": 7.75,
      "duration": 0.0418,
      "velocity": 93
    }
  ]
}