{
  "source": {
    "song": "packs",
    "track_index": 0,
    "track_name": "Drum Essentials / MIDI Clips / 91 - 110 bpm / Onyx Kit groove 07_108 bpm",
    "slot_index": 0,
    "clip_name": "Drum Essentials / MIDI Clips / 91 - 110 bpm / Onyx Kit groove 07_108 bpm",
    "mid_file": "/Users/darnold/Music/Ableton/Packs/Drum Essentials/MIDI Clips/91 - 110 bpm/Onyx Kit groove 07_108 bpm.alc"
  },
  "meta": {
    "bpm": 108.0,
    "key": "?",
    "scale": "?",
    "length_beats": 8.0,
    "note_count": 48
  },
  "rhythm": {
    "density": 1.688,
    "hit_positions": [
      0.0,
      0.0,
      0.5,
      0.75,
      1.0,
      1.0,
      1.25,
      1.5,
      1.5,
      2.0,
      2.25,
      2.5,
      2.75,
      2.75,
      3.0,
      3.0,
      3.5,
      3.5,
      4.0,
      4.0,
      4.25,
      4.5,
      4.75,
      5.0,
      5.0,
      5.5,
      5.5,
      5.5,
      5.75,
      6.0,
      6.0,
      6.25,
      6.25,
      6.5,
      6.5,
      6.5,
      6.75,
      6.75,
      7.0,
      7.0,
      7.0,
      7.25,
      7.25,
      7.5,
      7.5,
      7.5,
      7.75,
      7.75
    ],
    "ioi": [
      0.0,
      0.5,
      0.25,
      0.25,
      0.0,
      0.25,
      0.25,
      0.0,
      0.5,
      0.25,
      0.25,
      0.25,
      0.0,
      0.25,
      0.0,
      0.5,
      0.0,
      0.5,
      0.0,
      0.25,
      0.25,
      0.25,
      0.25,
      0.0,
      0.5,
      0.0,
      0.0,
      0.25,
      0.25,
      0.0,
      0.25,
      0.0,
      0.25,
      0.0,
      0.0,
      0.25,
      0.0,
      0.25,
      0.0,
      0.0,
      0.25,
      0.0,
      0.25,
      0.0,
      0.0,
      0.25,
      0.0,
      0.25
    ],
    "grid": "8th",
    "euclidean_approx": [
      32,
      32
    ],
    "swing_ratio": 1.0
  },
  "pitch": {
    "notes_used": [
      36,
      38,
      39,
      40,
      42,
      44,
      45,
      47,
      48
    ],
    "intervals": [
      6,
      0,
      6,
      10,
      4,
      2,
      8,
      6,
      0,
      2,
      2,
      2,
      4,
      6,
      4,
      6,
      6,
      6,
      6,
      6,
      6,
      2,
      6,
      4,
      6,
      6,
      2,
      0,
      2,
      2,
      5,
      5,
      5,
      3,
      2,
      4,
      7,
      9,
      1,
      3,
      6,
      3,
      0,
      3,
      3,
      9,
      3
    ],
    "register": "low",
    "is_melodic": true,
    "pitch_range": 12,
    "pitch_distribution": {
      "36": 7,
      "42": 16,
      "48": 2,
      "38": 4,
      "44": 9,
      "40": 2,
      "39": 6,
      "47": 1,
      "45": 1
    }
  },
  "velocity": {
    "mean": 36.2,
    "variance": 409.9,
    "std": 20.2,
    "accents": [
      0,
      1,
      14,
      16,
      18,
      22,
      23,
      25,
      36
    ],
    "profile": [
      64,
      64,
      24,
      3,
      51,
      53,
      35,
      54,
      34,
      30,
      23,
      17,
      35,
      29,
      66,
      53,
      59,
      49,
      63,
      52,
      48,
      32,
      72,
      66,
      50,
      60,
      54,
      15,
      13,
      22,
      3,
      6,
      3,
      23,
      40,
      17,
      58,
      3,
      55,
      3,
      52,
      34,
      14,
      30,
      24,
      28,
      34,
      19
    ]
  },
  "notes": [
    {
      "pitch": 36,
      "start_time": 0.0,
      "duration": 0.0889,
      "velocity": 64
    },
    {
      "pitch": 42,
      "start_time": 0.0,
      "duration": 0.0842,
      "velocity": 64
    },
    {
      "pitch": 42,
      "start_time": 0.5,
      "duration": 0.0741,
      "velocity": 24
    },
    {
      "pitch": 48,
      "start_time": 0.75,
      "duration": 0.0135,
      "velocity": 3
    },
    {
      "pitch": 38,
      "start_time": 1.0,
      "duration": 0.0904,
      "velocity": 51
    },
    {
      "pitch": 42,
      "start_time": 1.0,
      "duration": 0.0821,
      "velocity": 53
    },
    {
      "pitch": 44,
      "start_time": 1.25,
      "duration": 0.1044,
      "velocity": 35
    },
    {
      "pitch": 36,
      "start_time": 1.5,
      "duration": 0.1039,
      "velocity": 54
    },
    {
      "pitch": 42,
      "start_time": 1.5,
      "duration": 0.0813,
      "velocity": 34
    },
    {
      "pitch": 42,
      "start_time": 2.0,
      "duration": 0.0814,
      "velocity": 30
    },
    {
      "pitch": 44,
      "start_time": 2.25,
      "duration": 0.0531,
      "velocity": 23
    },
    {
      "pitch": 42,
      "start_time": 2.5,
      "duration": 0.077,
      "velocity": 17
    },
    {
      "pitch": 40,
      "start_time": 2.75,
      "duration": 0.097,
      "velocity": 35
    },
    {
      "pitch": 44,
      "start_time": 2.75,
      "duration": 0.1366,
      "velocity": 29
    },
    {
      "pitch": 38,
      "start_time": 3.0,
      "duration": 0.0872,
      "velocity": 66
    },
    {
      "pitch": 42,
      "start_time": 3.0,
      "duration": 0.0756,
      "velocity": 53
    },
    {
      "pitch": 36,
      "start_time": 3.5,
      "duration": 0.0922,
      "velocity": 59
    },
    {
      "pitch": 42,
      "start_time": 3.5,
      "duration": 0.0765,
      "velocity": 49
    },
    {
      "pitch": 36,
      "start_time": 4.0,
      "duration": 0.0992,
      "velocity": 63
    },
    {
      "pitch": 42,
      "start_time": 4.0,
      "duration": 0.0903,
      "velocity": 52
    },
    {
      "pitch": 48,
      "start_time": 4.25,
      "duration": 0.0911,
      "velocity": 48
    },
    {
      "pitch": 42,
      "start_time": 4.5,
      "duration": 0.0962,
      "velocity": 32
    },
    {
      "pitch": 44,
      "start_time": 4.75,
      "duration": 0.1105,
      "velocity": 72
    },
    {
      "pitch": 38,
      "start_time": 5.0,
      "duration": 0.0817,
      "velocity": 66
    },
    {
      "pitch": 42,
      "start_time": 5.0,
      "duration": 0.0512,
      "velocity": 50
    },
    {
      "pitch": 36,
      "start_time": 5.5,
      "duration": 0.0968,
      "velocity": 60
    },
    {
      "pitch": 42,
      "start_time": 5.5,
      "duration": 0.0967,
      "velocity": 54
    },
    {
      "pitch": 44,
      "start_time": 5.5,
      "duration": 0.25,
      "velocity": 15
    },
    {
      "pitch": 44,
      "start_time": 5.75,
      "duration": 0.25,
      "velocity": 13
    },
    {
      "pitch": 42,
      "start_time": 6.0,
      "duration": 0.0758,
      "velocity": 22
    },
    {
      "pitch": 44,
      "start_time": 6.0,
      "duration": 0.25,
      "velocity": 3
    },
    {
      "pitch": 39,
      "start_time": 6.25,
      "duration": 0.25,
      "velocity": 6
    },
    {
      "pitch": 44,
      "start_time": 6.25,
      "duration": 0.25,
      "velocity": 3
    },
    {
      "pitch": 39,
      "start_time": 6.5,
      "duration": 0.0433,
      "velocity": 23
    },
    {
      "pitch": 42,
      "start_time": 6.5,
      "duration": 0.1127,
      "velocity": 40
    },
    {
      "pitch": 44,
      "start_time": 6.5,
      "duration": 0.1872,
      "velocity": 17
    },
    {
      "pitch": 40,
      "start_time": 6.75,
      "duration": 0.1177,
      "velocity": 58
    },
    {
      "pitch": 47,
      "start_time": 6.75,
      "duration": 0.0271,
      "velocity": 3
    },
    {
      "pitch": 38,
      "start_time": 7.0,
      "duration": 0.0786,
      "velocity": 55
    },
    {
      "pitch": 39,
      "start_time": 7.0,
      "duration": 0.25,
      "velocity": 3
    },
    {
      "pitch": 42,
      "start_time": 7.0,
      "duration": 0.0615,
      "velocity": 52
    },
    {
      "pitch": 36,
      "start_time": 7.25,
      "duration": 0.0652,
      "velocity": 34
    },
    {
      "pitch": 39,
      "start_time": 7.25,
      "duration": 0.0885,
      "velocity": 14
    },
    {
      "pitch": 39,
      "start_time": 7.5,
      "duration": 0.25,
      "velocity": 30
    },
    {
      "pitch": 42,
      "start_time": 7.5,
      "duration": 0.0798,
      "velocity": 24
    },
    {
      "pitch": 45,
      "start_time": 7.5,
      "duration": 0.0814,
      "velocity": 28
    },
    {
      "pitch": 36,
      "start_time": 7.75,
      "duration": 0.0623,
      "velocity": 34
    },
    {
      "pitch": 39,
      "start_time": 7.75,
      "duration": 0.1155,
      "velocity": 19
    }
  ]
}