{
  "source": {
    "song": "packs",
    "track_index": 0,
    "track_name": "Drum Essentials / MIDI Clips / 60 - 90 bpm / Chekov Kit groove 01_90 bpm",
    "slot_index": 0,
    "clip_name": "Drum Essentials / MIDI Clips / 60 - 90 bpm / Chekov Kit groove 01_90 bpm",
    "mid_file": "/Users/darnold/Music/Ableton/Packs/Drum Essentials/MIDI Clips/60 - 90 bpm/Chekov Kit groove 01_90 bpm.alc"
  },
  "meta": {
    "bpm": 90.0,
    "key": "?",
    "scale": "?",
    "length_beats": 8.0,
    "note_count": 84
  },
  "rhythm": {
    "density": 1.094,
    "hit_positions": [
      0.0,
      0.0,
      0.0,
      0.25,
      0.5,
      0.5,
      0.5,
      0.75,
      1.0,
      1.0,
      1.0,
      1.0,
      1.25,
      1.5,
      1.5,
      1.75,
      2.0,
      2.0,
      2.0,
      2.0,
      2.0,
      2.25,
      2.5,
      2.5,
      2.75,
      2.75,
      2.75,
      2.75,
      2.75,
      3.0,
      3.0,
      3.0,
      3.0,
      3.0,
      3.25,
      3.5,
      3.5,
      3.5,
      3.75,
      4.0,
      4.0,
      4.0,
      4.0,
      4.25,
      4.5,
      4.5,
      4.5,
      4.75,
      5.0,
      5.0,
      5.0,
      5.0,
      5.25,
      5.5,
      5.5,
      5.5,
      5.75,
      6.0,
      6.0,
      6.0,
      6.0,
      6.0,
      6.25,
      6.375,
      6.5,
      6.5,
      6.5,
      6.75,
      7.0,
      7.0,
      7.0,
      7.0,
      7.0,
      7.25,
      7.25,
      7.375,
      7.5,
      7.5,
      7.5,
      7.5,
      7.625,
      7.75,
      7.75,
      7.75
    ],
    "ioi": [
      0.0,
      0.0,
      0.25,
      0.25,
      0.0,
      0.0,
      0.25,
      0.25,
      0.0,
      0.0,
      0.0,
      0.25,
      0.25,
      0.0,
      0.25,
      0.25,
      0.0,
      0.0,
      0.0,
      0.0,
      0.25,
      0.25,
      0.0,
      0.25,
      0.0,
      0.0,
      0.0,
      0.0,
      0.25,
      0.0,
      0.0,
      0.0,
      0.0,
      0.25,
      0.25,
      0.0,
      0.0,
      0.25,
      0.25,
      0.0,
      0.0,
      0.0,
      0.25,
      0.25,
      0.0,
      0.0,
      0.25,
      0.25,
      0.0,
      0.0,
      0.0,
      0.25,
      0.25,
      0.0,
      0.0,
      0.25,
      0.25,
      0.0,
      0.0,
      0.0,
      0.0,
      0.25,
      0.125,
      0.125,
      0.0,
      0.0,
      0.25,
      0.25,
      0.0,
      0.0,
      0.0,
      0.0,
      0.25,
      0.0,
      0.125,
      0.125,
      0.0,
      0.0,
      0.0,
      0.125,
      0.125,
      0.0,
      0.0,
      0.25
    ],
    "grid": "16th",
    "euclidean_approx": [
      32,
      32
    ],
    "swing_ratio": 1.04
  },
  "pitch": {
    "notes_used": [
      36,
      37,
      38,
      42,
      44,
      49,
      50,
      52,
      53,
      54,
      55,
      56,
      57,
      58,
      59
    ],
    "intervals": [
      6,
      10,
      8,
      2,
      2,
      5,
      5,
      7,
      5,
      2,
      9,
      9,
      2,
      2,
      0,
      8,
      6,
      2,
      6,
      4,
      10,
      2,
      2,
      8,
      2,
      4,
      2,
      13,
      20,
      1,
      4,
      2,
      11,
      11,
      8,
      6,
      2,
      0,
      8,
      6,
      2,
      8,
      8,
      2,
      2,
      5,
      5,
      7,
      5,
      2,
      9,
      9,
      2,
      2,
      5,
      5,
      8,
      6,
      2,
      6,
      4,
      10,
      0,
      2,
      2,
      15,
      15,
      7,
      5,
      2,
      11,
      3,
      20,
      6,
      0,
      6,
      4,
      2,
      12,
      12,
      8,
      6,
      2
    ],
    "register": "low",
    "is_melodic": true,
    "pitch_range": 23,
    "pitch_distribution": {
      "36": 7,
      "42": 18,
      "52": 2,
      "44": 34,
      "49": 3,
      "37": 4,
      "53": 2,
      "50": 2,
      "54": 2,
      "38": 4,
      "57": 1,
      "55": 2,
      "59": 1,
      "58": 1,
      "56": 1
    }
  },
  "velocity": {
    "mean": 37.9,
    "variance": 202.3,
    "std": 14.2,
    "accents": [
      2,
      8,
      16,
      20,
      29,
      33,
      42,
      48,
      51,
      57,
      65,
      68,
      71,
      72
    ],
    "profile": [
      46,
      35,
      73,
      35,
      16,
      31,
      38,
      24,
      59,
      40,
      20,
      47,
      15,
      21,
      19,
      47,
      59,
      37,
      29,
      41,
      60,
      27,
      32,
      32,
      17,
      49,
      4,
      50,
      40,
      54,
      37,
      36,
      38,
      68,
      35,
      36,
      32,
      34,
      37,
      50,
      34,
      39,
      65,
      41,
      21,
      23,
      34,
      30,
      62,
      39,
      26,
      53,
      25,
      28,
      38,
      28,
      35,
      57,
      34,
      25,
      40,
      51,
      43,
      35,
      27,
      83,
      49,
      21,
      57,
      39,
      22,
      60,
      56,
      34,
      36,
      31,
      15,
      30,
      30,
      47,
      26,
      43,
      34,
      36
    ]
  },
  "notes": [
    {
      "pitch": 36,
      "start_time": 0.0,
      "duration": 0.0938,
      "velocity": 46
    },
    {
      "pitch": 42,
      "start_time": 0.0,
      "duration": 0.0521,
      "velocity": 35
    },
    {
      "pitch": 52,
      "start_time": 0.0,
      "duration": 0.7396,
      "velocity": 73
    },
    {
      "pitch": 44,
      "start_time": 0.25,
      "duration": 0.25,
      "velocity": 35
    },
    {
      "pitch": 42,
      "start_time": 0.5,
      "duration": 0.0938,
      "velocity": 16
    },
    {
      "pitch": 44,
      "start_time": 0.5,
      "duration": 0.25,
      "velocity": 31
    },
    {
      "pitch": 49,
      "start_time": 0.5,
      "duration": 1.1354,
      "velocity": 38
    },
    {
      "pitch": 44,
      "start_time": 0.75,
      "duration": 0.25,
      "velocity": 24
    },
    {
      "pitch": 37,
      "start_time": 1.0,
      "duration": 0.0833,
      "velocity": 59
    },
    {
      "pitch": 42,
      "start_time": 1.0,
      "duration": 0.1042,
      "velocity": 40
    },
    {
      "pitch": 44,
      "start_time": 1.0,
      "duration": 0.0417,
      "velocity": 20
    },
    {
      "pitch": 53,
      "start_time": 1.0,
      "duration": 0.7708,
      "velocity": 47
    },
    {
      "pitch": 44,
      "start_time": 1.25,
      "duration": 0.25,
      "velocity": 15
    },
    {
      "pitch": 42,
      "start_time": 1.5,
      "duration": 0.0833,
      "velocity": 21
    },
    {
      "pitch": 44,
      "start_time": 1.5,
      "duration": 0.25,
      "velocity": 19
    },
    {
      "pitch": 44,
      "start_time": 1.75,
      "duration": 0.25,
      "velocity": 47
    },
    {
      "pitch": 36,
      "start_time": 2.0,
      "duration": 0.0938,
      "velocity": 59
    },
    {
      "pitch": 42,
      "start_time": 2.0,
      "duration": 0.0833,
      "velocity": 37
    },
    {
      "pitch": 44,
      "start_time": 2.0,
      "duration": 0.25,
      "velocity": 29
    },
    {
      "pitch": 50,
      "start_time": 2.0,
      "duration": 0.4688,
      "velocity": 41
    },
    {
      "pitch": 54,
      "start_time": 2.0,
      "duration": 0.6875,
      "velocity": 60
    },
    {
      "pitch": 44,
      "start_time": 2.25,
      "duration": 0.001,
      "velocity": 27
    },
    {
      "pitch": 42,
      "start_time": 2.5,
      "duration": 0.0938,
      "velocity": 32
    },
    {
      "pitch": 44,
      "start_time": 2.5,
      "duration": 0.25,
      "velocity": 32
    },
    {
      "pitch": 36,
      "start_time": 2.75,
      "duration": 0.0312,
      "velocity": 17
    },
    {
      "pitch": 38,
      "start_time": 2.75,
      "duration": 0.25,
      "velocity": 49
    },
    {
      "pitch": 42,
      "start_time": 2.75,
      "duration": 0.0104,
      "velocity": 4
    },
    {
      "pitch": 44,
      "start_time": 2.75,
      "duration": 0.25,
      "velocity": 50
    },
    {
      "pitch": 57,
      "start_time": 2.75,
      "duration": 0.75,
      "velocity": 40
    },
    {
      "pitch": 37,
      "start_time": 3.0,
      "duration": 0.1562,
      "velocity": 54
    },
    {
      "pitch": 38,
      "start_time": 3.0,
      "duration": 0.0208,
      "velocity": 37
    },
    {
      "pitch": 42,
      "start_time": 3.0,
      "duration": 0.1146,
      "velocity": 36
    },
    {
      "pitch": 44,
      "start_time": 3.0,
      "duration": 0.25,
      "velocity": 38
    },
    {
      "pitch": 55,
      "start_time": 3.0,
      "duration": 0.6146,
      "velocity": 68
    },
    {
      "pitch": 44,
      "start_time": 3.25,
      "duration": 0.25,
      "velocity": 35
    },
    {
      "pitch": 36,
      "start_time": 3.5,
      "duration": 0.0729,
      "velocity": 36
    },
    {
      "pitch": 42,
      "start_time": 3.5,
      "duration": 0.0729,
      "velocity": 32
    },
    {
      "pitch": 44,
      "start_time": 3.5,
      "duration": 0.25,
      "velocity": 34
    },
    {
      "pitch": 44,
      "start_time": 3.75,
      "duration": 0.125,
      "velocity": 37
    },
    {
      "pitch": 36,
      "start_time": 4.0,
      "duration": 0.0938,
      "velocity": 50
    },
    {
      "pitch": 42,
      "start_time": 4.0,
      "duration": 0.0833,
      "velocity": 34
    },
    {
      "pitch": 44,
      "start_time": 4.0,
      "duration": 0.25,
      "velocity": 39
    },
    {
      "pitch": 52,
      "start_time": 4.0,
      "duration": 0.7292,
      "velocity": 65
    },
    {
      "pitch": 44,
      "start_time": 4.25,
      "duration": 0.25,
      "velocity": 41
    },
    {
      "pitch": 42,
      "start_time": 4.5,
      "duration": 0.0625,
      "velocity": 21
    },
    {
      "pitch": 44,
      "start_time": 4.5,
      "duration": 0.25,
      "velocity": 23
    },
    {
      "pitch": 49,
      "start_time": 4.5,
      "duration": 0.0833,
      "velocity": 34
    },
    {
      "pitch": 44,
      "start_time": 4.75,
      "duration": 0.25,
      "velocity": 30
    },
    {
      "pitch": 37,
      "start_time": 5.0,
      "duration": 0.0833,
      "velocity": 62
    },
    {
      "pitch": 42,
      "start_time": 5.0,
      "duration": 0.0938,
      "velocity": 39
    },
    {
      "pitch": 44,
      "start_time": 5.0,
      "duration": 0.25,
      "velocity": 26
    },
    {
      "pitch": 53,
      "start_time": 5.0,
      "duration": 0.6875,
      "velocity": 53
    },
    {
      "pitch": 44,
      "start_time": 5.25,
      "duration": 0.25,
      "velocity": 25
    },
    {
      "pitch": 42,
      "start_time": 5.5,
      "duration": 0.0938,
      "velocity": 28
    },
    {
      "pitch": 44,
      "start_time": 5.5,
      "duration": 0.25,
      "velocity": 38
    },
    {
      "pitch": 49,
      "start_time": 5.5,
      "duration": 0.0625,
      "velocity": 28
    },
    {
      "pitch": 44,
      "start_time": 5.75,
      "duration": 0.25,
      "velocity": 35
    },
    {
      "pitch": 36,
      "start_time": 6.0,
      "duration": 0.0938,
      "velocity": 57
    },
    {
      "pitch": 42,
      "start_time": 6.0,
      "duration": 0.0833,
      "velocity": 34
    },
    {
      "pitch": 44,
      "start_time": 6.0,
      "duration": 0.25,
      "velocity": 25
    },
    {
      "pitch": 50,
      "start_time": 6.0,
      "duration": 0.0312,
      "velocity": 40
    },
    {
      "pitch": 54,
      "start_time": 6.0,
      "duration": 0.6771,
      "velocity": 51
    },
    {
      "pitch": 44,
      "start_time": 6.25,
      "duration": 0.125,
      "velocity": 43
    },
    {
      "pitch": 44,
      "start_time": 6.375,
      "duration": 0.0938,
      "velocity": 35
    },
    {
      "pitch": 42,
      "start_time": 6.5,
      "duration": 0.1146,
      "velocity": 27
    },
    {
      "pitch": 44,
      "start_time": 6.5,
      "duration": 0.25,
      "velocity": 83
    },
    {
      "pitch": 59,
      "start_time": 6.5,
      "duration": 0.4792,
      "velocity": 49
    },
    {
      "pitch": 44,
      "start_time": 6.75,
      "duration": 0.25,
      "velocity": 21
    },
    {
      "pitch": 37,
      "start_time": 7.0,
      "duration": 0.0938,
      "velocity": 57
    },
    {
      "pitch": 42,
      "start_time": 7.0,
      "duration": 0.1042,
      "velocity": 39
    },
    {
      "pitch": 44,
      "start_time": 7.0,
      "duration": 0.25,
      "velocity": 22
    },
    {
      "pitch": 55,
      "start_time": 7.0,
      "duration": 0.5521,
      "velocity": 60
    },
    {
      "pitch": 58,
      "start_time": 7.0,
      "duration": 0.25,
      "velocity": 56
    },
    {
      "pitch": 38,
      "start_time": 7.25,
      "duration": 0.25,
      "velocity": 34
    },
    {
      "pitch": 44,
      "start_time": 7.25,
      "duration": 0.0521,
      "velocity": 36
    },
    {
      "pitch": 44,
      "start_time": 7.375,
      "duration": 0.125,
      "velocity": 31
    },
    {
      "pitch": 38,
      "start_time": 7.5,
      "duration": 0.1979,
      "velocity": 15
    },
    {
      "pitch": 42,
      "start_time": 7.5,
      "duration": 0.0938,
      "velocity": 30
    },
    {
      "pitch": 44,
      "start_time": 7.5,
      "duration": 0.125,
      "velocity": 30
    },
    {
      "pitch": 56,
      "start_time": 7.5,
      "duration": 0.2917,
      "velocity": 47
    },
    {
      "pitch": 44,
      "start_time": 7.625,
      "duration": 0.125,
      "velocity": 26
    },
    {
      "pitch": 36,
      "start_time": 7.75,
      "duration": 0.0312,
      "velocity": 43
    },
    {
      "pitch": 42,
      "start_time": 7.75,
      "duration": 0.0417,
      "velocity": 34
    },
    {
      "pitch": 44,
      "start_time": 7.75,
      "duration": 0.0729,
      "velocity": 36
    }
  ]
}