{
  "source": {
    "song": "packs",
    "track_index": 0,
    "track_name": "Drum Essentials / MIDI Clips / 111 - 130 bpm / 707 Funky Beans Kit groove 02_120 bpm",
    "slot_index": 0,
    "clip_name": "Drum Essentials / MIDI Clips / 111 - 130 bpm / 707 Funky Beans Kit groove 02_120 bpm",
    "mid_file": "/Users/darnold/Music/Ableton/Packs/Drum Essentials/MIDI Clips/111 - 130 bpm/707 Funky Beans Kit groove 02_120 bpm.alc"
  },
  "meta": {
    "bpm": 120.0,
    "key": "?",
    "scale": "?",
    "length_beats": 8.0,
    "note_count": 27
  },
  "rhythm": {
    "density": 1.062,
    "hit_positions": [
      0.0,
      0.0,
      0.5,
      1.0,
      1.0,
      1.5,
      2.0,
      2.0,
      2.5,
      3.0,
      3.0,
      3.0,
      3.5,
      4.0,
      4.0,
      4.5,
      5.0,
      5.0,
      5.5,
      6.0,
      6.0,
      6.5,
      6.5,
      7.0,
      7.0,
      7.5,
      7.75
    ],
    "ioi": [
      0.0,
      0.5,
      0.5,
      0.0,
      0.5,
      0.5,
      0.0,
      0.5,
      0.5,
      0.0,
      0.0,
      0.5,
      0.5,
      0.0,
      0.5,
      0.5,
      0.0,
      0.5,
      0.5,
      0.0,
      0.5,
      0.0,
      0.5,
      0.0,
      0.5,
      0.25,
      0.25
    ],
    "grid": "8th",
    "euclidean_approx": [
      27,
      32
    ],
    "swing_ratio": 1.0
  },
  "pitch": {
    "notes_used": [
      36,
      38,
      39,
      42,
      46
    ],
    "intervals": [
      6,
      0,
      4,
      4,
      0,
      6,
      6,
      4,
      8,
      1,
      3,
      0,
      6,
      6,
      0,
      4,
      4,
      0,
      6,
      6,
      6,
      6,
      4,
      1,
      1,
      0
    ],
    "register": "low",
    "is_melodic": true,
    "pitch_range": 10,
    "pitch_distribution": {
      "36": 5,
      "42": 13,
      "38": 6,
      "46": 1,
      "39": 2
    }
  },
  "velocity": {
    "mean": 52.6,
    "variance": 545.1,
    "std": 23.3,
    "accents": [
      3,
      9,
      10,
      16,
      23,
      25
    ],
    "profile": [
      45,
      37,
      29,
      81,
      57,
      21,
      20,
      23,
      49,
      88,
      96,
      55,
      42,
      49,
      46,
      26,
      92,
      67,
      27,
      50,
      42,
      55,
      38,
      100,
      49,
      85,
      51
    ]
  },
  "notes": [
    {
      "pitch": 36,
      "start_time": 0.0,
      "duration": 0.1068,
      "velocity": 45
    },
    {
      "pitch": 42,
      "start_time": 0.0,
      "duration": 0.0913,
      "velocity": 37
    },
    {
      "pitch": 42,
      "start_time": 0.5,
      "duration": 0.0845,
      "velocity": 29
    },
    {
      "pitch": 38,
      "start_time": 1.0,
      "duration": 0.079,
      "velocity": 81
    },
    {
      "pitch": 42,
      "start_time": 1.0,
      "duration": 0.0466,
      "velocity": 57
    },
    {
      "pitch": 42,
      "start_time": 1.5,
      "duration": 0.0331,
      "velocity": 21
    },
    {
      "pitch": 36,
      "start_time": 2.0,
      "duration": 0.0615,
      "velocity": 20
    },
    {
      "pitch": 42,
      "start_time": 2.0,
      "duration": 0.0718,
      "velocity": 23
    },
    {
      "pitch": 46,
      "start_time": 2.5,
      "duration": 0.0818,
      "velocity": 49
    },
    {
      "pitch": 38,
      "start_time": 3.0,
      "duration": 0.0745,
      "velocity": 88
    },
    {
      "pitch": 39,
      "start_time": 3.0,
      "duration": 0.09,
      "velocity": 96
    },
    {
      "pitch": 42,
      "start_time": 3.0,
      "duration": 0.0468,
      "velocity": 55
    },
    {
      "pitch": 42,
      "start_time": 3.5,
      "duration": 0.0955,
      "velocity": 42
    },
    {
      "pitch": 36,
      "start_time": 4.0,
      "duration": 0.1,
      "velocity": 49
    },
    {
      "pitch": 42,
      "start_time": 4.0,
      "duration": 0.0977,
      "velocity": 46
    },
    {
      "pitch": 42,
      "start_time": 4.5,
      "duration": 0.0683,
      "velocity": 26
    },
    {
      "pitch": 38,
      "start_time": 5.0,
      "duration": 0.0722,
      "velocity": 92
    },
    {
      "pitch": 42,
      "start_time": 5.0,
      "duration": 0.0558,
      "velocity": 67
    },
    {
      "pitch": 42,
      "start_time": 5.5,
      "duration": 0.0856,
      "velocity": 27
    },
    {
      "pitch": 36,
      "start_time": 6.0,
      "duration": 0.0859,
      "velocity": 50
    },
    {
      "pitch": 42,
      "start_time": 6.0,
      "duration": 0.0971,
      "velocity": 42
    },
    {
      "pitch": 36,
      "start_time": 6.5,
      "duration": 0.0795,
      "velocity": 55
    },
    {
      "pitch": 42,
      "start_time": 6.5,
      "duration": 0.0955,
      "velocity": 38
    },
    {
      "pitch": 38,
      "start_time": 7.0,
      "duration": 0.1073,
      "velocity": 100
    },
    {
      "pitch": 39,
      "start_time": 7.0,
      "duration": 0.118,
      "velocity": 49
    },
    {
      "pitch": 38,
      "start_time": 7.5,
      "duration": 0.0871,
      "velocity": 85
    },
    {
      "pitch": 38,
      "start_time": 7.75,
      "duration": 0.1105,
      "velocity": 51
    }
  ]
}