{
  "source": {
    "song": "packs",
    "track_index": 0,
    "track_name": "Drum Essentials / MIDI Clips / 111 - 130 bpm / Undercurrent Kit groove 02_115 bpm",
    "slot_index": 0,
    "clip_name": "Drum Essentials / MIDI Clips / 111 - 130 bpm / Undercurrent Kit groove 02_115 bpm",
    "mid_file": "/Users/darnold/Music/Ableton/Packs/Drum Essentials/MIDI Clips/111 - 130 bpm/Undercurrent Kit groove 02_115 bpm.alc"
  },
  "meta": {
    "bpm": 115.0,
    "key": "?",
    "scale": "?",
    "length_beats": 16.0,
    "note_count": 66
  },
  "rhythm": {
    "density": 1.031,
    "hit_positions": [
      0.0,
      0.25,
      0.5,
      0.75,
      1.0,
      1.25,
      1.5,
      1.75,
      2.0,
      2.25,
      2.5,
      2.75,
      3.0,
      3.25,
      3.5,
      3.75,
      4.0,
      4.5,
      4.75,
      4.875,
      5.0,
      5.25,
      5.5,
      5.75,
      6.0,
      6.25,
      6.5,
      6.75,
      6.875,
      7.0,
      7.25,
      7.5,
      7.75,
      8.0,
      8.25,
      8.5,
      8.75,
      9.0,
      9.25,
      9.5,
      9.75,
      10.0,
      10.25,
      10.5,
      10.75,
      11.0,
      11.25,
      11.5,
      11.75,
      12.0,
      12.5,
      12.75,
      12.875,
      13.0,
      13.25,
      13.5,
      13.75,
      14.0,
      14.25,
      14.5,
      14.75,
      15.0,
      15.25,
      15.5,
      15.75,
      15.875
    ],
    "ioi": [
      0.25,
      0.25,
      0.25,
      0.25,
      0.25,
      0.25,
      0.25,
      0.25,
      0.25,
      0.25,
      0.25,
      0.25,
      0.25,
      0.25,
      0.25,
      0.25,
      0.5,
      0.25,
      0.125,
      0.125,
      0.25,
      0.25,
      0.25,
      0.25,
      0.25,
      0.25,
      0.25,
      0.125,
      0.125,
      0.25,
      0.25,
      0.25,
      0.25,
      0.25,
      0.25,
      0.25,
      0.25,
      0.25,
      0.25,
      0.25,
      0.25,
      0.25,
      0.25,
      0.25,
      0.25,
      0.25,
      0.25,
      0.25,
      0.25,
      0.5,
      0.25,
      0.125,
      0.125,
      0.25,
      0.25,
      0.25,
      0.25,
      0.25,
      0.25,
      0.25,
      0.25,
      0.25,
      0.25,
      0.25,
      0.125,
      0.125
    ],
    "grid": "16th",
    "euclidean_approx": [
      64,
      64
    ],
    "swing_ratio": 1.059
  },
  "pitch": {
    "notes_used": [
      36,
      39,
      41,
      42,
      43,
      44,
      45,
      46,
      47,
      48,
      49,
      50,
      51
    ],
    "intervals": [
      6,
      1,
      1,
      9,
      10,
      1,
      0,
      3,
      3,
      2,
      2,
      1,
      1,
      9,
      9,
      8,
      2,
      6,
      0,
      0,
      0,
      6,
      6,
      3,
      3,
      0,
      4,
      0,
      5,
      1,
      0,
      3,
      9,
      6,
      1,
      1,
      9,
      10,
      1,
      0,
      3,
      3,
      2,
      2,
      1,
      1,
      9,
      9,
      7,
      2,
      5,
      0,
      0,
      0,
      6,
      6,
      3,
      3,
      0,
      9,
      10,
      1,
      0,
      1,
      0
    ],
    "register": "low",
    "is_melodic": true,
    "pitch_range": 15,
    "pitch_distribution": {
      "36": 4,
      "42": 34,
      "41": 8,
      "51": 5,
      "39": 4,
      "44": 2,
      "50": 1,
      "48": 1,
      "46": 2,
      "45": 1,
      "49": 1,
      "47": 1,
      "43": 2
    }
  },
  "velocity": {
    "mean": 113.5,
    "variance": 141.9,
    "std": 11.9,
    "accents": [
      0,
      2,
      4,
      5,
      8,
      10,
      12,
      14,
      16,
      17,
      22,
      24,
      27,
      29,
      32,
      33,
      35,
      37,
      38,
      41,
      43,
      45,
      47,
      49,
      50,
      55,
      57,
      60,
      61
    ],
    "profile": [
      127,
      103,
      127,
      103,
      127,
      127,
      103,
      103,
      127,
      103,
      127,
      103,
      127,
      103,
      127,
      103,
      127,
      127,
      103,
      103,
      103,
      103,
      127,
      103,
      127,
      103,
      103,
      127,
      103,
      127,
      103,
      103,
      127,
      127,
      103,
      127,
      103,
      127,
      127,
      103,
      103,
      127,
      103,
      127,
      103,
      127,
      103,
      127,
      103,
      127,
      127,
      103,
      103,
      103,
      103,
      127,
      103,
      127,
      103,
      103,
      127,
      127,
      103,
      103,
      103,
      103
    ]
  },
  "notes": [
    {
      "pitch": 36,
      "start_time": 0.0,
      "duration": 0.25,
      "velocity": 127
    },
    {
      "pitch": 42,
      "start_time": 0.25,
      "duration": 0.125,
      "velocity": 103
    },
    {
      "pitch": 41,
      "start_time": 0.5,
      "duration": 0.125,
      "velocity": 127
    },
    {
      "pitch": 42,
      "start_time": 0.75,
      "duration": 0.125,
      "velocity": 103
    },
    {
      "pitch": 51,
      "start_time": 1.0,
      "duration": 0.125,
      "velocity": 127
    },
    {
      "pitch": 41,
      "start_time": 1.25,
      "duration": 0.125,
      "velocity": 127
    },
    {
      "pitch": 42,
      "start_time": 1.5,
      "duration": 0.125,
      "velocity": 103
    },
    {
      "pitch": 42,
      "start_time": 1.75,
      "duration": 0.125,
      "velocity": 103
    },
    {
      "pitch": 39,
      "start_time": 2.0,
      "duration": 0.125,
      "velocity": 127
    },
    {
      "pitch": 42,
      "start_time": 2.25,
      "duration": 0.125,
      "velocity": 103
    },
    {
      "pitch": 44,
      "start_time": 2.5,
      "duration": 0.125,
      "velocity": 127
    },
    {
      "pitch": 42,
      "start_time": 2.75,
      "duration": 0.125,
      "velocity": 103
    },
    {
      "pitch": 41,
      "start_time": 3.0,
      "duration": 0.125,
      "velocity": 127
    },
    {
      "pitch": 42,
      "start_time": 3.25,
      "duration": 0.125,
      "velocity": 103
    },
    {
      "pitch": 51,
      "start_time": 3.5,
      "duration": 0.125,
      "velocity": 127
    },
    {
      "pitch": 42,
      "start_time": 3.75,
      "duration": 0.125,
      "velocity": 103
    },
    {
      "pitch": 50,
      "start_time": 4.0,
      "duration": 0.125,
      "velocity": 127
    },
    {
      "pitch": 48,
      "start_time": 4.5,
      "duration": 0.125,
      "velocity": 127
    },
    {
      "pitch": 42,
      "start_time": 4.75,
      "duration": 0.125,
      "velocity": 103
    },
    {
      "pitch": 42,
      "start_time": 4.875,
      "duration": 0.125,
      "velocity": 103
    },
    {
      "pitch": 42,
      "start_time": 5.0,
      "duration": 0.125,
      "velocity": 103
    },
    {
      "pitch": 42,
      "start_time": 5.25,
      "duration": 0.125,
      "velocity": 103
    },
    {
      "pitch": 36,
      "start_time": 5.5,
      "duration": 0.125,
      "velocity": 127
    },
    {
      "pitch": 42,
      "start_time": 5.75,
      "duration": 0.125,
      "velocity": 103
    },
    {
      "pitch": 39,
      "start_time": 6.0,
      "duration": 0.125,
      "velocity": 127
    },
    {
      "pitch": 42,
      "start_time": 6.25,
      "duration": 0.125,
      "velocity": 103
    },
    {
      "pitch": 42,
      "start_time": 6.5,
      "duration": 0.125,
      "velocity": 103
    },
    {
      "pitch": 46,
      "start_time": 6.75,
      "duration": 0.125,
      "velocity": 127
    },
    {
      "pitch": 46,
      "start_time": 6.875,
      "duration": 0.125,
      "velocity": 103
    },
    {
      "pitch": 41,
      "start_time": 7.0,
      "duration": 0.125,
      "velocity": 127
    },
    {
      "pitch": 42,
      "start_time": 7.25,
      "duration": 0.125,
      "velocity": 103
    },
    {
      "pitch": 42,
      "start_time": 7.5,
      "duration": 0.125,
      "velocity": 103
    },
    {
      "pitch": 45,
      "start_time": 7.75,
      "duration": 0.125,
      "velocity": 127
    },
    {
      "pitch": 36,
      "start_time": 8.0,
      "duration": 0.25,
      "velocity": 127
    },
    {
      "pitch": 42,
      "start_time": 8.25,
      "duration": 0.125,
      "velocity": 103
    },
    {
      "pitch": 41,
      "start_time": 8.5,
      "duration": 0.125,
      "velocity": 127
    },
    {
      "pitch": 42,
      "start_time": 8.75,
      "duration": 0.125,
      "velocity": 103
    },
    {
      "pitch": 51,
      "start_time": 9.0,
      "duration": 0.125,
      "velocity": 127
    },
    {
      "pitch": 41,
      "start_time": 9.25,
      "duration": 0.125,
      "velocity": 127
    },
    {
      "pitch": 42,
      "start_time": 9.5,
      "duration": 0.125,
      "velocity": 103
    },
    {
      "pitch": 42,
      "start_time": 9.75,
      "duration": 0.125,
      "velocity": 103
    },
    {
      "pitch": 39,
      "start_time": 10.0,
      "duration": 0.125,
      "velocity": 127
    },
    {
      "pitch": 42,
      "start_time": 10.25,
      "duration": 0.125,
      "velocity": 103
    },
    {
      "pitch": 44,
      "start_time": 10.5,
      "duration": 0.125,
      "velocity": 127
    },
    {
      "pitch": 42,
      "start_time": 10.75,
      "duration": 0.125,
      "velocity": 103
    },
    {
      "pitch": 41,
      "start_time": 11.0,
      "duration": 0.125,
      "velocity": 127
    },
    {
      "pitch": 42,
      "start_time": 11.25,
      "duration": 0.125,
      "velocity": 103
    },
    {
      "pitch": 51,
      "start_time": 11.5,
      "duration": 0.125,
      "velocity": 127
    },
    {
      "pitch": 42,
      "start_time": 11.75,
      "duration": 0.125,
      "velocity": 103
    },
    {
      "pitch": 49,
      "start_time": 12.0,
      "duration": 0.125,
      "velocity": 127
    },
    {
      "pitch": 47,
      "start_time": 12.5,
      "duration": 0.125,
      "velocity": 127
    },
    {
      "pitch": 42,
      "start_time": 12.75,
      "duration": 0.125,
      "velocity": 103
    },
    {
      "pitch": 42,
      "start_time": 12.875,
      "duration": 0.125,
      "velocity": 103
    },
    {
      "pitch": 42,
      "start_time": 13.0,
      "duration": 0.125,
      "velocity": 103
    },
    {
      "pitch": 42,
      "start_time": 13.25,
      "duration": 0.125,
      "velocity": 103
    },
    {
      "pitch": 36,
      "start_time": 13.5,
      "duration": 0.125,
      "velocity": 127
    },
    {
      "pitch": 42,
      "start_time": 13.75,
      "duration": 0.125,
      "velocity": 103
    },
    {
      "pitch": 39,
      "start_time": 14.0,
      "duration": 0.125,
      "velocity": 127
    },
    {
      "pitch": 42,
      "start_time": 14.25,
      "duration": 0.125,
      "velocity": 103
    },
    {
      "pitch": 42,
      "start_time": 14.5,
      "duration": 0.125,
      "velocity": 103
    },
    {
      "pitch": 51,
      "start_time": 14.75,
      "duration": 0.125,
      "velocity": 127
    },
    {
      "pitch": 41,
      "start_time": 15.0,
      "duration": 0.125,
      "velocity": 127
    },
    {
      "pitch": 42,
      "start_time": 15.25,
      "duration": 0.125,
      "velocity": 103
    },
    {
      "pitch": 42,
      "start_time": 15.5,
      "duration": 0.125,
      "velocity": 103
    },
    {
      "pitch": 43,
      "start_time": 15.75,
      "duration": 0.125,
      "velocity": 103
    },
    {
      "pitch": 43,
      "start_time": 15.875,
      "duration": 0.125,
      "velocity": 103
    }
  ]
}