{
  "source": {
    "song": "packs",
    "track_index": 0,
    "track_name": "Drum Essentials / MIDI Clips / 111 - 130 bpm / Emperor Kit groove 04_113 bpm",
    "slot_index": 0,
    "clip_name": "Drum Essentials / MIDI Clips / 111 - 130 bpm / Emperor Kit groove 04_113 bpm",
    "mid_file": "/Users/darnold/Music/Ableton/Packs/Drum Essentials/MIDI Clips/111 - 130 bpm/Emperor Kit groove 04_113 bpm.alc"
  },
  "meta": {
    "bpm": 113.0,
    "key": "?",
    "scale": "?",
    "length_beats": 8.0,
    "note_count": 55
  },
  "rhythm": {
    "density": 1.438,
    "hit_positions": [
      0.0,
      0.0,
      0.0,
      0.3333,
      0.5,
      0.5,
      0.8333,
      1.0,
      1.0,
      1.0,
      1.0,
      1.5,
      1.5,
      1.5,
      2.0,
      2.0,
      2.5,
      2.5,
      2.5,
      3.0,
      3.0,
      3.0,
      3.0,
      3.0,
      3.5,
      3.5,
      3.5,
      4.0,
      4.0,
      4.0,
      4.3333,
      4.5,
      4.5,
      4.8333,
      5.0,
      5.0,
      5.0,
      5.0,
      5.5,
      5.5,
      5.5,
      6.0,
      6.0,
      6.0,
      6.3333,
      6.5,
      6.5,
      6.8333,
      7.0,
      7.0,
      7.0,
      7.0,
      7.3333,
      7.5,
      7.5
    ],
    "ioi": [
      0.0,
      0.0,
      0.3333,
      0.1667,
      0.0,
      0.3333,
      0.1667,
      0.0,
      0.0,
      0.0,
      0.5,
      0.0,
      0.0,
      0.5,
      0.0,
      0.5,
      0.0,
      0.0,
      0.5,
      0.0,
      0.0,
      0.0,
      0.0,
      0.5,
      0.0,
      0.0,
      0.5,
      0.0,
      0.0,
      0.3333,
      0.1667,
      0.0,
      0.3333,
      0.1667,
      0.0,
      0.0,
      0.0,
      0.5,
      0.0,
      0.0,
      0.5,
      0.0,
      0.0,
      0.3333,
      0.1667,
      0.0,
      0.3333,
      0.1667,
      0.0,
      0.0,
      0.0,
      0.3333,
      0.1667,
      0.0,
      0.5
    ],
    "grid": "8th",
    "euclidean_approx": [
      32,
      32
    ],
    "swing_ratio": 1.333
  },
  "pitch": {
    "notes_used": [
      36,
      37,
      38,
      39,
      42,
      44,
      48
    ],
    "intervals": [
      6,
      6,
      12,
      6,
      6,
      4,
      6,
      1,
      3,
      6,
      12,
      6,
      6,
      6,
      6,
      12,
      6,
      6,
      11,
      1,
      1,
      3,
      6,
      12,
      6,
      6,
      12,
      6,
      6,
      12,
      6,
      6,
      4,
      6,
      1,
      3,
      6,
      12,
      6,
      6,
      12,
      6,
      6,
      4,
      2,
      6,
      12,
      2,
      1,
      3,
      6,
      4,
      8,
      12
    ],
    "register": "low",
    "is_melodic": true,
    "pitch_range": 12,
    "pitch_distribution": {
      "36": 11,
      "42": 15,
      "48": 16,
      "44": 4,
      "38": 4,
      "39": 4,
      "37": 1
    }
  },
  "velocity": {
    "mean": 41.4,
    "variance": 244.5,
    "std": 15.6,
    "accents": [
      7,
      20,
      34,
      38,
      48,
      52
    ],
    "profile": [
      40,
      36,
      36,
      38,
      22,
      41,
      42,
      74,
      38,
      41,
      29,
      51,
      32,
      34,
      24,
      38,
      56,
      50,
      35,
      6,
      78,
      29,
      55,
      43,
      37,
      29,
      40,
      56,
      41,
      52,
      34,
      28,
      36,
      36,
      101,
      17,
      53,
      22,
      62,
      41,
      30,
      45,
      39,
      27,
      41,
      33,
      36,
      42,
      64,
      32,
      43,
      37,
      70,
      53,
      34
    ]
  },
  "notes": [
    {
      "pitch": 36,
      "start_time": 0.0,
      "duration": 0.0282,
      "velocity": 40
    },
    {
      "pitch": 42,
      "start_time": 0.0,
      "duration": 0.0299,
      "velocity": 36
    },
    {
      "pitch": 48,
      "start_time": 0.0,
      "duration": 0.5,
      "velocity": 36
    },
    {
      "pitch": 36,
      "start_time": 0.3333,
      "duration": 0.0825,
      "velocity": 38
    },
    {
      "pitch": 42,
      "start_time": 0.5,
      "duration": 0.0955,
      "velocity": 22
    },
    {
      "pitch": 48,
      "start_time": 0.5,
      "duration": 0.5,
      "velocity": 41
    },
    {
      "pitch": 44,
      "start_time": 0.8333,
      "duration": 0.0732,
      "velocity": 42
    },
    {
      "pitch": 38,
      "start_time": 1.0,
      "duration": 0.0807,
      "velocity": 74
    },
    {
      "pitch": 39,
      "start_time": 1.0,
      "duration": 0.0977,
      "velocity": 38
    },
    {
      "pitch": 42,
      "start_time": 1.0,
      "duration": 0.0622,
      "velocity": 41
    },
    {
      "pitch": 48,
      "start_time": 1.0,
      "duration": 0.5,
      "velocity": 29
    },
    {
      "pitch": 36,
      "start_time": 1.5,
      "duration": 0.0963,
      "velocity": 51
    },
    {
      "pitch": 42,
      "start_time": 1.5,
      "duration": 0.0864,
      "velocity": 32
    },
    {
      "pitch": 48,
      "start_time": 1.5,
      "duration": 0.5,
      "velocity": 34
    },
    {
      "pitch": 42,
      "start_time": 2.0,
      "duration": 0.0974,
      "velocity": 24
    },
    {
      "pitch": 48,
      "start_time": 2.0,
      "duration": 0.5,
      "velocity": 38
    },
    {
      "pitch": 36,
      "start_time": 2.5,
      "duration": 0.0728,
      "velocity": 56
    },
    {
      "pitch": 42,
      "start_time": 2.5,
      "duration": 0.0963,
      "velocity": 50
    },
    {
      "pitch": 48,
      "start_time": 2.5,
      "duration": 0.5,
      "velocity": 35
    },
    {
      "pitch": 37,
      "start_time": 3.0,
      "duration": 0.0486,
      "velocity": 6
    },
    {
      "pitch": 38,
      "start_time": 3.0,
      "duration": 0.0773,
      "velocity": 78
    },
    {
      "pitch": 39,
      "start_time": 3.0,
      "duration": 0.0848,
      "velocity": 29
    },
    {
      "pitch": 42,
      "start_time": 3.0,
      "duration": 0.0593,
      "velocity": 55
    },
    {
      "pitch": 48,
      "start_time": 3.0,
      "duration": 0.5,
      "velocity": 43
    },
    {
      "pitch": 36,
      "start_time": 3.5,
      "duration": 0.0635,
      "velocity": 37
    },
    {
      "pitch": 42,
      "start_time": 3.5,
      "duration": 0.06,
      "velocity": 29
    },
    {
      "pitch": 48,
      "start_time": 3.5,
      "duration": 0.5,
      "velocity": 40
    },
    {
      "pitch": 36,
      "start_time": 4.0,
      "duration": 0.0679,
      "velocity": 56
    },
    {
      "pitch": 42,
      "start_time": 4.0,
      "duration": 0.0798,
      "velocity": 41
    },
    {
      "pitch": 48,
      "start_time": 4.0,
      "duration": 0.5,
      "velocity": 52
    },
    {
      "pitch": 36,
      "start_time": 4.3333,
      "duration": 0.0967,
      "velocity": 34
    },
    {
      "pitch": 42,
      "start_time": 4.5,
      "duration": 0.0796,
      "velocity": 28
    },
    {
      "pitch": 48,
      "start_time": 4.5,
      "duration": 0.1777,
      "velocity": 36
    },
    {
      "pitch": 44,
      "start_time": 4.8333,
      "duration": 0.0536,
      "velocity": 36
    },
    {
      "pitch": 38,
      "start_time": 5.0,
      "duration": 0.0811,
      "velocity": 101
    },
    {
      "pitch": 39,
      "start_time": 5.0,
      "duration": 0.0736,
      "velocity": 17
    },
    {
      "pitch": 42,
      "start_time": 5.0,
      "duration": 0.0542,
      "velocity": 53
    },
    {
      "pitch": 48,
      "start_time": 5.0,
      "duration": 0.5,
      "velocity": 22
    },
    {
      "pitch": 36,
      "start_time": 5.5,
      "duration": 0.084,
      "velocity": 62
    },
    {
      "pitch": 42,
      "start_time": 5.5,
      "duration": 0.086,
      "velocity": 41
    },
    {
      "pitch": 48,
      "start_time": 5.5,
      "duration": 0.5,
      "velocity": 30
    },
    {
      "pitch": 36,
      "start_time": 6.0,
      "duration": 0.0706,
      "velocity": 45
    },
    {
      "pitch": 42,
      "start_time": 6.0,
      "duration": 0.0856,
      "velocity": 39
    },
    {
      "pitch": 48,
      "start_time": 6.0,
      "duration": 0.5,
      "velocity": 27
    },
    {
      "pitch": 44,
      "start_time": 6.3333,
      "duration": 0.104,
      "velocity": 41
    },
    {
      "pitch": 42,
      "start_time": 6.5,
      "duration": 0.0932,
      "velocity": 33
    },
    {
      "pitch": 48,
      "start_time": 6.5,
      "duration": 0.5,
      "velocity": 36
    },
    {
      "pitch": 36,
      "start_time": 6.8333,
      "duration": 0.113,
      "velocity": 42
    },
    {
      "pitch": 38,
      "start_time": 7.0,
      "duration": 0.0474,
      "velocity": 64
    },
    {
      "pitch": 39,
      "start_time": 7.0,
      "duration": 0.1055,
      "velocity": 32
    },
    {
      "pitch": 42,
      "start_time": 7.0,
      "duration": 0.07,
      "velocity": 43
    },
    {
      "pitch": 48,
      "start_time": 7.0,
      "duration": 0.5,
      "velocity": 37
    },
    {
      "pitch": 44,
      "start_time": 7.3333,
      "duration": 0.1043,
      "velocity": 70
    },
    {
      "pitch": 36,
      "start_time": 7.5,
      "duration": 0.0955,
      "velocity": 53
    },
    {
      "pitch": 48,
      "start_time": 7.5,
      "duration": 0.5,
      "velocity": 34
    }
  ]
}