{
  "source": {
    "song": "packs",
    "track_index": 0,
    "track_name": "Drum Essentials / MIDI Clips / 91 - 110 bpm / Kindle Kit groove 02_110 bpm",
    "slot_index": 0,
    "clip_name": "Drum Essentials / MIDI Clips / 91 - 110 bpm / Kindle Kit groove 02_110 bpm",
    "mid_file": "/Users/darnold/Music/Ableton/Packs/Drum Essentials/MIDI Clips/91 - 110 bpm/Kindle Kit groove 02_110 bpm.alc"
  },
  "meta": {
    "bpm": 110.0,
    "key": "?",
    "scale": "?",
    "length_beats": 8.0,
    "note_count": 51
  },
  "rhythm": {
    "density": 0.781,
    "hit_positions": [
      0.0,
      0.0,
      0.0,
      0.25,
      0.5,
      0.5,
      0.75,
      1.0,
      1.0,
      1.0,
      1.5,
      2.0,
      2.0,
      2.5,
      2.5,
      2.5,
      3.0,
      3.0,
      3.0,
      3.5,
      3.5,
      3.5,
      3.75,
      4.0,
      4.0,
      4.25,
      4.5,
      4.5,
      4.75,
      5.0,
      5.0,
      5.0,
      5.5,
      5.5,
      6.0,
      6.0,
      6.0,
      6.5,
      6.5,
      6.5,
      6.5,
      6.75,
      7.0,
      7.0,
      7.0,
      7.1667,
      7.25,
      7.5,
      7.5,
      7.75,
      7.75
    ],
    "ioi": [
      0.0,
      0.0,
      0.25,
      0.25,
      0.0,
      0.25,
      0.25,
      0.0,
      0.0,
      0.5,
      0.5,
      0.0,
      0.5,
      0.0,
      0.0,
      0.5,
      0.0,
      0.0,
      0.5,
      0.0,
      0.0,
      0.25,
      0.25,
      0.0,
      0.25,
      0.25,
      0.0,
      0.25,
      0.25,
      0.0,
      0.0,
      0.5,
      0.0,
      0.5,
      0.0,
      0.0,
      0.5,
      0.0,
      0.0,
      0.0,
      0.25,
      0.25,
      0.0,
      0.0,
      0.1667,
      0.0833,
      0.25,
      0.0,
      0.25,
      0.0,
      0.25
    ],
    "grid": "16th",
    "euclidean_approx": [
      32,
      32
    ],
    "swing_ratio": 1.0
  },
  "pitch": {
    "notes_used": [
      36,
      37,
      39,
      40,
      41,
      42,
      43,
      44,
      47
    ],
    "intervals": [
      6,
      5,
      3,
      4,
      3,
      2,
      4,
      2,
      3,
      1,
      1,
      1,
      7,
      6,
      2,
      7,
      2,
      3,
      6,
      6,
      1,
      3,
      2,
      1,
      3,
      4,
      11,
      3,
      7,
      2,
      3,
      1,
      2,
      2,
      1,
      1,
      7,
      4,
      2,
      5,
      3,
      7,
      2,
      3,
      2,
      0,
      1,
      1,
      3,
      3
    ],
    "register": "low",
    "is_melodic": true,
    "pitch_range": 11,
    "pitch_distribution": {
      "36": 5,
      "42": 11,
      "47": 3,
      "44": 8,
      "40": 4,
      "43": 8,
      "41": 4,
      "37": 4,
      "39": 4
    }
  },
  "velocity": {
    "mean": 74.3,
    "variance": 962.2,
    "std": 31.0,
    "accents": [
      7,
      12,
      16,
      17,
      23,
      24,
      29,
      31,
      36,
      43
    ],
    "profile": [
      94,
      81,
      91,
      53,
      83,
      81,
      61,
      115,
      96,
      104,
      87,
      73,
      127,
      41,
      30,
      91,
      108,
      119,
      92,
      50,
      41,
      79,
      35,
      106,
      126,
      25,
      79,
      50,
      45,
      121,
      99,
      116,
      61,
      74,
      13,
      89,
      122,
      56,
      58,
      44,
      86,
      50,
      98,
      118,
      89,
      46,
      26,
      57,
      36,
      29,
      40
    ]
  },
  "notes": [
    {
      "pitch": 36,
      "start_time": 0.0,
      "duration": 0.0833,
      "velocity": 94
    },
    {
      "pitch": 42,
      "start_time": 0.0,
      "duration": 0.0833,
      "velocity": 81
    },
    {
      "pitch": 47,
      "start_time": 0.0,
      "duration": 0.0521,
      "velocity": 91
    },
    {
      "pitch": 44,
      "start_time": 0.25,
      "duration": 0.1042,
      "velocity": 53
    },
    {
      "pitch": 40,
      "start_time": 0.5,
      "duration": 0.1042,
      "velocity": 83
    },
    {
      "pitch": 43,
      "start_time": 0.5,
      "duration": 0.0625,
      "velocity": 81
    },
    {
      "pitch": 41,
      "start_time": 0.75,
      "duration": 0.0521,
      "velocity": 61
    },
    {
      "pitch": 37,
      "start_time": 1.0,
      "duration": 0.0729,
      "velocity": 115
    },
    {
      "pitch": 39,
      "start_time": 1.0,
      "duration": 0.0521,
      "velocity": 96
    },
    {
      "pitch": 42,
      "start_time": 1.0,
      "duration": 0.0625,
      "velocity": 104
    },
    {
      "pitch": 43,
      "start_time": 1.5,
      "duration": 0.0521,
      "velocity": 87
    },
    {
      "pitch": 42,
      "start_time": 2.0,
      "duration": 0.0938,
      "velocity": 73
    },
    {
      "pitch": 43,
      "start_time": 2.0,
      "duration": 0.0833,
      "velocity": 127
    },
    {
      "pitch": 36,
      "start_time": 2.5,
      "duration": 0.0729,
      "velocity": 41
    },
    {
      "pitch": 42,
      "start_time": 2.5,
      "duration": 0.0625,
      "velocity": 30
    },
    {
      "pitch": 44,
      "start_time": 2.5,
      "duration": 0.125,
      "velocity": 91
    },
    {
      "pitch": 37,
      "start_time": 3.0,
      "duration": 0.0625,
      "velocity": 108
    },
    {
      "pitch": 39,
      "start_time": 3.0,
      "duration": 0.0521,
      "velocity": 119
    },
    {
      "pitch": 42,
      "start_time": 3.0,
      "duration": 0.0833,
      "velocity": 92
    },
    {
      "pitch": 36,
      "start_time": 3.5,
      "duration": 0.0625,
      "velocity": 50
    },
    {
      "pitch": 42,
      "start_time": 3.5,
      "duration": 0.0833,
      "velocity": 41
    },
    {
      "pitch": 43,
      "start_time": 3.5,
      "duration": 0.0521,
      "velocity": 79
    },
    {
      "pitch": 40,
      "start_time": 3.75,
      "duration": 0.0729,
      "velocity": 35
    },
    {
      "pitch": 42,
      "start_time": 4.0,
      "duration": 0.0938,
      "velocity": 106
    },
    {
      "pitch": 43,
      "start_time": 4.0,
      "duration": 0.1042,
      "velocity": 126
    },
    {
      "pitch": 40,
      "start_time": 4.25,
      "duration": 0.0521,
      "velocity": 25
    },
    {
      "pitch": 36,
      "start_time": 4.5,
      "duration": 0.0833,
      "velocity": 79
    },
    {
      "pitch": 47,
      "start_time": 4.5,
      "duration": 0.0417,
      "velocity": 50
    },
    {
      "pitch": 44,
      "start_time": 4.75,
      "duration": 0.0729,
      "velocity": 45
    },
    {
      "pitch": 37,
      "start_time": 5.0,
      "duration": 0.0729,
      "velocity": 121
    },
    {
      "pitch": 39,
      "start_time": 5.0,
      "duration": 0.0625,
      "velocity": 99
    },
    {
      "pitch": 42,
      "start_time": 5.0,
      "duration": 0.0729,
      "velocity": 116
    },
    {
      "pitch": 41,
      "start_time": 5.5,
      "duration": 0.0625,
      "velocity": 61
    },
    {
      "pitch": 43,
      "start_time": 5.5,
      "duration": 0.0417,
      "velocity": 74
    },
    {
      "pitch": 41,
      "start_time": 6.0,
      "duration": 0.0417,
      "velocity": 13
    },
    {
      "pitch": 42,
      "start_time": 6.0,
      "duration": 0.0938,
      "velocity": 89
    },
    {
      "pitch": 43,
      "start_time": 6.0,
      "duration": 0.0833,
      "velocity": 122
    },
    {
      "pitch": 36,
      "start_time": 6.5,
      "duration": 0.0729,
      "velocity": 56
    },
    {
      "pitch": 40,
      "start_time": 6.5,
      "duration": 0.0521,
      "velocity": 58
    },
    {
      "pitch": 42,
      "start_time": 6.5,
      "duration": 0.0833,
      "velocity": 44
    },
    {
      "pitch": 47,
      "start_time": 6.5,
      "duration": 0.0521,
      "velocity": 86
    },
    {
      "pitch": 44,
      "start_time": 6.75,
      "duration": 0.1042,
      "velocity": 50
    },
    {
      "pitch": 37,
      "start_time": 7.0,
      "duration": 0.0625,
      "velocity": 98
    },
    {
      "pitch": 39,
      "start_time": 7.0,
      "duration": 0.0521,
      "velocity": 118
    },
    {
      "pitch": 42,
      "start_time": 7.0,
      "duration": 0.0833,
      "velocity": 89
    },
    {
      "pitch": 44,
      "start_time": 7.1667,
      "duration": 0.0833,
      "velocity": 46
    },
    {
      "pitch": 44,
      "start_time": 7.25,
      "duration": 0.25,
      "velocity": 26
    },
    {
      "pitch": 43,
      "start_time": 7.5,
      "duration": 0.0417,
      "velocity": 57
    },
    {
      "pitch": 44,
      "start_time": 7.5,
      "duration": 0.25,
      "velocity": 36
    },
    {
      "pitch": 41,
      "start_time": 7.75,
      "duration": 0.0312,
      "velocity": 29
    },
    {
      "pitch": 44,
      "start_time": 7.75,
      "duration": 0.125,
      "velocity": 40
    }
  ]
}