{
  "source": {
    "song": "packs",
    "track_index": 0,
    "track_name": "Drum Essentials / MIDI Clips / 91 - 110 bpm / Kimbo Kit groove 03_94 bpm",
    "slot_index": 0,
    "clip_name": "Drum Essentials / MIDI Clips / 91 - 110 bpm / Kimbo Kit groove 03_94 bpm",
    "mid_file": "/Users/darnold/Music/Ableton/Packs/Drum Essentials/MIDI Clips/91 - 110 bpm/Kimbo Kit groove 03_94 bpm.alc"
  },
  "meta": {
    "bpm": 94.0,
    "key": "?",
    "scale": "?",
    "length_beats": 8.0,
    "note_count": 41
  },
  "rhythm": {
    "density": 1.75,
    "hit_positions": [
      0.0,
      0.0,
      0.3333,
      0.5,
      0.8333,
      1.0,
      1.3333,
      1.5,
      1.5,
      1.8333,
      2.0,
      2.5,
      2.5,
      2.8333,
      3.0,
      3.0,
      3.0,
      3.0,
      3.5,
      3.5,
      4.0,
      4.0,
      4.0,
      4.3333,
      4.5,
      4.8333,
      5.0,
      5.3333,
      5.5,
      5.5,
      5.5,
      5.8333,
      6.0,
      6.3333,
      6.5,
      6.8333,
      7.0,
      7.0,
      7.0,
      7.3333,
      7.5
    ],
    "ioi": [
      0.0,
      0.3333,
      0.1667,
      0.3333,
      0.1667,
      0.3333,
      0.1667,
      0.0,
      0.3333,
      0.1667,
      0.5,
      0.0,
      0.3333,
      0.1667,
      0.0,
      0.0,
      0.0,
      0.5,
      0.0,
      0.5,
      0.0,
      0.0,
      0.3333,
      0.1667,
      0.3333,
      0.1667,
      0.3333,
      0.1667,
      0.0,
      0.0,
      0.3333,
      0.1667,
      0.3333,
      0.1667,
      0.3333,
      0.1667,
      0.0,
      0.0,
      0.3333,
      0.1667,
      0.5
    ],
    "grid": "8th",
    "euclidean_approx": [
      32,
      32
    ],
    "swing_ratio": 1.333
  },
  "pitch": {
    "notes_used": [
      36,
      37,
      38,
      40,
      42,
      43,
      44,
      51
    ],
    "intervals": [
      6,
      6,
      6,
      2,
      2,
      6,
      2,
      4,
      1,
      1,
      0,
      9,
      15,
      1,
      1,
      4,
      9,
      9,
      9,
      15,
      6,
      9,
      15,
      6,
      2,
      2,
      6,
      2,
      2,
      2,
      1,
      1,
      6,
      6,
      2,
      7,
      1,
      4,
      6,
      15
    ],
    "register": "low",
    "is_melodic": true,
    "pitch_range": 15,
    "pitch_distribution": {
      "36": 9,
      "42": 15,
      "44": 3,
      "38": 4,
      "43": 2,
      "51": 5,
      "37": 2,
      "40": 1
    }
  },
  "velocity": {
    "mean": 40.9,
    "variance": 276.2,
    "std": 16.6,
    "accents": [
      7,
      15,
      16,
      28,
      30,
      37,
      38,
      39
    ],
    "profile": [
      56,
      38,
      34,
      29,
      52,
      24,
      22,
      71,
      49,
      28,
      36,
      29,
      3,
      26,
      33,
      74,
      65,
      31,
      40,
      46,
      43,
      35,
      57,
      46,
      31,
      52,
      23,
      31,
      73,
      37,
      65,
      22,
      42,
      42,
      29,
      21,
      30,
      67,
      61,
      59,
      24
    ]
  },
  "notes": [
    {
      "pitch": 36,
      "start_time": 0.0,
      "duration": 0.0778,
      "velocity": 56
    },
    {
      "pitch": 42,
      "start_time": 0.0,
      "duration": 0.0639,
      "velocity": 38
    },
    {
      "pitch": 36,
      "start_time": 0.3333,
      "duration": 0.0864,
      "velocity": 34
    },
    {
      "pitch": 42,
      "start_time": 0.5,
      "duration": 0.0611,
      "velocity": 29
    },
    {
      "pitch": 44,
      "start_time": 0.8333,
      "duration": 0.09,
      "velocity": 52
    },
    {
      "pitch": 42,
      "start_time": 1.0,
      "duration": 0.0603,
      "velocity": 24
    },
    {
      "pitch": 36,
      "start_time": 1.3333,
      "duration": 0.0777,
      "velocity": 22
    },
    {
      "pitch": 38,
      "start_time": 1.5,
      "duration": 0.0713,
      "velocity": 71
    },
    {
      "pitch": 42,
      "start_time": 1.5,
      "duration": 0.0426,
      "velocity": 49
    },
    {
      "pitch": 43,
      "start_time": 1.8333,
      "duration": 0.0817,
      "velocity": 28
    },
    {
      "pitch": 42,
      "start_time": 2.0,
      "duration": 0.073,
      "velocity": 36
    },
    {
      "pitch": 42,
      "start_time": 2.5,
      "duration": 0.0681,
      "velocity": 29
    },
    {
      "pitch": 51,
      "start_time": 2.5,
      "duration": 0.0086,
      "velocity": 3
    },
    {
      "pitch": 36,
      "start_time": 2.8333,
      "duration": 0.0708,
      "velocity": 26
    },
    {
      "pitch": 37,
      "start_time": 3.0,
      "duration": 0.1001,
      "velocity": 33
    },
    {
      "pitch": 38,
      "start_time": 3.0,
      "duration": 0.0777,
      "velocity": 74
    },
    {
      "pitch": 42,
      "start_time": 3.0,
      "duration": 0.0819,
      "velocity": 65
    },
    {
      "pitch": 51,
      "start_time": 3.0,
      "duration": 0.0364,
      "velocity": 31
    },
    {
      "pitch": 42,
      "start_time": 3.5,
      "duration": 0.0822,
      "velocity": 40
    },
    {
      "pitch": 51,
      "start_time": 3.5,
      "duration": 0.0488,
      "velocity": 46
    },
    {
      "pitch": 36,
      "start_time": 4.0,
      "duration": 0.0635,
      "velocity": 43
    },
    {
      "pitch": 42,
      "start_time": 4.0,
      "duration": 0.0766,
      "velocity": 35
    },
    {
      "pitch": 51,
      "start_time": 4.0,
      "duration": 0.0537,
      "velocity": 57
    },
    {
      "pitch": 36,
      "start_time": 4.3333,
      "duration": 0.1179,
      "velocity": 46
    },
    {
      "pitch": 42,
      "start_time": 4.5,
      "duration": 0.0767,
      "velocity": 31
    },
    {
      "pitch": 44,
      "start_time": 4.8333,
      "duration": 0.0936,
      "velocity": 52
    },
    {
      "pitch": 42,
      "start_time": 5.0,
      "duration": 0.0595,
      "velocity": 23
    },
    {
      "pitch": 36,
      "start_time": 5.3333,
      "duration": 0.0877,
      "velocity": 31
    },
    {
      "pitch": 38,
      "start_time": 5.5,
      "duration": 0.064,
      "velocity": 73
    },
    {
      "pitch": 40,
      "start_time": 5.5,
      "duration": 0.0455,
      "velocity": 37
    },
    {
      "pitch": 42,
      "start_time": 5.5,
      "duration": 0.0701,
      "velocity": 65
    },
    {
      "pitch": 43,
      "start_time": 5.8333,
      "duration": 0.0776,
      "velocity": 22
    },
    {
      "pitch": 42,
      "start_time": 6.0,
      "duration": 0.1005,
      "velocity": 42
    },
    {
      "pitch": 36,
      "start_time": 6.3333,
      "duration": 0.0989,
      "velocity": 42
    },
    {
      "pitch": 42,
      "start_time": 6.5,
      "duration": 0.0838,
      "velocity": 29
    },
    {
      "pitch": 44,
      "start_time": 6.8333,
      "duration": 0.0361,
      "velocity": 21
    },
    {
      "pitch": 37,
      "start_time": 7.0,
      "duration": 0.1127,
      "velocity": 30
    },
    {
      "pitch": 38,
      "start_time": 7.0,
      "duration": 0.0586,
      "velocity": 67
    },
    {
      "pitch": 42,
      "start_time": 7.0,
      "duration": 0.0724,
      "velocity": 61
    },
    {
      "pitch": 36,
      "start_time": 7.3333,
      "duration": 0.1161,
      "velocity": 59
    },
    {
      "pitch": 51,
      "start_time": 7.5,
      "duration": 0.061,
      "velocity": 24
    }
  ]
}