{
  "source": {
    "song": "packs",
    "track_index": 0,
    "track_name": "Drum Essentials / MIDI Clips / 60 - 90 bpm / Memphis Studio Kit groove 01_84 bpm",
    "slot_index": 0,
    "clip_name": "Drum Essentials / MIDI Clips / 60 - 90 bpm / Memphis Studio Kit groove 01_84 bpm",
    "mid_file": "/Users/darnold/Music/Ableton/Packs/Drum Essentials/MIDI Clips/60 - 90 bpm/Memphis Studio Kit groove 01_84 bpm.alc"
  },
  "meta": {
    "bpm": 84.0,
    "key": "?",
    "scale": "?",
    "length_beats": 8.0,
    "note_count": 55
  },
  "rhythm": {
    "density": 1.0,
    "hit_positions": [
      0.0,
      0.0071,
      0.25,
      0.2571,
      0.5,
      0.5071,
      0.7571,
      1.0,
      1.0071,
      1.2571,
      1.5,
      1.5071,
      1.75,
      1.7571,
      2.0,
      2.0071,
      2.25,
      2.5,
      2.5071,
      2.75,
      2.7571,
      3.0,
      3.0,
      3.0071,
      3.2571,
      3.5,
      3.5071,
      3.7571,
      4.0071,
      4.2571,
      4.5,
      4.5,
      4.5071,
      4.7571,
      5.0,
      5.0071,
      5.2571,
      5.5,
      5.5071,
      5.75,
      5.75,
      6.0,
      6.0071,
      6.2571,
      6.5,
      6.5071,
      6.75,
      6.7571,
      7.0,
      7.0,
      7.0071,
      7.25,
      7.5,
      7.5,
      7.75
    ],
    "ioi": [
      0.0071,
      0.2429,
      0.0071,
      0.2429,
      0.0071,
      0.25,
      0.2429,
      0.0071,
      0.25,
      0.2429,
      0.0071,
      0.2429,
      0.0071,
      0.2429,
      0.0071,
      0.2429,
      0.25,
      0.0071,
      0.2429,
      0.0071,
      0.2429,
      0.0,
      0.0071,
      0.25,
      0.2429,
      0.0071,
      0.25,
      0.25,
      0.25,
      0.2429,
      0.0,
      0.0071,
      0.25,
      0.2429,
      0.0071,
      0.25,
      0.2429,
      0.0071,
      0.2429,
      0.0,
      0.25,
      0.0071,
      0.25,
      0.2429,
      0.0071,
      0.2429,
      0.0071,
      0.2429,
      0.0,
      0.0071,
      0.2429,
      0.25,
      0.0,
      0.25,
      0.25
    ],
    "grid": "16th",
    "euclidean_approx": [
      32,
      32
    ],
    "swing_ratio": 1.016
  },
  "pitch": {
    "notes_used": [
      36,
      38,
      39,
      42,
      44,
      46,
      48
    ],
    "intervals": [
      6,
      6,
      6,
      6,
      6,
      0,
      4,
      4,
      0,
      6,
      6,
      6,
      6,
      6,
      6,
      4,
      2,
      6,
      6,
      6,
      4,
      1,
      3,
      0,
      6,
      6,
      0,
      0,
      0,
      6,
      12,
      6,
      0,
      4,
      4,
      0,
      6,
      6,
      6,
      10,
      10,
      6,
      0,
      6,
      6,
      6,
      6,
      4,
      1,
      3,
      4,
      0,
      6,
      6
    ],
    "register": "low",
    "is_melodic": true,
    "pitch_range": 12,
    "pitch_distribution": {
      "36": 9,
      "42": 27,
      "48": 7,
      "38": 7,
      "46": 2,
      "39": 2,
      "44": 1
    }
  },
  "velocity": {
    "mean": 46.9,
    "variance": 765.7,
    "std": 27.7,
    "accents": [
      0,
      7,
      17,
      21,
      22,
      34,
      41,
      48,
      49,
      53
    ],
    "profile": [
      93,
      64,
      45,
      17,
      48,
      27,
      23,
      92,
      51,
      24,
      28,
      24,
      17,
      16,
      71,
      41,
      60,
      81,
      24,
      17,
      5,
      90,
      99,
      61,
      25,
      38,
      25,
      18,
      24,
      29,
      66,
      70,
      39,
      25,
      90,
      71,
      27,
      38,
      24,
      23,
      45,
      93,
      62,
      15,
      64,
      25,
      33,
      22,
      95,
      102,
      72,
      10,
      39,
      89,
      65
    ]
  },
  "notes": [
    {
      "pitch": 36,
      "start_time": 0.0,
      "duration": 0.0409,
      "velocity": 93
    },
    {
      "pitch": 42,
      "start_time": 0.0071,
      "duration": 0.0441,
      "velocity": 64
    },
    {
      "pitch": 36,
      "start_time": 0.25,
      "duration": 0.0445,
      "velocity": 45
    },
    {
      "pitch": 42,
      "start_time": 0.2571,
      "duration": 0.0324,
      "velocity": 17
    },
    {
      "pitch": 48,
      "start_time": 0.5,
      "duration": 0.0379,
      "velocity": 48
    },
    {
      "pitch": 42,
      "start_time": 0.5071,
      "duration": 0.0632,
      "velocity": 27
    },
    {
      "pitch": 42,
      "start_time": 0.7571,
      "duration": 0.0426,
      "velocity": 23
    },
    {
      "pitch": 38,
      "start_time": 1.0,
      "duration": 0.0615,
      "velocity": 92
    },
    {
      "pitch": 42,
      "start_time": 1.0071,
      "duration": 0.0358,
      "velocity": 51
    },
    {
      "pitch": 42,
      "start_time": 1.2571,
      "duration": 0.0503,
      "velocity": 24
    },
    {
      "pitch": 48,
      "start_time": 1.5,
      "duration": 0.0807,
      "velocity": 28
    },
    {
      "pitch": 42,
      "start_time": 1.5071,
      "duration": 0.0465,
      "velocity": 24
    },
    {
      "pitch": 36,
      "start_time": 1.75,
      "duration": 0.0327,
      "velocity": 17
    },
    {
      "pitch": 42,
      "start_time": 1.7571,
      "duration": 0.0329,
      "velocity": 16
    },
    {
      "pitch": 36,
      "start_time": 2.0,
      "duration": 0.0881,
      "velocity": 71
    },
    {
      "pitch": 42,
      "start_time": 2.0071,
      "duration": 0.076,
      "velocity": 41
    },
    {
      "pitch": 46,
      "start_time": 2.25,
      "duration": 0.1354,
      "velocity": 60
    },
    {
      "pitch": 48,
      "start_time": 2.5,
      "duration": 0.0886,
      "velocity": 81
    },
    {
      "pitch": 42,
      "start_time": 2.5071,
      "duration": 0.0474,
      "velocity": 24
    },
    {
      "pitch": 36,
      "start_time": 2.75,
      "duration": 0.0327,
      "velocity": 17
    },
    {
      "pitch": 42,
      "start_time": 2.7571,
      "duration": 0.0329,
      "velocity": 5
    },
    {
      "pitch": 38,
      "start_time": 3.0,
      "duration": 0.067,
      "velocity": 90
    },
    {
      "pitch": 39,
      "start_time": 3.0,
      "duration": 0.1426,
      "velocity": 99
    },
    {
      "pitch": 42,
      "start_time": 3.0071,
      "duration": 0.0644,
      "velocity": 61
    },
    {
      "pitch": 42,
      "start_time": 3.2571,
      "duration": 0.0706,
      "velocity": 25
    },
    {
      "pitch": 48,
      "start_time": 3.5,
      "duration": 0.0761,
      "velocity": 38
    },
    {
      "pitch": 42,
      "start_time": 3.5071,
      "duration": 0.0568,
      "velocity": 25
    },
    {
      "pitch": 42,
      "start_time": 3.7571,
      "duration": 0.048,
      "velocity": 18
    },
    {
      "pitch": 42,
      "start_time": 4.0071,
      "duration": 0.0699,
      "velocity": 24
    },
    {
      "pitch": 42,
      "start_time": 4.2571,
      "duration": 0.0697,
      "velocity": 29
    },
    {
      "pitch": 36,
      "start_time": 4.5,
      "duration": 0.0683,
      "velocity": 66
    },
    {
      "pitch": 48,
      "start_time": 4.5,
      "duration": 0.1023,
      "velocity": 70
    },
    {
      "pitch": 42,
      "start_time": 4.5071,
      "duration": 0.0607,
      "velocity": 39
    },
    {
      "pitch": 42,
      "start_time": 4.7571,
      "duration": 0.0738,
      "velocity": 25
    },
    {
      "pitch": 38,
      "start_time": 5.0,
      "duration": 0.0799,
      "velocity": 90
    },
    {
      "pitch": 42,
      "start_time": 5.0071,
      "duration": 0.0739,
      "velocity": 71
    },
    {
      "pitch": 42,
      "start_time": 5.2571,
      "duration": 0.0771,
      "velocity": 27
    },
    {
      "pitch": 48,
      "start_time": 5.5,
      "duration": 0.0975,
      "velocity": 38
    },
    {
      "pitch": 42,
      "start_time": 5.5071,
      "duration": 0.0505,
      "velocity": 24
    },
    {
      "pitch": 36,
      "start_time": 5.75,
      "duration": 0.0369,
      "velocity": 23
    },
    {
      "pitch": 46,
      "start_time": 5.75,
      "duration": 0.1333,
      "velocity": 45
    },
    {
      "pitch": 36,
      "start_time": 6.0,
      "duration": 0.0884,
      "velocity": 93
    },
    {
      "pitch": 42,
      "start_time": 6.0071,
      "duration": 0.0859,
      "velocity": 62
    },
    {
      "pitch": 42,
      "start_time": 6.2571,
      "duration": 0.0755,
      "velocity": 15
    },
    {
      "pitch": 48,
      "start_time": 6.5,
      "duration": 0.085,
      "velocity": 64
    },
    {
      "pitch": 42,
      "start_time": 6.5071,
      "duration": 0.0562,
      "velocity": 25
    },
    {
      "pitch": 36,
      "start_time": 6.75,
      "duration": 0.0476,
      "velocity": 33
    },
    {
      "pitch": 42,
      "start_time": 6.7571,
      "duration": 0.0465,
      "velocity": 22
    },
    {
      "pitch": 38,
      "start_time": 7.0,
      "duration": 0.0656,
      "velocity": 95
    },
    {
      "pitch": 39,
      "start_time": 7.0,
      "duration": 0.107,
      "velocity": 102
    },
    {
      "pitch": 42,
      "start_time": 7.0071,
      "duration": 0.0744,
      "velocity": 72
    },
    {
      "pitch": 38,
      "start_time": 7.25,
      "duration": 0.0913,
      "velocity": 10
    },
    {
      "pitch": 38,
      "start_time": 7.5,
      "duration": 0.0792,
      "velocity": 39
    },
    {
      "pitch": 44,
      "start_time": 7.5,
      "duration": 0.0813,
      "velocity": 89
    },
    {
      "pitch": 38,
      "start_time": 7.75,
      "duration": 0.0569,
      "velocity": 65
    }
  ]
}