{
  "source": {
    "song": "packs",
    "track_index": 0,
    "track_name": "Drum Essentials / MIDI Clips / 111 - 130 bpm / Timefold Kit groove 01_130 bpm",
    "slot_index": 0,
    "clip_name": "Drum Essentials / MIDI Clips / 111 - 130 bpm / Timefold Kit groove 01_130 bpm",
    "mid_file": "/Users/darnold/Music/Ableton/Packs/Drum Essentials/MIDI Clips/111 - 130 bpm/Timefold Kit groove 01_130 bpm.alc"
  },
  "meta": {
    "bpm": 130.0,
    "key": "?",
    "scale": "?",
    "length_beats": 16.0,
    "note_count": 54
  },
  "rhythm": {
    "density": 0.812,
    "hit_positions": [
      0.0,
      0.5,
      1.0,
      1.25,
      1.5,
      1.75,
      2.0,
      2.2396,
      2.5,
      3.0,
      3.5,
      3.75,
      4.0,
      4.0,
      4.5,
      4.75,
      5.0,
      5.25,
      5.5,
      6.0,
      6.25,
      6.5,
      6.75,
      7.0,
      7.5,
      7.75,
      7.875,
      8.0,
      8.5,
      8.75,
      9.0,
      9.5,
      10.0,
      10.25,
      10.5,
      11.0,
      11.25,
      11.5,
      11.75,
      12.0,
      12.0,
      12.5,
      12.75,
      13.0,
      13.25,
      13.5,
      14.0,
      14.25,
      14.5,
      14.75,
      15.0,
      15.5,
      15.75,
      15.875
    ],
    "ioi": [
      0.5,
      0.5,
      0.25,
      0.25,
      0.25,
      0.25,
      0.2396,
      0.2604,
      0.5,
      0.5,
      0.25,
      0.25,
      0.0,
      0.5,
      0.25,
      0.25,
      0.25,
      0.25,
      0.5,
      0.25,
      0.25,
      0.25,
      0.25,
      0.5,
      0.25,
      0.125,
      0.125,
      0.5,
      0.25,
      0.25,
      0.5,
      0.5,
      0.25,
      0.25,
      0.5,
      0.25,
      0.25,
      0.25,
      0.25,
      0.0,
      0.5,
      0.25,
      0.25,
      0.25,
      0.25,
      0.5,
      0.25,
      0.25,
      0.25,
      0.25,
      0.5,
      0.25,
      0.125,
      0.125
    ],
    "grid": "16th",
    "euclidean_approx": [
      54,
      64
    ],
    "swing_ratio": 1.053
  },
  "pitch": {
    "notes_used": [
      36,
      37,
      38,
      39,
      40,
      41,
      42,
      43,
      44,
      45,
      46,
      47,
      48,
      49,
      50,
      51
    ],
    "intervals": [
      6,
      2,
      2,
      0,
      0,
      5,
      4,
      1,
      3,
      3,
      0,
      3,
      1,
      4,
      0,
      0,
      6,
      12,
      2,
      4,
      0,
      0,
      8,
      8,
      5,
      0,
      1,
      6,
      0,
      2,
      2,
      4,
      5,
      1,
      1,
      1,
      0,
      0,
      4,
      5,
      9,
      0,
      0,
      6,
      12,
      2,
      4,
      0,
      0,
      7,
      7,
      5,
      0
    ],
    "register": "low",
    "is_melodic": true,
    "pitch_range": 15,
    "pitch_distribution": {
      "36": 4,
      "42": 28,
      "44": 1,
      "47": 1,
      "43": 2,
      "39": 1,
      "45": 1,
      "46": 2,
      "48": 2,
      "38": 3,
      "50": 1,
      "37": 4,
      "40": 1,
      "41": 1,
      "51": 1,
      "49": 1
    }
  },
  "velocity": {
    "mean": 97.9,
    "variance": 660.2,
    "std": 25.7,
    "accents": [
      0,
      2,
      6,
      7,
      12,
      17,
      18,
      19,
      23,
      25,
      26,
      27,
      30,
      32,
      35,
      40,
      44,
      45,
      46,
      50,
      52,
      53
    ],
    "profile": [
      127,
      72,
      127,
      72,
      72,
      79,
      127,
      127,
      72,
      89,
      72,
      79,
      127,
      103,
      72,
      72,
      72,
      127,
      127,
      127,
      72,
      72,
      103,
      127,
      72,
      127,
      127,
      127,
      72,
      72,
      127,
      72,
      127,
      103,
      72,
      127,
      72,
      72,
      72,
      103,
      127,
      72,
      72,
      72,
      127,
      127,
      127,
      72,
      72,
      103,
      127,
      72,
      127,
      127
    ]
  },
  "notes": [
    {
      "pitch": 36,
      "start_time": 0.0,
      "duration": 0.125,
      "velocity": 127
    },
    {
      "pitch": 42,
      "start_time": 0.5,
      "duration": 0.125,
      "velocity": 72
    },
    {
      "pitch": 44,
      "start_time": 1.0,
      "duration": 0.125,
      "velocity": 127
    },
    {
      "pitch": 42,
      "start_time": 1.25,
      "duration": 0.125,
      "velocity": 72
    },
    {
      "pitch": 42,
      "start_time": 1.5,
      "duration": 0.125,
      "velocity": 72
    },
    {
      "pitch": 42,
      "start_time": 1.75,
      "duration": 0.125,
      "velocity": 79
    },
    {
      "pitch": 47,
      "start_time": 2.0,
      "duration": 0.125,
      "velocity": 127
    },
    {
      "pitch": 43,
      "start_time": 2.2396,
      "duration": 0.1354,
      "velocity": 127
    },
    {
      "pitch": 42,
      "start_time": 2.5,
      "duration": 0.125,
      "velocity": 72
    },
    {
      "pitch": 39,
      "start_time": 3.0,
      "duration": 0.125,
      "velocity": 89
    },
    {
      "pitch": 42,
      "start_time": 3.5,
      "duration": 0.125,
      "velocity": 72
    },
    {
      "pitch": 42,
      "start_time": 3.75,
      "duration": 0.125,
      "velocity": 79
    },
    {
      "pitch": 45,
      "start_time": 4.0,
      "duration": 0.125,
      "velocity": 127
    },
    {
      "pitch": 46,
      "start_time": 4.0,
      "duration": 0.125,
      "velocity": 103
    },
    {
      "pitch": 42,
      "start_time": 4.5,
      "duration": 0.125,
      "velocity": 72
    },
    {
      "pitch": 42,
      "start_time": 4.75,
      "duration": 0.125,
      "velocity": 72
    },
    {
      "pitch": 42,
      "start_time": 5.0,
      "duration": 0.125,
      "velocity": 72
    },
    {
      "pitch": 48,
      "start_time": 5.25,
      "duration": 0.125,
      "velocity": 127
    },
    {
      "pitch": 36,
      "start_time": 5.5,
      "duration": 0.125,
      "velocity": 127
    },
    {
      "pitch": 38,
      "start_time": 6.0,
      "duration": 0.125,
      "velocity": 127
    },
    {
      "pitch": 42,
      "start_time": 6.25,
      "duration": 0.125,
      "velocity": 72
    },
    {
      "pitch": 42,
      "start_time": 6.5,
      "duration": 0.125,
      "velocity": 72
    },
    {
      "pitch": 42,
      "start_time": 6.75,
      "duration": 0.125,
      "velocity": 103
    },
    {
      "pitch": 50,
      "start_time": 7.0,
      "duration": 0.125,
      "velocity": 127
    },
    {
      "pitch": 42,
      "start_time": 7.5,
      "duration": 0.125,
      "velocity": 72
    },
    {
      "pitch": 37,
      "start_time": 7.75,
      "duration": 0.125,
      "velocity": 127
    },
    {
      "pitch": 37,
      "start_time": 7.875,
      "duration": 0.125,
      "velocity": 127
    },
    {
      "pitch": 36,
      "start_time": 8.0,
      "duration": 0.125,
      "velocity": 127
    },
    {
      "pitch": 42,
      "start_time": 8.5,
      "duration": 0.125,
      "velocity": 72
    },
    {
      "pitch": 42,
      "start_time": 8.75,
      "duration": 0.125,
      "velocity": 72
    },
    {
      "pitch": 40,
      "start_time": 9.0,
      "duration": 0.125,
      "velocity": 127
    },
    {
      "pitch": 42,
      "start_time": 9.5,
      "duration": 0.125,
      "velocity": 72
    },
    {
      "pitch": 38,
      "start_time": 10.0,
      "duration": 0.125,
      "velocity": 127
    },
    {
      "pitch": 43,
      "start_time": 10.25,
      "duration": 0.125,
      "velocity": 103
    },
    {
      "pitch": 42,
      "start_time": 10.5,
      "duration": 0.125,
      "velocity": 72
    },
    {
      "pitch": 41,
      "start_time": 11.0,
      "duration": 0.125,
      "velocity": 127
    },
    {
      "pitch": 42,
      "start_time": 11.25,
      "duration": 0.125,
      "velocity": 72
    },
    {
      "pitch": 42,
      "start_time": 11.5,
      "duration": 0.125,
      "velocity": 72
    },
    {
      "pitch": 42,
      "start_time": 11.75,
      "duration": 0.125,
      "velocity": 72
    },
    {
      "pitch": 46,
      "start_time": 12.0,
      "duration": 0.125,
      "velocity": 103
    },
    {
      "pitch": 51,
      "start_time": 12.0,
      "duration": 0.125,
      "velocity": 127
    },
    {
      "pitch": 42,
      "start_time": 12.5,
      "duration": 0.125,
      "velocity": 72
    },
    {
      "pitch": 42,
      "start_time": 12.75,
      "duration": 0.125,
      "velocity": 72
    },
    {
      "pitch": 42,
      "start_time": 13.0,
      "duration": 0.125,
      "velocity": 72
    },
    {
      "pitch": 48,
      "start_time": 13.25,
      "duration": 0.125,
      "velocity": 127
    },
    {
      "pitch": 36,
      "start_time": 13.5,
      "duration": 0.125,
      "velocity": 127
    },
    {
      "pitch": 38,
      "start_time": 14.0,
      "duration": 0.125,
      "velocity": 127
    },
    {
      "pitch": 42,
      "start_time": 14.25,
      "duration": 0.125,
      "velocity": 72
    },
    {
      "pitch": 42,
      "start_time": 14.5,
      "duration": 0.125,
      "velocity": 72
    },
    {
      "pitch": 42,
      "start_time": 14.75,
      "duration": 0.125,
      "velocity": 103
    },
    {
      "pitch": 49,
      "start_time": 15.0,
      "duration": 0.125,
      "velocity": 127
    },
    {
      "pitch": 42,
      "start_time": 15.5,
      "duration": 0.125,
      "velocity": 72
    },
    {
      "pitch": 37,
      "start_time": 15.75,
      "duration": 0.125,
      "velocity": 127
    },
    {
      "pitch": 37,
      "start_time": 15.875,
      "duration": 0.125,
      "velocity": 127
    }
  ]
}