{
  "source": {
    "song": "packs",
    "track_index": 0,
    "track_name": "Drum Essentials / MIDI Clips / 131 - 160 bpm / Cyndal Kit groove 02_135 bpm",
    "slot_index": 0,
    "clip_name": "Drum Essentials / MIDI Clips / 131 - 160 bpm / Cyndal Kit groove 02_135 bpm",
    "mid_file": "/Users/darnold/Music/Ableton/Packs/Drum Essentials/MIDI Clips/131 - 160 bpm/Cyndal Kit groove 02_135 bpm.alc"
  },
  "meta": {
    "bpm": 135.0,
    "key": "?",
    "scale": "?",
    "length_beats": 8.0,
    "note_count": 40
  },
  "rhythm": {
    "density": 1.25,
    "hit_positions": [
      0.0,
      0.0,
      0.0,
      0.5,
      0.5,
      1.0,
      1.0,
      1.0,
      1.0,
      1.5,
      1.5,
      1.75,
      2.0,
      2.5,
      2.5,
      3.0,
      3.0,
      3.5,
      4.0,
      4.0,
      4.0,
      4.5,
      4.5,
      5.0,
      5.0,
      5.0,
      5.0,
      5.5,
      5.5,
      5.75,
      6.0,
      6.0,
      6.5,
      6.5,
      6.75,
      6.75,
      7.0,
      7.0,
      7.25,
      7.5
    ],
    "ioi": [
      0.0,
      0.0,
      0.5,
      0.0,
      0.5,
      0.0,
      0.0,
      0.0,
      0.5,
      0.0,
      0.25,
      0.25,
      0.5,
      0.0,
      0.5,
      0.0,
      0.5,
      0.5,
      0.0,
      0.0,
      0.5,
      0.0,
      0.5,
      0.0,
      0.0,
      0.0,
      0.5,
      0.0,
      0.25,
      0.25,
      0.0,
      0.5,
      0.0,
      0.25,
      0.0,
      0.25,
      0.0,
      0.25,
      0.25,
      0.5
    ],
    "grid": "8th",
    "euclidean_approx": [
      32,
      32
    ],
    "swing_ratio": 1.0
  },
  "pitch": {
    "notes_used": [
      36,
      38,
      39,
      40,
      41,
      42,
      43,
      44,
      45,
      46,
      47,
      48
    ],
    "intervals": [
      7,
      3,
      5,
      1,
      2,
      4,
      1,
      3,
      6,
      5,
      3,
      6,
      4,
      3,
      1,
      4,
      12,
      0,
      7,
      3,
      5,
      1,
      2,
      4,
      1,
      3,
      12,
      11,
      3,
      6,
      7,
      6,
      3,
      6,
      3,
      3,
      6,
      10,
      0
    ],
    "register": "low",
    "is_melodic": true,
    "pitch_range": 12,
    "pitch_distribution": {
      "36": 5,
      "43": 2,
      "46": 2,
      "41": 2,
      "42": 6,
      "40": 2,
      "44": 5,
      "45": 4,
      "48": 4,
      "47": 2,
      "38": 4,
      "39": 2
    }
  },
  "velocity": {
    "mean": 63.7,
    "variance": 902.5,
    "std": 30.0,
    "accents": [
      0,
      2,
      6,
      12,
      18,
      20,
      24,
      30,
      32,
      36
    ],
    "profile": [
      110,
      68,
      111,
      48,
      62,
      13,
      100,
      41,
      57,
      42,
      58,
      87,
      118,
      48,
      41,
      84,
      45,
      45,
      106,
      61,
      105,
      41,
      50,
      23,
      105,
      40,
      38,
      54,
      66,
      33,
      123,
      52,
      100,
      91,
      41,
      58,
      95,
      38,
      10,
      41
    ]
  },
  "notes": [
    {
      "pitch": 36,
      "start_time": 0.0,
      "duration": 0.6177,
      "velocity": 110
    },
    {
      "pitch": 43,
      "start_time": 0.0,
      "duration": 0.2922,
      "velocity": 68
    },
    {
      "pitch": 46,
      "start_time": 0.0,
      "duration": 0.4489,
      "velocity": 111
    },
    {
      "pitch": 41,
      "start_time": 0.5,
      "duration": 0.4426,
      "velocity": 48
    },
    {
      "pitch": 42,
      "start_time": 0.5,
      "duration": 0.2606,
      "velocity": 62
    },
    {
      "pitch": 40,
      "start_time": 1.0,
      "duration": 0.7935,
      "velocity": 13
    },
    {
      "pitch": 44,
      "start_time": 1.0,
      "duration": 0.5393,
      "velocity": 100
    },
    {
      "pitch": 45,
      "start_time": 1.0,
      "duration": 0.3144,
      "velocity": 41
    },
    {
      "pitch": 48,
      "start_time": 1.0,
      "duration": 1.0874,
      "velocity": 57
    },
    {
      "pitch": 42,
      "start_time": 1.5,
      "duration": 0.2472,
      "velocity": 42
    },
    {
      "pitch": 47,
      "start_time": 1.5,
      "duration": 0.2741,
      "velocity": 58
    },
    {
      "pitch": 44,
      "start_time": 1.75,
      "duration": 0.139,
      "velocity": 87
    },
    {
      "pitch": 38,
      "start_time": 2.0,
      "duration": 0.6807,
      "velocity": 118
    },
    {
      "pitch": 42,
      "start_time": 2.5,
      "duration": 0.1755,
      "velocity": 48
    },
    {
      "pitch": 45,
      "start_time": 2.5,
      "duration": 0.2808,
      "velocity": 41
    },
    {
      "pitch": 44,
      "start_time": 3.0,
      "duration": 0.4475,
      "velocity": 84
    },
    {
      "pitch": 48,
      "start_time": 3.0,
      "duration": 1.1575,
      "velocity": 45
    },
    {
      "pitch": 36,
      "start_time": 3.5,
      "duration": 0.139,
      "velocity": 45
    },
    {
      "pitch": 36,
      "start_time": 4.0,
      "duration": 0.6764,
      "velocity": 106
    },
    {
      "pitch": 43,
      "start_time": 4.0,
      "duration": 0.2676,
      "velocity": 61
    },
    {
      "pitch": 46,
      "start_time": 4.0,
      "duration": 0.4541,
      "velocity": 105
    },
    {
      "pitch": 41,
      "start_time": 4.5,
      "duration": 0.3078,
      "velocity": 41
    },
    {
      "pitch": 42,
      "start_time": 4.5,
      "duration": 0.1818,
      "velocity": 50
    },
    {
      "pitch": 40,
      "start_time": 5.0,
      "duration": 0.636,
      "velocity": 23
    },
    {
      "pitch": 44,
      "start_time": 5.0,
      "duration": 0.5078,
      "velocity": 105
    },
    {
      "pitch": 45,
      "start_time": 5.0,
      "duration": 0.2669,
      "velocity": 40
    },
    {
      "pitch": 48,
      "start_time": 5.0,
      "duration": 1.5051,
      "velocity": 38
    },
    {
      "pitch": 36,
      "start_time": 5.5,
      "duration": 0.51,
      "velocity": 54
    },
    {
      "pitch": 47,
      "start_time": 5.5,
      "duration": 0.2448,
      "velocity": 66
    },
    {
      "pitch": 44,
      "start_time": 5.75,
      "duration": 0.1103,
      "velocity": 33
    },
    {
      "pitch": 38,
      "start_time": 6.0,
      "duration": 0.51,
      "velocity": 123
    },
    {
      "pitch": 45,
      "start_time": 6.0,
      "duration": 0.2676,
      "velocity": 52
    },
    {
      "pitch": 39,
      "start_time": 6.5,
      "duration": 0.0787,
      "velocity": 100
    },
    {
      "pitch": 42,
      "start_time": 6.5,
      "duration": 0.1101,
      "velocity": 91
    },
    {
      "pitch": 36,
      "start_time": 6.75,
      "duration": 0.1999,
      "velocity": 41
    },
    {
      "pitch": 39,
      "start_time": 6.75,
      "duration": 0.1373,
      "velocity": 58
    },
    {
      "pitch": 42,
      "start_time": 7.0,
      "duration": 0.1437,
      "velocity": 95
    },
    {
      "pitch": 48,
      "start_time": 7.0,
      "duration": 0.7507,
      "velocity": 38
    },
    {
      "pitch": 38,
      "start_time": 7.25,
      "duration": 0.1348,
      "velocity": 10
    },
    {
      "pitch": 38,
      "start_time": 7.5,
      "duration": 0.2379,
      "velocity": 41
    }
  ]
}