{
  "source": {
    "song": "packs",
    "track_index": 0,
    "track_name": "Drum Essentials / MIDI Clips / 131 - 160 bpm / D55 Lifeline Kit groove 01_145 bpm",
    "slot_index": 0,
    "clip_name": "Drum Essentials / MIDI Clips / 131 - 160 bpm / D55 Lifeline Kit groove 01_145 bpm",
    "mid_file": "/Users/darnold/Music/Ableton/Packs/Drum Essentials/MIDI Clips/131 - 160 bpm/D55 Lifeline Kit groove 01_145 bpm.alc"
  },
  "meta": {
    "bpm": 145.0,
    "key": "?",
    "scale": "?",
    "length_beats": 8.0,
    "note_count": 39
  },
  "rhythm": {
    "density": 1.5,
    "hit_positions": [
      0.0,
      0.0,
      0.5,
      0.75,
      0.75,
      1.0,
      1.0,
      1.5,
      2.0,
      2.0,
      2.25,
      2.5,
      2.75,
      2.75,
      2.75,
      3.0,
      3.0,
      3.5,
      3.5,
      4.0,
      4.0,
      4.0,
      4.25,
      4.5,
      4.75,
      4.75,
      5.0,
      5.0,
      6.0,
      6.0,
      6.25,
      6.5,
      6.75,
      6.75,
      7.0,
      7.25,
      7.5,
      7.5,
      7.75
    ],
    "ioi": [
      0.0,
      0.5,
      0.25,
      0.0,
      0.25,
      0.0,
      0.5,
      0.5,
      0.0,
      0.25,
      0.25,
      0.25,
      0.0,
      0.0,
      0.25,
      0.0,
      0.5,
      0.0,
      0.5,
      0.0,
      0.0,
      0.25,
      0.25,
      0.25,
      0.0,
      0.25,
      0.0,
      1.0,
      0.0,
      0.25,
      0.25,
      0.25,
      0.0,
      0.25,
      0.25,
      0.25,
      0.0,
      0.25,
      0.25
    ],
    "grid": "8th",
    "euclidean_approx": [
      32,
      32
    ],
    "swing_ratio": 1.0
  },
  "pitch": {
    "notes_used": [
      36,
      38,
      39,
      40,
      41,
      42,
      43,
      44,
      46
    ],
    "intervals": [
      8,
      2,
      2,
      4,
      6,
      3,
      3,
      8,
      8,
      8,
      8,
      6,
      5,
      1,
      3,
      2,
      5,
      5,
      7,
      3,
      5,
      0,
      2,
      0,
      2,
      6,
      3,
      5,
      8,
      8,
      8,
      6,
      6,
      3,
      3,
      0,
      6,
      2
    ],
    "register": "low",
    "is_melodic": true,
    "pitch_range": 10,
    "pitch_distribution": {
      "36": 6,
      "44": 13,
      "42": 3,
      "40": 1,
      "38": 7,
      "41": 4,
      "43": 3,
      "39": 1,
      "46": 1
    }
  },
  "velocity": {
    "mean": 73.9,
    "variance": 547.3,
    "std": 23.4,
    "accents": [],
    "profile": [
      91,
      73,
      91,
      91,
      81,
      91,
      91,
      25,
      78,
      25,
      74,
      18,
      91,
      91,
      46,
      91,
      91,
      91,
      91,
      91,
      91,
      54,
      48,
      68,
      91,
      90,
      91,
      91,
      91,
      36,
      66,
      27,
      91,
      41,
      91,
      62,
      91,
      61,
      91
    ]
  },
  "notes": [
    {
      "pitch": 36,
      "start_time": 0.0,
      "duration": 0.1043,
      "velocity": 91
    },
    {
      "pitch": 44,
      "start_time": 0.0,
      "duration": 0.1431,
      "velocity": 73
    },
    {
      "pitch": 42,
      "start_time": 0.5,
      "duration": 0.0825,
      "velocity": 91
    },
    {
      "pitch": 40,
      "start_time": 0.75,
      "duration": 0.0896,
      "velocity": 91
    },
    {
      "pitch": 44,
      "start_time": 0.75,
      "duration": 0.0893,
      "velocity": 81
    },
    {
      "pitch": 38,
      "start_time": 1.0,
      "duration": 0.2714,
      "velocity": 91
    },
    {
      "pitch": 41,
      "start_time": 1.0,
      "duration": 0.1042,
      "velocity": 91
    },
    {
      "pitch": 44,
      "start_time": 1.5,
      "duration": 0.1769,
      "velocity": 25
    },
    {
      "pitch": 36,
      "start_time": 2.0,
      "duration": 0.0605,
      "velocity": 78
    },
    {
      "pitch": 44,
      "start_time": 2.0,
      "duration": 0.0972,
      "velocity": 25
    },
    {
      "pitch": 36,
      "start_time": 2.25,
      "duration": 0.1527,
      "velocity": 74
    },
    {
      "pitch": 44,
      "start_time": 2.5,
      "duration": 0.0584,
      "velocity": 18
    },
    {
      "pitch": 38,
      "start_time": 2.75,
      "duration": 0.2157,
      "velocity": 91
    },
    {
      "pitch": 43,
      "start_time": 2.75,
      "duration": 0.0802,
      "velocity": 91
    },
    {
      "pitch": 44,
      "start_time": 2.75,
      "duration": 0.0868,
      "velocity": 46
    },
    {
      "pitch": 41,
      "start_time": 3.0,
      "duration": 0.0846,
      "velocity": 91
    },
    {
      "pitch": 43,
      "start_time": 3.0,
      "duration": 0.1113,
      "velocity": 91
    },
    {
      "pitch": 38,
      "start_time": 3.5,
      "duration": 0.221,
      "velocity": 91
    },
    {
      "pitch": 43,
      "start_time": 3.5,
      "duration": 0.1018,
      "velocity": 91
    },
    {
      "pitch": 36,
      "start_time": 4.0,
      "duration": 0.1862,
      "velocity": 91
    },
    {
      "pitch": 39,
      "start_time": 4.0,
      "duration": 0.1211,
      "velocity": 91
    },
    {
      "pitch": 44,
      "start_time": 4.0,
      "duration": 0.0877,
      "velocity": 54
    },
    {
      "pitch": 44,
      "start_time": 4.25,
      "duration": 0.1717,
      "velocity": 48
    },
    {
      "pitch": 42,
      "start_time": 4.5,
      "duration": 0.0969,
      "velocity": 68
    },
    {
      "pitch": 42,
      "start_time": 4.75,
      "duration": 0.1019,
      "velocity": 91
    },
    {
      "pitch": 44,
      "start_time": 4.75,
      "duration": 0.0923,
      "velocity": 90
    },
    {
      "pitch": 38,
      "start_time": 5.0,
      "duration": 0.2739,
      "velocity": 91
    },
    {
      "pitch": 41,
      "start_time": 5.0,
      "duration": 0.0825,
      "velocity": 91
    },
    {
      "pitch": 36,
      "start_time": 6.0,
      "duration": 0.0798,
      "velocity": 91
    },
    {
      "pitch": 44,
      "start_time": 6.0,
      "duration": 0.1404,
      "velocity": 36
    },
    {
      "pitch": 36,
      "start_time": 6.25,
      "duration": 0.1622,
      "velocity": 66
    },
    {
      "pitch": 44,
      "start_time": 6.5,
      "duration": 0.0653,
      "velocity": 27
    },
    {
      "pitch": 38,
      "start_time": 6.75,
      "duration": 0.1528,
      "velocity": 91
    },
    {
      "pitch": 44,
      "start_time": 6.75,
      "duration": 0.1161,
      "velocity": 41
    },
    {
      "pitch": 41,
      "start_time": 7.0,
      "duration": 0.109,
      "velocity": 91
    },
    {
      "pitch": 38,
      "start_time": 7.25,
      "duration": 0.0603,
      "velocity": 62
    },
    {
      "pitch": 38,
      "start_time": 7.5,
      "duration": 0.1837,
      "velocity": 91
    },
    {
      "pitch": 44,
      "start_time": 7.5,
      "duration": 0.0848,
      "velocity": 61
    },
    {
      "pitch": 46,
      "start_time": 7.75,
      "duration": 0.1212,
      "velocity": 91
    }
  ]
}