{
  "source": {
    "song": "packs",
    "track_index": 0,
    "track_name": "Drum Essentials / MIDI Clips / 91 - 110 bpm / 808 Aristocrat Kit groove 03_110 bpm",
    "slot_index": 0,
    "clip_name": "Drum Essentials / MIDI Clips / 91 - 110 bpm / 808 Aristocrat Kit groove 03_110 bpm",
    "mid_file": "/Users/darnold/Music/Ableton/Packs/Drum Essentials/MIDI Clips/91 - 110 bpm/808 Aristocrat Kit groove 03_110 bpm.alc"
  },
  "meta": {
    "bpm": 110.0,
    "key": "?",
    "scale": "?",
    "length_beats": 8.0,
    "note_count": 74
  },
  "rhythm": {
    "density": 2.0,
    "hit_positions": [
      0.0,
      0.0,
      0.0,
      0.25,
      0.25,
      0.5,
      0.5,
      0.75,
      0.75,
      1.0,
      1.0,
      1.0,
      1.25,
      1.5,
      1.5,
      1.5,
      1.75,
      1.75,
      1.75,
      2.0,
      2.0,
      2.0,
      2.25,
      2.25,
      2.5,
      2.5,
      2.5,
      2.75,
      2.75,
      3.0,
      3.0,
      3.25,
      3.25,
      3.5,
      3.5,
      3.75,
      3.75,
      4.0,
      4.0,
      4.0,
      4.25,
      4.25,
      4.5,
      4.5,
      4.75,
      4.75,
      5.0,
      5.0,
      5.0,
      5.25,
      5.5,
      5.5,
      5.5,
      5.75,
      5.75,
      5.75,
      6.0,
      6.0,
      6.25,
      6.5,
      6.5,
      6.5,
      6.5,
      6.75,
      6.75,
      7.0,
      7.0,
      7.0,
      7.25,
      7.25,
      7.5,
      7.5,
      7.75,
      7.75
    ],
    "ioi": [
      0.0,
      0.0,
      0.25,
      0.0,
      0.25,
      0.0,
      0.25,
      0.0,
      0.25,
      0.0,
      0.0,
      0.25,
      0.25,
      0.0,
      0.0,
      0.25,
      0.0,
      0.0,
      0.25,
      0.0,
      0.0,
      0.25,
      0.0,
      0.25,
      0.0,
      0.0,
      0.25,
      0.0,
      0.25,
      0.0,
      0.25,
      0.0,
      0.25,
      0.0,
      0.25,
      0.0,
      0.25,
      0.0,
      0.0,
      0.25,
      0.0,
      0.25,
      0.0,
      0.25,
      0.0,
      0.25,
      0.0,
      0.0,
      0.25,
      0.25,
      0.0,
      0.0,
      0.25,
      0.0,
      0.0,
      0.25,
      0.0,
      0.25,
      0.25,
      0.0,
      0.0,
      0.0,
      0.25,
      0.0,
      0.25,
      0.0,
      0.0,
      0.25,
      0.0,
      0.25,
      0.0,
      0.25,
      0.0,
      0.25
    ],
    "grid": "8th",
    "euclidean_approx": [
      32,
      32
    ],
    "swing_ratio": 1.0
  },
  "pitch": {
    "notes_used": [
      38,
      41,
      42,
      48,
      50
    ],
    "intervals": [
      6,
      2,
      8,
      8,
      8,
      8,
      8,
      8,
      12,
      4,
      8,
      8,
      0,
      6,
      2,
      9,
      1,
      8,
      9,
      1,
      8,
      9,
      1,
      0,
      6,
      2,
      8,
      8,
      12,
      4,
      0,
      6,
      6,
      8,
      8,
      8,
      8,
      6,
      2,
      8,
      8,
      8,
      8,
      8,
      8,
      12,
      4,
      8,
      8,
      0,
      6,
      2,
      9,
      1,
      8,
      8,
      8,
      8,
      1,
      1,
      6,
      2,
      8,
      8,
      12,
      4,
      8,
      8,
      6,
      6,
      8,
      8,
      8
    ],
    "register": "low",
    "is_melodic": true,
    "pitch_range": 12,
    "pitch_distribution": {
      "42": 32,
      "48": 8,
      "50": 25,
      "38": 4,
      "41": 5
    }
  },
  "velocity": {
    "mean": 35.4,
    "variance": 1315.1,
    "std": 36.3,
    "accents": [
      1,
      8,
      14,
      25,
      32,
      38,
      45,
      48,
      51,
      61,
      69
    ],
    "profile": [
      13,
      127,
      62,
      14,
      27,
      6,
      38,
      5,
      77,
      32,
      3,
      23,
      3,
      3,
      108,
      38,
      21,
      3,
      29,
      31,
      3,
      29,
      25,
      4,
      4,
      111,
      16,
      5,
      44,
      57,
      6,
      6,
      112,
      4,
      21,
      4,
      47,
      4,
      123,
      62,
      6,
      27,
      6,
      38,
      6,
      77,
      56,
      6,
      100,
      6,
      7,
      115,
      24,
      17,
      8,
      56,
      10,
      52,
      10,
      39,
      10,
      124,
      22,
      9,
      62,
      64,
      10,
      59,
      11,
      127,
      11,
      26,
      13,
      55
    ]
  },
  "notes": [
    {
      "pitch": 42,
      "start_time": 0.0,
      "duration": 0.25,
      "velocity": 13
    },
    {
      "pitch": 48,
      "start_time": 0.0,
      "duration": 0.0938,
      "velocity": 127
    },
    {
      "pitch": 50,
      "start_time": 0.0,
      "duration": 0.0521,
      "velocity": 62
    },
    {
      "pitch": 42,
      "start_time": 0.25,
      "duration": 0.2188,
      "velocity": 14
    },
    {
      "pitch": 50,
      "start_time": 0.25,
      "duration": 0.25,
      "velocity": 27
    },
    {
      "pitch": 42,
      "start_time": 0.5,
      "duration": 0.25,
      "velocity": 6
    },
    {
      "pitch": 50,
      "start_time": 0.5,
      "duration": 0.25,
      "velocity": 38
    },
    {
      "pitch": 42,
      "start_time": 0.75,
      "duration": 0.25,
      "velocity": 5
    },
    {
      "pitch": 50,
      "start_time": 0.75,
      "duration": 0.1771,
      "velocity": 77
    },
    {
      "pitch": 38,
      "start_time": 1.0,
      "duration": 0.0938,
      "velocity": 32
    },
    {
      "pitch": 42,
      "start_time": 1.0,
      "duration": 0.25,
      "velocity": 3
    },
    {
      "pitch": 50,
      "start_time": 1.0,
      "duration": 0.0938,
      "velocity": 23
    },
    {
      "pitch": 42,
      "start_time": 1.25,
      "duration": 0.25,
      "velocity": 3
    },
    {
      "pitch": 42,
      "start_time": 1.5,
      "duration": 0.25,
      "velocity": 3
    },
    {
      "pitch": 48,
      "start_time": 1.5,
      "duration": 0.1042,
      "velocity": 108
    },
    {
      "pitch": 50,
      "start_time": 1.5,
      "duration": 0.25,
      "velocity": 38
    },
    {
      "pitch": 41,
      "start_time": 1.75,
      "duration": 0.0521,
      "velocity": 21
    },
    {
      "pitch": 42,
      "start_time": 1.75,
      "duration": 0.25,
      "velocity": 3
    },
    {
      "pitch": 50,
      "start_time": 1.75,
      "duration": 0.25,
      "velocity": 29
    },
    {
      "pitch": 41,
      "start_time": 2.0,
      "duration": 0.125,
      "velocity": 31
    },
    {
      "pitch": 42,
      "start_time": 2.0,
      "duration": 0.25,
      "velocity": 3
    },
    {
      "pitch": 50,
      "start_time": 2.0,
      "duration": 0.0104,
      "velocity": 29
    },
    {
      "pitch": 41,
      "start_time": 2.25,
      "duration": 0.125,
      "velocity": 25
    },
    {
      "pitch": 42,
      "start_time": 2.25,
      "duration": 0.25,
      "velocity": 4
    },
    {
      "pitch": 42,
      "start_time": 2.5,
      "duration": 0.25,
      "velocity": 4
    },
    {
      "pitch": 48,
      "start_time": 2.5,
      "duration": 0.0938,
      "velocity": 111
    },
    {
      "pitch": 50,
      "start_time": 2.5,
      "duration": 0.25,
      "velocity": 16
    },
    {
      "pitch": 42,
      "start_time": 2.75,
      "duration": 0.25,
      "velocity": 5
    },
    {
      "pitch": 50,
      "start_time": 2.75,
      "duration": 0.2188,
      "velocity": 44
    },
    {
      "pitch": 38,
      "start_time": 3.0,
      "duration": 0.0521,
      "velocity": 57
    },
    {
      "pitch": 42,
      "start_time": 3.0,
      "duration": 0.25,
      "velocity": 6
    },
    {
      "pitch": 42,
      "start_time": 3.25,
      "duration": 0.25,
      "velocity": 6
    },
    {
      "pitch": 48,
      "start_time": 3.25,
      "duration": 0.1042,
      "velocity": 112
    },
    {
      "pitch": 42,
      "start_time": 3.5,
      "duration": 0.25,
      "velocity": 4
    },
    {
      "pitch": 50,
      "start_time": 3.5,
      "duration": 0.25,
      "velocity": 21
    },
    {
      "pitch": 42,
      "start_time": 3.75,
      "duration": 0.25,
      "velocity": 4
    },
    {
      "pitch": 50,
      "start_time": 3.75,
      "duration": 0.25,
      "velocity": 47
    },
    {
      "pitch": 42,
      "start_time": 4.0,
      "duration": 0.25,
      "velocity": 4
    },
    {
      "pitch": 48,
      "start_time": 4.0,
      "duration": 0.1042,
      "velocity": 123
    },
    {
      "pitch": 50,
      "start_time": 4.0,
      "duration": 0.0521,
      "velocity": 62
    },
    {
      "pitch": 42,
      "start_time": 4.25,
      "duration": 0.25,
      "velocity": 6
    },
    {
      "pitch": 50,
      "start_time": 4.25,
      "duration": 0.25,
      "velocity": 27
    },
    {
      "pitch": 42,
      "start_time": 4.5,
      "duration": 0.25,
      "velocity": 6
    },
    {
      "pitch": 50,
      "start_time": 4.5,
      "duration": 0.25,
      "velocity": 38
    },
    {
      "pitch": 42,
      "start_time": 4.75,
      "duration": 0.25,
      "velocity": 6
    },
    {
      "pitch": 50,
      "start_time": 4.75,
      "duration": 0.1771,
      "velocity": 77
    },
    {
      "pitch": 38,
      "start_time": 5.0,
      "duration": 0.0729,
      "velocity": 56
    },
    {
      "pitch": 42,
      "start_time": 5.0,
      "duration": 0.25,
      "velocity": 6
    },
    {
      "pitch": 50,
      "start_time": 5.0,
      "duration": 0.125,
      "velocity": 100
    },
    {
      "pitch": 42,
      "start_time": 5.25,
      "duration": 0.25,
      "velocity": 6
    },
    {
      "pitch": 42,
      "start_time": 5.5,
      "duration": 0.25,
      "velocity": 7
    },
    {
      "pitch": 48,
      "start_time": 5.5,
      "duration": 0.1146,
      "velocity": 115
    },
    {
      "pitch": 50,
      "start_time": 5.5,
      "duration": 0.25,
      "velocity": 24
    },
    {
      "pitch": 41,
      "start_time": 5.75,
      "duration": 0.1146,
      "velocity": 17
    },
    {
      "pitch": 42,
      "start_time": 5.75,
      "duration": 0.25,
      "velocity": 8
    },
    {
      "pitch": 50,
      "start_time": 5.75,
      "duration": 0.25,
      "velocity": 56
    },
    {
      "pitch": 42,
      "start_time": 6.0,
      "duration": 0.25,
      "velocity": 10
    },
    {
      "pitch": 50,
      "start_time": 6.0,
      "duration": 0.0625,
      "velocity": 52
    },
    {
      "pitch": 42,
      "start_time": 6.25,
      "duration": 0.25,
      "velocity": 10
    },
    {
      "pitch": 41,
      "start_time": 6.5,
      "duration": 0.0938,
      "velocity": 39
    },
    {
      "pitch": 42,
      "start_time": 6.5,
      "duration": 0.25,
      "velocity": 10
    },
    {
      "pitch": 48,
      "start_time": 6.5,
      "duration": 0.0938,
      "velocity": 124
    },
    {
      "pitch": 50,
      "start_time": 6.5,
      "duration": 0.25,
      "velocity": 22
    },
    {
      "pitch": 42,
      "start_time": 6.75,
      "duration": 0.25,
      "velocity": 9
    },
    {
      "pitch": 50,
      "start_time": 6.75,
      "duration": 0.25,
      "velocity": 62
    },
    {
      "pitch": 38,
      "start_time": 7.0,
      "duration": 0.0521,
      "velocity": 64
    },
    {
      "pitch": 42,
      "start_time": 7.0,
      "duration": 0.25,
      "velocity": 10
    },
    {
      "pitch": 50,
      "start_time": 7.0,
      "duration": 0.0833,
      "velocity": 59
    },
    {
      "pitch": 42,
      "start_time": 7.25,
      "duration": 0.25,
      "velocity": 11
    },
    {
      "pitch": 48,
      "start_time": 7.25,
      "duration": 0.0938,
      "velocity": 127
    },
    {
      "pitch": 42,
      "start_time": 7.5,
      "duration": 0.25,
      "velocity": 11
    },
    {
      "pitch": 50,
      "start_time": 7.5,
      "duration": 0.25,
      "velocity": 26
    },
    {
      "pitch": 42,
      "start_time": 7.75,
      "duration": 0.25,
      "velocity": 13
    },
    {
      "pitch": 50,
      "start_time": 7.75,
      "duration": 0.25,
      "velocity": 55
    }
  ]
}