{
  "source": {
    "song": "packs",
    "track_index": 0,
    "track_name": "Drum Essentials / MIDI Clips / 91 - 110 bpm / Animal Kit groove 03_103 bpm",
    "slot_index": 0,
    "clip_name": "Drum Essentials / MIDI Clips / 91 - 110 bpm / Animal Kit groove 03_103 bpm",
    "mid_file": "/Users/darnold/Music/Ableton/Packs/Drum Essentials/MIDI Clips/91 - 110 bpm/Animal Kit groove 03_103 bpm.alc"
  },
  "meta": {
    "bpm": 103.0,
    "key": "?",
    "scale": "?",
    "length_beats": 8.0,
    "note_count": 47
  },
  "rhythm": {
    "density": 1.562,
    "hit_positions": [
      0.0,
      0.0,
      0.5,
      0.75,
      1.0,
      1.0,
      1.0,
      1.5,
      2.0,
      2.0,
      2.25,
      2.5,
      2.75,
      3.0,
      3.0,
      3.0,
      3.0,
      3.0,
      3.25,
      3.5,
      3.5,
      3.5,
      4.0,
      4.0,
      4.5,
      4.75,
      5.0,
      5.0,
      5.0,
      5.5,
      5.75,
      6.0,
      6.0,
      6.5,
      6.5,
      6.5,
      6.75,
      7.0,
      7.0,
      7.0,
      7.0,
      7.25,
      7.25,
      7.5,
      7.5,
      7.5,
      7.75
    ],
    "ioi": [
      0.0,
      0.5,
      0.25,
      0.25,
      0.0,
      0.0,
      0.5,
      0.5,
      0.0,
      0.25,
      0.25,
      0.25,
      0.25,
      0.0,
      0.0,
      0.0,
      0.0,
      0.25,
      0.25,
      0.0,
      0.0,
      0.5,
      0.0,
      0.5,
      0.25,
      0.25,
      0.0,
      0.0,
      0.5,
      0.25,
      0.25,
      0.0,
      0.5,
      0.0,
      0.0,
      0.25,
      0.25,
      0.0,
      0.0,
      0.0,
      0.25,
      0.0,
      0.25,
      0.0,
      0.0,
      0.25,
      0.25
    ],
    "grid": "8th",
    "euclidean_approx": [
      32,
      32
    ],
    "swing_ratio": 1.0
  },
  "pitch": {
    "notes_used": [
      36,
      37,
      38,
      39,
      41,
      42,
      43,
      45,
      46,
      48,
      50
    ],
    "intervals": [
      6,
      0,
      4,
      9,
      2,
      3,
      0,
      6,
      6,
      6,
      6,
      3,
      9,
      2,
      1,
      3,
      8,
      9,
      4,
      5,
      1,
      7,
      6,
      0,
      4,
      9,
      2,
      3,
      0,
      6,
      12,
      6,
      6,
      2,
      4,
      3,
      7,
      1,
      3,
      8,
      9,
      2,
      6,
      5,
      1,
      0
    ],
    "register": "low",
    "is_melodic": true,
    "pitch_range": 14,
    "pitch_distribution": {
      "36": 6,
      "42": 16,
      "46": 2,
      "37": 4,
      "39": 4,
      "48": 2,
      "45": 2,
      "38": 3,
      "50": 2,
      "41": 2,
      "43": 4
    }
  },
  "velocity": {
    "mean": 41.8,
    "variance": 214.1,
    "std": 14.6,
    "accents": [
      0,
      4,
      6,
      22,
      26,
      28,
      36,
      46
    ],
    "profile": [
      73,
      49,
      23,
      26,
      87,
      37,
      61,
      31,
      49,
      42,
      50,
      26,
      34,
      44,
      38,
      28,
      33,
      38,
      50,
      35,
      39,
      25,
      57,
      49,
      29,
      22,
      72,
      50,
      62,
      30,
      50,
      45,
      36,
      42,
      24,
      36,
      67,
      27,
      19,
      44,
      37,
      41,
      26,
      42,
      43,
      40,
      58
    ]
  },
  "notes": [
    {
      "pitch": 36,
      "start_time": 0.0,
      "duration": 0.0794,
      "velocity": 73
    },
    {
      "pitch": 42,
      "start_time": 0.0,
      "duration": 0.0714,
      "velocity": 49
    },
    {
      "pitch": 42,
      "start_time": 0.5,
      "duration": 0.0715,
      "velocity": 23
    },
    {
      "pitch": 46,
      "start_time": 0.75,
      "duration": 0.1956,
      "velocity": 26
    },
    {
      "pitch": 37,
      "start_time": 1.0,
      "duration": 0.0759,
      "velocity": 87
    },
    {
      "pitch": 39,
      "start_time": 1.0,
      "duration": 0.0587,
      "velocity": 37
    },
    {
      "pitch": 42,
      "start_time": 1.0,
      "duration": 0.0664,
      "velocity": 61
    },
    {
      "pitch": 42,
      "start_time": 1.5,
      "duration": 0.0982,
      "velocity": 31
    },
    {
      "pitch": 36,
      "start_time": 2.0,
      "duration": 0.0781,
      "velocity": 49
    },
    {
      "pitch": 42,
      "start_time": 2.0,
      "duration": 0.085,
      "velocity": 42
    },
    {
      "pitch": 48,
      "start_time": 2.25,
      "duration": 0.1193,
      "velocity": 50
    },
    {
      "pitch": 42,
      "start_time": 2.5,
      "duration": 0.0954,
      "velocity": 26
    },
    {
      "pitch": 45,
      "start_time": 2.75,
      "duration": 0.0641,
      "velocity": 34
    },
    {
      "pitch": 36,
      "start_time": 3.0,
      "duration": 0.0737,
      "velocity": 44
    },
    {
      "pitch": 38,
      "start_time": 3.0,
      "duration": 0.0547,
      "velocity": 38
    },
    {
      "pitch": 39,
      "start_time": 3.0,
      "duration": 0.0886,
      "velocity": 28
    },
    {
      "pitch": 42,
      "start_time": 3.0,
      "duration": 0.1011,
      "velocity": 33
    },
    {
      "pitch": 50,
      "start_time": 3.0,
      "duration": 0.0197,
      "velocity": 38
    },
    {
      "pitch": 41,
      "start_time": 3.25,
      "duration": 0.0869,
      "velocity": 50
    },
    {
      "pitch": 37,
      "start_time": 3.5,
      "duration": 0.0701,
      "velocity": 35
    },
    {
      "pitch": 42,
      "start_time": 3.5,
      "duration": 0.0694,
      "velocity": 39
    },
    {
      "pitch": 43,
      "start_time": 3.5,
      "duration": 0.25,
      "velocity": 25
    },
    {
      "pitch": 36,
      "start_time": 4.0,
      "duration": 0.0774,
      "velocity": 57
    },
    {
      "pitch": 42,
      "start_time": 4.0,
      "duration": 0.0914,
      "velocity": 49
    },
    {
      "pitch": 42,
      "start_time": 4.5,
      "duration": 0.0785,
      "velocity": 29
    },
    {
      "pitch": 46,
      "start_time": 4.75,
      "duration": 0.1929,
      "velocity": 22
    },
    {
      "pitch": 37,
      "start_time": 5.0,
      "duration": 0.0698,
      "velocity": 72
    },
    {
      "pitch": 39,
      "start_time": 5.0,
      "duration": 0.0633,
      "velocity": 50
    },
    {
      "pitch": 42,
      "start_time": 5.0,
      "duration": 0.0724,
      "velocity": 62
    },
    {
      "pitch": 42,
      "start_time": 5.5,
      "duration": 0.0767,
      "velocity": 30
    },
    {
      "pitch": 48,
      "start_time": 5.75,
      "duration": 0.0968,
      "velocity": 50
    },
    {
      "pitch": 36,
      "start_time": 6.0,
      "duration": 0.091,
      "velocity": 45
    },
    {
      "pitch": 42,
      "start_time": 6.0,
      "duration": 0.0922,
      "velocity": 36
    },
    {
      "pitch": 36,
      "start_time": 6.5,
      "duration": 0.0678,
      "velocity": 42
    },
    {
      "pitch": 38,
      "start_time": 6.5,
      "duration": 0.0552,
      "velocity": 24
    },
    {
      "pitch": 42,
      "start_time": 6.5,
      "duration": 0.0908,
      "velocity": 36
    },
    {
      "pitch": 45,
      "start_time": 6.75,
      "duration": 0.1016,
      "velocity": 67
    },
    {
      "pitch": 38,
      "start_time": 7.0,
      "duration": 0.0522,
      "velocity": 27
    },
    {
      "pitch": 39,
      "start_time": 7.0,
      "duration": 0.0834,
      "velocity": 19
    },
    {
      "pitch": 42,
      "start_time": 7.0,
      "duration": 0.0976,
      "velocity": 44
    },
    {
      "pitch": 50,
      "start_time": 7.0,
      "duration": 0.0546,
      "velocity": 37
    },
    {
      "pitch": 41,
      "start_time": 7.25,
      "duration": 0.0673,
      "velocity": 41
    },
    {
      "pitch": 43,
      "start_time": 7.25,
      "duration": 0.25,
      "velocity": 26
    },
    {
      "pitch": 37,
      "start_time": 7.5,
      "duration": 0.0723,
      "velocity": 42
    },
    {
      "pitch": 42,
      "start_time": 7.5,
      "duration": 0.0761,
      "velocity": 43
    },
    {
      "pitch": 43,
      "start_time": 7.5,
      "duration": 0.25,
      "velocity": 40
    },
    {
      "pitch": 43,
      "start_time": 7.75,
      "duration": 0.0633,
      "velocity": 58
    }
  ]
}