{
  "source": {
    "song": "packs",
    "track_index": 0,
    "track_name": "Drum Essentials / MIDI Clips / 131 - 160 bpm / Lit Kit groove 04_134 bpm",
    "slot_index": 0,
    "clip_name": "Drum Essentials / MIDI Clips / 131 - 160 bpm / Lit Kit groove 04_134 bpm",
    "mid_file": "/Users/darnold/Music/Ableton/Packs/Drum Essentials/MIDI Clips/131 - 160 bpm/Lit Kit groove 04_134 bpm.alc"
  },
  "meta": {
    "bpm": 134.0,
    "key": "?",
    "scale": "?",
    "length_beats": 8.0,
    "note_count": 67
  },
  "rhythm": {
    "density": 0.938,
    "hit_positions": [
      0.0,
      0.0,
      0.0,
      0.0,
      0.0084,
      0.5,
      0.5043,
      1.0,
      1.0,
      1.0,
      1.0065,
      1.5,
      1.5,
      1.5075,
      1.75,
      2.0,
      2.0,
      2.0137,
      2.5,
      2.5,
      2.5059,
      3.0,
      3.0,
      3.0,
      3.0092,
      3.125,
      3.25,
      3.375,
      3.5,
      3.5,
      3.5049,
      3.625,
      3.75,
      3.875,
      4.0,
      4.0,
      4.0,
      4.0107,
      4.5,
      4.5,
      4.506,
      4.75,
      5.0,
      5.0,
      5.0081,
      5.3333,
      5.5,
      5.5,
      5.5076,
      5.6667,
      6.0,
      6.0,
      6.0,
      6.0095,
      6.3333,
      6.5,
      6.5064,
      6.6667,
      7.0,
      7.0,
      7.0,
      7.0,
      7.0089,
      7.3333,
      7.5,
      7.5094,
      7.6667
    ],
    "ioi": [
      0.0,
      0.0,
      0.0,
      0.0084,
      0.4916,
      0.0043,
      0.4957,
      0.0,
      0.0,
      0.0065,
      0.4935,
      0.0,
      0.0075,
      0.2425,
      0.25,
      0.0,
      0.0137,
      0.4863,
      0.0,
      0.0059,
      0.4941,
      0.0,
      0.0,
      0.0092,
      0.1158,
      0.125,
      0.125,
      0.125,
      0.0,
      0.0049,
      0.1201,
      0.125,
      0.125,
      0.125,
      0.0,
      0.0,
      0.0107,
      0.4893,
      0.0,
      0.006,
      0.244,
      0.25,
      0.0,
      0.0081,
      0.3252,
      0.1667,
      0.0,
      0.0076,
      0.1591,
      0.3333,
      0.0,
      0.0,
      0.0095,
      0.3238,
      0.1667,
      0.0064,
      0.1603,
      0.3333,
      0.0,
      0.0,
      0.0,
      0.0089,
      0.3244,
      0.1667,
      0.0094,
      0.1573,
      0.3333
    ],
    "grid": "16th",
    "euclidean_approx": [
      32,
      32
    ],
    "swing_ratio": 1.222
  },
  "pitch": {
    "notes_used": [
      36,
      37,
      38,
      40,
      42,
      46,
      47,
      48,
      49,
      50,
      51,
      52,
      53,
      54,
      55
    ],
    "intervals": [
      4,
      6,
      9,
      7,
      6,
      3,
      9,
      5,
      6,
      4,
      7,
      10,
      2,
      10,
      2,
      17,
      7,
      8,
      14,
      3,
      15,
      6,
      11,
      4,
      7,
      0,
      0,
      0,
      10,
      2,
      8,
      0,
      0,
      6,
      4,
      15,
      7,
      6,
      12,
      3,
      11,
      7,
      6,
      4,
      7,
      2,
      12,
      2,
      8,
      4,
      4,
      13,
      7,
      6,
      12,
      3,
      9,
      6,
      1,
      5,
      11,
      4,
      12,
      15,
      2,
      13
    ],
    "register": "low",
    "is_melodic": true,
    "pitch_range": 19,
    "pitch_distribution": {
      "36": 4,
      "40": 6,
      "46": 1,
      "55": 4,
      "48": 4,
      "54": 4,
      "51": 4,
      "42": 17,
      "47": 2,
      "53": 4,
      "49": 4,
      "52": 4,
      "50": 4,
      "38": 2,
      "37": 3
    }
  },
  "velocity": {
    "mean": 77.7,
    "variance": 766.9,
    "std": 27.7,
    "accents": [
      0,
      4,
      14,
      15,
      18,
      21,
      34,
      35,
      37,
      41,
      46,
      50,
      58
    ],
    "profile": [
      124,
      75,
      103,
      63,
      118,
      58,
      78,
      68,
      95,
      55,
      54,
      51,
      59,
      66,
      116,
      124,
      85,
      79,
      124,
      57,
      57,
      111,
      100,
      60,
      65,
      63,
      63,
      29,
      32,
      72,
      68,
      31,
      32,
      32,
      124,
      124,
      94,
      106,
      55,
      56,
      74,
      124,
      101,
      43,
      79,
      45,
      124,
      56,
      75,
      75,
      124,
      85,
      83,
      103,
      88,
      62,
      80,
      85,
      122,
      35,
      77,
      75,
      93,
      44,
      86,
      93,
      48
    ]
  },
  "notes": [
    {
      "pitch": 36,
      "start_time": 0.0,
      "duration": 0.8901,
      "velocity": 124
    },
    {
      "pitch": 40,
      "start_time": 0.0,
      "duration": 0.9312,
      "velocity": 75
    },
    {
      "pitch": 46,
      "start_time": 0.0,
      "duration": 0.0451,
      "velocity": 103
    },
    {
      "pitch": 55,
      "start_time": 0.0,
      "duration": 0.0916,
      "velocity": 63
    },
    {
      "pitch": 48,
      "start_time": 0.0084,
      "duration": 0.1281,
      "velocity": 118
    },
    {
      "pitch": 54,
      "start_time": 0.5,
      "duration": 0.0694,
      "velocity": 58
    },
    {
      "pitch": 51,
      "start_time": 0.5043,
      "duration": 0.0995,
      "velocity": 78
    },
    {
      "pitch": 42,
      "start_time": 1.0,
      "duration": 0.0644,
      "velocity": 68
    },
    {
      "pitch": 47,
      "start_time": 1.0,
      "duration": 0.6605,
      "velocity": 95
    },
    {
      "pitch": 53,
      "start_time": 1.0,
      "duration": 0.0912,
      "velocity": 55
    },
    {
      "pitch": 49,
      "start_time": 1.0065,
      "duration": 0.0977,
      "velocity": 54
    },
    {
      "pitch": 42,
      "start_time": 1.5,
      "duration": 0.0788,
      "velocity": 51
    },
    {
      "pitch": 52,
      "start_time": 1.5,
      "duration": 0.0575,
      "velocity": 59
    },
    {
      "pitch": 50,
      "start_time": 1.5075,
      "duration": 0.0957,
      "velocity": 66
    },
    {
      "pitch": 40,
      "start_time": 1.75,
      "duration": 0.106,
      "velocity": 116
    },
    {
      "pitch": 38,
      "start_time": 2.0,
      "duration": 0.1521,
      "velocity": 124
    },
    {
      "pitch": 55,
      "start_time": 2.0,
      "duration": 0.0785,
      "velocity": 85
    },
    {
      "pitch": 48,
      "start_time": 2.0137,
      "duration": 0.1148,
      "velocity": 79
    },
    {
      "pitch": 40,
      "start_time": 2.5,
      "duration": 0.144,
      "velocity": 124
    },
    {
      "pitch": 54,
      "start_time": 2.5,
      "duration": 0.076,
      "velocity": 57
    },
    {
      "pitch": 51,
      "start_time": 2.5059,
      "duration": 0.1247,
      "velocity": 57
    },
    {
      "pitch": 36,
      "start_time": 3.0,
      "duration": 0.2803,
      "velocity": 111
    },
    {
      "pitch": 42,
      "start_time": 3.0,
      "duration": 0.1193,
      "velocity": 100
    },
    {
      "pitch": 53,
      "start_time": 3.0,
      "duration": 0.0801,
      "velocity": 60
    },
    {
      "pitch": 49,
      "start_time": 3.0092,
      "duration": 0.1153,
      "velocity": 65
    },
    {
      "pitch": 42,
      "start_time": 3.125,
      "duration": 0.125,
      "velocity": 63
    },
    {
      "pitch": 42,
      "start_time": 3.25,
      "duration": 0.125,
      "velocity": 63
    },
    {
      "pitch": 42,
      "start_time": 3.375,
      "duration": 0.125,
      "velocity": 29
    },
    {
      "pitch": 42,
      "start_time": 3.5,
      "duration": 0.125,
      "velocity": 32
    },
    {
      "pitch": 52,
      "start_time": 3.5,
      "duration": 0.0822,
      "velocity": 72
    },
    {
      "pitch": 50,
      "start_time": 3.5049,
      "duration": 0.0951,
      "velocity": 68
    },
    {
      "pitch": 42,
      "start_time": 3.625,
      "duration": 0.125,
      "velocity": 31
    },
    {
      "pitch": 42,
      "start_time": 3.75,
      "duration": 0.125,
      "velocity": 32
    },
    {
      "pitch": 42,
      "start_time": 3.875,
      "duration": 0.0886,
      "velocity": 32
    },
    {
      "pitch": 36,
      "start_time": 4.0,
      "duration": 1.6276,
      "velocity": 124
    },
    {
      "pitch": 40,
      "start_time": 4.0,
      "duration": 0.1355,
      "velocity": 124
    },
    {
      "pitch": 55,
      "start_time": 4.0,
      "duration": 0.0717,
      "velocity": 94
    },
    {
      "pitch": 48,
      "start_time": 4.0107,
      "duration": 0.138,
      "velocity": 106
    },
    {
      "pitch": 42,
      "start_time": 4.5,
      "duration": 0.0884,
      "velocity": 55
    },
    {
      "pitch": 54,
      "start_time": 4.5,
      "duration": 0.0719,
      "velocity": 56
    },
    {
      "pitch": 51,
      "start_time": 4.506,
      "duration": 0.1366,
      "velocity": 74
    },
    {
      "pitch": 40,
      "start_time": 4.75,
      "duration": 0.1098,
      "velocity": 124
    },
    {
      "pitch": 47,
      "start_time": 5.0,
      "duration": 0.7185,
      "velocity": 101
    },
    {
      "pitch": 53,
      "start_time": 5.0,
      "duration": 0.0672,
      "velocity": 43
    },
    {
      "pitch": 49,
      "start_time": 5.0081,
      "duration": 0.1277,
      "velocity": 79
    },
    {
      "pitch": 42,
      "start_time": 5.3333,
      "duration": 0.3333,
      "velocity": 45
    },
    {
      "pitch": 40,
      "start_time": 5.5,
      "duration": 0.0928,
      "velocity": 124
    },
    {
      "pitch": 52,
      "start_time": 5.5,
      "duration": 0.0744,
      "velocity": 56
    },
    {
      "pitch": 50,
      "start_time": 5.5076,
      "duration": 0.0661,
      "velocity": 75
    },
    {
      "pitch": 42,
      "start_time": 5.6667,
      "duration": 0.3333,
      "velocity": 75
    },
    {
      "pitch": 38,
      "start_time": 6.0,
      "duration": 0.1222,
      "velocity": 124
    },
    {
      "pitch": 42,
      "start_time": 6.0,
      "duration": 0.3333,
      "velocity": 85
    },
    {
      "pitch": 55,
      "start_time": 6.0,
      "duration": 0.0821,
      "velocity": 83
    },
    {
      "pitch": 48,
      "start_time": 6.0095,
      "duration": 0.1322,
      "velocity": 103
    },
    {
      "pitch": 42,
      "start_time": 6.3333,
      "duration": 0.3333,
      "velocity": 88
    },
    {
      "pitch": 54,
      "start_time": 6.5,
      "duration": 0.0758,
      "velocity": 62
    },
    {
      "pitch": 51,
      "start_time": 6.5064,
      "duration": 0.1096,
      "velocity": 80
    },
    {
      "pitch": 42,
      "start_time": 6.6667,
      "duration": 0.1092,
      "velocity": 85
    },
    {
      "pitch": 36,
      "start_time": 7.0,
      "duration": 0.6513,
      "velocity": 122
    },
    {
      "pitch": 37,
      "start_time": 7.0,
      "duration": 0.3333,
      "velocity": 35
    },
    {
      "pitch": 42,
      "start_time": 7.0,
      "duration": 0.1325,
      "velocity": 77
    },
    {
      "pitch": 53,
      "start_time": 7.0,
      "duration": 0.0763,
      "velocity": 75
    },
    {
      "pitch": 49,
      "start_time": 7.0089,
      "duration": 0.1098,
      "velocity": 93
    },
    {
      "pitch": 37,
      "start_time": 7.3333,
      "duration": 0.3333,
      "velocity": 44
    },
    {
      "pitch": 52,
      "start_time": 7.5,
      "duration": 0.0829,
      "velocity": 86
    },
    {
      "pitch": 50,
      "start_time": 7.5094,
      "duration": 0.0671,
      "velocity": 93
    },
    {
      "pitch": 37,
      "start_time": 7.6667,
      "duration": 0.1747,
      "velocity": 48
    }
  ]
}