{
  "source": {
    "song": "packs",
    "track_index": 0,
    "track_name": "Drum Essentials / MIDI Clips / 111 - 130 bpm / Main Frame Kit groove 01_128 bpm",
    "slot_index": 0,
    "clip_name": "Drum Essentials / MIDI Clips / 111 - 130 bpm / Main Frame Kit groove 01_128 bpm",
    "mid_file": "/Users/darnold/Music/Ableton/Packs/Drum Essentials/MIDI Clips/111 - 130 bpm/Main Frame Kit groove 01_128 bpm.alc"
  },
  "meta": {
    "bpm": 128.0,
    "key": "?",
    "scale": "?",
    "length_beats": 8.0,
    "note_count": 61
  },
  "rhythm": {
    "density": 1.094,
    "hit_positions": [
      0.0,
      0.0,
      0.0,
      0.25,
      0.5,
      0.75,
      1.0,
      1.0,
      1.0,
      1.0,
      1.25,
      1.5,
      1.5,
      1.5,
      1.75,
      2.0,
      2.0,
      2.25,
      2.5,
      2.75,
      3.0,
      3.0,
      3.0,
      3.0,
      3.25,
      3.5,
      3.75,
      3.75,
      4.0,
      4.0,
      4.0,
      4.25,
      4.5,
      4.5,
      4.5,
      4.625,
      4.75,
      4.75,
      4.875,
      5.0,
      5.0,
      5.0,
      5.25,
      5.5,
      5.5,
      5.75,
      6.0,
      6.0007,
      6.2214,
      6.25,
      6.5,
      6.75,
      6.7848,
      7.0,
      7.0,
      7.25,
      7.2563,
      7.4694,
      7.482,
      7.5,
      7.75
    ],
    "ioi": [
      0.0,
      0.0,
      0.25,
      0.25,
      0.25,
      0.25,
      0.0,
      0.0,
      0.0,
      0.25,
      0.25,
      0.0,
      0.0,
      0.25,
      0.25,
      0.0,
      0.25,
      0.25,
      0.25,
      0.25,
      0.0,
      0.0,
      0.0,
      0.25,
      0.25,
      0.25,
      0.0,
      0.25,
      0.0,
      0.0,
      0.25,
      0.25,
      0.0,
      0.0,
      0.125,
      0.125,
      0.0,
      0.125,
      0.125,
      0.0,
      0.0,
      0.25,
      0.25,
      0.0,
      0.25,
      0.25,
      0.0007,
      0.2207,
      0.0286,
      0.25,
      0.25,
      0.0348,
      0.2152,
      0.0,
      0.25,
      0.0063,
      0.2131,
      0.0126,
      0.018,
      0.25,
      0.25
    ],
    "grid": "16th",
    "euclidean_approx": [
      32,
      32
    ],
    "swing_ratio": 1.107
  },
  "pitch": {
    "notes_used": [
      36,
      37,
      38,
      39,
      42,
      44,
      45,
      47,
      48,
      50
    ],
    "intervals": [
      6,
      3,
      3,
      0,
      0,
      5,
      2,
      3,
      3,
      3,
      6,
      6,
      3,
      3,
      0,
      6,
      6,
      0,
      0,
      5,
      2,
      3,
      6,
      6,
      0,
      6,
      6,
      6,
      6,
      5,
      5,
      6,
      1,
      5,
      5,
      0,
      5,
      5,
      0,
      2,
      3,
      0,
      6,
      6,
      0,
      0,
      2,
      0,
      2,
      0,
      0,
      2,
      6,
      4,
      0,
      2,
      6,
      0,
      8,
      0
    ],
    "register": "low",
    "is_melodic": true,
    "pitch_range": 14,
    "pitch_distribution": {
      "36": 6,
      "42": 32,
      "45": 3,
      "37": 7,
      "39": 3,
      "48": 2,
      "47": 1,
      "44": 4,
      "38": 1,
      "50": 2
    }
  },
  "velocity": {
    "mean": 67.3,
    "variance": 1025.6,
    "std": 32.0,
    "accents": [
      0,
      6,
      7,
      11,
      20,
      21,
      28,
      30,
      38,
      39,
      40,
      43,
      52,
      53,
      58
    ],
    "profile": [
      124,
      58,
      37,
      50,
      48,
      45,
      125,
      124,
      42,
      32,
      39,
      124,
      44,
      32,
      44,
      43,
      39,
      46,
      48,
      49,
      124,
      125,
      49,
      49,
      50,
      51,
      55,
      49,
      103,
      47,
      100,
      48,
      90,
      61,
      50,
      61,
      76,
      50,
      109,
      125,
      125,
      47,
      46,
      124,
      48,
      48,
      44,
      62,
      77,
      44,
      46,
      46,
      108,
      127,
      47,
      47,
      96,
      31,
      124,
      51,
      54
    ]
  },
  "notes": [
    {
      "pitch": 36,
      "start_time": 0.0,
      "duration": 0.1534,
      "velocity": 124
    },
    {
      "pitch": 42,
      "start_time": 0.0,
      "duration": 0.0267,
      "velocity": 58
    },
    {
      "pitch": 45,
      "start_time": 0.0,
      "duration": 0.1345,
      "velocity": 37
    },
    {
      "pitch": 42,
      "start_time": 0.25,
      "duration": 0.25,
      "velocity": 50
    },
    {
      "pitch": 42,
      "start_time": 0.5,
      "duration": 0.25,
      "velocity": 48
    },
    {
      "pitch": 42,
      "start_time": 0.75,
      "duration": 0.25,
      "velocity": 45
    },
    {
      "pitch": 37,
      "start_time": 1.0,
      "duration": 0.1648,
      "velocity": 125
    },
    {
      "pitch": 39,
      "start_time": 1.0,
      "duration": 0.2056,
      "velocity": 124
    },
    {
      "pitch": 42,
      "start_time": 1.0,
      "duration": 0.25,
      "velocity": 42
    },
    {
      "pitch": 45,
      "start_time": 1.0,
      "duration": 0.0597,
      "velocity": 32
    },
    {
      "pitch": 42,
      "start_time": 1.25,
      "duration": 0.25,
      "velocity": 39
    },
    {
      "pitch": 36,
      "start_time": 1.5,
      "duration": 0.1329,
      "velocity": 124
    },
    {
      "pitch": 42,
      "start_time": 1.5,
      "duration": 0.25,
      "velocity": 44
    },
    {
      "pitch": 45,
      "start_time": 1.5,
      "duration": 0.0698,
      "velocity": 32
    },
    {
      "pitch": 42,
      "start_time": 1.75,
      "duration": 0.25,
      "velocity": 44
    },
    {
      "pitch": 42,
      "start_time": 2.0,
      "duration": 0.25,
      "velocity": 43
    },
    {
      "pitch": 48,
      "start_time": 2.0,
      "duration": 0.0747,
      "velocity": 39
    },
    {
      "pitch": 42,
      "start_time": 2.25,
      "duration": 0.25,
      "velocity": 46
    },
    {
      "pitch": 42,
      "start_time": 2.5,
      "duration": 0.25,
      "velocity": 48
    },
    {
      "pitch": 42,
      "start_time": 2.75,
      "duration": 0.25,
      "velocity": 49
    },
    {
      "pitch": 37,
      "start_time": 3.0,
      "duration": 0.2047,
      "velocity": 124
    },
    {
      "pitch": 39,
      "start_time": 3.0,
      "duration": 0.2,
      "velocity": 125
    },
    {
      "pitch": 42,
      "start_time": 3.0,
      "duration": 0.25,
      "velocity": 49
    },
    {
      "pitch": 48,
      "start_time": 3.0,
      "duration": 0.079,
      "velocity": 49
    },
    {
      "pitch": 42,
      "start_time": 3.25,
      "duration": 0.25,
      "velocity": 50
    },
    {
      "pitch": 42,
      "start_time": 3.5,
      "duration": 0.25,
      "velocity": 51
    },
    {
      "pitch": 36,
      "start_time": 3.75,
      "duration": 0.0524,
      "velocity": 55
    },
    {
      "pitch": 42,
      "start_time": 3.75,
      "duration": 0.25,
      "velocity": 49
    },
    {
      "pitch": 36,
      "start_time": 4.0,
      "duration": 0.1556,
      "velocity": 103
    },
    {
      "pitch": 42,
      "start_time": 4.0,
      "duration": 0.25,
      "velocity": 47
    },
    {
      "pitch": 47,
      "start_time": 4.0,
      "duration": 0.25,
      "velocity": 100
    },
    {
      "pitch": 42,
      "start_time": 4.25,
      "duration": 0.25,
      "velocity": 48
    },
    {
      "pitch": 36,
      "start_time": 4.5,
      "duration": 0.1442,
      "velocity": 90
    },
    {
      "pitch": 37,
      "start_time": 4.5,
      "duration": 0.125,
      "velocity": 61
    },
    {
      "pitch": 42,
      "start_time": 4.5,
      "duration": 0.25,
      "velocity": 50
    },
    {
      "pitch": 37,
      "start_time": 4.625,
      "duration": 0.125,
      "velocity": 61
    },
    {
      "pitch": 37,
      "start_time": 4.75,
      "duration": 0.125,
      "velocity": 76
    },
    {
      "pitch": 42,
      "start_time": 4.75,
      "duration": 0.25,
      "velocity": 50
    },
    {
      "pitch": 37,
      "start_time": 4.875,
      "duration": 0.0067,
      "velocity": 109
    },
    {
      "pitch": 37,
      "start_time": 5.0,
      "duration": 0.1711,
      "velocity": 125
    },
    {
      "pitch": 39,
      "start_time": 5.0,
      "duration": 0.1952,
      "velocity": 125
    },
    {
      "pitch": 42,
      "start_time": 5.0,
      "duration": 0.25,
      "velocity": 47
    },
    {
      "pitch": 42,
      "start_time": 5.25,
      "duration": 0.25,
      "velocity": 46
    },
    {
      "pitch": 36,
      "start_time": 5.5,
      "duration": 0.141,
      "velocity": 124
    },
    {
      "pitch": 42,
      "start_time": 5.5,
      "duration": 0.25,
      "velocity": 48
    },
    {
      "pitch": 42,
      "start_time": 5.75,
      "duration": 0.25,
      "velocity": 48
    },
    {
      "pitch": 42,
      "start_time": 6.0,
      "duration": 0.25,
      "velocity": 44
    },
    {
      "pitch": 44,
      "start_time": 6.0007,
      "duration": 0.0636,
      "velocity": 62
    },
    {
      "pitch": 44,
      "start_time": 6.2214,
      "duration": 0.1436,
      "velocity": 77
    },
    {
      "pitch": 42,
      "start_time": 6.25,
      "duration": 0.25,
      "velocity": 44
    },
    {
      "pitch": 42,
      "start_time": 6.5,
      "duration": 0.25,
      "velocity": 46
    },
    {
      "pitch": 42,
      "start_time": 6.75,
      "duration": 0.25,
      "velocity": 46
    },
    {
      "pitch": 44,
      "start_time": 6.7848,
      "duration": 0.0991,
      "velocity": 108
    },
    {
      "pitch": 38,
      "start_time": 7.0,
      "duration": 0.1959,
      "velocity": 127
    },
    {
      "pitch": 42,
      "start_time": 7.0,
      "duration": 0.25,
      "velocity": 47
    },
    {
      "pitch": 42,
      "start_time": 7.25,
      "duration": 0.25,
      "velocity": 47
    },
    {
      "pitch": 44,
      "start_time": 7.2563,
      "duration": 0.0717,
      "velocity": 96
    },
    {
      "pitch": 50,
      "start_time": 7.4694,
      "duration": 0.0126,
      "velocity": 31
    },
    {
      "pitch": 50,
      "start_time": 7.482,
      "duration": 0.1144,
      "velocity": 124
    },
    {
      "pitch": 42,
      "start_time": 7.5,
      "duration": 0.25,
      "velocity": 51
    },
    {
      "pitch": 42,
      "start_time": 7.75,
      "duration": 0.25,
      "velocity": 54
    }
  ]
}