{
  "source": {
    "song": "packs",
    "track_index": 0,
    "track_name": "Drum Essentials / MIDI Clips / 111 - 130 bpm / Head Smack Kit groove 02_130 bpm",
    "slot_index": 0,
    "clip_name": "Drum Essentials / MIDI Clips / 111 - 130 bpm / Head Smack Kit groove 02_130 bpm",
    "mid_file": "/Users/darnold/Music/Ableton/Packs/Drum Essentials/MIDI Clips/111 - 130 bpm/Head Smack Kit groove 02_130 bpm.alc"
  },
  "meta": {
    "bpm": 130.0,
    "key": "?",
    "scale": "?",
    "length_beats": 8.0,
    "note_count": 65
  },
  "rhythm": {
    "density": 1.031,
    "hit_positions": [
      0.0,
      0.0,
      0.0,
      0.25,
      0.5,
      0.5,
      0.75,
      0.75,
      1.0,
      1.0,
      1.25,
      1.25,
      1.5,
      1.5,
      1.75,
      1.75,
      2.0,
      2.0,
      2.0,
      2.0,
      2.25,
      2.5,
      2.75,
      3.0,
      3.25,
      3.5,
      3.5,
      3.5,
      3.75,
      3.75,
      4.0,
      4.0,
      4.0,
      4.25,
      4.5,
      4.5,
      4.5,
      4.75,
      4.75,
      5.0,
      5.0,
      5.0,
      5.0,
      5.25,
      5.25,
      5.5,
      5.5,
      5.75,
      5.75,
      5.75,
      6.0,
      6.0,
      6.0,
      6.0,
      6.0,
      6.25,
      6.3333,
      6.5,
      6.5,
      6.6667,
      6.75,
      7.0,
      7.0,
      7.3333,
      7.6667
    ],
    "ioi": [
      0.0,
      0.0,
      0.25,
      0.25,
      0.0,
      0.25,
      0.0,
      0.25,
      0.0,
      0.25,
      0.0,
      0.25,
      0.0,
      0.25,
      0.0,
      0.25,
      0.0,
      0.0,
      0.0,
      0.25,
      0.25,
      0.25,
      0.25,
      0.25,
      0.25,
      0.0,
      0.0,
      0.25,
      0.0,
      0.25,
      0.0,
      0.0,
      0.25,
      0.25,
      0.0,
      0.0,
      0.25,
      0.0,
      0.25,
      0.0,
      0.0,
      0.0,
      0.25,
      0.0,
      0.25,
      0.0,
      0.25,
      0.0,
      0.0,
      0.25,
      0.0,
      0.0,
      0.0,
      0.0,
      0.25,
      0.0833,
      0.1667,
      0.0,
      0.1667,
      0.0833,
      0.25,
      0.0,
      0.3333,
      0.3334,
      0.3333
    ],
    "grid": "16th",
    "euclidean_approx": [
      32,
      32
    ],
    "swing_ratio": 1.028
  },
  "pitch": {
    "notes_used": [
      36,
      38,
      39,
      40,
      41,
      42,
      43,
      44,
      45,
      46,
      49,
      50,
      51
    ],
    "intervals": [
      6,
      9,
      0,
      9,
      9,
      2,
      2,
      9,
      9,
      10,
      10,
      5,
      5,
      1,
      1,
      13,
      1,
      1,
      11,
      0,
      0,
      0,
      0,
      0,
      15,
      6,
      9,
      5,
      5,
      15,
      6,
      9,
      0,
      9,
      1,
      8,
      10,
      10,
      15,
      6,
      1,
      8,
      7,
      7,
      8,
      8,
      15,
      13,
      2,
      13,
      1,
      1,
      3,
      8,
      0,
      6,
      3,
      9,
      6,
      6,
      13,
      7,
      0,
      0
    ],
    "register": "low",
    "is_melodic": true,
    "pitch_range": 15,
    "pitch_distribution": {
      "36": 5,
      "42": 8,
      "51": 28,
      "49": 2,
      "41": 2,
      "46": 2,
      "50": 1,
      "38": 3,
      "39": 2,
      "40": 2,
      "43": 4,
      "44": 1,
      "45": 5
    }
  },
  "velocity": {
    "mean": 47.2,
    "variance": 541.5,
    "std": 23.3,
    "accents": [
      0,
      16,
      18,
      28,
      30,
      48,
      50,
      52,
      60,
      64
    ],
    "profile": [
      83,
      65,
      44,
      53,
      26,
      27,
      35,
      41,
      29,
      55,
      36,
      46,
      59,
      30,
      19,
      29,
      73,
      62,
      106,
      40,
      61,
      41,
      23,
      52,
      58,
      46,
      28,
      50,
      94,
      45,
      85,
      64,
      41,
      20,
      34,
      17,
      29,
      63,
      20,
      53,
      56,
      34,
      3,
      46,
      18,
      32,
      25,
      50,
      112,
      25,
      80,
      49,
      93,
      26,
      42,
      46,
      22,
      54,
      20,
      31,
      100,
      66,
      40,
      47,
      71
    ]
  },
  "notes": [
    {
      "pitch": 36,
      "start_time": 0.0,
      "duration": 0.1067,
      "velocity": 83
    },
    {
      "pitch": 42,
      "start_time": 0.0,
      "duration": 0.0848,
      "velocity": 65
    },
    {
      "pitch": 51,
      "start_time": 0.0,
      "duration": 0.25,
      "velocity": 44
    },
    {
      "pitch": 51,
      "start_time": 0.25,
      "duration": 0.25,
      "velocity": 53
    },
    {
      "pitch": 42,
      "start_time": 0.5,
      "duration": 0.0774,
      "velocity": 26
    },
    {
      "pitch": 51,
      "start_time": 0.5,
      "duration": 0.25,
      "velocity": 27
    },
    {
      "pitch": 49,
      "start_time": 0.75,
      "duration": 0.0406,
      "velocity": 35
    },
    {
      "pitch": 51,
      "start_time": 0.75,
      "duration": 0.25,
      "velocity": 41
    },
    {
      "pitch": 42,
      "start_time": 1.0,
      "duration": 0.1008,
      "velocity": 29
    },
    {
      "pitch": 51,
      "start_time": 1.0,
      "duration": 0.25,
      "velocity": 55
    },
    {
      "pitch": 41,
      "start_time": 1.25,
      "duration": 0.0467,
      "velocity": 36
    },
    {
      "pitch": 51,
      "start_time": 1.25,
      "duration": 0.25,
      "velocity": 46
    },
    {
      "pitch": 46,
      "start_time": 1.5,
      "duration": 0.0454,
      "velocity": 59
    },
    {
      "pitch": 51,
      "start_time": 1.5,
      "duration": 0.25,
      "velocity": 30
    },
    {
      "pitch": 50,
      "start_time": 1.75,
      "duration": 0.0407,
      "velocity": 19
    },
    {
      "pitch": 51,
      "start_time": 1.75,
      "duration": 0.25,
      "velocity": 29
    },
    {
      "pitch": 38,
      "start_time": 2.0,
      "duration": 0.115,
      "velocity": 73
    },
    {
      "pitch": 39,
      "start_time": 2.0,
      "duration": 0.0906,
      "velocity": 62
    },
    {
      "pitch": 40,
      "start_time": 2.0,
      "duration": 0.071,
      "velocity": 106
    },
    {
      "pitch": 51,
      "start_time": 2.0,
      "duration": 0.25,
      "velocity": 40
    },
    {
      "pitch": 51,
      "start_time": 2.25,
      "duration": 0.25,
      "velocity": 61
    },
    {
      "pitch": 51,
      "start_time": 2.5,
      "duration": 0.25,
      "velocity": 41
    },
    {
      "pitch": 51,
      "start_time": 2.75,
      "duration": 0.25,
      "velocity": 23
    },
    {
      "pitch": 51,
      "start_time": 3.0,
      "duration": 0.25,
      "velocity": 52
    },
    {
      "pitch": 51,
      "start_time": 3.25,
      "duration": 0.25,
      "velocity": 58
    },
    {
      "pitch": 36,
      "start_time": 3.5,
      "duration": 0.0617,
      "velocity": 46
    },
    {
      "pitch": 42,
      "start_time": 3.5,
      "duration": 0.0406,
      "velocity": 28
    },
    {
      "pitch": 51,
      "start_time": 3.5,
      "duration": 0.25,
      "velocity": 50
    },
    {
      "pitch": 46,
      "start_time": 3.75,
      "duration": 0.0535,
      "velocity": 94
    },
    {
      "pitch": 51,
      "start_time": 3.75,
      "duration": 0.0595,
      "velocity": 45
    },
    {
      "pitch": 36,
      "start_time": 4.0,
      "duration": 0.096,
      "velocity": 85
    },
    {
      "pitch": 42,
      "start_time": 4.0,
      "duration": 0.0883,
      "velocity": 64
    },
    {
      "pitch": 51,
      "start_time": 4.0,
      "duration": 0.25,
      "velocity": 41
    },
    {
      "pitch": 51,
      "start_time": 4.25,
      "duration": 0.25,
      "velocity": 20
    },
    {
      "pitch": 42,
      "start_time": 4.5,
      "duration": 0.0665,
      "velocity": 34
    },
    {
      "pitch": 43,
      "start_time": 4.5,
      "duration": 0.5,
      "velocity": 17
    },
    {
      "pitch": 51,
      "start_time": 4.5,
      "duration": 0.25,
      "velocity": 29
    },
    {
      "pitch": 41,
      "start_time": 4.75,
      "duration": 0.0882,
      "velocity": 63
    },
    {
      "pitch": 51,
      "start_time": 4.75,
      "duration": 0.25,
      "velocity": 20
    },
    {
      "pitch": 36,
      "start_time": 5.0,
      "duration": 0.087,
      "velocity": 53
    },
    {
      "pitch": 42,
      "start_time": 5.0,
      "duration": 0.0645,
      "velocity": 56
    },
    {
      "pitch": 43,
      "start_time": 5.0,
      "duration": 0.5,
      "velocity": 34
    },
    {
      "pitch": 51,
      "start_time": 5.0,
      "duration": 0.25,
      "velocity": 3
    },
    {
      "pitch": 44,
      "start_time": 5.25,
      "duration": 0.1119,
      "velocity": 46
    },
    {
      "pitch": 51,
      "start_time": 5.25,
      "duration": 0.25,
      "velocity": 18
    },
    {
      "pitch": 43,
      "start_time": 5.5,
      "duration": 0.5,
      "velocity": 32
    },
    {
      "pitch": 51,
      "start_time": 5.5,
      "duration": 0.25,
      "velocity": 25
    },
    {
      "pitch": 36,
      "start_time": 5.75,
      "duration": 0.099,
      "velocity": 50
    },
    {
      "pitch": 49,
      "start_time": 5.75,
      "duration": 0.0878,
      "velocity": 112
    },
    {
      "pitch": 51,
      "start_time": 5.75,
      "duration": 0.25,
      "velocity": 25
    },
    {
      "pitch": 38,
      "start_time": 6.0,
      "duration": 0.1332,
      "velocity": 80
    },
    {
      "pitch": 39,
      "start_time": 6.0,
      "duration": 0.1352,
      "velocity": 49
    },
    {
      "pitch": 40,
      "start_time": 6.0,
      "duration": 0.0778,
      "velocity": 93
    },
    {
      "pitch": 43,
      "start_time": 6.0,
      "duration": 0.0083,
      "velocity": 26
    },
    {
      "pitch": 51,
      "start_time": 6.0,
      "duration": 0.25,
      "velocity": 42
    },
    {
      "pitch": 51,
      "start_time": 6.25,
      "duration": 0.25,
      "velocity": 46
    },
    {
      "pitch": 45,
      "start_time": 6.3333,
      "duration": 0.3333,
      "velocity": 22
    },
    {
      "pitch": 42,
      "start_time": 6.5,
      "duration": 0.097,
      "velocity": 54
    },
    {
      "pitch": 51,
      "start_time": 6.5,
      "duration": 0.25,
      "velocity": 20
    },
    {
      "pitch": 45,
      "start_time": 6.6667,
      "duration": 0.3333,
      "velocity": 31
    },
    {
      "pitch": 51,
      "start_time": 6.75,
      "duration": 0.125,
      "velocity": 100
    },
    {
      "pitch": 38,
      "start_time": 7.0,
      "duration": 0.1456,
      "velocity": 66
    },
    {
      "pitch": 45,
      "start_time": 7.0,
      "duration": 0.3333,
      "velocity": 40
    },
    {
      "pitch": 45,
      "start_time": 7.3333,
      "duration": 0.3333,
      "velocity": 47
    },
    {
      "pitch": 45,
      "start_time": 7.6667,
      "duration": 0.2338,
      "velocity": 71
    }
  ]
}