{
  "source": {
    "song": "packs",
    "track_index": 0,
    "track_name": "Drum Essentials / MIDI Clips / 91 - 110 bpm / Undercurrent Kit groove 01_105 bpm",
    "slot_index": 0,
    "clip_name": "Drum Essentials / MIDI Clips / 91 - 110 bpm / Undercurrent Kit groove 01_105 bpm",
    "mid_file": "/Users/darnold/Music/Ableton/Packs/Drum Essentials/MIDI Clips/91 - 110 bpm/Undercurrent Kit groove 01_105 bpm.alc"
  },
  "meta": {
    "bpm": 105.0,
    "key": "?",
    "scale": "?",
    "length_beats": 8.0,
    "note_count": 64
  },
  "rhythm": {
    "density": 1.156,
    "hit_positions": [
      0.0,
      0.0,
      0.25,
      0.25,
      0.5,
      0.75,
      0.75,
      1.0,
      1.0,
      1.0,
      1.25,
      1.25,
      1.5,
      1.5,
      1.75,
      2.0,
      2.0,
      2.25,
      2.25,
      2.5,
      2.5,
      2.75,
      3.0,
      3.0,
      3.0,
      3.25,
      3.25,
      3.5,
      3.625,
      3.75,
      3.875,
      4.0,
      4.0,
      4.25,
      4.25,
      4.5,
      4.5,
      4.75,
      5.0,
      5.0,
      5.0,
      5.25,
      5.25,
      5.5,
      5.5,
      5.75,
      6.0,
      6.0,
      6.25,
      6.25,
      6.25,
      6.5,
      6.5,
      6.75,
      7.0,
      7.0,
      7.0,
      7.125,
      7.25,
      7.375,
      7.5,
      7.5,
      7.625,
      7.75
    ],
    "ioi": [
      0.0,
      0.25,
      0.0,
      0.25,
      0.25,
      0.0,
      0.25,
      0.0,
      0.0,
      0.25,
      0.0,
      0.25,
      0.0,
      0.25,
      0.25,
      0.0,
      0.25,
      0.0,
      0.25,
      0.0,
      0.25,
      0.25,
      0.0,
      0.0,
      0.25,
      0.0,
      0.25,
      0.125,
      0.125,
      0.125,
      0.125,
      0.0,
      0.25,
      0.0,
      0.25,
      0.0,
      0.25,
      0.25,
      0.0,
      0.0,
      0.25,
      0.0,
      0.25,
      0.0,
      0.25,
      0.25,
      0.0,
      0.25,
      0.0,
      0.0,
      0.25,
      0.0,
      0.25,
      0.25,
      0.0,
      0.0,
      0.125,
      0.125,
      0.125,
      0.125,
      0.0,
      0.125,
      0.125,
      0.25
    ],
    "grid": "16th",
    "euclidean_approx": [
      32,
      32
    ],
    "swing_ratio": 1.037
  },
  "pitch": {
    "notes_used": [
      36,
      37,
      39,
      40,
      41,
      42,
      44,
      45,
      46,
      48,
      49,
      50
    ],
    "intervals": [
      6,
      0,
      6,
      6,
      0,
      2,
      7,
      2,
      3,
      0,
      7,
      7,
      3,
      3,
      6,
      6,
      0,
      8,
      8,
      4,
      4,
      5,
      2,
      3,
      0,
      2,
      2,
      0,
      0,
      0,
      0,
      6,
      6,
      2,
      8,
      6,
      0,
      5,
      2,
      3,
      0,
      3,
      9,
      6,
      0,
      0,
      8,
      11,
      3,
      4,
      9,
      5,
      0,
      3,
      2,
      1,
      0,
      0,
      0,
      2,
      2,
      0,
      0
    ],
    "register": "low",
    "is_melodic": true,
    "pitch_range": 14,
    "pitch_distribution": {
      "36": 4,
      "42": 37,
      "48": 2,
      "44": 3,
      "37": 4,
      "39": 5,
      "49": 1,
      "45": 2,
      "50": 2,
      "46": 2,
      "41": 1,
      "40": 1
    }
  },
  "velocity": {
    "mean": 46.9,
    "variance": 985.9,
    "std": 31.4,
    "accents": [
      8,
      12,
      20,
      23,
      32,
      34,
      39,
      50,
      54,
      55
    ],
    "profile": [
      67,
      6,
      44,
      49,
      22,
      37,
      62,
      71,
      127,
      10,
      17,
      17,
      86,
      55,
      36,
      41,
      35,
      15,
      38,
      33,
      87,
      43,
      68,
      111,
      67,
      27,
      51,
      20,
      20,
      24,
      26,
      43,
      93,
      8,
      82,
      40,
      8,
      8,
      76,
      112,
      8,
      8,
      71,
      45,
      41,
      21,
      3,
      52,
      71,
      13,
      100,
      44,
      35,
      7,
      127,
      100,
      57,
      57,
      57,
      17,
      76,
      39,
      39,
      29
    ]
  },
  "notes": [
    {
      "pitch": 36,
      "start_time": 0.0,
      "duration": 0.1146,
      "velocity": 67
    },
    {
      "pitch": 42,
      "start_time": 0.0,
      "duration": 0.25,
      "velocity": 6
    },
    {
      "pitch": 42,
      "start_time": 0.25,
      "duration": 0.25,
      "velocity": 44
    },
    {
      "pitch": 48,
      "start_time": 0.25,
      "duration": 0.1458,
      "velocity": 49
    },
    {
      "pitch": 42,
      "start_time": 0.5,
      "duration": 0.25,
      "velocity": 22
    },
    {
      "pitch": 42,
      "start_time": 0.75,
      "duration": 0.25,
      "velocity": 37
    },
    {
      "pitch": 44,
      "start_time": 0.75,
      "duration": 0.0729,
      "velocity": 62
    },
    {
      "pitch": 37,
      "start_time": 1.0,
      "duration": 0.0833,
      "velocity": 71
    },
    {
      "pitch": 39,
      "start_time": 1.0,
      "duration": 0.0938,
      "velocity": 127
    },
    {
      "pitch": 42,
      "start_time": 1.0,
      "duration": 0.25,
      "velocity": 10
    },
    {
      "pitch": 42,
      "start_time": 1.25,
      "duration": 0.1458,
      "velocity": 17
    },
    {
      "pitch": 49,
      "start_time": 1.25,
      "duration": 0.1042,
      "velocity": 17
    },
    {
      "pitch": 42,
      "start_time": 1.5,
      "duration": 0.25,
      "velocity": 86
    },
    {
      "pitch": 45,
      "start_time": 1.5,
      "duration": 0.0729,
      "velocity": 55
    },
    {
      "pitch": 42,
      "start_time": 1.75,
      "duration": 0.1875,
      "velocity": 36
    },
    {
      "pitch": 36,
      "start_time": 2.0,
      "duration": 0.1458,
      "velocity": 41
    },
    {
      "pitch": 42,
      "start_time": 2.0,
      "duration": 0.125,
      "velocity": 35
    },
    {
      "pitch": 42,
      "start_time": 2.25,
      "duration": 0.25,
      "velocity": 15
    },
    {
      "pitch": 50,
      "start_time": 2.25,
      "duration": 0.1667,
      "velocity": 38
    },
    {
      "pitch": 42,
      "start_time": 2.5,
      "duration": 0.25,
      "velocity": 33
    },
    {
      "pitch": 46,
      "start_time": 2.5,
      "duration": 0.0833,
      "velocity": 87
    },
    {
      "pitch": 42,
      "start_time": 2.75,
      "duration": 0.1667,
      "velocity": 43
    },
    {
      "pitch": 37,
      "start_time": 3.0,
      "duration": 0.1042,
      "velocity": 68
    },
    {
      "pitch": 39,
      "start_time": 3.0,
      "duration": 0.0938,
      "velocity": 111
    },
    {
      "pitch": 42,
      "start_time": 3.0,
      "duration": 0.25,
      "velocity": 67
    },
    {
      "pitch": 42,
      "start_time": 3.25,
      "duration": 0.25,
      "velocity": 27
    },
    {
      "pitch": 44,
      "start_time": 3.25,
      "duration": 0.0729,
      "velocity": 51
    },
    {
      "pitch": 42,
      "start_time": 3.5,
      "duration": 0.125,
      "velocity": 20
    },
    {
      "pitch": 42,
      "start_time": 3.625,
      "duration": 0.125,
      "velocity": 20
    },
    {
      "pitch": 42,
      "start_time": 3.75,
      "duration": 0.125,
      "velocity": 24
    },
    {
      "pitch": 42,
      "start_time": 3.875,
      "duration": 0.0104,
      "velocity": 26
    },
    {
      "pitch": 42,
      "start_time": 4.0,
      "duration": 0.1667,
      "velocity": 43
    },
    {
      "pitch": 48,
      "start_time": 4.0,
      "duration": 0.25,
      "velocity": 93
    },
    {
      "pitch": 42,
      "start_time": 4.25,
      "duration": 0.25,
      "velocity": 8
    },
    {
      "pitch": 44,
      "start_time": 4.25,
      "duration": 0.0938,
      "velocity": 82
    },
    {
      "pitch": 36,
      "start_time": 4.5,
      "duration": 0.0625,
      "velocity": 40
    },
    {
      "pitch": 42,
      "start_time": 4.5,
      "duration": 0.25,
      "velocity": 8
    },
    {
      "pitch": 42,
      "start_time": 4.75,
      "duration": 0.25,
      "velocity": 8
    },
    {
      "pitch": 37,
      "start_time": 5.0,
      "duration": 0.125,
      "velocity": 76
    },
    {
      "pitch": 39,
      "start_time": 5.0,
      "duration": 0.1042,
      "velocity": 112
    },
    {
      "pitch": 42,
      "start_time": 5.0,
      "duration": 0.25,
      "velocity": 8
    },
    {
      "pitch": 42,
      "start_time": 5.25,
      "duration": 0.2396,
      "velocity": 8
    },
    {
      "pitch": 45,
      "start_time": 5.25,
      "duration": 0.0833,
      "velocity": 71
    },
    {
      "pitch": 36,
      "start_time": 5.5,
      "duration": 0.1042,
      "velocity": 45
    },
    {
      "pitch": 42,
      "start_time": 5.5,
      "duration": 0.1042,
      "velocity": 41
    },
    {
      "pitch": 42,
      "start_time": 5.75,
      "duration": 0.25,
      "velocity": 21
    },
    {
      "pitch": 42,
      "start_time": 6.0,
      "duration": 0.25,
      "velocity": 3
    },
    {
      "pitch": 50,
      "start_time": 6.0,
      "duration": 0.125,
      "velocity": 52
    },
    {
      "pitch": 39,
      "start_time": 6.25,
      "duration": 0.0833,
      "velocity": 71
    },
    {
      "pitch": 42,
      "start_time": 6.25,
      "duration": 0.2396,
      "velocity": 13
    },
    {
      "pitch": 46,
      "start_time": 6.25,
      "duration": 0.0625,
      "velocity": 100
    },
    {
      "pitch": 37,
      "start_time": 6.5,
      "duration": 0.0729,
      "velocity": 44
    },
    {
      "pitch": 42,
      "start_time": 6.5,
      "duration": 0.0833,
      "velocity": 35
    },
    {
      "pitch": 42,
      "start_time": 6.75,
      "duration": 0.25,
      "velocity": 7
    },
    {
      "pitch": 39,
      "start_time": 7.0,
      "duration": 0.1042,
      "velocity": 127
    },
    {
      "pitch": 41,
      "start_time": 7.0,
      "duration": 0.1146,
      "velocity": 100
    },
    {
      "pitch": 42,
      "start_time": 7.0,
      "duration": 0.125,
      "velocity": 57
    },
    {
      "pitch": 42,
      "start_time": 7.125,
      "duration": 0.125,
      "velocity": 57
    },
    {
      "pitch": 42,
      "start_time": 7.25,
      "duration": 0.0625,
      "velocity": 57
    },
    {
      "pitch": 42,
      "start_time": 7.375,
      "duration": 0.125,
      "velocity": 17
    },
    {
      "pitch": 40,
      "start_time": 7.5,
      "duration": 0.0938,
      "velocity": 76
    },
    {
      "pitch": 42,
      "start_time": 7.5,
      "duration": 0.125,
      "velocity": 39
    },
    {
      "pitch": 42,
      "start_time": 7.625,
      "duration": 0.125,
      "velocity": 39
    },
    {
      "pitch": 42,
      "start_time": 7.75,
      "duration": 0.1146,
      "velocity": 29
    }
  ]
}