{
  "source": {
    "song": "packs",
    "track_index": 0,
    "track_name": "Drum Essentials / MIDI Clips / 111 - 130 bpm / 64 Pads Penelope Kit groove 05_114 bpm",
    "slot_index": 0,
    "clip_name": "Drum Essentials / MIDI Clips / 111 - 130 bpm / 64 Pads Penelope Kit groove 05_114 bpm",
    "mid_file": "/Users/darnold/Music/Ableton/Packs/Drum Essentials/MIDI Clips/111 - 130 bpm/64 Pads Penelope Kit groove 05_114 bpm.alc"
  },
  "meta": {
    "bpm": 114.0,
    "key": "?",
    "scale": "?",
    "length_beats": 8.0,
    "note_count": 56
  },
  "rhythm": {
    "density": 1.125,
    "hit_positions": [
      0.0,
      0.0,
      0.0,
      0.0,
      0.5,
      0.5,
      0.5,
      0.5,
      1.0,
      1.0,
      1.0,
      1.0,
      1.25,
      1.5,
      1.5,
      1.5,
      1.5,
      2.0,
      2.0,
      2.0,
      2.0,
      2.0,
      2.0,
      2.5,
      2.5,
      3.0,
      3.0,
      3.5,
      3.75,
      3.75,
      4.0,
      4.0,
      4.0,
      4.5,
      4.5,
      4.5,
      4.5,
      4.5,
      5.0,
      5.0,
      5.0,
      5.5,
      5.5,
      5.5,
      5.5,
      6.0,
      6.0,
      6.0,
      6.0,
      6.0,
      6.0,
      7.0,
      7.0,
      7.5,
      7.75,
      7.75
    ],
    "ioi": [
      0.0,
      0.0,
      0.0,
      0.5,
      0.0,
      0.0,
      0.0,
      0.5,
      0.0,
      0.0,
      0.0,
      0.25,
      0.25,
      0.0,
      0.0,
      0.0,
      0.5,
      0.0,
      0.0,
      0.0,
      0.0,
      0.0,
      0.5,
      0.0,
      0.5,
      0.0,
      0.5,
      0.25,
      0.0,
      0.25,
      0.0,
      0.0,
      0.5,
      0.0,
      0.0,
      0.0,
      0.0,
      0.5,
      0.0,
      0.0,
      0.5,
      0.0,
      0.0,
      0.0,
      0.5,
      0.0,
      0.0,
      0.0,
      0.0,
      0.0,
      1.0,
      0.0,
      0.5,
      0.25,
      0.0,
      0.25
    ],
    "grid": "8th",
    "euclidean_approx": [
      32,
      32
    ],
    "swing_ratio": 1.0
  },
  "pitch": {
    "notes_used": [
      36,
      37,
      42,
      43,
      44,
      48,
      52,
      56,
      58,
      69,
      73,
      81,
      82,
      83,
      84,
      85,
      86,
      88,
      89,
      90,
      91
    ],
    "intervals": [
      6,
      16,
      25,
      35,
      10,
      25,
      1,
      42,
      16,
      15,
      12,
      41,
      2,
      16,
      24,
      4,
      49,
      5,
      16,
      11,
      12,
      9,
      32,
      30,
      46,
      16,
      0,
      22,
      6,
      2,
      12,
      2,
      22,
      6,
      16,
      26,
      7,
      43,
      10,
      27,
      41,
      14,
      28,
      4,
      53,
      5,
      1,
      15,
      11,
      20,
      47,
      16,
      0,
      6,
      6
    ],
    "register": "mid",
    "is_melodic": true,
    "pitch_range": 55,
    "pitch_distribution": {
      "36": 3,
      "42": 9,
      "58": 16,
      "83": 2,
      "48": 2,
      "84": 2,
      "73": 1,
      "85": 2,
      "44": 3,
      "82": 1,
      "86": 2,
      "37": 2,
      "69": 2,
      "81": 1,
      "90": 2,
      "88": 1,
      "56": 1,
      "91": 1,
      "43": 1,
      "89": 1,
      "52": 1
    }
  },
  "velocity": {
    "mean": 32.9,
    "variance": 925.1,
    "std": 30.4,
    "accents": [
      4,
      17,
      28,
      30,
      33,
      38,
      41,
      45
    ],
    "profile": [
      59,
      56,
      6,
      3,
      98,
      11,
      3,
      14,
      26,
      5,
      26,
      13,
      47,
      20,
      3,
      20,
      25,
      90,
      59,
      8,
      42,
      36,
      11,
      3,
      10,
      48,
      3,
      5,
      64,
      47,
      79,
      13,
      10,
      76,
      59,
      3,
      18,
      28,
      108,
      10,
      22,
      111,
      3,
      12,
      30,
      113,
      52,
      28,
      3,
      35,
      22,
      58,
      5,
      11,
      51,
      21
    ]
  },
  "notes": [
    {
      "pitch": 36,
      "start_time": 0.0,
      "duration": 0.3847,
      "velocity": 59
    },
    {
      "pitch": 42,
      "start_time": 0.0,
      "duration": 0.3769,
      "velocity": 56
    },
    {
      "pitch": 58,
      "start_time": 0.0,
      "duration": 0.0382,
      "velocity": 6
    },
    {
      "pitch": 83,
      "start_time": 0.0,
      "duration": 0.0803,
      "velocity": 3
    },
    {
      "pitch": 48,
      "start_time": 0.5,
      "duration": 0.2719,
      "velocity": 98
    },
    {
      "pitch": 58,
      "start_time": 0.5,
      "duration": 0.0464,
      "velocity": 11
    },
    {
      "pitch": 83,
      "start_time": 0.5,
      "duration": 0.0834,
      "velocity": 3
    },
    {
      "pitch": 84,
      "start_time": 0.5,
      "duration": 0.0734,
      "velocity": 14
    },
    {
      "pitch": 42,
      "start_time": 1.0,
      "duration": 0.1124,
      "velocity": 26
    },
    {
      "pitch": 58,
      "start_time": 1.0,
      "duration": 0.0144,
      "velocity": 5
    },
    {
      "pitch": 73,
      "start_time": 1.0,
      "duration": 0.1264,
      "velocity": 26
    },
    {
      "pitch": 85,
      "start_time": 1.0,
      "duration": 0.0626,
      "velocity": 13
    },
    {
      "pitch": 44,
      "start_time": 1.25,
      "duration": 0.0975,
      "velocity": 47
    },
    {
      "pitch": 42,
      "start_time": 1.5,
      "duration": 0.0571,
      "velocity": 20
    },
    {
      "pitch": 58,
      "start_time": 1.5,
      "duration": 0.0084,
      "velocity": 3
    },
    {
      "pitch": 82,
      "start_time": 1.5,
      "duration": 0.074,
      "velocity": 20
    },
    {
      "pitch": 86,
      "start_time": 1.5,
      "duration": 0.0925,
      "velocity": 25
    },
    {
      "pitch": 37,
      "start_time": 2.0,
      "duration": 0.2475,
      "velocity": 90
    },
    {
      "pitch": 42,
      "start_time": 2.0,
      "duration": 0.2476,
      "velocity": 59
    },
    {
      "pitch": 58,
      "start_time": 2.0,
      "duration": 0.0183,
      "velocity": 8
    },
    {
      "pitch": 69,
      "start_time": 2.0,
      "duration": 0.4716,
      "velocity": 42
    },
    {
      "pitch": 81,
      "start_time": 2.0,
      "duration": 0.0741,
      "velocity": 36
    },
    {
      "pitch": 90,
      "start_time": 2.0,
      "duration": 0.1196,
      "velocity": 11
    },
    {
      "pitch": 58,
      "start_time": 2.5,
      "duration": 0.0086,
      "velocity": 3
    },
    {
      "pitch": 88,
      "start_time": 2.5,
      "duration": 0.0476,
      "velocity": 10
    },
    {
      "pitch": 42,
      "start_time": 3.0,
      "duration": 0.1344,
      "velocity": 48
    },
    {
      "pitch": 58,
      "start_time": 3.0,
      "duration": 0.0094,
      "velocity": 3
    },
    {
      "pitch": 58,
      "start_time": 3.5,
      "duration": 0.0143,
      "velocity": 5
    },
    {
      "pitch": 36,
      "start_time": 3.75,
      "duration": 0.0792,
      "velocity": 64
    },
    {
      "pitch": 42,
      "start_time": 3.75,
      "duration": 0.0799,
      "velocity": 47
    },
    {
      "pitch": 44,
      "start_time": 4.0,
      "duration": 0.1236,
      "velocity": 79
    },
    {
      "pitch": 56,
      "start_time": 4.0,
      "duration": 0.4377,
      "velocity": 13
    },
    {
      "pitch": 58,
      "start_time": 4.0,
      "duration": 0.0206,
      "velocity": 10
    },
    {
      "pitch": 36,
      "start_time": 4.5,
      "duration": 0.1051,
      "velocity": 76
    },
    {
      "pitch": 42,
      "start_time": 4.5,
      "duration": 0.0998,
      "velocity": 59
    },
    {
      "pitch": 58,
      "start_time": 4.5,
      "duration": 0.0084,
      "velocity": 3
    },
    {
      "pitch": 84,
      "start_time": 4.5,
      "duration": 0.0917,
      "velocity": 18
    },
    {
      "pitch": 91,
      "start_time": 4.5,
      "duration": 0.4759,
      "velocity": 28
    },
    {
      "pitch": 48,
      "start_time": 5.0,
      "duration": 0.5003,
      "velocity": 108
    },
    {
      "pitch": 58,
      "start_time": 5.0,
      "duration": 0.0183,
      "velocity": 10
    },
    {
      "pitch": 85,
      "start_time": 5.0,
      "duration": 0.057,
      "velocity": 22
    },
    {
      "pitch": 44,
      "start_time": 5.5,
      "duration": 0.1394,
      "velocity": 111
    },
    {
      "pitch": 58,
      "start_time": 5.5,
      "duration": 0.0101,
      "velocity": 3
    },
    {
      "pitch": 86,
      "start_time": 5.5,
      "duration": 0.0811,
      "velocity": 12
    },
    {
      "pitch": 90,
      "start_time": 5.5,
      "duration": 0.1039,
      "velocity": 30
    },
    {
      "pitch": 37,
      "start_time": 6.0,
      "duration": 0.1208,
      "velocity": 113
    },
    {
      "pitch": 42,
      "start_time": 6.0,
      "duration": 0.1012,
      "velocity": 52
    },
    {
      "pitch": 43,
      "start_time": 6.0,
      "duration": 0.044,
      "velocity": 28
    },
    {
      "pitch": 58,
      "start_time": 6.0,
      "duration": 0.0206,
      "velocity": 3
    },
    {
      "pitch": 69,
      "start_time": 6.0,
      "duration": 0.4302,
      "velocity": 35
    },
    {
      "pitch": 89,
      "start_time": 6.0,
      "duration": 0.052,
      "velocity": 22
    },
    {
      "pitch": 42,
      "start_time": 7.0,
      "duration": 0.1265,
      "velocity": 58
    },
    {
      "pitch": 58,
      "start_time": 7.0,
      "duration": 0.0154,
      "velocity": 5
    },
    {
      "pitch": 58,
      "start_time": 7.5,
      "duration": 0.0441,
      "velocity": 11
    },
    {
      "pitch": 52,
      "start_time": 7.75,
      "duration": 0.0932,
      "velocity": 51
    },
    {
      "pitch": 58,
      "start_time": 7.75,
      "duration": 0.0775,
      "velocity": 21
    }
  ]
}