{
  "source": {
    "song": "packs",
    "track_index": 0,
    "track_name": "Drum Essentials / MIDI Clips / 91 - 110 bpm / Head Smack Kit groove 01_105 bpm",
    "slot_index": 0,
    "clip_name": "Drum Essentials / MIDI Clips / 91 - 110 bpm / Head Smack Kit groove 01_105 bpm",
    "mid_file": "/Users/darnold/Music/Ableton/Packs/Drum Essentials/MIDI Clips/91 - 110 bpm/Head Smack Kit groove 01_105 bpm.alc"
  },
  "meta": {
    "bpm": 105.0,
    "key": "?",
    "scale": "?",
    "length_beats": 8.0,
    "note_count": 67
  },
  "rhythm": {
    "density": 1.938,
    "hit_positions": [
      0.0,
      0.0,
      0.0,
      0.25,
      0.5,
      0.5,
      0.75,
      0.75,
      1.0,
      1.0,
      1.25,
      1.5,
      1.5,
      1.5,
      1.75,
      2.0,
      2.0,
      2.0,
      2.25,
      2.5,
      2.5,
      2.75,
      2.75,
      3.0,
      3.0,
      3.5,
      3.5,
      3.5,
      3.75,
      4.0,
      4.0,
      4.0,
      4.25,
      4.5,
      4.5,
      4.5,
      4.75,
      4.75,
      5.0,
      5.0,
      5.0,
      5.0,
      5.25,
      5.25,
      5.5,
      5.5,
      5.5,
      5.5,
      5.75,
      6.0,
      6.0,
      6.0,
      6.0,
      6.25,
      6.5,
      6.5,
      6.75,
      6.75,
      6.75,
      7.0,
      7.0,
      7.25,
      7.25,
      7.5,
      7.5,
      7.5,
      7.75
    ],
    "ioi": [
      0.0,
      0.0,
      0.25,
      0.25,
      0.0,
      0.25,
      0.0,
      0.25,
      0.0,
      0.25,
      0.25,
      0.0,
      0.0,
      0.25,
      0.25,
      0.0,
      0.0,
      0.25,
      0.25,
      0.0,
      0.25,
      0.0,
      0.25,
      0.0,
      0.5,
      0.0,
      0.0,
      0.25,
      0.25,
      0.0,
      0.0,
      0.25,
      0.25,
      0.0,
      0.0,
      0.25,
      0.0,
      0.25,
      0.0,
      0.0,
      0.0,
      0.25,
      0.0,
      0.25,
      0.0,
      0.0,
      0.0,
      0.25,
      0.25,
      0.0,
      0.0,
      0.0,
      0.25,
      0.25,
      0.0,
      0.25,
      0.0,
      0.0,
      0.25,
      0.0,
      0.25,
      0.0,
      0.25,
      0.0,
      0.0,
      0.25,
      0.25
    ],
    "grid": "8th",
    "euclidean_approx": [
      32,
      32
    ],
    "swing_ratio": 1.0
  },
  "pitch": {
    "notes_used": [
      36,
      37,
      38,
      42,
      43,
      45,
      46,
      48,
      49,
      50,
      51
    ],
    "intervals": [
      6,
      9,
      0,
      6,
      6,
      6,
      6,
      13,
      13,
      0,
      15,
      6,
      9,
      0,
      15,
      6,
      9,
      0,
      6,
      6,
      15,
      15,
      14,
      14,
      15,
      6,
      9,
      0,
      15,
      6,
      9,
      0,
      6,
      5,
      1,
      6,
      6,
      13,
      4,
      7,
      2,
      3,
      3,
      15,
      6,
      8,
      1,
      0,
      15,
      6,
      6,
      3,
      0,
      6,
      6,
      15,
      9,
      6,
      13,
      5,
      2,
      6,
      15,
      10,
      5,
      0
    ],
    "register": "mid",
    "is_melodic": true,
    "pitch_range": 15,
    "pitch_distribution": {
      "36": 10,
      "42": 8,
      "51": 30,
      "45": 8,
      "38": 3,
      "37": 1,
      "50": 2,
      "49": 1,
      "48": 2,
      "43": 1,
      "46": 1
    }
  },
  "velocity": {
    "mean": 56.0,
    "variance": 925.1,
    "std": 30.4,
    "accents": [
      8,
      15,
      16,
      23,
      29,
      30,
      38,
      44,
      49,
      50,
      59
    ],
    "profile": [
      83,
      72,
      47,
      58,
      83,
      44,
      71,
      14,
      98,
      16,
      19,
      85,
      66,
      73,
      30,
      99,
      88,
      81,
      38,
      27,
      38,
      3,
      38,
      117,
      64,
      61,
      47,
      79,
      30,
      118,
      96,
      77,
      34,
      45,
      54,
      16,
      82,
      16,
      88,
      10,
      29,
      50,
      44,
      17,
      99,
      74,
      78,
      78,
      38,
      106,
      97,
      60,
      25,
      54,
      72,
      25,
      34,
      70,
      24,
      127,
      5,
      61,
      18,
      30,
      59,
      31,
      39
    ]
  },
  "notes": [
    {
      "pitch": 36,
      "start_time": 0.0,
      "duration": 0.0866,
      "velocity": 83
    },
    {
      "pitch": 42,
      "start_time": 0.0,
      "duration": 0.0848,
      "velocity": 72
    },
    {
      "pitch": 51,
      "start_time": 0.0,
      "duration": 0.25,
      "velocity": 47
    },
    {
      "pitch": 51,
      "start_time": 0.25,
      "duration": 0.126,
      "velocity": 58
    },
    {
      "pitch": 45,
      "start_time": 0.5,
      "duration": 0.0696,
      "velocity": 83
    },
    {
      "pitch": 51,
      "start_time": 0.5,
      "duration": 0.25,
      "velocity": 44
    },
    {
      "pitch": 45,
      "start_time": 0.75,
      "duration": 0.0653,
      "velocity": 71
    },
    {
      "pitch": 51,
      "start_time": 0.75,
      "duration": 0.25,
      "velocity": 14
    },
    {
      "pitch": 38,
      "start_time": 1.0,
      "duration": 0.09,
      "velocity": 98
    },
    {
      "pitch": 51,
      "start_time": 1.0,
      "duration": 0.25,
      "velocity": 16
    },
    {
      "pitch": 51,
      "start_time": 1.25,
      "duration": 0.1638,
      "velocity": 19
    },
    {
      "pitch": 36,
      "start_time": 1.5,
      "duration": 0.0715,
      "velocity": 85
    },
    {
      "pitch": 42,
      "start_time": 1.5,
      "duration": 0.0634,
      "velocity": 66
    },
    {
      "pitch": 51,
      "start_time": 1.5,
      "duration": 0.25,
      "velocity": 73
    },
    {
      "pitch": 51,
      "start_time": 1.75,
      "duration": 0.1607,
      "velocity": 30
    },
    {
      "pitch": 36,
      "start_time": 2.0,
      "duration": 0.0893,
      "velocity": 99
    },
    {
      "pitch": 42,
      "start_time": 2.0,
      "duration": 0.0883,
      "velocity": 88
    },
    {
      "pitch": 51,
      "start_time": 2.0,
      "duration": 0.25,
      "velocity": 81
    },
    {
      "pitch": 51,
      "start_time": 2.25,
      "duration": 0.25,
      "velocity": 38
    },
    {
      "pitch": 45,
      "start_time": 2.5,
      "duration": 0.049,
      "velocity": 27
    },
    {
      "pitch": 51,
      "start_time": 2.5,
      "duration": 0.25,
      "velocity": 38
    },
    {
      "pitch": 36,
      "start_time": 2.75,
      "duration": 0.0764,
      "velocity": 3
    },
    {
      "pitch": 51,
      "start_time": 2.75,
      "duration": 0.2307,
      "velocity": 38
    },
    {
      "pitch": 37,
      "start_time": 3.0,
      "duration": 0.0902,
      "velocity": 117
    },
    {
      "pitch": 51,
      "start_time": 3.0,
      "duration": 0.125,
      "velocity": 64
    },
    {
      "pitch": 36,
      "start_time": 3.5,
      "duration": 0.0663,
      "velocity": 61
    },
    {
      "pitch": 42,
      "start_time": 3.5,
      "duration": 0.0635,
      "velocity": 47
    },
    {
      "pitch": 51,
      "start_time": 3.5,
      "duration": 0.25,
      "velocity": 79
    },
    {
      "pitch": 51,
      "start_time": 3.75,
      "duration": 0.1714,
      "velocity": 30
    },
    {
      "pitch": 36,
      "start_time": 4.0,
      "duration": 0.0821,
      "velocity": 118
    },
    {
      "pitch": 42,
      "start_time": 4.0,
      "duration": 0.0815,
      "velocity": 96
    },
    {
      "pitch": 51,
      "start_time": 4.0,
      "duration": 0.25,
      "velocity": 77
    },
    {
      "pitch": 51,
      "start_time": 4.25,
      "duration": 0.25,
      "velocity": 34
    },
    {
      "pitch": 45,
      "start_time": 4.5,
      "duration": 0.0518,
      "velocity": 45
    },
    {
      "pitch": 50,
      "start_time": 4.5,
      "duration": 0.0524,
      "velocity": 54
    },
    {
      "pitch": 51,
      "start_time": 4.5,
      "duration": 0.25,
      "velocity": 16
    },
    {
      "pitch": 45,
      "start_time": 4.75,
      "duration": 0.0788,
      "velocity": 82
    },
    {
      "pitch": 51,
      "start_time": 4.75,
      "duration": 0.2179,
      "velocity": 16
    },
    {
      "pitch": 38,
      "start_time": 5.0,
      "duration": 0.0836,
      "velocity": 88
    },
    {
      "pitch": 42,
      "start_time": 5.0,
      "duration": 0.017,
      "velocity": 10
    },
    {
      "pitch": 49,
      "start_time": 5.0,
      "duration": 0.0516,
      "velocity": 29
    },
    {
      "pitch": 51,
      "start_time": 5.0,
      "duration": 0.125,
      "velocity": 50
    },
    {
      "pitch": 48,
      "start_time": 5.25,
      "duration": 0.0728,
      "velocity": 44
    },
    {
      "pitch": 51,
      "start_time": 5.25,
      "duration": 0.1638,
      "velocity": 17
    },
    {
      "pitch": 36,
      "start_time": 5.5,
      "duration": 0.0837,
      "velocity": 99
    },
    {
      "pitch": 42,
      "start_time": 5.5,
      "duration": 0.0779,
      "velocity": 74
    },
    {
      "pitch": 50,
      "start_time": 5.5,
      "duration": 0.0458,
      "velocity": 78
    },
    {
      "pitch": 51,
      "start_time": 5.5,
      "duration": 0.25,
      "velocity": 78
    },
    {
      "pitch": 51,
      "start_time": 5.75,
      "duration": 0.25,
      "velocity": 38
    },
    {
      "pitch": 36,
      "start_time": 6.0,
      "duration": 0.0859,
      "velocity": 106
    },
    {
      "pitch": 42,
      "start_time": 6.0,
      "duration": 0.0888,
      "velocity": 97
    },
    {
      "pitch": 48,
      "start_time": 6.0,
      "duration": 0.0749,
      "velocity": 60
    },
    {
      "pitch": 51,
      "start_time": 6.0,
      "duration": 0.25,
      "velocity": 25
    },
    {
      "pitch": 51,
      "start_time": 6.25,
      "duration": 0.25,
      "velocity": 54
    },
    {
      "pitch": 45,
      "start_time": 6.5,
      "duration": 0.0598,
      "velocity": 72
    },
    {
      "pitch": 51,
      "start_time": 6.5,
      "duration": 0.25,
      "velocity": 25
    },
    {
      "pitch": 36,
      "start_time": 6.75,
      "duration": 0.0913,
      "velocity": 34
    },
    {
      "pitch": 45,
      "start_time": 6.75,
      "duration": 0.0611,
      "velocity": 70
    },
    {
      "pitch": 51,
      "start_time": 6.75,
      "duration": 0.2366,
      "velocity": 24
    },
    {
      "pitch": 38,
      "start_time": 7.0,
      "duration": 0.0993,
      "velocity": 127
    },
    {
      "pitch": 43,
      "start_time": 7.0,
      "duration": 0.0525,
      "velocity": 5
    },
    {
      "pitch": 45,
      "start_time": 7.25,
      "duration": 0.0431,
      "velocity": 61
    },
    {
      "pitch": 51,
      "start_time": 7.25,
      "duration": 0.25,
      "velocity": 18
    },
    {
      "pitch": 36,
      "start_time": 7.5,
      "duration": 0.05,
      "velocity": 30
    },
    {
      "pitch": 46,
      "start_time": 7.5,
      "duration": 0.102,
      "velocity": 59
    },
    {
      "pitch": 51,
      "start_time": 7.5,
      "duration": 0.25,
      "velocity": 31
    },
    {
      "pitch": 51,
      "start_time": 7.75,
      "duration": 0.25,
      "velocity": 39
    }
  ]
}