{
  "source": {
    "song": "packs",
    "track_index": 0,
    "track_name": "Drum Essentials / MIDI Clips / 60 - 90 bpm / AstroPlayne Kit groove 02_79 bpm",
    "slot_index": 0,
    "clip_name": "Drum Essentials / MIDI Clips / 60 - 90 bpm / AstroPlayne Kit groove 02_79 bpm",
    "mid_file": "/Users/darnold/Music/Ableton/Packs/Drum Essentials/MIDI Clips/60 - 90 bpm/AstroPlayne Kit groove 02_79 bpm.alc"
  },
  "meta": {
    "bpm": 79.0,
    "key": "?",
    "scale": "?",
    "length_beats": 4.0,
    "note_count": 51
  },
  "rhythm": {
    "density": 2.625,
    "hit_positions": [
      0.0,
      0.0,
      0.0,
      0.0,
      0.3333,
      0.5,
      0.5,
      0.5,
      0.6667,
      0.8333,
      1.0,
      1.0,
      1.0,
      1.3333,
      1.3333,
      1.5,
      1.5,
      1.5,
      1.6667,
      1.6667,
      1.8333,
      1.8333,
      1.8333,
      2.0,
      2.0,
      2.0,
      2.0,
      2.3333,
      2.5,
      2.5,
      2.6667,
      2.8333,
      2.8333,
      2.8333,
      3.0,
      3.0,
      3.0,
      3.0,
      3.1667,
      3.3333,
      3.5,
      3.5,
      3.5,
      3.5,
      3.5,
      3.6667,
      3.6667,
      3.6667,
      3.8333,
      3.8333,
      3.8333
    ],
    "ioi": [
      0.0,
      0.0,
      0.0,
      0.3333,
      0.1667,
      0.0,
      0.0,
      0.1667,
      0.1666,
      0.1667,
      0.0,
      0.0,
      0.3333,
      0.0,
      0.1667,
      0.0,
      0.0,
      0.1667,
      0.0,
      0.1666,
      0.0,
      0.0,
      0.1667,
      0.0,
      0.0,
      0.0,
      0.3333,
      0.1667,
      0.0,
      0.1667,
      0.1666,
      0.0,
      0.0,
      0.1667,
      0.0,
      0.0,
      0.0,
      0.1667,
      0.1666,
      0.1667,
      0.0,
      0.0,
      0.0,
      0.0,
      0.1667,
      0.0,
      0.0,
      0.1666,
      0.0,
      0.0,
      0.1667
    ],
    "grid": "8th",
    "euclidean_approx": [
      16,
      16
    ],
    "swing_ratio": 1.333
  },
  "pitch": {
    "notes_used": [
      36,
      38,
      39,
      42,
      44,
      48,
      50,
      53,
      56,
      57,
      59,
      60,
      61,
      62
    ],
    "intervals": [
      6,
      6,
      8,
      20,
      3,
      3,
      11,
      9,
      8,
      2,
      4,
      6,
      12,
      24,
      21,
      3,
      20,
      18,
      17,
      25,
      17,
      4,
      21,
      6,
      6,
      11,
      23,
      3,
      3,
      2,
      8,
      12,
      5,
      15,
      4,
      6,
      2,
      0,
      0,
      11,
      3,
      6,
      2,
      3,
      5,
      2,
      3,
      5,
      2,
      3
    ],
    "register": "mid",
    "is_melodic": true,
    "pitch_range": 26,
    "pitch_distribution": {
      "36": 8,
      "42": 8,
      "48": 8,
      "56": 1,
      "39": 4,
      "53": 6,
      "44": 3,
      "38": 2,
      "60": 1,
      "62": 1,
      "61": 1,
      "57": 1,
      "59": 1,
      "50": 6
    }
  },
  "velocity": {
    "mean": 50.3,
    "variance": 869.7,
    "std": 29.5,
    "accents": [
      0,
      3,
      10,
      12,
      14,
      23,
      27,
      34
    ],
    "profile": [
      99,
      59,
      57,
      127,
      39,
      30,
      40,
      18,
      39,
      42,
      93,
      77,
      82,
      48,
      83,
      25,
      38,
      78,
      51,
      77,
      40,
      32,
      66,
      92,
      57,
      68,
      72,
      106,
      31,
      45,
      52,
      62,
      38,
      36,
      108,
      79,
      73,
      3,
      21,
      9,
      13,
      50,
      34,
      9,
      18,
      28,
      9,
      8,
      33,
      63,
      10
    ]
  },
  "notes": [
    {
      "pitch": 36,
      "start_time": 0.0,
      "duration": 0.0407,
      "velocity": 99
    },
    {
      "pitch": 42,
      "start_time": 0.0,
      "duration": 0.0417,
      "velocity": 59
    },
    {
      "pitch": 48,
      "start_time": 0.0,
      "duration": 0.0375,
      "velocity": 57
    },
    {
      "pitch": 56,
      "start_time": 0.0,
      "duration": 0.0305,
      "velocity": 127
    },
    {
      "pitch": 36,
      "start_time": 0.3333,
      "duration": 0.0619,
      "velocity": 39
    },
    {
      "pitch": 39,
      "start_time": 0.5,
      "duration": 0.0564,
      "velocity": 30
    },
    {
      "pitch": 42,
      "start_time": 0.5,
      "duration": 0.0731,
      "velocity": 40
    },
    {
      "pitch": 53,
      "start_time": 0.5,
      "duration": 0.0383,
      "velocity": 18
    },
    {
      "pitch": 44,
      "start_time": 0.6667,
      "duration": 0.0302,
      "velocity": 39
    },
    {
      "pitch": 36,
      "start_time": 0.8333,
      "duration": 0.0437,
      "velocity": 42
    },
    {
      "pitch": 38,
      "start_time": 1.0,
      "duration": 0.0479,
      "velocity": 93
    },
    {
      "pitch": 42,
      "start_time": 1.0,
      "duration": 0.0573,
      "velocity": 77
    },
    {
      "pitch": 48,
      "start_time": 1.0,
      "duration": 0.043,
      "velocity": 82
    },
    {
      "pitch": 36,
      "start_time": 1.3333,
      "duration": 0.0421,
      "velocity": 48
    },
    {
      "pitch": 60,
      "start_time": 1.3333,
      "duration": 0.0553,
      "velocity": 83
    },
    {
      "pitch": 39,
      "start_time": 1.5,
      "duration": 0.0579,
      "velocity": 25
    },
    {
      "pitch": 42,
      "start_time": 1.5,
      "duration": 0.052,
      "velocity": 38
    },
    {
      "pitch": 62,
      "start_time": 1.5,
      "duration": 0.0455,
      "velocity": 78
    },
    {
      "pitch": 44,
      "start_time": 1.6667,
      "duration": 0.046,
      "velocity": 51
    },
    {
      "pitch": 61,
      "start_time": 1.6667,
      "duration": 0.0986,
      "velocity": 77
    },
    {
      "pitch": 36,
      "start_time": 1.8333,
      "duration": 0.0305,
      "velocity": 40
    },
    {
      "pitch": 53,
      "start_time": 1.8333,
      "duration": 0.0302,
      "velocity": 32
    },
    {
      "pitch": 57,
      "start_time": 1.8333,
      "duration": 0.0616,
      "velocity": 66
    },
    {
      "pitch": 36,
      "start_time": 2.0,
      "duration": 0.0768,
      "velocity": 92
    },
    {
      "pitch": 42,
      "start_time": 2.0,
      "duration": 0.0714,
      "velocity": 57
    },
    {
      "pitch": 48,
      "start_time": 2.0,
      "duration": 0.0692,
      "velocity": 68
    },
    {
      "pitch": 59,
      "start_time": 2.0,
      "duration": 0.063,
      "velocity": 72
    },
    {
      "pitch": 36,
      "start_time": 2.3333,
      "duration": 0.0882,
      "velocity": 106
    },
    {
      "pitch": 39,
      "start_time": 2.5,
      "duration": 0.0405,
      "velocity": 31
    },
    {
      "pitch": 42,
      "start_time": 2.5,
      "duration": 0.0785,
      "velocity": 45
    },
    {
      "pitch": 44,
      "start_time": 2.6667,
      "duration": 0.0945,
      "velocity": 52
    },
    {
      "pitch": 36,
      "start_time": 2.8333,
      "duration": 0.0568,
      "velocity": 62
    },
    {
      "pitch": 48,
      "start_time": 2.8333,
      "duration": 0.0721,
      "velocity": 38
    },
    {
      "pitch": 53,
      "start_time": 2.8333,
      "duration": 0.0383,
      "velocity": 36
    },
    {
      "pitch": 38,
      "start_time": 3.0,
      "duration": 0.0613,
      "velocity": 108
    },
    {
      "pitch": 42,
      "start_time": 3.0,
      "duration": 0.0555,
      "velocity": 79
    },
    {
      "pitch": 48,
      "start_time": 3.0,
      "duration": 0.0666,
      "velocity": 73
    },
    {
      "pitch": 50,
      "start_time": 3.0,
      "duration": 0.1667,
      "velocity": 3
    },
    {
      "pitch": 50,
      "start_time": 3.1667,
      "duration": 0.1667,
      "velocity": 21
    },
    {
      "pitch": 50,
      "start_time": 3.3333,
      "duration": 0.1667,
      "velocity": 9
    },
    {
      "pitch": 39,
      "start_time": 3.5,
      "duration": 0.0474,
      "velocity": 13
    },
    {
      "pitch": 42,
      "start_time": 3.5,
      "duration": 0.0521,
      "velocity": 50
    },
    {
      "pitch": 48,
      "start_time": 3.5,
      "duration": 0.1667,
      "velocity": 34
    },
    {
      "pitch": 50,
      "start_time": 3.5,
      "duration": 0.1667,
      "velocity": 9
    },
    {
      "pitch": 53,
      "start_time": 3.5,
      "duration": 0.1667,
      "velocity": 18
    },
    {
      "pitch": 48,
      "start_time": 3.6667,
      "duration": 0.1667,
      "velocity": 28
    },
    {
      "pitch": 50,
      "start_time": 3.6667,
      "duration": 0.1667,
      "velocity": 9
    },
    {
      "pitch": 53,
      "start_time": 3.6667,
      "duration": 0.1667,
      "velocity": 8
    },
    {
      "pitch": 48,
      "start_time": 3.8333,
      "duration": 0.0411,
      "velocity": 33
    },
    {
      "pitch": 50,
      "start_time": 3.8333,
      "duration": 0.0919,
      "velocity": 63
    },
    {
      "pitch": 53,
      "start_time": 3.8333,
      "duration": 0.0672,
      "velocity": 10
    }
  ]
}