{
  "source": {
    "song": "packs",
    "track_index": 0,
    "track_name": "Drum Essentials / MIDI Clips / 91 - 110 bpm / 808 Aristocrat Kit groove 01_110 bpm",
    "slot_index": 0,
    "clip_name": "Drum Essentials / MIDI Clips / 91 - 110 bpm / 808 Aristocrat Kit groove 01_110 bpm",
    "mid_file": "/Users/darnold/Music/Ableton/Packs/Drum Essentials/MIDI Clips/91 - 110 bpm/808 Aristocrat Kit groove 01_110 bpm.alc"
  },
  "meta": {
    "bpm": 110.0,
    "key": "?",
    "scale": "?",
    "length_beats": 8.0,
    "note_count": 59
  },
  "rhythm": {
    "density": 1.0,
    "hit_positions": [
      0.0,
      0.0,
      0.25,
      0.5,
      0.5,
      0.7396,
      0.75,
      1.0,
      1.0,
      1.25,
      1.4896,
      1.5,
      1.75,
      1.9896,
      2.0,
      2.25,
      2.4896,
      2.4896,
      2.5,
      2.75,
      3.0,
      3.25,
      3.4896,
      3.5,
      3.5,
      3.75,
      3.9896,
      4.0,
      4.25,
      4.4896,
      4.5,
      4.75,
      4.75,
      5.0,
      5.0,
      5.25,
      5.5,
      5.5,
      5.5,
      5.75,
      5.9896,
      5.9896,
      6.0,
      6.2396,
      6.25,
      6.4896,
      6.5,
      6.5,
      6.75,
      6.75,
      7.0,
      7.0,
      7.25,
      7.25,
      7.4896,
      7.5,
      7.5,
      7.75,
      7.75
    ],
    "ioi": [
      0.0,
      0.25,
      0.25,
      0.0,
      0.2396,
      0.0104,
      0.25,
      0.0,
      0.25,
      0.2396,
      0.0104,
      0.25,
      0.2396,
      0.0104,
      0.25,
      0.2396,
      0.0,
      0.0104,
      0.25,
      0.25,
      0.25,
      0.2396,
      0.0104,
      0.0,
      0.25,
      0.2396,
      0.0104,
      0.25,
      0.2396,
      0.0104,
      0.25,
      0.0,
      0.25,
      0.0,
      0.25,
      0.25,
      0.0,
      0.0,
      0.25,
      0.2396,
      0.0,
      0.0104,
      0.2396,
      0.0104,
      0.2396,
      0.0104,
      0.0,
      0.25,
      0.0,
      0.25,
      0.0,
      0.25,
      0.0,
      0.2396,
      0.0104,
      0.0,
      0.25,
      0.0,
      0.25
    ],
    "grid": "16th",
    "euclidean_approx": [
      32,
      32
    ],
    "swing_ratio": 1.34
  },
  "pitch": {
    "notes_used": [
      36,
      37,
      39,
      40,
      42,
      44,
      46,
      48,
      51
    ],
    "intervals": [
      6,
      0,
      0,
      2,
      8,
      6,
      0,
      2,
      2,
      6,
      6,
      0,
      2,
      2,
      0,
      6,
      8,
      2,
      0,
      0,
      0,
      2,
      7,
      9,
      5,
      3,
      6,
      0,
      2,
      2,
      0,
      6,
      6,
      2,
      2,
      2,
      2,
      6,
      6,
      2,
      4,
      2,
      2,
      2,
      2,
      2,
      6,
      8,
      2,
      3,
      3,
      2,
      2,
      2,
      7,
      9,
      9,
      14
    ],
    "register": "low",
    "is_melodic": true,
    "pitch_range": 15,
    "pitch_distribution": {
      "36": 4,
      "42": 28,
      "44": 10,
      "37": 3,
      "46": 2,
      "51": 2,
      "48": 4,
      "40": 5,
      "39": 1
    }
  },
  "velocity": {
    "mean": 57.7,
    "variance": 642.1,
    "std": 25.3,
    "accents": [
      0,
      8,
      17,
      22,
      23,
      26,
      29,
      32,
      34,
      38,
      41,
      45,
      47,
      54,
      57
    ],
    "profile": [
      87,
      49,
      30,
      39,
      66,
      82,
      30,
      56,
      93,
      30,
      44,
      43,
      30,
      83,
      49,
      30,
      68,
      86,
      39,
      30,
      56,
      30,
      89,
      94,
      56,
      48,
      102,
      49,
      30,
      86,
      39,
      30,
      102,
      56,
      86,
      30,
      51,
      43,
      108,
      30,
      51,
      86,
      49,
      38,
      30,
      86,
      39,
      102,
      54,
      30,
      56,
      56,
      38,
      30,
      86,
      64,
      56,
      126,
      48
    ]
  },
  "notes": [
    {
      "pitch": 36,
      "start_time": 0.0,
      "duration": 0.4479,
      "velocity": 87
    },
    {
      "pitch": 42,
      "start_time": 0.0,
      "duration": 0.25,
      "velocity": 49
    },
    {
      "pitch": 42,
      "start_time": 0.25,
      "duration": 0.25,
      "velocity": 30
    },
    {
      "pitch": 42,
      "start_time": 0.5,
      "duration": 0.25,
      "velocity": 39
    },
    {
      "pitch": 44,
      "start_time": 0.5,
      "duration": 0.3958,
      "velocity": 66
    },
    {
      "pitch": 36,
      "start_time": 0.7396,
      "duration": 0.3646,
      "velocity": 82
    },
    {
      "pitch": 42,
      "start_time": 0.75,
      "duration": 0.25,
      "velocity": 30
    },
    {
      "pitch": 42,
      "start_time": 1.0,
      "duration": 0.25,
      "velocity": 56
    },
    {
      "pitch": 44,
      "start_time": 1.0,
      "duration": 0.2812,
      "velocity": 93
    },
    {
      "pitch": 42,
      "start_time": 1.25,
      "duration": 0.25,
      "velocity": 30
    },
    {
      "pitch": 36,
      "start_time": 1.4896,
      "duration": 0.7188,
      "velocity": 44
    },
    {
      "pitch": 42,
      "start_time": 1.5,
      "duration": 0.25,
      "velocity": 43
    },
    {
      "pitch": 42,
      "start_time": 1.75,
      "duration": 0.25,
      "velocity": 30
    },
    {
      "pitch": 44,
      "start_time": 1.9896,
      "duration": 0.3333,
      "velocity": 83
    },
    {
      "pitch": 42,
      "start_time": 2.0,
      "duration": 0.25,
      "velocity": 49
    },
    {
      "pitch": 42,
      "start_time": 2.25,
      "duration": 0.25,
      "velocity": 30
    },
    {
      "pitch": 36,
      "start_time": 2.4896,
      "duration": 1.0521,
      "velocity": 68
    },
    {
      "pitch": 44,
      "start_time": 2.4896,
      "duration": 0.4271,
      "velocity": 86
    },
    {
      "pitch": 42,
      "start_time": 2.5,
      "duration": 0.25,
      "velocity": 39
    },
    {
      "pitch": 42,
      "start_time": 2.75,
      "duration": 0.25,
      "velocity": 30
    },
    {
      "pitch": 42,
      "start_time": 3.0,
      "duration": 0.25,
      "velocity": 56
    },
    {
      "pitch": 42,
      "start_time": 3.25,
      "duration": 0.25,
      "velocity": 30
    },
    {
      "pitch": 44,
      "start_time": 3.4896,
      "duration": 0.3333,
      "velocity": 89
    },
    {
      "pitch": 37,
      "start_time": 3.5,
      "duration": 0.3438,
      "velocity": 94
    },
    {
      "pitch": 46,
      "start_time": 3.5,
      "duration": 0.25,
      "velocity": 56
    },
    {
      "pitch": 51,
      "start_time": 3.75,
      "duration": 0.25,
      "velocity": 48
    },
    {
      "pitch": 48,
      "start_time": 3.9896,
      "duration": 0.6042,
      "velocity": 102
    },
    {
      "pitch": 42,
      "start_time": 4.0,
      "duration": 0.25,
      "velocity": 49
    },
    {
      "pitch": 42,
      "start_time": 4.25,
      "duration": 0.25,
      "velocity": 30
    },
    {
      "pitch": 44,
      "start_time": 4.4896,
      "duration": 0.3333,
      "velocity": 86
    },
    {
      "pitch": 42,
      "start_time": 4.5,
      "duration": 0.25,
      "velocity": 39
    },
    {
      "pitch": 42,
      "start_time": 4.75,
      "duration": 0.25,
      "velocity": 30
    },
    {
      "pitch": 48,
      "start_time": 4.75,
      "duration": 0.5417,
      "velocity": 102
    },
    {
      "pitch": 42,
      "start_time": 5.0,
      "duration": 0.25,
      "velocity": 56
    },
    {
      "pitch": 44,
      "start_time": 5.0,
      "duration": 0.4167,
      "velocity": 86
    },
    {
      "pitch": 42,
      "start_time": 5.25,
      "duration": 0.25,
      "velocity": 30
    },
    {
      "pitch": 40,
      "start_time": 5.5,
      "duration": 0.125,
      "velocity": 51
    },
    {
      "pitch": 42,
      "start_time": 5.5,
      "duration": 0.25,
      "velocity": 43
    },
    {
      "pitch": 48,
      "start_time": 5.5,
      "duration": 0.6562,
      "velocity": 108
    },
    {
      "pitch": 42,
      "start_time": 5.75,
      "duration": 0.25,
      "velocity": 30
    },
    {
      "pitch": 40,
      "start_time": 5.9896,
      "duration": 0.1354,
      "velocity": 51
    },
    {
      "pitch": 44,
      "start_time": 5.9896,
      "duration": 0.3229,
      "velocity": 86
    },
    {
      "pitch": 42,
      "start_time": 6.0,
      "duration": 0.25,
      "velocity": 49
    },
    {
      "pitch": 40,
      "start_time": 6.2396,
      "duration": 0.2812,
      "velocity": 38
    },
    {
      "pitch": 42,
      "start_time": 6.25,
      "duration": 0.25,
      "velocity": 30
    },
    {
      "pitch": 44,
      "start_time": 6.4896,
      "duration": 0.4583,
      "velocity": 86
    },
    {
      "pitch": 42,
      "start_time": 6.5,
      "duration": 0.25,
      "velocity": 39
    },
    {
      "pitch": 48,
      "start_time": 6.5,
      "duration": 0.8854,
      "velocity": 102
    },
    {
      "pitch": 40,
      "start_time": 6.75,
      "duration": 0.2083,
      "velocity": 54
    },
    {
      "pitch": 42,
      "start_time": 6.75,
      "duration": 0.25,
      "velocity": 30
    },
    {
      "pitch": 39,
      "start_time": 7.0,
      "duration": 0.25,
      "velocity": 56
    },
    {
      "pitch": 42,
      "start_time": 7.0,
      "duration": 0.25,
      "velocity": 56
    },
    {
      "pitch": 40,
      "start_time": 7.25,
      "duration": 0.1979,
      "velocity": 38
    },
    {
      "pitch": 42,
      "start_time": 7.25,
      "duration": 0.25,
      "velocity": 30
    },
    {
      "pitch": 44,
      "start_time": 7.4896,
      "duration": 0.2917,
      "velocity": 86
    },
    {
      "pitch": 37,
      "start_time": 7.5,
      "duration": 0.1042,
      "velocity": 64
    },
    {
      "pitch": 46,
      "start_time": 7.5,
      "duration": 0.25,
      "velocity": 56
    },
    {
      "pitch": 37,
      "start_time": 7.75,
      "duration": 0.1354,
      "velocity": 126
    },
    {
      "pitch": 51,
      "start_time": 7.75,
      "duration": 0.25,
      "velocity": 48
    }
  ]
}