{
  "source": {
    "song": "packs",
    "track_index": 0,
    "track_name": "Drum Essentials / MIDI Clips / 111 - 130 bpm / Cosine Kit groove 04_112 bpm",
    "slot_index": 0,
    "clip_name": "Drum Essentials / MIDI Clips / 111 - 130 bpm / Cosine Kit groove 04_112 bpm",
    "mid_file": "/Users/darnold/Music/Ableton/Packs/Drum Essentials/MIDI Clips/111 - 130 bpm/Cosine Kit groove 04_112 bpm.alc"
  },
  "meta": {
    "bpm": 112.0,
    "key": "?",
    "scale": "?",
    "length_beats": 8.0,
    "note_count": 49
  },
  "rhythm": {
    "density": 1.562,
    "hit_positions": [
      0.0,
      0.0,
      0.0,
      0.3333,
      0.5,
      0.8333,
      0.8333,
      1.0,
      1.0,
      1.0,
      1.5,
      1.5,
      1.5,
      2.0,
      2.3333,
      2.5,
      2.5,
      2.5,
      3.0,
      3.0,
      3.0,
      3.0,
      3.3333,
      3.3333,
      3.5,
      3.8333,
      4.0,
      4.0,
      4.0,
      4.3333,
      4.5,
      4.8333,
      5.0,
      5.0,
      5.0,
      5.5,
      5.5,
      5.5,
      6.0,
      6.5,
      6.5,
      6.5,
      7.0,
      7.0,
      7.0,
      7.3333,
      7.3333,
      7.5,
      7.8333
    ],
    "ioi": [
      0.0,
      0.0,
      0.3333,
      0.1667,
      0.3333,
      0.0,
      0.1667,
      0.0,
      0.0,
      0.5,
      0.0,
      0.0,
      0.5,
      0.3333,
      0.1667,
      0.0,
      0.0,
      0.5,
      0.0,
      0.0,
      0.0,
      0.3333,
      0.0,
      0.1667,
      0.3333,
      0.1667,
      0.0,
      0.0,
      0.3333,
      0.1667,
      0.3333,
      0.1667,
      0.0,
      0.0,
      0.5,
      0.0,
      0.0,
      0.5,
      0.5,
      0.0,
      0.0,
      0.5,
      0.0,
      0.0,
      0.3333,
      0.0,
      0.1667,
      0.3333,
      0.1667
    ],
    "grid": "8th",
    "euclidean_approx": [
      32,
      32
    ],
    "swing_ratio": 1.333
  },
  "pitch": {
    "notes_used": [
      36,
      40,
      42,
      43,
      45,
      46
    ],
    "intervals": [
      6,
      4,
      10,
      6,
      6,
      4,
      0,
      2,
      1,
      7,
      6,
      4,
      4,
      0,
      6,
      6,
      4,
      6,
      2,
      1,
      2,
      3,
      4,
      4,
      2,
      4,
      6,
      4,
      10,
      6,
      6,
      4,
      2,
      1,
      7,
      6,
      4,
      4,
      6,
      6,
      4,
      6,
      2,
      3,
      9,
      10,
      4,
      0
    ],
    "register": "low",
    "is_melodic": true,
    "pitch_range": 10,
    "pitch_distribution": {
      "36": 11,
      "42": 19,
      "46": 8,
      "40": 6,
      "43": 3,
      "45": 2
    }
  },
  "velocity": {
    "mean": 52.0,
    "variance": 676.0,
    "std": 26.0,
    "accents": [
      7,
      9,
      18,
      21,
      32,
      42,
      44
    ],
    "profile": [
      39,
      39,
      61,
      36,
      32,
      3,
      5,
      101,
      50,
      92,
      43,
      60,
      66,
      26,
      13,
      52,
      57,
      63,
      114,
      52,
      42,
      93,
      6,
      68,
      20,
      29,
      63,
      47,
      63,
      42,
      49,
      27,
      116,
      57,
      51,
      46,
      47,
      56,
      36,
      72,
      60,
      46,
      97,
      68,
      83,
      57,
      48,
      47,
      8
    ]
  },
  "notes": [
    {
      "pitch": 36,
      "start_time": 0.0,
      "duration": 0.0729,
      "velocity": 39
    },
    {
      "pitch": 42,
      "start_time": 0.0,
      "duration": 0.0729,
      "velocity": 39
    },
    {
      "pitch": 46,
      "start_time": 0.0,
      "duration": 0.0729,
      "velocity": 61
    },
    {
      "pitch": 36,
      "start_time": 0.3333,
      "duration": 0.0833,
      "velocity": 36
    },
    {
      "pitch": 42,
      "start_time": 0.5,
      "duration": 0.0417,
      "velocity": 32
    },
    {
      "pitch": 36,
      "start_time": 0.8333,
      "duration": 0.0417,
      "velocity": 3
    },
    {
      "pitch": 40,
      "start_time": 0.8333,
      "duration": 0.0417,
      "velocity": 5
    },
    {
      "pitch": 40,
      "start_time": 1.0,
      "duration": 0.0833,
      "velocity": 101
    },
    {
      "pitch": 42,
      "start_time": 1.0,
      "duration": 0.0729,
      "velocity": 50
    },
    {
      "pitch": 43,
      "start_time": 1.0,
      "duration": 0.0938,
      "velocity": 92
    },
    {
      "pitch": 36,
      "start_time": 1.5,
      "duration": 0.0833,
      "velocity": 43
    },
    {
      "pitch": 42,
      "start_time": 1.5,
      "duration": 0.0833,
      "velocity": 60
    },
    {
      "pitch": 46,
      "start_time": 1.5,
      "duration": 0.0625,
      "velocity": 66
    },
    {
      "pitch": 42,
      "start_time": 2.0,
      "duration": 0.0521,
      "velocity": 26
    },
    {
      "pitch": 42,
      "start_time": 2.3333,
      "duration": 0.0521,
      "velocity": 13
    },
    {
      "pitch": 36,
      "start_time": 2.5,
      "duration": 0.0625,
      "velocity": 52
    },
    {
      "pitch": 42,
      "start_time": 2.5,
      "duration": 0.0729,
      "velocity": 57
    },
    {
      "pitch": 46,
      "start_time": 2.5,
      "duration": 0.0938,
      "velocity": 63
    },
    {
      "pitch": 40,
      "start_time": 3.0,
      "duration": 0.0729,
      "velocity": 114
    },
    {
      "pitch": 42,
      "start_time": 3.0,
      "duration": 0.0729,
      "velocity": 52
    },
    {
      "pitch": 43,
      "start_time": 3.0,
      "duration": 0.0938,
      "velocity": 42
    },
    {
      "pitch": 45,
      "start_time": 3.0,
      "duration": 0.0521,
      "velocity": 93
    },
    {
      "pitch": 42,
      "start_time": 3.3333,
      "duration": 0.0208,
      "velocity": 6
    },
    {
      "pitch": 46,
      "start_time": 3.3333,
      "duration": 0.125,
      "velocity": 68
    },
    {
      "pitch": 42,
      "start_time": 3.5,
      "duration": 0.0521,
      "velocity": 20
    },
    {
      "pitch": 40,
      "start_time": 3.8333,
      "duration": 0.0625,
      "velocity": 29
    },
    {
      "pitch": 36,
      "start_time": 4.0,
      "duration": 0.0833,
      "velocity": 63
    },
    {
      "pitch": 42,
      "start_time": 4.0,
      "duration": 0.0833,
      "velocity": 47
    },
    {
      "pitch": 46,
      "start_time": 4.0,
      "duration": 0.0938,
      "velocity": 63
    },
    {
      "pitch": 36,
      "start_time": 4.3333,
      "duration": 0.0729,
      "velocity": 42
    },
    {
      "pitch": 42,
      "start_time": 4.5,
      "duration": 0.0938,
      "velocity": 49
    },
    {
      "pitch": 36,
      "start_time": 4.8333,
      "duration": 0.0729,
      "velocity": 27
    },
    {
      "pitch": 40,
      "start_time": 5.0,
      "duration": 0.0833,
      "velocity": 116
    },
    {
      "pitch": 42,
      "start_time": 5.0,
      "duration": 0.0833,
      "velocity": 57
    },
    {
      "pitch": 43,
      "start_time": 5.0,
      "duration": 0.1042,
      "velocity": 51
    },
    {
      "pitch": 36,
      "start_time": 5.5,
      "duration": 0.0833,
      "velocity": 46
    },
    {
      "pitch": 42,
      "start_time": 5.5,
      "duration": 0.0833,
      "velocity": 47
    },
    {
      "pitch": 46,
      "start_time": 5.5,
      "duration": 0.0833,
      "velocity": 56
    },
    {
      "pitch": 42,
      "start_time": 6.0,
      "duration": 0.0729,
      "velocity": 36
    },
    {
      "pitch": 36,
      "start_time": 6.5,
      "duration": 0.0833,
      "velocity": 72
    },
    {
      "pitch": 42,
      "start_time": 6.5,
      "duration": 0.0938,
      "velocity": 60
    },
    {
      "pitch": 46,
      "start_time": 6.5,
      "duration": 0.0938,
      "velocity": 46
    },
    {
      "pitch": 40,
      "start_time": 7.0,
      "duration": 0.0625,
      "velocity": 97
    },
    {
      "pitch": 42,
      "start_time": 7.0,
      "duration": 0.0833,
      "velocity": 68
    },
    {
      "pitch": 45,
      "start_time": 7.0,
      "duration": 0.0417,
      "velocity": 83
    },
    {
      "pitch": 36,
      "start_time": 7.3333,
      "duration": 0.1146,
      "velocity": 57
    },
    {
      "pitch": 46,
      "start_time": 7.3333,
      "duration": 0.0938,
      "velocity": 48
    },
    {
      "pitch": 42,
      "start_time": 7.5,
      "duration": 0.0833,
      "velocity": 47
    },
    {
      "pitch": 42,
      "start_time": 7.8333,
      "duration": 0.0833,
      "velocity": 8
    }
  ]
}