{
  "source": {
    "song": "packs",
    "track_index": 0,
    "track_name": "Drum Essentials / MIDI Clips / 60 - 90 bpm / Apollo Kit groove 01_90 bpm",
    "slot_index": 0,
    "clip_name": "Drum Essentials / MIDI Clips / 60 - 90 bpm / Apollo Kit groove 01_90 bpm",
    "mid_file": "/Users/darnold/Music/Ableton/Packs/Drum Essentials/MIDI Clips/60 - 90 bpm/Apollo Kit groove 01_90 bpm.alc"
  },
  "meta": {
    "bpm": 90.0,
    "key": "?",
    "scale": "?",
    "length_beats": 16.0,
    "note_count": 81
  },
  "rhythm": {
    "density": 1.0,
    "hit_positions": [
      0.0,
      0.0,
      0.25,
      0.625,
      0.75,
      1.0,
      1.0,
      1.25,
      1.5,
      1.5,
      2.0,
      2.25,
      2.5,
      2.75,
      3.0,
      3.0,
      3.25,
      3.5,
      3.75,
      3.75,
      4.0,
      4.0,
      4.25,
      4.5,
      4.75,
      5.0,
      5.0,
      5.25,
      5.5,
      5.75,
      6.0,
      6.0,
      6.25,
      6.5,
      6.875,
      7.0,
      7.0,
      7.25,
      7.5,
      7.75,
      7.875,
      8.0,
      8.0,
      8.25,
      8.5,
      8.75,
      9.0,
      9.0,
      9.25,
      9.5,
      9.5,
      10.0,
      10.0,
      10.25,
      10.5,
      10.75,
      11.0,
      11.0,
      11.25,
      11.5,
      11.75,
      12.0,
      12.25,
      12.5,
      12.75,
      13.0,
      13.0,
      13.25,
      13.5,
      13.75,
      13.875,
      14.0,
      14.0,
      14.25,
      14.5,
      14.75,
      15.0,
      15.0,
      15.25,
      15.5,
      15.75
    ],
    "ioi": [
      0.0,
      0.25,
      0.375,
      0.125,
      0.25,
      0.0,
      0.25,
      0.25,
      0.0,
      0.5,
      0.25,
      0.25,
      0.25,
      0.25,
      0.0,
      0.25,
      0.25,
      0.25,
      0.0,
      0.25,
      0.0,
      0.25,
      0.25,
      0.25,
      0.25,
      0.0,
      0.25,
      0.25,
      0.25,
      0.25,
      0.0,
      0.25,
      0.25,
      0.375,
      0.125,
      0.0,
      0.25,
      0.25,
      0.25,
      0.125,
      0.125,
      0.0,
      0.25,
      0.25,
      0.25,
      0.25,
      0.0,
      0.25,
      0.25,
      0.0,
      0.5,
      0.0,
      0.25,
      0.25,
      0.25,
      0.25,
      0.0,
      0.25,
      0.25,
      0.25,
      0.25,
      0.25,
      0.25,
      0.25,
      0.25,
      0.0,
      0.25,
      0.25,
      0.25,
      0.125,
      0.125,
      0.0,
      0.25,
      0.25,
      0.25,
      0.25,
      0.0,
      0.25,
      0.25,
      0.25,
      0.25
    ],
    "grid": "16th",
    "euclidean_approx": [
      64,
      64
    ],
    "swing_ratio": 1.045
  },
  "pitch": {
    "notes_used": [
      36,
      37,
      38,
      40,
      42,
      44
    ],
    "intervals": [
      6,
      2,
      2,
      6,
      1,
      5,
      2,
      8,
      6,
      0,
      6,
      6,
      2,
      7,
      5,
      6,
      6,
      2,
      4,
      8,
      6,
      2,
      2,
      6,
      1,
      5,
      2,
      2,
      2,
      4,
      6,
      2,
      2,
      6,
      1,
      5,
      2,
      2,
      2,
      0,
      4,
      6,
      2,
      2,
      6,
      2,
      4,
      2,
      8,
      6,
      6,
      6,
      6,
      6,
      2,
      6,
      4,
      6,
      6,
      6,
      6,
      2,
      2,
      6,
      2,
      4,
      6,
      6,
      2,
      0,
      4,
      6,
      2,
      2,
      6,
      2,
      4,
      2,
      2,
      6
    ],
    "register": "low",
    "is_melodic": true,
    "pitch_range": 8,
    "pitch_distribution": {
      "36": 21,
      "42": 32,
      "44": 11,
      "37": 4,
      "40": 9,
      "38": 4
    }
  },
  "velocity": {
    "mean": 46.9,
    "variance": 465.5,
    "std": 21.6,
    "accents": [
      0,
      5,
      6,
      14,
      25,
      41,
      46,
      47,
      51,
      56,
      57,
      65,
      66,
      76,
      77
    ],
    "profile": [
      72,
      52,
      30,
      18,
      30,
      82,
      84,
      23,
      52,
      32,
      21,
      47,
      19,
      3,
      71,
      61,
      41,
      49,
      6,
      21,
      54,
      38,
      55,
      34,
      22,
      73,
      63,
      19,
      43,
      17,
      57,
      40,
      62,
      36,
      3,
      67,
      59,
      36,
      50,
      32,
      39,
      71,
      57,
      63,
      38,
      28,
      82,
      76,
      22,
      54,
      43,
      78,
      58,
      41,
      33,
      35,
      93,
      74,
      19,
      33,
      51,
      41,
      49,
      38,
      31,
      91,
      79,
      26,
      45,
      24,
      33,
      65,
      49,
      56,
      48,
      40,
      98,
      82,
      63,
      38,
      38
    ]
  },
  "notes": [
    {
      "pitch": 36,
      "start_time": 0.0,
      "duration": 0.0865,
      "velocity": 72
    },
    {
      "pitch": 42,
      "start_time": 0.0,
      "duration": 0.0723,
      "velocity": 52
    },
    {
      "pitch": 44,
      "start_time": 0.25,
      "duration": 0.0834,
      "velocity": 30
    },
    {
      "pitch": 42,
      "start_time": 0.625,
      "duration": 0.0252,
      "velocity": 18
    },
    {
      "pitch": 36,
      "start_time": 0.75,
      "duration": 0.0694,
      "velocity": 30
    },
    {
      "pitch": 37,
      "start_time": 1.0,
      "duration": 0.0778,
      "velocity": 82
    },
    {
      "pitch": 42,
      "start_time": 1.0,
      "duration": 0.0666,
      "velocity": 84
    },
    {
      "pitch": 44,
      "start_time": 1.25,
      "duration": 0.0639,
      "velocity": 23
    },
    {
      "pitch": 36,
      "start_time": 1.5,
      "duration": 0.0852,
      "velocity": 52
    },
    {
      "pitch": 42,
      "start_time": 1.5,
      "duration": 0.0966,
      "velocity": 32
    },
    {
      "pitch": 42,
      "start_time": 2.0,
      "duration": 0.0626,
      "velocity": 21
    },
    {
      "pitch": 36,
      "start_time": 2.25,
      "duration": 0.1031,
      "velocity": 47
    },
    {
      "pitch": 42,
      "start_time": 2.5,
      "duration": 0.0548,
      "velocity": 19
    },
    {
      "pitch": 44,
      "start_time": 2.75,
      "duration": 0.0066,
      "velocity": 3
    },
    {
      "pitch": 37,
      "start_time": 3.0,
      "duration": 0.0756,
      "velocity": 71
    },
    {
      "pitch": 42,
      "start_time": 3.0,
      "duration": 0.0852,
      "velocity": 61
    },
    {
      "pitch": 36,
      "start_time": 3.25,
      "duration": 0.0727,
      "velocity": 41
    },
    {
      "pitch": 42,
      "start_time": 3.5,
      "duration": 0.094,
      "velocity": 49
    },
    {
      "pitch": 40,
      "start_time": 3.75,
      "duration": 0.0057,
      "velocity": 6
    },
    {
      "pitch": 44,
      "start_time": 3.75,
      "duration": 0.035,
      "velocity": 21
    },
    {
      "pitch": 36,
      "start_time": 4.0,
      "duration": 0.0789,
      "velocity": 54
    },
    {
      "pitch": 42,
      "start_time": 4.0,
      "duration": 0.0763,
      "velocity": 38
    },
    {
      "pitch": 40,
      "start_time": 4.25,
      "duration": 0.1202,
      "velocity": 55
    },
    {
      "pitch": 42,
      "start_time": 4.5,
      "duration": 0.0758,
      "velocity": 34
    },
    {
      "pitch": 36,
      "start_time": 4.75,
      "duration": 0.0616,
      "velocity": 22
    },
    {
      "pitch": 37,
      "start_time": 5.0,
      "duration": 0.0893,
      "velocity": 73
    },
    {
      "pitch": 42,
      "start_time": 5.0,
      "duration": 0.0946,
      "velocity": 63
    },
    {
      "pitch": 44,
      "start_time": 5.25,
      "duration": 0.0348,
      "velocity": 19
    },
    {
      "pitch": 42,
      "start_time": 5.5,
      "duration": 0.0903,
      "velocity": 43
    },
    {
      "pitch": 40,
      "start_time": 5.75,
      "duration": 0.035,
      "velocity": 17
    },
    {
      "pitch": 36,
      "start_time": 6.0,
      "duration": 0.0813,
      "velocity": 57
    },
    {
      "pitch": 42,
      "start_time": 6.0,
      "duration": 0.0881,
      "velocity": 40
    },
    {
      "pitch": 40,
      "start_time": 6.25,
      "duration": 0.0953,
      "velocity": 62
    },
    {
      "pitch": 42,
      "start_time": 6.5,
      "duration": 0.0948,
      "velocity": 36
    },
    {
      "pitch": 36,
      "start_time": 6.875,
      "duration": 0.0067,
      "velocity": 3
    },
    {
      "pitch": 37,
      "start_time": 7.0,
      "duration": 0.0917,
      "velocity": 67
    },
    {
      "pitch": 42,
      "start_time": 7.0,
      "duration": 0.1044,
      "velocity": 59
    },
    {
      "pitch": 44,
      "start_time": 7.25,
      "duration": 0.0703,
      "velocity": 36
    },
    {
      "pitch": 42,
      "start_time": 7.5,
      "duration": 0.1019,
      "velocity": 50
    },
    {
      "pitch": 40,
      "start_time": 7.75,
      "duration": 0.0984,
      "velocity": 32
    },
    {
      "pitch": 40,
      "start_time": 7.875,
      "duration": 0.0739,
      "velocity": 39
    },
    {
      "pitch": 36,
      "start_time": 8.0,
      "duration": 0.0842,
      "velocity": 71
    },
    {
      "pitch": 42,
      "start_time": 8.0,
      "duration": 0.092,
      "velocity": 57
    },
    {
      "pitch": 44,
      "start_time": 8.25,
      "duration": 0.0886,
      "velocity": 63
    },
    {
      "pitch": 42,
      "start_time": 8.5,
      "duration": 0.0958,
      "velocity": 38
    },
    {
      "pitch": 36,
      "start_time": 8.75,
      "duration": 0.071,
      "velocity": 28
    },
    {
      "pitch": 38,
      "start_time": 9.0,
      "duration": 0.0738,
      "velocity": 82
    },
    {
      "pitch": 42,
      "start_time": 9.0,
      "duration": 0.067,
      "velocity": 76
    },
    {
      "pitch": 44,
      "start_time": 9.25,
      "duration": 0.0548,
      "velocity": 22
    },
    {
      "pitch": 36,
      "start_time": 9.5,
      "duration": 0.0751,
      "velocity": 54
    },
    {
      "pitch": 42,
      "start_time": 9.5,
      "duration": 0.0938,
      "velocity": 43
    },
    {
      "pitch": 36,
      "start_time": 10.0,
      "duration": 0.0879,
      "velocity": 78
    },
    {
      "pitch": 42,
      "start_time": 10.0,
      "duration": 0.0846,
      "velocity": 58
    },
    {
      "pitch": 36,
      "start_time": 10.25,
      "duration": 0.0984,
      "velocity": 41
    },
    {
      "pitch": 42,
      "start_time": 10.5,
      "duration": 0.0756,
      "velocity": 33
    },
    {
      "pitch": 44,
      "start_time": 10.75,
      "duration": 0.0796,
      "velocity": 35
    },
    {
      "pitch": 38,
      "start_time": 11.0,
      "duration": 0.076,
      "velocity": 93
    },
    {
      "pitch": 42,
      "start_time": 11.0,
      "duration": 0.0801,
      "velocity": 74
    },
    {
      "pitch": 36,
      "start_time": 11.25,
      "duration": 0.036,
      "velocity": 19
    },
    {
      "pitch": 42,
      "start_time": 11.5,
      "duration": 0.0854,
      "velocity": 33
    },
    {
      "pitch": 36,
      "start_time": 11.75,
      "duration": 0.0989,
      "velocity": 51
    },
    {
      "pitch": 42,
      "start_time": 12.0,
      "duration": 0.0954,
      "velocity": 41
    },
    {
      "pitch": 44,
      "start_time": 12.25,
      "duration": 0.081,
      "velocity": 49
    },
    {
      "pitch": 42,
      "start_time": 12.5,
      "duration": 0.1043,
      "velocity": 38
    },
    {
      "pitch": 36,
      "start_time": 12.75,
      "duration": 0.0747,
      "velocity": 31
    },
    {
      "pitch": 38,
      "start_time": 13.0,
      "duration": 0.0775,
      "velocity": 91
    },
    {
      "pitch": 42,
      "start_time": 13.0,
      "duration": 0.0849,
      "velocity": 79
    },
    {
      "pitch": 36,
      "start_time": 13.25,
      "duration": 0.0637,
      "velocity": 26
    },
    {
      "pitch": 42,
      "start_time": 13.5,
      "duration": 0.1014,
      "velocity": 45
    },
    {
      "pitch": 40,
      "start_time": 13.75,
      "duration": 0.0875,
      "velocity": 24
    },
    {
      "pitch": 40,
      "start_time": 13.875,
      "duration": 0.0501,
      "velocity": 33
    },
    {
      "pitch": 36,
      "start_time": 14.0,
      "duration": 0.0821,
      "velocity": 65
    },
    {
      "pitch": 42,
      "start_time": 14.0,
      "duration": 0.0856,
      "velocity": 49
    },
    {
      "pitch": 40,
      "start_time": 14.25,
      "duration": 0.1344,
      "velocity": 56
    },
    {
      "pitch": 42,
      "start_time": 14.5,
      "duration": 0.0917,
      "velocity": 48
    },
    {
      "pitch": 36,
      "start_time": 14.75,
      "duration": 0.087,
      "velocity": 40
    },
    {
      "pitch": 38,
      "start_time": 15.0,
      "duration": 0.0764,
      "velocity": 98
    },
    {
      "pitch": 42,
      "start_time": 15.0,
      "duration": 0.087,
      "velocity": 82
    },
    {
      "pitch": 44,
      "start_time": 15.25,
      "duration": 0.1016,
      "velocity": 63
    },
    {
      "pitch": 42,
      "start_time": 15.5,
      "duration": 0.1006,
      "velocity": 38
    },
    {
      "pitch": 36,
      "start_time": 15.75,
      "duration": 0.0836,
      "velocity": 38
    }
  ]
}