{
  "source": {
    "song": "packs",
    "track_index": 0,
    "track_name": "Drum Essentials / MIDI Clips / 91 - 110 bpm / C78 Substance Kit groove 01_103 bpm",
    "slot_index": 0,
    "clip_name": "Drum Essentials / MIDI Clips / 91 - 110 bpm / C78 Substance Kit groove 01_103 bpm",
    "mid_file": "/Users/darnold/Music/Ableton/Packs/Drum Essentials/MIDI Clips/91 - 110 bpm/C78 Substance Kit groove 01_103 bpm.alc"
  },
  "meta": {
    "bpm": 103.0,
    "key": "?",
    "scale": "?",
    "length_beats": 4.0,
    "note_count": 25
  },
  "rhythm": {
    "density": 1.625,
    "hit_positions": [
      0.0,
      0.0,
      0.5,
      0.5,
      0.5,
      0.75,
      1.0,
      1.0,
      1.5,
      1.5,
      1.75,
      2.0,
      2.0,
      2.25,
      2.25,
      2.5,
      2.75,
      2.75,
      3.0,
      3.0,
      3.5,
      3.5,
      3.5,
      3.75,
      3.75
    ],
    "ioi": [
      0.0,
      0.5,
      0.0,
      0.0,
      0.25,
      0.25,
      0.0,
      0.5,
      0.0,
      0.25,
      0.25,
      0.0,
      0.25,
      0.0,
      0.25,
      0.25,
      0.0,
      0.25,
      0.0,
      0.5,
      0.0,
      0.0,
      0.25,
      0.0,
      0.25
    ],
    "grid": "8th",
    "euclidean_approx": [
      16,
      16
    ],
    "swing_ratio": 1.0
  },
  "pitch": {
    "notes_used": [
      36,
      38,
      42,
      44,
      45,
      47
    ],
    "intervals": [
      6,
      6,
      6,
      2,
      0,
      6,
      4,
      6,
      6,
      4,
      2,
      6,
      6,
      6,
      0,
      0,
      5,
      9,
      4,
      6,
      6,
      3,
      9,
      6
    ],
    "register": "low",
    "is_melodic": true,
    "pitch_range": 11,
    "pitch_distribution": {
      "36": 7,
      "42": 11,
      "44": 2,
      "38": 3,
      "47": 1,
      "45": 1
    }
  },
  "velocity": {
    "mean": 50.9,
    "variance": 683.6,
    "std": 26.1,
    "accents": [
      6,
      18,
      21,
      23,
      24
    ],
    "profile": [
      32,
      46,
      41,
      26,
      49,
      48,
      86,
      44,
      22,
      47,
      65,
      22,
      41,
      43,
      24,
      32,
      55,
      3,
      89,
      75,
      67,
      90,
      26,
      100,
      100
    ]
  },
  "notes": [
    {
      "pitch": 36,
      "start_time": 0.0,
      "duration": 0.0884,
      "velocity": 32
    },
    {
      "pitch": 42,
      "start_time": 0.0,
      "duration": 0.0685,
      "velocity": 46
    },
    {
      "pitch": 36,
      "start_time": 0.5,
      "duration": 0.0786,
      "velocity": 41
    },
    {
      "pitch": 42,
      "start_time": 0.5,
      "duration": 0.044,
      "velocity": 26
    },
    {
      "pitch": 44,
      "start_time": 0.5,
      "duration": 0.0471,
      "velocity": 49
    },
    {
      "pitch": 44,
      "start_time": 0.75,
      "duration": 0.0735,
      "velocity": 48
    },
    {
      "pitch": 38,
      "start_time": 1.0,
      "duration": 0.0525,
      "velocity": 86
    },
    {
      "pitch": 42,
      "start_time": 1.0,
      "duration": 0.0488,
      "velocity": 44
    },
    {
      "pitch": 36,
      "start_time": 1.5,
      "duration": 0.0503,
      "velocity": 22
    },
    {
      "pitch": 42,
      "start_time": 1.5,
      "duration": 0.0853,
      "velocity": 47
    },
    {
      "pitch": 38,
      "start_time": 1.75,
      "duration": 0.045,
      "velocity": 65
    },
    {
      "pitch": 36,
      "start_time": 2.0,
      "duration": 0.0612,
      "velocity": 22
    },
    {
      "pitch": 42,
      "start_time": 2.0,
      "duration": 0.0476,
      "velocity": 41
    },
    {
      "pitch": 36,
      "start_time": 2.25,
      "duration": 0.0837,
      "velocity": 43
    },
    {
      "pitch": 42,
      "start_time": 2.25,
      "duration": 0.0817,
      "velocity": 24
    },
    {
      "pitch": 42,
      "start_time": 2.5,
      "duration": 0.0447,
      "velocity": 32
    },
    {
      "pitch": 42,
      "start_time": 2.75,
      "duration": 0.074,
      "velocity": 55
    },
    {
      "pitch": 47,
      "start_time": 2.75,
      "duration": 0.0149,
      "velocity": 3
    },
    {
      "pitch": 38,
      "start_time": 3.0,
      "duration": 0.0469,
      "velocity": 89
    },
    {
      "pitch": 42,
      "start_time": 3.0,
      "duration": 0.047,
      "velocity": 75
    },
    {
      "pitch": 36,
      "start_time": 3.5,
      "duration": 0.0922,
      "velocity": 67
    },
    {
      "pitch": 42,
      "start_time": 3.5,
      "duration": 0.0515,
      "velocity": 90
    },
    {
      "pitch": 45,
      "start_time": 3.5,
      "duration": 0.1058,
      "velocity": 26
    },
    {
      "pitch": 36,
      "start_time": 3.75,
      "duration": 0.25,
      "velocity": 100
    },
    {
      "pitch": 42,
      "start_time": 3.75,
      "duration": 0.25,
      "velocity": 100
    }
  ]
}