{
  "source": {
    "song": "packs",
    "track_index": 0,
    "track_name": "Drum Essentials / MIDI Clips / 91 - 110 bpm / Moscow UHF Kit groove 03_110 bpm",
    "slot_index": 0,
    "clip_name": "Drum Essentials / MIDI Clips / 91 - 110 bpm / Moscow UHF Kit groove 03_110 bpm",
    "mid_file": "/Users/darnold/Music/Ableton/Packs/Drum Essentials/MIDI Clips/91 - 110 bpm/Moscow UHF Kit groove 03_110 bpm.alc"
  },
  "meta": {
    "bpm": 110.0,
    "key": "?",
    "scale": "?",
    "length_beats": 8.0,
    "note_count": 46
  },
  "rhythm": {
    "density": 1.312,
    "hit_positions": [
      0.0,
      0.0,
      0.5,
      0.5,
      0.5,
      1.0,
      1.0,
      1.5,
      1.5,
      1.5,
      2.0,
      2.0,
      2.0,
      2.25,
      2.5,
      2.5,
      3.0,
      3.0,
      3.25,
      3.5,
      3.5,
      3.5,
      3.5,
      3.75,
      4.0,
      4.0,
      4.5,
      4.5,
      4.5,
      5.0,
      5.0,
      5.5,
      5.5,
      5.5,
      6.0,
      6.0,
      6.0,
      6.25,
      6.5,
      6.5,
      7.0,
      7.0,
      7.5,
      7.5,
      7.5,
      7.75
    ],
    "ioi": [
      0.0,
      0.5,
      0.0,
      0.0,
      0.5,
      0.0,
      0.5,
      0.0,
      0.0,
      0.5,
      0.0,
      0.0,
      0.25,
      0.25,
      0.0,
      0.5,
      0.0,
      0.25,
      0.25,
      0.0,
      0.0,
      0.0,
      0.25,
      0.25,
      0.0,
      0.5,
      0.0,
      0.0,
      0.5,
      0.0,
      0.5,
      0.0,
      0.0,
      0.5,
      0.0,
      0.0,
      0.25,
      0.25,
      0.0,
      0.5,
      0.0,
      0.5,
      0.0,
      0.0,
      0.25,
      0.25
    ],
    "grid": "8th",
    "euclidean_approx": [
      32,
      32
    ],
    "swing_ratio": 1.0
  },
  "pitch": {
    "notes_used": [
      36,
      37,
      38,
      42,
      44,
      46,
      47,
      48,
      51,
      72
    ],
    "intervals": [
      12,
      6,
      4,
      5,
      13,
      6,
      2,
      5,
      4,
      15,
      1,
      14,
      0,
      9,
      9,
      13,
      8,
      0,
      4,
      4,
      5,
      21,
      26,
      10,
      12,
      6,
      4,
      5,
      13,
      6,
      2,
      5,
      4,
      15,
      1,
      14,
      0,
      9,
      9,
      13,
      8,
      4,
      4,
      5,
      5
    ],
    "register": "low",
    "is_melodic": true,
    "pitch_range": 36,
    "pitch_distribution": {
      "36": 4,
      "48": 2,
      "42": 8,
      "46": 9,
      "51": 12,
      "38": 4,
      "44": 2,
      "47": 2,
      "37": 2,
      "72": 1
    }
  },
  "velocity": {
    "mean": 61.1,
    "variance": 666.2,
    "std": 25.8,
    "accents": [
      1,
      16,
      25,
      29,
      40,
      42
    ],
    "profile": [
      74,
      112,
      68,
      52,
      43,
      71,
      59,
      65,
      55,
      79,
      63,
      47,
      69,
      15,
      59,
      31,
      97,
      32,
      28,
      79,
      26,
      82,
      13,
      25,
      62,
      125,
      76,
      54,
      49,
      95,
      73,
      86,
      56,
      82,
      63,
      51,
      78,
      9,
      65,
      29,
      104,
      52,
      89,
      54,
      80,
      35
    ]
  },
  "notes": [
    {
      "pitch": 36,
      "start_time": 0.0,
      "duration": 0.1016,
      "velocity": 74
    },
    {
      "pitch": 48,
      "start_time": 0.0,
      "duration": 0.0556,
      "velocity": 112
    },
    {
      "pitch": 42,
      "start_time": 0.5,
      "duration": 0.0766,
      "velocity": 68
    },
    {
      "pitch": 46,
      "start_time": 0.5,
      "duration": 0.0607,
      "velocity": 52
    },
    {
      "pitch": 51,
      "start_time": 0.5,
      "duration": 0.0234,
      "velocity": 43
    },
    {
      "pitch": 38,
      "start_time": 1.0,
      "duration": 0.0962,
      "velocity": 71
    },
    {
      "pitch": 44,
      "start_time": 1.0,
      "duration": 0.0649,
      "velocity": 59
    },
    {
      "pitch": 42,
      "start_time": 1.5,
      "duration": 0.0622,
      "velocity": 65
    },
    {
      "pitch": 47,
      "start_time": 1.5,
      "duration": 0.0447,
      "velocity": 55
    },
    {
      "pitch": 51,
      "start_time": 1.5,
      "duration": 0.0592,
      "velocity": 79
    },
    {
      "pitch": 36,
      "start_time": 2.0,
      "duration": 0.1107,
      "velocity": 63
    },
    {
      "pitch": 37,
      "start_time": 2.0,
      "duration": 0.0612,
      "velocity": 47
    },
    {
      "pitch": 51,
      "start_time": 2.0,
      "duration": 0.25,
      "velocity": 69
    },
    {
      "pitch": 51,
      "start_time": 2.25,
      "duration": 0.25,
      "velocity": 15
    },
    {
      "pitch": 42,
      "start_time": 2.5,
      "duration": 0.0779,
      "velocity": 59
    },
    {
      "pitch": 51,
      "start_time": 2.5,
      "duration": 0.0151,
      "velocity": 31
    },
    {
      "pitch": 38,
      "start_time": 3.0,
      "duration": 0.0979,
      "velocity": 97
    },
    {
      "pitch": 46,
      "start_time": 3.0,
      "duration": 0.25,
      "velocity": 32
    },
    {
      "pitch": 46,
      "start_time": 3.25,
      "duration": 0.25,
      "velocity": 28
    },
    {
      "pitch": 42,
      "start_time": 3.5,
      "duration": 0.0848,
      "velocity": 79
    },
    {
      "pitch": 46,
      "start_time": 3.5,
      "duration": 0.25,
      "velocity": 26
    },
    {
      "pitch": 51,
      "start_time": 3.5,
      "duration": 0.0493,
      "velocity": 82
    },
    {
      "pitch": 72,
      "start_time": 3.5,
      "duration": 0.0471,
      "velocity": 13
    },
    {
      "pitch": 46,
      "start_time": 3.75,
      "duration": 0.0834,
      "velocity": 25
    },
    {
      "pitch": 36,
      "start_time": 4.0,
      "duration": 0.1062,
      "velocity": 62
    },
    {
      "pitch": 48,
      "start_time": 4.0,
      "duration": 0.0578,
      "velocity": 125
    },
    {
      "pitch": 42,
      "start_time": 4.5,
      "duration": 0.0661,
      "velocity": 76
    },
    {
      "pitch": 46,
      "start_time": 4.5,
      "duration": 0.0654,
      "velocity": 54
    },
    {
      "pitch": 51,
      "start_time": 4.5,
      "duration": 0.0575,
      "velocity": 49
    },
    {
      "pitch": 38,
      "start_time": 5.0,
      "duration": 0.0976,
      "velocity": 95
    },
    {
      "pitch": 44,
      "start_time": 5.0,
      "duration": 0.0755,
      "velocity": 73
    },
    {
      "pitch": 42,
      "start_time": 5.5,
      "duration": 0.0852,
      "velocity": 86
    },
    {
      "pitch": 47,
      "start_time": 5.5,
      "duration": 0.0558,
      "velocity": 56
    },
    {
      "pitch": 51,
      "start_time": 5.5,
      "duration": 0.0468,
      "velocity": 82
    },
    {
      "pitch": 36,
      "start_time": 6.0,
      "duration": 0.1099,
      "velocity": 63
    },
    {
      "pitch": 37,
      "start_time": 6.0,
      "duration": 0.0606,
      "velocity": 51
    },
    {
      "pitch": 51,
      "start_time": 6.0,
      "duration": 0.25,
      "velocity": 78
    },
    {
      "pitch": 51,
      "start_time": 6.25,
      "duration": 0.25,
      "velocity": 9
    },
    {
      "pitch": 42,
      "start_time": 6.5,
      "duration": 0.0878,
      "velocity": 65
    },
    {
      "pitch": 51,
      "start_time": 6.5,
      "duration": 0.0348,
      "velocity": 29
    },
    {
      "pitch": 38,
      "start_time": 7.0,
      "duration": 0.1019,
      "velocity": 104
    },
    {
      "pitch": 46,
      "start_time": 7.0,
      "duration": 0.0785,
      "velocity": 52
    },
    {
      "pitch": 42,
      "start_time": 7.5,
      "duration": 0.0816,
      "velocity": 89
    },
    {
      "pitch": 46,
      "start_time": 7.5,
      "duration": 0.25,
      "velocity": 54
    },
    {
      "pitch": 51,
      "start_time": 7.5,
      "duration": 0.0559,
      "velocity": 80
    },
    {
      "pitch": 46,
      "start_time": 7.75,
      "duration": 0.0922,
      "velocity": 35
    }
  ]
}