{
  "source": {
    "song": "packs",
    "track_index": 0,
    "track_name": "Drum Essentials / MIDI Clips / 60 - 90 bpm / Onyx Kit groove 02_86 bpm",
    "slot_index": 0,
    "clip_name": "Drum Essentials / MIDI Clips / 60 - 90 bpm / Onyx Kit groove 02_86 bpm",
    "mid_file": "/Users/darnold/Music/Ableton/Packs/Drum Essentials/MIDI Clips/60 - 90 bpm/Onyx Kit groove 02_86 bpm.alc"
  },
  "meta": {
    "bpm": 86.0,
    "key": "?",
    "scale": "?",
    "length_beats": 8.0,
    "note_count": 52
  },
  "rhythm": {
    "density": 0.938,
    "hit_positions": [
      0.0,
      0.0014,
      0.25,
      0.5,
      0.5,
      0.75,
      0.75,
      1.0,
      1.0,
      1.25,
      1.25,
      1.5,
      1.5,
      1.5,
      1.75,
      2.0,
      2.25,
      2.5,
      2.5,
      3.0,
      3.0,
      3.0,
      3.25,
      3.25,
      3.5,
      3.75,
      4.0,
      4.0,
      4.25,
      4.5,
      4.5,
      4.75,
      4.75,
      5.0,
      5.0,
      5.25,
      5.25,
      5.5,
      5.5,
      5.5,
      5.75,
      6.0,
      6.5,
      6.5,
      6.75,
      7.0,
      7.0,
      7.0,
      7.25,
      7.25,
      7.5,
      7.75
    ],
    "ioi": [
      0.0014,
      0.2486,
      0.25,
      0.0,
      0.25,
      0.0,
      0.25,
      0.0,
      0.25,
      0.0,
      0.25,
      0.0,
      0.0,
      0.25,
      0.25,
      0.25,
      0.25,
      0.0,
      0.5,
      0.0,
      0.0,
      0.25,
      0.0,
      0.25,
      0.25,
      0.25,
      0.0,
      0.25,
      0.25,
      0.0,
      0.25,
      0.0,
      0.25,
      0.0,
      0.25,
      0.0,
      0.25,
      0.0,
      0.0,
      0.25,
      0.25,
      0.5,
      0.0,
      0.25,
      0.25,
      0.0,
      0.0,
      0.25,
      0.0,
      0.25,
      0.25,
      0.25
    ],
    "grid": "16th",
    "euclidean_approx": [
      32,
      32
    ],
    "swing_ratio": 1.0
  },
  "pitch": {
    "notes_used": [
      36,
      37,
      39,
      42,
      44,
      46,
      47,
      50,
      51
    ],
    "intervals": [
      6,
      0,
      0,
      8,
      14,
      6,
      5,
      5,
      0,
      5,
      11,
      8,
      7,
      5,
      4,
      0,
      6,
      8,
      7,
      2,
      3,
      6,
      6,
      2,
      0,
      8,
      6,
      0,
      0,
      8,
      14,
      8,
      7,
      7,
      2,
      5,
      11,
      6,
      9,
      5,
      2,
      8,
      6,
      2,
      7,
      2,
      3,
      6,
      6,
      2,
      0
    ],
    "register": "low",
    "is_melodic": true,
    "pitch_range": 15,
    "pitch_distribution": {
      "36": 10,
      "42": 18,
      "50": 2,
      "37": 4,
      "47": 2,
      "44": 10,
      "51": 2,
      "46": 2,
      "39": 2
    }
  },
  "velocity": {
    "mean": 38.3,
    "variance": 405.0,
    "std": 20.1,
    "accents": [
      0,
      7,
      19,
      20,
      25,
      33,
      34,
      45,
      50,
      51
    ],
    "profile": [
      59,
      25,
      3,
      3,
      51,
      22,
      3,
      67,
      3,
      3,
      30,
      40,
      37,
      46,
      28,
      31,
      21,
      30,
      39,
      65,
      77,
      30,
      56,
      33,
      28,
      81,
      30,
      18,
      34,
      31,
      36,
      35,
      41,
      66,
      75,
      28,
      22,
      51,
      15,
      43,
      26,
      47,
      50,
      34,
      22,
      61,
      53,
      26,
      53,
      39,
      75,
      68
    ]
  },
  "notes": [
    {
      "pitch": 36,
      "start_time": 0.0,
      "duration": 0.0617,
      "velocity": 59
    },
    {
      "pitch": 42,
      "start_time": 0.0014,
      "duration": 0.2486,
      "velocity": 25
    },
    {
      "pitch": 42,
      "start_time": 0.25,
      "duration": 0.25,
      "velocity": 3
    },
    {
      "pitch": 42,
      "start_time": 0.5,
      "duration": 0.25,
      "velocity": 3
    },
    {
      "pitch": 50,
      "start_time": 0.5,
      "duration": 0.0678,
      "velocity": 51
    },
    {
      "pitch": 36,
      "start_time": 0.75,
      "duration": 0.0884,
      "velocity": 22
    },
    {
      "pitch": 42,
      "start_time": 0.75,
      "duration": 0.25,
      "velocity": 3
    },
    {
      "pitch": 37,
      "start_time": 1.0,
      "duration": 0.0785,
      "velocity": 67
    },
    {
      "pitch": 42,
      "start_time": 1.0,
      "duration": 0.25,
      "velocity": 3
    },
    {
      "pitch": 42,
      "start_time": 1.25,
      "duration": 0.1632,
      "velocity": 3
    },
    {
      "pitch": 47,
      "start_time": 1.25,
      "duration": 0.0503,
      "velocity": 30
    },
    {
      "pitch": 36,
      "start_time": 1.5,
      "duration": 0.0528,
      "velocity": 40
    },
    {
      "pitch": 44,
      "start_time": 1.5,
      "duration": 0.25,
      "velocity": 37
    },
    {
      "pitch": 51,
      "start_time": 1.5,
      "duration": 0.0699,
      "velocity": 46
    },
    {
      "pitch": 46,
      "start_time": 1.75,
      "duration": 0.0611,
      "velocity": 28
    },
    {
      "pitch": 42,
      "start_time": 2.0,
      "duration": 0.25,
      "velocity": 31
    },
    {
      "pitch": 42,
      "start_time": 2.25,
      "duration": 0.0773,
      "velocity": 21
    },
    {
      "pitch": 36,
      "start_time": 2.5,
      "duration": 0.0985,
      "velocity": 30
    },
    {
      "pitch": 44,
      "start_time": 2.5,
      "duration": 0.2073,
      "velocity": 39
    },
    {
      "pitch": 37,
      "start_time": 3.0,
      "duration": 0.05,
      "velocity": 65
    },
    {
      "pitch": 39,
      "start_time": 3.0,
      "duration": 0.0489,
      "velocity": 77
    },
    {
      "pitch": 42,
      "start_time": 3.0,
      "duration": 0.25,
      "velocity": 30
    },
    {
      "pitch": 36,
      "start_time": 3.25,
      "duration": 0.0559,
      "velocity": 56
    },
    {
      "pitch": 42,
      "start_time": 3.25,
      "duration": 0.1057,
      "velocity": 33
    },
    {
      "pitch": 44,
      "start_time": 3.5,
      "duration": 0.25,
      "velocity": 28
    },
    {
      "pitch": 44,
      "start_time": 3.75,
      "duration": 0.2387,
      "velocity": 81
    },
    {
      "pitch": 36,
      "start_time": 4.0,
      "duration": 0.0933,
      "velocity": 30
    },
    {
      "pitch": 42,
      "start_time": 4.0,
      "duration": 0.25,
      "velocity": 18
    },
    {
      "pitch": 42,
      "start_time": 4.25,
      "duration": 0.25,
      "velocity": 34
    },
    {
      "pitch": 42,
      "start_time": 4.5,
      "duration": 0.1323,
      "velocity": 31
    },
    {
      "pitch": 50,
      "start_time": 4.5,
      "duration": 0.0561,
      "velocity": 36
    },
    {
      "pitch": 36,
      "start_time": 4.75,
      "duration": 0.1081,
      "velocity": 35
    },
    {
      "pitch": 44,
      "start_time": 4.75,
      "duration": 0.25,
      "velocity": 41
    },
    {
      "pitch": 37,
      "start_time": 5.0,
      "duration": 0.0686,
      "velocity": 66
    },
    {
      "pitch": 44,
      "start_time": 5.0,
      "duration": 0.0915,
      "velocity": 75
    },
    {
      "pitch": 42,
      "start_time": 5.25,
      "duration": 0.25,
      "velocity": 28
    },
    {
      "pitch": 47,
      "start_time": 5.25,
      "duration": 0.0688,
      "velocity": 22
    },
    {
      "pitch": 36,
      "start_time": 5.5,
      "duration": 0.0527,
      "velocity": 51
    },
    {
      "pitch": 42,
      "start_time": 5.5,
      "duration": 0.25,
      "velocity": 15
    },
    {
      "pitch": 51,
      "start_time": 5.5,
      "duration": 0.0464,
      "velocity": 43
    },
    {
      "pitch": 46,
      "start_time": 5.75,
      "duration": 0.0608,
      "velocity": 26
    },
    {
      "pitch": 44,
      "start_time": 6.0,
      "duration": 0.2377,
      "velocity": 47
    },
    {
      "pitch": 36,
      "start_time": 6.5,
      "duration": 0.0975,
      "velocity": 50
    },
    {
      "pitch": 42,
      "start_time": 6.5,
      "duration": 0.1992,
      "velocity": 34
    },
    {
      "pitch": 44,
      "start_time": 6.75,
      "duration": 0.1946,
      "velocity": 22
    },
    {
      "pitch": 37,
      "start_time": 7.0,
      "duration": 0.0546,
      "velocity": 61
    },
    {
      "pitch": 39,
      "start_time": 7.0,
      "duration": 0.0747,
      "velocity": 53
    },
    {
      "pitch": 42,
      "start_time": 7.0,
      "duration": 0.25,
      "velocity": 26
    },
    {
      "pitch": 36,
      "start_time": 7.25,
      "duration": 0.0475,
      "velocity": 53
    },
    {
      "pitch": 42,
      "start_time": 7.25,
      "duration": 0.0689,
      "velocity": 39
    },
    {
      "pitch": 44,
      "start_time": 7.5,
      "duration": 0.25,
      "velocity": 75
    },
    {
      "pitch": 44,
      "start_time": 7.75,
      "duration": 0.0722,
      "velocity": 68
    }
  ]
}