{
  "source": {
    "song": "packs",
    "track_index": 0,
    "track_name": "Drum Essentials / MIDI Clips / 111 - 130 bpm / 707 Rok With-U Kit groove 02_112 bpm",
    "slot_index": 0,
    "clip_name": "Drum Essentials / MIDI Clips / 111 - 130 bpm / 707 Rok With-U Kit groove 02_112 bpm",
    "mid_file": "/Users/darnold/Music/Ableton/Packs/Drum Essentials/MIDI Clips/111 - 130 bpm/707 Rok With-U Kit groove 02_112 bpm.alc"
  },
  "meta": {
    "bpm": 112.0,
    "key": "?",
    "scale": "?",
    "length_beats": 8.0,
    "note_count": 29
  },
  "rhythm": {
    "density": 1.188,
    "hit_positions": [
      0.0,
      0.0,
      0.5,
      1.0,
      1.0,
      1.5,
      1.75,
      2.0,
      2.5,
      2.5,
      3.0,
      3.0,
      3.5,
      4.0,
      4.0,
      4.5,
      5.0,
      5.0,
      5.5,
      5.75,
      6.0,
      6.0,
      6.25,
      6.5,
      6.5,
      7.0,
      7.0,
      7.5,
      7.5
    ],
    "ioi": [
      0.0,
      0.5,
      0.5,
      0.0,
      0.5,
      0.25,
      0.25,
      0.5,
      0.0,
      0.5,
      0.0,
      0.5,
      0.5,
      0.0,
      0.5,
      0.5,
      0.0,
      0.5,
      0.25,
      0.25,
      0.0,
      0.25,
      0.25,
      0.0,
      0.5,
      0.0,
      0.5,
      0.0,
      0.5
    ],
    "grid": "8th",
    "euclidean_approx": [
      29,
      32
    ],
    "swing_ratio": 1.0
  },
  "pitch": {
    "notes_used": [
      36,
      38,
      42,
      44,
      46
    ],
    "intervals": [
      10,
      4,
      4,
      4,
      0,
      2,
      2,
      6,
      6,
      4,
      4,
      6,
      0,
      10,
      4,
      4,
      4,
      0,
      2,
      8,
      6,
      4,
      2,
      6,
      4,
      4,
      6,
      6
    ],
    "register": "low",
    "is_melodic": true,
    "pitch_range": 10,
    "pitch_distribution": {
      "36": 7,
      "46": 2,
      "42": 13,
      "38": 5,
      "44": 2
    }
  },
  "velocity": {
    "mean": 62.4,
    "variance": 1004.1,
    "std": 31.7,
    "accents": [
      3,
      4,
      14,
      16,
      17,
      25,
      26
    ],
    "profile": [
      67,
      92,
      25,
      112,
      99,
      23,
      23,
      41,
      35,
      41,
      89,
      58,
      62,
      73,
      113,
      29,
      116,
      95,
      18,
      30,
      59,
      63,
      43,
      58,
      70,
      119,
      95,
      28,
      33
    ]
  },
  "notes": [
    {
      "pitch": 36,
      "start_time": 0.0,
      "duration": 0.0927,
      "velocity": 67
    },
    {
      "pitch": 46,
      "start_time": 0.0,
      "duration": 0.0782,
      "velocity": 92
    },
    {
      "pitch": 42,
      "start_time": 0.5,
      "duration": 0.1067,
      "velocity": 25
    },
    {
      "pitch": 38,
      "start_time": 1.0,
      "duration": 0.0675,
      "velocity": 112
    },
    {
      "pitch": 42,
      "start_time": 1.0,
      "duration": 0.0757,
      "velocity": 99
    },
    {
      "pitch": 42,
      "start_time": 1.5,
      "duration": 0.0842,
      "velocity": 23
    },
    {
      "pitch": 44,
      "start_time": 1.75,
      "duration": 0.1056,
      "velocity": 23
    },
    {
      "pitch": 42,
      "start_time": 2.0,
      "duration": 0.1019,
      "velocity": 41
    },
    {
      "pitch": 36,
      "start_time": 2.5,
      "duration": 0.0982,
      "velocity": 35
    },
    {
      "pitch": 42,
      "start_time": 2.5,
      "duration": 0.0896,
      "velocity": 41
    },
    {
      "pitch": 38,
      "start_time": 3.0,
      "duration": 0.0805,
      "velocity": 89
    },
    {
      "pitch": 42,
      "start_time": 3.0,
      "duration": 0.0738,
      "velocity": 58
    },
    {
      "pitch": 36,
      "start_time": 3.5,
      "duration": 0.0906,
      "velocity": 62
    },
    {
      "pitch": 36,
      "start_time": 4.0,
      "duration": 0.0877,
      "velocity": 73
    },
    {
      "pitch": 46,
      "start_time": 4.0,
      "duration": 0.0905,
      "velocity": 113
    },
    {
      "pitch": 42,
      "start_time": 4.5,
      "duration": 0.0917,
      "velocity": 29
    },
    {
      "pitch": 38,
      "start_time": 5.0,
      "duration": 0.0855,
      "velocity": 116
    },
    {
      "pitch": 42,
      "start_time": 5.0,
      "duration": 0.0813,
      "velocity": 95
    },
    {
      "pitch": 42,
      "start_time": 5.5,
      "duration": 0.0843,
      "velocity": 18
    },
    {
      "pitch": 44,
      "start_time": 5.75,
      "duration": 0.0684,
      "velocity": 30
    },
    {
      "pitch": 36,
      "start_time": 6.0,
      "duration": 0.0926,
      "velocity": 59
    },
    {
      "pitch": 42,
      "start_time": 6.0,
      "duration": 0.087,
      "velocity": 63
    },
    {
      "pitch": 38,
      "start_time": 6.25,
      "duration": 0.0979,
      "velocity": 43
    },
    {
      "pitch": 36,
      "start_time": 6.5,
      "duration": 0.0875,
      "velocity": 58
    },
    {
      "pitch": 42,
      "start_time": 6.5,
      "duration": 0.0912,
      "velocity": 70
    },
    {
      "pitch": 38,
      "start_time": 7.0,
      "duration": 0.0822,
      "velocity": 119
    },
    {
      "pitch": 42,
      "start_time": 7.0,
      "duration": 0.0826,
      "velocity": 95
    },
    {
      "pitch": 36,
      "start_time": 7.5,
      "duration": 0.0738,
      "velocity": 28
    },
    {
      "pitch": 42,
      "start_time": 7.5,
      "duration": 0.0811,
      "velocity": 33
    }
  ]
}