{
  "source": {
    "song": "packs",
    "track_index": 0,
    "track_name": "Drum Essentials / MIDI Clips / 91 - 110 bpm / Abuse Kit groove 04_110 bpm",
    "slot_index": 0,
    "clip_name": "Drum Essentials / MIDI Clips / 91 - 110 bpm / Abuse Kit groove 04_110 bpm",
    "mid_file": "/Users/darnold/Music/Ableton/Packs/Drum Essentials/MIDI Clips/91 - 110 bpm/Abuse Kit groove 04_110 bpm.alc"
  },
  "meta": {
    "bpm": 110.0,
    "key": "?",
    "scale": "?",
    "length_beats": 8.0,
    "note_count": 45
  },
  "rhythm": {
    "density": 1.375,
    "hit_positions": [
      0.0,
      0.0,
      0.25,
      0.5,
      0.5,
      0.5,
      0.75,
      0.75,
      1.0,
      1.0,
      1.0,
      1.25,
      1.5,
      1.5,
      1.5,
      2.0,
      2.0,
      2.5,
      2.5,
      3.0,
      3.0,
      3.5,
      4.0,
      4.0,
      4.25,
      4.5,
      4.5,
      4.5,
      4.75,
      4.75,
      4.75,
      5.0,
      5.0,
      5.0,
      5.5,
      5.5,
      5.5,
      6.0,
      6.0,
      6.5,
      6.75,
      7.0,
      7.0,
      7.5,
      7.5
    ],
    "ioi": [
      0.0,
      0.25,
      0.25,
      0.0,
      0.0,
      0.25,
      0.0,
      0.25,
      0.0,
      0.0,
      0.25,
      0.25,
      0.0,
      0.0,
      0.5,
      0.0,
      0.5,
      0.0,
      0.5,
      0.0,
      0.5,
      0.5,
      0.0,
      0.25,
      0.25,
      0.0,
      0.0,
      0.25,
      0.0,
      0.0,
      0.25,
      0.0,
      0.0,
      0.5,
      0.0,
      0.0,
      0.5,
      0.0,
      0.5,
      0.25,
      0.25,
      0.0,
      0.5,
      0.0,
      0.5
    ],
    "grid": "8th",
    "euclidean_approx": [
      32,
      32
    ],
    "swing_ratio": 1.0
  },
  "pitch": {
    "notes_used": [
      36,
      37,
      38,
      42,
      44,
      46,
      47,
      49,
      50,
      51
    ],
    "intervals": [
      6,
      6,
      6,
      5,
      4,
      7,
      6,
      12,
      4,
      7,
      5,
      8,
      6,
      5,
      11,
      6,
      0,
      9,
      14,
      5,
      0,
      6,
      6,
      6,
      6,
      5,
      4,
      14,
      7,
      6,
      12,
      4,
      7,
      13,
      6,
      5,
      11,
      6,
      0,
      4,
      8,
      8,
      9,
      9
    ],
    "register": "low",
    "is_melodic": true,
    "pitch_range": 15,
    "pitch_distribution": {
      "36": 8,
      "42": 14,
      "47": 4,
      "51": 3,
      "44": 3,
      "50": 2,
      "38": 3,
      "49": 2,
      "37": 3,
      "46": 3
    }
  },
  "velocity": {
    "mean": 43.8,
    "variance": 424.4,
    "std": 20.6,
    "accents": [
      8,
      31,
      42,
      43,
      44
    ],
    "profile": [
      45,
      39,
      64,
      38,
      32,
      27,
      4,
      8,
      65,
      62,
      49,
      15,
      47,
      42,
      42,
      61,
      54,
      20,
      9,
      63,
      58,
      32,
      56,
      46,
      52,
      36,
      44,
      17,
      2,
      21,
      28,
      66,
      61,
      27,
      59,
      46,
      35,
      60,
      48,
      30,
      52,
      57,
      88,
      74,
      92
    ]
  },
  "notes": [
    {
      "pitch": 36,
      "start_time": 0.0,
      "duration": 0.0442,
      "velocity": 45
    },
    {
      "pitch": 42,
      "start_time": 0.0,
      "duration": 0.0128,
      "velocity": 39
    },
    {
      "pitch": 36,
      "start_time": 0.25,
      "duration": 0.1001,
      "velocity": 64
    },
    {
      "pitch": 42,
      "start_time": 0.5,
      "duration": 0.0679,
      "velocity": 38
    },
    {
      "pitch": 47,
      "start_time": 0.5,
      "duration": 0.0377,
      "velocity": 32
    },
    {
      "pitch": 51,
      "start_time": 0.5,
      "duration": 0.0701,
      "velocity": 27
    },
    {
      "pitch": 44,
      "start_time": 0.75,
      "duration": 0.0072,
      "velocity": 4
    },
    {
      "pitch": 50,
      "start_time": 0.75,
      "duration": 0.0334,
      "velocity": 8
    },
    {
      "pitch": 38,
      "start_time": 1.0,
      "duration": 0.0539,
      "velocity": 65
    },
    {
      "pitch": 42,
      "start_time": 1.0,
      "duration": 0.0408,
      "velocity": 62
    },
    {
      "pitch": 49,
      "start_time": 1.0,
      "duration": 0.0921,
      "velocity": 49
    },
    {
      "pitch": 44,
      "start_time": 1.25,
      "duration": 0.0498,
      "velocity": 15
    },
    {
      "pitch": 36,
      "start_time": 1.5,
      "duration": 0.0654,
      "velocity": 47
    },
    {
      "pitch": 42,
      "start_time": 1.5,
      "duration": 0.0659,
      "velocity": 42
    },
    {
      "pitch": 47,
      "start_time": 1.5,
      "duration": 0.0503,
      "velocity": 42
    },
    {
      "pitch": 36,
      "start_time": 2.0,
      "duration": 0.0764,
      "velocity": 61
    },
    {
      "pitch": 42,
      "start_time": 2.0,
      "duration": 0.0722,
      "velocity": 54
    },
    {
      "pitch": 42,
      "start_time": 2.5,
      "duration": 0.0358,
      "velocity": 20
    },
    {
      "pitch": 51,
      "start_time": 2.5,
      "duration": 0.0086,
      "velocity": 9
    },
    {
      "pitch": 37,
      "start_time": 3.0,
      "duration": 0.0711,
      "velocity": 63
    },
    {
      "pitch": 42,
      "start_time": 3.0,
      "duration": 0.0705,
      "velocity": 58
    },
    {
      "pitch": 42,
      "start_time": 3.5,
      "duration": 0.0616,
      "velocity": 32
    },
    {
      "pitch": 36,
      "start_time": 4.0,
      "duration": 0.0728,
      "velocity": 56
    },
    {
      "pitch": 42,
      "start_time": 4.0,
      "duration": 0.0523,
      "velocity": 46
    },
    {
      "pitch": 36,
      "start_time": 4.25,
      "duration": 0.1191,
      "velocity": 52
    },
    {
      "pitch": 42,
      "start_time": 4.5,
      "duration": 0.0662,
      "velocity": 36
    },
    {
      "pitch": 47,
      "start_time": 4.5,
      "duration": 0.0554,
      "velocity": 44
    },
    {
      "pitch": 51,
      "start_time": 4.5,
      "duration": 0.0535,
      "velocity": 17
    },
    {
      "pitch": 37,
      "start_time": 4.75,
      "duration": 0.0069,
      "velocity": 2
    },
    {
      "pitch": 44,
      "start_time": 4.75,
      "duration": 0.0521,
      "velocity": 21
    },
    {
      "pitch": 50,
      "start_time": 4.75,
      "duration": 0.113,
      "velocity": 28
    },
    {
      "pitch": 38,
      "start_time": 5.0,
      "duration": 0.0504,
      "velocity": 66
    },
    {
      "pitch": 42,
      "start_time": 5.0,
      "duration": 0.0394,
      "velocity": 61
    },
    {
      "pitch": 49,
      "start_time": 5.0,
      "duration": 0.1213,
      "velocity": 27
    },
    {
      "pitch": 36,
      "start_time": 5.5,
      "duration": 0.068,
      "velocity": 59
    },
    {
      "pitch": 42,
      "start_time": 5.5,
      "duration": 0.0711,
      "velocity": 46
    },
    {
      "pitch": 47,
      "start_time": 5.5,
      "duration": 0.0463,
      "velocity": 35
    },
    {
      "pitch": 36,
      "start_time": 6.0,
      "duration": 0.0774,
      "velocity": 60
    },
    {
      "pitch": 42,
      "start_time": 6.0,
      "duration": 0.0812,
      "velocity": 48
    },
    {
      "pitch": 42,
      "start_time": 6.5,
      "duration": 0.0586,
      "velocity": 30
    },
    {
      "pitch": 46,
      "start_time": 6.75,
      "duration": 0.0613,
      "velocity": 52
    },
    {
      "pitch": 38,
      "start_time": 7.0,
      "duration": 0.1914,
      "velocity": 57
    },
    {
      "pitch": 46,
      "start_time": 7.0,
      "duration": 0.1465,
      "velocity": 88
    },
    {
      "pitch": 37,
      "start_time": 7.5,
      "duration": 0.0473,
      "velocity": 74
    },
    {
      "pitch": 46,
      "start_time": 7.5,
      "duration": 0.0797,
      "velocity": 92
    }
  ]
}