{
  "source": {
    "song": "packs",
    "track_index": 0,
    "track_name": "Drum Essentials / MIDI Clips / 111 - 130 bpm / One Hit Kit groove 02_117 bpm",
    "slot_index": 0,
    "clip_name": "Drum Essentials / MIDI Clips / 111 - 130 bpm / One Hit Kit groove 02_117 bpm",
    "mid_file": "/Users/darnold/Music/Ableton/Packs/Drum Essentials/MIDI Clips/111 - 130 bpm/One Hit Kit groove 02_117 bpm.alc"
  },
  "meta": {
    "bpm": 117.0,
    "key": "?",
    "scale": "?",
    "length_beats": 8.0,
    "note_count": 57
  },
  "rhythm": {
    "density": 1.688,
    "hit_positions": [
      0.0,
      0.0,
      0.25,
      0.5,
      0.5,
      0.5,
      0.75,
      1.0,
      1.0,
      1.5,
      1.5,
      1.5,
      2.0,
      2.0,
      2.0,
      2.25,
      2.5,
      2.5,
      2.75,
      3.0,
      3.0,
      3.0,
      3.0,
      3.25,
      3.5,
      3.5,
      3.5,
      3.5,
      3.5,
      4.0,
      4.0,
      4.0,
      4.25,
      4.5,
      4.5,
      4.5,
      4.75,
      5.0,
      5.0,
      5.5,
      5.5,
      5.5,
      5.5,
      5.75,
      6.0,
      6.0,
      6.25,
      6.5,
      6.5,
      6.75,
      7.0,
      7.0,
      7.0,
      7.0,
      7.25,
      7.5,
      7.5
    ],
    "ioi": [
      0.0,
      0.25,
      0.25,
      0.0,
      0.0,
      0.25,
      0.25,
      0.0,
      0.5,
      0.0,
      0.0,
      0.5,
      0.0,
      0.0,
      0.25,
      0.25,
      0.0,
      0.25,
      0.25,
      0.0,
      0.0,
      0.0,
      0.25,
      0.25,
      0.0,
      0.0,
      0.0,
      0.0,
      0.5,
      0.0,
      0.0,
      0.25,
      0.25,
      0.0,
      0.0,
      0.25,
      0.25,
      0.0,
      0.5,
      0.0,
      0.0,
      0.0,
      0.25,
      0.25,
      0.0,
      0.25,
      0.25,
      0.0,
      0.25,
      0.25,
      0.0,
      0.0,
      0.0,
      0.25,
      0.25,
      0.0,
      0.5
    ],
    "grid": "8th",
    "euclidean_approx": [
      32,
      32
    ],
    "swing_ratio": 1.0
  },
  "pitch": {
    "notes_used": [
      36,
      37,
      38,
      39,
      42,
      43,
      44,
      46,
      47
    ],
    "intervals": [
      11,
      5,
      0,
      1,
      4,
      5,
      3,
      8,
      11,
      7,
      4,
      5,
      2,
      3,
      3,
      8,
      11,
      3,
      7,
      5,
      4,
      1,
      3,
      6,
      1,
      5,
      2,
      1,
      11,
      6,
      5,
      5,
      0,
      1,
      4,
      5,
      3,
      8,
      11,
      7,
      1,
      3,
      3,
      2,
      5,
      3,
      8,
      11,
      3,
      7,
      5,
      2,
      3,
      3,
      5,
      8
    ],
    "register": "low",
    "is_melodic": true,
    "pitch_range": 11,
    "pitch_distribution": {
      "36": 6,
      "47": 16,
      "42": 11,
      "43": 4,
      "39": 4,
      "44": 11,
      "37": 2,
      "46": 2,
      "38": 1
    }
  },
  "velocity": {
    "mean": 41.5,
    "variance": 779.8,
    "std": 27.9,
    "accents": [
      0,
      4,
      9,
      10,
      13,
      25,
      29,
      34,
      37,
      39,
      40,
      55
    ],
    "profile": [
      95,
      39,
      13,
      17,
      72,
      18,
      22,
      54,
      32,
      89,
      87,
      23,
      22,
      89,
      25,
      25,
      63,
      26,
      29,
      31,
      19,
      11,
      27,
      28,
      2,
      117,
      38,
      63,
      25,
      73,
      12,
      32,
      13,
      21,
      78,
      29,
      19,
      119,
      29,
      78,
      80,
      30,
      28,
      36,
      28,
      35,
      34,
      55,
      24,
      31,
      30,
      23,
      35,
      31,
      33,
      98,
      30
    ]
  },
  "notes": [
    {
      "pitch": 36,
      "start_time": 0.0,
      "duration": 0.1101,
      "velocity": 95
    },
    {
      "pitch": 47,
      "start_time": 0.0,
      "duration": 0.0543,
      "velocity": 39
    },
    {
      "pitch": 42,
      "start_time": 0.25,
      "duration": 0.25,
      "velocity": 13
    },
    {
      "pitch": 42,
      "start_time": 0.5,
      "duration": 0.25,
      "velocity": 17
    },
    {
      "pitch": 43,
      "start_time": 0.5,
      "duration": 0.1049,
      "velocity": 72
    },
    {
      "pitch": 47,
      "start_time": 0.5,
      "duration": 0.1079,
      "velocity": 18
    },
    {
      "pitch": 42,
      "start_time": 0.75,
      "duration": 0.0707,
      "velocity": 22
    },
    {
      "pitch": 39,
      "start_time": 1.0,
      "duration": 0.1393,
      "velocity": 54
    },
    {
      "pitch": 47,
      "start_time": 1.0,
      "duration": 0.0564,
      "velocity": 32
    },
    {
      "pitch": 36,
      "start_time": 1.5,
      "duration": 0.1178,
      "velocity": 89
    },
    {
      "pitch": 43,
      "start_time": 1.5,
      "duration": 0.1101,
      "velocity": 87
    },
    {
      "pitch": 47,
      "start_time": 1.5,
      "duration": 0.1204,
      "velocity": 23
    },
    {
      "pitch": 42,
      "start_time": 2.0,
      "duration": 0.1656,
      "velocity": 22
    },
    {
      "pitch": 44,
      "start_time": 2.0,
      "duration": 0.25,
      "velocity": 89
    },
    {
      "pitch": 47,
      "start_time": 2.0,
      "duration": 0.0489,
      "velocity": 25
    },
    {
      "pitch": 44,
      "start_time": 2.25,
      "duration": 0.0967,
      "velocity": 25
    },
    {
      "pitch": 36,
      "start_time": 2.5,
      "duration": 0.1301,
      "velocity": 63
    },
    {
      "pitch": 47,
      "start_time": 2.5,
      "duration": 0.1033,
      "velocity": 26
    },
    {
      "pitch": 44,
      "start_time": 2.75,
      "duration": 0.162,
      "velocity": 29
    },
    {
      "pitch": 37,
      "start_time": 3.0,
      "duration": 0.0514,
      "velocity": 31
    },
    {
      "pitch": 42,
      "start_time": 3.0,
      "duration": 0.1436,
      "velocity": 19
    },
    {
      "pitch": 46,
      "start_time": 3.0,
      "duration": 0.0181,
      "velocity": 11
    },
    {
      "pitch": 47,
      "start_time": 3.0,
      "duration": 0.0523,
      "velocity": 27
    },
    {
      "pitch": 44,
      "start_time": 3.25,
      "duration": 0.25,
      "velocity": 28
    },
    {
      "pitch": 38,
      "start_time": 3.5,
      "duration": 0.0089,
      "velocity": 2
    },
    {
      "pitch": 39,
      "start_time": 3.5,
      "duration": 0.1202,
      "velocity": 117
    },
    {
      "pitch": 44,
      "start_time": 3.5,
      "duration": 0.2407,
      "velocity": 38
    },
    {
      "pitch": 46,
      "start_time": 3.5,
      "duration": 0.1512,
      "velocity": 63
    },
    {
      "pitch": 47,
      "start_time": 3.5,
      "duration": 0.1119,
      "velocity": 25
    },
    {
      "pitch": 36,
      "start_time": 4.0,
      "duration": 0.1384,
      "velocity": 73
    },
    {
      "pitch": 42,
      "start_time": 4.0,
      "duration": 0.25,
      "velocity": 12
    },
    {
      "pitch": 47,
      "start_time": 4.0,
      "duration": 0.0531,
      "velocity": 32
    },
    {
      "pitch": 42,
      "start_time": 4.25,
      "duration": 0.25,
      "velocity": 13
    },
    {
      "pitch": 42,
      "start_time": 4.5,
      "duration": 0.25,
      "velocity": 21
    },
    {
      "pitch": 43,
      "start_time": 4.5,
      "duration": 0.1156,
      "velocity": 78
    },
    {
      "pitch": 47,
      "start_time": 4.5,
      "duration": 0.0992,
      "velocity": 29
    },
    {
      "pitch": 42,
      "start_time": 4.75,
      "duration": 0.1423,
      "velocity": 19
    },
    {
      "pitch": 39,
      "start_time": 5.0,
      "duration": 0.1137,
      "velocity": 119
    },
    {
      "pitch": 47,
      "start_time": 5.0,
      "duration": 0.0535,
      "velocity": 29
    },
    {
      "pitch": 36,
      "start_time": 5.5,
      "duration": 0.1409,
      "velocity": 78
    },
    {
      "pitch": 43,
      "start_time": 5.5,
      "duration": 0.1209,
      "velocity": 80
    },
    {
      "pitch": 44,
      "start_time": 5.5,
      "duration": 0.25,
      "velocity": 30
    },
    {
      "pitch": 47,
      "start_time": 5.5,
      "duration": 0.1049,
      "velocity": 28
    },
    {
      "pitch": 44,
      "start_time": 5.75,
      "duration": 0.084,
      "velocity": 36
    },
    {
      "pitch": 42,
      "start_time": 6.0,
      "duration": 0.1525,
      "velocity": 28
    },
    {
      "pitch": 47,
      "start_time": 6.0,
      "duration": 0.0516,
      "velocity": 35
    },
    {
      "pitch": 44,
      "start_time": 6.25,
      "duration": 0.192,
      "velocity": 34
    },
    {
      "pitch": 36,
      "start_time": 6.5,
      "duration": 0.1413,
      "velocity": 55
    },
    {
      "pitch": 47,
      "start_time": 6.5,
      "duration": 0.0921,
      "velocity": 24
    },
    {
      "pitch": 44,
      "start_time": 6.75,
      "duration": 0.25,
      "velocity": 31
    },
    {
      "pitch": 37,
      "start_time": 7.0,
      "duration": 0.0585,
      "velocity": 30
    },
    {
      "pitch": 42,
      "start_time": 7.0,
      "duration": 0.1344,
      "velocity": 23
    },
    {
      "pitch": 44,
      "start_time": 7.0,
      "duration": 0.25,
      "velocity": 35
    },
    {
      "pitch": 47,
      "start_time": 7.0,
      "duration": 0.0546,
      "velocity": 31
    },
    {
      "pitch": 44,
      "start_time": 7.25,
      "duration": 0.2218,
      "velocity": 33
    },
    {
      "pitch": 39,
      "start_time": 7.5,
      "duration": 0.0979,
      "velocity": 98
    },
    {
      "pitch": 47,
      "start_time": 7.5,
      "duration": 0.0981,
      "velocity": 30
    }
  ]
}