{
  "source": {
    "song": "packs",
    "track_index": 0,
    "track_name": "Drum Essentials / MIDI Clips / 91 - 110 bpm / Cosine Kit groove 02_106 bpm",
    "slot_index": 0,
    "clip_name": "Drum Essentials / MIDI Clips / 91 - 110 bpm / Cosine Kit groove 02_106 bpm",
    "mid_file": "/Users/darnold/Music/Ableton/Packs/Drum Essentials/MIDI Clips/91 - 110 bpm/Cosine Kit groove 02_106 bpm.alc"
  },
  "meta": {
    "bpm": 106.0,
    "key": "?",
    "scale": "?",
    "length_beats": 4.0,
    "note_count": 44
  },
  "rhythm": {
    "density": 2.0,
    "hit_positions": [
      0.0,
      0.0,
      0.0,
      0.0,
      0.25,
      0.25,
      0.5,
      0.5,
      0.5,
      0.5,
      0.75,
      0.75,
      0.75,
      1.0,
      1.0,
      1.0,
      1.0,
      1.0,
      1.25,
      1.5,
      1.5,
      1.5,
      1.5,
      1.75,
      2.0,
      2.0,
      2.0,
      2.0,
      2.25,
      2.5,
      2.5,
      2.5,
      2.5,
      2.75,
      3.0,
      3.0,
      3.0,
      3.25,
      3.5,
      3.5,
      3.5,
      3.5,
      3.75,
      3.75
    ],
    "ioi": [
      0.0,
      0.0,
      0.0,
      0.25,
      0.0,
      0.25,
      0.0,
      0.0,
      0.0,
      0.25,
      0.0,
      0.0,
      0.25,
      0.0,
      0.0,
      0.0,
      0.0,
      0.25,
      0.25,
      0.0,
      0.0,
      0.0,
      0.25,
      0.25,
      0.0,
      0.0,
      0.0,
      0.25,
      0.25,
      0.0,
      0.0,
      0.0,
      0.25,
      0.25,
      0.0,
      0.0,
      0.25,
      0.25,
      0.0,
      0.0,
      0.0,
      0.25,
      0.0,
      0.25
    ],
    "grid": "8th",
    "euclidean_approx": [
      16,
      16
    ],
    "swing_ratio": 1.0
  },
  "pitch": {
    "notes_used": [
      36,
      38,
      42,
      43,
      44,
      45,
      46,
      47,
      51
    ],
    "intervals": [
      6,
      1,
      3,
      4,
      1,
      1,
      1,
      1,
      7,
      9,
      1,
      3,
      8,
      4,
      3,
      2,
      4,
      9,
      0,
      1,
      1,
      3,
      5,
      6,
      6,
      1,
      2,
      3,
      6,
      6,
      2,
      2,
      4,
      4,
      4,
      3,
      3,
      0,
      1,
      1,
      3,
      5,
      1
    ],
    "register": "low",
    "is_melodic": true,
    "pitch_range": 15,
    "pitch_distribution": {
      "36": 3,
      "42": 16,
      "43": 8,
      "46": 3,
      "44": 4,
      "51": 2,
      "38": 2,
      "45": 3,
      "47": 3
    }
  },
  "velocity": {
    "mean": 63.2,
    "variance": 1335.6,
    "std": 36.5,
    "accents": [
      1,
      3,
      13,
      14,
      22,
      26,
      32,
      34,
      35,
      41
    ],
    "profile": [
      89,
      119,
      14,
      127,
      29,
      26,
      39,
      56,
      50,
      59,
      31,
      31,
      74,
      126,
      107,
      69,
      81,
      80,
      43,
      31,
      39,
      32,
      127,
      38,
      53,
      16,
      110,
      58,
      47,
      86,
      38,
      52,
      123,
      46,
      119,
      120,
      73,
      44,
      45,
      3,
      64,
      127,
      22,
      16
    ]
  },
  "notes": [
    {
      "pitch": 36,
      "start_time": 0.0,
      "duration": 0.0417,
      "velocity": 89
    },
    {
      "pitch": 42,
      "start_time": 0.0,
      "duration": 0.0625,
      "velocity": 119
    },
    {
      "pitch": 43,
      "start_time": 0.0,
      "duration": 0.0417,
      "velocity": 14
    },
    {
      "pitch": 46,
      "start_time": 0.0,
      "duration": 0.125,
      "velocity": 127
    },
    {
      "pitch": 42,
      "start_time": 0.25,
      "duration": 0.1042,
      "velocity": 29
    },
    {
      "pitch": 43,
      "start_time": 0.25,
      "duration": 0.0833,
      "velocity": 26
    },
    {
      "pitch": 42,
      "start_time": 0.5,
      "duration": 0.0417,
      "velocity": 39
    },
    {
      "pitch": 43,
      "start_time": 0.5,
      "duration": 0.0521,
      "velocity": 56
    },
    {
      "pitch": 44,
      "start_time": 0.5,
      "duration": 0.0729,
      "velocity": 50
    },
    {
      "pitch": 51,
      "start_time": 0.5,
      "duration": 0.0417,
      "velocity": 59
    },
    {
      "pitch": 42,
      "start_time": 0.75,
      "duration": 0.0833,
      "velocity": 31
    },
    {
      "pitch": 43,
      "start_time": 0.75,
      "duration": 0.0625,
      "velocity": 31
    },
    {
      "pitch": 46,
      "start_time": 0.75,
      "duration": 0.0833,
      "velocity": 74
    },
    {
      "pitch": 38,
      "start_time": 1.0,
      "duration": 0.0521,
      "velocity": 126
    },
    {
      "pitch": 42,
      "start_time": 1.0,
      "duration": 0.0833,
      "velocity": 107
    },
    {
      "pitch": 45,
      "start_time": 1.0,
      "duration": 0.0625,
      "velocity": 69
    },
    {
      "pitch": 47,
      "start_time": 1.0,
      "duration": 0.1042,
      "velocity": 81
    },
    {
      "pitch": 51,
      "start_time": 1.0,
      "duration": 0.0833,
      "velocity": 80
    },
    {
      "pitch": 42,
      "start_time": 1.25,
      "duration": 0.1146,
      "velocity": 43
    },
    {
      "pitch": 42,
      "start_time": 1.5,
      "duration": 0.0833,
      "velocity": 31
    },
    {
      "pitch": 43,
      "start_time": 1.5,
      "duration": 0.0417,
      "velocity": 39
    },
    {
      "pitch": 44,
      "start_time": 1.5,
      "duration": 0.0625,
      "velocity": 32
    },
    {
      "pitch": 47,
      "start_time": 1.5,
      "duration": 0.5104,
      "velocity": 127
    },
    {
      "pitch": 42,
      "start_time": 1.75,
      "duration": 0.0938,
      "velocity": 38
    },
    {
      "pitch": 36,
      "start_time": 2.0,
      "duration": 0.0625,
      "velocity": 53
    },
    {
      "pitch": 42,
      "start_time": 2.0,
      "duration": 0.0417,
      "velocity": 16
    },
    {
      "pitch": 43,
      "start_time": 2.0,
      "duration": 0.0521,
      "velocity": 110
    },
    {
      "pitch": 45,
      "start_time": 2.0,
      "duration": 0.0625,
      "velocity": 58
    },
    {
      "pitch": 42,
      "start_time": 2.25,
      "duration": 0.125,
      "velocity": 47
    },
    {
      "pitch": 36,
      "start_time": 2.5,
      "duration": 0.0729,
      "velocity": 86
    },
    {
      "pitch": 42,
      "start_time": 2.5,
      "duration": 0.0833,
      "velocity": 38
    },
    {
      "pitch": 44,
      "start_time": 2.5,
      "duration": 0.0729,
      "velocity": 52
    },
    {
      "pitch": 46,
      "start_time": 2.5,
      "duration": 0.4688,
      "velocity": 123
    },
    {
      "pitch": 42,
      "start_time": 2.75,
      "duration": 0.0938,
      "velocity": 46
    },
    {
      "pitch": 38,
      "start_time": 3.0,
      "duration": 0.0729,
      "velocity": 119
    },
    {
      "pitch": 42,
      "start_time": 3.0,
      "duration": 0.1042,
      "velocity": 120
    },
    {
      "pitch": 45,
      "start_time": 3.0,
      "duration": 0.0625,
      "velocity": 73
    },
    {
      "pitch": 42,
      "start_time": 3.25,
      "duration": 0.125,
      "velocity": 44
    },
    {
      "pitch": 42,
      "start_time": 3.5,
      "duration": 0.0417,
      "velocity": 45
    },
    {
      "pitch": 43,
      "start_time": 3.5,
      "duration": 0.001,
      "velocity": 3
    },
    {
      "pitch": 44,
      "start_time": 3.5,
      "duration": 0.0729,
      "velocity": 64
    },
    {
      "pitch": 47,
      "start_time": 3.5,
      "duration": 0.2812,
      "velocity": 127
    },
    {
      "pitch": 42,
      "start_time": 3.75,
      "duration": 0.1354,
      "velocity": 22
    },
    {
      "pitch": 43,
      "start_time": 3.75,
      "duration": 0.0833,
      "velocity": 16
    }
  ]
}