{
  "source": {
    "song": "packs",
    "track_index": 0,
    "track_name": "Drum Essentials / MIDI Clips / 111 - 130 bpm / 64 Pads Penelope Kit groove 04_112 bpm",
    "slot_index": 0,
    "clip_name": "Drum Essentials / MIDI Clips / 111 - 130 bpm / 64 Pads Penelope Kit groove 04_112 bpm",
    "mid_file": "/Users/darnold/Music/Ableton/Packs/Drum Essentials/MIDI Clips/111 - 130 bpm/64 Pads Penelope Kit groove 04_112 bpm.alc"
  },
  "meta": {
    "bpm": 112.0,
    "key": "?",
    "scale": "?",
    "length_beats": 12.0,
    "note_count": 81
  },
  "rhythm": {
    "density": 1.625,
    "hit_positions": [
      0.0,
      0.0,
      0.0,
      0.0,
      0.5,
      0.5,
      0.5,
      0.8333,
      1.0,
      1.0,
      1.0,
      1.5,
      1.5,
      1.5,
      2.0,
      2.0,
      2.3333,
      2.3333,
      2.5,
      2.5,
      2.5,
      3.0,
      3.0,
      3.0,
      3.3333,
      3.3333,
      3.5,
      3.5,
      3.5,
      3.8333,
      4.0,
      4.0,
      4.0,
      4.5,
      4.5,
      4.5,
      4.8333,
      5.0,
      5.0,
      5.0,
      5.3333,
      5.5,
      5.5,
      5.5,
      6.0,
      6.0,
      6.0,
      6.3333,
      6.3333,
      6.5,
      6.5,
      6.8333,
      7.0,
      7.0,
      7.0,
      7.3333,
      7.5,
      7.5,
      7.8333,
      8.0,
      8.0,
      8.5,
      8.5,
      9.0,
      9.3333,
      9.5,
      9.8333,
      10.0,
      10.0,
      10.5,
      10.5,
      10.8333,
      10.8333,
      11.0,
      11.0,
      11.0,
      11.0,
      11.3333,
      11.3333,
      11.5,
      11.8333
    ],
    "ioi": [
      0.0,
      0.0,
      0.0,
      0.5,
      0.0,
      0.0,
      0.3333,
      0.1667,
      0.0,
      0.0,
      0.5,
      0.0,
      0.0,
      0.5,
      0.0,
      0.3333,
      0.0,
      0.1667,
      0.0,
      0.0,
      0.5,
      0.0,
      0.0,
      0.3333,
      0.0,
      0.1667,
      0.0,
      0.0,
      0.3333,
      0.1667,
      0.0,
      0.0,
      0.5,
      0.0,
      0.0,
      0.3333,
      0.1667,
      0.0,
      0.0,
      0.3333,
      0.1667,
      0.0,
      0.0,
      0.5,
      0.0,
      0.0,
      0.3333,
      0.0,
      0.1667,
      0.0,
      0.3333,
      0.1667,
      0.0,
      0.0,
      0.3333,
      0.1667,
      0.0,
      0.3333,
      0.1667,
      0.0,
      0.5,
      0.0,
      0.5,
      0.3333,
      0.1667,
      0.3333,
      0.1667,
      0.0,
      0.5,
      0.0,
      0.3333,
      0.0,
      0.1667,
      0.0,
      0.0,
      0.0,
      0.3333,
      0.0,
      0.1667,
      0.3333,
      0.1667
    ],
    "grid": "8th",
    "euclidean_approx": [
      48,
      48
    ],
    "swing_ratio": 1.333
  },
  "pitch": {
    "notes_used": [
      36,
      38,
      39,
      42,
      44,
      53,
      55,
      56,
      57,
      59,
      61,
      63,
      65,
      81,
      84,
      86,
      88,
      89,
      90
    ],
    "intervals": [
      6,
      14,
      28,
      48,
      6,
      14,
      28,
      46,
      4,
      15,
      15,
      14,
      28,
      42,
      14,
      0,
      28,
      48,
      6,
      14,
      18,
      4,
      46,
      52,
      25,
      19,
      13,
      1,
      3,
      17,
      6,
      14,
      14,
      14,
      28,
      48,
      2,
      4,
      15,
      27,
      48,
      6,
      14,
      14,
      14,
      28,
      48,
      20,
      14,
      14,
      28,
      48,
      2,
      4,
      11,
      2,
      1,
      5,
      25,
      6,
      0,
      42,
      42,
      42,
      42,
      2,
      2,
      42,
      42,
      47,
      28,
      4,
      26,
      3,
      44,
      4,
      54,
      23,
      22,
      18
    ],
    "register": "mid",
    "is_melodic": true,
    "pitch_range": 54,
    "pitch_distribution": {
      "36": 11,
      "42": 22,
      "56": 14,
      "84": 11,
      "38": 4,
      "57": 2,
      "88": 1,
      "61": 3,
      "55": 2,
      "53": 2,
      "44": 1,
      "89": 1,
      "65": 1,
      "39": 1,
      "86": 1,
      "90": 1,
      "59": 1,
      "81": 1,
      "63": 1
    }
  },
  "velocity": {
    "mean": 41.1,
    "variance": 418.3,
    "std": 20.5,
    "accents": [
      0,
      7,
      8,
      9,
      21,
      24,
      30,
      37,
      38,
      41,
      52,
      53,
      58,
      73,
      77
    ],
    "profile": [
      82,
      52,
      20,
      39,
      52,
      39,
      28,
      64,
      96,
      66,
      41,
      29,
      21,
      38,
      27,
      17,
      21,
      30,
      45,
      36,
      29,
      77,
      55,
      48,
      69,
      53,
      34,
      31,
      21,
      33,
      71,
      40,
      25,
      28,
      16,
      25,
      37,
      98,
      68,
      52,
      27,
      64,
      40,
      26,
      27,
      19,
      31,
      54,
      14,
      31,
      26,
      32,
      68,
      68,
      41,
      20,
      27,
      26,
      95,
      51,
      38,
      30,
      37,
      33,
      34,
      20,
      31,
      28,
      43,
      26,
      53,
      18,
      37,
      97,
      41,
      8,
      27,
      72,
      34,
      37,
      46
    ]
  },
  "notes": [
    {
      "pitch": 36,
      "start_time": 0.0,
      "duration": 0.077,
      "velocity": 82
    },
    {
      "pitch": 42,
      "start_time": 0.0,
      "duration": 0.0779,
      "velocity": 52
    },
    {
      "pitch": 56,
      "start_time": 0.0,
      "duration": 0.0491,
      "velocity": 20
    },
    {
      "pitch": 84,
      "start_time": 0.0,
      "duration": 0.3704,
      "velocity": 39
    },
    {
      "pitch": 36,
      "start_time": 0.5,
      "duration": 0.0673,
      "velocity": 52
    },
    {
      "pitch": 42,
      "start_time": 0.5,
      "duration": 0.0863,
      "velocity": 39
    },
    {
      "pitch": 56,
      "start_time": 0.5,
      "duration": 0.0519,
      "velocity": 28
    },
    {
      "pitch": 84,
      "start_time": 0.8333,
      "duration": 0.3276,
      "velocity": 64
    },
    {
      "pitch": 38,
      "start_time": 1.0,
      "duration": 0.0717,
      "velocity": 96
    },
    {
      "pitch": 42,
      "start_time": 1.0,
      "duration": 0.0552,
      "velocity": 66
    },
    {
      "pitch": 57,
      "start_time": 1.0,
      "duration": 0.0513,
      "velocity": 41
    },
    {
      "pitch": 42,
      "start_time": 1.5,
      "duration": 0.0708,
      "velocity": 29
    },
    {
      "pitch": 56,
      "start_time": 1.5,
      "duration": 0.0691,
      "velocity": 21
    },
    {
      "pitch": 84,
      "start_time": 1.5,
      "duration": 0.4994,
      "velocity": 38
    },
    {
      "pitch": 42,
      "start_time": 2.0,
      "duration": 0.0558,
      "velocity": 27
    },
    {
      "pitch": 56,
      "start_time": 2.0,
      "duration": 0.0553,
      "velocity": 17
    },
    {
      "pitch": 56,
      "start_time": 2.3333,
      "duration": 0.0667,
      "velocity": 21
    },
    {
      "pitch": 84,
      "start_time": 2.3333,
      "duration": 0.4106,
      "velocity": 30
    },
    {
      "pitch": 36,
      "start_time": 2.5,
      "duration": 0.051,
      "velocity": 45
    },
    {
      "pitch": 42,
      "start_time": 2.5,
      "duration": 0.0823,
      "velocity": 36
    },
    {
      "pitch": 56,
      "start_time": 2.5,
      "duration": 0.0603,
      "velocity": 29
    },
    {
      "pitch": 38,
      "start_time": 3.0,
      "duration": 0.0609,
      "velocity": 77
    },
    {
      "pitch": 42,
      "start_time": 3.0,
      "duration": 0.0508,
      "velocity": 55
    },
    {
      "pitch": 88,
      "start_time": 3.0,
      "duration": 0.142,
      "velocity": 48
    },
    {
      "pitch": 36,
      "start_time": 3.3333,
      "duration": 0.1225,
      "velocity": 69
    },
    {
      "pitch": 61,
      "start_time": 3.3333,
      "duration": 0.1113,
      "velocity": 53
    },
    {
      "pitch": 42,
      "start_time": 3.5,
      "duration": 0.0826,
      "velocity": 34
    },
    {
      "pitch": 55,
      "start_time": 3.5,
      "duration": 0.1613,
      "velocity": 31
    },
    {
      "pitch": 56,
      "start_time": 3.5,
      "duration": 0.0518,
      "velocity": 21
    },
    {
      "pitch": 53,
      "start_time": 3.8333,
      "duration": 0.0995,
      "velocity": 33
    },
    {
      "pitch": 36,
      "start_time": 4.0,
      "duration": 0.0799,
      "velocity": 71
    },
    {
      "pitch": 42,
      "start_time": 4.0,
      "duration": 0.0685,
      "velocity": 40
    },
    {
      "pitch": 56,
      "start_time": 4.0,
      "duration": 0.0502,
      "velocity": 25
    },
    {
      "pitch": 42,
      "start_time": 4.5,
      "duration": 0.0657,
      "velocity": 28
    },
    {
      "pitch": 56,
      "start_time": 4.5,
      "duration": 0.0515,
      "velocity": 16
    },
    {
      "pitch": 84,
      "start_time": 4.5,
      "duration": 0.0685,
      "velocity": 25
    },
    {
      "pitch": 36,
      "start_time": 4.8333,
      "duration": 0.1013,
      "velocity": 37
    },
    {
      "pitch": 38,
      "start_time": 5.0,
      "duration": 0.0828,
      "velocity": 98
    },
    {
      "pitch": 42,
      "start_time": 5.0,
      "duration": 0.0438,
      "velocity": 68
    },
    {
      "pitch": 57,
      "start_time": 5.0,
      "duration": 0.0594,
      "velocity": 52
    },
    {
      "pitch": 84,
      "start_time": 5.3333,
      "duration": 0.0693,
      "velocity": 27
    },
    {
      "pitch": 36,
      "start_time": 5.5,
      "duration": 0.0885,
      "velocity": 64
    },
    {
      "pitch": 42,
      "start_time": 5.5,
      "duration": 0.0826,
      "velocity": 40
    },
    {
      "pitch": 56,
      "start_time": 5.5,
      "duration": 0.0672,
      "velocity": 26
    },
    {
      "pitch": 42,
      "start_time": 6.0,
      "duration": 0.0637,
      "velocity": 27
    },
    {
      "pitch": 56,
      "start_time": 6.0,
      "duration": 0.0517,
      "velocity": 19
    },
    {
      "pitch": 84,
      "start_time": 6.0,
      "duration": 0.106,
      "velocity": 31
    },
    {
      "pitch": 36,
      "start_time": 6.3333,
      "duration": 0.1271,
      "velocity": 54
    },
    {
      "pitch": 56,
      "start_time": 6.3333,
      "duration": 0.1036,
      "velocity": 14
    },
    {
      "pitch": 42,
      "start_time": 6.5,
      "duration": 0.081,
      "velocity": 31
    },
    {
      "pitch": 56,
      "start_time": 6.5,
      "duration": 0.0659,
      "velocity": 26
    },
    {
      "pitch": 84,
      "start_time": 6.8333,
      "duration": 0.314,
      "velocity": 32
    },
    {
      "pitch": 36,
      "start_time": 7.0,
      "duration": 0.0796,
      "velocity": 68
    },
    {
      "pitch": 38,
      "start_time": 7.0,
      "duration": 0.1012,
      "velocity": 68
    },
    {
      "pitch": 42,
      "start_time": 7.0,
      "duration": 0.0893,
      "velocity": 41
    },
    {
      "pitch": 53,
      "start_time": 7.3333,
      "duration": 0.0849,
      "velocity": 20
    },
    {
      "pitch": 55,
      "start_time": 7.5,
      "duration": 0.2447,
      "velocity": 27
    },
    {
      "pitch": 56,
      "start_time": 7.5,
      "duration": 0.0441,
      "velocity": 26
    },
    {
      "pitch": 61,
      "start_time": 7.8333,
      "duration": 0.1203,
      "velocity": 95
    },
    {
      "pitch": 36,
      "start_time": 8.0,
      "duration": 0.0781,
      "velocity": 51
    },
    {
      "pitch": 42,
      "start_time": 8.0,
      "duration": 0.0729,
      "velocity": 38
    },
    {
      "pitch": 42,
      "start_time": 8.5,
      "duration": 0.0696,
      "velocity": 30
    },
    {
      "pitch": 84,
      "start_time": 8.5,
      "duration": 0.0572,
      "velocity": 37
    },
    {
      "pitch": 42,
      "start_time": 9.0,
      "duration": 0.0835,
      "velocity": 33
    },
    {
      "pitch": 84,
      "start_time": 9.3333,
      "duration": 0.068,
      "velocity": 34
    },
    {
      "pitch": 42,
      "start_time": 9.5,
      "duration": 0.0664,
      "velocity": 20
    },
    {
      "pitch": 44,
      "start_time": 9.8333,
      "duration": 0.0843,
      "velocity": 31
    },
    {
      "pitch": 42,
      "start_time": 10.0,
      "duration": 0.1078,
      "velocity": 28
    },
    {
      "pitch": 84,
      "start_time": 10.0,
      "duration": 0.3112,
      "velocity": 43
    },
    {
      "pitch": 42,
      "start_time": 10.5,
      "duration": 0.0957,
      "velocity": 26
    },
    {
      "pitch": 89,
      "start_time": 10.5,
      "duration": 0.1581,
      "velocity": 53
    },
    {
      "pitch": 61,
      "start_time": 10.8333,
      "duration": 0.044,
      "velocity": 18
    },
    {
      "pitch": 65,
      "start_time": 10.8333,
      "duration": 0.1139,
      "velocity": 37
    },
    {
      "pitch": 39,
      "start_time": 11.0,
      "duration": 0.4542,
      "velocity": 97
    },
    {
      "pitch": 42,
      "start_time": 11.0,
      "duration": 0.1064,
      "velocity": 41
    },
    {
      "pitch": 86,
      "start_time": 11.0,
      "duration": 0.0438,
      "velocity": 8
    },
    {
      "pitch": 90,
      "start_time": 11.0,
      "duration": 0.1147,
      "velocity": 27
    },
    {
      "pitch": 36,
      "start_time": 11.3333,
      "duration": 0.0708,
      "velocity": 72
    },
    {
      "pitch": 59,
      "start_time": 11.3333,
      "duration": 0.0532,
      "velocity": 34
    },
    {
      "pitch": 81,
      "start_time": 11.5,
      "duration": 0.2709,
      "velocity": 37
    },
    {
      "pitch": 63,
      "start_time": 11.8333,
      "duration": 0.0755,
      "velocity": 46
    }
  ]
}