{
  "source": {
    "song": "packs",
    "track_index": 0,
    "track_name": "Drum Essentials / MIDI Clips / 91 - 110 bpm / Hand Drums Kit groove 01_106 bpm",
    "slot_index": 0,
    "clip_name": "Drum Essentials / MIDI Clips / 91 - 110 bpm / Hand Drums Kit groove 01_106 bpm",
    "mid_file": "/Users/darnold/Music/Ableton/Packs/Drum Essentials/MIDI Clips/91 - 110 bpm/Hand Drums Kit groove 01_106 bpm.alc"
  },
  "meta": {
    "bpm": 106.0,
    "key": "?",
    "scale": "?",
    "length_beats": 8.0,
    "note_count": 35
  },
  "rhythm": {
    "density": 1.562,
    "hit_positions": [
      0.0,
      0.0,
      0.0,
      0.25,
      0.5,
      0.75,
      0.75,
      1.0,
      1.5,
      1.5,
      1.5,
      2.0,
      2.5,
      2.75,
      3.0,
      3.25,
      3.5,
      3.75,
      4.0,
      4.0,
      4.25,
      4.5,
      4.75,
      4.75,
      5.25,
      5.5,
      5.75,
      6.0,
      6.5,
      6.5,
      7.0,
      7.25,
      7.25,
      7.5,
      7.5
    ],
    "ioi": [
      0.0,
      0.0,
      0.25,
      0.25,
      0.25,
      0.0,
      0.25,
      0.5,
      0.0,
      0.0,
      0.5,
      0.5,
      0.25,
      0.25,
      0.25,
      0.25,
      0.25,
      0.25,
      0.0,
      0.25,
      0.25,
      0.25,
      0.0,
      0.5,
      0.25,
      0.25,
      0.25,
      0.5,
      0.0,
      0.5,
      0.25,
      0.0,
      0.25,
      0.0,
      0.5
    ],
    "grid": "8th",
    "euclidean_approx": [
      32,
      32
    ],
    "swing_ratio": 1.0
  },
  "pitch": {
    "notes_used": [
      36,
      38,
      39,
      41,
      42,
      43,
      44,
      45,
      46,
      47,
      48
    ],
    "intervals": [
      9,
      1,
      5,
      2,
      1,
      2,
      0,
      6,
      1,
      8,
      5,
      6,
      12,
      6,
      2,
      3,
      5,
      6,
      8,
      3,
      2,
      1,
      3,
      7,
      9,
      11,
      6,
      6,
      9,
      1,
      3,
      1,
      6,
      9
    ],
    "register": "low",
    "is_melodic": true,
    "pitch_range": 12,
    "pitch_distribution": {
      "36": 6,
      "45": 4,
      "46": 1,
      "41": 3,
      "43": 2,
      "42": 7,
      "44": 5,
      "38": 2,
      "39": 1,
      "47": 3,
      "48": 1
    }
  },
  "velocity": {
    "mean": 53.7,
    "variance": 367.4,
    "std": 19.2,
    "accents": [
      0,
      6,
      7,
      8,
      15,
      32
    ],
    "profile": [
      90,
      64,
      60,
      33,
      40,
      34,
      100,
      84,
      76,
      35,
      37,
      57,
      51,
      39,
      29,
      84,
      42,
      35,
      64,
      69,
      34,
      41,
      26,
      64,
      52,
      54,
      40,
      60,
      63,
      36,
      67,
      45,
      84,
      55,
      34
    ]
  },
  "notes": [
    {
      "pitch": 36,
      "start_time": 0.0,
      "duration": 0.6606,
      "velocity": 90
    },
    {
      "pitch": 45,
      "start_time": 0.0,
      "duration": 0.2225,
      "velocity": 64
    },
    {
      "pitch": 46,
      "start_time": 0.0,
      "duration": 0.6695,
      "velocity": 60
    },
    {
      "pitch": 41,
      "start_time": 0.25,
      "duration": 0.3501,
      "velocity": 33
    },
    {
      "pitch": 43,
      "start_time": 0.5,
      "duration": 0.27,
      "velocity": 40
    },
    {
      "pitch": 42,
      "start_time": 0.75,
      "duration": 0.2252,
      "velocity": 34
    },
    {
      "pitch": 44,
      "start_time": 0.75,
      "duration": 0.1885,
      "velocity": 100
    },
    {
      "pitch": 44,
      "start_time": 1.0,
      "duration": 0.1829,
      "velocity": 84
    },
    {
      "pitch": 38,
      "start_time": 1.5,
      "duration": 0.5879,
      "velocity": 76
    },
    {
      "pitch": 39,
      "start_time": 1.5,
      "duration": 0.6518,
      "velocity": 35
    },
    {
      "pitch": 47,
      "start_time": 1.5,
      "duration": 0.4456,
      "velocity": 37
    },
    {
      "pitch": 42,
      "start_time": 2.0,
      "duration": 0.5026,
      "velocity": 57
    },
    {
      "pitch": 36,
      "start_time": 2.5,
      "duration": 0.483,
      "velocity": 51
    },
    {
      "pitch": 48,
      "start_time": 2.75,
      "duration": 0.5275,
      "velocity": 39
    },
    {
      "pitch": 42,
      "start_time": 3.0,
      "duration": 0.2504,
      "velocity": 29
    },
    {
      "pitch": 44,
      "start_time": 3.25,
      "duration": 0.1758,
      "velocity": 84
    },
    {
      "pitch": 47,
      "start_time": 3.5,
      "duration": 0.2361,
      "velocity": 42
    },
    {
      "pitch": 42,
      "start_time": 3.75,
      "duration": 0.1637,
      "velocity": 35
    },
    {
      "pitch": 36,
      "start_time": 4.0,
      "duration": 0.673,
      "velocity": 64
    },
    {
      "pitch": 44,
      "start_time": 4.0,
      "duration": 0.2628,
      "velocity": 69
    },
    {
      "pitch": 41,
      "start_time": 4.25,
      "duration": 0.3676,
      "velocity": 34
    },
    {
      "pitch": 43,
      "start_time": 4.5,
      "duration": 0.2539,
      "velocity": 41
    },
    {
      "pitch": 42,
      "start_time": 4.75,
      "duration": 0.2415,
      "velocity": 26
    },
    {
      "pitch": 45,
      "start_time": 4.75,
      "duration": 0.3585,
      "velocity": 64
    },
    {
      "pitch": 38,
      "start_time": 5.25,
      "duration": 1.0015,
      "velocity": 52
    },
    {
      "pitch": 47,
      "start_time": 5.5,
      "duration": 0.2823,
      "velocity": 54
    },
    {
      "pitch": 36,
      "start_time": 5.75,
      "duration": 0.1937,
      "velocity": 40
    },
    {
      "pitch": 42,
      "start_time": 6.0,
      "duration": 0.5344,
      "velocity": 60
    },
    {
      "pitch": 36,
      "start_time": 6.5,
      "duration": 0.4954,
      "velocity": 63
    },
    {
      "pitch": 45,
      "start_time": 6.5,
      "duration": 0.2109,
      "velocity": 36
    },
    {
      "pitch": 44,
      "start_time": 7.0,
      "duration": 0.2895,
      "velocity": 67
    },
    {
      "pitch": 41,
      "start_time": 7.25,
      "duration": 0.2413,
      "velocity": 45
    },
    {
      "pitch": 42,
      "start_time": 7.25,
      "duration": 0.2502,
      "velocity": 84
    },
    {
      "pitch": 36,
      "start_time": 7.5,
      "duration": 0.4174,
      "velocity": 55
    },
    {
      "pitch": 45,
      "start_time": 7.5,
      "duration": 0.4191,
      "velocity": 34
    }
  ]
}