{
  "source": {
    "song": "packs",
    "track_index": 0,
    "track_name": "Drum Essentials / MIDI Clips / 111 - 130 bpm / Arizona Kit groove 02_130 bpm",
    "slot_index": 0,
    "clip_name": "Drum Essentials / MIDI Clips / 111 - 130 bpm / Arizona Kit groove 02_130 bpm",
    "mid_file": "/Users/darnold/Music/Ableton/Packs/Drum Essentials/MIDI Clips/111 - 130 bpm/Arizona Kit groove 02_130 bpm.alc"
  },
  "meta": {
    "bpm": 130.0,
    "key": "?",
    "scale": "?",
    "length_beats": 8.0,
    "note_count": 38
  },
  "rhythm": {
    "density": 1.188,
    "hit_positions": [
      0.0,
      0.0,
      0.0,
      0.5,
      0.5,
      1.0,
      1.0,
      1.0,
      1.5,
      1.5,
      2.0,
      2.0,
      2.0,
      2.5,
      2.5,
      3.0,
      3.0,
      3.5,
      3.5,
      4.0,
      4.0,
      4.5,
      4.5,
      5.0,
      5.0,
      5.5,
      5.5,
      6.0,
      6.0,
      6.5,
      6.5,
      6.75,
      6.75,
      7.0,
      7.0,
      7.25,
      7.5,
      7.75
    ],
    "ioi": [
      0.0,
      0.0,
      0.5,
      0.0,
      0.5,
      0.0,
      0.0,
      0.5,
      0.0,
      0.5,
      0.0,
      0.0,
      0.5,
      0.0,
      0.5,
      0.0,
      0.5,
      0.0,
      0.5,
      0.0,
      0.5,
      0.0,
      0.5,
      0.0,
      0.5,
      0.0,
      0.5,
      0.0,
      0.5,
      0.0,
      0.25,
      0.0,
      0.25,
      0.0,
      0.25,
      0.25,
      0.25,
      0.25
    ],
    "grid": "8th",
    "euclidean_approx": [
      32,
      32
    ],
    "swing_ratio": 1.0
  },
  "pitch": {
    "notes_used": [
      36,
      40,
      42,
      44,
      48
    ],
    "intervals": [
      8,
      4,
      6,
      6,
      12,
      6,
      6,
      6,
      6,
      8,
      2,
      6,
      6,
      6,
      6,
      6,
      8,
      8,
      6,
      6,
      12,
      12,
      4,
      4,
      6,
      6,
      8,
      8,
      6,
      6,
      12,
      12,
      6,
      6,
      8,
      0,
      0
    ],
    "register": "low",
    "is_melodic": true,
    "pitch_range": 12,
    "pitch_distribution": {
      "36": 4,
      "44": 2,
      "48": 16,
      "42": 10,
      "40": 6
    }
  },
  "velocity": {
    "mean": 46.9,
    "variance": 755.2,
    "std": 27.5,
    "accents": [
      0,
      1,
      10,
      21,
      27,
      34,
      36,
      37
    ],
    "profile": [
      87,
      84,
      34,
      36,
      29,
      42,
      39,
      22,
      30,
      25,
      112,
      64,
      28,
      27,
      28,
      36,
      29,
      40,
      30,
      34,
      29,
      78,
      31,
      30,
      30,
      23,
      30,
      116,
      36,
      67,
      25,
      36,
      33,
      39,
      81,
      35,
      90,
      116
    ]
  },
  "notes": [
    {
      "pitch": 36,
      "start_time": 0.0,
      "duration": 0.366,
      "velocity": 87
    },
    {
      "pitch": 44,
      "start_time": 0.0,
      "duration": 0.2924,
      "velocity": 84
    },
    {
      "pitch": 48,
      "start_time": 0.0,
      "duration": 0.2109,
      "velocity": 34
    },
    {
      "pitch": 42,
      "start_time": 0.5,
      "duration": 0.224,
      "velocity": 36
    },
    {
      "pitch": 48,
      "start_time": 0.5,
      "duration": 0.2842,
      "velocity": 29
    },
    {
      "pitch": 36,
      "start_time": 1.0,
      "duration": 0.368,
      "velocity": 42
    },
    {
      "pitch": 42,
      "start_time": 1.0,
      "duration": 0.239,
      "velocity": 39
    },
    {
      "pitch": 48,
      "start_time": 1.0,
      "duration": 0.2605,
      "velocity": 22
    },
    {
      "pitch": 42,
      "start_time": 1.5,
      "duration": 0.1873,
      "velocity": 30
    },
    {
      "pitch": 48,
      "start_time": 1.5,
      "duration": 0.2909,
      "velocity": 25
    },
    {
      "pitch": 40,
      "start_time": 2.0,
      "duration": 0.9516,
      "velocity": 112
    },
    {
      "pitch": 42,
      "start_time": 2.0,
      "duration": 0.2002,
      "velocity": 64
    },
    {
      "pitch": 48,
      "start_time": 2.0,
      "duration": 0.3251,
      "velocity": 28
    },
    {
      "pitch": 42,
      "start_time": 2.5,
      "duration": 0.2281,
      "velocity": 27
    },
    {
      "pitch": 48,
      "start_time": 2.5,
      "duration": 0.2713,
      "velocity": 28
    },
    {
      "pitch": 42,
      "start_time": 3.0,
      "duration": 0.5447,
      "velocity": 36
    },
    {
      "pitch": 48,
      "start_time": 3.0,
      "duration": 0.2652,
      "velocity": 29
    },
    {
      "pitch": 40,
      "start_time": 3.5,
      "duration": 0.3983,
      "velocity": 40
    },
    {
      "pitch": 48,
      "start_time": 3.5,
      "duration": 0.2776,
      "velocity": 30
    },
    {
      "pitch": 42,
      "start_time": 4.0,
      "duration": 0.6911,
      "velocity": 34
    },
    {
      "pitch": 48,
      "start_time": 4.0,
      "duration": 0.2602,
      "velocity": 29
    },
    {
      "pitch": 36,
      "start_time": 4.5,
      "duration": 0.9083,
      "velocity": 78
    },
    {
      "pitch": 48,
      "start_time": 4.5,
      "duration": 0.2669,
      "velocity": 31
    },
    {
      "pitch": 44,
      "start_time": 5.0,
      "duration": 0.6656,
      "velocity": 30
    },
    {
      "pitch": 48,
      "start_time": 5.0,
      "duration": 0.2519,
      "velocity": 30
    },
    {
      "pitch": 42,
      "start_time": 5.5,
      "duration": 0.5386,
      "velocity": 23
    },
    {
      "pitch": 48,
      "start_time": 5.5,
      "duration": 0.2111,
      "velocity": 30
    },
    {
      "pitch": 40,
      "start_time": 6.0,
      "duration": 0.4976,
      "velocity": 116
    },
    {
      "pitch": 48,
      "start_time": 6.0,
      "duration": 0.2432,
      "velocity": 36
    },
    {
      "pitch": 42,
      "start_time": 6.5,
      "duration": 0.2371,
      "velocity": 67
    },
    {
      "pitch": 48,
      "start_time": 6.5,
      "duration": 0.1035,
      "velocity": 25
    },
    {
      "pitch": 36,
      "start_time": 6.75,
      "duration": 0.2024,
      "velocity": 36
    },
    {
      "pitch": 48,
      "start_time": 6.75,
      "duration": 0.1531,
      "velocity": 33
    },
    {
      "pitch": 42,
      "start_time": 7.0,
      "duration": 0.1811,
      "velocity": 39
    },
    {
      "pitch": 48,
      "start_time": 7.0,
      "duration": 0.1618,
      "velocity": 81
    },
    {
      "pitch": 40,
      "start_time": 7.25,
      "duration": 0.0903,
      "velocity": 35
    },
    {
      "pitch": 40,
      "start_time": 7.5,
      "duration": 0.1724,
      "velocity": 90
    },
    {
      "pitch": 40,
      "start_time": 7.75,
      "duration": 0.2562,
      "velocity": 116
    }
  ]
}