{
  "source": {
    "song": "packs",
    "track_index": 0,
    "track_name": "Drum Essentials / MIDI Clips / 91 - 110 bpm / Resurrection Kit groove 04_110 bpm",
    "slot_index": 0,
    "clip_name": "Drum Essentials / MIDI Clips / 91 - 110 bpm / Resurrection Kit groove 04_110 bpm",
    "mid_file": "/Users/darnold/Music/Ableton/Packs/Drum Essentials/MIDI Clips/91 - 110 bpm/Resurrection Kit groove 04_110 bpm.alc"
  },
  "meta": {
    "bpm": 110.0,
    "key": "?",
    "scale": "?",
    "length_beats": 8.0,
    "note_count": 49
  },
  "rhythm": {
    "density": 1.125,
    "hit_positions": [
      0.0,
      0.0,
      0.0,
      0.25,
      0.5,
      0.5,
      1.0,
      1.0,
      1.0,
      1.0,
      1.0,
      1.5,
      1.5,
      1.5,
      2.0,
      2.0,
      2.0,
      2.0,
      2.5,
      3.0,
      3.0,
      3.0,
      3.0,
      3.5,
      4.0,
      4.0,
      4.0,
      4.25,
      4.5,
      4.5,
      4.5,
      5.0,
      5.0,
      5.0,
      5.0,
      5.5,
      5.5,
      5.5,
      5.5,
      6.0,
      6.0,
      6.5,
      6.5,
      7.0,
      7.0,
      7.0,
      7.0,
      7.5,
      7.5
    ],
    "ioi": [
      0.0,
      0.0,
      0.25,
      0.25,
      0.0,
      0.5,
      0.0,
      0.0,
      0.0,
      0.0,
      0.5,
      0.0,
      0.0,
      0.5,
      0.0,
      0.0,
      0.0,
      0.5,
      0.5,
      0.0,
      0.0,
      0.0,
      0.5,
      0.5,
      0.0,
      0.0,
      0.25,
      0.25,
      0.0,
      0.0,
      0.5,
      0.0,
      0.0,
      0.0,
      0.5,
      0.0,
      0.0,
      0.0,
      0.5,
      0.0,
      0.5,
      0.0,
      0.5,
      0.0,
      0.0,
      0.0,
      0.5,
      0.0,
      0.5
    ],
    "grid": "8th",
    "euclidean_approx": [
      32,
      32
    ],
    "swing_ratio": 1.0
  },
  "pitch": {
    "notes_used": [
      36,
      38,
      41,
      42,
      43,
      44,
      45,
      51
    ],
    "intervals": [
      5,
      1,
      1,
      1,
      2,
      6,
      3,
      1,
      2,
      1,
      3,
      1,
      1,
      8,
      5,
      1,
      2,
      2,
      4,
      4,
      3,
      6,
      9,
      6,
      5,
      1,
      1,
      1,
      2,
      1,
      7,
      4,
      2,
      1,
      4,
      1,
      2,
      1,
      9,
      6,
      1,
      1,
      4,
      4,
      3,
      6,
      15,
      6
    ],
    "register": "low",
    "is_melodic": true,
    "pitch_range": 15,
    "pitch_distribution": {
      "36": 5,
      "41": 8,
      "42": 16,
      "44": 7,
      "38": 4,
      "45": 6,
      "43": 1,
      "51": 2
    }
  },
  "velocity": {
    "mean": 72.3,
    "variance": 1121.8,
    "std": 33.5,
    "accents": [
      0,
      6,
      14,
      19,
      21,
      24,
      31,
      39,
      43,
      45
    ],
    "profile": [
      126,
      95,
      62,
      97,
      66,
      42,
      119,
      38,
      50,
      37,
      55,
      74,
      17,
      36,
      119,
      92,
      80,
      39,
      50,
      127,
      31,
      127,
      86,
      25,
      111,
      96,
      54,
      91,
      60,
      94,
      20,
      127,
      36,
      45,
      103,
      77,
      72,
      46,
      12,
      112,
      33,
      93,
      82,
      127,
      68,
      117,
      65,
      64,
      49
    ]
  },
  "notes": [
    {
      "pitch": 36,
      "start_time": 0.0,
      "duration": 0.0938,
      "velocity": 126
    },
    {
      "pitch": 41,
      "start_time": 0.0,
      "duration": 0.0833,
      "velocity": 95
    },
    {
      "pitch": 42,
      "start_time": 0.0,
      "duration": 0.1042,
      "velocity": 62
    },
    {
      "pitch": 41,
      "start_time": 0.25,
      "duration": 0.1042,
      "velocity": 97
    },
    {
      "pitch": 42,
      "start_time": 0.5,
      "duration": 0.1042,
      "velocity": 66
    },
    {
      "pitch": 44,
      "start_time": 0.5,
      "duration": 0.5,
      "velocity": 42
    },
    {
      "pitch": 38,
      "start_time": 1.0,
      "duration": 0.1146,
      "velocity": 119
    },
    {
      "pitch": 41,
      "start_time": 1.0,
      "duration": 0.0729,
      "velocity": 38
    },
    {
      "pitch": 42,
      "start_time": 1.0,
      "duration": 0.0729,
      "velocity": 50
    },
    {
      "pitch": 44,
      "start_time": 1.0,
      "duration": 0.5,
      "velocity": 37
    },
    {
      "pitch": 45,
      "start_time": 1.0,
      "duration": 0.0729,
      "velocity": 55
    },
    {
      "pitch": 42,
      "start_time": 1.5,
      "duration": 0.1042,
      "velocity": 74
    },
    {
      "pitch": 43,
      "start_time": 1.5,
      "duration": 0.0417,
      "velocity": 17
    },
    {
      "pitch": 44,
      "start_time": 1.5,
      "duration": 0.5,
      "velocity": 36
    },
    {
      "pitch": 36,
      "start_time": 2.0,
      "duration": 0.1042,
      "velocity": 119
    },
    {
      "pitch": 41,
      "start_time": 2.0,
      "duration": 0.0938,
      "velocity": 92
    },
    {
      "pitch": 42,
      "start_time": 2.0,
      "duration": 0.1042,
      "velocity": 80
    },
    {
      "pitch": 44,
      "start_time": 2.0,
      "duration": 0.0208,
      "velocity": 39
    },
    {
      "pitch": 42,
      "start_time": 2.5,
      "duration": 0.0938,
      "velocity": 50
    },
    {
      "pitch": 38,
      "start_time": 3.0,
      "duration": 0.1146,
      "velocity": 127
    },
    {
      "pitch": 42,
      "start_time": 3.0,
      "duration": 0.0417,
      "velocity": 31
    },
    {
      "pitch": 45,
      "start_time": 3.0,
      "duration": 0.0833,
      "velocity": 127
    },
    {
      "pitch": 51,
      "start_time": 3.0,
      "duration": 0.0938,
      "velocity": 86
    },
    {
      "pitch": 42,
      "start_time": 3.5,
      "duration": 0.0729,
      "velocity": 25
    },
    {
      "pitch": 36,
      "start_time": 4.0,
      "duration": 0.1042,
      "velocity": 111
    },
    {
      "pitch": 41,
      "start_time": 4.0,
      "duration": 0.0729,
      "velocity": 96
    },
    {
      "pitch": 42,
      "start_time": 4.0,
      "duration": 0.0729,
      "velocity": 54
    },
    {
      "pitch": 41,
      "start_time": 4.25,
      "duration": 0.1146,
      "velocity": 91
    },
    {
      "pitch": 42,
      "start_time": 4.5,
      "duration": 0.1042,
      "velocity": 60
    },
    {
      "pitch": 44,
      "start_time": 4.5,
      "duration": 0.5,
      "velocity": 94
    },
    {
      "pitch": 45,
      "start_time": 4.5,
      "duration": 0.0417,
      "velocity": 20
    },
    {
      "pitch": 38,
      "start_time": 5.0,
      "duration": 0.1146,
      "velocity": 127
    },
    {
      "pitch": 42,
      "start_time": 5.0,
      "duration": 0.0417,
      "velocity": 36
    },
    {
      "pitch": 44,
      "start_time": 5.0,
      "duration": 0.5,
      "velocity": 45
    },
    {
      "pitch": 45,
      "start_time": 5.0,
      "duration": 0.0833,
      "velocity": 103
    },
    {
      "pitch": 41,
      "start_time": 5.5,
      "duration": 0.0729,
      "velocity": 77
    },
    {
      "pitch": 42,
      "start_time": 5.5,
      "duration": 0.0938,
      "velocity": 72
    },
    {
      "pitch": 44,
      "start_time": 5.5,
      "duration": 0.4167,
      "velocity": 46
    },
    {
      "pitch": 45,
      "start_time": 5.5,
      "duration": 0.0417,
      "velocity": 12
    },
    {
      "pitch": 36,
      "start_time": 6.0,
      "duration": 0.1042,
      "velocity": 112
    },
    {
      "pitch": 42,
      "start_time": 6.0,
      "duration": 0.0833,
      "velocity": 33
    },
    {
      "pitch": 41,
      "start_time": 6.5,
      "duration": 0.0729,
      "velocity": 93
    },
    {
      "pitch": 42,
      "start_time": 6.5,
      "duration": 0.1042,
      "velocity": 82
    },
    {
      "pitch": 38,
      "start_time": 7.0,
      "duration": 0.1042,
      "velocity": 127
    },
    {
      "pitch": 42,
      "start_time": 7.0,
      "duration": 0.0938,
      "velocity": 68
    },
    {
      "pitch": 45,
      "start_time": 7.0,
      "duration": 0.0833,
      "velocity": 117
    },
    {
      "pitch": 51,
      "start_time": 7.0,
      "duration": 0.0417,
      "velocity": 65
    },
    {
      "pitch": 36,
      "start_time": 7.5,
      "duration": 0.0625,
      "velocity": 64
    },
    {
      "pitch": 42,
      "start_time": 7.5,
      "duration": 0.0938,
      "velocity": 49
    }
  ]
}