{
  "source": {
    "song": "packs",
    "track_index": 0,
    "track_name": "Drum Essentials / MIDI Clips / 91 - 110 bpm / Moscow UHF Kit groove 01_110 bpm",
    "slot_index": 0,
    "clip_name": "Drum Essentials / MIDI Clips / 91 - 110 bpm / Moscow UHF Kit groove 01_110 bpm",
    "mid_file": "/Users/darnold/Music/Ableton/Packs/Drum Essentials/MIDI Clips/91 - 110 bpm/Moscow UHF Kit groove 01_110 bpm.alc"
  },
  "meta": {
    "bpm": 110.0,
    "key": "?",
    "scale": "?",
    "length_beats": 8.0,
    "note_count": 66
  },
  "rhythm": {
    "density": 1.875,
    "hit_positions": [
      0.0,
      0.0,
      0.25,
      0.5,
      0.75,
      1.0,
      1.0,
      1.0,
      1.5,
      1.5,
      1.5,
      1.5,
      1.75,
      2.0,
      2.0,
      2.0,
      2.25,
      2.5,
      2.5,
      2.75,
      2.75,
      2.75,
      3.0,
      3.0,
      3.0,
      3.25,
      3.25,
      3.5,
      3.5,
      3.5,
      3.5,
      3.75,
      4.0,
      4.0,
      4.25,
      4.5,
      4.75,
      5.0,
      5.0,
      5.0,
      5.5,
      5.5,
      5.5,
      5.5,
      5.75,
      6.0,
      6.0,
      6.0,
      6.25,
      6.5,
      6.5,
      6.75,
      6.75,
      6.75,
      7.0,
      7.0,
      7.0,
      7.25,
      7.25,
      7.25,
      7.5,
      7.5,
      7.5,
      7.5,
      7.75,
      7.75
    ],
    "ioi": [
      0.0,
      0.25,
      0.25,
      0.25,
      0.25,
      0.0,
      0.0,
      0.5,
      0.0,
      0.0,
      0.0,
      0.25,
      0.25,
      0.0,
      0.0,
      0.25,
      0.25,
      0.0,
      0.25,
      0.0,
      0.0,
      0.25,
      0.0,
      0.0,
      0.25,
      0.0,
      0.25,
      0.0,
      0.0,
      0.0,
      0.25,
      0.25,
      0.0,
      0.25,
      0.25,
      0.25,
      0.25,
      0.0,
      0.0,
      0.5,
      0.0,
      0.0,
      0.0,
      0.25,
      0.25,
      0.0,
      0.0,
      0.25,
      0.25,
      0.0,
      0.25,
      0.0,
      0.0,
      0.25,
      0.0,
      0.0,
      0.25,
      0.0,
      0.0,
      0.25,
      0.0,
      0.0,
      0.0,
      0.25,
      0.0,
      0.25
    ],
    "grid": "8th",
    "euclidean_approx": [
      32,
      32
    ],
    "swing_ratio": 1.0
  },
  "pitch": {
    "notes_used": [
      36,
      37,
      38,
      39,
      42,
      43,
      45,
      46,
      48,
      51
    ],
    "intervals": [
      9,
      3,
      2,
      8,
      2,
      3,
      12,
      14,
      1,
      4,
      9,
      0,
      15,
      7,
      8,
      0,
      5,
      5,
      13,
      5,
      8,
      15,
      3,
      12,
      9,
      9,
      14,
      1,
      4,
      9,
      9,
      6,
      9,
      3,
      2,
      8,
      2,
      3,
      12,
      14,
      1,
      4,
      9,
      0,
      15,
      7,
      8,
      0,
      5,
      5,
      13,
      5,
      8,
      15,
      3,
      12,
      12,
      3,
      9,
      14,
      1,
      1,
      3,
      3,
      3
    ],
    "register": "low",
    "is_melodic": true,
    "pitch_range": 15,
    "pitch_distribution": {
      "36": 8,
      "45": 2,
      "48": 2,
      "46": 4,
      "38": 8,
      "39": 7,
      "51": 19,
      "37": 4,
      "42": 8,
      "43": 4
    }
  },
  "velocity": {
    "mean": 60.5,
    "variance": 725.8,
    "std": 26.9,
    "accents": [
      1,
      2,
      7,
      17,
      23,
      33,
      34,
      35,
      39,
      49,
      54,
      64
    ],
    "profile": [
      64,
      104,
      117,
      83,
      39,
      74,
      78,
      97,
      66,
      40,
      60,
      58,
      19,
      74,
      26,
      27,
      35,
      94,
      87,
      78,
      2,
      74,
      59,
      88,
      28,
      16,
      44,
      58,
      61,
      35,
      70,
      34,
      79,
      94,
      127,
      93,
      58,
      77,
      83,
      88,
      58,
      54,
      69,
      46,
      42,
      79,
      25,
      37,
      34,
      96,
      35,
      68,
      32,
      53,
      89,
      50,
      47,
      30,
      43,
      42,
      81,
      77,
      2,
      60,
      102,
      52
    ]
  },
  "notes": [
    {
      "pitch": 36,
      "start_time": 0.0,
      "duration": 0.1082,
      "velocity": 64
    },
    {
      "pitch": 45,
      "start_time": 0.0,
      "duration": 0.057,
      "velocity": 104
    },
    {
      "pitch": 48,
      "start_time": 0.25,
      "duration": 0.1101,
      "velocity": 117
    },
    {
      "pitch": 46,
      "start_time": 0.5,
      "duration": 0.0573,
      "velocity": 83
    },
    {
      "pitch": 38,
      "start_time": 0.75,
      "duration": 0.1125,
      "velocity": 39
    },
    {
      "pitch": 36,
      "start_time": 1.0,
      "duration": 0.1238,
      "velocity": 74
    },
    {
      "pitch": 39,
      "start_time": 1.0,
      "duration": 0.0852,
      "velocity": 78
    },
    {
      "pitch": 51,
      "start_time": 1.0,
      "duration": 0.0548,
      "velocity": 97
    },
    {
      "pitch": 37,
      "start_time": 1.5,
      "duration": 0.1078,
      "velocity": 66
    },
    {
      "pitch": 38,
      "start_time": 1.5,
      "duration": 0.0956,
      "velocity": 40
    },
    {
      "pitch": 42,
      "start_time": 1.5,
      "duration": 0.0747,
      "velocity": 60
    },
    {
      "pitch": 51,
      "start_time": 1.5,
      "duration": 0.25,
      "velocity": 58
    },
    {
      "pitch": 51,
      "start_time": 1.75,
      "duration": 0.25,
      "velocity": 19
    },
    {
      "pitch": 36,
      "start_time": 2.0,
      "duration": 0.1217,
      "velocity": 74
    },
    {
      "pitch": 43,
      "start_time": 2.0,
      "duration": 0.0574,
      "velocity": 26
    },
    {
      "pitch": 51,
      "start_time": 2.0,
      "duration": 0.25,
      "velocity": 27
    },
    {
      "pitch": 51,
      "start_time": 2.25,
      "duration": 0.25,
      "velocity": 35
    },
    {
      "pitch": 46,
      "start_time": 2.5,
      "duration": 0.0506,
      "velocity": 94
    },
    {
      "pitch": 51,
      "start_time": 2.5,
      "duration": 0.25,
      "velocity": 87
    },
    {
      "pitch": 38,
      "start_time": 2.75,
      "duration": 0.1062,
      "velocity": 78
    },
    {
      "pitch": 43,
      "start_time": 2.75,
      "duration": 0.0137,
      "velocity": 2
    },
    {
      "pitch": 51,
      "start_time": 2.75,
      "duration": 0.25,
      "velocity": 74
    },
    {
      "pitch": 36,
      "start_time": 3.0,
      "duration": 0.1312,
      "velocity": 59
    },
    {
      "pitch": 39,
      "start_time": 3.0,
      "duration": 0.1137,
      "velocity": 88
    },
    {
      "pitch": 51,
      "start_time": 3.0,
      "duration": 0.25,
      "velocity": 28
    },
    {
      "pitch": 42,
      "start_time": 3.25,
      "duration": 0.25,
      "velocity": 16
    },
    {
      "pitch": 51,
      "start_time": 3.25,
      "duration": 0.25,
      "velocity": 44
    },
    {
      "pitch": 37,
      "start_time": 3.5,
      "duration": 0.0933,
      "velocity": 58
    },
    {
      "pitch": 38,
      "start_time": 3.5,
      "duration": 0.1029,
      "velocity": 61
    },
    {
      "pitch": 42,
      "start_time": 3.5,
      "duration": 0.25,
      "velocity": 35
    },
    {
      "pitch": 51,
      "start_time": 3.5,
      "duration": 0.0902,
      "velocity": 70
    },
    {
      "pitch": 42,
      "start_time": 3.75,
      "duration": 0.1291,
      "velocity": 34
    },
    {
      "pitch": 36,
      "start_time": 4.0,
      "duration": 0.1223,
      "velocity": 79
    },
    {
      "pitch": 45,
      "start_time": 4.0,
      "duration": 0.0535,
      "velocity": 94
    },
    {
      "pitch": 48,
      "start_time": 4.25,
      "duration": 0.1012,
      "velocity": 127
    },
    {
      "pitch": 46,
      "start_time": 4.5,
      "duration": 0.0682,
      "velocity": 93
    },
    {
      "pitch": 38,
      "start_time": 4.75,
      "duration": 0.1117,
      "velocity": 58
    },
    {
      "pitch": 36,
      "start_time": 5.0,
      "duration": 0.1264,
      "velocity": 77
    },
    {
      "pitch": 39,
      "start_time": 5.0,
      "duration": 0.0707,
      "velocity": 83
    },
    {
      "pitch": 51,
      "start_time": 5.0,
      "duration": 0.0544,
      "velocity": 88
    },
    {
      "pitch": 37,
      "start_time": 5.5,
      "duration": 0.0944,
      "velocity": 58
    },
    {
      "pitch": 38,
      "start_time": 5.5,
      "duration": 0.1131,
      "velocity": 54
    },
    {
      "pitch": 42,
      "start_time": 5.5,
      "duration": 0.0826,
      "velocity": 69
    },
    {
      "pitch": 51,
      "start_time": 5.5,
      "duration": 0.25,
      "velocity": 46
    },
    {
      "pitch": 51,
      "start_time": 5.75,
      "duration": 0.25,
      "velocity": 42
    },
    {
      "pitch": 36,
      "start_time": 6.0,
      "duration": 0.1184,
      "velocity": 79
    },
    {
      "pitch": 43,
      "start_time": 6.0,
      "duration": 0.0418,
      "velocity": 25
    },
    {
      "pitch": 51,
      "start_time": 6.0,
      "duration": 0.25,
      "velocity": 37
    },
    {
      "pitch": 51,
      "start_time": 6.25,
      "duration": 0.25,
      "velocity": 34
    },
    {
      "pitch": 46,
      "start_time": 6.5,
      "duration": 0.0549,
      "velocity": 96
    },
    {
      "pitch": 51,
      "start_time": 6.5,
      "duration": 0.25,
      "velocity": 35
    },
    {
      "pitch": 38,
      "start_time": 6.75,
      "duration": 0.1272,
      "velocity": 68
    },
    {
      "pitch": 43,
      "start_time": 6.75,
      "duration": 0.0559,
      "velocity": 32
    },
    {
      "pitch": 51,
      "start_time": 6.75,
      "duration": 0.25,
      "velocity": 53
    },
    {
      "pitch": 36,
      "start_time": 7.0,
      "duration": 0.1189,
      "velocity": 89
    },
    {
      "pitch": 39,
      "start_time": 7.0,
      "duration": 0.0485,
      "velocity": 50
    },
    {
      "pitch": 51,
      "start_time": 7.0,
      "duration": 0.25,
      "velocity": 47
    },
    {
      "pitch": 39,
      "start_time": 7.25,
      "duration": 0.0955,
      "velocity": 30
    },
    {
      "pitch": 42,
      "start_time": 7.25,
      "duration": 0.25,
      "velocity": 43
    },
    {
      "pitch": 51,
      "start_time": 7.25,
      "duration": 0.0559,
      "velocity": 42
    },
    {
      "pitch": 37,
      "start_time": 7.5,
      "duration": 0.1011,
      "velocity": 81
    },
    {
      "pitch": 38,
      "start_time": 7.5,
      "duration": 0.1065,
      "velocity": 77
    },
    {
      "pitch": 39,
      "start_time": 7.5,
      "duration": 0.0084,
      "velocity": 2
    },
    {
      "pitch": 42,
      "start_time": 7.5,
      "duration": 0.25,
      "velocity": 60
    },
    {
      "pitch": 39,
      "start_time": 7.75,
      "duration": 0.1043,
      "velocity": 102
    },
    {
      "pitch": 42,
      "start_time": 7.75,
      "duration": 0.028,
      "velocity": 52
    }
  ]
}