{
  "source": {
    "song": "packs",
    "track_index": 0,
    "track_name": "Drum Essentials / MIDI Clips / 91 - 110 bpm / Abuse Kit groove 03_110 bpm",
    "slot_index": 0,
    "clip_name": "Drum Essentials / MIDI Clips / 91 - 110 bpm / Abuse Kit groove 03_110 bpm",
    "mid_file": "/Users/darnold/Music/Ableton/Packs/Drum Essentials/MIDI Clips/91 - 110 bpm/Abuse Kit groove 03_110 bpm.alc"
  },
  "meta": {
    "bpm": 110.0,
    "key": "?",
    "scale": "?",
    "length_beats": 16.0,
    "note_count": 134
  },
  "rhythm": {
    "density": 1.938,
    "hit_positions": [
      0.0,
      0.0,
      0.0,
      0.0,
      0.25,
      0.5,
      0.5,
      0.5,
      0.75,
      1.0,
      1.0,
      1.0,
      1.0,
      1.25,
      1.5,
      1.5,
      1.75,
      2.0,
      2.0,
      2.25,
      2.5,
      2.5,
      2.5,
      2.75,
      3.0,
      3.0,
      3.0,
      3.0,
      3.0,
      3.25,
      3.5,
      3.5,
      3.5,
      3.5,
      3.75,
      4.0,
      4.0,
      4.0,
      4.25,
      4.5,
      4.5,
      4.5,
      5.0,
      5.0,
      5.0,
      5.0,
      5.25,
      5.5,
      5.5,
      5.75,
      6.0,
      6.0,
      6.25,
      6.5,
      6.5,
      6.5,
      6.75,
      7.0,
      7.0,
      7.25,
      7.25,
      7.25,
      7.5,
      7.5,
      7.5,
      7.5,
      7.75,
      8.0,
      8.0,
      8.0,
      8.0,
      8.25,
      8.5,
      8.5,
      8.5,
      8.75,
      9.0,
      9.0,
      9.0,
      9.0,
      9.25,
      9.5,
      9.5,
      9.75,
      10.0,
      10.0,
      10.25,
      10.5,
      10.5,
      10.5,
      10.75,
      11.0,
      11.0,
      11.0,
      11.0,
      11.0,
      11.25,
      11.5,
      11.5,
      11.5,
      11.5,
      11.75,
      12.0,
      12.0,
      12.0,
      12.25,
      12.5,
      12.5,
      12.5,
      13.0,
      13.0,
      13.0,
      13.0,
      13.25,
      13.5,
      13.5,
      13.75,
      14.0,
      14.0,
      14.25,
      14.5,
      14.5,
      14.5,
      14.75,
      15.0,
      15.0,
      15.25,
      15.25,
      15.25,
      15.5,
      15.5,
      15.5,
      15.5,
      15.75
    ],
    "ioi": [
      0.0,
      0.0,
      0.0,
      0.25,
      0.25,
      0.0,
      0.0,
      0.25,
      0.25,
      0.0,
      0.0,
      0.0,
      0.25,
      0.25,
      0.0,
      0.25,
      0.25,
      0.0,
      0.25,
      0.25,
      0.0,
      0.0,
      0.25,
      0.25,
      0.0,
      0.0,
      0.0,
      0.0,
      0.25,
      0.25,
      0.0,
      0.0,
      0.0,
      0.25,
      0.25,
      0.0,
      0.0,
      0.25,
      0.25,
      0.0,
      0.0,
      0.5,
      0.0,
      0.0,
      0.0,
      0.25,
      0.25,
      0.0,
      0.25,
      0.25,
      0.0,
      0.25,
      0.25,
      0.0,
      0.0,
      0.25,
      0.25,
      0.0,
      0.25,
      0.0,
      0.0,
      0.25,
      0.0,
      0.0,
      0.0,
      0.25,
      0.25,
      0.0,
      0.0,
      0.0,
      0.25,
      0.25,
      0.0,
      0.0,
      0.25,
      0.25,
      0.0,
      0.0,
      0.0,
      0.25,
      0.25,
      0.0,
      0.25,
      0.25,
      0.0,
      0.25,
      0.25,
      0.0,
      0.0,
      0.25,
      0.25,
      0.0,
      0.0,
      0.0,
      0.0,
      0.25,
      0.25,
      0.0,
      0.0,
      0.0,
      0.25,
      0.25,
      0.0,
      0.0,
      0.25,
      0.25,
      0.0,
      0.0,
      0.5,
      0.0,
      0.0,
      0.0,
      0.25,
      0.25,
      0.0,
      0.25,
      0.25,
      0.0,
      0.25,
      0.25,
      0.0,
      0.0,
      0.25,
      0.25,
      0.0,
      0.25,
      0.0,
      0.0,
      0.25,
      0.0,
      0.0,
      0.0,
      0.25,
      0.25
    ],
    "grid": "8th",
    "euclidean_approx": [
      64,
      64
    ],
    "swing_ratio": 1.0
  },
  "pitch": {
    "notes_used": [
      36,
      37,
      38,
      39,
      40,
      42,
      44,
      46,
      47,
      49,
      50
    ],
    "intervals": [
      6,
      5,
      3,
      6,
      5,
      1,
      9,
      7,
      5,
      3,
      6,
      4,
      8,
      2,
      5,
      9,
      2,
      8,
      10,
      2,
      5,
      2,
      5,
      7,
      3,
      2,
      4,
      4,
      8,
      2,
      2,
      5,
      2,
      7,
      6,
      8,
      3,
      7,
      1,
      3,
      7,
      12,
      5,
      4,
      4,
      6,
      4,
      9,
      7,
      2,
      10,
      8,
      2,
      3,
      2,
      9,
      2,
      8,
      8,
      2,
      2,
      8,
      2,
      2,
      7,
      7,
      6,
      6,
      5,
      3,
      6,
      5,
      1,
      9,
      7,
      5,
      3,
      6,
      4,
      8,
      2,
      5,
      9,
      2,
      8,
      10,
      2,
      5,
      2,
      5,
      7,
      3,
      2,
      4,
      4,
      8,
      2,
      2,
      5,
      2,
      7,
      6,
      8,
      3,
      7,
      1,
      3,
      7,
      12,
      5,
      4,
      4,
      6,
      4,
      9,
      7,
      2,
      10,
      8,
      2,
      3,
      2,
      9,
      2,
      8,
      8,
      2,
      2,
      8,
      2,
      2,
      7,
      7
    ],
    "register": "low",
    "is_melodic": true,
    "pitch_range": 14,
    "pitch_distribution": {
      "36": 4,
      "42": 34,
      "47": 10,
      "50": 14,
      "44": 14,
      "39": 4,
      "40": 22,
      "49": 16,
      "37": 6,
      "46": 8,
      "38": 2
    }
  },
  "velocity": {
    "mean": 39.3,
    "variance": 605.6,
    "std": 24.6,
    "accents": [
      0,
      1,
      2,
      21,
      24,
      27,
      35,
      37,
      42,
      44,
      54,
      61,
      67,
      68,
      69,
      88,
      91,
      94,
      102,
      104,
      109,
      111,
      121,
      128
    ],
    "profile": [
      92,
      77,
      75,
      17,
      38,
      53,
      20,
      41,
      39,
      63,
      23,
      47,
      21,
      50,
      23,
      45,
      22,
      41,
      15,
      2,
      52,
      72,
      42,
      13,
      75,
      4,
      16,
      90,
      28,
      17,
      3,
      34,
      38,
      43,
      46,
      86,
      3,
      71,
      4,
      54,
      52,
      41,
      70,
      55,
      70,
      18,
      3,
      15,
      30,
      39,
      3,
      12,
      59,
      5,
      78,
      47,
      23,
      51,
      19,
      27,
      30,
      98,
      46,
      31,
      36,
      37,
      42,
      92,
      77,
      75,
      17,
      38,
      53,
      20,
      41,
      39,
      63,
      23,
      47,
      21,
      50,
      23,
      45,
      22,
      41,
      15,
      2,
      52,
      72,
      42,
      13,
      75,
      4,
      16,
      90,
      28,
      17,
      3,
      34,
      38,
      43,
      46,
      86,
      3,
      71,
      4,
      54,
      52,
      41,
      70,
      55,
      70,
      18,
      3,
      15,
      30,
      39,
      3,
      12,
      59,
      5,
      78,
      47,
      23,
      51,
      19,
      27,
      30,
      98,
      46,
      31,
      36,
      37,
      42
    ]
  },
  "notes": [
    {
      "pitch": 36,
      "start_time": 0.0,
      "duration": 0.0581,
      "velocity": 92
    },
    {
      "pitch": 42,
      "start_time": 0.0,
      "duration": 0.0592,
      "velocity": 77
    },
    {
      "pitch": 47,
      "start_time": 0.0,
      "duration": 0.056,
      "velocity": 75
    },
    {
      "pitch": 50,
      "start_time": 0.0,
      "duration": 0.0536,
      "velocity": 17
    },
    {
      "pitch": 44,
      "start_time": 0.25,
      "duration": 0.143,
      "velocity": 38
    },
    {
      "pitch": 39,
      "start_time": 0.5,
      "duration": 0.0807,
      "velocity": 53
    },
    {
      "pitch": 40,
      "start_time": 0.5,
      "duration": 0.0687,
      "velocity": 20
    },
    {
      "pitch": 49,
      "start_time": 0.5,
      "duration": 0.0633,
      "velocity": 41
    },
    {
      "pitch": 42,
      "start_time": 0.75,
      "duration": 0.0496,
      "velocity": 39
    },
    {
      "pitch": 37,
      "start_time": 1.0,
      "duration": 0.1132,
      "velocity": 63
    },
    {
      "pitch": 40,
      "start_time": 1.0,
      "duration": 0.0628,
      "velocity": 23
    },
    {
      "pitch": 46,
      "start_time": 1.0,
      "duration": 0.1035,
      "velocity": 47
    },
    {
      "pitch": 50,
      "start_time": 1.0,
      "duration": 0.0494,
      "velocity": 21
    },
    {
      "pitch": 42,
      "start_time": 1.25,
      "duration": 0.0545,
      "velocity": 50
    },
    {
      "pitch": 44,
      "start_time": 1.5,
      "duration": 0.0648,
      "velocity": 23
    },
    {
      "pitch": 49,
      "start_time": 1.5,
      "duration": 0.0647,
      "velocity": 45
    },
    {
      "pitch": 40,
      "start_time": 1.75,
      "duration": 0.0442,
      "velocity": 22
    },
    {
      "pitch": 42,
      "start_time": 2.0,
      "duration": 0.0613,
      "velocity": 41
    },
    {
      "pitch": 50,
      "start_time": 2.0,
      "duration": 0.0495,
      "velocity": 15
    },
    {
      "pitch": 40,
      "start_time": 2.25,
      "duration": 0.0078,
      "velocity": 2
    },
    {
      "pitch": 42,
      "start_time": 2.5,
      "duration": 0.0735,
      "velocity": 52
    },
    {
      "pitch": 47,
      "start_time": 2.5,
      "duration": 0.06,
      "velocity": 72
    },
    {
      "pitch": 49,
      "start_time": 2.5,
      "duration": 0.0621,
      "velocity": 42
    },
    {
      "pitch": 44,
      "start_time": 2.75,
      "duration": 0.05,
      "velocity": 13
    },
    {
      "pitch": 37,
      "start_time": 3.0,
      "duration": 0.1062,
      "velocity": 75
    },
    {
      "pitch": 40,
      "start_time": 3.0,
      "duration": 0.0504,
      "velocity": 4
    },
    {
      "pitch": 42,
      "start_time": 3.0,
      "duration": 0.25,
      "velocity": 16
    },
    {
      "pitch": 46,
      "start_time": 3.0,
      "duration": 0.077,
      "velocity": 90
    },
    {
      "pitch": 50,
      "start_time": 3.0,
      "duration": 0.0478,
      "velocity": 28
    },
    {
      "pitch": 42,
      "start_time": 3.25,
      "duration": 0.25,
      "velocity": 17
    },
    {
      "pitch": 40,
      "start_time": 3.5,
      "duration": 0.008,
      "velocity": 3
    },
    {
      "pitch": 42,
      "start_time": 3.5,
      "duration": 0.25,
      "velocity": 34
    },
    {
      "pitch": 47,
      "start_time": 3.5,
      "duration": 0.0532,
      "velocity": 38
    },
    {
      "pitch": 49,
      "start_time": 3.5,
      "duration": 0.0614,
      "velocity": 43
    },
    {
      "pitch": 42,
      "start_time": 3.75,
      "duration": 0.1059,
      "velocity": 46
    },
    {
      "pitch": 36,
      "start_time": 4.0,
      "duration": 0.071,
      "velocity": 86
    },
    {
      "pitch": 44,
      "start_time": 4.0,
      "duration": 0.0084,
      "velocity": 3
    },
    {
      "pitch": 47,
      "start_time": 4.0,
      "duration": 0.0613,
      "velocity": 71
    },
    {
      "pitch": 40,
      "start_time": 4.25,
      "duration": 0.0138,
      "velocity": 4
    },
    {
      "pitch": 39,
      "start_time": 4.5,
      "duration": 0.0649,
      "velocity": 54
    },
    {
      "pitch": 42,
      "start_time": 4.5,
      "duration": 0.0552,
      "velocity": 52
    },
    {
      "pitch": 49,
      "start_time": 4.5,
      "duration": 0.0655,
      "velocity": 41
    },
    {
      "pitch": 37,
      "start_time": 5.0,
      "duration": 0.1184,
      "velocity": 70
    },
    {
      "pitch": 42,
      "start_time": 5.0,
      "duration": 0.0634,
      "velocity": 55
    },
    {
      "pitch": 46,
      "start_time": 5.0,
      "duration": 0.0699,
      "velocity": 70
    },
    {
      "pitch": 50,
      "start_time": 5.0,
      "duration": 0.0428,
      "velocity": 18
    },
    {
      "pitch": 44,
      "start_time": 5.25,
      "duration": 0.0082,
      "velocity": 3
    },
    {
      "pitch": 40,
      "start_time": 5.5,
      "duration": 0.0428,
      "velocity": 15
    },
    {
      "pitch": 49,
      "start_time": 5.5,
      "duration": 0.0598,
      "velocity": 30
    },
    {
      "pitch": 42,
      "start_time": 5.75,
      "duration": 0.0718,
      "velocity": 39
    },
    {
      "pitch": 40,
      "start_time": 6.0,
      "duration": 0.0577,
      "velocity": 3
    },
    {
      "pitch": 50,
      "start_time": 6.0,
      "duration": 0.0461,
      "velocity": 12
    },
    {
      "pitch": 42,
      "start_time": 6.25,
      "duration": 0.0683,
      "velocity": 59
    },
    {
      "pitch": 44,
      "start_time": 6.5,
      "duration": 0.0476,
      "velocity": 5
    },
    {
      "pitch": 47,
      "start_time": 6.5,
      "duration": 0.0646,
      "velocity": 78
    },
    {
      "pitch": 49,
      "start_time": 6.5,
      "duration": 0.0635,
      "velocity": 47
    },
    {
      "pitch": 40,
      "start_time": 6.75,
      "duration": 0.0443,
      "velocity": 23
    },
    {
      "pitch": 42,
      "start_time": 7.0,
      "duration": 0.0631,
      "velocity": 51
    },
    {
      "pitch": 50,
      "start_time": 7.0,
      "duration": 0.0614,
      "velocity": 19
    },
    {
      "pitch": 42,
      "start_time": 7.25,
      "duration": 0.25,
      "velocity": 27
    },
    {
      "pitch": 44,
      "start_time": 7.25,
      "duration": 0.1365,
      "velocity": 30
    },
    {
      "pitch": 46,
      "start_time": 7.25,
      "duration": 0.0427,
      "velocity": 98
    },
    {
      "pitch": 38,
      "start_time": 7.5,
      "duration": 0.0945,
      "velocity": 46
    },
    {
      "pitch": 40,
      "start_time": 7.5,
      "duration": 0.0501,
      "velocity": 31
    },
    {
      "pitch": 42,
      "start_time": 7.5,
      "duration": 0.25,
      "velocity": 36
    },
    {
      "pitch": 49,
      "start_time": 7.5,
      "duration": 0.0737,
      "velocity": 37
    },
    {
      "pitch": 42,
      "start_time": 7.75,
      "duration": 0.0907,
      "velocity": 42
    },
    {
      "pitch": 36,
      "start_time": 8.0,
      "duration": 0.0581,
      "velocity": 92
    },
    {
      "pitch": 42,
      "start_time": 8.0,
      "duration": 0.0592,
      "velocity": 77
    },
    {
      "pitch": 47,
      "start_time": 8.0,
      "duration": 0.056,
      "velocity": 75
    },
    {
      "pitch": 50,
      "start_time": 8.0,
      "duration": 0.0536,
      "velocity": 17
    },
    {
      "pitch": 44,
      "start_time": 8.25,
      "duration": 0.143,
      "velocity": 38
    },
    {
      "pitch": 39,
      "start_time": 8.5,
      "duration": 0.0807,
      "velocity": 53
    },
    {
      "pitch": 40,
      "start_time": 8.5,
      "duration": 0.0687,
      "velocity": 20
    },
    {
      "pitch": 49,
      "start_time": 8.5,
      "duration": 0.0633,
      "velocity": 41
    },
    {
      "pitch": 42,
      "start_time": 8.75,
      "duration": 0.0496,
      "velocity": 39
    },
    {
      "pitch": 37,
      "start_time": 9.0,
      "duration": 0.1132,
      "velocity": 63
    },
    {
      "pitch": 40,
      "start_time": 9.0,
      "duration": 0.0628,
      "velocity": 23
    },
    {
      "pitch": 46,
      "start_time": 9.0,
      "duration": 0.1035,
      "velocity": 47
    },
    {
      "pitch": 50,
      "start_time": 9.0,
      "duration": 0.0494,
      "velocity": 21
    },
    {
      "pitch": 42,
      "start_time": 9.25,
      "duration": 0.0545,
      "velocity": 50
    },
    {
      "pitch": 44,
      "start_time": 9.5,
      "duration": 0.0648,
      "velocity": 23
    },
    {
      "pitch": 49,
      "start_time": 9.5,
      "duration": 0.0647,
      "velocity": 45
    },
    {
      "pitch": 40,
      "start_time": 9.75,
      "duration": 0.0442,
      "velocity": 22
    },
    {
      "pitch": 42,
      "start_time": 10.0,
      "duration": 0.0613,
      "velocity": 41
    },
    {
      "pitch": 50,
      "start_time": 10.0,
      "duration": 0.0495,
      "velocity": 15
    },
    {
      "pitch": 40,
      "start_time": 10.25,
      "duration": 0.0078,
      "velocity": 2
    },
    {
      "pitch": 42,
      "start_time": 10.5,
      "duration": 0.0735,
      "velocity": 52
    },
    {
      "pitch": 47,
      "start_time": 10.5,
      "duration": 0.06,
      "velocity": 72
    },
    {
      "pitch": 49,
      "start_time": 10.5,
      "duration": 0.0621,
      "velocity": 42
    },
    {
      "pitch": 44,
      "start_time": 10.75,
      "duration": 0.05,
      "velocity": 13
    },
    {
      "pitch": 37,
      "start_time": 11.0,
      "duration": 0.1062,
      "velocity": 75
    },
    {
      "pitch": 40,
      "start_time": 11.0,
      "duration": 0.0504,
      "velocity": 4
    },
    {
      "pitch": 42,
      "start_time": 11.0,
      "duration": 0.25,
      "velocity": 16
    },
    {
      "pitch": 46,
      "start_time": 11.0,
      "duration": 0.077,
      "velocity": 90
    },
    {
      "pitch": 50,
      "start_time": 11.0,
      "duration": 0.0478,
      "velocity": 28
    },
    {
      "pitch": 42,
      "start_time": 11.25,
      "duration": 0.25,
      "velocity": 17
    },
    {
      "pitch": 40,
      "start_time": 11.5,
      "duration": 0.008,
      "velocity": 3
    },
    {
      "pitch": 42,
      "start_time": 11.5,
      "duration": 0.25,
      "velocity": 34
    },
    {
      "pitch": 47,
      "start_time": 11.5,
      "duration": 0.0532,
      "velocity": 38
    },
    {
      "pitch": 49,
      "start_time": 11.5,
      "duration": 0.0614,
      "velocity": 43
    },
    {
      "pitch": 42,
      "start_time": 11.75,
      "duration": 0.1059,
      "velocity": 46
    },
    {
      "pitch": 36,
      "start_time": 12.0,
      "duration": 0.071,
      "velocity": 86
    },
    {
      "pitch": 44,
      "start_time": 12.0,
      "duration": 0.0084,
      "velocity": 3
    },
    {
      "pitch": 47,
      "start_time": 12.0,
      "duration": 0.0613,
      "velocity": 71
    },
    {
      "pitch": 40,
      "start_time": 12.25,
      "duration": 0.0138,
      "velocity": 4
    },
    {
      "pitch": 39,
      "start_time": 12.5,
      "duration": 0.0649,
      "velocity": 54
    },
    {
      "pitch": 42,
      "start_time": 12.5,
      "duration": 0.0552,
      "velocity": 52
    },
    {
      "pitch": 49,
      "start_time": 12.5,
      "duration": 0.0655,
      "velocity": 41
    },
    {
      "pitch": 37,
      "start_time": 13.0,
      "duration": 0.1184,
      "velocity": 70
    },
    {
      "pitch": 42,
      "start_time": 13.0,
      "duration": 0.0634,
      "velocity": 55
    },
    {
      "pitch": 46,
      "start_time": 13.0,
      "duration": 0.0699,
      "velocity": 70
    },
    {
      "pitch": 50,
      "start_time": 13.0,
      "duration": 0.0428,
      "velocity": 18
    },
    {
      "pitch": 44,
      "start_time": 13.25,
      "duration": 0.0082,
      "velocity": 3
    },
    {
      "pitch": 40,
      "start_time": 13.5,
      "duration": 0.0428,
      "velocity": 15
    },
    {
      "pitch": 49,
      "start_time": 13.5,
      "duration": 0.0598,
      "velocity": 30
    },
    {
      "pitch": 42,
      "start_time": 13.75,
      "duration": 0.0718,
      "velocity": 39
    },
    {
      "pitch": 40,
      "start_time": 14.0,
      "duration": 0.0577,
      "velocity": 3
    },
    {
      "pitch": 50,
      "start_time": 14.0,
      "duration": 0.0461,
      "velocity": 12
    },
    {
      "pitch": 42,
      "start_time": 14.25,
      "duration": 0.0683,
      "velocity": 59
    },
    {
      "pitch": 44,
      "start_time": 14.5,
      "duration": 0.0476,
      "velocity": 5
    },
    {
      "pitch": 47,
      "start_time": 14.5,
      "duration": 0.0646,
      "velocity": 78
    },
    {
      "pitch": 49,
      "start_time": 14.5,
      "duration": 0.0635,
      "velocity": 47
    },
    {
      "pitch": 40,
      "start_time": 14.75,
      "duration": 0.0443,
      "velocity": 23
    },
    {
      "pitch": 42,
      "start_time": 15.0,
      "duration": 0.0631,
      "velocity": 51
    },
    {
      "pitch": 50,
      "start_time": 15.0,
      "duration": 0.0614,
      "velocity": 19
    },
    {
      "pitch": 42,
      "start_time": 15.25,
      "duration": 0.25,
      "velocity": 27
    },
    {
      "pitch": 44,
      "start_time": 15.25,
      "duration": 0.1365,
      "velocity": 30
    },
    {
      "pitch": 46,
      "start_time": 15.25,
      "duration": 0.0427,
      "velocity": 98
    },
    {
      "pitch": 38,
      "start_time": 15.5,
      "duration": 0.0945,
      "velocity": 46
    },
    {
      "pitch": 40,
      "start_time": 15.5,
      "duration": 0.0501,
      "velocity": 31
    },
    {
      "pitch": 42,
      "start_time": 15.5,
      "duration": 0.25,
      "velocity": 36
    },
    {
      "pitch": 49,
      "start_time": 15.5,
      "duration": 0.0737,
      "velocity": 37
    },
    {
      "pitch": 42,
      "start_time": 15.75,
      "duration": 0.0907,
      "velocity": 42
    }
  ]
}