{
  "source": {
    "song": "packs",
    "track_index": 0,
    "track_name": "Drum Essentials / MIDI Clips / 91 - 110 bpm / Kindle Kit groove 01_105 bpm",
    "slot_index": 0,
    "clip_name": "Drum Essentials / MIDI Clips / 91 - 110 bpm / Kindle Kit groove 01_105 bpm",
    "mid_file": "/Users/darnold/Music/Ableton/Packs/Drum Essentials/MIDI Clips/91 - 110 bpm/Kindle Kit groove 01_105 bpm.alc"
  },
  "meta": {
    "bpm": 105.0,
    "key": "?",
    "scale": "?",
    "length_beats": 8.0,
    "note_count": 47
  },
  "rhythm": {
    "density": 1.5,
    "hit_positions": [
      0.0,
      0.0,
      0.25,
      0.5,
      0.5,
      0.75,
      1.0,
      1.0,
      1.0,
      1.25,
      1.5,
      1.5,
      2.0,
      2.0,
      2.5,
      2.5,
      2.75,
      3.0,
      3.0,
      3.0,
      3.0,
      3.0,
      3.5,
      3.75,
      4.0,
      4.0,
      4.25,
      4.5,
      4.5,
      4.5,
      5.0,
      5.0,
      5.0,
      5.5,
      5.5,
      6.0,
      6.0,
      6.5,
      6.75,
      6.75,
      7.0,
      7.0,
      7.0,
      7.0,
      7.5,
      7.5,
      7.75
    ],
    "ioi": [
      0.0,
      0.25,
      0.25,
      0.0,
      0.25,
      0.25,
      0.0,
      0.0,
      0.25,
      0.25,
      0.0,
      0.5,
      0.0,
      0.5,
      0.0,
      0.25,
      0.25,
      0.0,
      0.0,
      0.0,
      0.0,
      0.5,
      0.25,
      0.25,
      0.0,
      0.25,
      0.25,
      0.0,
      0.0,
      0.5,
      0.0,
      0.0,
      0.5,
      0.0,
      0.5,
      0.0,
      0.5,
      0.25,
      0.0,
      0.25,
      0.0,
      0.0,
      0.0,
      0.5,
      0.0,
      0.25,
      0.25
    ],
    "grid": "8th",
    "euclidean_approx": [
      32,
      32
    ],
    "swing_ratio": 1.0
  },
  "pitch": {
    "notes_used": [
      36,
      38,
      39,
      40,
      41,
      42,
      43,
      44,
      46,
      47
    ],
    "intervals": [
      6,
      2,
      3,
      1,
      6,
      2,
      1,
      3,
      2,
      8,
      6,
      6,
      10,
      4,
      5,
      3,
      6,
      1,
      1,
      2,
      1,
      1,
      6,
      6,
      1,
      1,
      8,
      5,
      1,
      4,
      1,
      3,
      6,
      6,
      6,
      6,
      0,
      2,
      3,
      9,
      1,
      1,
      2,
      0,
      1,
      7
    ],
    "register": "low",
    "is_melodic": true,
    "pitch_range": 11,
    "pitch_distribution": {
      "36": 9,
      "42": 15,
      "44": 5,
      "41": 2,
      "38": 4,
      "39": 4,
      "46": 1,
      "47": 2,
      "40": 2,
      "43": 3
    }
  },
  "velocity": {
    "mean": 62.1,
    "variance": 827.8,
    "std": 28.8,
    "accents": [
      6,
      7,
      17,
      18,
      19,
      28,
      30,
      35,
      40,
      41
    ],
    "profile": [
      85,
      80,
      15,
      80,
      28,
      47,
      99,
      93,
      54,
      58,
      51,
      51,
      56,
      83,
      29,
      22,
      24,
      92,
      96,
      111,
      75,
      85,
      20,
      35,
      27,
      3,
      62,
      58,
      91,
      31,
      113,
      86,
      73,
      52,
      41,
      99,
      70,
      32,
      35,
      48,
      113,
      103,
      86,
      76,
      54,
      40,
      59
    ]
  },
  "notes": [
    {
      "pitch": 36,
      "start_time": 0.0,
      "duration": 0.0833,
      "velocity": 85
    },
    {
      "pitch": 42,
      "start_time": 0.0,
      "duration": 0.0729,
      "velocity": 80
    },
    {
      "pitch": 44,
      "start_time": 0.25,
      "duration": 0.0833,
      "velocity": 15
    },
    {
      "pitch": 41,
      "start_time": 0.5,
      "duration": 0.0417,
      "velocity": 80
    },
    {
      "pitch": 42,
      "start_time": 0.5,
      "duration": 0.0833,
      "velocity": 28
    },
    {
      "pitch": 36,
      "start_time": 0.75,
      "duration": 0.0938,
      "velocity": 47
    },
    {
      "pitch": 38,
      "start_time": 1.0,
      "duration": 0.0729,
      "velocity": 99
    },
    {
      "pitch": 39,
      "start_time": 1.0,
      "duration": 0.0625,
      "velocity": 93
    },
    {
      "pitch": 42,
      "start_time": 1.0,
      "duration": 0.0625,
      "velocity": 54
    },
    {
      "pitch": 44,
      "start_time": 1.25,
      "duration": 0.0729,
      "velocity": 58
    },
    {
      "pitch": 36,
      "start_time": 1.5,
      "duration": 0.0833,
      "velocity": 51
    },
    {
      "pitch": 42,
      "start_time": 1.5,
      "duration": 0.0938,
      "velocity": 51
    },
    {
      "pitch": 36,
      "start_time": 2.0,
      "duration": 0.0729,
      "velocity": 56
    },
    {
      "pitch": 46,
      "start_time": 2.0,
      "duration": 0.0833,
      "velocity": 83
    },
    {
      "pitch": 42,
      "start_time": 2.5,
      "duration": 0.0833,
      "velocity": 29
    },
    {
      "pitch": 47,
      "start_time": 2.5,
      "duration": 0.0417,
      "velocity": 22
    },
    {
      "pitch": 44,
      "start_time": 2.75,
      "duration": 0.0938,
      "velocity": 24
    },
    {
      "pitch": 38,
      "start_time": 3.0,
      "duration": 0.0729,
      "velocity": 92
    },
    {
      "pitch": 39,
      "start_time": 3.0,
      "duration": 0.0625,
      "velocity": 96
    },
    {
      "pitch": 40,
      "start_time": 3.0,
      "duration": 0.0417,
      "velocity": 111
    },
    {
      "pitch": 42,
      "start_time": 3.0,
      "duration": 0.0833,
      "velocity": 75
    },
    {
      "pitch": 43,
      "start_time": 3.0,
      "duration": 0.0729,
      "velocity": 85
    },
    {
      "pitch": 42,
      "start_time": 3.5,
      "duration": 0.0729,
      "velocity": 20
    },
    {
      "pitch": 36,
      "start_time": 3.75,
      "duration": 0.0729,
      "velocity": 35
    },
    {
      "pitch": 42,
      "start_time": 4.0,
      "duration": 0.0833,
      "velocity": 27
    },
    {
      "pitch": 43,
      "start_time": 4.0,
      "duration": 0.001,
      "velocity": 3
    },
    {
      "pitch": 44,
      "start_time": 4.25,
      "duration": 0.0833,
      "velocity": 62
    },
    {
      "pitch": 36,
      "start_time": 4.5,
      "duration": 0.0729,
      "velocity": 58
    },
    {
      "pitch": 41,
      "start_time": 4.5,
      "duration": 0.0312,
      "velocity": 91
    },
    {
      "pitch": 42,
      "start_time": 4.5,
      "duration": 0.0729,
      "velocity": 31
    },
    {
      "pitch": 38,
      "start_time": 5.0,
      "duration": 0.0729,
      "velocity": 113
    },
    {
      "pitch": 39,
      "start_time": 5.0,
      "duration": 0.0833,
      "velocity": 86
    },
    {
      "pitch": 42,
      "start_time": 5.0,
      "duration": 0.0625,
      "velocity": 73
    },
    {
      "pitch": 36,
      "start_time": 5.5,
      "duration": 0.0625,
      "velocity": 52
    },
    {
      "pitch": 42,
      "start_time": 5.5,
      "duration": 0.0625,
      "velocity": 41
    },
    {
      "pitch": 36,
      "start_time": 6.0,
      "duration": 0.0833,
      "velocity": 99
    },
    {
      "pitch": 42,
      "start_time": 6.0,
      "duration": 0.0729,
      "velocity": 70
    },
    {
      "pitch": 42,
      "start_time": 6.5,
      "duration": 0.0938,
      "velocity": 32
    },
    {
      "pitch": 44,
      "start_time": 6.75,
      "duration": 0.0833,
      "velocity": 35
    },
    {
      "pitch": 47,
      "start_time": 6.75,
      "duration": 0.0729,
      "velocity": 48
    },
    {
      "pitch": 38,
      "start_time": 7.0,
      "duration": 0.0729,
      "velocity": 113
    },
    {
      "pitch": 39,
      "start_time": 7.0,
      "duration": 0.0625,
      "velocity": 103
    },
    {
      "pitch": 40,
      "start_time": 7.0,
      "duration": 0.0417,
      "velocity": 86
    },
    {
      "pitch": 42,
      "start_time": 7.0,
      "duration": 0.0729,
      "velocity": 76
    },
    {
      "pitch": 42,
      "start_time": 7.5,
      "duration": 0.1042,
      "velocity": 54
    },
    {
      "pitch": 43,
      "start_time": 7.5,
      "duration": 0.0729,
      "velocity": 40
    },
    {
      "pitch": 36,
      "start_time": 7.75,
      "duration": 0.0938,
      "velocity": 59
    }
  ]
}