{
  "source": {
    "song": "packs",
    "track_index": 0,
    "track_name": "Drum Essentials / MIDI Clips / 131 - 160 bpm / Borella Kit groove 03_132 bpm",
    "slot_index": 0,
    "clip_name": "Drum Essentials / MIDI Clips / 131 - 160 bpm / Borella Kit groove 03_132 bpm",
    "mid_file": "/Users/darnold/Music/Ableton/Packs/Drum Essentials/MIDI Clips/131 - 160 bpm/Borella Kit groove 03_132 bpm.alc"
  },
  "meta": {
    "bpm": 132.0,
    "key": "?",
    "scale": "?",
    "length_beats": 8.0,
    "note_count": 38
  },
  "rhythm": {
    "density": 1.438,
    "hit_positions": [
      0.0,
      0.0,
      0.25,
      0.5,
      0.75,
      1.0,
      1.0,
      1.5,
      1.5,
      2.0,
      2.0,
      2.5,
      2.5,
      3.0,
      3.0,
      3.25,
      3.5,
      4.0,
      4.0,
      4.5,
      4.75,
      5.0,
      5.0,
      5.5,
      5.5,
      6.0,
      6.0,
      6.5,
      6.5,
      6.75,
      7.0,
      7.0,
      7.25,
      7.25,
      7.5,
      7.5,
      7.5,
      7.75
    ],
    "ioi": [
      0.0,
      0.25,
      0.25,
      0.25,
      0.25,
      0.0,
      0.5,
      0.0,
      0.5,
      0.0,
      0.5,
      0.0,
      0.5,
      0.0,
      0.25,
      0.25,
      0.5,
      0.0,
      0.5,
      0.25,
      0.25,
      0.0,
      0.5,
      0.0,
      0.5,
      0.0,
      0.5,
      0.0,
      0.25,
      0.25,
      0.0,
      0.25,
      0.0,
      0.25,
      0.0,
      0.0,
      0.25,
      0.25
    ],
    "grid": "8th",
    "euclidean_approx": [
      32,
      32
    ],
    "swing_ratio": 1.0
  },
  "pitch": {
    "notes_used": [
      36,
      37,
      38,
      39,
      41,
      42,
      43,
      44,
      45,
      48
    ],
    "intervals": [
      6,
      6,
      4,
      3,
      4,
      5,
      3,
      5,
      2,
      6,
      7,
      3,
      2,
      1,
      2,
      1,
      8,
      6,
      2,
      4,
      7,
      1,
      3,
      5,
      2,
      3,
      8,
      7,
      4,
      6,
      6,
      7,
      7,
      10,
      6,
      4,
      0
    ],
    "register": "low",
    "is_melodic": true,
    "pitch_range": 12,
    "pitch_distribution": {
      "36": 2,
      "42": 8,
      "48": 8,
      "44": 8,
      "41": 4,
      "37": 2,
      "39": 2,
      "43": 1,
      "45": 2,
      "38": 1
    }
  },
  "velocity": {
    "mean": 69.4,
    "variance": 620.2,
    "std": 24.9,
    "accents": [
      0,
      5,
      7,
      17,
      23,
      27,
      34
    ],
    "profile": [
      108,
      87,
      83,
      46,
      94,
      111,
      80,
      108,
      33,
      67,
      64,
      64,
      35,
      80,
      64,
      58,
      48,
      100,
      84,
      37,
      38,
      83,
      72,
      108,
      27,
      57,
      59,
      111,
      32,
      31,
      80,
      87,
      76,
      45,
      100,
      58,
      59,
      64
    ]
  },
  "notes": [
    {
      "pitch": 36,
      "start_time": 0.0,
      "duration": 0.2345,
      "velocity": 108
    },
    {
      "pitch": 42,
      "start_time": 0.0,
      "duration": 0.1842,
      "velocity": 87
    },
    {
      "pitch": 48,
      "start_time": 0.25,
      "duration": 0.3371,
      "velocity": 83
    },
    {
      "pitch": 44,
      "start_time": 0.5,
      "duration": 0.1553,
      "velocity": 46
    },
    {
      "pitch": 41,
      "start_time": 0.75,
      "duration": 0.2102,
      "velocity": 94
    },
    {
      "pitch": 37,
      "start_time": 1.0,
      "duration": 0.2277,
      "velocity": 111
    },
    {
      "pitch": 42,
      "start_time": 1.0,
      "duration": 0.1949,
      "velocity": 80
    },
    {
      "pitch": 39,
      "start_time": 1.5,
      "duration": 0.2102,
      "velocity": 108
    },
    {
      "pitch": 44,
      "start_time": 1.5,
      "duration": 0.151,
      "velocity": 33
    },
    {
      "pitch": 42,
      "start_time": 2.0,
      "duration": 0.2078,
      "velocity": 67
    },
    {
      "pitch": 48,
      "start_time": 2.0,
      "duration": 0.3656,
      "velocity": 64
    },
    {
      "pitch": 41,
      "start_time": 2.5,
      "duration": 0.1839,
      "velocity": 64
    },
    {
      "pitch": 44,
      "start_time": 2.5,
      "duration": 0.1665,
      "velocity": 35
    },
    {
      "pitch": 42,
      "start_time": 3.0,
      "duration": 0.1974,
      "velocity": 80
    },
    {
      "pitch": 43,
      "start_time": 3.0,
      "duration": 0.2562,
      "velocity": 64
    },
    {
      "pitch": 45,
      "start_time": 3.25,
      "duration": 0.2343,
      "velocity": 58
    },
    {
      "pitch": 44,
      "start_time": 3.5,
      "duration": 0.2143,
      "velocity": 48
    },
    {
      "pitch": 36,
      "start_time": 4.0,
      "duration": 0.3328,
      "velocity": 100
    },
    {
      "pitch": 42,
      "start_time": 4.0,
      "duration": 0.1906,
      "velocity": 84
    },
    {
      "pitch": 44,
      "start_time": 4.5,
      "duration": 0.2257,
      "velocity": 37
    },
    {
      "pitch": 48,
      "start_time": 4.75,
      "duration": 0.3021,
      "velocity": 38
    },
    {
      "pitch": 41,
      "start_time": 5.0,
      "duration": 0.2149,
      "velocity": 83
    },
    {
      "pitch": 42,
      "start_time": 5.0,
      "duration": 0.2189,
      "velocity": 72
    },
    {
      "pitch": 39,
      "start_time": 5.5,
      "duration": 0.2012,
      "velocity": 108
    },
    {
      "pitch": 44,
      "start_time": 5.5,
      "duration": 0.267,
      "velocity": 27
    },
    {
      "pitch": 42,
      "start_time": 6.0,
      "duration": 0.2259,
      "velocity": 57
    },
    {
      "pitch": 45,
      "start_time": 6.0,
      "duration": 0.2754,
      "velocity": 59
    },
    {
      "pitch": 37,
      "start_time": 6.5,
      "duration": 0.1839,
      "velocity": 111
    },
    {
      "pitch": 44,
      "start_time": 6.5,
      "duration": 0.2716,
      "velocity": 32
    },
    {
      "pitch": 48,
      "start_time": 6.75,
      "duration": 0.1293,
      "velocity": 31
    },
    {
      "pitch": 42,
      "start_time": 7.0,
      "duration": 0.2366,
      "velocity": 80
    },
    {
      "pitch": 48,
      "start_time": 7.0,
      "duration": 0.25,
      "velocity": 87
    },
    {
      "pitch": 41,
      "start_time": 7.25,
      "duration": 0.1708,
      "velocity": 76
    },
    {
      "pitch": 48,
      "start_time": 7.25,
      "duration": 0.14,
      "velocity": 45
    },
    {
      "pitch": 38,
      "start_time": 7.5,
      "duration": 0.2058,
      "velocity": 100
    },
    {
      "pitch": 44,
      "start_time": 7.5,
      "duration": 0.204,
      "velocity": 58
    },
    {
      "pitch": 48,
      "start_time": 7.5,
      "duration": 0.1052,
      "velocity": 59
    },
    {
      "pitch": 48,
      "start_time": 7.75,
      "duration": 0.1295,
      "velocity": 64
    }
  ]
}