{
  "source": {
    "song": "packs",
    "track_index": 0,
    "track_name": "Drum Essentials / MIDI Clips / 111 - 130 bpm / C78 Bullet Kit groove 03_120 bpm",
    "slot_index": 0,
    "clip_name": "Drum Essentials / MIDI Clips / 111 - 130 bpm / C78 Bullet Kit groove 03_120 bpm",
    "mid_file": "/Users/darnold/Music/Ableton/Packs/Drum Essentials/MIDI Clips/111 - 130 bpm/C78 Bullet Kit groove 03_120 bpm.alc"
  },
  "meta": {
    "bpm": 120.0,
    "key": "?",
    "scale": "?",
    "length_beats": 8.0,
    "note_count": 28
  },
  "rhythm": {
    "density": 2.0,
    "hit_positions": [
      0.0,
      0.0,
      0.5,
      1.0,
      1.0,
      1.5,
      1.5,
      2.0,
      2.0,
      2.5,
      3.0,
      3.0,
      3.5,
      3.5,
      4.0,
      4.0,
      4.5,
      5.0,
      5.0,
      5.5,
      5.5,
      6.0,
      6.0,
      6.5,
      7.0,
      7.0,
      7.5,
      7.5
    ],
    "ioi": [
      0.0,
      0.5,
      0.5,
      0.0,
      0.5,
      0.0,
      0.5,
      0.0,
      0.5,
      0.5,
      0.0,
      0.5,
      0.0,
      0.5,
      0.0,
      0.5,
      0.5,
      0.0,
      0.5,
      0.0,
      0.5,
      0.0,
      0.5,
      0.5,
      0.0,
      0.5,
      0.0,
      0.5
    ],
    "grid": "quarter",
    "euclidean_approx": [
      28,
      32
    ],
    "swing_ratio": 1.0
  },
  "pitch": {
    "notes_used": [
      36,
      38,
      42
    ],
    "intervals": [
      6,
      0,
      4,
      4,
      6,
      6,
      6,
      6,
      0,
      4,
      4,
      6,
      6,
      6,
      6,
      0,
      4,
      4,
      6,
      6,
      6,
      6,
      0,
      4,
      4,
      6,
      6
    ],
    "register": "low",
    "is_melodic": true,
    "pitch_range": 6,
    "pitch_distribution": {
      "36": 8,
      "42": 16,
      "38": 4
    }
  },
  "velocity": {
    "mean": 32.5,
    "variance": 148.3,
    "std": 12.2,
    "accents": [
      10,
      17,
      18,
      24,
      25
    ],
    "profile": [
      28,
      29,
      28,
      40,
      44,
      18,
      16,
      29,
      28,
      16,
      51,
      42,
      19,
      24,
      27,
      29,
      18,
      51,
      57,
      27,
      28,
      35,
      33,
      24,
      52,
      59,
      27,
      32
    ]
  },
  "notes": [
    {
      "pitch": 36,
      "start_time": 0.0,
      "duration": 0.1024,
      "velocity": 28
    },
    {
      "pitch": 42,
      "start_time": 0.0,
      "duration": 0.0914,
      "velocity": 29
    },
    {
      "pitch": 42,
      "start_time": 0.5,
      "duration": 0.0972,
      "velocity": 28
    },
    {
      "pitch": 38,
      "start_time": 1.0,
      "duration": 0.0797,
      "velocity": 40
    },
    {
      "pitch": 42,
      "start_time": 1.0,
      "duration": 0.0691,
      "velocity": 44
    },
    {
      "pitch": 36,
      "start_time": 1.5,
      "duration": 0.0708,
      "velocity": 18
    },
    {
      "pitch": 42,
      "start_time": 1.5,
      "duration": 0.0839,
      "velocity": 16
    },
    {
      "pitch": 36,
      "start_time": 2.0,
      "duration": 0.0821,
      "velocity": 29
    },
    {
      "pitch": 42,
      "start_time": 2.0,
      "duration": 0.0787,
      "velocity": 28
    },
    {
      "pitch": 42,
      "start_time": 2.5,
      "duration": 0.0818,
      "velocity": 16
    },
    {
      "pitch": 38,
      "start_time": 3.0,
      "duration": 0.086,
      "velocity": 51
    },
    {
      "pitch": 42,
      "start_time": 3.0,
      "duration": 0.0449,
      "velocity": 42
    },
    {
      "pitch": 36,
      "start_time": 3.5,
      "duration": 0.0808,
      "velocity": 19
    },
    {
      "pitch": 42,
      "start_time": 3.5,
      "duration": 0.0848,
      "velocity": 24
    },
    {
      "pitch": 36,
      "start_time": 4.0,
      "duration": 0.0799,
      "velocity": 27
    },
    {
      "pitch": 42,
      "start_time": 4.0,
      "duration": 0.0907,
      "velocity": 29
    },
    {
      "pitch": 42,
      "start_time": 4.5,
      "duration": 0.0834,
      "velocity": 18
    },
    {
      "pitch": 38,
      "start_time": 5.0,
      "duration": 0.0801,
      "velocity": 51
    },
    {
      "pitch": 42,
      "start_time": 5.0,
      "duration": 0.0735,
      "velocity": 57
    },
    {
      "pitch": 36,
      "start_time": 5.5,
      "duration": 0.0641,
      "velocity": 27
    },
    {
      "pitch": 42,
      "start_time": 5.5,
      "duration": 0.0872,
      "velocity": 28
    },
    {
      "pitch": 36,
      "start_time": 6.0,
      "duration": 0.0784,
      "velocity": 35
    },
    {
      "pitch": 42,
      "start_time": 6.0,
      "duration": 0.0787,
      "velocity": 33
    },
    {
      "pitch": 42,
      "start_time": 6.5,
      "duration": 0.0736,
      "velocity": 24
    },
    {
      "pitch": 38,
      "start_time": 7.0,
      "duration": 0.0709,
      "velocity": 52
    },
    {
      "pitch": 42,
      "start_time": 7.0,
      "duration": 0.0483,
      "velocity": 59
    },
    {
      "pitch": 36,
      "start_time": 7.5,
      "duration": 0.0639,
      "velocity": 27
    },
    {
      "pitch": 42,
      "start_time": 7.5,
      "duration": 0.089,
      "velocity": 32
    }
  ]
}