{
  "source": {
    "song": "packs",
    "track_index": 0,
    "track_name": "Drum Essentials / MIDI Clips / 60 - 90 bpm / Onyx Kit groove 01_86 bpm",
    "slot_index": 0,
    "clip_name": "Drum Essentials / MIDI Clips / 60 - 90 bpm / Onyx Kit groove 01_86 bpm",
    "mid_file": "/Users/darnold/Music/Ableton/Packs/Drum Essentials/MIDI Clips/60 - 90 bpm/Onyx Kit groove 01_86 bpm.alc"
  },
  "meta": {
    "bpm": 86.0,
    "key": "?",
    "scale": "?",
    "length_beats": 4.0,
    "note_count": 34
  },
  "rhythm": {
    "density": 2.0,
    "hit_positions": [
      0.0,
      0.0,
      0.25,
      0.5,
      0.5,
      0.75,
      1.0,
      1.0,
      1.0,
      1.25,
      1.5,
      1.5,
      1.5,
      1.75,
      1.75,
      1.75,
      2.0,
      2.25,
      2.5,
      2.5,
      2.75,
      2.75,
      2.75,
      2.75,
      3.0,
      3.25,
      3.25,
      3.5,
      3.5,
      3.75,
      3.75,
      3.75,
      3.75,
      3.75
    ],
    "ioi": [
      0.0,
      0.25,
      0.25,
      0.0,
      0.25,
      0.25,
      0.0,
      0.0,
      0.25,
      0.25,
      0.0,
      0.0,
      0.25,
      0.0,
      0.0,
      0.25,
      0.25,
      0.25,
      0.0,
      0.25,
      0.0,
      0.0,
      0.0,
      0.25,
      0.25,
      0.0,
      0.25,
      0.0,
      0.25,
      0.0,
      0.0,
      0.0,
      0.0,
      0.25
    ],
    "grid": "8th",
    "euclidean_approx": [
      16,
      16
    ],
    "swing_ratio": 1.0
  },
  "pitch": {
    "notes_used": [
      36,
      37,
      40,
      41,
      42,
      44,
      46,
      47,
      48,
      50,
      51
    ],
    "intervals": [
      6,
      2,
      2,
      6,
      12,
      1,
      4,
      1,
      2,
      8,
      4,
      2,
      6,
      4,
      2,
      2,
      8,
      5,
      1,
      5,
      3,
      1,
      1,
      6,
      6,
      9,
      7,
      3,
      11,
      4,
      1,
      5,
      4
    ],
    "register": "low",
    "is_melodic": true,
    "pitch_range": 15,
    "pitch_distribution": {
      "36": 7,
      "42": 8,
      "44": 4,
      "48": 1,
      "37": 2,
      "41": 4,
      "40": 4,
      "51": 1,
      "47": 1,
      "46": 1,
      "50": 1
    }
  },
  "velocity": {
    "mean": 46.6,
    "variance": 193.5,
    "std": 13.9,
    "accents": [
      2,
      6,
      7,
      14,
      18,
      20,
      22,
      30
    ],
    "profile": [
      50,
      46,
      63,
      56,
      53,
      42,
      68,
      69,
      44,
      49,
      17,
      38,
      29,
      30,
      65,
      43,
      49,
      36,
      62,
      41,
      70,
      54,
      62,
      48,
      35,
      36,
      35,
      47,
      17,
      40,
      66,
      28,
      44,
      52
    ]
  },
  "notes": [
    {
      "pitch": 36,
      "start_time": 0.0,
      "duration": 0.0697,
      "velocity": 50
    },
    {
      "pitch": 42,
      "start_time": 0.0,
      "duration": 0.0645,
      "velocity": 46
    },
    {
      "pitch": 44,
      "start_time": 0.25,
      "duration": 0.0743,
      "velocity": 63
    },
    {
      "pitch": 42,
      "start_time": 0.5,
      "duration": 0.0895,
      "velocity": 56
    },
    {
      "pitch": 48,
      "start_time": 0.5,
      "duration": 0.0537,
      "velocity": 53
    },
    {
      "pitch": 36,
      "start_time": 0.75,
      "duration": 0.0693,
      "velocity": 42
    },
    {
      "pitch": 37,
      "start_time": 1.0,
      "duration": 0.0522,
      "velocity": 68
    },
    {
      "pitch": 41,
      "start_time": 1.0,
      "duration": 0.0493,
      "velocity": 69
    },
    {
      "pitch": 42,
      "start_time": 1.0,
      "duration": 0.065,
      "velocity": 44
    },
    {
      "pitch": 44,
      "start_time": 1.25,
      "duration": 0.0565,
      "velocity": 49
    },
    {
      "pitch": 36,
      "start_time": 1.5,
      "duration": 0.0379,
      "velocity": 17
    },
    {
      "pitch": 40,
      "start_time": 1.5,
      "duration": 0.0336,
      "velocity": 38
    },
    {
      "pitch": 42,
      "start_time": 1.5,
      "duration": 0.0618,
      "velocity": 29
    },
    {
      "pitch": 36,
      "start_time": 1.75,
      "duration": 0.0668,
      "velocity": 30
    },
    {
      "pitch": 40,
      "start_time": 1.75,
      "duration": 0.081,
      "velocity": 65
    },
    {
      "pitch": 42,
      "start_time": 1.75,
      "duration": 0.078,
      "velocity": 43
    },
    {
      "pitch": 44,
      "start_time": 2.0,
      "duration": 0.0824,
      "velocity": 49
    },
    {
      "pitch": 36,
      "start_time": 2.25,
      "duration": 0.0756,
      "velocity": 36
    },
    {
      "pitch": 41,
      "start_time": 2.5,
      "duration": 0.0417,
      "velocity": 62
    },
    {
      "pitch": 42,
      "start_time": 2.5,
      "duration": 0.0576,
      "velocity": 41
    },
    {
      "pitch": 37,
      "start_time": 2.75,
      "duration": 0.0704,
      "velocity": 70
    },
    {
      "pitch": 40,
      "start_time": 2.75,
      "duration": 0.0644,
      "velocity": 54
    },
    {
      "pitch": 41,
      "start_time": 2.75,
      "duration": 0.0561,
      "velocity": 62
    },
    {
      "pitch": 42,
      "start_time": 2.75,
      "duration": 0.0623,
      "velocity": 48
    },
    {
      "pitch": 36,
      "start_time": 3.0,
      "duration": 0.0669,
      "velocity": 35
    },
    {
      "pitch": 42,
      "start_time": 3.25,
      "duration": 0.0971,
      "velocity": 36
    },
    {
      "pitch": 51,
      "start_time": 3.25,
      "duration": 0.0513,
      "velocity": 35
    },
    {
      "pitch": 44,
      "start_time": 3.5,
      "duration": 0.0466,
      "velocity": 47
    },
    {
      "pitch": 47,
      "start_time": 3.5,
      "duration": 0.0309,
      "velocity": 17
    },
    {
      "pitch": 36,
      "start_time": 3.75,
      "duration": 0.0651,
      "velocity": 40
    },
    {
      "pitch": 40,
      "start_time": 3.75,
      "duration": 0.0573,
      "velocity": 66
    },
    {
      "pitch": 41,
      "start_time": 3.75,
      "duration": 0.0335,
      "velocity": 28
    },
    {
      "pitch": 46,
      "start_time": 3.75,
      "duration": 0.0809,
      "velocity": 44
    },
    {
      "pitch": 50,
      "start_time": 3.75,
      "duration": 0.0465,
      "velocity": 52
    }
  ]
}