{
  "source": {
    "song": "packs",
    "track_index": 0,
    "track_name": "Drum Essentials / MIDI Clips / 60 - 90 bpm / 64 Pads Penelope Kit groove 03_90 bpm",
    "slot_index": 0,
    "clip_name": "Drum Essentials / MIDI Clips / 60 - 90 bpm / 64 Pads Penelope Kit groove 03_90 bpm",
    "mid_file": "/Users/darnold/Music/Ableton/Packs/Drum Essentials/MIDI Clips/60 - 90 bpm/64 Pads Penelope Kit groove 03_90 bpm.alc"
  },
  "meta": {
    "bpm": 90.0,
    "key": "?",
    "scale": "?",
    "length_beats": 8.0,
    "note_count": 106
  },
  "rhythm": {
    "density": 2.0,
    "hit_positions": [
      0.0,
      0.0,
      0.0,
      0.0,
      0.25,
      0.25,
      0.25,
      0.5,
      0.5,
      0.5,
      0.75,
      0.75,
      1.0,
      1.0,
      1.0,
      1.0,
      1.25,
      1.5,
      1.5,
      1.5,
      1.5,
      1.75,
      1.75,
      2.0,
      2.0,
      2.0,
      2.0,
      2.25,
      2.5,
      2.5,
      2.75,
      3.0,
      3.0,
      3.0,
      3.0,
      3.25,
      3.5,
      3.5,
      3.5,
      3.5,
      3.75,
      3.75,
      4.0,
      4.0,
      4.0,
      4.0,
      4.25,
      4.5,
      4.5,
      4.75,
      4.75,
      4.75,
      4.75,
      5.0,
      5.0,
      5.0,
      5.0,
      5.25,
      5.25,
      5.5,
      5.5,
      5.5,
      5.75,
      5.75,
      5.75,
      5.75,
      6.0,
      6.0,
      6.0,
      6.0,
      6.25,
      6.25,
      6.25,
      6.25,
      6.5,
      6.5,
      6.5,
      6.5,
      6.5,
      6.75,
      6.75,
      6.75,
      6.75,
      6.75,
      6.75,
      7.0,
      7.0,
      7.0,
      7.0,
      7.0,
      7.0,
      7.0,
      7.0,
      7.25,
      7.25,
      7.25,
      7.25,
      7.5,
      7.5,
      7.5,
      7.5,
      7.75,
      7.75,
      7.75,
      7.75,
      7.75
    ],
    "ioi": [
      0.0,
      0.0,
      0.0,
      0.25,
      0.0,
      0.0,
      0.25,
      0.0,
      0.0,
      0.25,
      0.0,
      0.25,
      0.0,
      0.0,
      0.0,
      0.25,
      0.25,
      0.0,
      0.0,
      0.0,
      0.25,
      0.0,
      0.25,
      0.0,
      0.0,
      0.0,
      0.25,
      0.25,
      0.0,
      0.25,
      0.25,
      0.0,
      0.0,
      0.0,
      0.25,
      0.25,
      0.0,
      0.0,
      0.0,
      0.25,
      0.0,
      0.25,
      0.0,
      0.0,
      0.0,
      0.25,
      0.25,
      0.0,
      0.25,
      0.0,
      0.0,
      0.0,
      0.25,
      0.0,
      0.0,
      0.0,
      0.25,
      0.0,
      0.25,
      0.0,
      0.0,
      0.25,
      0.0,
      0.0,
      0.0,
      0.25,
      0.0,
      0.0,
      0.0,
      0.25,
      0.0,
      0.0,
      0.0,
      0.25,
      0.0,
      0.0,
      0.0,
      0.0,
      0.25,
      0.0,
      0.0,
      0.0,
      0.0,
      0.0,
      0.25,
      0.0,
      0.0,
      0.0,
      0.0,
      0.0,
      0.0,
      0.0,
      0.25,
      0.0,
      0.0,
      0.0,
      0.25,
      0.0,
      0.0,
      0.0,
      0.25,
      0.0,
      0.0,
      0.0,
      0.0,
      0.25
    ],
    "grid": "8th",
    "euclidean_approx": [
      32,
      32
    ],
    "swing_ratio": 1.0
  },
  "pitch": {
    "notes_used": [
      36,
      37,
      38,
      42,
      52,
      53,
      55,
      56,
      57,
      59,
      61,
      63,
      77,
      78,
      79,
      80,
      84,
      85,
      89,
      90,
      92,
      93
    ],
    "intervals": [
      6,
      11,
      26,
      26,
      3,
      21,
      35,
      10,
      26,
      25,
      26,
      41,
      4,
      19,
      16,
      1,
      40,
      4,
      11,
      26,
      22,
      20,
      41,
      6,
      11,
      25,
      1,
      16,
      14,
      1,
      41,
      5,
      19,
      18,
      2,
      22,
      4,
      19,
      14,
      13,
      13,
      56,
      6,
      11,
      24,
      1,
      36,
      37,
      27,
      1,
      4,
      20,
      39,
      4,
      19,
      17,
      25,
      26,
      41,
      4,
      35,
      22,
      4,
      19,
      6,
      48,
      6,
      37,
      5,
      27,
      20,
      3,
      4,
      42,
      11,
      25,
      2,
      4,
      47,
      5,
      10,
      27,
      1,
      5,
      49,
      1,
      5,
      19,
      16,
      3,
      4,
      1,
      7,
      2,
      5,
      8,
      57,
      6,
      37,
      6,
      8,
      1,
      7,
      4,
      1
    ],
    "register": "high",
    "is_melodic": true,
    "pitch_range": 57,
    "pitch_distribution": {
      "36": 6,
      "42": 15,
      "53": 9,
      "79": 11,
      "56": 1,
      "77": 11,
      "52": 3,
      "78": 11,
      "38": 4,
      "61": 4,
      "57": 3,
      "63": 1,
      "37": 3,
      "55": 2,
      "59": 2,
      "92": 2,
      "84": 5,
      "80": 5,
      "85": 5,
      "93": 1,
      "89": 1,
      "90": 1
    }
  },
  "velocity": {
    "mean": 34.2,
    "variance": 598.3,
    "std": 24.5,
    "accents": [
      0,
      14,
      25,
      28,
      31,
      32,
      33,
      42,
      44,
      55,
      88,
      96,
      100,
      103
    ],
    "profile": [
      60,
      39,
      3,
      27,
      3,
      26,
      27,
      25,
      27,
      7,
      42,
      15,
      52,
      42,
      106,
      27,
      9,
      18,
      32,
      43,
      9,
      45,
      18,
      48,
      38,
      63,
      14,
      15,
      115,
      19,
      8,
      127,
      71,
      98,
      8,
      17,
      50,
      22,
      12,
      37,
      13,
      55,
      68,
      44,
      75,
      24,
      13,
      24,
      23,
      27,
      22,
      53,
      25,
      27,
      41,
      112,
      22,
      33,
      21,
      23,
      25,
      23,
      17,
      37,
      15,
      11,
      30,
      25,
      26,
      13,
      55,
      24,
      46,
      21,
      31,
      35,
      17,
      37,
      21,
      26,
      31,
      34,
      25,
      26,
      51,
      7,
      6,
      38,
      64,
      22,
      28,
      25,
      10,
      14,
      47,
      45,
      83,
      36,
      27,
      31,
      73,
      26,
      12,
      72,
      43,
      5
    ]
  },
  "notes": [
    {
      "pitch": 36,
      "start_time": 0.0,
      "duration": 0.0841,
      "velocity": 60
    },
    {
      "pitch": 42,
      "start_time": 0.0,
      "duration": 0.068,
      "velocity": 39
    },
    {
      "pitch": 53,
      "start_time": 0.0,
      "duration": 0.0239,
      "velocity": 3
    },
    {
      "pitch": 79,
      "start_time": 0.0,
      "duration": 0.0703,
      "velocity": 27
    },
    {
      "pitch": 53,
      "start_time": 0.25,
      "duration": 0.2949,
      "velocity": 3
    },
    {
      "pitch": 56,
      "start_time": 0.25,
      "duration": 0.0735,
      "velocity": 26
    },
    {
      "pitch": 77,
      "start_time": 0.25,
      "duration": 0.0461,
      "velocity": 27
    },
    {
      "pitch": 42,
      "start_time": 0.5,
      "duration": 0.0741,
      "velocity": 25
    },
    {
      "pitch": 52,
      "start_time": 0.5,
      "duration": 0.1007,
      "velocity": 27
    },
    {
      "pitch": 78,
      "start_time": 0.5,
      "duration": 0.0424,
      "velocity": 7
    },
    {
      "pitch": 53,
      "start_time": 0.75,
      "duration": 0.0534,
      "velocity": 42
    },
    {
      "pitch": 79,
      "start_time": 0.75,
      "duration": 0.0673,
      "velocity": 15
    },
    {
      "pitch": 38,
      "start_time": 1.0,
      "duration": 0.0719,
      "velocity": 52
    },
    {
      "pitch": 42,
      "start_time": 1.0,
      "duration": 0.0415,
      "velocity": 42
    },
    {
      "pitch": 61,
      "start_time": 1.0,
      "duration": 0.2673,
      "velocity": 106
    },
    {
      "pitch": 77,
      "start_time": 1.0,
      "duration": 0.079,
      "velocity": 27
    },
    {
      "pitch": 78,
      "start_time": 1.25,
      "duration": 0.0619,
      "velocity": 9
    },
    {
      "pitch": 38,
      "start_time": 1.5,
      "duration": 0.4496,
      "velocity": 18
    },
    {
      "pitch": 42,
      "start_time": 1.5,
      "duration": 0.0981,
      "velocity": 32
    },
    {
      "pitch": 53,
      "start_time": 1.5,
      "duration": 0.2597,
      "velocity": 43
    },
    {
      "pitch": 79,
      "start_time": 1.5,
      "duration": 0.0267,
      "velocity": 9
    },
    {
      "pitch": 57,
      "start_time": 1.75,
      "duration": 0.0732,
      "velocity": 45
    },
    {
      "pitch": 77,
      "start_time": 1.75,
      "duration": 0.0398,
      "velocity": 18
    },
    {
      "pitch": 36,
      "start_time": 2.0,
      "duration": 0.1035,
      "velocity": 48
    },
    {
      "pitch": 42,
      "start_time": 2.0,
      "duration": 0.1179,
      "velocity": 38
    },
    {
      "pitch": 53,
      "start_time": 2.0,
      "duration": 0.3773,
      "velocity": 63
    },
    {
      "pitch": 78,
      "start_time": 2.0,
      "duration": 0.0574,
      "velocity": 14
    },
    {
      "pitch": 79,
      "start_time": 2.25,
      "duration": 0.0379,
      "velocity": 15
    },
    {
      "pitch": 63,
      "start_time": 2.5,
      "duration": 0.4484,
      "velocity": 115
    },
    {
      "pitch": 77,
      "start_time": 2.5,
      "duration": 0.0445,
      "velocity": 19
    },
    {
      "pitch": 78,
      "start_time": 2.75,
      "duration": 0.0271,
      "velocity": 8
    },
    {
      "pitch": 37,
      "start_time": 3.0,
      "duration": 0.2677,
      "velocity": 127
    },
    {
      "pitch": 42,
      "start_time": 3.0,
      "duration": 0.4632,
      "velocity": 71
    },
    {
      "pitch": 61,
      "start_time": 3.0,
      "duration": 0.2906,
      "velocity": 98
    },
    {
      "pitch": 79,
      "start_time": 3.0,
      "duration": 0.0323,
      "velocity": 8
    },
    {
      "pitch": 77,
      "start_time": 3.25,
      "duration": 0.0483,
      "velocity": 17
    },
    {
      "pitch": 55,
      "start_time": 3.5,
      "duration": 0.4346,
      "velocity": 50
    },
    {
      "pitch": 59,
      "start_time": 3.5,
      "duration": 0.1065,
      "velocity": 22
    },
    {
      "pitch": 78,
      "start_time": 3.5,
      "duration": 0.0693,
      "velocity": 12
    },
    {
      "pitch": 92,
      "start_time": 3.5,
      "duration": 0.0356,
      "velocity": 37
    },
    {
      "pitch": 79,
      "start_time": 3.75,
      "duration": 0.0661,
      "velocity": 13
    },
    {
      "pitch": 92,
      "start_time": 3.75,
      "duration": 0.0855,
      "velocity": 55
    },
    {
      "pitch": 36,
      "start_time": 4.0,
      "duration": 0.1872,
      "velocity": 68
    },
    {
      "pitch": 42,
      "start_time": 4.0,
      "duration": 0.2056,
      "velocity": 44
    },
    {
      "pitch": 53,
      "start_time": 4.0,
      "duration": 0.5297,
      "velocity": 75
    },
    {
      "pitch": 77,
      "start_time": 4.0,
      "duration": 0.0736,
      "velocity": 24
    },
    {
      "pitch": 78,
      "start_time": 4.25,
      "duration": 0.0774,
      "velocity": 13
    },
    {
      "pitch": 42,
      "start_time": 4.5,
      "duration": 0.1249,
      "velocity": 24
    },
    {
      "pitch": 79,
      "start_time": 4.5,
      "duration": 0.0754,
      "velocity": 23
    },
    {
      "pitch": 52,
      "start_time": 4.75,
      "duration": 0.0604,
      "velocity": 27
    },
    {
      "pitch": 53,
      "start_time": 4.75,
      "duration": 0.0476,
      "velocity": 22
    },
    {
      "pitch": 57,
      "start_time": 4.75,
      "duration": 0.0694,
      "velocity": 53
    },
    {
      "pitch": 77,
      "start_time": 4.75,
      "duration": 0.0786,
      "velocity": 25
    },
    {
      "pitch": 38,
      "start_time": 5.0,
      "duration": 0.0574,
      "velocity": 27
    },
    {
      "pitch": 42,
      "start_time": 5.0,
      "duration": 0.0367,
      "velocity": 41
    },
    {
      "pitch": 61,
      "start_time": 5.0,
      "duration": 0.4227,
      "velocity": 112
    },
    {
      "pitch": 78,
      "start_time": 5.0,
      "duration": 0.0772,
      "velocity": 22
    },
    {
      "pitch": 53,
      "start_time": 5.25,
      "duration": 0.0588,
      "velocity": 33
    },
    {
      "pitch": 79,
      "start_time": 5.25,
      "duration": 0.0785,
      "velocity": 21
    },
    {
      "pitch": 38,
      "start_time": 5.5,
      "duration": 0.4497,
      "velocity": 23
    },
    {
      "pitch": 42,
      "start_time": 5.5,
      "duration": 0.0659,
      "velocity": 25
    },
    {
      "pitch": 77,
      "start_time": 5.5,
      "duration": 0.0717,
      "velocity": 23
    },
    {
      "pitch": 55,
      "start_time": 5.75,
      "duration": 0.0345,
      "velocity": 17
    },
    {
      "pitch": 59,
      "start_time": 5.75,
      "duration": 0.0346,
      "velocity": 37
    },
    {
      "pitch": 78,
      "start_time": 5.75,
      "duration": 0.0626,
      "velocity": 15
    },
    {
      "pitch": 84,
      "start_time": 5.75,
      "duration": 0.0422,
      "velocity": 11
    },
    {
      "pitch": 36,
      "start_time": 6.0,
      "duration": 0.0595,
      "velocity": 30
    },
    {
      "pitch": 42,
      "start_time": 6.0,
      "duration": 0.0736,
      "velocity": 25
    },
    {
      "pitch": 79,
      "start_time": 6.0,
      "duration": 0.0762,
      "velocity": 26
    },
    {
      "pitch": 84,
      "start_time": 6.0,
      "duration": 0.0567,
      "velocity": 13
    },
    {
      "pitch": 57,
      "start_time": 6.25,
      "duration": 0.0841,
      "velocity": 55
    },
    {
      "pitch": 77,
      "start_time": 6.25,
      "duration": 0.0713,
      "velocity": 24
    },
    {
      "pitch": 80,
      "start_time": 6.25,
      "duration": 0.25,
      "velocity": 46
    },
    {
      "pitch": 84,
      "start_time": 6.25,
      "duration": 0.0454,
      "velocity": 21
    },
    {
      "pitch": 42,
      "start_time": 6.5,
      "duration": 0.0709,
      "velocity": 31
    },
    {
      "pitch": 53,
      "start_time": 6.5,
      "duration": 0.0535,
      "velocity": 35
    },
    {
      "pitch": 78,
      "start_time": 6.5,
      "duration": 0.0703,
      "velocity": 17
    },
    {
      "pitch": 80,
      "start_time": 6.5,
      "duration": 0.25,
      "velocity": 37
    },
    {
      "pitch": 84,
      "start_time": 6.5,
      "duration": 0.0576,
      "velocity": 21
    },
    {
      "pitch": 37,
      "start_time": 6.75,
      "duration": 0.0347,
      "velocity": 26
    },
    {
      "pitch": 42,
      "start_time": 6.75,
      "duration": 0.0378,
      "velocity": 31
    },
    {
      "pitch": 52,
      "start_time": 6.75,
      "duration": 0.0736,
      "velocity": 34
    },
    {
      "pitch": 79,
      "start_time": 6.75,
      "duration": 0.0775,
      "velocity": 25
    },
    {
      "pitch": 80,
      "start_time": 6.75,
      "duration": 0.25,
      "velocity": 26
    },
    {
      "pitch": 85,
      "start_time": 6.75,
      "duration": 0.0739,
      "velocity": 51
    },
    {
      "pitch": 36,
      "start_time": 7.0,
      "duration": 0.0345,
      "velocity": 7
    },
    {
      "pitch": 37,
      "start_time": 7.0,
      "duration": 0.0067,
      "velocity": 6
    },
    {
      "pitch": 42,
      "start_time": 7.0,
      "duration": 0.0711,
      "velocity": 38
    },
    {
      "pitch": 61,
      "start_time": 7.0,
      "duration": 0.4138,
      "velocity": 64
    },
    {
      "pitch": 77,
      "start_time": 7.0,
      "duration": 0.0765,
      "velocity": 22
    },
    {
      "pitch": 80,
      "start_time": 7.0,
      "duration": 0.25,
      "velocity": 28
    },
    {
      "pitch": 84,
      "start_time": 7.0,
      "duration": 0.0606,
      "velocity": 25
    },
    {
      "pitch": 85,
      "start_time": 7.0,
      "duration": 0.0282,
      "velocity": 10
    },
    {
      "pitch": 78,
      "start_time": 7.25,
      "duration": 0.076,
      "velocity": 14
    },
    {
      "pitch": 80,
      "start_time": 7.25,
      "duration": 0.0575,
      "velocity": 47
    },
    {
      "pitch": 85,
      "start_time": 7.25,
      "duration": 0.0681,
      "velocity": 45
    },
    {
      "pitch": 93,
      "start_time": 7.25,
      "duration": 0.0912,
      "velocity": 83
    },
    {
      "pitch": 36,
      "start_time": 7.5,
      "duration": 0.0655,
      "velocity": 36
    },
    {
      "pitch": 42,
      "start_time": 7.5,
      "duration": 0.0779,
      "velocity": 27
    },
    {
      "pitch": 79,
      "start_time": 7.5,
      "duration": 0.0867,
      "velocity": 31
    },
    {
      "pitch": 85,
      "start_time": 7.5,
      "duration": 0.0702,
      "velocity": 73
    },
    {
      "pitch": 77,
      "start_time": 7.75,
      "duration": 0.0824,
      "velocity": 26
    },
    {
      "pitch": 78,
      "start_time": 7.75,
      "duration": 0.0674,
      "velocity": 12
    },
    {
      "pitch": 85,
      "start_time": 7.75,
      "duration": 0.0867,
      "velocity": 72
    },
    {
      "pitch": 89,
      "start_time": 7.75,
      "duration": 0.0796,
      "velocity": 43
    },
    {
      "pitch": 90,
      "start_time": 7.75,
      "duration": 0.0233,
      "velocity": 5
    }
  ]
}