{
  "source": {
    "song": "packs",
    "track_index": 0,
    "track_name": "Drum Essentials / MIDI Clips / 91 - 110 bpm / West Outer Kit groove 02_103 bpm",
    "slot_index": 0,
    "clip_name": "Drum Essentials / MIDI Clips / 91 - 110 bpm / West Outer Kit groove 02_103 bpm",
    "mid_file": "/Users/darnold/Music/Ableton/Packs/Drum Essentials/MIDI Clips/91 - 110 bpm/West Outer Kit groove 02_103 bpm.alc"
  },
  "meta": {
    "bpm": 103.0,
    "key": "?",
    "scale": "?",
    "length_beats": 4.0,
    "note_count": 48
  },
  "rhythm": {
    "density": 1.312,
    "hit_positions": [
      0.0,
      0.0,
      0.0,
      0.0,
      0.25,
      0.25,
      0.5,
      0.5,
      0.5,
      0.75,
      0.75,
      1.0,
      1.0,
      1.0,
      1.0,
      1.25,
      1.25,
      1.25,
      1.5,
      1.5,
      1.5,
      1.625,
      1.75,
      1.875,
      2.0,
      2.0,
      2.0,
      2.125,
      2.25,
      2.25,
      2.375,
      2.5,
      2.5,
      2.5,
      2.625,
      2.75,
      2.75,
      3.0,
      3.0,
      3.0,
      3.0,
      3.25,
      3.25,
      3.25,
      3.25,
      3.5,
      3.5,
      3.75
    ],
    "ioi": [
      0.0,
      0.0,
      0.0,
      0.25,
      0.0,
      0.25,
      0.0,
      0.0,
      0.25,
      0.0,
      0.25,
      0.0,
      0.0,
      0.0,
      0.25,
      0.0,
      0.0,
      0.25,
      0.0,
      0.0,
      0.125,
      0.125,
      0.125,
      0.125,
      0.0,
      0.0,
      0.125,
      0.125,
      0.0,
      0.125,
      0.125,
      0.0,
      0.0,
      0.125,
      0.125,
      0.0,
      0.25,
      0.0,
      0.0,
      0.0,
      0.25,
      0.0,
      0.0,
      0.0,
      0.25,
      0.0,
      0.25,
      0.25
    ],
    "grid": "16th",
    "euclidean_approx": [
      16,
      16
    ],
    "swing_ratio": 1.053
  },
  "pitch": {
    "notes_used": [
      37,
      39,
      41,
      42,
      44,
      48,
      50
    ],
    "intervals": [
      1,
      2,
      4,
      6,
      2,
      2,
      2,
      6,
      9,
      1,
      5,
      2,
      3,
      2,
      2,
      2,
      6,
      9,
      1,
      2,
      2,
      0,
      0,
      0,
      2,
      6,
      8,
      0,
      2,
      2,
      1,
      1,
      2,
      2,
      0,
      8,
      13,
      2,
      3,
      2,
      3,
      1,
      2,
      4,
      6,
      2,
      2
    ],
    "register": "low",
    "is_melodic": true,
    "pitch_range": 13,
    "pitch_distribution": {
      "41": 5,
      "42": 21,
      "44": 12,
      "48": 2,
      "50": 4,
      "37": 2,
      "39": 2
    }
  },
  "velocity": {
    "mean": 58.5,
    "variance": 1411.9,
    "std": 37.6,
    "accents": [
      0,
      1,
      3,
      11,
      12,
      18,
      31,
      38,
      41,
      44
    ],
    "profile": [
      127,
      115,
      41,
      127,
      28,
      42,
      25,
      42,
      40,
      92,
      15,
      105,
      118,
      5,
      62,
      31,
      56,
      59,
      107,
      22,
      72,
      14,
      14,
      17,
      40,
      80,
      50,
      30,
      18,
      62,
      18,
      119,
      63,
      95,
      27,
      20,
      47,
      96,
      119,
      14,
      52,
      127,
      36,
      86,
      103,
      25,
      76,
      27
    ]
  },
  "notes": [
    {
      "pitch": 41,
      "start_time": 0.0,
      "duration": 0.0521,
      "velocity": 127
    },
    {
      "pitch": 42,
      "start_time": 0.0,
      "duration": 0.1562,
      "velocity": 115
    },
    {
      "pitch": 44,
      "start_time": 0.0,
      "duration": 0.0312,
      "velocity": 41
    },
    {
      "pitch": 48,
      "start_time": 0.0,
      "duration": 0.0938,
      "velocity": 127
    },
    {
      "pitch": 42,
      "start_time": 0.25,
      "duration": 0.25,
      "velocity": 28
    },
    {
      "pitch": 44,
      "start_time": 0.25,
      "duration": 0.0625,
      "velocity": 42
    },
    {
      "pitch": 42,
      "start_time": 0.5,
      "duration": 0.25,
      "velocity": 25
    },
    {
      "pitch": 44,
      "start_time": 0.5,
      "duration": 0.4479,
      "velocity": 42
    },
    {
      "pitch": 50,
      "start_time": 0.5,
      "duration": 0.0417,
      "velocity": 40
    },
    {
      "pitch": 41,
      "start_time": 0.75,
      "duration": 0.0521,
      "velocity": 92
    },
    {
      "pitch": 42,
      "start_time": 0.75,
      "duration": 0.25,
      "velocity": 15
    },
    {
      "pitch": 37,
      "start_time": 1.0,
      "duration": 0.1042,
      "velocity": 105
    },
    {
      "pitch": 39,
      "start_time": 1.0,
      "duration": 0.0833,
      "velocity": 118
    },
    {
      "pitch": 42,
      "start_time": 1.0,
      "duration": 0.0208,
      "velocity": 5
    },
    {
      "pitch": 44,
      "start_time": 1.0,
      "duration": 0.0729,
      "velocity": 62
    },
    {
      "pitch": 42,
      "start_time": 1.25,
      "duration": 0.25,
      "velocity": 31
    },
    {
      "pitch": 44,
      "start_time": 1.25,
      "duration": 0.0729,
      "velocity": 56
    },
    {
      "pitch": 50,
      "start_time": 1.25,
      "duration": 0.0417,
      "velocity": 59
    },
    {
      "pitch": 41,
      "start_time": 1.5,
      "duration": 0.0417,
      "velocity": 107
    },
    {
      "pitch": 42,
      "start_time": 1.5,
      "duration": 0.125,
      "velocity": 22
    },
    {
      "pitch": 44,
      "start_time": 1.5,
      "duration": 0.4062,
      "velocity": 72
    },
    {
      "pitch": 42,
      "start_time": 1.625,
      "duration": 0.125,
      "velocity": 14
    },
    {
      "pitch": 42,
      "start_time": 1.75,
      "duration": 0.125,
      "velocity": 14
    },
    {
      "pitch": 42,
      "start_time": 1.875,
      "duration": 0.125,
      "velocity": 17
    },
    {
      "pitch": 42,
      "start_time": 2.0,
      "duration": 0.125,
      "velocity": 40
    },
    {
      "pitch": 44,
      "start_time": 2.0,
      "duration": 0.0417,
      "velocity": 80
    },
    {
      "pitch": 50,
      "start_time": 2.0,
      "duration": 0.0521,
      "velocity": 50
    },
    {
      "pitch": 42,
      "start_time": 2.125,
      "duration": 0.125,
      "velocity": 30
    },
    {
      "pitch": 42,
      "start_time": 2.25,
      "duration": 0.125,
      "velocity": 18
    },
    {
      "pitch": 44,
      "start_time": 2.25,
      "duration": 0.0833,
      "velocity": 62
    },
    {
      "pitch": 42,
      "start_time": 2.375,
      "duration": 0.0104,
      "velocity": 18
    },
    {
      "pitch": 41,
      "start_time": 2.5,
      "duration": 0.0625,
      "velocity": 119
    },
    {
      "pitch": 42,
      "start_time": 2.5,
      "duration": 0.125,
      "velocity": 63
    },
    {
      "pitch": 44,
      "start_time": 2.5,
      "duration": 0.4167,
      "velocity": 95
    },
    {
      "pitch": 42,
      "start_time": 2.625,
      "duration": 0.125,
      "velocity": 27
    },
    {
      "pitch": 42,
      "start_time": 2.75,
      "duration": 0.0208,
      "velocity": 20
    },
    {
      "pitch": 50,
      "start_time": 2.75,
      "duration": 0.0417,
      "velocity": 47
    },
    {
      "pitch": 37,
      "start_time": 3.0,
      "duration": 0.0833,
      "velocity": 96
    },
    {
      "pitch": 39,
      "start_time": 3.0,
      "duration": 0.0417,
      "velocity": 119
    },
    {
      "pitch": 42,
      "start_time": 3.0,
      "duration": 0.1458,
      "velocity": 14
    },
    {
      "pitch": 44,
      "start_time": 3.0,
      "duration": 0.125,
      "velocity": 52
    },
    {
      "pitch": 41,
      "start_time": 3.25,
      "duration": 0.0729,
      "velocity": 127
    },
    {
      "pitch": 42,
      "start_time": 3.25,
      "duration": 0.25,
      "velocity": 36
    },
    {
      "pitch": 44,
      "start_time": 3.25,
      "duration": 0.0521,
      "velocity": 86
    },
    {
      "pitch": 48,
      "start_time": 3.25,
      "duration": 0.1042,
      "velocity": 103
    },
    {
      "pitch": 42,
      "start_time": 3.5,
      "duration": 0.25,
      "velocity": 25
    },
    {
      "pitch": 44,
      "start_time": 3.5,
      "duration": 0.3229,
      "velocity": 76
    },
    {
      "pitch": 42,
      "start_time": 3.75,
      "duration": 0.0104,
      "velocity": 27
    }
  ]
}