{
  "source": {
    "song": "packs",
    "track_index": 0,
    "track_name": "Drum Essentials / MIDI Clips / 131 - 160 bpm / DMX Admission Kit groove 04_133 bpm",
    "slot_index": 0,
    "clip_name": "Drum Essentials / MIDI Clips / 131 - 160 bpm / DMX Admission Kit groove 04_133 bpm",
    "mid_file": "/Users/darnold/Music/Ableton/Packs/Drum Essentials/MIDI Clips/131 - 160 bpm/DMX Admission Kit groove 04_133 bpm.alc"
  },
  "meta": {
    "bpm": 133.0,
    "key": "?",
    "scale": "?",
    "length_beats": 8.0,
    "note_count": 31
  },
  "rhythm": {
    "density": 1.188,
    "hit_positions": [
      0.0,
      0.0,
      0.25,
      1.0,
      1.0,
      1.5,
      2.0,
      2.0,
      2.75,
      3.0,
      3.0,
      3.0,
      3.25,
      3.5,
      4.0,
      4.0,
      4.25,
      5.0,
      5.0,
      5.5,
      5.5,
      6.0,
      6.0,
      6.5,
      7.0,
      7.0,
      7.0,
      7.25,
      7.5,
      7.5,
      7.75
    ],
    "ioi": [
      0.0,
      0.25,
      0.75,
      0.0,
      0.5,
      0.5,
      0.0,
      0.75,
      0.25,
      0.0,
      0.0,
      0.25,
      0.25,
      0.5,
      0.0,
      0.25,
      0.75,
      0.0,
      0.5,
      0.0,
      0.5,
      0.0,
      0.5,
      0.5,
      0.0,
      0.0,
      0.25,
      0.25,
      0.0,
      0.25,
      0.25
    ],
    "grid": "8th",
    "euclidean_approx": [
      31,
      32
    ],
    "swing_ratio": 1.0
  },
  "pitch": {
    "notes_used": [
      36,
      38,
      39,
      42,
      43,
      45,
      46,
      47
    ],
    "intervals": [
      6,
      6,
      2,
      4,
      6,
      0,
      6,
      5,
      9,
      1,
      3,
      3,
      2,
      7,
      6,
      6,
      2,
      4,
      6,
      10,
      10,
      6,
      4,
      8,
      4,
      5,
      4,
      5,
      1,
      1
    ],
    "register": "low",
    "is_melodic": true,
    "pitch_range": 11,
    "pitch_distribution": {
      "36": 8,
      "42": 8,
      "38": 6,
      "47": 2,
      "39": 2,
      "45": 1,
      "43": 2,
      "46": 2
    }
  },
  "velocity": {
    "mean": 51.1,
    "variance": 463.3,
    "std": 21.5,
    "accents": [
      3,
      8,
      9,
      16,
      17,
      21,
      24
    ],
    "profile": [
      39,
      31,
      55,
      83,
      34,
      37,
      50,
      35,
      83,
      86,
      32,
      32,
      26,
      57,
      52,
      35,
      76,
      81,
      32,
      51,
      69,
      80,
      32,
      71,
      101,
      46,
      39,
      38,
      20,
      54,
      28
    ]
  },
  "notes": [
    {
      "pitch": 36,
      "start_time": 0.0,
      "duration": 0.0511,
      "velocity": 39
    },
    {
      "pitch": 42,
      "start_time": 0.0,
      "duration": 0.032,
      "velocity": 31
    },
    {
      "pitch": 36,
      "start_time": 0.25,
      "duration": 0.0994,
      "velocity": 55
    },
    {
      "pitch": 38,
      "start_time": 1.0,
      "duration": 0.0914,
      "velocity": 83
    },
    {
      "pitch": 42,
      "start_time": 1.0,
      "duration": 0.0473,
      "velocity": 34
    },
    {
      "pitch": 36,
      "start_time": 1.5,
      "duration": 0.0508,
      "velocity": 37
    },
    {
      "pitch": 36,
      "start_time": 2.0,
      "duration": 0.0969,
      "velocity": 50
    },
    {
      "pitch": 42,
      "start_time": 2.0,
      "duration": 0.0523,
      "velocity": 35
    },
    {
      "pitch": 47,
      "start_time": 2.75,
      "duration": 0.0887,
      "velocity": 83
    },
    {
      "pitch": 38,
      "start_time": 3.0,
      "duration": 0.1032,
      "velocity": 86
    },
    {
      "pitch": 39,
      "start_time": 3.0,
      "duration": 0.0606,
      "velocity": 32
    },
    {
      "pitch": 42,
      "start_time": 3.0,
      "duration": 0.0448,
      "velocity": 32
    },
    {
      "pitch": 45,
      "start_time": 3.25,
      "duration": 0.0846,
      "velocity": 26
    },
    {
      "pitch": 43,
      "start_time": 3.5,
      "duration": 0.0563,
      "velocity": 57
    },
    {
      "pitch": 36,
      "start_time": 4.0,
      "duration": 0.0497,
      "velocity": 52
    },
    {
      "pitch": 42,
      "start_time": 4.0,
      "duration": 0.0441,
      "velocity": 35
    },
    {
      "pitch": 36,
      "start_time": 4.25,
      "duration": 0.0985,
      "velocity": 76
    },
    {
      "pitch": 38,
      "start_time": 5.0,
      "duration": 0.1103,
      "velocity": 81
    },
    {
      "pitch": 42,
      "start_time": 5.0,
      "duration": 0.0562,
      "velocity": 32
    },
    {
      "pitch": 36,
      "start_time": 5.5,
      "duration": 0.0523,
      "velocity": 51
    },
    {
      "pitch": 46,
      "start_time": 5.5,
      "duration": 0.1048,
      "velocity": 69
    },
    {
      "pitch": 36,
      "start_time": 6.0,
      "duration": 0.0945,
      "velocity": 80
    },
    {
      "pitch": 42,
      "start_time": 6.0,
      "duration": 0.0538,
      "velocity": 32
    },
    {
      "pitch": 46,
      "start_time": 6.5,
      "duration": 0.0987,
      "velocity": 71
    },
    {
      "pitch": 38,
      "start_time": 7.0,
      "duration": 0.0658,
      "velocity": 101
    },
    {
      "pitch": 42,
      "start_time": 7.0,
      "duration": 0.0508,
      "velocity": 46
    },
    {
      "pitch": 47,
      "start_time": 7.0,
      "duration": 0.0466,
      "velocity": 39
    },
    {
      "pitch": 43,
      "start_time": 7.25,
      "duration": 0.0754,
      "velocity": 38
    },
    {
      "pitch": 38,
      "start_time": 7.5,
      "duration": 0.06,
      "velocity": 20
    },
    {
      "pitch": 39,
      "start_time": 7.5,
      "duration": 0.0621,
      "velocity": 54
    },
    {
      "pitch": 38,
      "start_time": 7.75,
      "duration": 0.0841,
      "velocity": 28
    }
  ]
}