{
  "source": {
    "song": "packs",
    "track_index": 0,
    "track_name": "Drum Essentials / MIDI Clips / 111 - 130 bpm / Onyx Kit groove 04_117 bpm",
    "slot_index": 0,
    "clip_name": "Drum Essentials / MIDI Clips / 111 - 130 bpm / Onyx Kit groove 04_117 bpm",
    "mid_file": "/Users/darnold/Music/Ableton/Packs/Drum Essentials/MIDI Clips/111 - 130 bpm/Onyx Kit groove 04_117 bpm.alc"
  },
  "meta": {
    "bpm": 117.0,
    "key": "?",
    "scale": "?",
    "length_beats": 8.0,
    "note_count": 36
  },
  "rhythm": {
    "density": 1.5,
    "hit_positions": [
      0.0,
      0.0,
      0.5,
      1.0,
      1.0,
      1.25,
      1.5,
      2.0,
      2.0,
      2.5,
      2.75,
      3.0,
      3.0,
      3.25,
      3.5,
      3.75,
      3.75,
      3.75,
      4.0,
      4.0,
      4.5,
      4.5,
      5.0,
      5.0,
      5.25,
      5.5,
      6.0,
      6.0,
      6.0,
      6.5,
      6.75,
      7.0,
      7.0,
      7.25,
      7.5,
      7.75
    ],
    "ioi": [
      0.0,
      0.5,
      0.5,
      0.0,
      0.25,
      0.25,
      0.5,
      0.0,
      0.5,
      0.25,
      0.25,
      0.0,
      0.25,
      0.25,
      0.25,
      0.0,
      0.0,
      0.25,
      0.0,
      0.5,
      0.0,
      0.5,
      0.0,
      0.25,
      0.25,
      0.5,
      0.0,
      0.0,
      0.5,
      0.25,
      0.25,
      0.0,
      0.25,
      0.25,
      0.25,
      0.25
    ],
    "grid": "8th",
    "euclidean_approx": [
      32,
      32
    ],
    "swing_ratio": 1.0
  },
  "pitch": {
    "notes_used": [
      36,
      37,
      38,
      40,
      41,
      42,
      43,
      44,
      45,
      46,
      47,
      51
    ],
    "intervals": [
      6,
      2,
      6,
      4,
      2,
      8,
      1,
      5,
      2,
      0,
      4,
      6,
      4,
      0,
      2,
      2,
      5,
      11,
      11,
      11,
      6,
      2,
      3,
      0,
      11,
      1,
      5,
      1,
      8,
      0,
      7,
      7,
      10,
      4,
      3
    ],
    "register": "low",
    "is_melodic": true,
    "pitch_range": 15,
    "pitch_distribution": {
      "36": 5,
      "42": 9,
      "44": 6,
      "38": 1,
      "37": 2,
      "40": 2,
      "46": 1,
      "47": 4,
      "43": 1,
      "51": 3,
      "41": 1,
      "45": 1
    }
  },
  "velocity": {
    "mean": 45.6,
    "variance": 525.2,
    "std": 22.9,
    "accents": [
      7,
      15,
      22,
      26,
      27,
      31
    ],
    "profile": [
      55,
      45,
      45,
      25,
      39,
      67,
      51,
      78,
      51,
      26,
      46,
      63,
      25,
      6,
      21,
      81,
      45,
      22,
      62,
      22,
      39,
      34,
      107,
      38,
      24,
      52,
      86,
      69,
      43,
      23,
      23,
      93,
      21,
      42,
      29,
      44
    ]
  },
  "notes": [
    {
      "pitch": 36,
      "start_time": 0.0,
      "duration": 0.121,
      "velocity": 55
    },
    {
      "pitch": 42,
      "start_time": 0.0,
      "duration": 0.1204,
      "velocity": 45
    },
    {
      "pitch": 44,
      "start_time": 0.5,
      "duration": 0.1088,
      "velocity": 45
    },
    {
      "pitch": 38,
      "start_time": 1.0,
      "duration": 0.0511,
      "velocity": 25
    },
    {
      "pitch": 42,
      "start_time": 1.0,
      "duration": 0.1336,
      "velocity": 39
    },
    {
      "pitch": 44,
      "start_time": 1.25,
      "duration": 0.1669,
      "velocity": 67
    },
    {
      "pitch": 36,
      "start_time": 1.5,
      "duration": 0.1069,
      "velocity": 51
    },
    {
      "pitch": 37,
      "start_time": 2.0,
      "duration": 0.108,
      "velocity": 78
    },
    {
      "pitch": 42,
      "start_time": 2.0,
      "duration": 0.1052,
      "velocity": 51
    },
    {
      "pitch": 44,
      "start_time": 2.5,
      "duration": 0.25,
      "velocity": 26
    },
    {
      "pitch": 44,
      "start_time": 2.75,
      "duration": 0.2075,
      "velocity": 46
    },
    {
      "pitch": 40,
      "start_time": 3.0,
      "duration": 0.1094,
      "velocity": 63
    },
    {
      "pitch": 46,
      "start_time": 3.0,
      "duration": 0.0313,
      "velocity": 25
    },
    {
      "pitch": 42,
      "start_time": 3.25,
      "duration": 0.25,
      "velocity": 6
    },
    {
      "pitch": 42,
      "start_time": 3.5,
      "duration": 0.25,
      "velocity": 21
    },
    {
      "pitch": 40,
      "start_time": 3.75,
      "duration": 0.1117,
      "velocity": 81
    },
    {
      "pitch": 42,
      "start_time": 3.75,
      "duration": 0.0164,
      "velocity": 45
    },
    {
      "pitch": 47,
      "start_time": 3.75,
      "duration": 0.25,
      "velocity": 22
    },
    {
      "pitch": 36,
      "start_time": 4.0,
      "duration": 0.1444,
      "velocity": 62
    },
    {
      "pitch": 47,
      "start_time": 4.0,
      "duration": 0.1379,
      "velocity": 22
    },
    {
      "pitch": 36,
      "start_time": 4.5,
      "duration": 0.1142,
      "velocity": 39
    },
    {
      "pitch": 42,
      "start_time": 4.5,
      "duration": 0.1035,
      "velocity": 34
    },
    {
      "pitch": 44,
      "start_time": 5.0,
      "duration": 0.1313,
      "velocity": 107
    },
    {
      "pitch": 47,
      "start_time": 5.0,
      "duration": 0.25,
      "velocity": 38
    },
    {
      "pitch": 47,
      "start_time": 5.25,
      "duration": 0.1909,
      "velocity": 24
    },
    {
      "pitch": 36,
      "start_time": 5.5,
      "duration": 0.1159,
      "velocity": 52
    },
    {
      "pitch": 37,
      "start_time": 6.0,
      "duration": 0.1038,
      "velocity": 86
    },
    {
      "pitch": 42,
      "start_time": 6.0,
      "duration": 0.1125,
      "velocity": 69
    },
    {
      "pitch": 43,
      "start_time": 6.0,
      "duration": 0.0805,
      "velocity": 43
    },
    {
      "pitch": 51,
      "start_time": 6.5,
      "duration": 0.25,
      "velocity": 23
    },
    {
      "pitch": 51,
      "start_time": 6.75,
      "duration": 0.25,
      "velocity": 23
    },
    {
      "pitch": 44,
      "start_time": 7.0,
      "duration": 0.1027,
      "velocity": 93
    },
    {
      "pitch": 51,
      "start_time": 7.0,
      "duration": 0.0034,
      "velocity": 21
    },
    {
      "pitch": 41,
      "start_time": 7.25,
      "duration": 0.25,
      "velocity": 42
    },
    {
      "pitch": 45,
      "start_time": 7.5,
      "duration": 0.0643,
      "velocity": 29
    },
    {
      "pitch": 42,
      "start_time": 7.75,
      "duration": 0.1144,
      "velocity": 44
    }
  ]
}