{
  "source": {
    "song": "packs",
    "track_index": 0,
    "track_name": "Drum Essentials / MIDI Clips / 91 - 110 bpm / Selector Kit Producer groove 02_110 bpm",
    "slot_index": 0,
    "clip_name": "Drum Essentials / MIDI Clips / 91 - 110 bpm / Selector Kit Producer groove 02_110 bpm",
    "mid_file": "/Users/darnold/Music/Ableton/Packs/Drum Essentials/MIDI Clips/91 - 110 bpm/Selector Kit Producer groove 02_110 bpm.alc"
  },
  "meta": {
    "bpm": 110.0,
    "key": "?",
    "scale": "?",
    "length_beats": 4.0,
    "note_count": 34
  },
  "rhythm": {
    "density": 2.0,
    "hit_positions": [
      0.0,
      0.0,
      0.0,
      0.25,
      0.25,
      0.5,
      0.5,
      0.75,
      0.75,
      1.0,
      1.0,
      1.0,
      1.25,
      1.5,
      1.5,
      1.5,
      1.75,
      2.0,
      2.0,
      2.25,
      2.5,
      2.5,
      2.5,
      2.5,
      2.75,
      2.75,
      3.0,
      3.0,
      3.0,
      3.25,
      3.5,
      3.5,
      3.5,
      3.75
    ],
    "ioi": [
      0.0,
      0.0,
      0.25,
      0.0,
      0.25,
      0.0,
      0.25,
      0.0,
      0.25,
      0.0,
      0.0,
      0.25,
      0.25,
      0.0,
      0.0,
      0.25,
      0.25,
      0.0,
      0.25,
      0.25,
      0.0,
      0.0,
      0.0,
      0.25,
      0.0,
      0.25,
      0.0,
      0.0,
      0.25,
      0.25,
      0.0,
      0.0,
      0.25,
      0.25
    ],
    "grid": "8th",
    "euclidean_approx": [
      16,
      16
    ],
    "swing_ratio": 1.0
  },
  "pitch": {
    "notes_used": [
      36,
      40,
      41,
      42,
      44,
      48,
      49
    ],
    "intervals": [
      8,
      5,
      13,
      6,
      2,
      5,
      7,
      6,
      8,
      2,
      7,
      5,
      0,
      4,
      1,
      7,
      2,
      5,
      7,
      6,
      5,
      1,
      7,
      8,
      3,
      4,
      4,
      5,
      7,
      1,
      3,
      5,
      7
    ],
    "register": "low",
    "is_melodic": true,
    "pitch_range": 13,
    "pitch_distribution": {
      "36": 3,
      "44": 8,
      "49": 8,
      "42": 8,
      "48": 2,
      "40": 2,
      "41": 3
    }
  },
  "velocity": {
    "mean": 59.4,
    "variance": 1266.2,
    "std": 35.6,
    "accents": [
      1,
      7,
      9,
      13,
      19,
      26,
      27,
      33
    ],
    "profile": [
      49,
      122,
      18,
      78,
      41,
      58,
      23,
      105,
      12,
      102,
      49,
      13,
      80,
      122,
      30,
      19,
      45,
      67,
      20,
      111,
      66,
      22,
      48,
      26,
      43,
      80,
      106,
      120,
      20,
      53,
      54,
      80,
      23,
      114
    ]
  },
  "notes": [
    {
      "pitch": 36,
      "start_time": 0.0,
      "duration": 0.1135,
      "velocity": 49
    },
    {
      "pitch": 44,
      "start_time": 0.0,
      "duration": 0.1393,
      "velocity": 122
    },
    {
      "pitch": 49,
      "start_time": 0.0,
      "duration": 0.3193,
      "velocity": 18
    },
    {
      "pitch": 36,
      "start_time": 0.25,
      "duration": 0.2882,
      "velocity": 78
    },
    {
      "pitch": 42,
      "start_time": 0.25,
      "duration": 0.2657,
      "velocity": 41
    },
    {
      "pitch": 44,
      "start_time": 0.5,
      "duration": 0.1484,
      "velocity": 58
    },
    {
      "pitch": 49,
      "start_time": 0.5,
      "duration": 0.3865,
      "velocity": 23
    },
    {
      "pitch": 42,
      "start_time": 0.75,
      "duration": 0.1394,
      "velocity": 105
    },
    {
      "pitch": 48,
      "start_time": 0.75,
      "duration": 0.4529,
      "velocity": 12
    },
    {
      "pitch": 40,
      "start_time": 1.0,
      "duration": 0.1795,
      "velocity": 102
    },
    {
      "pitch": 42,
      "start_time": 1.0,
      "duration": 0.2548,
      "velocity": 49
    },
    {
      "pitch": 49,
      "start_time": 1.0,
      "duration": 0.2823,
      "velocity": 13
    },
    {
      "pitch": 44,
      "start_time": 1.25,
      "duration": 0.1487,
      "velocity": 80
    },
    {
      "pitch": 44,
      "start_time": 1.5,
      "duration": 0.1396,
      "velocity": 122
    },
    {
      "pitch": 48,
      "start_time": 1.5,
      "duration": 0.5738,
      "velocity": 30
    },
    {
      "pitch": 49,
      "start_time": 1.5,
      "duration": 0.3501,
      "velocity": 19
    },
    {
      "pitch": 42,
      "start_time": 1.75,
      "duration": 0.2604,
      "velocity": 45
    },
    {
      "pitch": 44,
      "start_time": 2.0,
      "duration": 0.143,
      "velocity": 67
    },
    {
      "pitch": 49,
      "start_time": 2.0,
      "duration": 0.273,
      "velocity": 20
    },
    {
      "pitch": 42,
      "start_time": 2.25,
      "duration": 0.1359,
      "velocity": 111
    },
    {
      "pitch": 36,
      "start_time": 2.5,
      "duration": 0.3373,
      "velocity": 66
    },
    {
      "pitch": 41,
      "start_time": 2.5,
      "duration": 0.1356,
      "velocity": 22
    },
    {
      "pitch": 42,
      "start_time": 2.5,
      "duration": 0.2456,
      "velocity": 48
    },
    {
      "pitch": 49,
      "start_time": 2.5,
      "duration": 0.3813,
      "velocity": 26
    },
    {
      "pitch": 41,
      "start_time": 2.75,
      "duration": 0.5924,
      "velocity": 43
    },
    {
      "pitch": 44,
      "start_time": 2.75,
      "duration": 0.1596,
      "velocity": 80
    },
    {
      "pitch": 40,
      "start_time": 3.0,
      "duration": 0.1558,
      "velocity": 106
    },
    {
      "pitch": 44,
      "start_time": 3.0,
      "duration": 0.1447,
      "velocity": 120
    },
    {
      "pitch": 49,
      "start_time": 3.0,
      "duration": 0.2475,
      "velocity": 20
    },
    {
      "pitch": 42,
      "start_time": 3.25,
      "duration": 0.2423,
      "velocity": 53
    },
    {
      "pitch": 41,
      "start_time": 3.5,
      "duration": 0.4601,
      "velocity": 54
    },
    {
      "pitch": 44,
      "start_time": 3.5,
      "duration": 0.1502,
      "velocity": 80
    },
    {
      "pitch": 49,
      "start_time": 3.5,
      "duration": 0.3062,
      "velocity": 23
    },
    {
      "pitch": 42,
      "start_time": 3.75,
      "duration": 0.128,
      "velocity": 114
    }
  ]
}