{
  "source": {
    "song": "packs",
    "track_index": 0,
    "track_name": "Drum Essentials / MIDI Clips / 111 - 130 bpm / 106 Typhoon Kit groove 01_128 bpm",
    "slot_index": 0,
    "clip_name": "Drum Essentials / MIDI Clips / 111 - 130 bpm / 106 Typhoon Kit groove 01_128 bpm",
    "mid_file": "/Users/darnold/Music/Ableton/Packs/Drum Essentials/MIDI Clips/111 - 130 bpm/106 Typhoon Kit groove 01_128 bpm.alc"
  },
  "meta": {
    "bpm": 128.0,
    "key": "?",
    "scale": "?",
    "length_beats": 8.0,
    "note_count": 47
  },
  "rhythm": {
    "density": 1.5,
    "hit_positions": [
      0.0,
      0.0,
      0.5,
      0.5,
      0.75,
      1.0,
      1.0,
      1.0,
      1.0,
      1.0,
      1.5,
      1.75,
      2.0,
      2.0,
      2.0,
      2.5,
      2.5,
      2.75,
      3.0,
      3.0,
      3.0,
      3.0,
      3.5,
      3.75,
      4.0,
      4.0,
      4.5,
      4.75,
      5.0,
      5.0,
      5.0,
      5.0,
      5.0,
      5.5,
      5.75,
      6.0,
      6.0,
      6.0,
      6.5,
      6.5,
      6.75,
      7.0,
      7.0,
      7.0,
      7.0,
      7.5,
      7.75
    ],
    "ioi": [
      0.0,
      0.5,
      0.0,
      0.25,
      0.25,
      0.0,
      0.0,
      0.0,
      0.0,
      0.5,
      0.25,
      0.25,
      0.0,
      0.0,
      0.5,
      0.0,
      0.25,
      0.25,
      0.0,
      0.0,
      0.0,
      0.5,
      0.25,
      0.25,
      0.0,
      0.5,
      0.25,
      0.25,
      0.0,
      0.0,
      0.0,
      0.0,
      0.5,
      0.25,
      0.25,
      0.0,
      0.0,
      0.5,
      0.0,
      0.25,
      0.25,
      0.0,
      0.0,
      0.0,
      0.5,
      0.25,
      0.25
    ],
    "grid": "8th",
    "euclidean_approx": [
      32,
      32
    ],
    "swing_ratio": 1.0
  },
  "pitch": {
    "notes_used": [
      36,
      37,
      38,
      40,
      42,
      46,
      48,
      51
    ],
    "intervals": [
      6,
      4,
      5,
      0,
      15,
      2,
      2,
      2,
      6,
      2,
      9,
      1,
      6,
      6,
      11,
      9,
      10,
      2,
      2,
      2,
      6,
      2,
      2,
      12,
      6,
      4,
      5,
      15,
      2,
      2,
      2,
      6,
      2,
      9,
      1,
      6,
      6,
      11,
      9,
      10,
      2,
      2,
      2,
      6,
      2,
      2
    ],
    "register": "low",
    "is_melodic": true,
    "pitch_range": 15,
    "pitch_distribution": {
      "36": 8,
      "42": 8,
      "46": 8,
      "51": 3,
      "38": 4,
      "40": 4,
      "48": 8,
      "37": 4
    }
  },
  "velocity": {
    "mean": 36.9,
    "variance": 202.7,
    "std": 14.2,
    "accents": [
      1,
      7,
      19,
      25,
      30,
      31,
      36,
      42,
      43
    ],
    "profile": [
      34,
      59,
      36,
      14,
      19,
      30,
      48,
      64,
      40,
      24,
      33,
      14,
      30,
      44,
      27,
      21,
      39,
      31,
      49,
      65,
      44,
      27,
      32,
      30,
      35,
      56,
      26,
      21,
      33,
      51,
      62,
      59,
      15,
      35,
      18,
      33,
      58,
      21,
      28,
      32,
      33,
      49,
      62,
      54,
      30,
      40,
      30
    ]
  },
  "notes": [
    {
      "pitch": 36,
      "start_time": 0.0,
      "duration": 0.1229,
      "velocity": 34
    },
    {
      "pitch": 42,
      "start_time": 0.0,
      "duration": 0.132,
      "velocity": 59
    },
    {
      "pitch": 46,
      "start_time": 0.5,
      "duration": 0.0953,
      "velocity": 36
    },
    {
      "pitch": 51,
      "start_time": 0.5,
      "duration": 0.0646,
      "velocity": 14
    },
    {
      "pitch": 51,
      "start_time": 0.75,
      "duration": 0.1429,
      "velocity": 19
    },
    {
      "pitch": 36,
      "start_time": 1.0,
      "duration": 0.0687,
      "velocity": 30
    },
    {
      "pitch": 38,
      "start_time": 1.0,
      "duration": 0.0697,
      "velocity": 48
    },
    {
      "pitch": 40,
      "start_time": 1.0,
      "duration": 0.0903,
      "velocity": 64
    },
    {
      "pitch": 42,
      "start_time": 1.0,
      "duration": 0.1259,
      "velocity": 40
    },
    {
      "pitch": 48,
      "start_time": 1.0,
      "duration": 0.0225,
      "velocity": 24
    },
    {
      "pitch": 46,
      "start_time": 1.5,
      "duration": 0.1057,
      "velocity": 33
    },
    {
      "pitch": 37,
      "start_time": 1.75,
      "duration": 0.1134,
      "velocity": 14
    },
    {
      "pitch": 36,
      "start_time": 2.0,
      "duration": 0.108,
      "velocity": 30
    },
    {
      "pitch": 42,
      "start_time": 2.0,
      "duration": 0.1513,
      "velocity": 44
    },
    {
      "pitch": 48,
      "start_time": 2.0,
      "duration": 0.0542,
      "velocity": 27
    },
    {
      "pitch": 37,
      "start_time": 2.5,
      "duration": 0.0875,
      "velocity": 21
    },
    {
      "pitch": 46,
      "start_time": 2.5,
      "duration": 0.1114,
      "velocity": 39
    },
    {
      "pitch": 36,
      "start_time": 2.75,
      "duration": 0.1284,
      "velocity": 31
    },
    {
      "pitch": 38,
      "start_time": 3.0,
      "duration": 0.0803,
      "velocity": 49
    },
    {
      "pitch": 40,
      "start_time": 3.0,
      "duration": 0.1106,
      "velocity": 65
    },
    {
      "pitch": 42,
      "start_time": 3.0,
      "duration": 0.1386,
      "velocity": 44
    },
    {
      "pitch": 48,
      "start_time": 3.0,
      "duration": 0.024,
      "velocity": 27
    },
    {
      "pitch": 46,
      "start_time": 3.5,
      "duration": 0.1104,
      "velocity": 32
    },
    {
      "pitch": 48,
      "start_time": 3.75,
      "duration": 0.0843,
      "velocity": 30
    },
    {
      "pitch": 36,
      "start_time": 4.0,
      "duration": 0.1095,
      "velocity": 35
    },
    {
      "pitch": 42,
      "start_time": 4.0,
      "duration": 0.1521,
      "velocity": 56
    },
    {
      "pitch": 46,
      "start_time": 4.5,
      "duration": 0.1156,
      "velocity": 26
    },
    {
      "pitch": 51,
      "start_time": 4.75,
      "duration": 0.1101,
      "velocity": 21
    },
    {
      "pitch": 36,
      "start_time": 5.0,
      "duration": 0.0937,
      "velocity": 33
    },
    {
      "pitch": 38,
      "start_time": 5.0,
      "duration": 0.0708,
      "velocity": 51
    },
    {
      "pitch": 40,
      "start_time": 5.0,
      "duration": 0.0944,
      "velocity": 62
    },
    {
      "pitch": 42,
      "start_time": 5.0,
      "duration": 0.145,
      "velocity": 59
    },
    {
      "pitch": 48,
      "start_time": 5.0,
      "duration": 0.019,
      "velocity": 15
    },
    {
      "pitch": 46,
      "start_time": 5.5,
      "duration": 0.1136,
      "velocity": 35
    },
    {
      "pitch": 37,
      "start_time": 5.75,
      "duration": 0.0809,
      "velocity": 18
    },
    {
      "pitch": 36,
      "start_time": 6.0,
      "duration": 0.1131,
      "velocity": 33
    },
    {
      "pitch": 42,
      "start_time": 6.0,
      "duration": 0.1467,
      "velocity": 58
    },
    {
      "pitch": 48,
      "start_time": 6.0,
      "duration": 0.017,
      "velocity": 21
    },
    {
      "pitch": 37,
      "start_time": 6.5,
      "duration": 0.1,
      "velocity": 28
    },
    {
      "pitch": 46,
      "start_time": 6.5,
      "duration": 0.1159,
      "velocity": 32
    },
    {
      "pitch": 36,
      "start_time": 6.75,
      "duration": 0.136,
      "velocity": 33
    },
    {
      "pitch": 38,
      "start_time": 7.0,
      "duration": 0.0639,
      "velocity": 49
    },
    {
      "pitch": 40,
      "start_time": 7.0,
      "duration": 0.0781,
      "velocity": 62
    },
    {
      "pitch": 42,
      "start_time": 7.0,
      "duration": 0.1691,
      "velocity": 54
    },
    {
      "pitch": 48,
      "start_time": 7.0,
      "duration": 0.0536,
      "velocity": 30
    },
    {
      "pitch": 46,
      "start_time": 7.5,
      "duration": 0.1346,
      "velocity": 40
    },
    {
      "pitch": 48,
      "start_time": 7.75,
      "duration": 0.1168,
      "velocity": 30
    }
  ]
}