{
  "source": {
    "song": "packs",
    "track_index": 0,
    "track_name": "Drum Essentials / MIDI Clips / 111 - 130 bpm / 707 Funky Beans Kit groove 06_120 bpm",
    "slot_index": 0,
    "clip_name": "Drum Essentials / MIDI Clips / 111 - 130 bpm / 707 Funky Beans Kit groove 06_120 bpm",
    "mid_file": "/Users/darnold/Music/Ableton/Packs/Drum Essentials/MIDI Clips/111 - 130 bpm/707 Funky Beans Kit groove 06_120 bpm.alc"
  },
  "meta": {
    "bpm": 120.0,
    "key": "?",
    "scale": "?",
    "length_beats": 8.0,
    "note_count": 41
  },
  "rhythm": {
    "density": 1.75,
    "hit_positions": [
      0.0,
      0.0,
      0.3333,
      0.5,
      0.8333,
      1.0,
      1.0,
      1.3333,
      1.5,
      1.5,
      2.0,
      2.3333,
      2.5,
      2.5,
      3.0,
      3.0,
      3.0,
      3.3333,
      3.3333,
      3.5,
      4.0,
      4.0,
      4.3333,
      4.5,
      4.8333,
      5.0,
      5.0,
      5.3333,
      5.5,
      5.5,
      6.0,
      6.3333,
      6.5,
      6.8333,
      7.0,
      7.0,
      7.0,
      7.3333,
      7.5,
      7.5,
      7.8333
    ],
    "ioi": [
      0.0,
      0.3333,
      0.1667,
      0.3333,
      0.1667,
      0.0,
      0.3333,
      0.1667,
      0.0,
      0.5,
      0.3333,
      0.1667,
      0.0,
      0.5,
      0.0,
      0.0,
      0.3333,
      0.0,
      0.1667,
      0.5,
      0.0,
      0.3333,
      0.1667,
      0.3333,
      0.1667,
      0.0,
      0.3333,
      0.1667,
      0.0,
      0.5,
      0.3333,
      0.1667,
      0.3333,
      0.1667,
      0.0,
      0.0,
      0.3333,
      0.1667,
      0.0,
      0.3333,
      0.1667
    ],
    "grid": "8th",
    "euclidean_approx": [
      32,
      32
    ],
    "swing_ratio": 1.333
  },
  "pitch": {
    "notes_used": [
      36,
      38,
      39,
      42
    ],
    "intervals": [
      6,
      0,
      0,
      6,
      2,
      4,
      0,
      6,
      6,
      0,
      0,
      6,
      6,
      4,
      1,
      3,
      6,
      6,
      0,
      6,
      6,
      0,
      0,
      6,
      2,
      4,
      0,
      6,
      6,
      0,
      0,
      0,
      6,
      2,
      1,
      3,
      0,
      4,
      4,
      4
    ],
    "register": "low",
    "is_melodic": true,
    "pitch_range": 6,
    "pitch_distribution": {
      "36": 9,
      "42": 24,
      "38": 6,
      "39": 2
    }
  },
  "velocity": {
    "mean": 52.5,
    "variance": 821.6,
    "std": 28.7,
    "accents": [
      0,
      8,
      14,
      25,
      34,
      38
    ],
    "profile": [
      101,
      61,
      28,
      37,
      26,
      79,
      61,
      21,
      87,
      30,
      77,
      20,
      57,
      21,
      82,
      71,
      56,
      75,
      15,
      55,
      75,
      47,
      21,
      44,
      30,
      123,
      73,
      23,
      65,
      32,
      56,
      17,
      17,
      46,
      122,
      56,
      77,
      23,
      90,
      29,
      27
    ]
  },
  "notes": [
    {
      "pitch": 36,
      "start_time": 0.0,
      "duration": 0.0969,
      "velocity": 101
    },
    {
      "pitch": 42,
      "start_time": 0.0,
      "duration": 0.092,
      "velocity": 61
    },
    {
      "pitch": 42,
      "start_time": 0.3333,
      "duration": 0.1059,
      "velocity": 28
    },
    {
      "pitch": 42,
      "start_time": 0.5,
      "duration": 0.0475,
      "velocity": 37
    },
    {
      "pitch": 36,
      "start_time": 0.8333,
      "duration": 0.1002,
      "velocity": 26
    },
    {
      "pitch": 38,
      "start_time": 1.0,
      "duration": 0.107,
      "velocity": 79
    },
    {
      "pitch": 42,
      "start_time": 1.0,
      "duration": 0.1107,
      "velocity": 61
    },
    {
      "pitch": 42,
      "start_time": 1.3333,
      "duration": 0.1023,
      "velocity": 21
    },
    {
      "pitch": 36,
      "start_time": 1.5,
      "duration": 0.0607,
      "velocity": 87
    },
    {
      "pitch": 42,
      "start_time": 1.5,
      "duration": 0.0756,
      "velocity": 30
    },
    {
      "pitch": 42,
      "start_time": 2.0,
      "duration": 0.1043,
      "velocity": 77
    },
    {
      "pitch": 42,
      "start_time": 2.3333,
      "duration": 0.103,
      "velocity": 20
    },
    {
      "pitch": 36,
      "start_time": 2.5,
      "duration": 0.0984,
      "velocity": 57
    },
    {
      "pitch": 42,
      "start_time": 2.5,
      "duration": 0.117,
      "velocity": 21
    },
    {
      "pitch": 38,
      "start_time": 3.0,
      "duration": 0.0788,
      "velocity": 82
    },
    {
      "pitch": 39,
      "start_time": 3.0,
      "duration": 0.065,
      "velocity": 71
    },
    {
      "pitch": 42,
      "start_time": 3.0,
      "duration": 0.1254,
      "velocity": 56
    },
    {
      "pitch": 36,
      "start_time": 3.3333,
      "duration": 0.1104,
      "velocity": 75
    },
    {
      "pitch": 42,
      "start_time": 3.3333,
      "duration": 0.1031,
      "velocity": 15
    },
    {
      "pitch": 42,
      "start_time": 3.5,
      "duration": 0.0721,
      "velocity": 55
    },
    {
      "pitch": 36,
      "start_time": 4.0,
      "duration": 0.0927,
      "velocity": 75
    },
    {
      "pitch": 42,
      "start_time": 4.0,
      "duration": 0.0804,
      "velocity": 47
    },
    {
      "pitch": 42,
      "start_time": 4.3333,
      "duration": 0.1068,
      "velocity": 21
    },
    {
      "pitch": 42,
      "start_time": 4.5,
      "duration": 0.0828,
      "velocity": 44
    },
    {
      "pitch": 36,
      "start_time": 4.8333,
      "duration": 0.0959,
      "velocity": 30
    },
    {
      "pitch": 38,
      "start_time": 5.0,
      "duration": 0.0975,
      "velocity": 123
    },
    {
      "pitch": 42,
      "start_time": 5.0,
      "duration": 0.1097,
      "velocity": 73
    },
    {
      "pitch": 42,
      "start_time": 5.3333,
      "duration": 0.0967,
      "velocity": 23
    },
    {
      "pitch": 36,
      "start_time": 5.5,
      "duration": 0.1118,
      "velocity": 65
    },
    {
      "pitch": 42,
      "start_time": 5.5,
      "duration": 0.0994,
      "velocity": 32
    },
    {
      "pitch": 42,
      "start_time": 6.0,
      "duration": 0.0816,
      "velocity": 56
    },
    {
      "pitch": 42,
      "start_time": 6.3333,
      "duration": 0.1014,
      "velocity": 17
    },
    {
      "pitch": 42,
      "start_time": 6.5,
      "duration": 0.1344,
      "velocity": 17
    },
    {
      "pitch": 36,
      "start_time": 6.8333,
      "duration": 0.0903,
      "velocity": 46
    },
    {
      "pitch": 38,
      "start_time": 7.0,
      "duration": 0.0998,
      "velocity": 122
    },
    {
      "pitch": 39,
      "start_time": 7.0,
      "duration": 0.072,
      "velocity": 56
    },
    {
      "pitch": 42,
      "start_time": 7.0,
      "duration": 0.1103,
      "velocity": 77
    },
    {
      "pitch": 42,
      "start_time": 7.3333,
      "duration": 0.0909,
      "velocity": 23
    },
    {
      "pitch": 38,
      "start_time": 7.5,
      "duration": 0.0678,
      "velocity": 90
    },
    {
      "pitch": 42,
      "start_time": 7.5,
      "duration": 0.0753,
      "velocity": 29
    },
    {
      "pitch": 38,
      "start_time": 7.8333,
      "duration": 0.0893,
      "velocity": 27
    }
  ]
}