{
  "source": {
    "song": "packs",
    "track_index": 0,
    "track_name": "Drum Essentials / MIDI Clips / 60 - 90 bpm / Onyx Kit groove 06_86 bpm",
    "slot_index": 0,
    "clip_name": "Drum Essentials / MIDI Clips / 60 - 90 bpm / Onyx Kit groove 06_86 bpm",
    "mid_file": "/Users/darnold/Music/Ableton/Packs/Drum Essentials/MIDI Clips/60 - 90 bpm/Onyx Kit groove 06_86 bpm.alc"
  },
  "meta": {
    "bpm": 86.0,
    "key": "?",
    "scale": "?",
    "length_beats": 12.0,
    "note_count": 71
  },
  "rhythm": {
    "density": 0.917,
    "hit_positions": [
      0.0096,
      0.0097,
      0.0098,
      0.2609,
      0.5043,
      0.7583,
      1.0039,
      1.0043,
      1.2502,
      1.5034,
      1.5043,
      1.5051,
      2.009,
      2.0094,
      2.0096,
      2.51,
      2.7588,
      3.0065,
      3.0072,
      3.504,
      3.7496,
      3.9946,
      3.9961,
      3.9967,
      4.249,
      4.5004,
      4.7484,
      4.9891,
      4.9897,
      5.2384,
      5.4881,
      5.4893,
      5.4901,
      5.7424,
      5.9961,
      5.997,
      5.9971,
      6.0034,
      6.2643,
      6.506,
      6.758,
      7.0021,
      7.0022,
      7.2558,
      7.5027,
      7.5035,
      7.5044,
      7.7544,
      8.0068,
      8.0074,
      8.0078,
      8.2607,
      8.5094,
      8.7581,
      9.0026,
      9.0033,
      9.2537,
      9.5049,
      9.5051,
      9.5059,
      9.7524,
      10.0028,
      10.2529,
      10.4974,
      10.4988,
      10.4992,
      10.7503,
      10.9969,
      10.998,
      11.254,
      11.4991
    ],
    "ioi": [
      0.0001,
      0.0001,
      0.2511,
      0.2434,
      0.254,
      0.2456,
      0.0004,
      0.2459,
      0.2532,
      0.0009,
      0.0008,
      0.5039,
      0.0004,
      0.0002,
      0.5004,
      0.2488,
      0.2477,
      0.0007,
      0.4968,
      0.2456,
      0.245,
      0.0015,
      0.0006,
      0.2523,
      0.2514,
      0.248,
      0.2407,
      0.0006,
      0.2487,
      0.2497,
      0.0012,
      0.0008,
      0.2523,
      0.2537,
      0.0009,
      0.0001,
      0.0063,
      0.2609,
      0.2417,
      0.252,
      0.2441,
      0.0001,
      0.2536,
      0.2469,
      0.0008,
      0.0009,
      0.25,
      0.2524,
      0.0006,
      0.0004,
      0.2529,
      0.2487,
      0.2487,
      0.2445,
      0.0007,
      0.2504,
      0.2512,
      0.0002,
      0.0008,
      0.2465,
      0.2504,
      0.2501,
      0.2445,
      0.0014,
      0.0004,
      0.2511,
      0.2466,
      0.0011,
      0.256,
      0.2451,
      0.5105
    ],
    "grid": "16th",
    "euclidean_approx": [
      48,
      48
    ],
    "swing_ratio": 1.532
  },
  "pitch": {
    "notes_used": [
      36,
      38,
      40,
      42,
      44,
      46
    ],
    "intervals": [
      6,
      4,
      4,
      2,
      6,
      2,
      4,
      2,
      2,
      6,
      4,
      2,
      6,
      4,
      2,
      2,
      2,
      4,
      4,
      6,
      6,
      6,
      4,
      4,
      2,
      6,
      6,
      4,
      6,
      2,
      6,
      4,
      4,
      2,
      6,
      4,
      6,
      2,
      2,
      6,
      6,
      4,
      6,
      2,
      6,
      4,
      4,
      2,
      2,
      4,
      8,
      2,
      6,
      6,
      4,
      6,
      2,
      6,
      4,
      4,
      2,
      6,
      6,
      6,
      4,
      4,
      2,
      4,
      2,
      6
    ],
    "register": "low",
    "is_melodic": true,
    "pitch_range": 10,
    "pitch_distribution": {
      "42": 24,
      "36": 17,
      "40": 10,
      "44": 13,
      "38": 6,
      "46": 1
    }
  },
  "velocity": {
    "mean": 54.7,
    "variance": 396.0,
    "std": 19.9,
    "accents": [
      1,
      2,
      6,
      7,
      13,
      14,
      17,
      18,
      27,
      28,
      41,
      54,
      55,
      67
    ],
    "profile": [
      50,
      77,
      88,
      39,
      32,
      51,
      88,
      76,
      41,
      44,
      63,
      49,
      55,
      76,
      88,
      45,
      33,
      89,
      79,
      36,
      18,
      51,
      71,
      65,
      43,
      39,
      54,
      89,
      82,
      50,
      42,
      68,
      43,
      27,
      46,
      68,
      74,
      8,
      6,
      45,
      44,
      78,
      68,
      30,
      47,
      63,
      42,
      21,
      49,
      73,
      58,
      31,
      49,
      47,
      91,
      77,
      37,
      57,
      67,
      56,
      37,
      45,
      34,
      53,
      61,
      67,
      41,
      92,
      64,
      61,
      57
    ]
  },
  "notes": [
    {
      "pitch": 42,
      "start_time": 0.0096,
      "duration": 0.0634,
      "velocity": 50
    },
    {
      "pitch": 36,
      "start_time": 0.0097,
      "duration": 0.085,
      "velocity": 77
    },
    {
      "pitch": 40,
      "start_time": 0.0098,
      "duration": 0.0831,
      "velocity": 88
    },
    {
      "pitch": 44,
      "start_time": 0.2609,
      "duration": 0.0634,
      "velocity": 39
    },
    {
      "pitch": 42,
      "start_time": 0.5043,
      "duration": 0.0882,
      "velocity": 32
    },
    {
      "pitch": 36,
      "start_time": 0.7583,
      "duration": 0.087,
      "velocity": 51
    },
    {
      "pitch": 38,
      "start_time": 1.0039,
      "duration": 0.0661,
      "velocity": 88
    },
    {
      "pitch": 42,
      "start_time": 1.0043,
      "duration": 0.0698,
      "velocity": 76
    },
    {
      "pitch": 44,
      "start_time": 1.2502,
      "duration": 0.0658,
      "velocity": 41
    },
    {
      "pitch": 42,
      "start_time": 1.5034,
      "duration": 0.0731,
      "velocity": 44
    },
    {
      "pitch": 36,
      "start_time": 1.5043,
      "duration": 0.0613,
      "velocity": 63
    },
    {
      "pitch": 40,
      "start_time": 1.5051,
      "duration": 0.0336,
      "velocity": 49
    },
    {
      "pitch": 42,
      "start_time": 2.009,
      "duration": 0.0703,
      "velocity": 55
    },
    {
      "pitch": 36,
      "start_time": 2.0094,
      "duration": 0.0712,
      "velocity": 76
    },
    {
      "pitch": 40,
      "start_time": 2.0096,
      "duration": 0.0802,
      "velocity": 88
    },
    {
      "pitch": 42,
      "start_time": 2.51,
      "duration": 0.0803,
      "velocity": 45
    },
    {
      "pitch": 44,
      "start_time": 2.7588,
      "duration": 0.0597,
      "velocity": 33
    },
    {
      "pitch": 42,
      "start_time": 3.0065,
      "duration": 0.0737,
      "velocity": 89
    },
    {
      "pitch": 38,
      "start_time": 3.0072,
      "duration": 0.0378,
      "velocity": 79
    },
    {
      "pitch": 42,
      "start_time": 3.504,
      "duration": 0.05,
      "velocity": 36
    },
    {
      "pitch": 36,
      "start_time": 3.7496,
      "duration": 0.0448,
      "velocity": 18
    },
    {
      "pitch": 42,
      "start_time": 3.9946,
      "duration": 0.0904,
      "velocity": 51
    },
    {
      "pitch": 36,
      "start_time": 3.9961,
      "duration": 0.0763,
      "velocity": 71
    },
    {
      "pitch": 40,
      "start_time": 3.9967,
      "duration": 0.0878,
      "velocity": 65
    },
    {
      "pitch": 44,
      "start_time": 4.249,
      "duration": 0.0606,
      "velocity": 43
    },
    {
      "pitch": 42,
      "start_time": 4.5004,
      "duration": 0.0855,
      "velocity": 39
    },
    {
      "pitch": 36,
      "start_time": 4.7484,
      "duration": 0.084,
      "velocity": 54
    },
    {
      "pitch": 42,
      "start_time": 4.9891,
      "duration": 0.0764,
      "velocity": 89
    },
    {
      "pitch": 38,
      "start_time": 4.9897,
      "duration": 0.0515,
      "velocity": 82
    },
    {
      "pitch": 44,
      "start_time": 5.2384,
      "duration": 0.0636,
      "velocity": 50
    },
    {
      "pitch": 42,
      "start_time": 5.4881,
      "duration": 0.0781,
      "velocity": 42
    },
    {
      "pitch": 36,
      "start_time": 5.4893,
      "duration": 0.0719,
      "velocity": 68
    },
    {
      "pitch": 40,
      "start_time": 5.4901,
      "duration": 0.0337,
      "velocity": 43
    },
    {
      "pitch": 44,
      "start_time": 5.7424,
      "duration": 0.0334,
      "velocity": 27
    },
    {
      "pitch": 42,
      "start_time": 5.9961,
      "duration": 0.0746,
      "velocity": 46
    },
    {
      "pitch": 36,
      "start_time": 5.997,
      "duration": 0.0726,
      "velocity": 68
    },
    {
      "pitch": 40,
      "start_time": 5.9971,
      "duration": 0.0712,
      "velocity": 74
    },
    {
      "pitch": 46,
      "start_time": 6.0034,
      "duration": 0.0065,
      "velocity": 8
    },
    {
      "pitch": 44,
      "start_time": 6.2643,
      "duration": 0.0064,
      "velocity": 6
    },
    {
      "pitch": 42,
      "start_time": 6.506,
      "duration": 0.084,
      "velocity": 45
    },
    {
      "pitch": 36,
      "start_time": 6.758,
      "duration": 0.0883,
      "velocity": 44
    },
    {
      "pitch": 42,
      "start_time": 7.0021,
      "duration": 0.0758,
      "velocity": 78
    },
    {
      "pitch": 38,
      "start_time": 7.0022,
      "duration": 0.0387,
      "velocity": 68
    },
    {
      "pitch": 44,
      "start_time": 7.2558,
      "duration": 0.0388,
      "velocity": 30
    },
    {
      "pitch": 42,
      "start_time": 7.5027,
      "duration": 0.0735,
      "velocity": 47
    },
    {
      "pitch": 36,
      "start_time": 7.5035,
      "duration": 0.0545,
      "velocity": 63
    },
    {
      "pitch": 40,
      "start_time": 7.5044,
      "duration": 0.0332,
      "velocity": 42
    },
    {
      "pitch": 44,
      "start_time": 7.7544,
      "duration": 0.0332,
      "velocity": 21
    },
    {
      "pitch": 42,
      "start_time": 8.0068,
      "duration": 0.0803,
      "velocity": 49
    },
    {
      "pitch": 40,
      "start_time": 8.0074,
      "duration": 0.0782,
      "velocity": 73
    },
    {
      "pitch": 36,
      "start_time": 8.0078,
      "duration": 0.07,
      "velocity": 58
    },
    {
      "pitch": 44,
      "start_time": 8.2607,
      "duration": 0.0723,
      "velocity": 31
    },
    {
      "pitch": 42,
      "start_time": 8.5094,
      "duration": 0.0824,
      "velocity": 49
    },
    {
      "pitch": 36,
      "start_time": 8.7581,
      "duration": 0.0906,
      "velocity": 47
    },
    {
      "pitch": 42,
      "start_time": 9.0026,
      "duration": 0.0791,
      "velocity": 91
    },
    {
      "pitch": 38,
      "start_time": 9.0033,
      "duration": 0.0615,
      "velocity": 77
    },
    {
      "pitch": 44,
      "start_time": 9.2537,
      "duration": 0.0705,
      "velocity": 37
    },
    {
      "pitch": 42,
      "start_time": 9.5049,
      "duration": 0.0717,
      "velocity": 57
    },
    {
      "pitch": 36,
      "start_time": 9.5051,
      "duration": 0.047,
      "velocity": 67
    },
    {
      "pitch": 40,
      "start_time": 9.5059,
      "duration": 0.0434,
      "velocity": 56
    },
    {
      "pitch": 44,
      "start_time": 9.7524,
      "duration": 0.0719,
      "velocity": 37
    },
    {
      "pitch": 42,
      "start_time": 10.0028,
      "duration": 0.0878,
      "velocity": 45
    },
    {
      "pitch": 36,
      "start_time": 10.2529,
      "duration": 0.0619,
      "velocity": 34
    },
    {
      "pitch": 42,
      "start_time": 10.4974,
      "duration": 0.0858,
      "velocity": 53
    },
    {
      "pitch": 36,
      "start_time": 10.4988,
      "duration": 0.0701,
      "velocity": 61
    },
    {
      "pitch": 40,
      "start_time": 10.4992,
      "duration": 0.0776,
      "velocity": 67
    },
    {
      "pitch": 44,
      "start_time": 10.7503,
      "duration": 0.064,
      "velocity": 41
    },
    {
      "pitch": 42,
      "start_time": 10.9969,
      "duration": 0.089,
      "velocity": 92
    },
    {
      "pitch": 38,
      "start_time": 10.998,
      "duration": 0.0364,
      "velocity": 64
    },
    {
      "pitch": 36,
      "start_time": 11.254,
      "duration": 0.0892,
      "velocity": 61
    },
    {
      "pitch": 42,
      "start_time": 11.4991,
      "duration": 0.082,
      "velocity": 57
    }
  ]
}