{
  "source": {
    "song": "packs",
    "track_index": 0,
    "track_name": "Drum Essentials / MIDI Clips / 60 - 90 bpm / Head Smack Kit groove 03_84 bpm",
    "slot_index": 0,
    "clip_name": "Drum Essentials / MIDI Clips / 60 - 90 bpm / Head Smack Kit groove 03_84 bpm",
    "mid_file": "/Users/darnold/Music/Ableton/Packs/Drum Essentials/MIDI Clips/60 - 90 bpm/Head Smack Kit groove 03_84 bpm.alc"
  },
  "meta": {
    "bpm": 84.0,
    "key": "?",
    "scale": "?",
    "length_beats": 4.0,
    "note_count": 47
  },
  "rhythm": {
    "density": 1.312,
    "hit_positions": [
      0.0,
      0.0,
      0.0034,
      0.1667,
      0.3333,
      0.3333,
      0.5,
      0.5,
      0.5,
      0.5034,
      0.5039,
      0.6667,
      0.8333,
      0.8333,
      1.0,
      1.0034,
      1.0034,
      1.1667,
      1.3333,
      1.5,
      1.5,
      1.5,
      1.5034,
      2.0,
      2.0,
      2.0034,
      2.1667,
      2.3333,
      2.3333,
      2.5,
      2.5,
      2.5,
      2.5034,
      2.8333,
      2.8333,
      3.0,
      3.0034,
      3.0034,
      3.0103,
      3.1667,
      3.3333,
      3.5,
      3.5,
      3.5,
      3.5034,
      3.6667,
      3.8333
    ],
    "ioi": [
      0.0,
      0.0034,
      0.1633,
      0.1666,
      0.0,
      0.1667,
      0.0,
      0.0,
      0.0034,
      0.0005,
      0.1628,
      0.1666,
      0.0,
      0.1667,
      0.0034,
      0.0,
      0.1633,
      0.1666,
      0.1667,
      0.0,
      0.0,
      0.0034,
      0.4966,
      0.0,
      0.0034,
      0.1633,
      0.1666,
      0.0,
      0.1667,
      0.0,
      0.0,
      0.0034,
      0.3299,
      0.0,
      0.1667,
      0.0034,
      0.0,
      0.0069,
      0.1564,
      0.1666,
      0.1667,
      0.0,
      0.0,
      0.0034,
      0.1633,
      0.1666,
      0.1667
    ],
    "grid": "16th",
    "euclidean_approx": [
      16,
      16
    ],
    "swing_ratio": 1.333
  },
  "pitch": {
    "notes_used": [
      36,
      38,
      39,
      42,
      43,
      44,
      45,
      46,
      47,
      51
    ],
    "intervals": [
      9,
      6,
      6,
      0,
      1,
      4,
      1,
      2,
      6,
      4,
      0,
      3,
      3,
      0,
      9,
      13,
      4,
      0,
      5,
      1,
      2,
      6,
      15,
      6,
      9,
      6,
      0,
      1,
      4,
      1,
      2,
      6,
      15,
      11,
      0,
      9,
      13,
      12,
      8,
      3,
      2,
      1,
      2,
      6,
      7,
      0
    ],
    "register": "low",
    "is_melodic": true,
    "pitch_range": 15,
    "pitch_distribution": {
      "36": 3,
      "45": 9,
      "51": 8,
      "46": 2,
      "42": 5,
      "43": 4,
      "47": 9,
      "44": 4,
      "38": 2,
      "39": 1
    }
  },
  "velocity": {
    "mean": 25.3,
    "variance": 397.1,
    "std": 19.9,
    "accents": [
      15,
      36,
      38,
      40,
      46
    ],
    "profile": [
      32,
      25,
      29,
      8,
      6,
      40,
      42,
      22,
      6,
      12,
      2,
      3,
      39,
      3,
      3,
      68,
      10,
      32,
      35,
      32,
      9,
      25,
      5,
      33,
      27,
      6,
      3,
      3,
      26,
      29,
      24,
      3,
      3,
      29,
      3,
      34,
      78,
      18,
      52,
      28,
      81,
      29,
      32,
      30,
      23,
      43,
      66
    ]
  },
  "notes": [
    {
      "pitch": 36,
      "start_time": 0.0,
      "duration": 0.0379,
      "velocity": 32
    },
    {
      "pitch": 45,
      "start_time": 0.0,
      "duration": 0.1667,
      "velocity": 25
    },
    {
      "pitch": 51,
      "start_time": 0.0034,
      "duration": 0.042,
      "velocity": 29
    },
    {
      "pitch": 45,
      "start_time": 0.1667,
      "duration": 0.1667,
      "velocity": 8
    },
    {
      "pitch": 45,
      "start_time": 0.3333,
      "duration": 0.1667,
      "velocity": 6
    },
    {
      "pitch": 46,
      "start_time": 0.3333,
      "duration": 0.1368,
      "velocity": 40
    },
    {
      "pitch": 42,
      "start_time": 0.5,
      "duration": 0.0705,
      "velocity": 42
    },
    {
      "pitch": 43,
      "start_time": 0.5,
      "duration": 0.0417,
      "velocity": 22
    },
    {
      "pitch": 45,
      "start_time": 0.5,
      "duration": 0.0208,
      "velocity": 6
    },
    {
      "pitch": 51,
      "start_time": 0.5034,
      "duration": 0.0162,
      "velocity": 12
    },
    {
      "pitch": 47,
      "start_time": 0.5039,
      "duration": 0.1628,
      "velocity": 2
    },
    {
      "pitch": 47,
      "start_time": 0.6667,
      "duration": 0.1667,
      "velocity": 3
    },
    {
      "pitch": 44,
      "start_time": 0.8333,
      "duration": 0.0325,
      "velocity": 39
    },
    {
      "pitch": 47,
      "start_time": 0.8333,
      "duration": 0.1667,
      "velocity": 3
    },
    {
      "pitch": 47,
      "start_time": 1.0,
      "duration": 0.1667,
      "velocity": 3
    },
    {
      "pitch": 38,
      "start_time": 1.0034,
      "duration": 0.0784,
      "velocity": 68
    },
    {
      "pitch": 51,
      "start_time": 1.0034,
      "duration": 0.0172,
      "velocity": 10
    },
    {
      "pitch": 47,
      "start_time": 1.1667,
      "duration": 0.1667,
      "velocity": 32
    },
    {
      "pitch": 47,
      "start_time": 1.3333,
      "duration": 0.0478,
      "velocity": 35
    },
    {
      "pitch": 42,
      "start_time": 1.5,
      "duration": 0.0571,
      "velocity": 32
    },
    {
      "pitch": 43,
      "start_time": 1.5,
      "duration": 0.0361,
      "velocity": 9
    },
    {
      "pitch": 45,
      "start_time": 1.5,
      "duration": 0.0898,
      "velocity": 25
    },
    {
      "pitch": 51,
      "start_time": 1.5034,
      "duration": 0.0158,
      "velocity": 5
    },
    {
      "pitch": 36,
      "start_time": 2.0,
      "duration": 0.0935,
      "velocity": 33
    },
    {
      "pitch": 42,
      "start_time": 2.0,
      "duration": 0.0692,
      "velocity": 27
    },
    {
      "pitch": 51,
      "start_time": 2.0034,
      "duration": 0.0405,
      "velocity": 6
    },
    {
      "pitch": 45,
      "start_time": 2.1667,
      "duration": 0.1667,
      "velocity": 3
    },
    {
      "pitch": 45,
      "start_time": 2.3333,
      "duration": 0.1667,
      "velocity": 3
    },
    {
      "pitch": 46,
      "start_time": 2.3333,
      "duration": 0.1047,
      "velocity": 26
    },
    {
      "pitch": 42,
      "start_time": 2.5,
      "duration": 0.0624,
      "velocity": 29
    },
    {
      "pitch": 43,
      "start_time": 2.5,
      "duration": 0.0831,
      "velocity": 24
    },
    {
      "pitch": 45,
      "start_time": 2.5,
      "duration": 0.0537,
      "velocity": 3
    },
    {
      "pitch": 51,
      "start_time": 2.5034,
      "duration": 0.0184,
      "velocity": 3
    },
    {
      "pitch": 36,
      "start_time": 2.8333,
      "duration": 0.0555,
      "velocity": 29
    },
    {
      "pitch": 47,
      "start_time": 2.8333,
      "duration": 0.0499,
      "velocity": 3
    },
    {
      "pitch": 47,
      "start_time": 3.0,
      "duration": 0.1667,
      "velocity": 34
    },
    {
      "pitch": 38,
      "start_time": 3.0034,
      "duration": 0.0806,
      "velocity": 78
    },
    {
      "pitch": 51,
      "start_time": 3.0034,
      "duration": 0.0527,
      "velocity": 18
    },
    {
      "pitch": 39,
      "start_time": 3.0103,
      "duration": 0.0579,
      "velocity": 52
    },
    {
      "pitch": 47,
      "start_time": 3.1667,
      "duration": 0.1667,
      "velocity": 28
    },
    {
      "pitch": 44,
      "start_time": 3.3333,
      "duration": 0.0742,
      "velocity": 81
    },
    {
      "pitch": 42,
      "start_time": 3.5,
      "duration": 0.0378,
      "velocity": 29
    },
    {
      "pitch": 43,
      "start_time": 3.5,
      "duration": 0.0618,
      "velocity": 32
    },
    {
      "pitch": 45,
      "start_time": 3.5,
      "duration": 0.0547,
      "velocity": 30
    },
    {
      "pitch": 51,
      "start_time": 3.5034,
      "duration": 0.0407,
      "velocity": 23
    },
    {
      "pitch": 44,
      "start_time": 3.6667,
      "duration": 0.0327,
      "velocity": 43
    },
    {
      "pitch": 44,
      "start_time": 3.8333,
      "duration": 0.0923,
      "velocity": 66
    }
  ]
}