{
  "source": {
    "song": "packs",
    "track_index": 0,
    "track_name": "Drum Essentials / MIDI Clips / 91 - 110 bpm / Clinical Kit groove 02_98 bpm",
    "slot_index": 0,
    "clip_name": "Drum Essentials / MIDI Clips / 91 - 110 bpm / Clinical Kit groove 02_98 bpm",
    "mid_file": "/Users/darnold/Music/Ableton/Packs/Drum Essentials/MIDI Clips/91 - 110 bpm/Clinical Kit groove 02_98 bpm.alc"
  },
  "meta": {
    "bpm": 98.0,
    "key": "?",
    "scale": "?",
    "length_beats": 8.0,
    "note_count": 84
  },
  "rhythm": {
    "density": 1.125,
    "hit_positions": [
      0.0,
      0.0,
      0.0,
      0.0,
      0.25,
      0.25,
      0.5,
      0.5,
      0.5,
      0.75,
      0.75,
      1.0,
      1.0,
      1.0,
      1.25,
      1.5,
      1.5,
      1.5,
      1.75,
      2.0,
      2.0,
      2.0,
      2.25,
      2.5,
      2.5,
      2.75,
      2.75,
      3.0,
      3.0,
      3.0,
      3.0,
      3.25,
      3.5,
      3.5,
      3.5,
      3.625,
      3.75,
      3.75,
      3.875,
      4.0,
      4.0,
      4.0,
      4.0,
      4.25,
      4.25,
      4.5,
      4.5,
      4.5,
      4.75,
      4.75,
      4.75,
      5.0,
      5.0,
      5.0,
      5.0,
      5.25,
      5.25,
      5.25,
      5.5,
      5.5,
      5.5,
      5.75,
      5.75,
      6.0,
      6.0,
      6.0,
      6.25,
      6.5,
      6.5,
      6.75,
      6.75,
      6.75,
      7.0,
      7.0,
      7.0,
      7.0,
      7.25,
      7.25,
      7.25,
      7.3333,
      7.5,
      7.6667,
      7.75,
      7.75
    ],
    "ioi": [
      0.0,
      0.0,
      0.0,
      0.25,
      0.0,
      0.25,
      0.0,
      0.0,
      0.25,
      0.0,
      0.25,
      0.0,
      0.0,
      0.25,
      0.25,
      0.0,
      0.0,
      0.25,
      0.25,
      0.0,
      0.0,
      0.25,
      0.25,
      0.0,
      0.25,
      0.0,
      0.25,
      0.0,
      0.0,
      0.0,
      0.25,
      0.25,
      0.0,
      0.0,
      0.125,
      0.125,
      0.0,
      0.125,
      0.125,
      0.0,
      0.0,
      0.0,
      0.25,
      0.0,
      0.25,
      0.0,
      0.0,
      0.25,
      0.0,
      0.0,
      0.25,
      0.0,
      0.0,
      0.0,
      0.25,
      0.0,
      0.0,
      0.25,
      0.0,
      0.0,
      0.25,
      0.0,
      0.25,
      0.0,
      0.0,
      0.25,
      0.25,
      0.0,
      0.25,
      0.0,
      0.0,
      0.25,
      0.0,
      0.0,
      0.0,
      0.25,
      0.0,
      0.0,
      0.0833,
      0.1667,
      0.1667,
      0.0833,
      0.0,
      0.25
    ],
    "grid": "16th",
    "euclidean_approx": [
      32,
      32
    ],
    "swing_ratio": 1.025
  },
  "pitch": {
    "notes_used": [
      36,
      37,
      38,
      39,
      40,
      42,
      44,
      45,
      46,
      47,
      49,
      51
    ],
    "intervals": [
      6,
      3,
      4,
      13,
      10,
      6,
      2,
      3,
      1,
      2,
      9,
      5,
      3,
      1,
      10,
      6,
      3,
      1,
      10,
      6,
      3,
      1,
      4,
      3,
      1,
      2,
      9,
      5,
      3,
      6,
      5,
      4,
      3,
      2,
      0,
      1,
      1,
      0,
      11,
      4,
      2,
      3,
      7,
      8,
      9,
      5,
      3,
      9,
      2,
      8,
      9,
      2,
      3,
      3,
      7,
      6,
      2,
      9,
      5,
      3,
      9,
      10,
      10,
      6,
      3,
      1,
      4,
      3,
      9,
      10,
      1,
      10,
      5,
      3,
      2,
      11,
      10,
      5,
      12,
      6,
      6,
      3,
      4
    ],
    "register": "low",
    "is_melodic": true,
    "pitch_range": 15,
    "pitch_distribution": {
      "36": 10,
      "42": 16,
      "45": 16,
      "49": 1,
      "46": 16,
      "40": 2,
      "44": 3,
      "37": 6,
      "51": 2,
      "47": 6,
      "38": 3,
      "39": 3
    }
  },
  "velocity": {
    "mean": 37.4,
    "variance": 232.5,
    "std": 15.2,
    "accents": [
      3,
      6,
      11,
      12,
      27,
      30,
      40,
      51,
      53,
      72,
      73,
      75,
      78,
      82
    ],
    "profile": [
      36,
      43,
      24,
      87,
      28,
      48,
      68,
      21,
      36,
      30,
      25,
      72,
      54,
      34,
      26,
      33,
      38,
      21,
      38,
      46,
      47,
      34,
      25,
      34,
      28,
      45,
      27,
      64,
      50,
      25,
      58,
      41,
      29,
      35,
      32,
      32,
      27,
      31,
      32,
      41,
      77,
      46,
      32,
      18,
      40,
      19,
      26,
      35,
      36,
      3,
      38,
      66,
      33,
      56,
      34,
      16,
      30,
      25,
      17,
      35,
      33,
      14,
      40,
      37,
      45,
      34,
      34,
      39,
      28,
      26,
      34,
      31,
      69,
      55,
      29,
      60,
      51,
      32,
      57,
      14,
      25,
      31,
      65,
      31
    ]
  },
  "notes": [
    {
      "pitch": 36,
      "start_time": 0.0,
      "duration": 0.0724,
      "velocity": 36
    },
    {
      "pitch": 42,
      "start_time": 0.0,
      "duration": 0.0581,
      "velocity": 43
    },
    {
      "pitch": 45,
      "start_time": 0.0,
      "duration": 0.0715,
      "velocity": 24
    },
    {
      "pitch": 49,
      "start_time": 0.0,
      "duration": 0.0658,
      "velocity": 87
    },
    {
      "pitch": 36,
      "start_time": 0.25,
      "duration": 0.0785,
      "velocity": 28
    },
    {
      "pitch": 46,
      "start_time": 0.25,
      "duration": 0.0399,
      "velocity": 48
    },
    {
      "pitch": 40,
      "start_time": 0.5,
      "duration": 0.035,
      "velocity": 68
    },
    {
      "pitch": 42,
      "start_time": 0.5,
      "duration": 0.0734,
      "velocity": 21
    },
    {
      "pitch": 45,
      "start_time": 0.5,
      "duration": 0.0438,
      "velocity": 36
    },
    {
      "pitch": 44,
      "start_time": 0.75,
      "duration": 0.0477,
      "velocity": 30
    },
    {
      "pitch": 46,
      "start_time": 0.75,
      "duration": 0.06,
      "velocity": 25
    },
    {
      "pitch": 37,
      "start_time": 1.0,
      "duration": 0.0637,
      "velocity": 72
    },
    {
      "pitch": 42,
      "start_time": 1.0,
      "duration": 0.0589,
      "velocity": 54
    },
    {
      "pitch": 45,
      "start_time": 1.0,
      "duration": 0.0752,
      "velocity": 34
    },
    {
      "pitch": 46,
      "start_time": 1.25,
      "duration": 0.0447,
      "velocity": 26
    },
    {
      "pitch": 36,
      "start_time": 1.5,
      "duration": 0.0679,
      "velocity": 33
    },
    {
      "pitch": 42,
      "start_time": 1.5,
      "duration": 0.0559,
      "velocity": 38
    },
    {
      "pitch": 45,
      "start_time": 1.5,
      "duration": 0.1026,
      "velocity": 21
    },
    {
      "pitch": 46,
      "start_time": 1.75,
      "duration": 0.055,
      "velocity": 38
    },
    {
      "pitch": 36,
      "start_time": 2.0,
      "duration": 0.4438,
      "velocity": 46
    },
    {
      "pitch": 42,
      "start_time": 2.0,
      "duration": 0.0679,
      "velocity": 47
    },
    {
      "pitch": 45,
      "start_time": 2.0,
      "duration": 0.0539,
      "velocity": 34
    },
    {
      "pitch": 46,
      "start_time": 2.25,
      "duration": 0.0609,
      "velocity": 25
    },
    {
      "pitch": 42,
      "start_time": 2.5,
      "duration": 0.0898,
      "velocity": 34
    },
    {
      "pitch": 45,
      "start_time": 2.5,
      "duration": 0.0687,
      "velocity": 28
    },
    {
      "pitch": 44,
      "start_time": 2.75,
      "duration": 0.0884,
      "velocity": 45
    },
    {
      "pitch": 46,
      "start_time": 2.75,
      "duration": 0.0645,
      "velocity": 27
    },
    {
      "pitch": 37,
      "start_time": 3.0,
      "duration": 0.0647,
      "velocity": 64
    },
    {
      "pitch": 42,
      "start_time": 3.0,
      "duration": 0.0776,
      "velocity": 50
    },
    {
      "pitch": 45,
      "start_time": 3.0,
      "duration": 0.0962,
      "velocity": 25
    },
    {
      "pitch": 51,
      "start_time": 3.0,
      "duration": 0.0337,
      "velocity": 58
    },
    {
      "pitch": 46,
      "start_time": 3.25,
      "duration": 0.0604,
      "velocity": 41
    },
    {
      "pitch": 42,
      "start_time": 3.5,
      "duration": 0.0583,
      "velocity": 29
    },
    {
      "pitch": 45,
      "start_time": 3.5,
      "duration": 0.0638,
      "velocity": 35
    },
    {
      "pitch": 47,
      "start_time": 3.5,
      "duration": 0.125,
      "velocity": 32
    },
    {
      "pitch": 47,
      "start_time": 3.625,
      "duration": 0.125,
      "velocity": 32
    },
    {
      "pitch": 46,
      "start_time": 3.75,
      "duration": 0.0283,
      "velocity": 27
    },
    {
      "pitch": 47,
      "start_time": 3.75,
      "duration": 0.125,
      "velocity": 31
    },
    {
      "pitch": 47,
      "start_time": 3.875,
      "duration": 0.0645,
      "velocity": 32
    },
    {
      "pitch": 36,
      "start_time": 4.0,
      "duration": 0.5802,
      "velocity": 41
    },
    {
      "pitch": 40,
      "start_time": 4.0,
      "duration": 0.0422,
      "velocity": 77
    },
    {
      "pitch": 42,
      "start_time": 4.0,
      "duration": 0.0769,
      "velocity": 46
    },
    {
      "pitch": 45,
      "start_time": 4.0,
      "duration": 0.0369,
      "velocity": 32
    },
    {
      "pitch": 38,
      "start_time": 4.25,
      "duration": 0.0592,
      "velocity": 18
    },
    {
      "pitch": 46,
      "start_time": 4.25,
      "duration": 0.0364,
      "velocity": 40
    },
    {
      "pitch": 37,
      "start_time": 4.5,
      "duration": 0.0677,
      "velocity": 19
    },
    {
      "pitch": 42,
      "start_time": 4.5,
      "duration": 0.0669,
      "velocity": 26
    },
    {
      "pitch": 45,
      "start_time": 4.5,
      "duration": 0.0366,
      "velocity": 35
    },
    {
      "pitch": 36,
      "start_time": 4.75,
      "duration": 0.0927,
      "velocity": 36
    },
    {
      "pitch": 38,
      "start_time": 4.75,
      "duration": 0.0461,
      "velocity": 3
    },
    {
      "pitch": 46,
      "start_time": 4.75,
      "duration": 0.0554,
      "velocity": 38
    },
    {
      "pitch": 37,
      "start_time": 5.0,
      "duration": 0.0459,
      "velocity": 66
    },
    {
      "pitch": 39,
      "start_time": 5.0,
      "duration": 0.062,
      "velocity": 33
    },
    {
      "pitch": 42,
      "start_time": 5.0,
      "duration": 0.067,
      "velocity": 56
    },
    {
      "pitch": 45,
      "start_time": 5.0,
      "duration": 0.0652,
      "velocity": 34
    },
    {
      "pitch": 38,
      "start_time": 5.25,
      "duration": 0.0672,
      "velocity": 16
    },
    {
      "pitch": 44,
      "start_time": 5.25,
      "duration": 0.0615,
      "velocity": 30
    },
    {
      "pitch": 46,
      "start_time": 5.25,
      "duration": 0.0532,
      "velocity": 25
    },
    {
      "pitch": 37,
      "start_time": 5.5,
      "duration": 0.048,
      "velocity": 17
    },
    {
      "pitch": 42,
      "start_time": 5.5,
      "duration": 0.0741,
      "velocity": 35
    },
    {
      "pitch": 45,
      "start_time": 5.5,
      "duration": 0.042,
      "velocity": 33
    },
    {
      "pitch": 36,
      "start_time": 5.75,
      "duration": 0.0326,
      "velocity": 14
    },
    {
      "pitch": 46,
      "start_time": 5.75,
      "duration": 0.0487,
      "velocity": 40
    },
    {
      "pitch": 36,
      "start_time": 6.0,
      "duration": 0.5,
      "velocity": 37
    },
    {
      "pitch": 42,
      "start_time": 6.0,
      "duration": 0.0583,
      "velocity": 45
    },
    {
      "pitch": 45,
      "start_time": 6.0,
      "duration": 0.0456,
      "velocity": 34
    },
    {
      "pitch": 46,
      "start_time": 6.25,
      "duration": 0.0448,
      "velocity": 34
    },
    {
      "pitch": 42,
      "start_time": 6.5,
      "duration": 0.0792,
      "velocity": 39
    },
    {
      "pitch": 45,
      "start_time": 6.5,
      "duration": 0.0489,
      "velocity": 28
    },
    {
      "pitch": 36,
      "start_time": 6.75,
      "duration": 0.0732,
      "velocity": 26
    },
    {
      "pitch": 46,
      "start_time": 6.75,
      "duration": 0.0396,
      "velocity": 34
    },
    {
      "pitch": 47,
      "start_time": 6.75,
      "duration": 0.0327,
      "velocity": 31
    },
    {
      "pitch": 37,
      "start_time": 7.0,
      "duration": 0.0553,
      "velocity": 69
    },
    {
      "pitch": 42,
      "start_time": 7.0,
      "duration": 0.0716,
      "velocity": 55
    },
    {
      "pitch": 45,
      "start_time": 7.0,
      "duration": 0.071,
      "velocity": 29
    },
    {
      "pitch": 47,
      "start_time": 7.0,
      "duration": 0.0796,
      "velocity": 60
    },
    {
      "pitch": 36,
      "start_time": 7.25,
      "duration": 0.1157,
      "velocity": 51
    },
    {
      "pitch": 46,
      "start_time": 7.25,
      "duration": 0.0458,
      "velocity": 32
    },
    {
      "pitch": 51,
      "start_time": 7.25,
      "duration": 0.0631,
      "velocity": 57
    },
    {
      "pitch": 39,
      "start_time": 7.3333,
      "duration": 0.3333,
      "velocity": 14
    },
    {
      "pitch": 45,
      "start_time": 7.5,
      "duration": 0.07,
      "velocity": 25
    },
    {
      "pitch": 39,
      "start_time": 7.6667,
      "duration": 0.165,
      "velocity": 31
    },
    {
      "pitch": 42,
      "start_time": 7.75,
      "duration": 0.055,
      "velocity": 65
    },
    {
      "pitch": 46,
      "start_time": 7.75,
      "duration": 0.0352,
      "velocity": 31
    }
  ]
}