{
  "source": {
    "song": "packs",
    "track_index": 0,
    "track_name": "Drum Essentials / MIDI Clips / 91 - 110 bpm / Rockhaven Kit groove 08_110 bpm",
    "slot_index": 0,
    "clip_name": "Drum Essentials / MIDI Clips / 91 - 110 bpm / Rockhaven Kit groove 08_110 bpm",
    "mid_file": "/Users/darnold/Music/Ableton/Packs/Drum Essentials/MIDI Clips/91 - 110 bpm/Rockhaven Kit groove 08_110 bpm.alc"
  },
  "meta": {
    "bpm": 110.0,
    "key": "?",
    "scale": "?",
    "length_beats": 8.0,
    "note_count": 31
  },
  "rhythm": {
    "density": 1.25,
    "hit_positions": [
      0.0,
      0.0,
      0.5,
      1.0,
      1.0,
      1.5,
      1.75,
      2.0,
      2.25,
      2.5,
      2.5,
      3.0,
      3.0,
      3.5,
      3.5,
      4.0,
      4.0,
      4.5,
      5.0,
      5.0,
      5.5,
      5.75,
      6.0,
      6.0,
      6.25,
      6.5,
      6.5,
      7.0,
      7.0,
      7.5,
      7.5
    ],
    "ioi": [
      0.0,
      0.5,
      0.5,
      0.0,
      0.5,
      0.25,
      0.25,
      0.25,
      0.25,
      0.0,
      0.5,
      0.0,
      0.5,
      0.0,
      0.5,
      0.0,
      0.5,
      0.5,
      0.0,
      0.5,
      0.25,
      0.25,
      0.0,
      0.25,
      0.25,
      0.0,
      0.5,
      0.0,
      0.5,
      0.0,
      0.5
    ],
    "grid": "8th",
    "euclidean_approx": [
      31,
      32
    ],
    "swing_ratio": 1.0
  },
  "pitch": {
    "notes_used": [
      36,
      38,
      40,
      42,
      46
    ],
    "intervals": [
      6,
      0,
      4,
      4,
      0,
      2,
      2,
      2,
      4,
      6,
      4,
      4,
      6,
      6,
      6,
      6,
      0,
      4,
      4,
      0,
      2,
      4,
      6,
      2,
      4,
      6,
      4,
      4,
      6,
      10
    ],
    "register": "low",
    "is_melodic": true,
    "pitch_range": 10,
    "pitch_distribution": {
      "36": 7,
      "42": 15,
      "38": 4,
      "40": 4,
      "46": 1
    }
  },
  "velocity": {
    "mean": 36.0,
    "variance": 475.3,
    "std": 21.8,
    "accents": [
      3,
      11,
      18,
      27,
      30
    ],
    "profile": [
      37,
      24,
      13,
      83,
      47,
      18,
      35,
      15,
      19,
      27,
      22,
      80,
      36,
      25,
      22,
      50,
      32,
      14,
      83,
      45,
      15,
      46,
      2,
      22,
      23,
      31,
      26,
      80,
      38,
      39,
      68
    ]
  },
  "notes": [
    {
      "pitch": 36,
      "start_time": 0.0,
      "duration": 0.0944,
      "velocity": 37
    },
    {
      "pitch": 42,
      "start_time": 0.0,
      "duration": 0.0734,
      "velocity": 24
    },
    {
      "pitch": 42,
      "start_time": 0.5,
      "duration": 0.0427,
      "velocity": 13
    },
    {
      "pitch": 38,
      "start_time": 1.0,
      "duration": 0.0671,
      "velocity": 83
    },
    {
      "pitch": 42,
      "start_time": 1.0,
      "duration": 0.0652,
      "velocity": 47
    },
    {
      "pitch": 42,
      "start_time": 1.5,
      "duration": 0.1059,
      "velocity": 18
    },
    {
      "pitch": 40,
      "start_time": 1.75,
      "duration": 0.0773,
      "velocity": 35
    },
    {
      "pitch": 42,
      "start_time": 2.0,
      "duration": 0.0498,
      "velocity": 15
    },
    {
      "pitch": 40,
      "start_time": 2.25,
      "duration": 0.0401,
      "velocity": 19
    },
    {
      "pitch": 36,
      "start_time": 2.5,
      "duration": 0.0884,
      "velocity": 27
    },
    {
      "pitch": 42,
      "start_time": 2.5,
      "duration": 0.1019,
      "velocity": 22
    },
    {
      "pitch": 38,
      "start_time": 3.0,
      "duration": 0.0749,
      "velocity": 80
    },
    {
      "pitch": 42,
      "start_time": 3.0,
      "duration": 0.0432,
      "velocity": 36
    },
    {
      "pitch": 36,
      "start_time": 3.5,
      "duration": 0.0469,
      "velocity": 25
    },
    {
      "pitch": 42,
      "start_time": 3.5,
      "duration": 0.0605,
      "velocity": 22
    },
    {
      "pitch": 36,
      "start_time": 4.0,
      "duration": 0.0838,
      "velocity": 50
    },
    {
      "pitch": 42,
      "start_time": 4.0,
      "duration": 0.0833,
      "velocity": 32
    },
    {
      "pitch": 42,
      "start_time": 4.5,
      "duration": 0.0271,
      "velocity": 14
    },
    {
      "pitch": 38,
      "start_time": 5.0,
      "duration": 0.0662,
      "velocity": 83
    },
    {
      "pitch": 42,
      "start_time": 5.0,
      "duration": 0.0561,
      "velocity": 45
    },
    {
      "pitch": 42,
      "start_time": 5.5,
      "duration": 0.0398,
      "velocity": 15
    },
    {
      "pitch": 40,
      "start_time": 5.75,
      "duration": 0.0884,
      "velocity": 46
    },
    {
      "pitch": 36,
      "start_time": 6.0,
      "duration": 0.008,
      "velocity": 2
    },
    {
      "pitch": 42,
      "start_time": 6.0,
      "duration": 0.0978,
      "velocity": 22
    },
    {
      "pitch": 40,
      "start_time": 6.25,
      "duration": 0.0772,
      "velocity": 23
    },
    {
      "pitch": 36,
      "start_time": 6.5,
      "duration": 0.0541,
      "velocity": 31
    },
    {
      "pitch": 42,
      "start_time": 6.5,
      "duration": 0.0903,
      "velocity": 26
    },
    {
      "pitch": 38,
      "start_time": 7.0,
      "duration": 0.0838,
      "velocity": 80
    },
    {
      "pitch": 42,
      "start_time": 7.0,
      "duration": 0.0517,
      "velocity": 38
    },
    {
      "pitch": 36,
      "start_time": 7.5,
      "duration": 0.0804,
      "velocity": 39
    },
    {
      "pitch": 46,
      "start_time": 7.5,
      "duration": 0.0923,
      "velocity": 68
    }
  ]
}