{
  "source": {
    "song": "packs",
    "track_index": 0,
    "track_name": "Drum Essentials / MIDI Clips / 111 - 130 bpm / One Hit Kit groove 01_117 bpm",
    "slot_index": 0,
    "clip_name": "Drum Essentials / MIDI Clips / 111 - 130 bpm / One Hit Kit groove 01_117 bpm",
    "mid_file": "/Users/darnold/Music/Ableton/Packs/Drum Essentials/MIDI Clips/111 - 130 bpm/One Hit Kit groove 01_117 bpm.alc"
  },
  "meta": {
    "bpm": 117.0,
    "key": "?",
    "scale": "?",
    "length_beats": 8.0,
    "note_count": 60
  },
  "rhythm": {
    "density": 1.562,
    "hit_positions": [
      0.0,
      0.0,
      0.0,
      0.5,
      0.75,
      1.0,
      1.0,
      1.0,
      1.5,
      1.5,
      2.0,
      2.25,
      2.25,
      2.25,
      2.25,
      2.75,
      2.75,
      2.75,
      3.0,
      3.0,
      3.0,
      3.25,
      3.5,
      3.5,
      3.75,
      4.0,
      4.0,
      4.0,
      4.25,
      4.5,
      4.75,
      4.75,
      4.75,
      5.0,
      5.0,
      5.0,
      5.5,
      5.5,
      5.5,
      6.0,
      6.25,
      6.25,
      6.25,
      6.25,
      6.75,
      6.75,
      6.75,
      7.0,
      7.0,
      7.0,
      7.25,
      7.25,
      7.25,
      7.25,
      7.5,
      7.5,
      7.5,
      7.5,
      7.75,
      7.75
    ],
    "ioi": [
      0.0,
      0.0,
      0.5,
      0.25,
      0.25,
      0.0,
      0.0,
      0.5,
      0.0,
      0.5,
      0.25,
      0.0,
      0.0,
      0.0,
      0.5,
      0.0,
      0.0,
      0.25,
      0.0,
      0.0,
      0.25,
      0.25,
      0.0,
      0.25,
      0.25,
      0.0,
      0.0,
      0.25,
      0.25,
      0.25,
      0.0,
      0.0,
      0.25,
      0.0,
      0.0,
      0.5,
      0.0,
      0.0,
      0.5,
      0.25,
      0.0,
      0.0,
      0.0,
      0.5,
      0.0,
      0.0,
      0.25,
      0.0,
      0.0,
      0.25,
      0.0,
      0.0,
      0.0,
      0.25,
      0.0,
      0.0,
      0.0,
      0.25,
      0.0,
      0.25
    ],
    "grid": "8th",
    "euclidean_approx": [
      32,
      32
    ],
    "swing_ratio": 1.0
  },
  "pitch": {
    "notes_used": [
      37,
      38,
      39,
      41,
      42,
      43,
      44,
      45,
      46,
      49,
      50
    ],
    "intervals": [
      1,
      1,
      1,
      1,
      3,
      4,
      2,
      3,
      5,
      4,
      1,
      1,
      2,
      1,
      3,
      2,
      1,
      8,
      2,
      10,
      7,
      3,
      1,
      1,
      4,
      1,
      1,
      1,
      0,
      1,
      1,
      1,
      5,
      4,
      2,
      3,
      2,
      3,
      4,
      1,
      1,
      2,
      1,
      3,
      2,
      1,
      8,
      2,
      11,
      8,
      2,
      1,
      5,
      6,
      1,
      1,
      4,
      6,
      1
    ],
    "register": "low",
    "is_melodic": true,
    "pitch_range": 13,
    "pitch_distribution": {
      "41": 8,
      "42": 16,
      "43": 4,
      "38": 2,
      "44": 9,
      "46": 4,
      "45": 9,
      "37": 2,
      "39": 2,
      "49": 1,
      "50": 3
    }
  },
  "velocity": {
    "mean": 107.3,
    "variance": 973.3,
    "std": 31.2,
    "accents": [],
    "profile": [
      127,
      125,
      127,
      20,
      126,
      125,
      126,
      126,
      125,
      124,
      31,
      125,
      54,
      124,
      124,
      118,
      126,
      127,
      126,
      125,
      127,
      25,
      38,
      124,
      124,
      125,
      65,
      126,
      77,
      90,
      125,
      69,
      125,
      125,
      117,
      125,
      125,
      125,
      124,
      23,
      125,
      67,
      125,
      125,
      94,
      125,
      127,
      126,
      125,
      124,
      52,
      77,
      97,
      124,
      106,
      124,
      99,
      124,
      111,
      124
    ]
  },
  "notes": [
    {
      "pitch": 41,
      "start_time": 0.0,
      "duration": 0.075,
      "velocity": 127
    },
    {
      "pitch": 42,
      "start_time": 0.0,
      "duration": 0.1195,
      "velocity": 125
    },
    {
      "pitch": 43,
      "start_time": 0.0,
      "duration": 0.0902,
      "velocity": 127
    },
    {
      "pitch": 42,
      "start_time": 0.5,
      "duration": 0.0872,
      "velocity": 20
    },
    {
      "pitch": 41,
      "start_time": 0.75,
      "duration": 0.0974,
      "velocity": 126
    },
    {
      "pitch": 38,
      "start_time": 1.0,
      "duration": 0.1642,
      "velocity": 125
    },
    {
      "pitch": 42,
      "start_time": 1.0,
      "duration": 0.2148,
      "velocity": 126
    },
    {
      "pitch": 44,
      "start_time": 1.0,
      "duration": 0.0857,
      "velocity": 126
    },
    {
      "pitch": 41,
      "start_time": 1.5,
      "duration": 0.0887,
      "velocity": 125
    },
    {
      "pitch": 46,
      "start_time": 1.5,
      "duration": 0.1334,
      "velocity": 124
    },
    {
      "pitch": 42,
      "start_time": 2.0,
      "duration": 0.0696,
      "velocity": 31
    },
    {
      "pitch": 41,
      "start_time": 2.25,
      "duration": 0.0813,
      "velocity": 125
    },
    {
      "pitch": 42,
      "start_time": 2.25,
      "duration": 0.1333,
      "velocity": 54
    },
    {
      "pitch": 44,
      "start_time": 2.25,
      "duration": 0.09,
      "velocity": 124
    },
    {
      "pitch": 45,
      "start_time": 2.25,
      "duration": 0.1079,
      "velocity": 124
    },
    {
      "pitch": 42,
      "start_time": 2.75,
      "duration": 0.1443,
      "velocity": 118
    },
    {
      "pitch": 44,
      "start_time": 2.75,
      "duration": 0.0783,
      "velocity": 126
    },
    {
      "pitch": 45,
      "start_time": 2.75,
      "duration": 0.1004,
      "velocity": 127
    },
    {
      "pitch": 37,
      "start_time": 3.0,
      "duration": 0.0799,
      "velocity": 126
    },
    {
      "pitch": 39,
      "start_time": 3.0,
      "duration": 0.1468,
      "velocity": 125
    },
    {
      "pitch": 49,
      "start_time": 3.0,
      "duration": 0.0795,
      "velocity": 127
    },
    {
      "pitch": 42,
      "start_time": 3.25,
      "duration": 0.0704,
      "velocity": 25
    },
    {
      "pitch": 45,
      "start_time": 3.5,
      "duration": 0.0454,
      "velocity": 38
    },
    {
      "pitch": 46,
      "start_time": 3.5,
      "duration": 0.084,
      "velocity": 124
    },
    {
      "pitch": 45,
      "start_time": 3.75,
      "duration": 0.052,
      "velocity": 124
    },
    {
      "pitch": 41,
      "start_time": 4.0,
      "duration": 0.0909,
      "velocity": 125
    },
    {
      "pitch": 42,
      "start_time": 4.0,
      "duration": 0.0894,
      "velocity": 65
    },
    {
      "pitch": 43,
      "start_time": 4.0,
      "duration": 0.1121,
      "velocity": 126
    },
    {
      "pitch": 42,
      "start_time": 4.25,
      "duration": 0.0899,
      "velocity": 77
    },
    {
      "pitch": 42,
      "start_time": 4.5,
      "duration": 0.0871,
      "velocity": 90
    },
    {
      "pitch": 41,
      "start_time": 4.75,
      "duration": 0.0952,
      "velocity": 125
    },
    {
      "pitch": 42,
      "start_time": 4.75,
      "duration": 0.0725,
      "velocity": 69
    },
    {
      "pitch": 43,
      "start_time": 4.75,
      "duration": 0.1092,
      "velocity": 125
    },
    {
      "pitch": 38,
      "start_time": 5.0,
      "duration": 0.1582,
      "velocity": 125
    },
    {
      "pitch": 42,
      "start_time": 5.0,
      "duration": 0.1289,
      "velocity": 117
    },
    {
      "pitch": 44,
      "start_time": 5.0,
      "duration": 0.0784,
      "velocity": 125
    },
    {
      "pitch": 41,
      "start_time": 5.5,
      "duration": 0.1025,
      "velocity": 125
    },
    {
      "pitch": 43,
      "start_time": 5.5,
      "duration": 0.1048,
      "velocity": 125
    },
    {
      "pitch": 46,
      "start_time": 5.5,
      "duration": 0.1275,
      "velocity": 124
    },
    {
      "pitch": 42,
      "start_time": 6.0,
      "duration": 0.0653,
      "velocity": 23
    },
    {
      "pitch": 41,
      "start_time": 6.25,
      "duration": 0.1019,
      "velocity": 125
    },
    {
      "pitch": 42,
      "start_time": 6.25,
      "duration": 0.129,
      "velocity": 67
    },
    {
      "pitch": 44,
      "start_time": 6.25,
      "duration": 0.1042,
      "velocity": 125
    },
    {
      "pitch": 45,
      "start_time": 6.25,
      "duration": 0.1038,
      "velocity": 125
    },
    {
      "pitch": 42,
      "start_time": 6.75,
      "duration": 0.0997,
      "velocity": 94
    },
    {
      "pitch": 44,
      "start_time": 6.75,
      "duration": 0.1114,
      "velocity": 125
    },
    {
      "pitch": 45,
      "start_time": 6.75,
      "duration": 0.0961,
      "velocity": 127
    },
    {
      "pitch": 37,
      "start_time": 7.0,
      "duration": 0.1152,
      "velocity": 126
    },
    {
      "pitch": 39,
      "start_time": 7.0,
      "duration": 0.2232,
      "velocity": 125
    },
    {
      "pitch": 50,
      "start_time": 7.0,
      "duration": 0.0637,
      "velocity": 124
    },
    {
      "pitch": 42,
      "start_time": 7.25,
      "duration": 0.0712,
      "velocity": 52
    },
    {
      "pitch": 44,
      "start_time": 7.25,
      "duration": 0.0442,
      "velocity": 77
    },
    {
      "pitch": 45,
      "start_time": 7.25,
      "duration": 0.0515,
      "velocity": 97
    },
    {
      "pitch": 50,
      "start_time": 7.25,
      "duration": 0.0461,
      "velocity": 124
    },
    {
      "pitch": 44,
      "start_time": 7.5,
      "duration": 0.056,
      "velocity": 106
    },
    {
      "pitch": 45,
      "start_time": 7.5,
      "duration": 0.0578,
      "velocity": 124
    },
    {
      "pitch": 46,
      "start_time": 7.5,
      "duration": 0.1099,
      "velocity": 99
    },
    {
      "pitch": 50,
      "start_time": 7.5,
      "duration": 0.0826,
      "velocity": 124
    },
    {
      "pitch": 44,
      "start_time": 7.75,
      "duration": 0.0858,
      "velocity": 111
    },
    {
      "pitch": 45,
      "start_time": 7.75,
      "duration": 0.0681,
      "velocity": 124
    }
  ]
}