{
  "source": {
    "song": "packs",
    "track_index": 0,
    "track_name": "Drum Essentials / MIDI Clips / 131 - 160 bpm / Lit Kit groove 03_141 bpm",
    "slot_index": 0,
    "clip_name": "Drum Essentials / MIDI Clips / 131 - 160 bpm / Lit Kit groove 03_141 bpm",
    "mid_file": "/Users/darnold/Music/Ableton/Packs/Drum Essentials/MIDI Clips/131 - 160 bpm/Lit Kit groove 03_141 bpm.alc"
  },
  "meta": {
    "bpm": 141.0,
    "key": "?",
    "scale": "?",
    "length_beats": 8.0,
    "note_count": 41
  },
  "rhythm": {
    "density": 0.719,
    "hit_positions": [
      0.0,
      0.0,
      0.0,
      0.0255,
      0.0297,
      0.0834,
      0.5,
      1.0,
      1.5,
      2.0,
      2.0,
      2.5,
      3.0,
      3.5,
      3.5,
      3.5,
      3.5533,
      4.0,
      4.5,
      4.5,
      4.5,
      4.875,
      5.0,
      5.0,
      5.0,
      5.125,
      5.25,
      5.375,
      5.5,
      6.0,
      6.0,
      6.0,
      6.0,
      6.5,
      6.5,
      7.0,
      7.0,
      7.0,
      7.5,
      7.5,
      7.75
    ],
    "ioi": [
      0.0,
      0.0,
      0.0255,
      0.0042,
      0.0537,
      0.4166,
      0.5,
      0.5,
      0.5,
      0.0,
      0.5,
      0.5,
      0.5,
      0.0,
      0.0,
      0.0533,
      0.4467,
      0.5,
      0.0,
      0.0,
      0.375,
      0.125,
      0.0,
      0.0,
      0.125,
      0.125,
      0.125,
      0.125,
      0.5,
      0.0,
      0.0,
      0.0,
      0.5,
      0.0,
      0.5,
      0.0,
      0.0,
      0.5,
      0.0,
      0.25,
      0.25
    ],
    "grid": "16th",
    "euclidean_approx": [
      32,
      32
    ],
    "swing_ratio": 1.25
  },
  "pitch": {
    "notes_used": [
      36,
      37,
      40,
      41,
      42,
      47,
      51,
      53
    ],
    "intervals": [
      4,
      2,
      5,
      4,
      2,
      11,
      0,
      0,
      5,
      5,
      0,
      0,
      6,
      4,
      2,
      5,
      5,
      6,
      4,
      2,
      0,
      6,
      4,
      2,
      0,
      0,
      0,
      0,
      5,
      3,
      1,
      1,
      1,
      1,
      2,
      1,
      1,
      1,
      1,
      1
    ],
    "register": "low",
    "is_melodic": true,
    "pitch_range": 17,
    "pitch_distribution": {
      "36": 4,
      "40": 6,
      "42": 20,
      "47": 2,
      "51": 1,
      "53": 1,
      "37": 2,
      "41": 5
    }
  },
  "velocity": {
    "mean": 88.3,
    "variance": 20.5,
    "std": 4.5,
    "accents": [
      5,
      9,
      16,
      29,
      35
    ],
    "profile": [
      88,
      89,
      84,
      89,
      79,
      96,
      90,
      90,
      90,
      96,
      90,
      90,
      89,
      89,
      90,
      89,
      94,
      89,
      81,
      82,
      88,
      88,
      87,
      90,
      89,
      89,
      90,
      90,
      90,
      94,
      90,
      75,
      83,
      89,
      91,
      93,
      87,
      90,
      90,
      90,
      75
    ]
  },
  "notes": [
    {
      "pitch": 36,
      "start_time": 0.0,
      "duration": 1.5267,
      "velocity": 88
    },
    {
      "pitch": 40,
      "start_time": 0.0,
      "duration": 1.5541,
      "velocity": 89
    },
    {
      "pitch": 42,
      "start_time": 0.0,
      "duration": 0.5,
      "velocity": 84
    },
    {
      "pitch": 47,
      "start_time": 0.0255,
      "duration": 0.0684,
      "velocity": 89
    },
    {
      "pitch": 51,
      "start_time": 0.0297,
      "duration": 0.0523,
      "velocity": 79
    },
    {
      "pitch": 53,
      "start_time": 0.0834,
      "duration": 0.0773,
      "velocity": 96
    },
    {
      "pitch": 42,
      "start_time": 0.5,
      "duration": 0.5,
      "velocity": 90
    },
    {
      "pitch": 42,
      "start_time": 1.0,
      "duration": 0.5,
      "velocity": 90
    },
    {
      "pitch": 42,
      "start_time": 1.5,
      "duration": 0.5,
      "velocity": 90
    },
    {
      "pitch": 37,
      "start_time": 2.0,
      "duration": 0.091,
      "velocity": 96
    },
    {
      "pitch": 42,
      "start_time": 2.0,
      "duration": 0.5,
      "velocity": 90
    },
    {
      "pitch": 42,
      "start_time": 2.5,
      "duration": 0.5,
      "velocity": 90
    },
    {
      "pitch": 42,
      "start_time": 3.0,
      "duration": 0.5,
      "velocity": 89
    },
    {
      "pitch": 36,
      "start_time": 3.5,
      "duration": 0.4673,
      "velocity": 89
    },
    {
      "pitch": 40,
      "start_time": 3.5,
      "duration": 0.5059,
      "velocity": 90
    },
    {
      "pitch": 42,
      "start_time": 3.5,
      "duration": 0.5,
      "velocity": 89
    },
    {
      "pitch": 47,
      "start_time": 3.5533,
      "duration": 0.0773,
      "velocity": 94
    },
    {
      "pitch": 42,
      "start_time": 4.0,
      "duration": 0.5,
      "velocity": 89
    },
    {
      "pitch": 36,
      "start_time": 4.5,
      "duration": 0.1231,
      "velocity": 81
    },
    {
      "pitch": 40,
      "start_time": 4.5,
      "duration": 0.1302,
      "velocity": 82
    },
    {
      "pitch": 42,
      "start_time": 4.5,
      "duration": 0.375,
      "velocity": 88
    },
    {
      "pitch": 42,
      "start_time": 4.875,
      "duration": 0.125,
      "velocity": 88
    },
    {
      "pitch": 36,
      "start_time": 5.0,
      "duration": 0.4994,
      "velocity": 87
    },
    {
      "pitch": 40,
      "start_time": 5.0,
      "duration": 0.6063,
      "velocity": 90
    },
    {
      "pitch": 42,
      "start_time": 5.0,
      "duration": 0.125,
      "velocity": 89
    },
    {
      "pitch": 42,
      "start_time": 5.125,
      "duration": 0.125,
      "velocity": 89
    },
    {
      "pitch": 42,
      "start_time": 5.25,
      "duration": 0.125,
      "velocity": 90
    },
    {
      "pitch": 42,
      "start_time": 5.375,
      "duration": 0.125,
      "velocity": 90
    },
    {
      "pitch": 42,
      "start_time": 5.5,
      "duration": 0.1151,
      "velocity": 90
    },
    {
      "pitch": 37,
      "start_time": 6.0,
      "duration": 0.1231,
      "velocity": 94
    },
    {
      "pitch": 40,
      "start_time": 6.0,
      "duration": 0.513,
      "velocity": 90
    },
    {
      "pitch": 41,
      "start_time": 6.0,
      "duration": 0.25,
      "velocity": 75
    },
    {
      "pitch": 42,
      "start_time": 6.0,
      "duration": 0.5,
      "velocity": 83
    },
    {
      "pitch": 41,
      "start_time": 6.5,
      "duration": 0.1254,
      "velocity": 89
    },
    {
      "pitch": 42,
      "start_time": 6.5,
      "duration": 0.5,
      "velocity": 91
    },
    {
      "pitch": 40,
      "start_time": 7.0,
      "duration": 0.4833,
      "velocity": 93
    },
    {
      "pitch": 41,
      "start_time": 7.0,
      "duration": 0.1117,
      "velocity": 87
    },
    {
      "pitch": 42,
      "start_time": 7.0,
      "duration": 0.5,
      "velocity": 90
    },
    {
      "pitch": 41,
      "start_time": 7.5,
      "duration": 0.1438,
      "velocity": 90
    },
    {
      "pitch": 42,
      "start_time": 7.5,
      "duration": 0.3478,
      "velocity": 90
    },
    {
      "pitch": 41,
      "start_time": 7.75,
      "duration": 0.25,
      "velocity": 75
    }
  ]
}