{
  "source": {
    "song": "packs",
    "track_index": 0,
    "track_name": "Drum Essentials / MIDI Clips / 91 - 110 bpm / Crackin Kit groove 06_105 bpm",
    "slot_index": 0,
    "clip_name": "Drum Essentials / MIDI Clips / 91 - 110 bpm / Crackin Kit groove 06_105 bpm",
    "mid_file": "/Users/darnold/Music/Ableton/Packs/Drum Essentials/MIDI Clips/91 - 110 bpm/Crackin Kit groove 06_105 bpm.alc"
  },
  "meta": {
    "bpm": 105.0,
    "key": "?",
    "scale": "?",
    "length_beats": 8.0,
    "note_count": 78
  },
  "rhythm": {
    "density": 1.344,
    "hit_positions": [
      0.0,
      0.0,
      0.0,
      0.0,
      0.0,
      0.25,
      0.4896,
      0.5,
      0.5,
      0.75,
      1.0,
      1.0104,
      1.25,
      1.4896,
      1.5,
      1.5,
      1.75,
      2.0,
      2.0208,
      2.125,
      2.25,
      2.375,
      2.5,
      2.5,
      2.5,
      2.625,
      2.75,
      2.875,
      3.0,
      3.0,
      3.125,
      3.2396,
      3.25,
      3.375,
      3.4896,
      3.5,
      3.6667,
      3.8333,
      3.9896,
      3.9896,
      4.0,
      4.0208,
      4.25,
      4.4583,
      4.4896,
      4.4896,
      4.5,
      4.7396,
      4.7396,
      4.75,
      4.9896,
      5.0,
      5.0,
      5.25,
      5.4896,
      5.4896,
      5.4896,
      5.5,
      5.5312,
      5.75,
      6.0,
      6.0,
      6.0,
      6.25,
      6.5,
      6.5,
      6.75,
      7.0,
      7.0104,
      7.25,
      7.25,
      7.375,
      7.5,
      7.5,
      7.625,
      7.7292,
      7.75,
      7.875
    ],
    "ioi": [
      0.0,
      0.0,
      0.0,
      0.0,
      0.25,
      0.2396,
      0.0104,
      0.0,
      0.25,
      0.25,
      0.0104,
      0.2396,
      0.2396,
      0.0104,
      0.0,
      0.25,
      0.25,
      0.0208,
      0.1042,
      0.125,
      0.125,
      0.125,
      0.0,
      0.0,
      0.125,
      0.125,
      0.125,
      0.125,
      0.0,
      0.125,
      0.1146,
      0.0104,
      0.125,
      0.1146,
      0.0104,
      0.1667,
      0.1666,
      0.1563,
      0.0,
      0.0104,
      0.0208,
      0.2292,
      0.2083,
      0.0313,
      0.0,
      0.0104,
      0.2396,
      0.0,
      0.0104,
      0.2396,
      0.0104,
      0.0,
      0.25,
      0.2396,
      0.0,
      0.0,
      0.0104,
      0.0312,
      0.2188,
      0.25,
      0.0,
      0.0,
      0.25,
      0.25,
      0.0,
      0.25,
      0.25,
      0.0104,
      0.2396,
      0.0,
      0.125,
      0.125,
      0.0,
      0.125,
      0.1042,
      0.0208,
      0.125,
      0.125
    ],
    "grid": "16th",
    "euclidean_approx": [
      32,
      32
    ],
    "swing_ratio": 1.418
  },
  "pitch": {
    "notes_used": [
      36,
      37,
      38,
      40,
      42,
      44,
      47,
      48,
      54,
      55,
      58,
      59
    ],
    "intervals": [
      4,
      2,
      5,
      7,
      12,
      5,
      5,
      6,
      6,
      0,
      5,
      5,
      5,
      9,
      4,
      0,
      0,
      5,
      5,
      0,
      0,
      6,
      6,
      5,
      5,
      0,
      0,
      0,
      5,
      5,
      6,
      6,
      0,
      5,
      5,
      0,
      0,
      6,
      11,
      5,
      12,
      12,
      5,
      11,
      4,
      2,
      2,
      4,
      6,
      5,
      5,
      13,
      13,
      4,
      4,
      5,
      5,
      17,
      17,
      0,
      5,
      11,
      16,
      0,
      5,
      5,
      0,
      5,
      10,
      5,
      0,
      0,
      5,
      5,
      6,
      6,
      0
    ],
    "register": "low",
    "is_melodic": true,
    "pitch_range": 23,
    "pitch_distribution": {
      "36": 6,
      "40": 2,
      "42": 43,
      "47": 16,
      "54": 2,
      "48": 2,
      "38": 2,
      "44": 1,
      "55": 1,
      "59": 1,
      "58": 1,
      "37": 1
    }
  },
  "velocity": {
    "mean": 63.5,
    "variance": 906.5,
    "std": 30.1,
    "accents": [
      0,
      1,
      4,
      8,
      11,
      14,
      22,
      31,
      38,
      41,
      47,
      48,
      52,
      54,
      55,
      58,
      61,
      68
    ],
    "profile": [
      110,
      121,
      70,
      81,
      109,
      41,
      43,
      42,
      99,
      39,
      48,
      94,
      25,
      40,
      127,
      37,
      66,
      48,
      72,
      68,
      39,
      37,
      106,
      38,
      33,
      40,
      38,
      36,
      37,
      81,
      42,
      94,
      41,
      40,
      26,
      84,
      48,
      48,
      127,
      80,
      45,
      112,
      63,
      29,
      73,
      47,
      34,
      107,
      126,
      52,
      87,
      22,
      97,
      21,
      127,
      127,
      56,
      49,
      100,
      43,
      34,
      94,
      62,
      36,
      61,
      60,
      63,
      60,
      104,
      17,
      56,
      49,
      48,
      59,
      51,
      89,
      47,
      48
    ]
  },
  "notes": [
    {
      "pitch": 36,
      "start_time": 0.0,
      "duration": 0.0938,
      "velocity": 110
    },
    {
      "pitch": 40,
      "start_time": 0.0,
      "duration": 0.0938,
      "velocity": 121
    },
    {
      "pitch": 42,
      "start_time": 0.0,
      "duration": 0.25,
      "velocity": 70
    },
    {
      "pitch": 47,
      "start_time": 0.0,
      "duration": 0.0417,
      "velocity": 81
    },
    {
      "pitch": 54,
      "start_time": 0.0,
      "duration": 1.0938,
      "velocity": 109
    },
    {
      "pitch": 42,
      "start_time": 0.25,
      "duration": 0.25,
      "velocity": 41
    },
    {
      "pitch": 47,
      "start_time": 0.4896,
      "duration": 0.0521,
      "velocity": 43
    },
    {
      "pitch": 42,
      "start_time": 0.5,
      "duration": 0.25,
      "velocity": 42
    },
    {
      "pitch": 48,
      "start_time": 0.5,
      "duration": 0.1354,
      "velocity": 99
    },
    {
      "pitch": 42,
      "start_time": 0.75,
      "duration": 0.2396,
      "velocity": 39
    },
    {
      "pitch": 42,
      "start_time": 1.0,
      "duration": 0.0729,
      "velocity": 48
    },
    {
      "pitch": 47,
      "start_time": 1.0104,
      "duration": 0.0521,
      "velocity": 94
    },
    {
      "pitch": 42,
      "start_time": 1.25,
      "duration": 0.25,
      "velocity": 25
    },
    {
      "pitch": 47,
      "start_time": 1.4896,
      "duration": 0.0833,
      "velocity": 40
    },
    {
      "pitch": 38,
      "start_time": 1.5,
      "duration": 0.0625,
      "velocity": 127
    },
    {
      "pitch": 42,
      "start_time": 1.5,
      "duration": 0.25,
      "velocity": 37
    },
    {
      "pitch": 42,
      "start_time": 1.75,
      "duration": 0.25,
      "velocity": 66
    },
    {
      "pitch": 42,
      "start_time": 2.0,
      "duration": 0.125,
      "velocity": 48
    },
    {
      "pitch": 47,
      "start_time": 2.0208,
      "duration": 0.0625,
      "velocity": 72
    },
    {
      "pitch": 42,
      "start_time": 2.125,
      "duration": 0.125,
      "velocity": 68
    },
    {
      "pitch": 42,
      "start_time": 2.25,
      "duration": 0.125,
      "velocity": 39
    },
    {
      "pitch": 42,
      "start_time": 2.375,
      "duration": 0.125,
      "velocity": 37
    },
    {
      "pitch": 36,
      "start_time": 2.5,
      "duration": 0.0521,
      "velocity": 106
    },
    {
      "pitch": 42,
      "start_time": 2.5,
      "duration": 0.125,
      "velocity": 38
    },
    {
      "pitch": 47,
      "start_time": 2.5,
      "duration": 0.0938,
      "velocity": 33
    },
    {
      "pitch": 42,
      "start_time": 2.625,
      "duration": 0.125,
      "velocity": 40
    },
    {
      "pitch": 42,
      "start_time": 2.75,
      "duration": 0.125,
      "velocity": 38
    },
    {
      "pitch": 42,
      "start_time": 2.875,
      "duration": 0.125,
      "velocity": 36
    },
    {
      "pitch": 42,
      "start_time": 3.0,
      "duration": 0.125,
      "velocity": 37
    },
    {
      "pitch": 47,
      "start_time": 3.0,
      "duration": 0.0729,
      "velocity": 81
    },
    {
      "pitch": 42,
      "start_time": 3.125,
      "duration": 0.125,
      "velocity": 42
    },
    {
      "pitch": 36,
      "start_time": 3.2396,
      "duration": 0.1146,
      "velocity": 94
    },
    {
      "pitch": 42,
      "start_time": 3.25,
      "duration": 0.125,
      "velocity": 41
    },
    {
      "pitch": 42,
      "start_time": 3.375,
      "duration": 0.0417,
      "velocity": 40
    },
    {
      "pitch": 47,
      "start_time": 3.4896,
      "duration": 0.0938,
      "velocity": 26
    },
    {
      "pitch": 42,
      "start_time": 3.5,
      "duration": 0.1667,
      "velocity": 84
    },
    {
      "pitch": 42,
      "start_time": 3.6667,
      "duration": 0.1667,
      "velocity": 48
    },
    {
      "pitch": 42,
      "start_time": 3.8333,
      "duration": 0.1667,
      "velocity": 48
    },
    {
      "pitch": 36,
      "start_time": 3.9896,
      "duration": 0.0729,
      "velocity": 127
    },
    {
      "pitch": 47,
      "start_time": 3.9896,
      "duration": 0.1042,
      "velocity": 80
    },
    {
      "pitch": 42,
      "start_time": 4.0,
      "duration": 0.25,
      "velocity": 45
    },
    {
      "pitch": 54,
      "start_time": 4.0208,
      "duration": 0.8125,
      "velocity": 112
    },
    {
      "pitch": 42,
      "start_time": 4.25,
      "duration": 0.25,
      "velocity": 63
    },
    {
      "pitch": 47,
      "start_time": 4.4583,
      "duration": 0.0417,
      "velocity": 29
    },
    {
      "pitch": 36,
      "start_time": 4.4896,
      "duration": 0.0625,
      "velocity": 73
    },
    {
      "pitch": 40,
      "start_time": 4.4896,
      "duration": 0.0417,
      "velocity": 47
    },
    {
      "pitch": 42,
      "start_time": 4.5,
      "duration": 0.25,
      "velocity": 34
    },
    {
      "pitch": 44,
      "start_time": 4.7396,
      "duration": 0.0833,
      "velocity": 107
    },
    {
      "pitch": 48,
      "start_time": 4.7396,
      "duration": 0.0938,
      "velocity": 126
    },
    {
      "pitch": 42,
      "start_time": 4.75,
      "duration": 0.25,
      "velocity": 52
    },
    {
      "pitch": 47,
      "start_time": 4.9896,
      "duration": 0.0625,
      "velocity": 87
    },
    {
      "pitch": 42,
      "start_time": 5.0,
      "duration": 0.25,
      "velocity": 22
    },
    {
      "pitch": 55,
      "start_time": 5.0,
      "duration": 0.5312,
      "velocity": 97
    },
    {
      "pitch": 42,
      "start_time": 5.25,
      "duration": 0.0729,
      "velocity": 21
    },
    {
      "pitch": 38,
      "start_time": 5.4896,
      "duration": 0.0625,
      "velocity": 127
    },
    {
      "pitch": 42,
      "start_time": 5.4896,
      "duration": 0.0104,
      "velocity": 127
    },
    {
      "pitch": 47,
      "start_time": 5.4896,
      "duration": 0.0625,
      "velocity": 56
    },
    {
      "pitch": 42,
      "start_time": 5.5,
      "duration": 0.25,
      "velocity": 49
    },
    {
      "pitch": 59,
      "start_time": 5.5312,
      "duration": 0.3438,
      "velocity": 100
    },
    {
      "pitch": 42,
      "start_time": 5.75,
      "duration": 0.25,
      "velocity": 43
    },
    {
      "pitch": 42,
      "start_time": 6.0,
      "duration": 0.25,
      "velocity": 34
    },
    {
      "pitch": 47,
      "start_time": 6.0,
      "duration": 0.0521,
      "velocity": 94
    },
    {
      "pitch": 58,
      "start_time": 6.0,
      "duration": 0.4583,
      "velocity": 62
    },
    {
      "pitch": 42,
      "start_time": 6.25,
      "duration": 0.1458,
      "velocity": 36
    },
    {
      "pitch": 42,
      "start_time": 6.5,
      "duration": 0.25,
      "velocity": 61
    },
    {
      "pitch": 47,
      "start_time": 6.5,
      "duration": 0.0729,
      "velocity": 60
    },
    {
      "pitch": 42,
      "start_time": 6.75,
      "duration": 0.25,
      "velocity": 63
    },
    {
      "pitch": 42,
      "start_time": 7.0,
      "duration": 0.1875,
      "velocity": 60
    },
    {
      "pitch": 47,
      "start_time": 7.0104,
      "duration": 0.0625,
      "velocity": 104
    },
    {
      "pitch": 37,
      "start_time": 7.25,
      "duration": 0.0417,
      "velocity": 17
    },
    {
      "pitch": 42,
      "start_time": 7.25,
      "duration": 0.125,
      "velocity": 56
    },
    {
      "pitch": 42,
      "start_time": 7.375,
      "duration": 0.125,
      "velocity": 49
    },
    {
      "pitch": 42,
      "start_time": 7.5,
      "duration": 0.125,
      "velocity": 48
    },
    {
      "pitch": 47,
      "start_time": 7.5,
      "duration": 0.0833,
      "velocity": 59
    },
    {
      "pitch": 42,
      "start_time": 7.625,
      "duration": 0.125,
      "velocity": 51
    },
    {
      "pitch": 36,
      "start_time": 7.7292,
      "duration": 0.0833,
      "velocity": 89
    },
    {
      "pitch": 42,
      "start_time": 7.75,
      "duration": 0.125,
      "velocity": 47
    },
    {
      "pitch": 42,
      "start_time": 7.875,
      "duration": 0.0833,
      "velocity": 48
    }
  ]
}