{
  "source": {
    "song": "packs",
    "track_index": 0,
    "track_name": "Drum Essentials / MIDI Clips / 111 - 130 bpm / 707 Rok With-U Kit groove 03_112 bpm",
    "slot_index": 0,
    "clip_name": "Drum Essentials / MIDI Clips / 111 - 130 bpm / 707 Rok With-U Kit groove 03_112 bpm",
    "mid_file": "/Users/darnold/Music/Ableton/Packs/Drum Essentials/MIDI Clips/111 - 130 bpm/707 Rok With-U Kit groove 03_112 bpm.alc"
  },
  "meta": {
    "bpm": 112.0,
    "key": "?",
    "scale": "?",
    "length_beats": 8.0,
    "note_count": 29
  },
  "rhythm": {
    "density": 1.062,
    "hit_positions": [
      0.0,
      0.0,
      0.5,
      1.0,
      1.0,
      1.5,
      2.0,
      2.0,
      2.5,
      2.5,
      3.0,
      3.0,
      3.0,
      3.5,
      3.75,
      4.0,
      4.0,
      4.5,
      5.0,
      5.0,
      5.5,
      6.0,
      6.0,
      6.5,
      6.5,
      6.5,
      7.0,
      7.0,
      7.5
    ],
    "ioi": [
      0.0,
      0.5,
      0.5,
      0.0,
      0.5,
      0.5,
      0.0,
      0.5,
      0.0,
      0.5,
      0.0,
      0.0,
      0.5,
      0.25,
      0.25,
      0.0,
      0.5,
      0.5,
      0.0,
      0.5,
      0.5,
      0.0,
      0.5,
      0.0,
      0.0,
      0.5,
      0.0,
      0.5,
      0.5
    ],
    "grid": "8th",
    "euclidean_approx": [
      29,
      32
    ],
    "swing_ratio": 1.0
  },
  "pitch": {
    "notes_used": [
      36,
      38,
      39,
      42,
      46
    ],
    "intervals": [
      6,
      0,
      4,
      4,
      0,
      6,
      6,
      6,
      6,
      4,
      1,
      3,
      4,
      0,
      2,
      6,
      0,
      4,
      4,
      0,
      6,
      6,
      6,
      3,
      3,
      4,
      1,
      7
    ],
    "register": "low",
    "is_melodic": true,
    "pitch_range": 10,
    "pitch_distribution": {
      "36": 6,
      "42": 13,
      "38": 6,
      "39": 3,
      "46": 1
    }
  },
  "velocity": {
    "mean": 55.7,
    "variance": 803.0,
    "std": 28.3,
    "accents": [
      3,
      10,
      11,
      18,
      26
    ],
    "profile": [
      65,
      49,
      29,
      108,
      64,
      3,
      32,
      29,
      31,
      33,
      92,
      111,
      62,
      69,
      36,
      62,
      55,
      24,
      100,
      77,
      31,
      48,
      39,
      30,
      61,
      39,
      118,
      69,
      49
    ]
  },
  "notes": [
    {
      "pitch": 36,
      "start_time": 0.0,
      "duration": 0.0655,
      "velocity": 65
    },
    {
      "pitch": 42,
      "start_time": 0.0,
      "duration": 0.0564,
      "velocity": 49
    },
    {
      "pitch": 42,
      "start_time": 0.5,
      "duration": 0.0705,
      "velocity": 29
    },
    {
      "pitch": 38,
      "start_time": 1.0,
      "duration": 0.0756,
      "velocity": 108
    },
    {
      "pitch": 42,
      "start_time": 1.0,
      "duration": 0.0434,
      "velocity": 64
    },
    {
      "pitch": 42,
      "start_time": 1.5,
      "duration": 0.0086,
      "velocity": 3
    },
    {
      "pitch": 36,
      "start_time": 2.0,
      "duration": 0.0811,
      "velocity": 32
    },
    {
      "pitch": 42,
      "start_time": 2.0,
      "duration": 0.0911,
      "velocity": 29
    },
    {
      "pitch": 36,
      "start_time": 2.5,
      "duration": 0.0577,
      "velocity": 31
    },
    {
      "pitch": 42,
      "start_time": 2.5,
      "duration": 0.0804,
      "velocity": 33
    },
    {
      "pitch": 38,
      "start_time": 3.0,
      "duration": 0.0716,
      "velocity": 92
    },
    {
      "pitch": 39,
      "start_time": 3.0,
      "duration": 0.1023,
      "velocity": 111
    },
    {
      "pitch": 42,
      "start_time": 3.0,
      "duration": 0.054,
      "velocity": 62
    },
    {
      "pitch": 38,
      "start_time": 3.5,
      "duration": 0.0652,
      "velocity": 69
    },
    {
      "pitch": 38,
      "start_time": 3.75,
      "duration": 0.087,
      "velocity": 36
    },
    {
      "pitch": 36,
      "start_time": 4.0,
      "duration": 0.085,
      "velocity": 62
    },
    {
      "pitch": 42,
      "start_time": 4.0,
      "duration": 0.0898,
      "velocity": 55
    },
    {
      "pitch": 42,
      "start_time": 4.5,
      "duration": 0.0714,
      "velocity": 24
    },
    {
      "pitch": 38,
      "start_time": 5.0,
      "duration": 0.0743,
      "velocity": 100
    },
    {
      "pitch": 42,
      "start_time": 5.0,
      "duration": 0.0491,
      "velocity": 77
    },
    {
      "pitch": 42,
      "start_time": 5.5,
      "duration": 0.0836,
      "velocity": 31
    },
    {
      "pitch": 36,
      "start_time": 6.0,
      "duration": 0.0709,
      "velocity": 48
    },
    {
      "pitch": 42,
      "start_time": 6.0,
      "duration": 0.0712,
      "velocity": 39
    },
    {
      "pitch": 36,
      "start_time": 6.5,
      "duration": 0.0661,
      "velocity": 30
    },
    {
      "pitch": 39,
      "start_time": 6.5,
      "duration": 0.078,
      "velocity": 61
    },
    {
      "pitch": 42,
      "start_time": 6.5,
      "duration": 0.0778,
      "velocity": 39
    },
    {
      "pitch": 38,
      "start_time": 7.0,
      "duration": 0.0969,
      "velocity": 118
    },
    {
      "pitch": 39,
      "start_time": 7.0,
      "duration": 0.0866,
      "velocity": 69
    },
    {
      "pitch": 46,
      "start_time": 7.5,
      "duration": 0.1523,
      "velocity": 49
    }
  ]
}