{
  "source": {
    "song": "packs",
    "track_index": 0,
    "track_name": "Drum Essentials / MIDI Clips / 111 - 130 bpm / Luminous Kit groove 01_130 bpm",
    "slot_index": 0,
    "clip_name": "Drum Essentials / MIDI Clips / 111 - 130 bpm / Luminous Kit groove 01_130 bpm",
    "mid_file": "/Users/darnold/Music/Ableton/Packs/Drum Essentials/MIDI Clips/111 - 130 bpm/Luminous Kit groove 01_130 bpm.alc"
  },
  "meta": {
    "bpm": 130.0,
    "key": "?",
    "scale": "?",
    "length_beats": 16.0,
    "note_count": 67
  },
  "rhythm": {
    "density": 0.906,
    "hit_positions": [
      0.0,
      0.25,
      0.5,
      0.75,
      1.0,
      1.0,
      1.25,
      1.5,
      2.0,
      2.25,
      2.375,
      2.5,
      3.0,
      3.0,
      3.5,
      4.0,
      4.25,
      4.5,
      4.75,
      5.0,
      5.0,
      5.25,
      5.5,
      6.0,
      6.25,
      6.375,
      6.5,
      7.0,
      7.0,
      7.5,
      7.5,
      7.625,
      7.75,
      7.875,
      8.0,
      8.25,
      8.5,
      8.75,
      9.0,
      9.0,
      9.25,
      9.5,
      10.0,
      10.25,
      10.375,
      10.5,
      11.0,
      11.0,
      11.5,
      12.0,
      12.25,
      12.5,
      12.75,
      13.0,
      13.25,
      13.5,
      14.0,
      14.25,
      14.375,
      14.5,
      15.0,
      15.0,
      15.5,
      15.5,
      15.625,
      15.75,
      15.875
    ],
    "ioi": [
      0.25,
      0.25,
      0.25,
      0.25,
      0.0,
      0.25,
      0.25,
      0.5,
      0.25,
      0.125,
      0.125,
      0.5,
      0.0,
      0.5,
      0.5,
      0.25,
      0.25,
      0.25,
      0.25,
      0.0,
      0.25,
      0.25,
      0.5,
      0.25,
      0.125,
      0.125,
      0.5,
      0.0,
      0.5,
      0.0,
      0.125,
      0.125,
      0.125,
      0.125,
      0.25,
      0.25,
      0.25,
      0.25,
      0.0,
      0.25,
      0.25,
      0.5,
      0.25,
      0.125,
      0.125,
      0.5,
      0.0,
      0.5,
      0.5,
      0.25,
      0.25,
      0.25,
      0.25,
      0.25,
      0.25,
      0.5,
      0.25,
      0.125,
      0.125,
      0.5,
      0.0,
      0.5,
      0.0,
      0.125,
      0.125,
      0.125,
      0.125
    ],
    "grid": "16th",
    "euclidean_approx": [
      64,
      64
    ],
    "swing_ratio": 1.125
  },
  "pitch": {
    "notes_used": [
      36,
      37,
      38,
      39,
      40,
      41,
      43,
      44,
      45,
      46,
      47,
      48,
      49,
      50,
      51
    ],
    "intervals": [
      0,
      7,
      4,
      2,
      1,
      7,
      7,
      7,
      1,
      0,
      8,
      2,
      2,
      4,
      0,
      0,
      7,
      4,
      1,
      2,
      5,
      7,
      7,
      1,
      0,
      8,
      1,
      4,
      2,
      12,
      12,
      0,
      0,
      3,
      0,
      7,
      4,
      2,
      1,
      7,
      7,
      7,
      1,
      0,
      8,
      2,
      2,
      4,
      0,
      0,
      7,
      4,
      6,
      2,
      7,
      7,
      1,
      0,
      8,
      1,
      8,
      6,
      12,
      12,
      0,
      0
    ],
    "register": "low",
    "is_melodic": true,
    "pitch_range": 15,
    "pitch_distribution": {
      "36": 18,
      "43": 12,
      "47": 4,
      "49": 2,
      "50": 2,
      "44": 8,
      "38": 2,
      "40": 2,
      "46": 1,
      "48": 1,
      "37": 2,
      "41": 2,
      "39": 8,
      "51": 2,
      "45": 1
    }
  },
  "velocity": {
    "mean": 101.5,
    "variance": 206.9,
    "std": 14.4,
    "accents": [],
    "profile": [
      111,
      111,
      111,
      84,
      101,
      102,
      111,
      111,
      111,
      92,
      92,
      111,
      111,
      111,
      111,
      111,
      111,
      111,
      84,
      80,
      111,
      111,
      111,
      111,
      92,
      92,
      111,
      111,
      111,
      50,
      105,
      67,
      84,
      91,
      111,
      111,
      111,
      84,
      105,
      100,
      111,
      111,
      111,
      92,
      92,
      111,
      111,
      111,
      111,
      111,
      111,
      111,
      84,
      105,
      111,
      111,
      111,
      92,
      92,
      111,
      111,
      111,
      54,
      105,
      69,
      84,
      99
    ]
  },
  "notes": [
    {
      "pitch": 36,
      "start_time": 0.0,
      "duration": 0.125,
      "velocity": 111
    },
    {
      "pitch": 36,
      "start_time": 0.25,
      "duration": 0.125,
      "velocity": 111
    },
    {
      "pitch": 43,
      "start_time": 0.5,
      "duration": 0.125,
      "velocity": 111
    },
    {
      "pitch": 47,
      "start_time": 0.75,
      "duration": 0.125,
      "velocity": 84
    },
    {
      "pitch": 49,
      "start_time": 1.0,
      "duration": 0.125,
      "velocity": 101
    },
    {
      "pitch": 50,
      "start_time": 1.0,
      "duration": 0.125,
      "velocity": 102
    },
    {
      "pitch": 43,
      "start_time": 1.25,
      "duration": 0.125,
      "velocity": 111
    },
    {
      "pitch": 36,
      "start_time": 1.5,
      "duration": 0.125,
      "velocity": 111
    },
    {
      "pitch": 43,
      "start_time": 2.0,
      "duration": 0.125,
      "velocity": 111
    },
    {
      "pitch": 44,
      "start_time": 2.25,
      "duration": 0.125,
      "velocity": 92
    },
    {
      "pitch": 44,
      "start_time": 2.375,
      "duration": 0.125,
      "velocity": 92
    },
    {
      "pitch": 36,
      "start_time": 2.5,
      "duration": 0.125,
      "velocity": 111
    },
    {
      "pitch": 38,
      "start_time": 3.0,
      "duration": 0.125,
      "velocity": 111
    },
    {
      "pitch": 40,
      "start_time": 3.0,
      "duration": 0.125,
      "velocity": 111
    },
    {
      "pitch": 36,
      "start_time": 3.5,
      "duration": 0.125,
      "velocity": 111
    },
    {
      "pitch": 36,
      "start_time": 4.0,
      "duration": 0.125,
      "velocity": 111
    },
    {
      "pitch": 36,
      "start_time": 4.25,
      "duration": 0.125,
      "velocity": 111
    },
    {
      "pitch": 43,
      "start_time": 4.5,
      "duration": 0.125,
      "velocity": 111
    },
    {
      "pitch": 47,
      "start_time": 4.75,
      "duration": 0.125,
      "velocity": 84
    },
    {
      "pitch": 46,
      "start_time": 5.0,
      "duration": 0.125,
      "velocity": 80
    },
    {
      "pitch": 48,
      "start_time": 5.0,
      "duration": 0.1146,
      "velocity": 111
    },
    {
      "pitch": 43,
      "start_time": 5.25,
      "duration": 0.125,
      "velocity": 111
    },
    {
      "pitch": 36,
      "start_time": 5.5,
      "duration": 0.125,
      "velocity": 111
    },
    {
      "pitch": 43,
      "start_time": 6.0,
      "duration": 0.125,
      "velocity": 111
    },
    {
      "pitch": 44,
      "start_time": 6.25,
      "duration": 0.125,
      "velocity": 92
    },
    {
      "pitch": 44,
      "start_time": 6.375,
      "duration": 0.125,
      "velocity": 92
    },
    {
      "pitch": 36,
      "start_time": 6.5,
      "duration": 0.125,
      "velocity": 111
    },
    {
      "pitch": 37,
      "start_time": 7.0,
      "duration": 0.125,
      "velocity": 111
    },
    {
      "pitch": 41,
      "start_time": 7.0,
      "duration": 0.125,
      "velocity": 111
    },
    {
      "pitch": 39,
      "start_time": 7.5,
      "duration": 0.125,
      "velocity": 50
    },
    {
      "pitch": 51,
      "start_time": 7.5,
      "duration": 0.5,
      "velocity": 105
    },
    {
      "pitch": 39,
      "start_time": 7.625,
      "duration": 0.125,
      "velocity": 67
    },
    {
      "pitch": 39,
      "start_time": 7.75,
      "duration": 0.125,
      "velocity": 84
    },
    {
      "pitch": 39,
      "start_time": 7.875,
      "duration": 0.125,
      "velocity": 91
    },
    {
      "pitch": 36,
      "start_time": 8.0,
      "duration": 0.125,
      "velocity": 111
    },
    {
      "pitch": 36,
      "start_time": 8.25,
      "duration": 0.125,
      "velocity": 111
    },
    {
      "pitch": 43,
      "start_time": 8.5,
      "duration": 0.125,
      "velocity": 111
    },
    {
      "pitch": 47,
      "start_time": 8.75,
      "duration": 0.125,
      "velocity": 84
    },
    {
      "pitch": 49,
      "start_time": 9.0,
      "duration": 0.125,
      "velocity": 105
    },
    {
      "pitch": 50,
      "start_time": 9.0,
      "duration": 0.125,
      "velocity": 100
    },
    {
      "pitch": 43,
      "start_time": 9.25,
      "duration": 0.125,
      "velocity": 111
    },
    {
      "pitch": 36,
      "start_time": 9.5,
      "duration": 0.125,
      "velocity": 111
    },
    {
      "pitch": 43,
      "start_time": 10.0,
      "duration": 0.125,
      "velocity": 111
    },
    {
      "pitch": 44,
      "start_time": 10.25,
      "duration": 0.125,
      "velocity": 92
    },
    {
      "pitch": 44,
      "start_time": 10.375,
      "duration": 0.125,
      "velocity": 92
    },
    {
      "pitch": 36,
      "start_time": 10.5,
      "duration": 0.125,
      "velocity": 111
    },
    {
      "pitch": 38,
      "start_time": 11.0,
      "duration": 0.125,
      "velocity": 111
    },
    {
      "pitch": 40,
      "start_time": 11.0,
      "duration": 0.125,
      "velocity": 111
    },
    {
      "pitch": 36,
      "start_time": 11.5,
      "duration": 0.125,
      "velocity": 111
    },
    {
      "pitch": 36,
      "start_time": 12.0,
      "duration": 0.125,
      "velocity": 111
    },
    {
      "pitch": 36,
      "start_time": 12.25,
      "duration": 0.125,
      "velocity": 111
    },
    {
      "pitch": 43,
      "start_time": 12.5,
      "duration": 0.125,
      "velocity": 111
    },
    {
      "pitch": 47,
      "start_time": 12.75,
      "duration": 0.125,
      "velocity": 84
    },
    {
      "pitch": 41,
      "start_time": 13.0,
      "duration": 0.125,
      "velocity": 105
    },
    {
      "pitch": 43,
      "start_time": 13.25,
      "duration": 0.125,
      "velocity": 111
    },
    {
      "pitch": 36,
      "start_time": 13.5,
      "duration": 0.125,
      "velocity": 111
    },
    {
      "pitch": 43,
      "start_time": 14.0,
      "duration": 0.125,
      "velocity": 111
    },
    {
      "pitch": 44,
      "start_time": 14.25,
      "duration": 0.125,
      "velocity": 92
    },
    {
      "pitch": 44,
      "start_time": 14.375,
      "duration": 0.125,
      "velocity": 92
    },
    {
      "pitch": 36,
      "start_time": 14.5,
      "duration": 0.125,
      "velocity": 111
    },
    {
      "pitch": 37,
      "start_time": 15.0,
      "duration": 0.125,
      "velocity": 111
    },
    {
      "pitch": 45,
      "start_time": 15.0,
      "duration": 0.125,
      "velocity": 111
    },
    {
      "pitch": 39,
      "start_time": 15.5,
      "duration": 0.125,
      "velocity": 54
    },
    {
      "pitch": 51,
      "start_time": 15.5,
      "duration": 0.5,
      "velocity": 105
    },
    {
      "pitch": 39,
      "start_time": 15.625,
      "duration": 0.125,
      "velocity": 69
    },
    {
      "pitch": 39,
      "start_time": 15.75,
      "duration": 0.125,
      "velocity": 84
    },
    {
      "pitch": 39,
      "start_time": 15.875,
      "duration": 0.125,
      "velocity": 99
    }
  ]
}