{
  "source": {
    "song": "packs",
    "track_index": 0,
    "track_name": "Drum Essentials / MIDI Clips / 91 - 110 bpm / Clinical Kit groove 01_98 bpm",
    "slot_index": 0,
    "clip_name": "Drum Essentials / MIDI Clips / 91 - 110 bpm / Clinical Kit groove 01_98 bpm",
    "mid_file": "/Users/darnold/Music/Ableton/Packs/Drum Essentials/MIDI Clips/91 - 110 bpm/Clinical Kit groove 01_98 bpm.alc"
  },
  "meta": {
    "bpm": 98.0,
    "key": "?",
    "scale": "?",
    "length_beats": 8.0,
    "note_count": 56
  },
  "rhythm": {
    "density": 2.0,
    "hit_positions": [
      0.0,
      0.0,
      0.0,
      0.25,
      0.5,
      0.5,
      0.75,
      1.0,
      1.0,
      1.25,
      1.5,
      1.5,
      1.5,
      1.75,
      2.0,
      2.0,
      2.25,
      2.5,
      2.5,
      2.5,
      2.75,
      3.0,
      3.0,
      3.25,
      3.5,
      3.5,
      3.75,
      4.0,
      4.0,
      4.0,
      4.25,
      4.5,
      4.5,
      4.75,
      5.0,
      5.0,
      5.25,
      5.5,
      5.5,
      5.5,
      5.5,
      5.75,
      6.0,
      6.0,
      6.0,
      6.25,
      6.5,
      6.5,
      6.75,
      6.75,
      7.0,
      7.0,
      7.25,
      7.5,
      7.5,
      7.75
    ],
    "ioi": [
      0.0,
      0.0,
      0.25,
      0.25,
      0.0,
      0.25,
      0.25,
      0.0,
      0.25,
      0.25,
      0.0,
      0.0,
      0.25,
      0.25,
      0.0,
      0.25,
      0.25,
      0.0,
      0.0,
      0.25,
      0.25,
      0.0,
      0.25,
      0.25,
      0.0,
      0.25,
      0.25,
      0.0,
      0.0,
      0.25,
      0.25,
      0.0,
      0.25,
      0.25,
      0.0,
      0.25,
      0.25,
      0.0,
      0.0,
      0.0,
      0.25,
      0.25,
      0.0,
      0.0,
      0.25,
      0.25,
      0.0,
      0.25,
      0.0,
      0.25,
      0.0,
      0.25,
      0.25,
      0.0,
      0.25,
      0.25
    ],
    "grid": "8th",
    "euclidean_approx": [
      32,
      32
    ],
    "swing_ratio": 1.0
  },
  "pitch": {
    "notes_used": [
      36,
      40,
      41,
      42,
      43,
      45,
      46,
      49
    ],
    "intervals": [
      10,
      3,
      3,
      4,
      4,
      0,
      5,
      5,
      0,
      4,
      3,
      1,
      0,
      10,
      10,
      0,
      4,
      1,
      3,
      0,
      5,
      5,
      0,
      4,
      4,
      0,
      10,
      6,
      4,
      0,
      4,
      4,
      0,
      5,
      5,
      0,
      6,
      2,
      3,
      1,
      0,
      10,
      6,
      4,
      0,
      4,
      4,
      3,
      3,
      5,
      5,
      0,
      10,
      10,
      0
    ],
    "register": "low",
    "is_melodic": true,
    "pitch_range": 13,
    "pitch_distribution": {
      "36": 5,
      "46": 32,
      "49": 1,
      "42": 9,
      "41": 4,
      "45": 2,
      "43": 2,
      "40": 1
    }
  },
  "velocity": {
    "mean": 40.5,
    "variance": 242.8,
    "std": 15.6,
    "accents": [
      2,
      7,
      21,
      34,
      50
    ],
    "profile": [
      54,
      39,
      66,
      40,
      39,
      40,
      38,
      61,
      39,
      39,
      22,
      32,
      39,
      38,
      54,
      38,
      40,
      41,
      29,
      40,
      39,
      82,
      39,
      40,
      23,
      40,
      42,
      52,
      2,
      40,
      44,
      38,
      37,
      30,
      83,
      34,
      39,
      48,
      40,
      25,
      37,
      33,
      55,
      2,
      36,
      39,
      40,
      38,
      36,
      35,
      99,
      36,
      39,
      22,
      39,
      37
    ]
  },
  "notes": [
    {
      "pitch": 36,
      "start_time": 0.0,
      "duration": 0.52,
      "velocity": 54
    },
    {
      "pitch": 46,
      "start_time": 0.0,
      "duration": 0.25,
      "velocity": 39
    },
    {
      "pitch": 49,
      "start_time": 0.0,
      "duration": 0.0426,
      "velocity": 66
    },
    {
      "pitch": 46,
      "start_time": 0.25,
      "duration": 0.25,
      "velocity": 40
    },
    {
      "pitch": 42,
      "start_time": 0.5,
      "duration": 0.4162,
      "velocity": 39
    },
    {
      "pitch": 46,
      "start_time": 0.5,
      "duration": 0.25,
      "velocity": 40
    },
    {
      "pitch": 46,
      "start_time": 0.75,
      "duration": 0.25,
      "velocity": 38
    },
    {
      "pitch": 41,
      "start_time": 1.0,
      "duration": 0.5027,
      "velocity": 61
    },
    {
      "pitch": 46,
      "start_time": 1.0,
      "duration": 0.25,
      "velocity": 39
    },
    {
      "pitch": 46,
      "start_time": 1.25,
      "duration": 0.25,
      "velocity": 39
    },
    {
      "pitch": 42,
      "start_time": 1.5,
      "duration": 0.4204,
      "velocity": 22
    },
    {
      "pitch": 45,
      "start_time": 1.5,
      "duration": 0.0455,
      "velocity": 32
    },
    {
      "pitch": 46,
      "start_time": 1.5,
      "duration": 0.25,
      "velocity": 39
    },
    {
      "pitch": 46,
      "start_time": 1.75,
      "duration": 0.25,
      "velocity": 38
    },
    {
      "pitch": 36,
      "start_time": 2.0,
      "duration": 0.5048,
      "velocity": 54
    },
    {
      "pitch": 46,
      "start_time": 2.0,
      "duration": 0.25,
      "velocity": 38
    },
    {
      "pitch": 46,
      "start_time": 2.25,
      "duration": 0.25,
      "velocity": 40
    },
    {
      "pitch": 42,
      "start_time": 2.5,
      "duration": 0.4321,
      "velocity": 41
    },
    {
      "pitch": 43,
      "start_time": 2.5,
      "duration": 0.0552,
      "velocity": 29
    },
    {
      "pitch": 46,
      "start_time": 2.5,
      "duration": 0.25,
      "velocity": 40
    },
    {
      "pitch": 46,
      "start_time": 2.75,
      "duration": 0.25,
      "velocity": 39
    },
    {
      "pitch": 41,
      "start_time": 3.0,
      "duration": 0.5198,
      "velocity": 82
    },
    {
      "pitch": 46,
      "start_time": 3.0,
      "duration": 0.25,
      "velocity": 39
    },
    {
      "pitch": 46,
      "start_time": 3.25,
      "duration": 0.25,
      "velocity": 40
    },
    {
      "pitch": 42,
      "start_time": 3.5,
      "duration": 0.3578,
      "velocity": 23
    },
    {
      "pitch": 46,
      "start_time": 3.5,
      "duration": 0.25,
      "velocity": 40
    },
    {
      "pitch": 46,
      "start_time": 3.75,
      "duration": 0.0645,
      "velocity": 42
    },
    {
      "pitch": 36,
      "start_time": 4.0,
      "duration": 0.5024,
      "velocity": 52
    },
    {
      "pitch": 42,
      "start_time": 4.0,
      "duration": 0.0066,
      "velocity": 2
    },
    {
      "pitch": 46,
      "start_time": 4.0,
      "duration": 0.25,
      "velocity": 40
    },
    {
      "pitch": 46,
      "start_time": 4.25,
      "duration": 0.25,
      "velocity": 44
    },
    {
      "pitch": 42,
      "start_time": 4.5,
      "duration": 0.3943,
      "velocity": 38
    },
    {
      "pitch": 46,
      "start_time": 4.5,
      "duration": 0.25,
      "velocity": 37
    },
    {
      "pitch": 46,
      "start_time": 4.75,
      "duration": 0.25,
      "velocity": 30
    },
    {
      "pitch": 41,
      "start_time": 5.0,
      "duration": 0.4752,
      "velocity": 83
    },
    {
      "pitch": 46,
      "start_time": 5.0,
      "duration": 0.25,
      "velocity": 34
    },
    {
      "pitch": 46,
      "start_time": 5.25,
      "duration": 0.25,
      "velocity": 39
    },
    {
      "pitch": 40,
      "start_time": 5.5,
      "duration": 0.0406,
      "velocity": 48
    },
    {
      "pitch": 42,
      "start_time": 5.5,
      "duration": 0.3938,
      "velocity": 40
    },
    {
      "pitch": 45,
      "start_time": 5.5,
      "duration": 0.0478,
      "velocity": 25
    },
    {
      "pitch": 46,
      "start_time": 5.5,
      "duration": 0.25,
      "velocity": 37
    },
    {
      "pitch": 46,
      "start_time": 5.75,
      "duration": 0.25,
      "velocity": 33
    },
    {
      "pitch": 36,
      "start_time": 6.0,
      "duration": 0.4934,
      "velocity": 55
    },
    {
      "pitch": 42,
      "start_time": 6.0,
      "duration": 0.0071,
      "velocity": 2
    },
    {
      "pitch": 46,
      "start_time": 6.0,
      "duration": 0.25,
      "velocity": 36
    },
    {
      "pitch": 46,
      "start_time": 6.25,
      "duration": 0.25,
      "velocity": 39
    },
    {
      "pitch": 42,
      "start_time": 6.5,
      "duration": 0.4793,
      "velocity": 40
    },
    {
      "pitch": 46,
      "start_time": 6.5,
      "duration": 0.25,
      "velocity": 38
    },
    {
      "pitch": 43,
      "start_time": 6.75,
      "duration": 0.0472,
      "velocity": 36
    },
    {
      "pitch": 46,
      "start_time": 6.75,
      "duration": 0.25,
      "velocity": 35
    },
    {
      "pitch": 41,
      "start_time": 7.0,
      "duration": 0.4519,
      "velocity": 99
    },
    {
      "pitch": 46,
      "start_time": 7.0,
      "duration": 0.25,
      "velocity": 36
    },
    {
      "pitch": 46,
      "start_time": 7.25,
      "duration": 0.25,
      "velocity": 39
    },
    {
      "pitch": 36,
      "start_time": 7.5,
      "duration": 0.4219,
      "velocity": 22
    },
    {
      "pitch": 46,
      "start_time": 7.5,
      "duration": 0.25,
      "velocity": 39
    },
    {
      "pitch": 46,
      "start_time": 7.75,
      "duration": 0.25,
      "velocity": 37
    }
  ]
}