{
  "source": {
    "song": "packs",
    "track_index": 0,
    "track_name": "Drum Essentials / MIDI Clips / 111 - 130 bpm / D55 Essence Kit groove 01_125 bpm",
    "slot_index": 0,
    "clip_name": "Drum Essentials / MIDI Clips / 111 - 130 bpm / D55 Essence Kit groove 01_125 bpm",
    "mid_file": "/Users/darnold/Music/Ableton/Packs/Drum Essentials/MIDI Clips/111 - 130 bpm/D55 Essence Kit groove 01_125 bpm.alc"
  },
  "meta": {
    "bpm": 125.0,
    "key": "?",
    "scale": "?",
    "length_beats": 8.0,
    "note_count": 42
  },
  "rhythm": {
    "density": 1.375,
    "hit_positions": [
      0.0,
      0.0,
      0.0,
      0.5,
      0.5,
      0.75,
      1.0,
      1.0,
      1.5,
      1.5,
      2.0,
      2.0,
      2.0,
      2.5,
      2.75,
      3.0,
      3.0,
      3.0,
      3.5,
      3.5,
      3.5,
      4.0,
      4.0,
      4.5,
      4.5,
      4.5,
      4.75,
      5.0,
      5.0,
      5.5,
      5.5,
      6.0,
      6.0,
      6.0,
      6.5,
      6.75,
      7.0,
      7.0,
      7.25,
      7.5,
      7.5,
      7.75
    ],
    "ioi": [
      0.0,
      0.0,
      0.5,
      0.0,
      0.25,
      0.25,
      0.0,
      0.5,
      0.0,
      0.5,
      0.0,
      0.0,
      0.5,
      0.25,
      0.25,
      0.0,
      0.0,
      0.5,
      0.0,
      0.0,
      0.5,
      0.0,
      0.5,
      0.0,
      0.0,
      0.25,
      0.25,
      0.0,
      0.5,
      0.0,
      0.5,
      0.0,
      0.0,
      0.5,
      0.25,
      0.25,
      0.0,
      0.25,
      0.25,
      0.0,
      0.25,
      0.25
    ],
    "grid": "8th",
    "euclidean_approx": [
      32,
      32
    ],
    "swing_ratio": 1.0
  },
  "pitch": {
    "notes_used": [
      36,
      37,
      38,
      39,
      42,
      45,
      46,
      47,
      48
    ],
    "intervals": [
      9,
      1,
      4,
      5,
      1,
      10,
      4,
      6,
      6,
      6,
      1,
      5,
      0,
      5,
      1,
      1,
      3,
      6,
      1,
      5,
      6,
      6,
      6,
      10,
      1,
      1,
      10,
      4,
      6,
      6,
      6,
      1,
      5,
      0,
      5,
      1,
      4,
      6,
      11,
      1,
      0
    ],
    "register": "low",
    "is_melodic": true,
    "pitch_range": 12,
    "pitch_distribution": {
      "36": 8,
      "45": 1,
      "46": 2,
      "42": 13,
      "47": 2,
      "48": 3,
      "38": 6,
      "37": 6,
      "39": 1
    }
  },
  "velocity": {
    "mean": 50.3,
    "variance": 648.9,
    "std": 25.5,
    "accents": [
      15,
      16,
      17,
      27,
      28,
      36,
      37
    ],
    "profile": [
      38,
      16,
      67,
      19,
      52,
      41,
      68,
      59,
      39,
      29,
      44,
      27,
      42,
      59,
      15,
      76,
      127,
      94,
      54,
      26,
      36,
      51,
      72,
      23,
      41,
      57,
      75,
      83,
      98,
      43,
      35,
      45,
      27,
      38,
      27,
      17,
      77,
      102,
      63,
      23,
      47,
      40
    ]
  },
  "notes": [
    {
      "pitch": 36,
      "start_time": 0.0,
      "duration": 0.0962,
      "velocity": 38
    },
    {
      "pitch": 45,
      "start_time": 0.0,
      "duration": 0.0426,
      "velocity": 16
    },
    {
      "pitch": 46,
      "start_time": 0.0,
      "duration": 0.0952,
      "velocity": 67
    },
    {
      "pitch": 42,
      "start_time": 0.5,
      "duration": 0.102,
      "velocity": 19
    },
    {
      "pitch": 47,
      "start_time": 0.5,
      "duration": 0.0911,
      "velocity": 52
    },
    {
      "pitch": 48,
      "start_time": 0.75,
      "duration": 0.0845,
      "velocity": 41
    },
    {
      "pitch": 38,
      "start_time": 1.0,
      "duration": 0.0895,
      "velocity": 68
    },
    {
      "pitch": 42,
      "start_time": 1.0,
      "duration": 0.0965,
      "velocity": 59
    },
    {
      "pitch": 36,
      "start_time": 1.5,
      "duration": 0.0792,
      "velocity": 39
    },
    {
      "pitch": 42,
      "start_time": 1.5,
      "duration": 0.089,
      "velocity": 29
    },
    {
      "pitch": 36,
      "start_time": 2.0,
      "duration": 0.0861,
      "velocity": 44
    },
    {
      "pitch": 37,
      "start_time": 2.0,
      "duration": 0.0749,
      "velocity": 27
    },
    {
      "pitch": 42,
      "start_time": 2.0,
      "duration": 0.0937,
      "velocity": 42
    },
    {
      "pitch": 42,
      "start_time": 2.5,
      "duration": 0.0895,
      "velocity": 59
    },
    {
      "pitch": 37,
      "start_time": 2.75,
      "duration": 0.0969,
      "velocity": 15
    },
    {
      "pitch": 38,
      "start_time": 3.0,
      "duration": 0.0731,
      "velocity": 76
    },
    {
      "pitch": 39,
      "start_time": 3.0,
      "duration": 0.0861,
      "velocity": 127
    },
    {
      "pitch": 42,
      "start_time": 3.0,
      "duration": 0.0811,
      "velocity": 94
    },
    {
      "pitch": 36,
      "start_time": 3.5,
      "duration": 0.0829,
      "velocity": 54
    },
    {
      "pitch": 37,
      "start_time": 3.5,
      "duration": 0.089,
      "velocity": 26
    },
    {
      "pitch": 42,
      "start_time": 3.5,
      "duration": 0.0756,
      "velocity": 36
    },
    {
      "pitch": 36,
      "start_time": 4.0,
      "duration": 0.0763,
      "velocity": 51
    },
    {
      "pitch": 42,
      "start_time": 4.0,
      "duration": 0.1065,
      "velocity": 72
    },
    {
      "pitch": 36,
      "start_time": 4.5,
      "duration": 0.0496,
      "velocity": 23
    },
    {
      "pitch": 46,
      "start_time": 4.5,
      "duration": 0.0758,
      "velocity": 41
    },
    {
      "pitch": 47,
      "start_time": 4.5,
      "duration": 0.0606,
      "velocity": 57
    },
    {
      "pitch": 48,
      "start_time": 4.75,
      "duration": 0.1144,
      "velocity": 75
    },
    {
      "pitch": 38,
      "start_time": 5.0,
      "duration": 0.0765,
      "velocity": 83
    },
    {
      "pitch": 42,
      "start_time": 5.0,
      "duration": 0.086,
      "velocity": 98
    },
    {
      "pitch": 36,
      "start_time": 5.5,
      "duration": 0.0737,
      "velocity": 43
    },
    {
      "pitch": 42,
      "start_time": 5.5,
      "duration": 0.0755,
      "velocity": 35
    },
    {
      "pitch": 36,
      "start_time": 6.0,
      "duration": 0.0786,
      "velocity": 45
    },
    {
      "pitch": 37,
      "start_time": 6.0,
      "duration": 0.0848,
      "velocity": 27
    },
    {
      "pitch": 42,
      "start_time": 6.0,
      "duration": 0.0866,
      "velocity": 38
    },
    {
      "pitch": 42,
      "start_time": 6.5,
      "duration": 0.0841,
      "velocity": 27
    },
    {
      "pitch": 37,
      "start_time": 6.75,
      "duration": 0.099,
      "velocity": 17
    },
    {
      "pitch": 38,
      "start_time": 7.0,
      "duration": 0.0638,
      "velocity": 77
    },
    {
      "pitch": 42,
      "start_time": 7.0,
      "duration": 0.0952,
      "velocity": 102
    },
    {
      "pitch": 48,
      "start_time": 7.25,
      "duration": 0.1033,
      "velocity": 63
    },
    {
      "pitch": 37,
      "start_time": 7.5,
      "duration": 0.0828,
      "velocity": 23
    },
    {
      "pitch": 38,
      "start_time": 7.5,
      "duration": 0.0669,
      "velocity": 47
    },
    {
      "pitch": 38,
      "start_time": 7.75,
      "duration": 0.0969,
      "velocity": 40
    }
  ]
}