{
  "source": {
    "song": "packs",
    "track_index": 0,
    "track_name": "Drum Essentials / MIDI Clips / 91 - 110 bpm / 64 Pads Penelope Kit groove 01_108 bpm",
    "slot_index": 0,
    "clip_name": "Drum Essentials / MIDI Clips / 91 - 110 bpm / 64 Pads Penelope Kit groove 01_108 bpm",
    "mid_file": "/Users/darnold/Music/Ableton/Packs/Drum Essentials/MIDI Clips/91 - 110 bpm/64 Pads Penelope Kit groove 01_108 bpm.alc"
  },
  "meta": {
    "bpm": 108.0,
    "key": "?",
    "scale": "?",
    "length_beats": 8.0,
    "note_count": 90
  },
  "rhythm": {
    "density": 0.969,
    "hit_positions": [
      0.0,
      0.0,
      0.0,
      0.0,
      0.25,
      0.5,
      0.5,
      0.5,
      0.75,
      1.0,
      1.0,
      1.0,
      1.0,
      1.0,
      1.25,
      1.5,
      1.5,
      1.5,
      1.5,
      1.75,
      2.0,
      2.0,
      2.25,
      2.2734,
      2.5,
      2.5,
      2.5,
      2.5,
      2.5,
      2.75,
      2.75,
      3.0,
      3.0,
      3.0,
      3.0,
      3.0,
      3.0,
      3.25,
      3.25,
      3.25,
      3.5,
      3.5,
      3.5,
      3.5,
      3.5,
      3.75,
      3.75,
      4.0,
      4.0,
      4.0,
      4.0,
      4.25,
      4.25,
      4.5,
      4.5,
      4.5,
      4.75,
      5.0,
      5.0,
      5.0,
      5.0,
      5.0,
      5.25,
      5.5,
      5.5,
      5.5,
      5.5,
      5.75,
      6.0,
      6.0,
      6.0,
      6.0,
      6.25,
      6.25,
      6.2734,
      6.5,
      6.5,
      6.5,
      6.5,
      6.75,
      6.75,
      7.0,
      7.0,
      7.0,
      7.0,
      7.25,
      7.25,
      7.5,
      7.5,
      7.5
    ],
    "ioi": [
      0.0,
      0.0,
      0.0,
      0.25,
      0.25,
      0.0,
      0.0,
      0.25,
      0.25,
      0.0,
      0.0,
      0.0,
      0.0,
      0.25,
      0.25,
      0.0,
      0.0,
      0.0,
      0.25,
      0.25,
      0.0,
      0.25,
      0.0234,
      0.2266,
      0.0,
      0.0,
      0.0,
      0.0,
      0.25,
      0.0,
      0.25,
      0.0,
      0.0,
      0.0,
      0.0,
      0.0,
      0.25,
      0.0,
      0.0,
      0.25,
      0.0,
      0.0,
      0.0,
      0.0,
      0.25,
      0.0,
      0.25,
      0.0,
      0.0,
      0.0,
      0.25,
      0.0,
      0.25,
      0.0,
      0.0,
      0.25,
      0.25,
      0.0,
      0.0,
      0.0,
      0.0,
      0.25,
      0.25,
      0.0,
      0.0,
      0.0,
      0.25,
      0.25,
      0.0,
      0.0,
      0.0,
      0.25,
      0.0,
      0.0234,
      0.2266,
      0.0,
      0.0,
      0.0,
      0.25,
      0.0,
      0.25,
      0.0,
      0.0,
      0.0,
      0.25,
      0.0,
      0.25,
      0.0,
      0.0,
      0.5
    ],
    "grid": "16th",
    "euclidean_approx": [
      32,
      32
    ],
    "swing_ratio": 1.007
  },
  "pitch": {
    "notes_used": [
      36,
      38,
      42,
      47,
      50,
      52,
      53,
      54,
      56,
      57,
      58,
      59,
      60,
      61,
      62,
      63,
      80,
      81,
      82,
      84,
      85,
      86,
      93
    ],
    "intervals": [
      6,
      12,
      27,
      24,
      15,
      11,
      27,
      22,
      20,
      4,
      8,
      6,
      26,
      30,
      16,
      6,
      12,
      9,
      6,
      21,
      6,
      16,
      22,
      6,
      14,
      7,
      18,
      5,
      34,
      32,
      46,
      4,
      5,
      7,
      28,
      3,
      38,
      10,
      23,
      38,
      5,
      6,
      10,
      18,
      23,
      26,
      48,
      6,
      15,
      24,
      28,
      28,
      39,
      12,
      9,
      7,
      18,
      4,
      8,
      2,
      30,
      24,
      22,
      6,
      15,
      6,
      10,
      17,
      6,
      12,
      39,
      33,
      24,
      48,
      6,
      17,
      4,
      17,
      19,
      19,
      42,
      4,
      15,
      24,
      19,
      18,
      38,
      19,
      2
    ],
    "register": "mid",
    "is_melodic": true,
    "pitch_range": 57,
    "pitch_distribution": {
      "36": 8,
      "42": 16,
      "54": 5,
      "81": 6,
      "57": 6,
      "53": 4,
      "80": 5,
      "58": 4,
      "38": 4,
      "50": 2,
      "56": 3,
      "82": 3,
      "52": 3,
      "63": 7,
      "86": 1,
      "84": 3,
      "47": 3,
      "85": 1,
      "93": 1,
      "60": 1,
      "59": 1,
      "61": 2,
      "62": 1
    }
  },
  "velocity": {
    "mean": 41.5,
    "variance": 729.1,
    "std": 27.0,
    "accents": [
      0,
      9,
      11,
      20,
      21,
      23,
      31,
      32,
      47,
      57,
      59,
      63,
      68,
      69,
      74,
      81,
      82,
      86
    ],
    "profile": [
      69,
      44,
      59,
      61,
      5,
      26,
      5,
      60,
      13,
      81,
      48,
      97,
      3,
      53,
      25,
      55,
      44,
      43,
      33,
      7,
      83,
      76,
      24,
      92,
      39,
      2,
      25,
      62,
      27,
      17,
      13,
      110,
      69,
      7,
      31,
      46,
      37,
      13,
      16,
      24,
      32,
      37,
      21,
      24,
      25,
      17,
      23,
      89,
      63,
      22,
      47,
      16,
      23,
      32,
      38,
      23,
      2,
      109,
      61,
      89,
      27,
      65,
      20,
      76,
      55,
      21,
      20,
      13,
      82,
      70,
      25,
      23,
      19,
      23,
      87,
      54,
      28,
      21,
      27,
      38,
      37,
      106,
      73,
      22,
      39,
      37,
      73,
      54,
      45,
      19
    ]
  },
  "notes": [
    {
      "pitch": 36,
      "start_time": 0.0,
      "duration": 0.1005,
      "velocity": 69
    },
    {
      "pitch": 42,
      "start_time": 0.0,
      "duration": 0.0922,
      "velocity": 44
    },
    {
      "pitch": 54,
      "start_time": 0.0,
      "duration": 0.0506,
      "velocity": 59
    },
    {
      "pitch": 81,
      "start_time": 0.0,
      "duration": 0.0687,
      "velocity": 61
    },
    {
      "pitch": 57,
      "start_time": 0.25,
      "duration": 0.0812,
      "velocity": 5
    },
    {
      "pitch": 42,
      "start_time": 0.5,
      "duration": 0.08,
      "velocity": 26
    },
    {
      "pitch": 53,
      "start_time": 0.5,
      "duration": 0.0592,
      "velocity": 5
    },
    {
      "pitch": 80,
      "start_time": 0.5,
      "duration": 0.0614,
      "velocity": 60
    },
    {
      "pitch": 58,
      "start_time": 0.75,
      "duration": 0.0978,
      "velocity": 13
    },
    {
      "pitch": 38,
      "start_time": 1.0,
      "duration": 0.0762,
      "velocity": 81
    },
    {
      "pitch": 42,
      "start_time": 1.0,
      "duration": 0.0547,
      "velocity": 48
    },
    {
      "pitch": 50,
      "start_time": 1.0,
      "duration": 0.5702,
      "velocity": 97
    },
    {
      "pitch": 56,
      "start_time": 1.0,
      "duration": 0.1122,
      "velocity": 3
    },
    {
      "pitch": 82,
      "start_time": 1.0,
      "duration": 0.091,
      "velocity": 53
    },
    {
      "pitch": 52,
      "start_time": 1.25,
      "duration": 0.0926,
      "velocity": 25
    },
    {
      "pitch": 36,
      "start_time": 1.5,
      "duration": 0.0692,
      "velocity": 55
    },
    {
      "pitch": 42,
      "start_time": 1.5,
      "duration": 0.0857,
      "velocity": 44
    },
    {
      "pitch": 54,
      "start_time": 1.5,
      "duration": 0.0675,
      "velocity": 43
    },
    {
      "pitch": 63,
      "start_time": 1.5,
      "duration": 0.0478,
      "velocity": 33
    },
    {
      "pitch": 57,
      "start_time": 1.75,
      "duration": 0.1373,
      "velocity": 7
    },
    {
      "pitch": 36,
      "start_time": 2.0,
      "duration": 0.0688,
      "velocity": 83
    },
    {
      "pitch": 42,
      "start_time": 2.0,
      "duration": 0.0805,
      "velocity": 76
    },
    {
      "pitch": 58,
      "start_time": 2.25,
      "duration": 0.0869,
      "velocity": 24
    },
    {
      "pitch": 36,
      "start_time": 2.2734,
      "duration": 0.718,
      "velocity": 92
    },
    {
      "pitch": 42,
      "start_time": 2.5,
      "duration": 0.0834,
      "velocity": 39
    },
    {
      "pitch": 56,
      "start_time": 2.5,
      "duration": 0.0085,
      "velocity": 2
    },
    {
      "pitch": 63,
      "start_time": 2.5,
      "duration": 0.0479,
      "velocity": 25
    },
    {
      "pitch": 81,
      "start_time": 2.5,
      "duration": 0.0544,
      "velocity": 62
    },
    {
      "pitch": 86,
      "start_time": 2.5,
      "duration": 0.0774,
      "velocity": 27
    },
    {
      "pitch": 52,
      "start_time": 2.75,
      "duration": 0.0738,
      "velocity": 17
    },
    {
      "pitch": 84,
      "start_time": 2.75,
      "duration": 0.044,
      "velocity": 13
    },
    {
      "pitch": 38,
      "start_time": 3.0,
      "duration": 0.0763,
      "velocity": 110
    },
    {
      "pitch": 42,
      "start_time": 3.0,
      "duration": 0.0495,
      "velocity": 69
    },
    {
      "pitch": 47,
      "start_time": 3.0,
      "duration": 0.0438,
      "velocity": 7
    },
    {
      "pitch": 54,
      "start_time": 3.0,
      "duration": 0.0553,
      "velocity": 31
    },
    {
      "pitch": 82,
      "start_time": 3.0,
      "duration": 0.0565,
      "velocity": 46
    },
    {
      "pitch": 85,
      "start_time": 3.0,
      "duration": 0.0515,
      "velocity": 37
    },
    {
      "pitch": 47,
      "start_time": 3.25,
      "duration": 0.0438,
      "velocity": 13
    },
    {
      "pitch": 57,
      "start_time": 3.25,
      "duration": 0.1698,
      "velocity": 16
    },
    {
      "pitch": 80,
      "start_time": 3.25,
      "duration": 0.0694,
      "velocity": 24
    },
    {
      "pitch": 42,
      "start_time": 3.5,
      "duration": 0.0906,
      "velocity": 32
    },
    {
      "pitch": 47,
      "start_time": 3.5,
      "duration": 0.0437,
      "velocity": 37
    },
    {
      "pitch": 53,
      "start_time": 3.5,
      "duration": 0.0892,
      "velocity": 21
    },
    {
      "pitch": 63,
      "start_time": 3.5,
      "duration": 0.0539,
      "velocity": 24
    },
    {
      "pitch": 81,
      "start_time": 3.5,
      "duration": 0.0517,
      "velocity": 25
    },
    {
      "pitch": 58,
      "start_time": 3.75,
      "duration": 0.0722,
      "velocity": 17
    },
    {
      "pitch": 84,
      "start_time": 3.75,
      "duration": 0.0441,
      "velocity": 23
    },
    {
      "pitch": 36,
      "start_time": 4.0,
      "duration": 0.0884,
      "velocity": 89
    },
    {
      "pitch": 42,
      "start_time": 4.0,
      "duration": 0.0958,
      "velocity": 63
    },
    {
      "pitch": 57,
      "start_time": 4.0,
      "duration": 0.2072,
      "velocity": 22
    },
    {
      "pitch": 81,
      "start_time": 4.0,
      "duration": 0.0636,
      "velocity": 47
    },
    {
      "pitch": 53,
      "start_time": 4.25,
      "duration": 0.072,
      "velocity": 16
    },
    {
      "pitch": 81,
      "start_time": 4.25,
      "duration": 0.1308,
      "velocity": 23
    },
    {
      "pitch": 42,
      "start_time": 4.5,
      "duration": 0.0919,
      "velocity": 32
    },
    {
      "pitch": 54,
      "start_time": 4.5,
      "duration": 0.1385,
      "velocity": 38
    },
    {
      "pitch": 63,
      "start_time": 4.5,
      "duration": 0.0515,
      "velocity": 23
    },
    {
      "pitch": 56,
      "start_time": 4.75,
      "duration": 0.2003,
      "velocity": 2
    },
    {
      "pitch": 38,
      "start_time": 5.0,
      "duration": 0.0805,
      "velocity": 109
    },
    {
      "pitch": 42,
      "start_time": 5.0,
      "duration": 0.0536,
      "velocity": 61
    },
    {
      "pitch": 50,
      "start_time": 5.0,
      "duration": 0.575,
      "velocity": 89
    },
    {
      "pitch": 52,
      "start_time": 5.0,
      "duration": 0.0905,
      "velocity": 27
    },
    {
      "pitch": 82,
      "start_time": 5.0,
      "duration": 0.0932,
      "velocity": 65
    },
    {
      "pitch": 58,
      "start_time": 5.25,
      "duration": 0.0822,
      "velocity": 20
    },
    {
      "pitch": 36,
      "start_time": 5.5,
      "duration": 0.0837,
      "velocity": 76
    },
    {
      "pitch": 42,
      "start_time": 5.5,
      "duration": 0.0808,
      "velocity": 55
    },
    {
      "pitch": 57,
      "start_time": 5.5,
      "duration": 0.1449,
      "velocity": 21
    },
    {
      "pitch": 63,
      "start_time": 5.5,
      "duration": 0.0438,
      "velocity": 20
    },
    {
      "pitch": 53,
      "start_time": 5.75,
      "duration": 0.0639,
      "velocity": 13
    },
    {
      "pitch": 36,
      "start_time": 6.0,
      "duration": 0.0716,
      "velocity": 82
    },
    {
      "pitch": 42,
      "start_time": 6.0,
      "duration": 0.085,
      "velocity": 70
    },
    {
      "pitch": 54,
      "start_time": 6.0,
      "duration": 0.0597,
      "velocity": 25
    },
    {
      "pitch": 93,
      "start_time": 6.0,
      "duration": 0.0504,
      "velocity": 23
    },
    {
      "pitch": 60,
      "start_time": 6.25,
      "duration": 0.0738,
      "velocity": 19
    },
    {
      "pitch": 84,
      "start_time": 6.25,
      "duration": 0.111,
      "velocity": 23
    },
    {
      "pitch": 36,
      "start_time": 6.2734,
      "duration": 0.6481,
      "velocity": 87
    },
    {
      "pitch": 42,
      "start_time": 6.5,
      "duration": 0.0932,
      "velocity": 54
    },
    {
      "pitch": 59,
      "start_time": 6.5,
      "duration": 0.0782,
      "velocity": 28
    },
    {
      "pitch": 63,
      "start_time": 6.5,
      "duration": 0.0466,
      "velocity": 21
    },
    {
      "pitch": 80,
      "start_time": 6.5,
      "duration": 0.0591,
      "velocity": 27
    },
    {
      "pitch": 61,
      "start_time": 6.75,
      "duration": 0.1027,
      "velocity": 38
    },
    {
      "pitch": 80,
      "start_time": 6.75,
      "duration": 0.0892,
      "velocity": 37
    },
    {
      "pitch": 38,
      "start_time": 7.0,
      "duration": 0.0793,
      "velocity": 106
    },
    {
      "pitch": 42,
      "start_time": 7.0,
      "duration": 0.0628,
      "velocity": 73
    },
    {
      "pitch": 57,
      "start_time": 7.0,
      "duration": 0.0495,
      "velocity": 22
    },
    {
      "pitch": 81,
      "start_time": 7.0,
      "duration": 0.0794,
      "velocity": 39
    },
    {
      "pitch": 62,
      "start_time": 7.25,
      "duration": 0.0789,
      "velocity": 37
    },
    {
      "pitch": 80,
      "start_time": 7.25,
      "duration": 0.0861,
      "velocity": 73
    },
    {
      "pitch": 42,
      "start_time": 7.5,
      "duration": 0.1012,
      "velocity": 54
    },
    {
      "pitch": 61,
      "start_time": 7.5,
      "duration": 0.1472,
      "velocity": 45
    },
    {
      "pitch": 63,
      "start_time": 7.5,
      "duration": 0.034,
      "velocity": 19
    }
  ]
}