{
  "source": {
    "song": "packs",
    "track_index": 0,
    "track_name": "Drum Essentials / MIDI Clips / 91 - 110 bpm / Litmus Kit groove 03_102 bpm",
    "slot_index": 0,
    "clip_name": "Drum Essentials / MIDI Clips / 91 - 110 bpm / Litmus Kit groove 03_102 bpm",
    "mid_file": "/Users/darnold/Music/Ableton/Packs/Drum Essentials/MIDI Clips/91 - 110 bpm/Litmus Kit groove 03_102 bpm.alc"
  },
  "meta": {
    "bpm": 102.0,
    "key": "?",
    "scale": "?",
    "length_beats": 8.0,
    "note_count": 83
  },
  "rhythm": {
    "density": 2.0,
    "hit_positions": [
      0.0,
      0.0,
      0.0,
      0.0,
      0.0,
      0.25,
      0.25,
      0.5,
      0.75,
      0.75,
      1.0,
      1.0,
      1.0,
      1.0,
      1.0,
      1.25,
      1.25,
      1.25,
      1.5,
      1.5,
      1.5,
      1.5,
      1.75,
      2.0,
      2.0,
      2.0,
      2.0,
      2.25,
      2.5,
      2.5,
      2.75,
      2.75,
      3.0,
      3.0,
      3.0,
      3.0,
      3.0,
      3.0,
      3.25,
      3.25,
      3.5,
      3.5,
      3.5,
      3.75,
      4.0,
      4.0,
      4.0,
      4.25,
      4.25,
      4.5,
      4.5,
      4.5,
      4.5,
      4.75,
      4.75,
      5.0,
      5.0,
      5.0,
      5.0,
      5.0,
      5.25,
      5.25,
      5.5,
      5.5,
      5.75,
      6.0,
      6.0,
      6.0,
      6.25,
      6.5,
      6.5,
      6.5,
      6.75,
      7.0,
      7.0,
      7.0,
      7.0,
      7.25,
      7.25,
      7.5,
      7.5,
      7.5,
      7.75
    ],
    "ioi": [
      0.0,
      0.0,
      0.0,
      0.0,
      0.25,
      0.0,
      0.25,
      0.25,
      0.0,
      0.25,
      0.0,
      0.0,
      0.0,
      0.0,
      0.25,
      0.0,
      0.0,
      0.25,
      0.0,
      0.0,
      0.0,
      0.25,
      0.25,
      0.0,
      0.0,
      0.0,
      0.25,
      0.25,
      0.0,
      0.25,
      0.0,
      0.25,
      0.0,
      0.0,
      0.0,
      0.0,
      0.0,
      0.25,
      0.0,
      0.25,
      0.0,
      0.0,
      0.25,
      0.25,
      0.0,
      0.0,
      0.25,
      0.0,
      0.25,
      0.0,
      0.0,
      0.0,
      0.25,
      0.0,
      0.25,
      0.0,
      0.0,
      0.0,
      0.0,
      0.25,
      0.0,
      0.25,
      0.0,
      0.25,
      0.25,
      0.0,
      0.0,
      0.25,
      0.25,
      0.0,
      0.0,
      0.25,
      0.25,
      0.0,
      0.0,
      0.0,
      0.25,
      0.0,
      0.25,
      0.0,
      0.0,
      0.25,
      0.25
    ],
    "grid": "8th",
    "euclidean_approx": [
      32,
      32
    ],
    "swing_ratio": 1.0
  },
  "pitch": {
    "notes_used": [
      36,
      37,
      38,
      39,
      41,
      42,
      43,
      45,
      47,
      48
    ],
    "intervals": [
      5,
      1,
      3,
      2,
      5,
      5,
      5,
      0,
      1,
      6,
      1,
      1,
      3,
      1,
      1,
      1,
      4,
      11,
      5,
      1,
      3,
      3,
      6,
      5,
      1,
      3,
      3,
      0,
      1,
      1,
      6,
      11,
      1,
      1,
      3,
      1,
      5,
      6,
      6,
      7,
      1,
      3,
      3,
      6,
      6,
      5,
      5,
      5,
      11,
      5,
      1,
      3,
      3,
      5,
      10,
      1,
      1,
      3,
      6,
      6,
      6,
      6,
      3,
      3,
      6,
      5,
      1,
      0,
      1,
      1,
      3,
      3,
      5,
      1,
      1,
      3,
      0,
      3,
      4,
      1,
      3,
      3
    ],
    "register": "low",
    "is_melodic": true,
    "pitch_range": 12,
    "pitch_distribution": {
      "36": 6,
      "41": 8,
      "42": 32,
      "45": 9,
      "47": 6,
      "43": 5,
      "37": 4,
      "38": 4,
      "39": 4,
      "48": 5
    }
  },
  "velocity": {
    "mean": 79.2,
    "variance": 1270.4,
    "std": 35.6,
    "accents": [
      1,
      4,
      6,
      10,
      11,
      12,
      14,
      17,
      18,
      24,
      29,
      32,
      33,
      36,
      39,
      46,
      50,
      55,
      56,
      57,
      61,
      66,
      69,
      73,
      75
    ],
    "profile": [
      109,
      127,
      33,
      70,
      127,
      22,
      120,
      37,
      34,
      91,
      127,
      127,
      127,
      49,
      117,
      32,
      61,
      117,
      122,
      3,
      56,
      56,
      35,
      84,
      117,
      49,
      53,
      38,
      67,
      127,
      48,
      23,
      123,
      127,
      72,
      52,
      116,
      45,
      45,
      125,
      99,
      57,
      70,
      39,
      107,
      54,
      127,
      49,
      91,
      105,
      118,
      43,
      54,
      38,
      54,
      126,
      126,
      127,
      69,
      59,
      36,
      121,
      67,
      47,
      47,
      108,
      127,
      62,
      41,
      126,
      89,
      70,
      51,
      119,
      108,
      127,
      71,
      56,
      70,
      113,
      90,
      44,
      65
    ]
  },
  "notes": [
    {
      "pitch": 36,
      "start_time": 0.0,
      "duration": 0.0729,
      "velocity": 109
    },
    {
      "pitch": 41,
      "start_time": 0.0,
      "duration": 0.0729,
      "velocity": 127
    },
    {
      "pitch": 42,
      "start_time": 0.0,
      "duration": 0.0729,
      "velocity": 33
    },
    {
      "pitch": 45,
      "start_time": 0.0,
      "duration": 0.0521,
      "velocity": 70
    },
    {
      "pitch": 47,
      "start_time": 0.0,
      "duration": 0.0833,
      "velocity": 127
    },
    {
      "pitch": 42,
      "start_time": 0.25,
      "duration": 0.0729,
      "velocity": 22
    },
    {
      "pitch": 47,
      "start_time": 0.25,
      "duration": 0.0938,
      "velocity": 120
    },
    {
      "pitch": 42,
      "start_time": 0.5,
      "duration": 0.0312,
      "velocity": 37
    },
    {
      "pitch": 42,
      "start_time": 0.75,
      "duration": 0.0729,
      "velocity": 34
    },
    {
      "pitch": 43,
      "start_time": 0.75,
      "duration": 0.0729,
      "velocity": 91
    },
    {
      "pitch": 37,
      "start_time": 1.0,
      "duration": 0.0833,
      "velocity": 127
    },
    {
      "pitch": 38,
      "start_time": 1.0,
      "duration": 0.0833,
      "velocity": 127
    },
    {
      "pitch": 39,
      "start_time": 1.0,
      "duration": 0.0833,
      "velocity": 127
    },
    {
      "pitch": 42,
      "start_time": 1.0,
      "duration": 0.0417,
      "velocity": 49
    },
    {
      "pitch": 43,
      "start_time": 1.0,
      "duration": 0.0417,
      "velocity": 117
    },
    {
      "pitch": 42,
      "start_time": 1.25,
      "duration": 0.0833,
      "velocity": 32
    },
    {
      "pitch": 43,
      "start_time": 1.25,
      "duration": 0.0417,
      "velocity": 61
    },
    {
      "pitch": 47,
      "start_time": 1.25,
      "duration": 0.0729,
      "velocity": 117
    },
    {
      "pitch": 36,
      "start_time": 1.5,
      "duration": 0.0833,
      "velocity": 122
    },
    {
      "pitch": 41,
      "start_time": 1.5,
      "duration": 0.0208,
      "velocity": 3
    },
    {
      "pitch": 42,
      "start_time": 1.5,
      "duration": 0.0417,
      "velocity": 56
    },
    {
      "pitch": 45,
      "start_time": 1.5,
      "duration": 0.1042,
      "velocity": 56
    },
    {
      "pitch": 42,
      "start_time": 1.75,
      "duration": 0.0833,
      "velocity": 35
    },
    {
      "pitch": 36,
      "start_time": 2.0,
      "duration": 0.1042,
      "velocity": 84
    },
    {
      "pitch": 41,
      "start_time": 2.0,
      "duration": 0.0833,
      "velocity": 117
    },
    {
      "pitch": 42,
      "start_time": 2.0,
      "duration": 0.0521,
      "velocity": 49
    },
    {
      "pitch": 45,
      "start_time": 2.0,
      "duration": 0.0625,
      "velocity": 53
    },
    {
      "pitch": 42,
      "start_time": 2.25,
      "duration": 0.0938,
      "velocity": 38
    },
    {
      "pitch": 42,
      "start_time": 2.5,
      "duration": 0.0417,
      "velocity": 67
    },
    {
      "pitch": 43,
      "start_time": 2.5,
      "duration": 0.0729,
      "velocity": 127
    },
    {
      "pitch": 42,
      "start_time": 2.75,
      "duration": 0.0938,
      "velocity": 48
    },
    {
      "pitch": 48,
      "start_time": 2.75,
      "duration": 0.0104,
      "velocity": 23
    },
    {
      "pitch": 37,
      "start_time": 3.0,
      "duration": 0.0833,
      "velocity": 123
    },
    {
      "pitch": 38,
      "start_time": 3.0,
      "duration": 0.0729,
      "velocity": 127
    },
    {
      "pitch": 39,
      "start_time": 3.0,
      "duration": 0.0833,
      "velocity": 72
    },
    {
      "pitch": 42,
      "start_time": 3.0,
      "duration": 0.0521,
      "velocity": 52
    },
    {
      "pitch": 43,
      "start_time": 3.0,
      "duration": 0.0833,
      "velocity": 116
    },
    {
      "pitch": 48,
      "start_time": 3.0,
      "duration": 0.0729,
      "velocity": 45
    },
    {
      "pitch": 42,
      "start_time": 3.25,
      "duration": 0.0938,
      "velocity": 45
    },
    {
      "pitch": 48,
      "start_time": 3.25,
      "duration": 0.0938,
      "velocity": 125
    },
    {
      "pitch": 41,
      "start_time": 3.5,
      "duration": 0.0417,
      "velocity": 99
    },
    {
      "pitch": 42,
      "start_time": 3.5,
      "duration": 0.0521,
      "velocity": 57
    },
    {
      "pitch": 45,
      "start_time": 3.5,
      "duration": 0.0417,
      "velocity": 70
    },
    {
      "pitch": 42,
      "start_time": 3.75,
      "duration": 0.0938,
      "velocity": 39
    },
    {
      "pitch": 36,
      "start_time": 4.0,
      "duration": 0.0938,
      "velocity": 107
    },
    {
      "pitch": 42,
      "start_time": 4.0,
      "duration": 0.0521,
      "velocity": 54
    },
    {
      "pitch": 47,
      "start_time": 4.0,
      "duration": 0.0417,
      "velocity": 127
    },
    {
      "pitch": 42,
      "start_time": 4.25,
      "duration": 0.1042,
      "velocity": 49
    },
    {
      "pitch": 47,
      "start_time": 4.25,
      "duration": 0.0938,
      "velocity": 91
    },
    {
      "pitch": 36,
      "start_time": 4.5,
      "duration": 0.0833,
      "velocity": 105
    },
    {
      "pitch": 41,
      "start_time": 4.5,
      "duration": 0.0833,
      "velocity": 118
    },
    {
      "pitch": 42,
      "start_time": 4.5,
      "duration": 0.0521,
      "velocity": 43
    },
    {
      "pitch": 45,
      "start_time": 4.5,
      "duration": 0.0625,
      "velocity": 54
    },
    {
      "pitch": 42,
      "start_time": 4.75,
      "duration": 0.0938,
      "velocity": 38
    },
    {
      "pitch": 47,
      "start_time": 4.75,
      "duration": 0.0417,
      "velocity": 54
    },
    {
      "pitch": 37,
      "start_time": 5.0,
      "duration": 0.0938,
      "velocity": 126
    },
    {
      "pitch": 38,
      "start_time": 5.0,
      "duration": 0.0625,
      "velocity": 126
    },
    {
      "pitch": 39,
      "start_time": 5.0,
      "duration": 0.0938,
      "velocity": 127
    },
    {
      "pitch": 42,
      "start_time": 5.0,
      "duration": 0.0521,
      "velocity": 69
    },
    {
      "pitch": 48,
      "start_time": 5.0,
      "duration": 0.0417,
      "velocity": 59
    },
    {
      "pitch": 42,
      "start_time": 5.25,
      "duration": 0.0938,
      "velocity": 36
    },
    {
      "pitch": 48,
      "start_time": 5.25,
      "duration": 0.0312,
      "velocity": 121
    },
    {
      "pitch": 42,
      "start_time": 5.5,
      "duration": 0.0521,
      "velocity": 67
    },
    {
      "pitch": 45,
      "start_time": 5.5,
      "duration": 0.1146,
      "velocity": 47
    },
    {
      "pitch": 42,
      "start_time": 5.75,
      "duration": 0.1042,
      "velocity": 47
    },
    {
      "pitch": 36,
      "start_time": 6.0,
      "duration": 0.1042,
      "velocity": 108
    },
    {
      "pitch": 41,
      "start_time": 6.0,
      "duration": 0.0938,
      "velocity": 127
    },
    {
      "pitch": 42,
      "start_time": 6.0,
      "duration": 0.0521,
      "velocity": 62
    },
    {
      "pitch": 42,
      "start_time": 6.25,
      "duration": 0.1042,
      "velocity": 41
    },
    {
      "pitch": 41,
      "start_time": 6.5,
      "duration": 0.0729,
      "velocity": 126
    },
    {
      "pitch": 42,
      "start_time": 6.5,
      "duration": 0.0521,
      "velocity": 89
    },
    {
      "pitch": 45,
      "start_time": 6.5,
      "duration": 0.0625,
      "velocity": 70
    },
    {
      "pitch": 42,
      "start_time": 6.75,
      "duration": 0.0938,
      "velocity": 51
    },
    {
      "pitch": 37,
      "start_time": 7.0,
      "duration": 0.0833,
      "velocity": 119
    },
    {
      "pitch": 38,
      "start_time": 7.0,
      "duration": 0.0729,
      "velocity": 108
    },
    {
      "pitch": 39,
      "start_time": 7.0,
      "duration": 0.0833,
      "velocity": 127
    },
    {
      "pitch": 42,
      "start_time": 7.0,
      "duration": 0.0521,
      "velocity": 71
    },
    {
      "pitch": 42,
      "start_time": 7.25,
      "duration": 0.0938,
      "velocity": 56
    },
    {
      "pitch": 45,
      "start_time": 7.25,
      "duration": 0.0417,
      "velocity": 70
    },
    {
      "pitch": 41,
      "start_time": 7.5,
      "duration": 0.0729,
      "velocity": 113
    },
    {
      "pitch": 42,
      "start_time": 7.5,
      "duration": 0.0521,
      "velocity": 90
    },
    {
      "pitch": 45,
      "start_time": 7.5,
      "duration": 0.0521,
      "velocity": 44
    },
    {
      "pitch": 42,
      "start_time": 7.75,
      "duration": 0.0833,
      "velocity": 65
    }
  ]
}