{
  "source": {
    "song": "packs",
    "track_index": 0,
    "track_name": "Drum Essentials / MIDI Clips / 60 - 90 bpm / Resurrection Kit groove 01_84 bpm",
    "slot_index": 0,
    "clip_name": "Drum Essentials / MIDI Clips / 60 - 90 bpm / Resurrection Kit groove 01_84 bpm",
    "mid_file": "/Users/darnold/Music/Ableton/Packs/Drum Essentials/MIDI Clips/60 - 90 bpm/Resurrection Kit groove 01_84 bpm.alc"
  },
  "meta": {
    "bpm": 84.0,
    "key": "?",
    "scale": "?",
    "length_beats": 16.0,
    "note_count": 95
  },
  "rhythm": {
    "density": 1.203,
    "hit_positions": [
      0.0,
      0.25,
      0.375,
      0.5,
      0.625,
      0.75,
      0.875,
      1.0,
      1.25,
      1.25,
      1.5,
      1.75,
      2.0,
      2.25,
      2.25,
      2.5,
      2.75,
      3.0,
      3.0,
      3.25,
      3.5,
      3.5,
      3.75,
      4.0,
      4.25,
      4.375,
      4.5,
      4.625,
      4.75,
      4.875,
      5.0,
      5.25,
      5.25,
      5.5,
      5.75,
      6.0,
      6.25,
      6.25,
      6.5,
      6.75,
      7.0,
      7.0,
      7.0,
      7.25,
      7.5,
      7.5,
      7.75,
      8.0,
      8.25,
      8.375,
      8.5,
      8.625,
      8.75,
      8.875,
      9.0,
      9.25,
      9.25,
      9.5,
      9.75,
      10.0,
      10.25,
      10.25,
      10.5,
      10.75,
      11.0,
      11.0,
      11.25,
      11.5,
      11.5,
      11.75,
      12.0,
      12.25,
      12.375,
      12.5,
      12.625,
      12.75,
      12.875,
      13.0,
      13.25,
      13.25,
      13.5,
      13.75,
      14.0,
      14.25,
      14.25,
      14.5,
      14.75,
      15.0,
      15.0,
      15.0,
      15.25,
      15.5,
      15.5,
      15.75,
      15.875
    ],
    "ioi": [
      0.25,
      0.125,
      0.125,
      0.125,
      0.125,
      0.125,
      0.125,
      0.25,
      0.0,
      0.25,
      0.25,
      0.25,
      0.25,
      0.0,
      0.25,
      0.25,
      0.25,
      0.0,
      0.25,
      0.25,
      0.0,
      0.25,
      0.25,
      0.25,
      0.125,
      0.125,
      0.125,
      0.125,
      0.125,
      0.125,
      0.25,
      0.0,
      0.25,
      0.25,
      0.25,
      0.25,
      0.0,
      0.25,
      0.25,
      0.25,
      0.0,
      0.0,
      0.25,
      0.25,
      0.0,
      0.25,
      0.25,
      0.25,
      0.125,
      0.125,
      0.125,
      0.125,
      0.125,
      0.125,
      0.25,
      0.0,
      0.25,
      0.25,
      0.25,
      0.25,
      0.0,
      0.25,
      0.25,
      0.25,
      0.0,
      0.25,
      0.25,
      0.0,
      0.25,
      0.25,
      0.25,
      0.125,
      0.125,
      0.125,
      0.125,
      0.125,
      0.125,
      0.25,
      0.0,
      0.25,
      0.25,
      0.25,
      0.25,
      0.0,
      0.25,
      0.25,
      0.25,
      0.0,
      0.0,
      0.25,
      0.25,
      0.0,
      0.25,
      0.125,
      0.125
    ],
    "grid": "16th",
    "euclidean_approx": [
      64,
      64
    ],
    "swing_ratio": 1.092
  },
  "pitch": {
    "notes_used": [
      36,
      37,
      38,
      39,
      40,
      41,
      42,
      44,
      45,
      46,
      47,
      48,
      49,
      50,
      51
    ],
    "intervals": [
      6,
      2,
      5,
      6,
      3,
      5,
      1,
      8,
      3,
      10,
      3,
      6,
      4,
      2,
      3,
      3,
      2,
      13,
      9,
      3,
      8,
      5,
      6,
      6,
      2,
      5,
      6,
      3,
      5,
      1,
      8,
      3,
      10,
      3,
      6,
      4,
      2,
      3,
      3,
      2,
      3,
      7,
      6,
      3,
      8,
      5,
      6,
      6,
      2,
      5,
      6,
      3,
      5,
      1,
      8,
      3,
      10,
      3,
      6,
      4,
      2,
      3,
      3,
      2,
      13,
      9,
      3,
      8,
      5,
      6,
      6,
      2,
      5,
      6,
      3,
      5,
      1,
      8,
      3,
      10,
      3,
      6,
      4,
      2,
      3,
      3,
      2,
      3,
      9,
      8,
      3,
      8,
      5,
      0
    ],
    "register": "low",
    "is_melodic": true,
    "pitch_range": 15,
    "pitch_distribution": {
      "36": 12,
      "42": 25,
      "44": 4,
      "39": 16,
      "45": 4,
      "37": 4,
      "38": 8,
      "46": 4,
      "49": 4,
      "40": 4,
      "51": 2,
      "47": 4,
      "41": 2,
      "48": 1,
      "50": 1
    }
  },
  "velocity": {
    "mean": 98.5,
    "variance": 414.9,
    "std": 20.4,
    "accents": [
      0,
      7,
      12,
      16,
      17,
      23,
      30,
      35,
      39,
      40,
      47,
      54,
      59,
      63,
      64,
      70,
      77,
      82,
      86,
      87
    ],
    "profile": [
      127,
      73,
      82,
      59,
      111,
      89,
      110,
      125,
      111,
      85,
      73,
      89,
      127,
      110,
      89,
      73,
      127,
      125,
      111,
      89,
      73,
      110,
      89,
      127,
      73,
      82,
      59,
      111,
      89,
      110,
      125,
      110,
      85,
      73,
      89,
      127,
      110,
      89,
      73,
      127,
      125,
      110,
      111,
      89,
      73,
      110,
      89,
      127,
      73,
      82,
      59,
      111,
      89,
      110,
      125,
      110,
      85,
      73,
      89,
      127,
      110,
      89,
      73,
      127,
      125,
      111,
      89,
      73,
      110,
      89,
      127,
      73,
      82,
      59,
      111,
      89,
      110,
      125,
      110,
      85,
      73,
      89,
      127,
      110,
      89,
      73,
      127,
      125,
      110,
      111,
      89,
      73,
      110,
      89,
      110
    ]
  },
  "notes": [
    {
      "pitch": 36,
      "start_time": 0.0,
      "duration": 0.125,
      "velocity": 127
    },
    {
      "pitch": 42,
      "start_time": 0.25,
      "duration": 0.125,
      "velocity": 73
    },
    {
      "pitch": 44,
      "start_time": 0.375,
      "duration": 0.125,
      "velocity": 82
    },
    {
      "pitch": 39,
      "start_time": 0.5,
      "duration": 0.125,
      "velocity": 59
    },
    {
      "pitch": 45,
      "start_time": 0.625,
      "duration": 0.125,
      "velocity": 111
    },
    {
      "pitch": 42,
      "start_time": 0.75,
      "duration": 0.125,
      "velocity": 89
    },
    {
      "pitch": 37,
      "start_time": 0.875,
      "duration": 0.125,
      "velocity": 110
    },
    {
      "pitch": 38,
      "start_time": 1.0,
      "duration": 0.125,
      "velocity": 125
    },
    {
      "pitch": 46,
      "start_time": 1.25,
      "duration": 0.125,
      "velocity": 111
    },
    {
      "pitch": 49,
      "start_time": 1.25,
      "duration": 0.125,
      "velocity": 85
    },
    {
      "pitch": 39,
      "start_time": 1.5,
      "duration": 0.125,
      "velocity": 73
    },
    {
      "pitch": 42,
      "start_time": 1.75,
      "duration": 0.125,
      "velocity": 89
    },
    {
      "pitch": 36,
      "start_time": 2.0,
      "duration": 0.125,
      "velocity": 127
    },
    {
      "pitch": 40,
      "start_time": 2.25,
      "duration": 0.125,
      "velocity": 110
    },
    {
      "pitch": 42,
      "start_time": 2.25,
      "duration": 0.125,
      "velocity": 89
    },
    {
      "pitch": 39,
      "start_time": 2.5,
      "duration": 0.125,
      "velocity": 73
    },
    {
      "pitch": 36,
      "start_time": 2.75,
      "duration": 0.125,
      "velocity": 127
    },
    {
      "pitch": 38,
      "start_time": 3.0,
      "duration": 0.125,
      "velocity": 125
    },
    {
      "pitch": 51,
      "start_time": 3.0,
      "duration": 0.125,
      "velocity": 111
    },
    {
      "pitch": 42,
      "start_time": 3.25,
      "duration": 0.125,
      "velocity": 89
    },
    {
      "pitch": 39,
      "start_time": 3.5,
      "duration": 0.125,
      "velocity": 73
    },
    {
      "pitch": 47,
      "start_time": 3.5,
      "duration": 0.125,
      "velocity": 110
    },
    {
      "pitch": 42,
      "start_time": 3.75,
      "duration": 0.125,
      "velocity": 89
    },
    {
      "pitch": 36,
      "start_time": 4.0,
      "duration": 0.125,
      "velocity": 127
    },
    {
      "pitch": 42,
      "start_time": 4.25,
      "duration": 0.125,
      "velocity": 73
    },
    {
      "pitch": 44,
      "start_time": 4.375,
      "duration": 0.125,
      "velocity": 82
    },
    {
      "pitch": 39,
      "start_time": 4.5,
      "duration": 0.125,
      "velocity": 59
    },
    {
      "pitch": 45,
      "start_time": 4.625,
      "duration": 0.125,
      "velocity": 111
    },
    {
      "pitch": 42,
      "start_time": 4.75,
      "duration": 0.125,
      "velocity": 89
    },
    {
      "pitch": 37,
      "start_time": 4.875,
      "duration": 0.125,
      "velocity": 110
    },
    {
      "pitch": 38,
      "start_time": 5.0,
      "duration": 0.125,
      "velocity": 125
    },
    {
      "pitch": 46,
      "start_time": 5.25,
      "duration": 0.125,
      "velocity": 110
    },
    {
      "pitch": 49,
      "start_time": 5.25,
      "duration": 0.125,
      "velocity": 85
    },
    {
      "pitch": 39,
      "start_time": 5.5,
      "duration": 0.125,
      "velocity": 73
    },
    {
      "pitch": 42,
      "start_time": 5.75,
      "duration": 0.125,
      "velocity": 89
    },
    {
      "pitch": 36,
      "start_time": 6.0,
      "duration": 0.125,
      "velocity": 127
    },
    {
      "pitch": 40,
      "start_time": 6.25,
      "duration": 0.125,
      "velocity": 110
    },
    {
      "pitch": 42,
      "start_time": 6.25,
      "duration": 0.125,
      "velocity": 89
    },
    {
      "pitch": 39,
      "start_time": 6.5,
      "duration": 0.125,
      "velocity": 73
    },
    {
      "pitch": 36,
      "start_time": 6.75,
      "duration": 0.125,
      "velocity": 127
    },
    {
      "pitch": 38,
      "start_time": 7.0,
      "duration": 0.125,
      "velocity": 125
    },
    {
      "pitch": 41,
      "start_time": 7.0,
      "duration": 0.125,
      "velocity": 110
    },
    {
      "pitch": 48,
      "start_time": 7.0,
      "duration": 0.125,
      "velocity": 111
    },
    {
      "pitch": 42,
      "start_time": 7.25,
      "duration": 0.125,
      "velocity": 89
    },
    {
      "pitch": 39,
      "start_time": 7.5,
      "duration": 0.125,
      "velocity": 73
    },
    {
      "pitch": 47,
      "start_time": 7.5,
      "duration": 0.125,
      "velocity": 110
    },
    {
      "pitch": 42,
      "start_time": 7.75,
      "duration": 0.125,
      "velocity": 89
    },
    {
      "pitch": 36,
      "start_time": 8.0,
      "duration": 0.125,
      "velocity": 127
    },
    {
      "pitch": 42,
      "start_time": 8.25,
      "duration": 0.125,
      "velocity": 73
    },
    {
      "pitch": 44,
      "start_time": 8.375,
      "duration": 0.125,
      "velocity": 82
    },
    {
      "pitch": 39,
      "start_time": 8.5,
      "duration": 0.125,
      "velocity": 59
    },
    {
      "pitch": 45,
      "start_time": 8.625,
      "duration": 0.125,
      "velocity": 111
    },
    {
      "pitch": 42,
      "start_time": 8.75,
      "duration": 0.125,
      "velocity": 89
    },
    {
      "pitch": 37,
      "start_time": 8.875,
      "duration": 0.125,
      "velocity": 110
    },
    {
      "pitch": 38,
      "start_time": 9.0,
      "duration": 0.125,
      "velocity": 125
    },
    {
      "pitch": 46,
      "start_time": 9.25,
      "duration": 0.125,
      "velocity": 110
    },
    {
      "pitch": 49,
      "start_time": 9.25,
      "duration": 0.125,
      "velocity": 85
    },
    {
      "pitch": 39,
      "start_time": 9.5,
      "duration": 0.125,
      "velocity": 73
    },
    {
      "pitch": 42,
      "start_time": 9.75,
      "duration": 0.125,
      "velocity": 89
    },
    {
      "pitch": 36,
      "start_time": 10.0,
      "duration": 0.125,
      "velocity": 127
    },
    {
      "pitch": 40,
      "start_time": 10.25,
      "duration": 0.125,
      "velocity": 110
    },
    {
      "pitch": 42,
      "start_time": 10.25,
      "duration": 0.125,
      "velocity": 89
    },
    {
      "pitch": 39,
      "start_time": 10.5,
      "duration": 0.125,
      "velocity": 73
    },
    {
      "pitch": 36,
      "start_time": 10.75,
      "duration": 0.125,
      "velocity": 127
    },
    {
      "pitch": 38,
      "start_time": 11.0,
      "duration": 0.125,
      "velocity": 125
    },
    {
      "pitch": 51,
      "start_time": 11.0,
      "duration": 0.125,
      "velocity": 111
    },
    {
      "pitch": 42,
      "start_time": 11.25,
      "duration": 0.125,
      "velocity": 89
    },
    {
      "pitch": 39,
      "start_time": 11.5,
      "duration": 0.125,
      "velocity": 73
    },
    {
      "pitch": 47,
      "start_time": 11.5,
      "duration": 0.125,
      "velocity": 110
    },
    {
      "pitch": 42,
      "start_time": 11.75,
      "duration": 0.125,
      "velocity": 89
    },
    {
      "pitch": 36,
      "start_time": 12.0,
      "duration": 0.125,
      "velocity": 127
    },
    {
      "pitch": 42,
      "start_time": 12.25,
      "duration": 0.125,
      "velocity": 73
    },
    {
      "pitch": 44,
      "start_time": 12.375,
      "duration": 0.125,
      "velocity": 82
    },
    {
      "pitch": 39,
      "start_time": 12.5,
      "duration": 0.125,
      "velocity": 59
    },
    {
      "pitch": 45,
      "start_time": 12.625,
      "duration": 0.125,
      "velocity": 111
    },
    {
      "pitch": 42,
      "start_time": 12.75,
      "duration": 0.125,
      "velocity": 89
    },
    {
      "pitch": 37,
      "start_time": 12.875,
      "duration": 0.125,
      "velocity": 110
    },
    {
      "pitch": 38,
      "start_time": 13.0,
      "duration": 0.125,
      "velocity": 125
    },
    {
      "pitch": 46,
      "start_time": 13.25,
      "duration": 0.125,
      "velocity": 110
    },
    {
      "pitch": 49,
      "start_time": 13.25,
      "duration": 0.125,
      "velocity": 85
    },
    {
      "pitch": 39,
      "start_time": 13.5,
      "duration": 0.125,
      "velocity": 73
    },
    {
      "pitch": 42,
      "start_time": 13.75,
      "duration": 0.125,
      "velocity": 89
    },
    {
      "pitch": 36,
      "start_time": 14.0,
      "duration": 0.125,
      "velocity": 127
    },
    {
      "pitch": 40,
      "start_time": 14.25,
      "duration": 0.125,
      "velocity": 110
    },
    {
      "pitch": 42,
      "start_time": 14.25,
      "duration": 0.125,
      "velocity": 89
    },
    {
      "pitch": 39,
      "start_time": 14.5,
      "duration": 0.125,
      "velocity": 73
    },
    {
      "pitch": 36,
      "start_time": 14.75,
      "duration": 0.125,
      "velocity": 127
    },
    {
      "pitch": 38,
      "start_time": 15.0,
      "duration": 0.125,
      "velocity": 125
    },
    {
      "pitch": 41,
      "start_time": 15.0,
      "duration": 0.125,
      "velocity": 110
    },
    {
      "pitch": 50,
      "start_time": 15.0,
      "duration": 0.125,
      "velocity": 111
    },
    {
      "pitch": 42,
      "start_time": 15.25,
      "duration": 0.125,
      "velocity": 89
    },
    {
      "pitch": 39,
      "start_time": 15.5,
      "duration": 0.125,
      "velocity": 73
    },
    {
      "pitch": 47,
      "start_time": 15.5,
      "duration": 0.125,
      "velocity": 110
    },
    {
      "pitch": 42,
      "start_time": 15.75,
      "duration": 0.125,
      "velocity": 89
    },
    {
      "pitch": 42,
      "start_time": 15.875,
      "duration": 0.125,
      "velocity": 110
    }
  ]
}