{
  "source": {
    "song": "packs",
    "track_index": 0,
    "track_name": "Drum Essentials / MIDI Clips / 91 - 110 bpm / Abuse Kit groove 02_110 bpm",
    "slot_index": 0,
    "clip_name": "Drum Essentials / MIDI Clips / 91 - 110 bpm / Abuse Kit groove 02_110 bpm",
    "mid_file": "/Users/darnold/Music/Ableton/Packs/Drum Essentials/MIDI Clips/91 - 110 bpm/Abuse Kit groove 02_110 bpm.alc"
  },
  "meta": {
    "bpm": 110.0,
    "key": "?",
    "scale": "?",
    "length_beats": 16.0,
    "note_count": 72
  },
  "rhythm": {
    "density": 1.375,
    "hit_positions": [
      0.0,
      0.25,
      0.5,
      0.5,
      0.75,
      1.0,
      1.0,
      1.5,
      2.5,
      3.0,
      3.0,
      3.25,
      3.5,
      3.5,
      3.5,
      3.75,
      4.0,
      4.0,
      4.25,
      4.5,
      4.5,
      4.75,
      4.75,
      5.0,
      5.5,
      6.5,
      6.5,
      7.0,
      7.25,
      7.25,
      7.25,
      7.25,
      7.5,
      7.5,
      7.75,
      7.75,
      8.0,
      8.25,
      8.5,
      8.5,
      8.75,
      9.0,
      9.0,
      9.5,
      10.5,
      11.0,
      11.0,
      11.25,
      11.5,
      11.5,
      11.5,
      11.75,
      12.0,
      12.0,
      12.25,
      12.5,
      12.5,
      12.75,
      12.75,
      13.0,
      13.5,
      14.5,
      14.5,
      15.0,
      15.25,
      15.25,
      15.25,
      15.25,
      15.5,
      15.5,
      15.75,
      15.75
    ],
    "ioi": [
      0.25,
      0.25,
      0.0,
      0.25,
      0.25,
      0.0,
      0.5,
      1.0,
      0.5,
      0.0,
      0.25,
      0.25,
      0.0,
      0.0,
      0.25,
      0.25,
      0.0,
      0.25,
      0.25,
      0.0,
      0.25,
      0.0,
      0.25,
      0.5,
      1.0,
      0.0,
      0.5,
      0.25,
      0.0,
      0.0,
      0.0,
      0.25,
      0.0,
      0.25,
      0.0,
      0.25,
      0.25,
      0.25,
      0.0,
      0.25,
      0.25,
      0.0,
      0.5,
      1.0,
      0.5,
      0.0,
      0.25,
      0.25,
      0.0,
      0.0,
      0.25,
      0.25,
      0.0,
      0.25,
      0.25,
      0.0,
      0.25,
      0.0,
      0.25,
      0.5,
      1.0,
      0.0,
      0.5,
      0.25,
      0.0,
      0.0,
      0.0,
      0.25,
      0.0,
      0.25,
      0.0,
      0.25
    ],
    "grid": "8th",
    "euclidean_approx": [
      64,
      64
    ],
    "swing_ratio": 1.0
  },
  "pitch": {
    "notes_used": [
      36,
      37,
      38,
      40,
      42,
      44,
      45,
      47,
      49
    ],
    "intervals": [
      5,
      2,
      5,
      9,
      3,
      1,
      9,
      5,
      6,
      2,
      2,
      0,
      9,
      2,
      11,
      8,
      3,
      7,
      2,
      7,
      11,
      9,
      10,
      10,
      11,
      11,
      5,
      6,
      6,
      2,
      5,
      7,
      3,
      3,
      3,
      2,
      5,
      2,
      5,
      9,
      3,
      1,
      9,
      5,
      6,
      2,
      2,
      0,
      9,
      2,
      11,
      8,
      3,
      7,
      2,
      7,
      11,
      9,
      10,
      10,
      11,
      11,
      5,
      6,
      6,
      2,
      5,
      7,
      3,
      3,
      3
    ],
    "register": "low",
    "is_melodic": true,
    "pitch_range": 13,
    "pitch_distribution": {
      "47": 14,
      "42": 14,
      "44": 6,
      "49": 6,
      "40": 4,
      "37": 4,
      "38": 6,
      "36": 12,
      "45": 6
    }
  },
  "velocity": {
    "mean": 67.6,
    "variance": 1089.3,
    "std": 33.0,
    "accents": [
      0,
      6,
      7,
      10,
      17,
      24,
      30,
      35,
      36,
      42,
      43,
      46,
      53,
      60,
      66,
      71
    ],
    "profile": [
      118,
      93,
      47,
      40,
      50,
      35,
      116,
      110,
      98,
      24,
      124,
      32,
      50,
      54,
      94,
      59,
      62,
      109,
      74,
      86,
      45,
      94,
      11,
      41,
      103,
      51,
      98,
      20,
      70,
      23,
      104,
      35,
      27,
      41,
      89,
      108,
      118,
      93,
      47,
      40,
      50,
      35,
      116,
      110,
      98,
      24,
      124,
      32,
      50,
      54,
      94,
      59,
      62,
      109,
      74,
      86,
      45,
      94,
      11,
      41,
      103,
      51,
      98,
      20,
      70,
      23,
      104,
      35,
      27,
      41,
      89,
      108
    ]
  },
  "notes": [
    {
      "pitch": 47,
      "start_time": 0.0,
      "duration": 0.1476,
      "velocity": 118
    },
    {
      "pitch": 42,
      "start_time": 0.25,
      "duration": 0.1133,
      "velocity": 93
    },
    {
      "pitch": 44,
      "start_time": 0.5,
      "duration": 0.1288,
      "velocity": 47
    },
    {
      "pitch": 49,
      "start_time": 0.5,
      "duration": 0.0642,
      "velocity": 40
    },
    {
      "pitch": 40,
      "start_time": 0.75,
      "duration": 0.0881,
      "velocity": 50
    },
    {
      "pitch": 37,
      "start_time": 1.0,
      "duration": 0.0779,
      "velocity": 35
    },
    {
      "pitch": 38,
      "start_time": 1.0,
      "duration": 0.1124,
      "velocity": 116
    },
    {
      "pitch": 47,
      "start_time": 1.5,
      "duration": 0.1179,
      "velocity": 110
    },
    {
      "pitch": 42,
      "start_time": 2.5,
      "duration": 0.1076,
      "velocity": 98
    },
    {
      "pitch": 36,
      "start_time": 3.0,
      "duration": 0.25,
      "velocity": 24
    },
    {
      "pitch": 38,
      "start_time": 3.0,
      "duration": 0.104,
      "velocity": 124
    },
    {
      "pitch": 36,
      "start_time": 3.25,
      "duration": 0.25,
      "velocity": 32
    },
    {
      "pitch": 36,
      "start_time": 3.5,
      "duration": 0.25,
      "velocity": 50
    },
    {
      "pitch": 45,
      "start_time": 3.5,
      "duration": 0.0539,
      "velocity": 54
    },
    {
      "pitch": 47,
      "start_time": 3.5,
      "duration": 0.0979,
      "velocity": 94
    },
    {
      "pitch": 36,
      "start_time": 3.75,
      "duration": 0.0148,
      "velocity": 59
    },
    {
      "pitch": 44,
      "start_time": 4.0,
      "duration": 0.1978,
      "velocity": 62
    },
    {
      "pitch": 47,
      "start_time": 4.0,
      "duration": 0.1184,
      "velocity": 109
    },
    {
      "pitch": 40,
      "start_time": 4.25,
      "duration": 0.092,
      "velocity": 74
    },
    {
      "pitch": 42,
      "start_time": 4.5,
      "duration": 0.0641,
      "velocity": 86
    },
    {
      "pitch": 49,
      "start_time": 4.5,
      "duration": 0.0736,
      "velocity": 45
    },
    {
      "pitch": 38,
      "start_time": 4.75,
      "duration": 0.1329,
      "velocity": 94
    },
    {
      "pitch": 47,
      "start_time": 4.75,
      "duration": 0.008,
      "velocity": 11
    },
    {
      "pitch": 37,
      "start_time": 5.0,
      "duration": 0.0632,
      "velocity": 41
    },
    {
      "pitch": 47,
      "start_time": 5.5,
      "duration": 0.0955,
      "velocity": 103
    },
    {
      "pitch": 36,
      "start_time": 6.5,
      "duration": 0.116,
      "velocity": 51
    },
    {
      "pitch": 47,
      "start_time": 6.5,
      "duration": 0.1078,
      "velocity": 98
    },
    {
      "pitch": 42,
      "start_time": 7.0,
      "duration": 0.25,
      "velocity": 20
    },
    {
      "pitch": 36,
      "start_time": 7.25,
      "duration": 0.145,
      "velocity": 70
    },
    {
      "pitch": 42,
      "start_time": 7.25,
      "duration": 0.25,
      "velocity": 23
    },
    {
      "pitch": 44,
      "start_time": 7.25,
      "duration": 0.1541,
      "velocity": 104
    },
    {
      "pitch": 49,
      "start_time": 7.25,
      "duration": 0.0464,
      "velocity": 35
    },
    {
      "pitch": 42,
      "start_time": 7.5,
      "duration": 0.25,
      "velocity": 27
    },
    {
      "pitch": 45,
      "start_time": 7.5,
      "duration": 0.0429,
      "velocity": 41
    },
    {
      "pitch": 42,
      "start_time": 7.75,
      "duration": 0.1142,
      "velocity": 89
    },
    {
      "pitch": 45,
      "start_time": 7.75,
      "duration": 0.0995,
      "velocity": 108
    },
    {
      "pitch": 47,
      "start_time": 8.0,
      "duration": 0.1476,
      "velocity": 118
    },
    {
      "pitch": 42,
      "start_time": 8.25,
      "duration": 0.1133,
      "velocity": 93
    },
    {
      "pitch": 44,
      "start_time": 8.5,
      "duration": 0.1288,
      "velocity": 47
    },
    {
      "pitch": 49,
      "start_time": 8.5,
      "duration": 0.0642,
      "velocity": 40
    },
    {
      "pitch": 40,
      "start_time": 8.75,
      "duration": 0.0881,
      "velocity": 50
    },
    {
      "pitch": 37,
      "start_time": 9.0,
      "duration": 0.0779,
      "velocity": 35
    },
    {
      "pitch": 38,
      "start_time": 9.0,
      "duration": 0.1124,
      "velocity": 116
    },
    {
      "pitch": 47,
      "start_time": 9.5,
      "duration": 0.1179,
      "velocity": 110
    },
    {
      "pitch": 42,
      "start_time": 10.5,
      "duration": 0.1076,
      "velocity": 98
    },
    {
      "pitch": 36,
      "start_time": 11.0,
      "duration": 0.25,
      "velocity": 24
    },
    {
      "pitch": 38,
      "start_time": 11.0,
      "duration": 0.104,
      "velocity": 124
    },
    {
      "pitch": 36,
      "start_time": 11.25,
      "duration": 0.25,
      "velocity": 32
    },
    {
      "pitch": 36,
      "start_time": 11.5,
      "duration": 0.25,
      "velocity": 50
    },
    {
      "pitch": 45,
      "start_time": 11.5,
      "duration": 0.0539,
      "velocity": 54
    },
    {
      "pitch": 47,
      "start_time": 11.5,
      "duration": 0.0979,
      "velocity": 94
    },
    {
      "pitch": 36,
      "start_time": 11.75,
      "duration": 0.0148,
      "velocity": 59
    },
    {
      "pitch": 44,
      "start_time": 12.0,
      "duration": 0.1978,
      "velocity": 62
    },
    {
      "pitch": 47,
      "start_time": 12.0,
      "duration": 0.1184,
      "velocity": 109
    },
    {
      "pitch": 40,
      "start_time": 12.25,
      "duration": 0.092,
      "velocity": 74
    },
    {
      "pitch": 42,
      "start_time": 12.5,
      "duration": 0.0641,
      "velocity": 86
    },
    {
      "pitch": 49,
      "start_time": 12.5,
      "duration": 0.0736,
      "velocity": 45
    },
    {
      "pitch": 38,
      "start_time": 12.75,
      "duration": 0.1329,
      "velocity": 94
    },
    {
      "pitch": 47,
      "start_time": 12.75,
      "duration": 0.008,
      "velocity": 11
    },
    {
      "pitch": 37,
      "start_time": 13.0,
      "duration": 0.0632,
      "velocity": 41
    },
    {
      "pitch": 47,
      "start_time": 13.5,
      "duration": 0.0955,
      "velocity": 103
    },
    {
      "pitch": 36,
      "start_time": 14.5,
      "duration": 0.116,
      "velocity": 51
    },
    {
      "pitch": 47,
      "start_time": 14.5,
      "duration": 0.1078,
      "velocity": 98
    },
    {
      "pitch": 42,
      "start_time": 15.0,
      "duration": 0.25,
      "velocity": 20
    },
    {
      "pitch": 36,
      "start_time": 15.25,
      "duration": 0.145,
      "velocity": 70
    },
    {
      "pitch": 42,
      "start_time": 15.25,
      "duration": 0.25,
      "velocity": 23
    },
    {
      "pitch": 44,
      "start_time": 15.25,
      "duration": 0.1541,
      "velocity": 104
    },
    {
      "pitch": 49,
      "start_time": 15.25,
      "duration": 0.0464,
      "velocity": 35
    },
    {
      "pitch": 42,
      "start_time": 15.5,
      "duration": 0.25,
      "velocity": 27
    },
    {
      "pitch": 45,
      "start_time": 15.5,
      "duration": 0.0429,
      "velocity": 41
    },
    {
      "pitch": 42,
      "start_time": 15.75,
      "duration": 0.1142,
      "velocity": 89
    },
    {
      "pitch": 45,
      "start_time": 15.75,
      "duration": 0.0995,
      "velocity": 108
    }
  ]
}