{
  "source": {
    "song": "packs",
    "track_index": 0,
    "track_name": "Drum Essentials / MIDI Clips / 111 - 130 bpm / C78 Bullet Kit groove 01_120 bpm",
    "slot_index": 0,
    "clip_name": "Drum Essentials / MIDI Clips / 111 - 130 bpm / C78 Bullet Kit groove 01_120 bpm",
    "mid_file": "/Users/darnold/Music/Ableton/Packs/Drum Essentials/MIDI Clips/111 - 130 bpm/C78 Bullet Kit groove 01_120 bpm.alc"
  },
  "meta": {
    "bpm": 120.0,
    "key": "?",
    "scale": "?",
    "length_beats": 8.0,
    "note_count": 46
  },
  "rhythm": {
    "density": 0.875,
    "hit_positions": [
      0.0,
      0.0,
      0.0,
      0.0,
      0.75,
      1.0,
      1.5,
      1.75,
      2.0,
      2.5,
      2.5,
      2.5,
      2.75,
      3.0,
      3.0,
      3.25,
      3.75,
      4.0,
      4.0,
      4.0,
      4.25,
      4.5,
      4.75,
      4.75,
      5.0,
      5.0,
      5.25,
      5.5,
      5.5,
      5.75,
      5.75,
      6.0,
      6.25,
      6.25,
      6.5,
      6.5,
      6.5,
      6.625,
      6.75,
      7.0,
      7.0,
      7.0,
      7.25,
      7.5,
      7.5,
      7.75
    ],
    "ioi": [
      0.0,
      0.0,
      0.0,
      0.75,
      0.25,
      0.5,
      0.25,
      0.25,
      0.5,
      0.0,
      0.0,
      0.25,
      0.25,
      0.0,
      0.25,
      0.5,
      0.25,
      0.0,
      0.0,
      0.25,
      0.25,
      0.25,
      0.0,
      0.25,
      0.0,
      0.25,
      0.25,
      0.0,
      0.25,
      0.0,
      0.25,
      0.25,
      0.0,
      0.25,
      0.0,
      0.0,
      0.125,
      0.125,
      0.25,
      0.0,
      0.0,
      0.25,
      0.25,
      0.0,
      0.25,
      0.25
    ],
    "grid": "16th",
    "euclidean_approx": [
      32,
      32
    ],
    "swing_ratio": 1.0
  },
  "pitch": {
    "notes_used": [
      36,
      38,
      39,
      41,
      42,
      43,
      45,
      47,
      51
    ],
    "intervals": [
      3,
      4,
      8,
      6,
      7,
      7,
      4,
      10,
      10,
      4,
      6,
      0,
      13,
      9,
      0,
      0,
      11,
      6,
      1,
      1,
      0,
      0,
      3,
      7,
      4,
      0,
      0,
      3,
      4,
      1,
      0,
      1,
      1,
      1,
      1,
      3,
      3,
      0,
      4,
      4,
      5,
      5,
      0,
      5,
      5
    ],
    "register": "low",
    "is_melodic": true,
    "pitch_range": 15,
    "pitch_distribution": {
      "36": 2,
      "39": 1,
      "43": 2,
      "51": 4,
      "45": 6,
      "38": 4,
      "41": 5,
      "47": 5,
      "42": 17
    }
  },
  "velocity": {
    "mean": 83.3,
    "variance": 959.0,
    "std": 31.0,
    "accents": [
      0,
      1,
      3,
      5,
      7,
      8,
      9,
      12,
      13,
      17,
      24,
      29,
      39
    ],
    "profile": [
      117,
      121,
      99,
      127,
      67,
      127,
      57,
      127,
      127,
      127,
      70,
      76,
      127,
      127,
      67,
      54,
      69,
      127,
      51,
      95,
      52,
      64,
      60,
      55,
      127,
      54,
      51,
      51,
      59,
      127,
      51,
      52,
      108,
      54,
      101,
      40,
      77,
      40,
      100,
      127,
      57,
      65,
      57,
      59,
      97,
      86
    ]
  },
  "notes": [
    {
      "pitch": 36,
      "start_time": 0.0,
      "duration": 0.158,
      "velocity": 117
    },
    {
      "pitch": 39,
      "start_time": 0.0,
      "duration": 0.1629,
      "velocity": 121
    },
    {
      "pitch": 43,
      "start_time": 0.0,
      "duration": 0.164,
      "velocity": 99
    },
    {
      "pitch": 51,
      "start_time": 0.0,
      "duration": 0.0595,
      "velocity": 127
    },
    {
      "pitch": 45,
      "start_time": 0.75,
      "duration": 0.1518,
      "velocity": 67
    },
    {
      "pitch": 38,
      "start_time": 1.0,
      "duration": 0.2378,
      "velocity": 127
    },
    {
      "pitch": 45,
      "start_time": 1.5,
      "duration": 0.1842,
      "velocity": 57
    },
    {
      "pitch": 41,
      "start_time": 1.75,
      "duration": 0.2357,
      "velocity": 127
    },
    {
      "pitch": 51,
      "start_time": 2.0,
      "duration": 0.1301,
      "velocity": 127
    },
    {
      "pitch": 41,
      "start_time": 2.5,
      "duration": 0.174,
      "velocity": 127
    },
    {
      "pitch": 45,
      "start_time": 2.5,
      "duration": 0.1598,
      "velocity": 70
    },
    {
      "pitch": 51,
      "start_time": 2.5,
      "duration": 0.056,
      "velocity": 76
    },
    {
      "pitch": 51,
      "start_time": 2.75,
      "duration": 0.058,
      "velocity": 127
    },
    {
      "pitch": 38,
      "start_time": 3.0,
      "duration": 0.1926,
      "velocity": 127
    },
    {
      "pitch": 47,
      "start_time": 3.0,
      "duration": 0.0941,
      "velocity": 67
    },
    {
      "pitch": 47,
      "start_time": 3.25,
      "duration": 0.1444,
      "velocity": 54
    },
    {
      "pitch": 47,
      "start_time": 3.75,
      "duration": 0.0759,
      "velocity": 69
    },
    {
      "pitch": 36,
      "start_time": 4.0,
      "duration": 0.1619,
      "velocity": 127
    },
    {
      "pitch": 42,
      "start_time": 4.0,
      "duration": 0.25,
      "velocity": 51
    },
    {
      "pitch": 43,
      "start_time": 4.0,
      "duration": 0.1717,
      "velocity": 95
    },
    {
      "pitch": 42,
      "start_time": 4.25,
      "duration": 0.25,
      "velocity": 52
    },
    {
      "pitch": 42,
      "start_time": 4.5,
      "duration": 0.25,
      "velocity": 64
    },
    {
      "pitch": 42,
      "start_time": 4.75,
      "duration": 0.25,
      "velocity": 60
    },
    {
      "pitch": 45,
      "start_time": 4.75,
      "duration": 0.2725,
      "velocity": 55
    },
    {
      "pitch": 38,
      "start_time": 5.0,
      "duration": 0.248,
      "velocity": 127
    },
    {
      "pitch": 42,
      "start_time": 5.0,
      "duration": 0.25,
      "velocity": 54
    },
    {
      "pitch": 42,
      "start_time": 5.25,
      "duration": 0.25,
      "velocity": 51
    },
    {
      "pitch": 42,
      "start_time": 5.5,
      "duration": 0.25,
      "velocity": 51
    },
    {
      "pitch": 45,
      "start_time": 5.5,
      "duration": 0.379,
      "velocity": 59
    },
    {
      "pitch": 41,
      "start_time": 5.75,
      "duration": 0.1618,
      "velocity": 127
    },
    {
      "pitch": 42,
      "start_time": 5.75,
      "duration": 0.25,
      "velocity": 51
    },
    {
      "pitch": 42,
      "start_time": 6.0,
      "duration": 0.25,
      "velocity": 52
    },
    {
      "pitch": 41,
      "start_time": 6.25,
      "duration": 0.072,
      "velocity": 108
    },
    {
      "pitch": 42,
      "start_time": 6.25,
      "duration": 0.25,
      "velocity": 54
    },
    {
      "pitch": 41,
      "start_time": 6.5,
      "duration": 0.1495,
      "velocity": 101
    },
    {
      "pitch": 42,
      "start_time": 6.5,
      "duration": 0.125,
      "velocity": 40
    },
    {
      "pitch": 45,
      "start_time": 6.5,
      "duration": 0.1658,
      "velocity": 77
    },
    {
      "pitch": 42,
      "start_time": 6.625,
      "duration": 0.125,
      "velocity": 40
    },
    {
      "pitch": 42,
      "start_time": 6.75,
      "duration": 0.125,
      "velocity": 100
    },
    {
      "pitch": 38,
      "start_time": 7.0,
      "duration": 0.2263,
      "velocity": 127
    },
    {
      "pitch": 42,
      "start_time": 7.0,
      "duration": 0.25,
      "velocity": 57
    },
    {
      "pitch": 47,
      "start_time": 7.0,
      "duration": 0.1361,
      "velocity": 65
    },
    {
      "pitch": 42,
      "start_time": 7.25,
      "duration": 0.25,
      "velocity": 57
    },
    {
      "pitch": 42,
      "start_time": 7.5,
      "duration": 0.25,
      "velocity": 59
    },
    {
      "pitch": 47,
      "start_time": 7.5,
      "duration": 0.184,
      "velocity": 97
    },
    {
      "pitch": 42,
      "start_time": 7.75,
      "duration": 0.1653,
      "velocity": 86
    }
  ]
}