{
  "source": {
    "song": "packs",
    "track_index": 0,
    "track_name": "Drum Essentials / MIDI Clips / 91 - 110 bpm / West Outer Kit groove 01_103 bpm",
    "slot_index": 0,
    "clip_name": "Drum Essentials / MIDI Clips / 91 - 110 bpm / West Outer Kit groove 01_103 bpm",
    "mid_file": "/Users/darnold/Music/Ableton/Packs/Drum Essentials/MIDI Clips/91 - 110 bpm/West Outer Kit groove 01_103 bpm.alc"
  },
  "meta": {
    "bpm": 103.0,
    "key": "?",
    "scale": "?",
    "length_beats": 8.0,
    "note_count": 64
  },
  "rhythm": {
    "density": 1.938,
    "hit_positions": [
      0.0,
      0.0,
      0.0,
      0.0,
      0.25,
      0.5,
      0.5,
      0.75,
      0.75,
      1.0,
      1.0,
      1.0,
      1.0,
      1.5,
      1.75,
      1.75,
      2.0,
      2.0,
      2.25,
      2.5,
      2.5,
      2.5,
      2.75,
      2.75,
      3.0,
      3.0,
      3.0,
      3.25,
      3.25,
      3.5,
      3.75,
      4.0,
      4.0,
      4.0,
      4.25,
      4.25,
      4.25,
      4.5,
      4.5,
      4.75,
      4.75,
      5.0,
      5.0,
      5.0,
      5.0,
      5.0,
      5.25,
      5.5,
      5.75,
      6.0,
      6.0,
      6.25,
      6.25,
      6.5,
      6.5,
      6.5,
      6.75,
      7.0,
      7.0,
      7.0,
      7.25,
      7.25,
      7.5,
      7.75
    ],
    "ioi": [
      0.0,
      0.0,
      0.0,
      0.25,
      0.25,
      0.0,
      0.25,
      0.0,
      0.25,
      0.0,
      0.0,
      0.0,
      0.5,
      0.25,
      0.0,
      0.25,
      0.0,
      0.25,
      0.25,
      0.0,
      0.0,
      0.25,
      0.0,
      0.25,
      0.0,
      0.0,
      0.25,
      0.0,
      0.25,
      0.25,
      0.25,
      0.0,
      0.0,
      0.25,
      0.0,
      0.0,
      0.25,
      0.0,
      0.25,
      0.0,
      0.25,
      0.0,
      0.0,
      0.0,
      0.0,
      0.25,
      0.25,
      0.25,
      0.25,
      0.0,
      0.25,
      0.0,
      0.25,
      0.0,
      0.0,
      0.25,
      0.25,
      0.0,
      0.0,
      0.25,
      0.0,
      0.25,
      0.25,
      0.25
    ],
    "grid": "8th",
    "euclidean_approx": [
      32,
      32
    ],
    "swing_ratio": 1.0
  },
  "pitch": {
    "notes_used": [
      36,
      38,
      39,
      40,
      41,
      42,
      44,
      48,
      50
    ],
    "intervals": [
      6,
      2,
      4,
      7,
      1,
      6,
      4,
      4,
      10,
      1,
      1,
      2,
      0,
      2,
      4,
      6,
      8,
      6,
      8,
      6,
      6,
      4,
      6,
      12,
      1,
      3,
      6,
      8,
      0,
      2,
      6,
      8,
      4,
      7,
      3,
      6,
      8,
      6,
      4,
      4,
      10,
      1,
      1,
      2,
      8,
      8,
      2,
      4,
      6,
      8,
      6,
      6,
      14,
      6,
      6,
      4,
      6,
      1,
      3,
      6,
      8,
      0,
      2
    ],
    "register": "low",
    "is_melodic": true,
    "pitch_range": 14,
    "pitch_distribution": {
      "36": 6,
      "42": 15,
      "44": 15,
      "48": 10,
      "41": 2,
      "38": 4,
      "39": 4,
      "40": 2,
      "50": 6
    }
  },
  "velocity": {
    "mean": 61.5,
    "variance": 1039.7,
    "std": 32.2,
    "accents": [
      9,
      18,
      21,
      22,
      24,
      29,
      38,
      39,
      41,
      44,
      47,
      57,
      58
    ],
    "profile": [
      53,
      37,
      88,
      38,
      23,
      24,
      77,
      72,
      56,
      116,
      81,
      24,
      45,
      35,
      67,
      92,
      29,
      16,
      114,
      49,
      28,
      103,
      102,
      28,
      113,
      87,
      39,
      64,
      47,
      99,
      34,
      73,
      54,
      74,
      30,
      91,
      16,
      22,
      97,
      100,
      35,
      127,
      78,
      23,
      100,
      31,
      69,
      119,
      86,
      35,
      17,
      40,
      35,
      57,
      21,
      65,
      76,
      126,
      100,
      28,
      75,
      35,
      91,
      32
    ]
  },
  "notes": [
    {
      "pitch": 36,
      "start_time": 0.0,
      "duration": 0.0938,
      "velocity": 53
    },
    {
      "pitch": 42,
      "start_time": 0.0,
      "duration": 0.1042,
      "velocity": 37
    },
    {
      "pitch": 44,
      "start_time": 0.0,
      "duration": 0.3333,
      "velocity": 88
    },
    {
      "pitch": 48,
      "start_time": 0.0,
      "duration": 0.0625,
      "velocity": 38
    },
    {
      "pitch": 41,
      "start_time": 0.25,
      "duration": 0.0417,
      "velocity": 23
    },
    {
      "pitch": 42,
      "start_time": 0.5,
      "duration": 0.1042,
      "velocity": 24
    },
    {
      "pitch": 48,
      "start_time": 0.5,
      "duration": 0.0938,
      "velocity": 77
    },
    {
      "pitch": 44,
      "start_time": 0.75,
      "duration": 0.0938,
      "velocity": 72
    },
    {
      "pitch": 48,
      "start_time": 0.75,
      "duration": 0.0417,
      "velocity": 56
    },
    {
      "pitch": 38,
      "start_time": 1.0,
      "duration": 0.0938,
      "velocity": 116
    },
    {
      "pitch": 39,
      "start_time": 1.0,
      "duration": 0.0521,
      "velocity": 81
    },
    {
      "pitch": 40,
      "start_time": 1.0,
      "duration": 0.0625,
      "velocity": 24
    },
    {
      "pitch": 42,
      "start_time": 1.0,
      "duration": 0.125,
      "velocity": 45
    },
    {
      "pitch": 42,
      "start_time": 1.5,
      "duration": 0.0521,
      "velocity": 35
    },
    {
      "pitch": 44,
      "start_time": 1.75,
      "duration": 0.0938,
      "velocity": 67
    },
    {
      "pitch": 48,
      "start_time": 1.75,
      "duration": 0.1042,
      "velocity": 92
    },
    {
      "pitch": 42,
      "start_time": 2.0,
      "duration": 0.1146,
      "velocity": 29
    },
    {
      "pitch": 50,
      "start_time": 2.0,
      "duration": 0.0312,
      "velocity": 16
    },
    {
      "pitch": 44,
      "start_time": 2.25,
      "duration": 0.1042,
      "velocity": 114
    },
    {
      "pitch": 36,
      "start_time": 2.5,
      "duration": 0.0938,
      "velocity": 49
    },
    {
      "pitch": 42,
      "start_time": 2.5,
      "duration": 0.0938,
      "velocity": 28
    },
    {
      "pitch": 48,
      "start_time": 2.5,
      "duration": 0.1042,
      "velocity": 103
    },
    {
      "pitch": 44,
      "start_time": 2.75,
      "duration": 0.0729,
      "velocity": 102
    },
    {
      "pitch": 50,
      "start_time": 2.75,
      "duration": 0.0729,
      "velocity": 28
    },
    {
      "pitch": 38,
      "start_time": 3.0,
      "duration": 0.0625,
      "velocity": 113
    },
    {
      "pitch": 39,
      "start_time": 3.0,
      "duration": 0.0833,
      "velocity": 87
    },
    {
      "pitch": 42,
      "start_time": 3.0,
      "duration": 0.125,
      "velocity": 39
    },
    {
      "pitch": 36,
      "start_time": 3.25,
      "duration": 0.1042,
      "velocity": 64
    },
    {
      "pitch": 44,
      "start_time": 3.25,
      "duration": 0.0417,
      "velocity": 47
    },
    {
      "pitch": 44,
      "start_time": 3.5,
      "duration": 0.1354,
      "velocity": 99
    },
    {
      "pitch": 42,
      "start_time": 3.75,
      "duration": 0.125,
      "velocity": 34
    },
    {
      "pitch": 36,
      "start_time": 4.0,
      "duration": 0.0938,
      "velocity": 73
    },
    {
      "pitch": 44,
      "start_time": 4.0,
      "duration": 0.0521,
      "velocity": 54
    },
    {
      "pitch": 48,
      "start_time": 4.0,
      "duration": 0.0938,
      "velocity": 74
    },
    {
      "pitch": 41,
      "start_time": 4.25,
      "duration": 0.0312,
      "velocity": 30
    },
    {
      "pitch": 44,
      "start_time": 4.25,
      "duration": 0.1458,
      "velocity": 91
    },
    {
      "pitch": 50,
      "start_time": 4.25,
      "duration": 0.0312,
      "velocity": 16
    },
    {
      "pitch": 42,
      "start_time": 4.5,
      "duration": 0.3021,
      "velocity": 22
    },
    {
      "pitch": 48,
      "start_time": 4.5,
      "duration": 0.1042,
      "velocity": 97
    },
    {
      "pitch": 44,
      "start_time": 4.75,
      "duration": 0.0521,
      "velocity": 100
    },
    {
      "pitch": 48,
      "start_time": 4.75,
      "duration": 0.0938,
      "velocity": 35
    },
    {
      "pitch": 38,
      "start_time": 5.0,
      "duration": 0.0833,
      "velocity": 127
    },
    {
      "pitch": 39,
      "start_time": 5.0,
      "duration": 0.0938,
      "velocity": 78
    },
    {
      "pitch": 40,
      "start_time": 5.0,
      "duration": 0.0729,
      "velocity": 23
    },
    {
      "pitch": 42,
      "start_time": 5.0,
      "duration": 0.25,
      "velocity": 100
    },
    {
      "pitch": 50,
      "start_time": 5.0,
      "duration": 0.0417,
      "velocity": 31
    },
    {
      "pitch": 42,
      "start_time": 5.25,
      "duration": 0.25,
      "velocity": 69
    },
    {
      "pitch": 44,
      "start_time": 5.5,
      "duration": 0.4688,
      "velocity": 119
    },
    {
      "pitch": 48,
      "start_time": 5.75,
      "duration": 0.1042,
      "velocity": 86
    },
    {
      "pitch": 42,
      "start_time": 6.0,
      "duration": 0.1354,
      "velocity": 35
    },
    {
      "pitch": 50,
      "start_time": 6.0,
      "duration": 0.0625,
      "velocity": 17
    },
    {
      "pitch": 44,
      "start_time": 6.25,
      "duration": 0.1146,
      "velocity": 40
    },
    {
      "pitch": 50,
      "start_time": 6.25,
      "duration": 0.1042,
      "velocity": 35
    },
    {
      "pitch": 36,
      "start_time": 6.5,
      "duration": 0.1042,
      "velocity": 57
    },
    {
      "pitch": 42,
      "start_time": 6.5,
      "duration": 0.0625,
      "velocity": 21
    },
    {
      "pitch": 48,
      "start_time": 6.5,
      "duration": 0.0938,
      "velocity": 65
    },
    {
      "pitch": 44,
      "start_time": 6.75,
      "duration": 0.0625,
      "velocity": 76
    },
    {
      "pitch": 38,
      "start_time": 7.0,
      "duration": 0.0521,
      "velocity": 126
    },
    {
      "pitch": 39,
      "start_time": 7.0,
      "duration": 0.0938,
      "velocity": 100
    },
    {
      "pitch": 42,
      "start_time": 7.0,
      "duration": 0.125,
      "velocity": 28
    },
    {
      "pitch": 36,
      "start_time": 7.25,
      "duration": 0.0938,
      "velocity": 75
    },
    {
      "pitch": 44,
      "start_time": 7.25,
      "duration": 0.0312,
      "velocity": 35
    },
    {
      "pitch": 44,
      "start_time": 7.5,
      "duration": 0.1354,
      "velocity": 91
    },
    {
      "pitch": 42,
      "start_time": 7.75,
      "duration": 0.0625,
      "velocity": 32
    }
  ]
}