{
  "source": {
    "song": "packs",
    "track_index": 0,
    "track_name": "Drum Essentials / MIDI Clips / 111 - 130 bpm / Main Frame Kit groove 02_128 bpm",
    "slot_index": 0,
    "clip_name": "Drum Essentials / MIDI Clips / 111 - 130 bpm / Main Frame Kit groove 02_128 bpm",
    "mid_file": "/Users/darnold/Music/Ableton/Packs/Drum Essentials/MIDI Clips/111 - 130 bpm/Main Frame Kit groove 02_128 bpm.alc"
  },
  "meta": {
    "bpm": 128.0,
    "key": "?",
    "scale": "?",
    "length_beats": 8.0,
    "note_count": 35
  },
  "rhythm": {
    "density": 0.594,
    "hit_positions": [
      0.0012,
      0.0052,
      0.5014,
      0.5019,
      0.7515,
      1.0,
      1.0015,
      1.0057,
      1.5,
      1.5022,
      1.5078,
      2.0015,
      2.5014,
      3.0,
      3.0008,
      3.0033,
      3.5008,
      4.0005,
      4.0095,
      4.5001,
      4.7499,
      4.9999,
      5.0,
      5.0056,
      5.4998,
      5.506,
      6.0,
      6.5,
      6.5,
      7.0,
      7.0001,
      7.0048,
      7.4996,
      7.5001,
      7.7461
    ],
    "ioi": [
      0.004,
      0.4962,
      0.0005,
      0.2496,
      0.2485,
      0.0015,
      0.0042,
      0.4943,
      0.0022,
      0.0056,
      0.4937,
      0.4999,
      0.4986,
      0.0008,
      0.0025,
      0.4975,
      0.4997,
      0.009,
      0.4906,
      0.2498,
      0.25,
      0.0001,
      0.0056,
      0.4942,
      0.0062,
      0.494,
      0.5,
      0.0,
      0.5,
      0.0001,
      0.0047,
      0.4948,
      0.0005,
      0.246,
      0.2551
    ],
    "grid": "16th",
    "euclidean_approx": [
      32,
      32
    ],
    "swing_ratio": 1.751
  },
  "pitch": {
    "notes_used": [
      36,
      37,
      39,
      42,
      43,
      46,
      50
    ],
    "intervals": [
      6,
      6,
      1,
      1,
      3,
      7,
      9,
      13,
      8,
      6,
      6,
      4,
      7,
      3,
      5,
      5,
      0,
      6,
      6,
      0,
      4,
      7,
      2,
      5,
      6,
      6,
      3,
      7,
      7,
      3,
      5,
      0,
      5,
      5
    ],
    "register": "low",
    "is_melodic": true,
    "pitch_range": 14,
    "pitch_distribution": {
      "42": 14,
      "36": 4,
      "43": 1,
      "39": 5,
      "46": 4,
      "37": 6,
      "50": 1
    }
  },
  "velocity": {
    "mean": 64.5,
    "variance": 1076.2,
    "std": 32.8,
    "accents": [
      6,
      7,
      12,
      15,
      21,
      23,
      28,
      29,
      31
    ],
    "profile": [
      80,
      77,
      31,
      2,
      29,
      80,
      103,
      113,
      63,
      55,
      43,
      29,
      99,
      84,
      21,
      105,
      34,
      72,
      56,
      24,
      25,
      102,
      67,
      120,
      45,
      29,
      59,
      88,
      111,
      105,
      30,
      123,
      48,
      48,
      57
    ]
  },
  "notes": [
    {
      "pitch": 42,
      "start_time": 0.0012,
      "duration": 0.0945,
      "velocity": 80
    },
    {
      "pitch": 36,
      "start_time": 0.0052,
      "duration": 0.1302,
      "velocity": 77
    },
    {
      "pitch": 42,
      "start_time": 0.5014,
      "duration": 0.0502,
      "velocity": 31
    },
    {
      "pitch": 43,
      "start_time": 0.5019,
      "duration": 0.0098,
      "velocity": 2
    },
    {
      "pitch": 42,
      "start_time": 0.7515,
      "duration": 0.1193,
      "velocity": 29
    },
    {
      "pitch": 39,
      "start_time": 1.0,
      "duration": 0.0669,
      "velocity": 80
    },
    {
      "pitch": 46,
      "start_time": 1.0015,
      "duration": 0.3352,
      "velocity": 103
    },
    {
      "pitch": 37,
      "start_time": 1.0057,
      "duration": 0.1254,
      "velocity": 113
    },
    {
      "pitch": 50,
      "start_time": 1.5,
      "duration": 0.0969,
      "velocity": 63
    },
    {
      "pitch": 42,
      "start_time": 1.5022,
      "duration": 0.1813,
      "velocity": 55
    },
    {
      "pitch": 36,
      "start_time": 1.5078,
      "duration": 0.1485,
      "velocity": 43
    },
    {
      "pitch": 42,
      "start_time": 2.0015,
      "duration": 0.0563,
      "velocity": 29
    },
    {
      "pitch": 46,
      "start_time": 2.5014,
      "duration": 0.1807,
      "velocity": 99
    },
    {
      "pitch": 39,
      "start_time": 3.0,
      "duration": 0.1259,
      "velocity": 84
    },
    {
      "pitch": 42,
      "start_time": 3.0008,
      "duration": 0.142,
      "velocity": 21
    },
    {
      "pitch": 37,
      "start_time": 3.0033,
      "duration": 0.1211,
      "velocity": 105
    },
    {
      "pitch": 42,
      "start_time": 3.5008,
      "duration": 0.0913,
      "velocity": 34
    },
    {
      "pitch": 42,
      "start_time": 4.0005,
      "duration": 0.0643,
      "velocity": 72
    },
    {
      "pitch": 36,
      "start_time": 4.0095,
      "duration": 0.1462,
      "velocity": 56
    },
    {
      "pitch": 42,
      "start_time": 4.5001,
      "duration": 0.0597,
      "velocity": 24
    },
    {
      "pitch": 42,
      "start_time": 4.7499,
      "duration": 0.1142,
      "velocity": 25
    },
    {
      "pitch": 46,
      "start_time": 4.9999,
      "duration": 0.1282,
      "velocity": 102
    },
    {
      "pitch": 39,
      "start_time": 5.0,
      "duration": 0.0799,
      "velocity": 67
    },
    {
      "pitch": 37,
      "start_time": 5.0056,
      "duration": 0.1214,
      "velocity": 120
    },
    {
      "pitch": 42,
      "start_time": 5.4998,
      "duration": 0.1492,
      "velocity": 45
    },
    {
      "pitch": 36,
      "start_time": 5.506,
      "duration": 0.1443,
      "velocity": 29
    },
    {
      "pitch": 42,
      "start_time": 6.0,
      "duration": 0.0608,
      "velocity": 59
    },
    {
      "pitch": 39,
      "start_time": 6.5,
      "duration": 0.0641,
      "velocity": 88
    },
    {
      "pitch": 46,
      "start_time": 6.5,
      "duration": 0.079,
      "velocity": 111
    },
    {
      "pitch": 39,
      "start_time": 7.0,
      "duration": 0.1167,
      "velocity": 105
    },
    {
      "pitch": 42,
      "start_time": 7.0001,
      "duration": 0.0831,
      "velocity": 30
    },
    {
      "pitch": 37,
      "start_time": 7.0048,
      "duration": 0.1136,
      "velocity": 123
    },
    {
      "pitch": 37,
      "start_time": 7.4996,
      "duration": 0.0865,
      "velocity": 48
    },
    {
      "pitch": 42,
      "start_time": 7.5001,
      "duration": 0.0716,
      "velocity": 48
    },
    {
      "pitch": 37,
      "start_time": 7.7461,
      "duration": 0.117,
      "velocity": 57
    }
  ]
}