{
  "source": {
    "song": "packs",
    "track_index": 0,
    "track_name": "Drum Essentials / MIDI Clips / 91 - 110 bpm / 808 Aristocrat Kit groove 05_110 bpm",
    "slot_index": 0,
    "clip_name": "Drum Essentials / MIDI Clips / 91 - 110 bpm / 808 Aristocrat Kit groove 05_110 bpm",
    "mid_file": "/Users/darnold/Music/Ableton/Packs/Drum Essentials/MIDI Clips/91 - 110 bpm/808 Aristocrat Kit groove 05_110 bpm.alc"
  },
  "meta": {
    "bpm": 110.0,
    "key": "?",
    "scale": "?",
    "length_beats": 8.0,
    "note_count": 67
  },
  "rhythm": {
    "density": 1.688,
    "hit_positions": [
      0.0,
      0.0,
      0.0,
      0.3333,
      0.5,
      0.5,
      0.5,
      0.8333,
      0.8333,
      1.0,
      1.0,
      1.0,
      1.0,
      1.3333,
      1.5,
      1.5,
      1.5,
      2.0,
      2.0,
      2.0,
      2.0,
      2.5,
      2.5,
      2.8333,
      3.0,
      3.0,
      3.0,
      3.3333,
      3.5,
      3.5,
      3.8333,
      3.8333,
      4.0,
      4.0,
      4.0,
      4.0,
      4.3333,
      4.5,
      4.5,
      4.8333,
      4.8333,
      4.8333,
      5.0,
      5.0,
      5.0,
      5.5,
      5.5,
      5.5,
      5.8333,
      6.0,
      6.0,
      6.0,
      6.0,
      6.3333,
      6.3333,
      6.5,
      6.5,
      6.5,
      6.5,
      6.8333,
      6.8333,
      7.0,
      7.0,
      7.0,
      7.5,
      7.5,
      7.5
    ],
    "ioi": [
      0.0,
      0.0,
      0.3333,
      0.1667,
      0.0,
      0.0,
      0.3333,
      0.0,
      0.1667,
      0.0,
      0.0,
      0.0,
      0.3333,
      0.1667,
      0.0,
      0.0,
      0.5,
      0.0,
      0.0,
      0.0,
      0.5,
      0.0,
      0.3333,
      0.1667,
      0.0,
      0.0,
      0.3333,
      0.1667,
      0.0,
      0.3333,
      0.0,
      0.1667,
      0.0,
      0.0,
      0.0,
      0.3333,
      0.1667,
      0.0,
      0.3333,
      0.0,
      0.0,
      0.1667,
      0.0,
      0.0,
      0.5,
      0.0,
      0.0,
      0.3333,
      0.1667,
      0.0,
      0.0,
      0.0,
      0.3333,
      0.0,
      0.1667,
      0.0,
      0.0,
      0.0,
      0.3333,
      0.0,
      0.1667,
      0.0,
      0.0,
      0.5,
      0.0,
      0.0,
      0.5
    ],
    "grid": "8th",
    "euclidean_approx": [
      32,
      32
    ],
    "swing_ratio": 1.333
  },
  "pitch": {
    "notes_used": [
      36,
      37,
      38,
      39,
      41,
      42,
      43,
      44,
      45,
      46,
      47,
      48,
      49,
      50
    ],
    "intervals": [
      6,
      8,
      0,
      13,
      5,
      8,
      14,
      11,
      9,
      1,
      3,
      8,
      13,
      1,
      6,
      5,
      10,
      5,
      6,
      1,
      13,
      6,
      3,
      7,
      1,
      3,
      6,
      6,
      3,
      1,
      2,
      10,
      1,
      5,
      8,
      0,
      8,
      8,
      14,
      1,
      10,
      9,
      1,
      3,
      6,
      6,
      5,
      10,
      5,
      3,
      3,
      1,
      13,
      2,
      2,
      1,
      5,
      5,
      6,
      4,
      7,
      1,
      3,
      6,
      6,
      1
    ],
    "register": "low",
    "is_melodic": true,
    "pitch_range": 14,
    "pitch_distribution": {
      "36": 11,
      "42": 16,
      "50": 7,
      "37": 7,
      "47": 5,
      "38": 5,
      "39": 4,
      "48": 2,
      "49": 2,
      "45": 4,
      "44": 1,
      "46": 1,
      "41": 1,
      "43": 1
    }
  },
  "velocity": {
    "mean": 32.0,
    "variance": 448.9,
    "std": 21.2,
    "accents": [
      9,
      11,
      19,
      25,
      42,
      43,
      44,
      57,
      61
    ],
    "profile": [
      45,
      39,
      3,
      8,
      2,
      19,
      10,
      18,
      13,
      72,
      49,
      72,
      12,
      8,
      36,
      41,
      53,
      15,
      28,
      58,
      3,
      35,
      43,
      22,
      48,
      57,
      40,
      47,
      25,
      14,
      36,
      24,
      45,
      7,
      39,
      9,
      8,
      23,
      12,
      37,
      14,
      22,
      84,
      82,
      84,
      37,
      34,
      42,
      20,
      18,
      17,
      52,
      3,
      27,
      6,
      12,
      13,
      56,
      48,
      16,
      16,
      72,
      49,
      47,
      35,
      32,
      31
    ]
  },
  "notes": [
    {
      "pitch": 36,
      "start_time": 0.0,
      "duration": 0.0938,
      "velocity": 45
    },
    {
      "pitch": 42,
      "start_time": 0.0,
      "duration": 0.0833,
      "velocity": 39
    },
    {
      "pitch": 50,
      "start_time": 0.0,
      "duration": 0.001,
      "velocity": 3
    },
    {
      "pitch": 50,
      "start_time": 0.3333,
      "duration": 0.0833,
      "velocity": 8
    },
    {
      "pitch": 37,
      "start_time": 0.5,
      "duration": 0.0625,
      "velocity": 2
    },
    {
      "pitch": 42,
      "start_time": 0.5,
      "duration": 0.0521,
      "velocity": 19
    },
    {
      "pitch": 50,
      "start_time": 0.5,
      "duration": 0.0417,
      "velocity": 10
    },
    {
      "pitch": 36,
      "start_time": 0.8333,
      "duration": 0.0417,
      "velocity": 18
    },
    {
      "pitch": 47,
      "start_time": 0.8333,
      "duration": 0.0833,
      "velocity": 13
    },
    {
      "pitch": 38,
      "start_time": 1.0,
      "duration": 0.0625,
      "velocity": 72
    },
    {
      "pitch": 39,
      "start_time": 1.0,
      "duration": 0.0938,
      "velocity": 49
    },
    {
      "pitch": 42,
      "start_time": 1.0,
      "duration": 0.0625,
      "velocity": 72
    },
    {
      "pitch": 50,
      "start_time": 1.0,
      "duration": 0.0104,
      "velocity": 12
    },
    {
      "pitch": 37,
      "start_time": 1.3333,
      "duration": 0.0521,
      "velocity": 8
    },
    {
      "pitch": 36,
      "start_time": 1.5,
      "duration": 0.0729,
      "velocity": 36
    },
    {
      "pitch": 42,
      "start_time": 1.5,
      "duration": 0.0938,
      "velocity": 41
    },
    {
      "pitch": 47,
      "start_time": 1.5,
      "duration": 0.0521,
      "velocity": 53
    },
    {
      "pitch": 37,
      "start_time": 2.0,
      "duration": 0.0417,
      "velocity": 15
    },
    {
      "pitch": 42,
      "start_time": 2.0,
      "duration": 0.0521,
      "velocity": 28
    },
    {
      "pitch": 48,
      "start_time": 2.0,
      "duration": 0.0417,
      "velocity": 58
    },
    {
      "pitch": 49,
      "start_time": 2.0,
      "duration": 0.001,
      "velocity": 3
    },
    {
      "pitch": 36,
      "start_time": 2.5,
      "duration": 0.0729,
      "velocity": 35
    },
    {
      "pitch": 42,
      "start_time": 2.5,
      "duration": 0.0833,
      "velocity": 43
    },
    {
      "pitch": 45,
      "start_time": 2.8333,
      "duration": 0.0417,
      "velocity": 22
    },
    {
      "pitch": 38,
      "start_time": 3.0,
      "duration": 0.0521,
      "velocity": 48
    },
    {
      "pitch": 39,
      "start_time": 3.0,
      "duration": 0.0833,
      "velocity": 57
    },
    {
      "pitch": 42,
      "start_time": 3.0,
      "duration": 0.0521,
      "velocity": 40
    },
    {
      "pitch": 36,
      "start_time": 3.3333,
      "duration": 0.1042,
      "velocity": 47
    },
    {
      "pitch": 42,
      "start_time": 3.5,
      "duration": 0.0521,
      "velocity": 25
    },
    {
      "pitch": 45,
      "start_time": 3.5,
      "duration": 0.0417,
      "velocity": 14
    },
    {
      "pitch": 44,
      "start_time": 3.8333,
      "duration": 0.0521,
      "velocity": 36
    },
    {
      "pitch": 46,
      "start_time": 3.8333,
      "duration": 0.2188,
      "velocity": 24
    },
    {
      "pitch": 36,
      "start_time": 4.0,
      "duration": 0.0938,
      "velocity": 45
    },
    {
      "pitch": 37,
      "start_time": 4.0,
      "duration": 0.0729,
      "velocity": 7
    },
    {
      "pitch": 42,
      "start_time": 4.0,
      "duration": 0.1042,
      "velocity": 39
    },
    {
      "pitch": 50,
      "start_time": 4.0,
      "duration": 0.001,
      "velocity": 9
    },
    {
      "pitch": 50,
      "start_time": 4.3333,
      "duration": 0.0417,
      "velocity": 8
    },
    {
      "pitch": 42,
      "start_time": 4.5,
      "duration": 0.0729,
      "velocity": 23
    },
    {
      "pitch": 50,
      "start_time": 4.5,
      "duration": 0.001,
      "velocity": 12
    },
    {
      "pitch": 36,
      "start_time": 4.8333,
      "duration": 0.0833,
      "velocity": 37
    },
    {
      "pitch": 37,
      "start_time": 4.8333,
      "duration": 0.0417,
      "velocity": 14
    },
    {
      "pitch": 47,
      "start_time": 4.8333,
      "duration": 0.0417,
      "velocity": 22
    },
    {
      "pitch": 38,
      "start_time": 5.0,
      "duration": 0.0625,
      "velocity": 84
    },
    {
      "pitch": 39,
      "start_time": 5.0,
      "duration": 0.0625,
      "velocity": 82
    },
    {
      "pitch": 42,
      "start_time": 5.0,
      "duration": 0.0417,
      "velocity": 84
    },
    {
      "pitch": 36,
      "start_time": 5.5,
      "duration": 0.0729,
      "velocity": 37
    },
    {
      "pitch": 42,
      "start_time": 5.5,
      "duration": 0.0833,
      "velocity": 34
    },
    {
      "pitch": 47,
      "start_time": 5.5,
      "duration": 0.0417,
      "velocity": 42
    },
    {
      "pitch": 37,
      "start_time": 5.8333,
      "duration": 0.0521,
      "velocity": 20
    },
    {
      "pitch": 42,
      "start_time": 6.0,
      "duration": 0.0625,
      "velocity": 18
    },
    {
      "pitch": 45,
      "start_time": 6.0,
      "duration": 0.0417,
      "velocity": 17
    },
    {
      "pitch": 48,
      "start_time": 6.0,
      "duration": 0.0417,
      "velocity": 52
    },
    {
      "pitch": 49,
      "start_time": 6.0,
      "duration": 0.001,
      "velocity": 3
    },
    {
      "pitch": 36,
      "start_time": 6.3333,
      "duration": 0.0521,
      "velocity": 27
    },
    {
      "pitch": 38,
      "start_time": 6.3333,
      "duration": 0.0625,
      "velocity": 6
    },
    {
      "pitch": 36,
      "start_time": 6.5,
      "duration": 0.0417,
      "velocity": 12
    },
    {
      "pitch": 37,
      "start_time": 6.5,
      "duration": 0.0521,
      "velocity": 13
    },
    {
      "pitch": 42,
      "start_time": 6.5,
      "duration": 0.1042,
      "velocity": 56
    },
    {
      "pitch": 47,
      "start_time": 6.5,
      "duration": 0.0729,
      "velocity": 48
    },
    {
      "pitch": 41,
      "start_time": 6.8333,
      "duration": 0.0417,
      "velocity": 16
    },
    {
      "pitch": 45,
      "start_time": 6.8333,
      "duration": 0.0417,
      "velocity": 16
    },
    {
      "pitch": 38,
      "start_time": 7.0,
      "duration": 0.0625,
      "velocity": 72
    },
    {
      "pitch": 39,
      "start_time": 7.0,
      "duration": 0.1042,
      "velocity": 49
    },
    {
      "pitch": 42,
      "start_time": 7.0,
      "duration": 0.0417,
      "velocity": 47
    },
    {
      "pitch": 36,
      "start_time": 7.5,
      "duration": 0.0729,
      "velocity": 35
    },
    {
      "pitch": 42,
      "start_time": 7.5,
      "duration": 0.0729,
      "velocity": 32
    },
    {
      "pitch": 43,
      "start_time": 7.5,
      "duration": 0.0625,
      "velocity": 31
    }
  ]
}