{
  "source": {
    "song": "packs",
    "track_index": 0,
    "track_name": "Drum Essentials / MIDI Clips / 111 - 130 bpm / Powered Kit groove 02_114 bpm",
    "slot_index": 0,
    "clip_name": "Drum Essentials / MIDI Clips / 111 - 130 bpm / Powered Kit groove 02_114 bpm",
    "mid_file": "/Users/darnold/Music/Ableton/Packs/Drum Essentials/MIDI Clips/111 - 130 bpm/Powered Kit groove 02_114 bpm.alc"
  },
  "meta": {
    "bpm": 114.0,
    "key": "?",
    "scale": "?",
    "length_beats": 8.0,
    "note_count": 65
  },
  "rhythm": {
    "density": 0.844,
    "hit_positions": [
      0.0,
      0.0,
      0.0,
      0.0,
      0.0,
      0.5,
      0.5,
      1.0,
      1.0,
      1.0,
      1.0,
      1.5,
      1.5,
      1.75,
      1.75,
      2.0,
      2.25,
      2.25,
      2.5,
      2.5,
      2.75,
      2.75,
      3.0,
      3.0,
      3.0,
      3.0,
      3.5,
      3.5,
      3.5,
      3.75,
      4.0,
      4.0,
      4.0,
      4.0,
      4.5,
      4.5,
      5.0,
      5.0,
      5.0,
      5.0,
      5.5,
      5.5,
      5.75,
      6.0,
      6.0,
      6.0,
      6.25,
      6.5,
      6.5,
      6.5,
      6.75,
      7.0,
      7.0,
      7.0,
      7.0,
      7.0,
      7.25,
      7.5,
      7.5,
      7.5,
      7.5,
      7.625,
      7.75,
      7.75,
      7.875
    ],
    "ioi": [
      0.0,
      0.0,
      0.0,
      0.0,
      0.5,
      0.0,
      0.5,
      0.0,
      0.0,
      0.0,
      0.5,
      0.0,
      0.25,
      0.0,
      0.25,
      0.25,
      0.0,
      0.25,
      0.0,
      0.25,
      0.0,
      0.25,
      0.0,
      0.0,
      0.0,
      0.5,
      0.0,
      0.0,
      0.25,
      0.25,
      0.0,
      0.0,
      0.0,
      0.5,
      0.0,
      0.5,
      0.0,
      0.0,
      0.0,
      0.5,
      0.0,
      0.25,
      0.25,
      0.0,
      0.0,
      0.25,
      0.25,
      0.0,
      0.0,
      0.25,
      0.25,
      0.0,
      0.0,
      0.0,
      0.0,
      0.25,
      0.25,
      0.0,
      0.0,
      0.0,
      0.125,
      0.125,
      0.0,
      0.125,
      0.125
    ],
    "grid": "16th",
    "euclidean_approx": [
      32,
      32
    ],
    "swing_ratio": 1.036
  },
  "pitch": {
    "notes_used": [
      36,
      37,
      38,
      39,
      42,
      43,
      44,
      45,
      46
    ],
    "intervals": [
      1,
      7,
      1,
      1,
      4,
      2,
      7,
      2,
      3,
      2,
      2,
      2,
      8,
      7,
      1,
      8,
      6,
      1,
      1,
      8,
      6,
      5,
      1,
      4,
      2,
      7,
      5,
      2,
      7,
      1,
      6,
      2,
      2,
      4,
      2,
      7,
      2,
      3,
      2,
      2,
      2,
      1,
      7,
      6,
      2,
      1,
      5,
      4,
      2,
      8,
      0,
      1,
      1,
      4,
      2,
      8,
      0,
      1,
      5,
      2,
      7,
      1,
      1,
      0
    ],
    "register": "low",
    "is_melodic": true,
    "pitch_range": 10,
    "pitch_distribution": {
      "36": 11,
      "37": 11,
      "44": 16,
      "45": 1,
      "46": 2,
      "42": 15,
      "39": 2,
      "43": 4,
      "38": 3
    }
  },
  "velocity": {
    "mean": 45.6,
    "variance": 749.1,
    "std": 27.4,
    "accents": [
      4,
      7,
      8,
      9,
      15,
      16,
      22,
      30,
      36,
      38,
      43,
      45,
      52,
      54
    ],
    "profile": [
      71,
      49,
      41,
      38,
      95,
      20,
      8,
      114,
      87,
      76,
      41,
      22,
      30,
      27,
      63,
      85,
      75,
      55,
      28,
      37,
      13,
      4,
      89,
      38,
      66,
      40,
      16,
      25,
      29,
      37,
      78,
      37,
      48,
      62,
      16,
      19,
      96,
      72,
      82,
      29,
      19,
      21,
      49,
      74,
      58,
      82,
      60,
      25,
      23,
      32,
      19,
      18,
      106,
      58,
      84,
      71,
      19,
      19,
      22,
      37,
      29,
      18,
      19,
      20,
      27
    ]
  },
  "notes": [
    {
      "pitch": 36,
      "start_time": 0.0,
      "duration": 0.0948,
      "velocity": 71
    },
    {
      "pitch": 37,
      "start_time": 0.0,
      "duration": 0.0295,
      "velocity": 49
    },
    {
      "pitch": 44,
      "start_time": 0.0,
      "duration": 0.0806,
      "velocity": 41
    },
    {
      "pitch": 45,
      "start_time": 0.0,
      "duration": 0.0441,
      "velocity": 38
    },
    {
      "pitch": 46,
      "start_time": 0.0,
      "duration": 0.1013,
      "velocity": 95
    },
    {
      "pitch": 42,
      "start_time": 0.5,
      "duration": 0.0843,
      "velocity": 20
    },
    {
      "pitch": 44,
      "start_time": 0.5,
      "duration": 0.0472,
      "velocity": 8
    },
    {
      "pitch": 37,
      "start_time": 1.0,
      "duration": 0.0857,
      "velocity": 114
    },
    {
      "pitch": 39,
      "start_time": 1.0,
      "duration": 0.131,
      "velocity": 87
    },
    {
      "pitch": 42,
      "start_time": 1.0,
      "duration": 0.0755,
      "velocity": 76
    },
    {
      "pitch": 44,
      "start_time": 1.0,
      "duration": 0.0801,
      "velocity": 41
    },
    {
      "pitch": 42,
      "start_time": 1.5,
      "duration": 0.0727,
      "velocity": 22
    },
    {
      "pitch": 44,
      "start_time": 1.5,
      "duration": 0.0828,
      "velocity": 30
    },
    {
      "pitch": 36,
      "start_time": 1.75,
      "duration": 0.0709,
      "velocity": 27
    },
    {
      "pitch": 43,
      "start_time": 1.75,
      "duration": 0.125,
      "velocity": 63
    },
    {
      "pitch": 44,
      "start_time": 2.0,
      "duration": 0.143,
      "velocity": 85
    },
    {
      "pitch": 36,
      "start_time": 2.25,
      "duration": 0.0963,
      "velocity": 75
    },
    {
      "pitch": 42,
      "start_time": 2.25,
      "duration": 0.0829,
      "velocity": 55
    },
    {
      "pitch": 43,
      "start_time": 2.5,
      "duration": 0.1106,
      "velocity": 28
    },
    {
      "pitch": 44,
      "start_time": 2.5,
      "duration": 0.1148,
      "velocity": 37
    },
    {
      "pitch": 36,
      "start_time": 2.75,
      "duration": 0.1235,
      "velocity": 13
    },
    {
      "pitch": 42,
      "start_time": 2.75,
      "duration": 0.0185,
      "velocity": 4
    },
    {
      "pitch": 37,
      "start_time": 3.0,
      "duration": 0.1006,
      "velocity": 89
    },
    {
      "pitch": 38,
      "start_time": 3.0,
      "duration": 0.0564,
      "velocity": 38
    },
    {
      "pitch": 42,
      "start_time": 3.0,
      "duration": 0.0878,
      "velocity": 66
    },
    {
      "pitch": 44,
      "start_time": 3.0,
      "duration": 0.155,
      "velocity": 40
    },
    {
      "pitch": 37,
      "start_time": 3.5,
      "duration": 0.25,
      "velocity": 16
    },
    {
      "pitch": 42,
      "start_time": 3.5,
      "duration": 0.0791,
      "velocity": 25
    },
    {
      "pitch": 44,
      "start_time": 3.5,
      "duration": 0.0834,
      "velocity": 29
    },
    {
      "pitch": 37,
      "start_time": 3.75,
      "duration": 0.1385,
      "velocity": 37
    },
    {
      "pitch": 36,
      "start_time": 4.0,
      "duration": 0.0982,
      "velocity": 78
    },
    {
      "pitch": 42,
      "start_time": 4.0,
      "duration": 0.0903,
      "velocity": 37
    },
    {
      "pitch": 44,
      "start_time": 4.0,
      "duration": 0.1313,
      "velocity": 48
    },
    {
      "pitch": 46,
      "start_time": 4.0,
      "duration": 0.0807,
      "velocity": 62
    },
    {
      "pitch": 42,
      "start_time": 4.5,
      "duration": 0.0964,
      "velocity": 16
    },
    {
      "pitch": 44,
      "start_time": 4.5,
      "duration": 0.0928,
      "velocity": 19
    },
    {
      "pitch": 37,
      "start_time": 5.0,
      "duration": 0.0899,
      "velocity": 96
    },
    {
      "pitch": 39,
      "start_time": 5.0,
      "duration": 0.0614,
      "velocity": 72
    },
    {
      "pitch": 42,
      "start_time": 5.0,
      "duration": 0.0891,
      "velocity": 82
    },
    {
      "pitch": 44,
      "start_time": 5.0,
      "duration": 0.1513,
      "velocity": 29
    },
    {
      "pitch": 42,
      "start_time": 5.5,
      "duration": 0.0856,
      "velocity": 19
    },
    {
      "pitch": 44,
      "start_time": 5.5,
      "duration": 0.1032,
      "velocity": 21
    },
    {
      "pitch": 43,
      "start_time": 5.75,
      "duration": 0.1179,
      "velocity": 49
    },
    {
      "pitch": 36,
      "start_time": 6.0,
      "duration": 0.0999,
      "velocity": 74
    },
    {
      "pitch": 42,
      "start_time": 6.0,
      "duration": 0.0964,
      "velocity": 58
    },
    {
      "pitch": 44,
      "start_time": 6.0,
      "duration": 0.1507,
      "velocity": 82
    },
    {
      "pitch": 43,
      "start_time": 6.25,
      "duration": 0.1045,
      "velocity": 60
    },
    {
      "pitch": 38,
      "start_time": 6.5,
      "duration": 0.0829,
      "velocity": 25
    },
    {
      "pitch": 42,
      "start_time": 6.5,
      "duration": 0.0784,
      "velocity": 23
    },
    {
      "pitch": 44,
      "start_time": 6.5,
      "duration": 0.1328,
      "velocity": 32
    },
    {
      "pitch": 36,
      "start_time": 6.75,
      "duration": 0.0928,
      "velocity": 19
    },
    {
      "pitch": 36,
      "start_time": 7.0,
      "duration": 0.25,
      "velocity": 18
    },
    {
      "pitch": 37,
      "start_time": 7.0,
      "duration": 0.092,
      "velocity": 106
    },
    {
      "pitch": 38,
      "start_time": 7.0,
      "duration": 0.0563,
      "velocity": 58
    },
    {
      "pitch": 42,
      "start_time": 7.0,
      "duration": 0.0936,
      "velocity": 84
    },
    {
      "pitch": 44,
      "start_time": 7.0,
      "duration": 0.1521,
      "velocity": 71
    },
    {
      "pitch": 36,
      "start_time": 7.25,
      "duration": 0.25,
      "velocity": 19
    },
    {
      "pitch": 36,
      "start_time": 7.5,
      "duration": 0.25,
      "velocity": 19
    },
    {
      "pitch": 37,
      "start_time": 7.5,
      "duration": 0.125,
      "velocity": 22
    },
    {
      "pitch": 42,
      "start_time": 7.5,
      "duration": 0.0998,
      "velocity": 37
    },
    {
      "pitch": 44,
      "start_time": 7.5,
      "duration": 0.0681,
      "velocity": 29
    },
    {
      "pitch": 37,
      "start_time": 7.625,
      "duration": 0.125,
      "velocity": 18
    },
    {
      "pitch": 36,
      "start_time": 7.75,
      "duration": 0.0044,
      "velocity": 19
    },
    {
      "pitch": 37,
      "start_time": 7.75,
      "duration": 0.125,
      "velocity": 20
    },
    {
      "pitch": 37,
      "start_time": 7.875,
      "duration": 0.125,
      "velocity": 27
    }
  ]
}