{
  "source": {
    "song": "packs",
    "track_index": 0,
    "track_name": "Drum Essentials / MIDI Clips / 91 - 110 bpm / Klyde Kit groove 01_99 bpm",
    "slot_index": 0,
    "clip_name": "Drum Essentials / MIDI Clips / 91 - 110 bpm / Klyde Kit groove 01_99 bpm",
    "mid_file": "/Users/darnold/Music/Ableton/Packs/Drum Essentials/MIDI Clips/91 - 110 bpm/Klyde Kit groove 01_99 bpm.alc"
  },
  "meta": {
    "bpm": 99.0,
    "key": "?",
    "scale": "?",
    "length_beats": 8.0,
    "note_count": 67
  },
  "rhythm": {
    "density": 1.812,
    "hit_positions": [
      0.0,
      0.0,
      0.0,
      0.25,
      0.5,
      0.5,
      0.5,
      0.75,
      1.0,
      1.0,
      1.0,
      1.0,
      1.5,
      1.5,
      1.75,
      2.0,
      2.0,
      2.25,
      2.25,
      2.5,
      2.5,
      2.75,
      2.75,
      3.0,
      3.0,
      3.0,
      3.0,
      3.25,
      3.25,
      3.5,
      3.5,
      4.0,
      4.0,
      4.0,
      4.25,
      4.5,
      4.5,
      4.5,
      4.75,
      5.0,
      5.0,
      5.0,
      5.0,
      5.25,
      5.5,
      5.5,
      5.5,
      5.75,
      5.75,
      6.0,
      6.0,
      6.25,
      6.25,
      6.5,
      6.5,
      6.5,
      6.75,
      6.75,
      7.0,
      7.0,
      7.0,
      7.0,
      7.25,
      7.25,
      7.5,
      7.5,
      7.5
    ],
    "ioi": [
      0.0,
      0.0,
      0.25,
      0.25,
      0.0,
      0.0,
      0.25,
      0.25,
      0.0,
      0.0,
      0.0,
      0.5,
      0.0,
      0.25,
      0.25,
      0.0,
      0.25,
      0.0,
      0.25,
      0.0,
      0.25,
      0.0,
      0.25,
      0.0,
      0.0,
      0.0,
      0.25,
      0.0,
      0.25,
      0.0,
      0.5,
      0.0,
      0.0,
      0.25,
      0.25,
      0.0,
      0.0,
      0.25,
      0.25,
      0.0,
      0.0,
      0.0,
      0.25,
      0.25,
      0.0,
      0.0,
      0.25,
      0.0,
      0.25,
      0.0,
      0.25,
      0.0,
      0.25,
      0.0,
      0.0,
      0.25,
      0.0,
      0.25,
      0.0,
      0.0,
      0.0,
      0.25,
      0.0,
      0.25,
      0.0,
      0.0,
      0.5
    ],
    "grid": "8th",
    "euclidean_approx": [
      32,
      32
    ],
    "swing_ratio": 1.0
  },
  "pitch": {
    "notes_used": [
      36,
      37,
      38,
      42,
      43,
      44,
      46,
      49
    ],
    "intervals": [
      7,
      3,
      2,
      2,
      1,
      1,
      0,
      6,
      4,
      1,
      1,
      8,
      6,
      1,
      7,
      6,
      1,
      1,
      2,
      2,
      1,
      1,
      6,
      4,
      2,
      5,
      6,
      1,
      2,
      1,
      7,
      6,
      1,
      1,
      2,
      1,
      1,
      0,
      6,
      4,
      1,
      1,
      0,
      8,
      6,
      1,
      6,
      6,
      7,
      6,
      1,
      1,
      7,
      5,
      2,
      1,
      1,
      6,
      4,
      2,
      5,
      6,
      1,
      2,
      1,
      1
    ],
    "register": "low",
    "is_melodic": true,
    "pitch_range": 13,
    "pitch_distribution": {
      "36": 6,
      "43": 17,
      "46": 1,
      "44": 20,
      "42": 15,
      "38": 4,
      "49": 2,
      "37": 2
    }
  },
  "velocity": {
    "mean": 54.9,
    "variance": 1206.5,
    "std": 34.7,
    "accents": [
      2,
      8,
      9,
      15,
      16,
      21,
      23,
      24,
      31,
      32,
      39,
      40,
      49,
      50,
      58,
      59
    ],
    "profile": [
      89,
      40,
      106,
      74,
      39,
      49,
      28,
      22,
      106,
      110,
      85,
      28,
      45,
      7,
      41,
      106,
      101,
      45,
      28,
      37,
      25,
      92,
      21,
      112,
      111,
      23,
      38,
      35,
      28,
      38,
      30,
      107,
      98,
      68,
      21,
      37,
      74,
      19,
      18,
      113,
      103,
      81,
      18,
      18,
      88,
      76,
      3,
      35,
      38,
      105,
      108,
      69,
      30,
      40,
      51,
      21,
      65,
      11,
      115,
      104,
      11,
      33,
      59,
      11,
      45,
      38,
      11
    ]
  },
  "notes": [
    {
      "pitch": 36,
      "start_time": 0.0,
      "duration": 0.0843,
      "velocity": 89
    },
    {
      "pitch": 43,
      "start_time": 0.0,
      "duration": 0.059,
      "velocity": 40
    },
    {
      "pitch": 46,
      "start_time": 0.0,
      "duration": 0.0778,
      "velocity": 106
    },
    {
      "pitch": 44,
      "start_time": 0.25,
      "duration": 0.25,
      "velocity": 74
    },
    {
      "pitch": 42,
      "start_time": 0.5,
      "duration": 0.0778,
      "velocity": 39
    },
    {
      "pitch": 43,
      "start_time": 0.5,
      "duration": 0.0853,
      "velocity": 49
    },
    {
      "pitch": 44,
      "start_time": 0.5,
      "duration": 0.25,
      "velocity": 28
    },
    {
      "pitch": 44,
      "start_time": 0.75,
      "duration": 0.25,
      "velocity": 22
    },
    {
      "pitch": 38,
      "start_time": 1.0,
      "duration": 0.0589,
      "velocity": 106
    },
    {
      "pitch": 42,
      "start_time": 1.0,
      "duration": 0.0786,
      "velocity": 110
    },
    {
      "pitch": 43,
      "start_time": 1.0,
      "duration": 0.0512,
      "velocity": 85
    },
    {
      "pitch": 44,
      "start_time": 1.0,
      "duration": 0.1177,
      "velocity": 28
    },
    {
      "pitch": 36,
      "start_time": 1.5,
      "duration": 0.0683,
      "velocity": 45
    },
    {
      "pitch": 42,
      "start_time": 1.5,
      "duration": 0.0309,
      "velocity": 7
    },
    {
      "pitch": 43,
      "start_time": 1.75,
      "duration": 0.0552,
      "velocity": 41
    },
    {
      "pitch": 36,
      "start_time": 2.0,
      "duration": 0.0796,
      "velocity": 106
    },
    {
      "pitch": 42,
      "start_time": 2.0,
      "duration": 0.0856,
      "velocity": 101
    },
    {
      "pitch": 43,
      "start_time": 2.25,
      "duration": 0.097,
      "velocity": 45
    },
    {
      "pitch": 44,
      "start_time": 2.25,
      "duration": 0.25,
      "velocity": 28
    },
    {
      "pitch": 42,
      "start_time": 2.5,
      "duration": 0.0701,
      "velocity": 37
    },
    {
      "pitch": 44,
      "start_time": 2.5,
      "duration": 0.25,
      "velocity": 25
    },
    {
      "pitch": 43,
      "start_time": 2.75,
      "duration": 0.1072,
      "velocity": 92
    },
    {
      "pitch": 44,
      "start_time": 2.75,
      "duration": 0.25,
      "velocity": 21
    },
    {
      "pitch": 38,
      "start_time": 3.0,
      "duration": 0.0742,
      "velocity": 112
    },
    {
      "pitch": 42,
      "start_time": 3.0,
      "duration": 0.0788,
      "velocity": 111
    },
    {
      "pitch": 44,
      "start_time": 3.0,
      "duration": 0.25,
      "velocity": 23
    },
    {
      "pitch": 49,
      "start_time": 3.0,
      "duration": 0.0491,
      "velocity": 38
    },
    {
      "pitch": 43,
      "start_time": 3.25,
      "duration": 0.0651,
      "velocity": 35
    },
    {
      "pitch": 44,
      "start_time": 3.25,
      "duration": 0.1193,
      "velocity": 28
    },
    {
      "pitch": 42,
      "start_time": 3.5,
      "duration": 0.0706,
      "velocity": 38
    },
    {
      "pitch": 43,
      "start_time": 3.5,
      "duration": 0.047,
      "velocity": 30
    },
    {
      "pitch": 36,
      "start_time": 4.0,
      "duration": 0.08,
      "velocity": 107
    },
    {
      "pitch": 42,
      "start_time": 4.0,
      "duration": 0.0913,
      "velocity": 98
    },
    {
      "pitch": 43,
      "start_time": 4.0,
      "duration": 0.098,
      "velocity": 68
    },
    {
      "pitch": 44,
      "start_time": 4.25,
      "duration": 0.25,
      "velocity": 21
    },
    {
      "pitch": 42,
      "start_time": 4.5,
      "duration": 0.0738,
      "velocity": 37
    },
    {
      "pitch": 43,
      "start_time": 4.5,
      "duration": 0.059,
      "velocity": 74
    },
    {
      "pitch": 44,
      "start_time": 4.5,
      "duration": 0.25,
      "velocity": 19
    },
    {
      "pitch": 44,
      "start_time": 4.75,
      "duration": 0.25,
      "velocity": 18
    },
    {
      "pitch": 38,
      "start_time": 5.0,
      "duration": 0.0745,
      "velocity": 113
    },
    {
      "pitch": 42,
      "start_time": 5.0,
      "duration": 0.0808,
      "velocity": 103
    },
    {
      "pitch": 43,
      "start_time": 5.0,
      "duration": 0.1031,
      "velocity": 81
    },
    {
      "pitch": 44,
      "start_time": 5.0,
      "duration": 0.25,
      "velocity": 18
    },
    {
      "pitch": 44,
      "start_time": 5.25,
      "duration": 0.0096,
      "velocity": 18
    },
    {
      "pitch": 36,
      "start_time": 5.5,
      "duration": 0.0695,
      "velocity": 88
    },
    {
      "pitch": 42,
      "start_time": 5.5,
      "duration": 0.0786,
      "velocity": 76
    },
    {
      "pitch": 43,
      "start_time": 5.5,
      "duration": 0.0444,
      "velocity": 3
    },
    {
      "pitch": 37,
      "start_time": 5.75,
      "duration": 0.0927,
      "velocity": 35
    },
    {
      "pitch": 43,
      "start_time": 5.75,
      "duration": 0.1333,
      "velocity": 38
    },
    {
      "pitch": 36,
      "start_time": 6.0,
      "duration": 0.0787,
      "velocity": 105
    },
    {
      "pitch": 42,
      "start_time": 6.0,
      "duration": 0.0942,
      "velocity": 108
    },
    {
      "pitch": 43,
      "start_time": 6.25,
      "duration": 0.1133,
      "velocity": 69
    },
    {
      "pitch": 44,
      "start_time": 6.25,
      "duration": 0.25,
      "velocity": 30
    },
    {
      "pitch": 37,
      "start_time": 6.5,
      "duration": 0.081,
      "velocity": 40
    },
    {
      "pitch": 42,
      "start_time": 6.5,
      "duration": 0.0666,
      "velocity": 51
    },
    {
      "pitch": 44,
      "start_time": 6.5,
      "duration": 0.25,
      "velocity": 21
    },
    {
      "pitch": 43,
      "start_time": 6.75,
      "duration": 0.1048,
      "velocity": 65
    },
    {
      "pitch": 44,
      "start_time": 6.75,
      "duration": 0.25,
      "velocity": 11
    },
    {
      "pitch": 38,
      "start_time": 7.0,
      "duration": 0.0807,
      "velocity": 115
    },
    {
      "pitch": 42,
      "start_time": 7.0,
      "duration": 0.0807,
      "velocity": 104
    },
    {
      "pitch": 44,
      "start_time": 7.0,
      "duration": 0.25,
      "velocity": 11
    },
    {
      "pitch": 49,
      "start_time": 7.0,
      "duration": 0.0564,
      "velocity": 33
    },
    {
      "pitch": 43,
      "start_time": 7.25,
      "duration": 0.0496,
      "velocity": 59
    },
    {
      "pitch": 44,
      "start_time": 7.25,
      "duration": 0.25,
      "velocity": 11
    },
    {
      "pitch": 42,
      "start_time": 7.5,
      "duration": 0.0992,
      "velocity": 45
    },
    {
      "pitch": 43,
      "start_time": 7.5,
      "duration": 0.0911,
      "velocity": 38
    },
    {
      "pitch": 44,
      "start_time": 7.5,
      "duration": 0.0236,
      "velocity": 11
    }
  ]
}