{
  "source": {
    "song": "packs",
    "track_index": 0,
    "track_name": "Drum Essentials / MIDI Clips / 91 - 110 bpm / Resurrection Kit groove 03_110 bpm",
    "slot_index": 0,
    "clip_name": "Drum Essentials / MIDI Clips / 91 - 110 bpm / Resurrection Kit groove 03_110 bpm",
    "mid_file": "/Users/darnold/Music/Ableton/Packs/Drum Essentials/MIDI Clips/91 - 110 bpm/Resurrection Kit groove 03_110 bpm.alc"
  },
  "meta": {
    "bpm": 110.0,
    "key": "?",
    "scale": "?",
    "length_beats": 8.0,
    "note_count": 35
  },
  "rhythm": {
    "density": 1.125,
    "hit_positions": [
      0.0,
      0.0,
      0.0,
      0.5,
      1.0,
      1.0,
      1.5,
      1.5,
      1.5,
      2.0,
      2.0,
      2.0,
      2.25,
      2.5,
      2.5,
      3.0,
      3.0,
      3.5,
      4.0,
      4.0,
      4.0,
      4.5,
      5.0,
      5.0,
      5.5,
      5.5,
      5.5,
      6.0,
      6.0,
      6.0,
      6.5,
      6.75,
      7.0,
      7.0,
      7.5
    ],
    "ioi": [
      0.0,
      0.0,
      0.5,
      0.5,
      0.0,
      0.5,
      0.0,
      0.0,
      0.5,
      0.0,
      0.0,
      0.25,
      0.25,
      0.0,
      0.5,
      0.0,
      0.5,
      0.5,
      0.0,
      0.0,
      0.5,
      0.5,
      0.0,
      0.5,
      0.0,
      0.0,
      0.5,
      0.0,
      0.0,
      0.5,
      0.25,
      0.25,
      0.0,
      0.5,
      0.5
    ],
    "grid": "8th",
    "euclidean_approx": [
      32,
      32
    ],
    "swing_ratio": 1.0
  },
  "pitch": {
    "notes_used": [
      36,
      39,
      40,
      41,
      42,
      44,
      47,
      48,
      50
    ],
    "intervals": [
      5,
      1,
      5,
      8,
      2,
      5,
      6,
      6,
      12,
      6,
      2,
      2,
      2,
      2,
      3,
      2,
      1,
      6,
      6,
      8,
      3,
      8,
      2,
      5,
      6,
      6,
      12,
      6,
      2,
      2,
      0,
      3,
      2,
      1
    ],
    "register": "low",
    "is_melodic": true,
    "pitch_range": 14,
    "pitch_distribution": {
      "36": 6,
      "41": 5,
      "42": 12,
      "47": 2,
      "39": 4,
      "48": 2,
      "44": 2,
      "40": 1,
      "50": 1
    }
  },
  "velocity": {
    "mean": 64.7,
    "variance": 1074.7,
    "std": 32.8,
    "accents": [
      4,
      5,
      15,
      18,
      19,
      22,
      23,
      32
    ],
    "profile": [
      74,
      21,
      67,
      37,
      124,
      127,
      34,
      35,
      81,
      89,
      25,
      27,
      26,
      22,
      62,
      105,
      78,
      29,
      105,
      101,
      31,
      76,
      105,
      107,
      34,
      53,
      71,
      81,
      73,
      37,
      13,
      83,
      104,
      85,
      41
    ]
  },
  "notes": [
    {
      "pitch": 36,
      "start_time": 0.0,
      "duration": 0.125,
      "velocity": 74
    },
    {
      "pitch": 41,
      "start_time": 0.0,
      "duration": 0.0417,
      "velocity": 21
    },
    {
      "pitch": 42,
      "start_time": 0.0,
      "duration": 0.1667,
      "velocity": 67
    },
    {
      "pitch": 47,
      "start_time": 0.5,
      "duration": 0.125,
      "velocity": 37
    },
    {
      "pitch": 39,
      "start_time": 1.0,
      "duration": 0.0625,
      "velocity": 124
    },
    {
      "pitch": 41,
      "start_time": 1.0,
      "duration": 0.0938,
      "velocity": 127
    },
    {
      "pitch": 36,
      "start_time": 1.5,
      "duration": 0.0729,
      "velocity": 34
    },
    {
      "pitch": 42,
      "start_time": 1.5,
      "duration": 0.0625,
      "velocity": 35
    },
    {
      "pitch": 48,
      "start_time": 1.5,
      "duration": 0.0521,
      "velocity": 81
    },
    {
      "pitch": 36,
      "start_time": 2.0,
      "duration": 0.1042,
      "velocity": 89
    },
    {
      "pitch": 42,
      "start_time": 2.0,
      "duration": 0.0729,
      "velocity": 25
    },
    {
      "pitch": 44,
      "start_time": 2.0,
      "duration": 0.1042,
      "velocity": 27
    },
    {
      "pitch": 42,
      "start_time": 2.25,
      "duration": 0.1042,
      "velocity": 26
    },
    {
      "pitch": 40,
      "start_time": 2.5,
      "duration": 0.0417,
      "velocity": 22
    },
    {
      "pitch": 42,
      "start_time": 2.5,
      "duration": 0.0729,
      "velocity": 62
    },
    {
      "pitch": 39,
      "start_time": 3.0,
      "duration": 0.0625,
      "velocity": 105
    },
    {
      "pitch": 41,
      "start_time": 3.0,
      "duration": 0.1042,
      "velocity": 78
    },
    {
      "pitch": 42,
      "start_time": 3.5,
      "duration": 0.0521,
      "velocity": 29
    },
    {
      "pitch": 36,
      "start_time": 4.0,
      "duration": 0.0938,
      "velocity": 105
    },
    {
      "pitch": 42,
      "start_time": 4.0,
      "duration": 0.125,
      "velocity": 101
    },
    {
      "pitch": 50,
      "start_time": 4.0,
      "duration": 0.8958,
      "velocity": 31
    },
    {
      "pitch": 47,
      "start_time": 4.5,
      "duration": 0.125,
      "velocity": 76
    },
    {
      "pitch": 39,
      "start_time": 5.0,
      "duration": 0.0729,
      "velocity": 105
    },
    {
      "pitch": 41,
      "start_time": 5.0,
      "duration": 0.1146,
      "velocity": 107
    },
    {
      "pitch": 36,
      "start_time": 5.5,
      "duration": 0.0833,
      "velocity": 34
    },
    {
      "pitch": 42,
      "start_time": 5.5,
      "duration": 0.0938,
      "velocity": 53
    },
    {
      "pitch": 48,
      "start_time": 5.5,
      "duration": 0.0521,
      "velocity": 71
    },
    {
      "pitch": 36,
      "start_time": 6.0,
      "duration": 0.0833,
      "velocity": 81
    },
    {
      "pitch": 42,
      "start_time": 6.0,
      "duration": 0.0938,
      "velocity": 73
    },
    {
      "pitch": 44,
      "start_time": 6.0,
      "duration": 0.0938,
      "velocity": 37
    },
    {
      "pitch": 42,
      "start_time": 6.5,
      "duration": 0.0312,
      "velocity": 13
    },
    {
      "pitch": 42,
      "start_time": 6.75,
      "duration": 0.0938,
      "velocity": 83
    },
    {
      "pitch": 39,
      "start_time": 7.0,
      "duration": 0.0833,
      "velocity": 104
    },
    {
      "pitch": 41,
      "start_time": 7.0,
      "duration": 0.2083,
      "velocity": 85
    },
    {
      "pitch": 42,
      "start_time": 7.5,
      "duration": 0.0729,
      "velocity": 41
    }
  ]
}