{
  "source": {
    "song": "packs",
    "track_index": 0,
    "track_name": "Drum Essentials / MIDI Clips / 60 - 90 bpm / TraPERATOR Kit groove 01_74 bpm",
    "slot_index": 0,
    "clip_name": "Drum Essentials / MIDI Clips / 60 - 90 bpm / TraPERATOR Kit groove 01_74 bpm",
    "mid_file": "/Users/darnold/Music/Ableton/Packs/Drum Essentials/MIDI Clips/60 - 90 bpm/TraPERATOR Kit groove 01_74 bpm.alc"
  },
  "meta": {
    "bpm": 74.0,
    "key": "?",
    "scale": "?",
    "length_beats": 4.0,
    "note_count": 41
  },
  "rhythm": {
    "density": 1.312,
    "hit_positions": [
      0.0,
      0.0,
      0.0,
      0.5,
      0.5,
      0.75,
      1.0,
      1.0,
      1.0,
      1.25,
      1.25,
      1.5,
      1.5,
      1.75,
      2.0,
      2.0,
      2.25,
      2.25,
      2.375,
      2.5,
      2.5,
      2.5,
      2.625,
      2.75,
      2.875,
      3.0,
      3.0,
      3.0,
      3.0,
      3.0,
      3.125,
      3.25,
      3.375,
      3.5,
      3.5,
      3.5,
      3.75,
      3.75,
      3.75,
      3.75,
      3.875
    ],
    "ioi": [
      0.0,
      0.0,
      0.5,
      0.0,
      0.25,
      0.25,
      0.0,
      0.0,
      0.25,
      0.0,
      0.25,
      0.0,
      0.25,
      0.25,
      0.0,
      0.25,
      0.0,
      0.125,
      0.125,
      0.0,
      0.0,
      0.125,
      0.125,
      0.125,
      0.125,
      0.0,
      0.0,
      0.0,
      0.0,
      0.125,
      0.125,
      0.125,
      0.125,
      0.0,
      0.0,
      0.25,
      0.0,
      0.0,
      0.0,
      0.125,
      0.125
    ],
    "grid": "16th",
    "euclidean_approx": [
      16,
      16
    ],
    "swing_ratio": 1.125
  },
  "pitch": {
    "notes_used": [
      36,
      37,
      38,
      39,
      42,
      45,
      46,
      47,
      48,
      50,
      51
    ],
    "intervals": [
      6,
      9,
      9,
      9,
      9,
      5,
      1,
      13,
      9,
      5,
      0,
      4,
      15,
      6,
      9,
      9,
      4,
      0,
      10,
      6,
      9,
      6,
      3,
      3,
      9,
      2,
      4,
      6,
      3,
      3,
      12,
      6,
      3,
      3,
      9,
      14,
      1,
      4,
      8,
      8
    ],
    "register": "low",
    "is_melodic": true,
    "pitch_range": 15,
    "pitch_distribution": {
      "36": 5,
      "42": 13,
      "51": 8,
      "37": 2,
      "38": 3,
      "47": 2,
      "46": 2,
      "45": 2,
      "48": 2,
      "39": 1,
      "50": 1
    }
  },
  "velocity": {
    "mean": 64.9,
    "variance": 583.5,
    "std": 24.2,
    "accents": [
      6,
      9,
      22,
      26,
      27,
      36
    ],
    "profile": [
      86,
      75,
      39,
      34,
      35,
      42,
      127,
      84,
      46,
      93,
      80,
      83,
      54,
      67,
      67,
      50,
      66,
      38,
      38,
      81,
      69,
      58,
      104,
      70,
      54,
      61,
      93,
      127,
      46,
      53,
      46,
      70,
      38,
      82,
      33,
      42,
      99,
      56,
      33,
      80,
      60
    ]
  },
  "notes": [
    {
      "pitch": 36,
      "start_time": 0.0,
      "duration": 0.0542,
      "velocity": 86
    },
    {
      "pitch": 42,
      "start_time": 0.0,
      "duration": 0.0504,
      "velocity": 75
    },
    {
      "pitch": 51,
      "start_time": 0.0,
      "duration": 0.0266,
      "velocity": 39
    },
    {
      "pitch": 42,
      "start_time": 0.5,
      "duration": 0.0733,
      "velocity": 34
    },
    {
      "pitch": 51,
      "start_time": 0.5,
      "duration": 0.0348,
      "velocity": 35
    },
    {
      "pitch": 42,
      "start_time": 0.75,
      "duration": 0.0496,
      "velocity": 42
    },
    {
      "pitch": 37,
      "start_time": 1.0,
      "duration": 0.0496,
      "velocity": 127
    },
    {
      "pitch": 38,
      "start_time": 1.0,
      "duration": 0.0536,
      "velocity": 84
    },
    {
      "pitch": 51,
      "start_time": 1.0,
      "duration": 0.0416,
      "velocity": 46
    },
    {
      "pitch": 42,
      "start_time": 1.25,
      "duration": 0.0565,
      "velocity": 93
    },
    {
      "pitch": 47,
      "start_time": 1.25,
      "duration": 0.25,
      "velocity": 80
    },
    {
      "pitch": 47,
      "start_time": 1.5,
      "duration": 0.0537,
      "velocity": 83
    },
    {
      "pitch": 51,
      "start_time": 1.5,
      "duration": 0.0338,
      "velocity": 54
    },
    {
      "pitch": 36,
      "start_time": 1.75,
      "duration": 0.0672,
      "velocity": 67
    },
    {
      "pitch": 42,
      "start_time": 2.0,
      "duration": 0.25,
      "velocity": 67
    },
    {
      "pitch": 51,
      "start_time": 2.0,
      "duration": 0.0407,
      "velocity": 50
    },
    {
      "pitch": 42,
      "start_time": 2.25,
      "duration": 0.25,
      "velocity": 66
    },
    {
      "pitch": 46,
      "start_time": 2.25,
      "duration": 0.125,
      "velocity": 38
    },
    {
      "pitch": 46,
      "start_time": 2.375,
      "duration": 0.1185,
      "velocity": 38
    },
    {
      "pitch": 36,
      "start_time": 2.5,
      "duration": 0.0629,
      "velocity": 81
    },
    {
      "pitch": 42,
      "start_time": 2.5,
      "duration": 0.25,
      "velocity": 69
    },
    {
      "pitch": 51,
      "start_time": 2.5,
      "duration": 0.0342,
      "velocity": 58
    },
    {
      "pitch": 45,
      "start_time": 2.625,
      "duration": 0.0778,
      "velocity": 104
    },
    {
      "pitch": 42,
      "start_time": 2.75,
      "duration": 0.1433,
      "velocity": 70
    },
    {
      "pitch": 45,
      "start_time": 2.875,
      "duration": 0.0743,
      "velocity": 54
    },
    {
      "pitch": 36,
      "start_time": 3.0,
      "duration": 0.0519,
      "velocity": 61
    },
    {
      "pitch": 38,
      "start_time": 3.0,
      "duration": 0.0644,
      "velocity": 93
    },
    {
      "pitch": 42,
      "start_time": 3.0,
      "duration": 0.0785,
      "velocity": 127
    },
    {
      "pitch": 48,
      "start_time": 3.0,
      "duration": 0.125,
      "velocity": 46
    },
    {
      "pitch": 51,
      "start_time": 3.0,
      "duration": 0.0293,
      "velocity": 53
    },
    {
      "pitch": 48,
      "start_time": 3.125,
      "duration": 0.0944,
      "velocity": 46
    },
    {
      "pitch": 36,
      "start_time": 3.25,
      "duration": 0.0668,
      "velocity": 70
    },
    {
      "pitch": 42,
      "start_time": 3.375,
      "duration": 0.125,
      "velocity": 38
    },
    {
      "pitch": 39,
      "start_time": 3.5,
      "duration": 0.0286,
      "velocity": 82
    },
    {
      "pitch": 42,
      "start_time": 3.5,
      "duration": 0.0301,
      "velocity": 33
    },
    {
      "pitch": 51,
      "start_time": 3.5,
      "duration": 0.0369,
      "velocity": 42
    },
    {
      "pitch": 37,
      "start_time": 3.75,
      "duration": 0.0305,
      "velocity": 99
    },
    {
      "pitch": 38,
      "start_time": 3.75,
      "duration": 0.0519,
      "velocity": 56
    },
    {
      "pitch": 42,
      "start_time": 3.75,
      "duration": 0.125,
      "velocity": 33
    },
    {
      "pitch": 50,
      "start_time": 3.75,
      "duration": 0.0755,
      "velocity": 80
    },
    {
      "pitch": 42,
      "start_time": 3.875,
      "duration": 0.1227,
      "velocity": 60
    }
  ]
}