{
  "source": {
    "song": "packs",
    "track_index": 0,
    "track_name": "Retro Synths / Clips / Phazeform Vol 1 / 170-Denver",
    "slot_index": 0,
    "clip_name": "Retro Synths / Clips / Phazeform Vol 1 / 170-Denver",
    "mid_file": "/Users/darnold/Music/Ableton/Packs/Retro Synths/Clips/Phazeform Vol 1/170-Denver.alc"
  },
  "meta": {
    "bpm": 170.0,
    "key": "?",
    "scale": "?",
    "length_beats": 8.0,
    "note_count": 28
  },
  "rhythm": {
    "density": 1.0,
    "hit_positions": [
      0.0,
      0.0,
      0.5,
      1.0,
      1.0,
      1.5,
      1.5,
      1.75,
      1.75,
      2.5,
      2.75,
      2.75,
      3.0,
      3.0,
      4.0,
      4.0,
      4.5,
      5.0,
      5.0,
      5.5,
      5.5,
      5.75,
      5.75,
      6.5,
      7.0,
      7.0,
      7.25,
      7.25
    ],
    "ioi": [
      0.0,
      0.5,
      0.5,
      0.0,
      0.5,
      0.0,
      0.25,
      0.0,
      0.75,
      0.25,
      0.0,
      0.25,
      0.0,
      1.0,
      0.0,
      0.5,
      0.5,
      0.0,
      0.5,
      0.0,
      0.25,
      0.0,
      0.75,
      0.5,
      0.0,
      0.25,
      0.0,
      0.75
    ],
    "grid": "8th",
    "euclidean_approx": [
      28,
      32
    ],
    "swing_ratio": 1.0
  },
  "pitch": {
    "notes_used": [
      48,
      49,
      50,
      51,
      54
    ],
    "intervals": [
      1,
      5,
      4,
      1,
      3,
      1,
      1,
      1,
      5,
      6,
      1,
      1,
      1,
      3,
      1,
      5,
      4,
      1,
      3,
      1,
      1,
      1,
      5,
      4,
      1,
      3,
      1
    ],
    "register": "mid",
    "is_melodic": true,
    "pitch_range": 6,
    "pitch_distribution": {
      "48": 8,
      "49": 8,
      "54": 4,
      "50": 4,
      "51": 4
    }
  },
  "velocity": {
    "mean": 86.3,
    "variance": 662.2,
    "std": 25.7,
    "accents": [
      0,
      3,
      5,
      7,
      10,
      12,
      14,
      17,
      19,
      21,
      24,
      26
    ],
    "profile": [
      116,
      64,
      64,
      116,
      64,
      116,
      64,
      116,
      64,
      64,
      116,
      64,
      116,
      64,
      116,
      64,
      64,
      116,
      64,
      116,
      64,
      116,
      64,
      64,
      116,
      64,
      116,
      64
    ]
  },
  "notes": [
    {
      "pitch": 48,
      "start_time": 0.0,
      "duration": 0.25,
      "velocity": 116
    },
    {
      "pitch": 49,
      "start_time": 0.0,
      "duration": 0.25,
      "velocity": 64
    },
    {
      "pitch": 54,
      "start_time": 0.5,
      "duration": 0.25,
      "velocity": 64
    },
    {
      "pitch": 50,
      "start_time": 1.0,
      "duration": 0.25,
      "velocity": 116
    },
    {
      "pitch": 51,
      "start_time": 1.0,
      "duration": 0.25,
      "velocity": 64
    },
    {
      "pitch": 48,
      "start_time": 1.5,
      "duration": 0.25,
      "velocity": 116
    },
    {
      "pitch": 49,
      "start_time": 1.5,
      "duration": 0.25,
      "velocity": 64
    },
    {
      "pitch": 48,
      "start_time": 1.75,
      "duration": 0.25,
      "velocity": 116
    },
    {
      "pitch": 49,
      "start_time": 1.75,
      "duration": 0.25,
      "velocity": 64
    },
    {
      "pitch": 54,
      "start_time": 2.5,
      "duration": 0.25,
      "velocity": 64
    },
    {
      "pitch": 48,
      "start_time": 2.75,
      "duration": 0.25,
      "velocity": 116
    },
    {
      "pitch": 49,
      "start_time": 2.75,
      "duration": 0.25,
      "velocity": 64
    },
    {
      "pitch": 50,
      "start_time": 3.0,
      "duration": 0.25,
      "velocity": 116
    },
    {
      "pitch": 51,
      "start_time": 3.0,
      "duration": 0.25,
      "velocity": 64
    },
    {
      "pitch": 48,
      "start_time": 4.0,
      "duration": 0.25,
      "velocity": 116
    },
    {
      "pitch": 49,
      "start_time": 4.0,
      "duration": 0.25,
      "velocity": 64
    },
    {
      "pitch": 54,
      "start_time": 4.5,
      "duration": 0.25,
      "velocity": 64
    },
    {
      "pitch": 50,
      "start_time": 5.0,
      "duration": 0.25,
      "velocity": 116
    },
    {
      "pitch": 51,
      "start_time": 5.0,
      "duration": 0.25,
      "velocity": 64
    },
    {
      "pitch": 48,
      "start_time": 5.5,
      "duration": 0.25,
      "velocity": 116
    },
    {
      "pitch": 49,
      "start_time": 5.5,
      "duration": 0.25,
      "velocity": 64
    },
    {
      "pitch": 48,
      "start_time": 5.75,
      "duration": 0.25,
      "velocity": 116
    },
    {
      "pitch": 49,
      "start_time": 5.75,
      "duration": 0.25,
      "velocity": 64
    },
    {
      "pitch": 54,
      "start_time": 6.5,
      "duration": 0.25,
      "velocity": 64
    },
    {
      "pitch": 50,
      "start_time": 7.0,
      "duration": 0.25,
      "velocity": 116
    },
    {
      "pitch": 51,
      "start_time": 7.0,
      "duration": 0.25,
      "velocity": 64
    },
    {
      "pitch": 48,
      "start_time": 7.25,
      "duration": 0.25,
      "velocity": 116
    },
    {
      "pitch": 49,
      "start_time": 7.25,
      "duration": 0.25,
      "velocity": 64
    }
  ]
}