{
  "source": {
    "song": "packs",
    "track_index": 0,
    "track_name": "Retro Synths / Clips / TeeBee / Hyper Untested",
    "slot_index": 0,
    "clip_name": "Retro Synths / Clips / TeeBee / Hyper Untested",
    "mid_file": "/Users/darnold/Music/Ableton/Packs/Retro Synths/Clips/TeeBee/Hyper Untested.alc"
  },
  "meta": {
    "bpm": 115.0,
    "key": "?",
    "scale": "?",
    "length_beats": 8.0,
    "note_count": 40
  },
  "rhythm": {
    "density": 1.25,
    "hit_positions": [
      0.0,
      0.75,
      1.0,
      1.5,
      1.75,
      2.0,
      2.25,
      2.5,
      2.75,
      3.0,
      3.5,
      3.75,
      4.0,
      4.25,
      4.5,
      4.75,
      5.0,
      5.25,
      5.5,
      5.75,
      6.0,
      6.125,
      6.25,
      6.375,
      6.5,
      6.625,
      6.75,
      6.875,
      7.0,
      7.0625,
      7.125,
      7.1875,
      7.25,
      7.3125,
      7.375,
      7.4375,
      7.5625,
      7.6875,
      7.8125,
      7.9375
    ],
    "ioi": [
      0.75,
      0.25,
      0.5,
      0.25,
      0.25,
      0.25,
      0.25,
      0.25,
      0.25,
      0.5,
      0.25,
      0.25,
      0.25,
      0.25,
      0.25,
      0.25,
      0.25,
      0.25,
      0.25,
      0.25,
      0.125,
      0.125,
      0.125,
      0.125,
      0.125,
      0.125,
      0.125,
      0.125,
      0.0625,
      0.0625,
      0.0625,
      0.0625,
      0.0625,
      0.0625,
      0.0625,
      0.125,
      0.125,
      0.125,
      0.125,
      0.0625
    ],
    "grid": "16th",
    "euclidean_approx": [
      32,
      32
    ],
    "swing_ratio": 1.184
  },
  "pitch": {
    "notes_used": [
      48,
      55,
      58,
      59,
      60,
      61,
      62,
      63,
      64,
      65,
      66,
      67,
      68,
      69,
      70,
      71,
      72,
      73,
      74,
      75,
      76,
      77
    ],
    "intervals": [
      7,
      7,
      7,
      0,
      4,
      0,
      3,
      0,
      3,
      0,
      0,
      9,
      2,
      3,
      0,
      3,
      0,
      2,
      2,
      1,
      1,
      1,
      1,
      1,
      1,
      1,
      1,
      1,
      1,
      1,
      1,
      1,
      1,
      1,
      1,
      1,
      1,
      1,
      1
    ],
    "register": "mid",
    "is_melodic": true,
    "pitch_range": 29,
    "pitch_distribution": {
      "48": 2,
      "55": 3,
      "59": 3,
      "62": 3,
      "65": 4,
      "74": 3,
      "72": 4,
      "69": 3,
      "76": 2,
      "77": 1,
      "75": 1,
      "73": 1,
      "71": 1,
      "70": 1,
      "68": 1,
      "67": 1,
      "66": 1,
      "64": 1,
      "63": 1,
      "61": 1,
      "60": 1,
      "58": 1
    }
  },
  "velocity": {
    "mean": 100.0,
    "variance": 0.0,
    "std": 0.0,
    "accents": [],
    "profile": [
      100,
      100,
      100,
      100,
      100,
      100,
      100,
      100,
      100,
      100,
      100,
      100,
      100,
      100,
      100,
      100,
      100,
      100,
      100,
      100,
      100,
      100,
      100,
      100,
      100,
      100,
      100,
      100,
      100,
      100,
      100,
      100,
      100,
      100,
      100,
      100,
      100,
      100,
      100,
      100
    ]
  },
  "notes": [
    {
      "pitch": 48,
      "start_time": 0.0,
      "duration": 0.5,
      "velocity": 100
    },
    {
      "pitch": 55,
      "start_time": 0.75,
      "duration": 0.5,
      "velocity": 100
    },
    {
      "pitch": 48,
      "start_time": 1.0,
      "duration": 0.5,
      "velocity": 100
    },
    {
      "pitch": 55,
      "start_time": 1.5,
      "duration": 0.125,
      "velocity": 100
    },
    {
      "pitch": 55,
      "start_time": 1.75,
      "duration": 0.25,
      "velocity": 100
    },
    {
      "pitch": 59,
      "start_time": 2.0,
      "duration": 0.125,
      "velocity": 100
    },
    {
      "pitch": 59,
      "start_time": 2.25,
      "duration": 0.25,
      "velocity": 100
    },
    {
      "pitch": 62,
      "start_time": 2.5,
      "duration": 0.25,
      "velocity": 100
    },
    {
      "pitch": 62,
      "start_time": 2.75,
      "duration": 0.5,
      "velocity": 100
    },
    {
      "pitch": 65,
      "start_time": 3.0,
      "duration": 0.25,
      "velocity": 100
    },
    {
      "pitch": 65,
      "start_time": 3.5,
      "duration": 0.25,
      "velocity": 100
    },
    {
      "pitch": 65,
      "start_time": 3.75,
      "duration": 0.25,
      "velocity": 100
    },
    {
      "pitch": 74,
      "start_time": 4.0,
      "duration": 0.25,
      "velocity": 100
    },
    {
      "pitch": 72,
      "start_time": 4.25,
      "duration": 0.5,
      "velocity": 100
    },
    {
      "pitch": 69,
      "start_time": 4.5,
      "duration": 0.125,
      "velocity": 100
    },
    {
      "pitch": 69,
      "start_time": 4.75,
      "duration": 0.125,
      "velocity": 100
    },
    {
      "pitch": 72,
      "start_time": 5.0,
      "duration": 0.125,
      "velocity": 100
    },
    {
      "pitch": 72,
      "start_time": 5.25,
      "duration": 0.125,
      "velocity": 100
    },
    {
      "pitch": 74,
      "start_time": 5.5,
      "duration": 0.125,
      "velocity": 100
    },
    {
      "pitch": 76,
      "start_time": 5.75,
      "duration": 0.125,
      "velocity": 100
    },
    {
      "pitch": 77,
      "start_time": 6.0,
      "duration": 0.125,
      "velocity": 100
    },
    {
      "pitch": 76,
      "start_time": 6.125,
      "duration": 0.125,
      "velocity": 100
    },
    {
      "pitch": 75,
      "start_time": 6.25,
      "duration": 0.125,
      "velocity": 100
    },
    {
      "pitch": 74,
      "start_time": 6.375,
      "duration": 0.125,
      "velocity": 100
    },
    {
      "pitch": 73,
      "start_time": 6.5,
      "duration": 0.125,
      "velocity": 100
    },
    {
      "pitch": 72,
      "start_time": 6.625,
      "duration": 0.125,
      "velocity": 100
    },
    {
      "pitch": 71,
      "start_time": 6.75,
      "duration": 0.125,
      "velocity": 100
    },
    {
      "pitch": 70,
      "start_time": 6.875,
      "duration": 0.125,
      "velocity": 100
    },
    {
      "pitch": 69,
      "start_time": 7.0,
      "duration": 0.0625,
      "velocity": 100
    },
    {
      "pitch": 68,
      "start_time": 7.0625,
      "duration": 0.0625,
      "velocity": 100
    },
    {
      "pitch": 67,
      "start_time": 7.125,
      "duration": 0.0625,
      "velocity": 100
    },
    {
      "pitch": 66,
      "start_time": 7.1875,
      "duration": 0.0625,
      "velocity": 100
    },
    {
      "pitch": 65,
      "start_time": 7.25,
      "duration": 0.0625,
      "velocity": 100
    },
    {
      "pitch": 64,
      "start_time": 7.3125,
      "duration": 0.0625,
      "velocity": 100
    },
    {
      "pitch": 63,
      "start_time": 7.375,
      "duration": 0.0625,
      "velocity": 100
    },
    {
      "pitch": 62,
      "start_time": 7.4375,
      "duration": 0.0625,
      "velocity": 100
    },
    {
      "pitch": 61,
      "start_time": 7.5625,
      "duration": 0.0625,
      "velocity": 100
    },
    {
      "pitch": 60,
      "start_time": 7.6875,
      "duration": 0.0625,
      "velocity": 100
    },
    {
      "pitch": 59,
      "start_time": 7.8125,
      "duration": 0.0625,
      "velocity": 100
    },
    {
      "pitch": 58,
      "start_time": 7.9375,
      "duration": 0.0625,
      "velocity": 100
    }
  ]
}