{
  "source": {
    "song": "packs",
    "track_index": 0,
    "track_name": "Retro Synths / Clips / Phazeform Vol 1 / 170-Emptying",
    "slot_index": 0,
    "clip_name": "Retro Synths / Clips / Phazeform Vol 1 / 170-Emptying",
    "mid_file": "/Users/darnold/Music/Ableton/Packs/Retro Synths/Clips/Phazeform Vol 1/170-Emptying.alc"
  },
  "meta": {
    "bpm": 170.0,
    "key": "?",
    "scale": "?",
    "length_beats": 16.0,
    "note_count": 55
  },
  "rhythm": {
    "density": 1.062,
    "hit_positions": [
      0.0,
      0.5,
      1.0,
      1.5,
      1.5,
      1.5,
      1.75,
      2.0,
      2.5,
      3.0,
      3.5,
      3.5,
      3.5,
      3.75,
      4.0,
      4.5,
      5.0,
      5.5,
      5.5,
      5.5,
      5.75,
      6.0,
      6.5,
      7.0,
      7.25,
      7.5,
      7.5,
      7.5,
      8.5,
      8.5,
      9.0,
      9.0,
      9.25,
      9.5,
      9.5,
      10.0,
      10.0,
      10.5,
      10.5,
      11.0,
      11.25,
      11.5,
      11.5,
      12.0,
      13.25,
      13.25,
      13.5,
      13.5,
      13.5,
      13.75,
      13.75,
      13.75,
      14.0,
      14.0,
      14.0
    ],
    "ioi": [
      0.5,
      0.5,
      0.5,
      0.0,
      0.0,
      0.25,
      0.25,
      0.5,
      0.5,
      0.5,
      0.0,
      0.0,
      0.25,
      0.25,
      0.5,
      0.5,
      0.5,
      0.0,
      0.0,
      0.25,
      0.25,
      0.5,
      0.5,
      0.25,
      0.25,
      0.0,
      0.0,
      1.0,
      0.0,
      0.5,
      0.0,
      0.25,
      0.25,
      0.0,
      0.5,
      0.0,
      0.5,
      0.0,
      0.5,
      0.25,
      0.25,
      0.0,
      0.5,
      1.25,
      0.0,
      0.25,
      0.0,
      0.0,
      0.25,
      0.0,
      0.0,
      0.25,
      0.0,
      0.0,
      2.0
    ],
    "grid": "8th",
    "euclidean_approx": [
      55,
      64
    ],
    "swing_ratio": 1.0
  },
  "pitch": {
    "notes_used": [
      48,
      49,
      50,
      52,
      53,
      54,
      55,
      56
    ],
    "intervals": [
      6,
      4,
      2,
      5,
      1,
      6,
      0,
      6,
      4,
      2,
      4,
      2,
      6,
      0,
      6,
      4,
      2,
      5,
      1,
      6,
      0,
      6,
      4,
      2,
      0,
      4,
      4,
      7,
      5,
      4,
      5,
      5,
      2,
      6,
      5,
      1,
      4,
      1,
      5,
      0,
      2,
      8,
      1,
      1,
      1,
      7,
      6,
      1,
      7,
      6,
      1,
      5,
      4,
      1
    ],
    "register": "mid",
    "is_melodic": true,
    "pitch_range": 8,
    "pitch_distribution": {
      "48": 16,
      "54": 14,
      "50": 10,
      "53": 2,
      "52": 2,
      "56": 2,
      "49": 2,
      "55": 7
    }
  },
  "velocity": {
    "mean": 56.2,
    "variance": 1321.1,
    "std": 36.3,
    "accents": [
      0,
      2,
      7,
      9,
      14,
      16,
      21,
      23,
      25,
      33,
      36,
      41,
      52
    ],
    "profile": [
      116,
      53,
      116,
      26,
      53,
      37,
      53,
      116,
      53,
      116,
      26,
      53,
      37,
      53,
      116,
      53,
      116,
      26,
      53,
      37,
      53,
      116,
      53,
      116,
      26,
      116,
      53,
      37,
      53,
      53,
      17,
      53,
      26,
      116,
      37,
      53,
      116,
      53,
      53,
      17,
      26,
      116,
      37,
      53,
      1,
      1,
      17,
      7,
      7,
      26,
      26,
      26,
      116,
      53,
      53
    ]
  },
  "notes": [
    {
      "pitch": 48,
      "start_time": 0.0,
      "duration": 0.25,
      "velocity": 116
    },
    {
      "pitch": 54,
      "start_time": 0.5,
      "duration": 0.25,
      "velocity": 53
    },
    {
      "pitch": 50,
      "start_time": 1.0,
      "duration": 0.25,
      "velocity": 116
    },
    {
      "pitch": 48,
      "start_time": 1.5,
      "duration": 0.25,
      "velocity": 26
    },
    {
      "pitch": 53,
      "start_time": 1.5,
      "duration": 0.25,
      "velocity": 53
    },
    {
      "pitch": 54,
      "start_time": 1.5,
      "duration": 0.25,
      "velocity": 37
    },
    {
      "pitch": 48,
      "start_time": 1.75,
      "duration": 0.25,
      "velocity": 53
    },
    {
      "pitch": 48,
      "start_time": 2.0,
      "duration": 0.25,
      "velocity": 116
    },
    {
      "pitch": 54,
      "start_time": 2.5,
      "duration": 0.25,
      "velocity": 53
    },
    {
      "pitch": 50,
      "start_time": 3.0,
      "duration": 0.25,
      "velocity": 116
    },
    {
      "pitch": 48,
      "start_time": 3.5,
      "duration": 0.25,
      "velocity": 26
    },
    {
      "pitch": 52,
      "start_time": 3.5,
      "duration": 0.25,
      "velocity": 53
    },
    {
      "pitch": 54,
      "start_time": 3.5,
      "duration": 0.25,
      "velocity": 37
    },
    {
      "pitch": 48,
      "start_time": 3.75,
      "duration": 0.25,
      "velocity": 53
    },
    {
      "pitch": 48,
      "start_time": 4.0,
      "duration": 0.25,
      "velocity": 116
    },
    {
      "pitch": 54,
      "start_time": 4.5,
      "duration": 0.25,
      "velocity": 53
    },
    {
      "pitch": 50,
      "start_time": 5.0,
      "duration": 0.25,
      "velocity": 116
    },
    {
      "pitch": 48,
      "start_time": 5.5,
      "duration": 0.25,
      "velocity": 26
    },
    {
      "pitch": 53,
      "start_time": 5.5,
      "duration": 0.25,
      "velocity": 53
    },
    {
      "pitch": 54,
      "start_time": 5.5,
      "duration": 0.25,
      "velocity": 37
    },
    {
      "pitch": 48,
      "start_time": 5.75,
      "duration": 0.25,
      "velocity": 53
    },
    {
      "pitch": 48,
      "start_time": 6.0,
      "duration": 0.25,
      "velocity": 116
    },
    {
      "pitch": 54,
      "start_time": 6.5,
      "duration": 0.25,
      "velocity": 53
    },
    {
      "pitch": 50,
      "start_time": 7.0,
      "duration": 0.25,
      "velocity": 116
    },
    {
      "pitch": 48,
      "start_time": 7.25,
      "duration": 0.25,
      "velocity": 26
    },
    {
      "pitch": 48,
      "start_time": 7.5,
      "duration": 0.25,
      "velocity": 116
    },
    {
      "pitch": 52,
      "start_time": 7.5,
      "duration": 0.25,
      "velocity": 53
    },
    {
      "pitch": 56,
      "start_time": 7.5,
      "duration": 0.25,
      "velocity": 37
    },
    {
      "pitch": 49,
      "start_time": 8.5,
      "duration": 0.25,
      "velocity": 53
    },
    {
      "pitch": 54,
      "start_time": 8.5,
      "duration": 0.25,
      "velocity": 53
    },
    {
      "pitch": 50,
      "start_time": 9.0,
      "duration": 0.25,
      "velocity": 17
    },
    {
      "pitch": 55,
      "start_time": 9.0,
      "duration": 0.25,
      "velocity": 53
    },
    {
      "pitch": 50,
      "start_time": 9.25,
      "duration": 0.25,
      "velocity": 26
    },
    {
      "pitch": 48,
      "start_time": 9.5,
      "duration": 0.25,
      "velocity": 116
    },
    {
      "pitch": 54,
      "start_time": 9.5,
      "duration": 0.25,
      "velocity": 37
    },
    {
      "pitch": 49,
      "start_time": 10.0,
      "duration": 0.25,
      "velocity": 53
    },
    {
      "pitch": 50,
      "start_time": 10.0,
      "duration": 0.25,
      "velocity": 116
    },
    {
      "pitch": 54,
      "start_time": 10.5,
      "duration": 0.25,
      "velocity": 53
    },
    {
      "pitch": 55,
      "start_time": 10.5,
      "duration": 0.25,
      "velocity": 53
    },
    {
      "pitch": 50,
      "start_time": 11.0,
      "duration": 0.25,
      "velocity": 17
    },
    {
      "pitch": 50,
      "start_time": 11.25,
      "duration": 0.25,
      "velocity": 26
    },
    {
      "pitch": 48,
      "start_time": 11.5,
      "duration": 0.25,
      "velocity": 116
    },
    {
      "pitch": 56,
      "start_time": 11.5,
      "duration": 0.25,
      "velocity": 37
    },
    {
      "pitch": 55,
      "start_time": 12.0,
      "duration": 0.25,
      "velocity": 53
    },
    {
      "pitch": 54,
      "start_time": 13.25,
      "duration": 0.25,
      "velocity": 1
    },
    {
      "pitch": 55,
      "start_time": 13.25,
      "duration": 0.25,
      "velocity": 1
    },
    {
      "pitch": 48,
      "start_time": 13.5,
      "duration": 0.25,
      "velocity": 17
    },
    {
      "pitch": 54,
      "start_time": 13.5,
      "duration": 0.25,
      "velocity": 7
    },
    {
      "pitch": 55,
      "start_time": 13.5,
      "duration": 0.25,
      "velocity": 7
    },
    {
      "pitch": 48,
      "start_time": 13.75,
      "duration": 0.25,
      "velocity": 26
    },
    {
      "pitch": 54,
      "start_time": 13.75,
      "duration": 0.25,
      "velocity": 26
    },
    {
      "pitch": 55,
      "start_time": 13.75,
      "duration": 0.25,
      "velocity": 26
    },
    {
      "pitch": 50,
      "start_time": 14.0,
      "duration": 0.25,
      "velocity": 116
    },
    {
      "pitch": 54,
      "start_time": 14.0,
      "duration": 0.25,
      "velocity": 53
    },
    {
      "pitch": 55,
      "start_time": 14.0,
      "duration": 0.25,
      "velocity": 53
    }
  ]
}