{
  "source": {
    "song": "packs",
    "track_index": 0,
    "track_name": "Retro Synths / Clips / Phazeform Vol 1 / 140-Gunzo",
    "slot_index": 0,
    "clip_name": "Retro Synths / Clips / Phazeform Vol 1 / 140-Gunzo",
    "mid_file": "/Users/darnold/Music/Ableton/Packs/Retro Synths/Clips/Phazeform Vol 1/140-Gunzo.alc"
  },
  "meta": {
    "bpm": 140.0,
    "key": "?",
    "scale": "?",
    "length_beats": 8.0,
    "note_count": 32
  },
  "rhythm": {
    "density": 0.719,
    "hit_positions": [
      0.0,
      0.25,
      0.75,
      1.0,
      1.0,
      1.0,
      1.5,
      1.75,
      2.0,
      2.125,
      2.25,
      2.25,
      2.75,
      3.0,
      3.0,
      3.0,
      4.0,
      4.25,
      4.75,
      5.0,
      5.0,
      5.0,
      5.5,
      5.75,
      6.0,
      6.125,
      6.25,
      6.25,
      6.75,
      7.0,
      7.0,
      7.5
    ],
    "ioi": [
      0.25,
      0.5,
      0.25,
      0.0,
      0.0,
      0.5,
      0.25,
      0.25,
      0.125,
      0.125,
      0.0,
      0.5,
      0.25,
      0.0,
      0.0,
      1.0,
      0.25,
      0.5,
      0.25,
      0.0,
      0.0,
      0.5,
      0.25,
      0.25,
      0.125,
      0.125,
      0.0,
      0.5,
      0.25,
      0.0,
      0.5,
      0.5
    ],
    "grid": "16th",
    "euclidean_approx": [
      32,
      32
    ],
    "swing_ratio": 1.0
  },
  "pitch": {
    "notes_used": [
      48,
      49,
      50,
      51,
      52,
      55
    ],
    "intervals": [
      7,
      0,
      7,
      2,
      1,
      1,
      3,
      1,
      0,
      0,
      7,
      0,
      7,
      2,
      1,
      3,
      7,
      0,
      7,
      2,
      1,
      1,
      3,
      1,
      0,
      0,
      7,
      0,
      5,
      1,
      3
    ],
    "register": "mid",
    "is_melodic": true,
    "pitch_range": 7,
    "pitch_distribution": {
      "48": 12,
      "55": 8,
      "50": 4,
      "51": 4,
      "52": 2,
      "49": 2
    }
  },
  "velocity": {
    "mean": 72.1,
    "variance": 1576.6,
    "std": 39.7,
    "accents": [
      0,
      3,
      4,
      10,
      13,
      14,
      16,
      19,
      20,
      26,
      29,
      31
    ],
    "profile": [
      116,
      42,
      42,
      116,
      127,
      26,
      30,
      30,
      78,
      78,
      116,
      42,
      42,
      116,
      127,
      26,
      116,
      42,
      42,
      116,
      127,
      26,
      30,
      30,
      78,
      78,
      116,
      42,
      42,
      127,
      26,
      116
    ]
  },
  "notes": [
    {
      "pitch": 48,
      "start_time": 0.0,
      "duration": 0.25,
      "velocity": 116
    },
    {
      "pitch": 55,
      "start_time": 0.25,
      "duration": 0.25,
      "velocity": 42
    },
    {
      "pitch": 55,
      "start_time": 0.75,
      "duration": 0.25,
      "velocity": 42
    },
    {
      "pitch": 48,
      "start_time": 1.0,
      "duration": 0.25,
      "velocity": 116
    },
    {
      "pitch": 50,
      "start_time": 1.0,
      "duration": 0.25,
      "velocity": 127
    },
    {
      "pitch": 51,
      "start_time": 1.0,
      "duration": 0.25,
      "velocity": 26
    },
    {
      "pitch": 52,
      "start_time": 1.5,
      "duration": 0.25,
      "velocity": 30
    },
    {
      "pitch": 49,
      "start_time": 1.75,
      "duration": 0.25,
      "velocity": 30
    },
    {
      "pitch": 48,
      "start_time": 2.0,
      "duration": 0.125,
      "velocity": 78
    },
    {
      "pitch": 48,
      "start_time": 2.125,
      "duration": 0.125,
      "velocity": 78
    },
    {
      "pitch": 48,
      "start_time": 2.25,
      "duration": 0.25,
      "velocity": 116
    },
    {
      "pitch": 55,
      "start_time": 2.25,
      "duration": 0.25,
      "velocity": 42
    },
    {
      "pitch": 55,
      "start_time": 2.75,
      "duration": 0.25,
      "velocity": 42
    },
    {
      "pitch": 48,
      "start_time": 3.0,
      "duration": 0.25,
      "velocity": 116
    },
    {
      "pitch": 50,
      "start_time": 3.0,
      "duration": 0.25,
      "velocity": 127
    },
    {
      "pitch": 51,
      "start_time": 3.0,
      "duration": 0.25,
      "velocity": 26
    },
    {
      "pitch": 48,
      "start_time": 4.0,
      "duration": 0.25,
      "velocity": 116
    },
    {
      "pitch": 55,
      "start_time": 4.25,
      "duration": 0.25,
      "velocity": 42
    },
    {
      "pitch": 55,
      "start_time": 4.75,
      "duration": 0.25,
      "velocity": 42
    },
    {
      "pitch": 48,
      "start_time": 5.0,
      "duration": 0.25,
      "velocity": 116
    },
    {
      "pitch": 50,
      "start_time": 5.0,
      "duration": 0.25,
      "velocity": 127
    },
    {
      "pitch": 51,
      "start_time": 5.0,
      "duration": 0.25,
      "velocity": 26
    },
    {
      "pitch": 52,
      "start_time": 5.5,
      "duration": 0.25,
      "velocity": 30
    },
    {
      "pitch": 49,
      "start_time": 5.75,
      "duration": 0.25,
      "velocity": 30
    },
    {
      "pitch": 48,
      "start_time": 6.0,
      "duration": 0.125,
      "velocity": 78
    },
    {
      "pitch": 48,
      "start_time": 6.125,
      "duration": 0.125,
      "velocity": 78
    },
    {
      "pitch": 48,
      "start_time": 6.25,
      "duration": 0.25,
      "velocity": 116
    },
    {
      "pitch": 55,
      "start_time": 6.25,
      "duration": 0.25,
      "velocity": 42
    },
    {
      "pitch": 55,
      "start_time": 6.75,
      "duration": 0.25,
      "velocity": 42
    },
    {
      "pitch": 50,
      "start_time": 7.0,
      "duration": 0.25,
      "velocity": 127
    },
    {
      "pitch": 51,
      "start_time": 7.0,
      "duration": 0.25,
      "velocity": 26
    },
    {
      "pitch": 48,
      "start_time": 7.5,
      "duration": 0.25,
      "velocity": 116
    }
  ]
}