{
  "source": {
    "song": "packs",
    "track_index": 0,
    "track_name": "Retro Synths / Clips / TeeBee / Pliable",
    "slot_index": 0,
    "clip_name": "Retro Synths / Clips / TeeBee / Pliable",
    "mid_file": "/Users/darnold/Music/Ableton/Packs/Retro Synths/Clips/TeeBee/Pliable.alc"
  },
  "meta": {
    "bpm": 115.0,
    "key": "?",
    "scale": "?",
    "length_beats": 8.0,
    "note_count": 24
  },
  "rhythm": {
    "density": 1.5,
    "hit_positions": [
      0.0,
      0.5,
      0.75,
      1.0,
      1.25,
      1.5,
      1.75,
      2.25,
      2.5,
      2.75,
      3.25,
      3.75,
      4.0,
      4.5,
      4.75,
      5.0,
      5.5,
      5.75,
      6.0,
      6.25,
      6.5,
      6.75,
      7.0,
      7.5
    ],
    "ioi": [
      0.5,
      0.25,
      0.25,
      0.25,
      0.25,
      0.25,
      0.5,
      0.25,
      0.25,
      0.5,
      0.5,
      0.25,
      0.5,
      0.25,
      0.25,
      0.5,
      0.25,
      0.25,
      0.25,
      0.25,
      0.25,
      0.25,
      0.5,
      0.5
    ],
    "grid": "8th",
    "euclidean_approx": [
      24,
      32
    ],
    "swing_ratio": 1.0
  },
  "pitch": {
    "notes_used": [
      60,
      63,
      67,
      69,
      70,
      72,
      75
    ],
    "intervals": [
      10,
      3,
      3,
      0,
      10,
      0,
      15,
      3,
      3,
      3,
      12,
      7,
      4,
      7,
      10,
      3,
      7,
      2,
      2,
      1,
      2,
      4,
      3
    ],
    "register": "mid",
    "is_melodic": true,
    "pitch_range": 15,
    "pitch_distribution": {
      "60": 6,
      "70": 6,
      "67": 3,
      "75": 2,
      "72": 3,
      "63": 3,
      "69": 1
    }
  },
  "velocity": {
    "mean": 100.0,
    "variance": 0.0,
    "std": 0.0,
    "accents": [],
    "profile": [
      100,
      100,
      100,
      100,
      100,
      100,
      100,
      100,
      100,
      100,
      100,
      100,
      100,
      100,
      100,
      100,
      100,
      100,
      100,
      100,
      100,
      100,
      100,
      100
    ]
  },
  "notes": [
    {
      "pitch": 60,
      "start_time": 0.0,
      "duration": 0.25,
      "velocity": 100
    },
    {
      "pitch": 70,
      "start_time": 0.5,
      "duration": 0.125,
      "velocity": 100
    },
    {
      "pitch": 67,
      "start_time": 0.75,
      "duration": 0.125,
      "velocity": 100
    },
    {
      "pitch": 70,
      "start_time": 1.0,
      "duration": 0.125,
      "velocity": 100
    },
    {
      "pitch": 70,
      "start_time": 1.25,
      "duration": 0.125,
      "velocity": 100
    },
    {
      "pitch": 60,
      "start_time": 1.5,
      "duration": 0.125,
      "velocity": 100
    },
    {
      "pitch": 60,
      "start_time": 1.75,
      "duration": 0.125,
      "velocity": 100
    },
    {
      "pitch": 75,
      "start_time": 2.25,
      "duration": 0.125,
      "velocity": 100
    },
    {
      "pitch": 72,
      "start_time": 2.5,
      "duration": 0.125,
      "velocity": 100
    },
    {
      "pitch": 75,
      "start_time": 2.75,
      "duration": 0.125,
      "velocity": 100
    },
    {
      "pitch": 72,
      "start_time": 3.25,
      "duration": 0.25,
      "velocity": 100
    },
    {
      "pitch": 60,
      "start_time": 3.75,
      "duration": 0.125,
      "velocity": 100
    },
    {
      "pitch": 67,
      "start_time": 4.0,
      "duration": 0.375,
      "velocity": 100
    },
    {
      "pitch": 63,
      "start_time": 4.5,
      "duration": 0.375,
      "velocity": 100
    },
    {
      "pitch": 70,
      "start_time": 4.75,
      "duration": 0.375,
      "velocity": 100
    },
    {
      "pitch": 60,
      "start_time": 5.0,
      "duration": 0.25,
      "velocity": 100
    },
    {
      "pitch": 63,
      "start_time": 5.5,
      "duration": 0.25,
      "velocity": 100
    },
    {
      "pitch": 70,
      "start_time": 5.75,
      "duration": 0.125,
      "velocity": 100
    },
    {
      "pitch": 72,
      "start_time": 6.0,
      "duration": 0.125,
      "velocity": 100
    },
    {
      "pitch": 70,
      "start_time": 6.25,
      "duration": 0.125,
      "velocity": 100
    },
    {
      "pitch": 69,
      "start_time": 6.5,
      "duration": 0.125,
      "velocity": 100
    },
    {
      "pitch": 67,
      "start_time": 6.75,
      "duration": 0.25,
      "velocity": 100
    },
    {
      "pitch": 63,
      "start_time": 7.0,
      "duration": 0.625,
      "velocity": 100
    },
    {
      "pitch": 60,
      "start_time": 7.5,
      "duration": 0.5,
      "velocity": 100
    }
  ]
}