{
  "source": {
    "song": "packs",
    "track_index": 0,
    "track_name": "Retro Synths / Clips / Phazeform Vol 1 / 150-Robobride",
    "slot_index": 0,
    "clip_name": "Retro Synths / Clips / Phazeform Vol 1 / 150-Robobride",
    "mid_file": "/Users/darnold/Music/Ableton/Packs/Retro Synths/Clips/Phazeform Vol 1/150-Robobride.alc"
  },
  "meta": {
    "bpm": 150.0,
    "key": "?",
    "scale": "?",
    "length_beats": 8.0,
    "note_count": 23
  },
  "rhythm": {
    "density": 2.125,
    "hit_positions": [
      0.0,
      0.5,
      1.0,
      1.0,
      1.0,
      1.5,
      2.0,
      2.3333,
      2.6667,
      3.0,
      3.0,
      3.0,
      3.5,
      4.0,
      4.5,
      5.0,
      5.6667,
      6.0,
      6.0,
      6.0,
      6.5,
      7.0,
      7.5
    ],
    "ioi": [
      0.5,
      0.5,
      0.0,
      0.0,
      0.5,
      0.5,
      0.3333,
      0.3334,
      0.3333,
      0.0,
      0.0,
      0.5,
      0.5,
      0.5,
      0.5,
      0.6667,
      0.3333,
      0.0,
      0.0,
      0.5,
      0.5,
      0.5,
      0.5
    ],
    "grid": "quarter",
    "euclidean_approx": [
      23,
      32
    ],
    "swing_ratio": 1.333
  },
  "pitch": {
    "notes_used": [
      48,
      49,
      50,
      51,
      54,
      56
    ],
    "intervals": [
      6,
      5,
      1,
      1,
      3,
      6,
      0,
      0,
      1,
      1,
      1,
      3,
      6,
      6,
      6,
      0,
      1,
      1,
      1,
      3,
      6,
      8
    ],
    "register": "mid",
    "is_melodic": true,
    "pitch_range": 8,
    "pitch_distribution": {
      "48": 8,
      "54": 5,
      "49": 3,
      "50": 3,
      "51": 3,
      "56": 1
    }
  },
  "velocity": {
    "mean": 93.2,
    "variance": 573.0,
    "std": 23.9,
    "accents": [
      19
    ],
    "profile": [
      116,
      64,
      64,
      79,
      101,
      64,
      116,
      116,
      116,
      64,
      79,
      101,
      64,
      116,
      64,
      116,
      116,
      116,
      102,
      126,
      64,
      116,
      64
    ]
  },
  "notes": [
    {
      "pitch": 48,
      "start_time": 0.0,
      "duration": 0.25,
      "velocity": 116
    },
    {
      "pitch": 54,
      "start_time": 0.5,
      "duration": 0.25,
      "velocity": 64
    },
    {
      "pitch": 49,
      "start_time": 1.0,
      "duration": 0.25,
      "velocity": 64
    },
    {
      "pitch": 50,
      "start_time": 1.0,
      "duration": 0.25,
      "velocity": 79
    },
    {
      "pitch": 51,
      "start_time": 1.0,
      "duration": 0.25,
      "velocity": 101
    },
    {
      "pitch": 54,
      "start_time": 1.5,
      "duration": 0.25,
      "velocity": 64
    },
    {
      "pitch": 48,
      "start_time": 2.0,
      "duration": 0.25,
      "velocity": 116
    },
    {
      "pitch": 48,
      "start_time": 2.3333,
      "duration": 0.25,
      "velocity": 116
    },
    {
      "pitch": 48,
      "start_time": 2.6667,
      "duration": 0.25,
      "velocity": 116
    },
    {
      "pitch": 49,
      "start_time": 3.0,
      "duration": 0.25,
      "velocity": 64
    },
    {
      "pitch": 50,
      "start_time": 3.0,
      "duration": 0.25,
      "velocity": 79
    },
    {
      "pitch": 51,
      "start_time": 3.0,
      "duration": 0.25,
      "velocity": 101
    },
    {
      "pitch": 54,
      "start_time": 3.5,
      "duration": 0.25,
      "velocity": 64
    },
    {
      "pitch": 48,
      "start_time": 4.0,
      "duration": 0.25,
      "velocity": 116
    },
    {
      "pitch": 54,
      "start_time": 4.5,
      "duration": 0.25,
      "velocity": 64
    },
    {
      "pitch": 48,
      "start_time": 5.0,
      "duration": 0.25,
      "velocity": 116
    },
    {
      "pitch": 48,
      "start_time": 5.6667,
      "duration": 0.25,
      "velocity": 116
    },
    {
      "pitch": 49,
      "start_time": 6.0,
      "duration": 0.25,
      "velocity": 116
    },
    {
      "pitch": 50,
      "start_time": 6.0,
      "duration": 0.25,
      "velocity": 102
    },
    {
      "pitch": 51,
      "start_time": 6.0,
      "duration": 0.25,
      "velocity": 126
    },
    {
      "pitch": 54,
      "start_time": 6.5,
      "duration": 0.25,
      "velocity": 64
    },
    {
      "pitch": 48,
      "start_time": 7.0,
      "duration": 0.25,
      "velocity": 116
    },
    {
      "pitch": 56,
      "start_time": 7.5,
      "duration": 0.25,
      "velocity": 64
    }
  ]
}