{
  "source": {
    "song": "packs",
    "track_index": 0,
    "track_name": "Retro Synths / Clips / Phazeform Vol 1 / 150-Duubls",
    "slot_index": 0,
    "clip_name": "Retro Synths / Clips / Phazeform Vol 1 / 150-Duubls",
    "mid_file": "/Users/darnold/Music/Ableton/Packs/Retro Synths/Clips/Phazeform Vol 1/150-Duubls.alc"
  },
  "meta": {
    "bpm": 130.0,
    "key": "?",
    "scale": "?",
    "length_beats": 8.0,
    "note_count": 38
  },
  "rhythm": {
    "density": 1.188,
    "hit_positions": [
      0.0,
      0.0,
      0.25,
      0.25,
      0.5,
      0.5,
      1.0,
      1.0,
      1.5,
      1.5,
      1.75,
      1.75,
      2.25,
      2.25,
      2.5,
      2.5,
      3.0,
      3.0,
      3.25,
      3.25,
      4.0,
      4.0,
      4.5,
      4.5,
      5.0,
      5.0,
      5.5,
      5.5,
      5.75,
      5.75,
      6.0,
      6.0,
      6.25,
      6.25,
      6.75,
      6.75,
      7.0,
      7.0
    ],
    "ioi": [
      0.0,
      0.25,
      0.0,
      0.25,
      0.0,
      0.5,
      0.0,
      0.5,
      0.0,
      0.25,
      0.0,
      0.5,
      0.0,
      0.25,
      0.0,
      0.5,
      0.0,
      0.25,
      0.0,
      0.75,
      0.0,
      0.5,
      0.0,
      0.5,
      0.0,
      0.5,
      0.0,
      0.25,
      0.0,
      0.25,
      0.0,
      0.25,
      0.0,
      0.5,
      0.0,
      0.25,
      0.0,
      1.0
    ],
    "grid": "8th",
    "euclidean_approx": [
      32,
      32
    ],
    "swing_ratio": 1.0
  },
  "pitch": {
    "notes_used": [
      48,
      50,
      51,
      54,
      55,
      56
    ],
    "intervals": [
      8,
      8,
      6,
      6,
      7,
      5,
      1,
      3,
      6,
      6,
      7,
      7,
      7,
      7,
      6,
      4,
      1,
      3,
      8,
      6,
      1,
      3,
      8,
      6,
      1,
      3,
      6,
      4,
      1,
      1,
      1,
      3,
      6,
      6,
      6,
      4,
      1
    ],
    "register": "mid",
    "is_melodic": true,
    "pitch_range": 8,
    "pitch_distribution": {
      "48": 12,
      "56": 3,
      "54": 6,
      "55": 3,
      "50": 7,
      "51": 7
    }
  },
  "velocity": {
    "mean": 73.2,
    "variance": 328.7,
    "std": 18.1,
    "accents": [
      6,
      10,
      14,
      16,
      18,
      20,
      22,
      24,
      26,
      30,
      32,
      34,
      36
    ],
    "profile": [
      88,
      69,
      71,
      55,
      71,
      55,
      94,
      54,
      71,
      55,
      94,
      74,
      53,
      41,
      94,
      74,
      94,
      54,
      94,
      74,
      94,
      54,
      94,
      74,
      94,
      54,
      94,
      74,
      57,
      32,
      94,
      54,
      94,
      74,
      94,
      74,
      94,
      54
    ]
  },
  "notes": [
    {
      "pitch": 48,
      "start_time": 0.0,
      "duration": 0.25,
      "velocity": 88
    },
    {
      "pitch": 56,
      "start_time": 0.0,
      "duration": 0.25,
      "velocity": 69
    },
    {
      "pitch": 48,
      "start_time": 0.25,
      "duration": 0.25,
      "velocity": 71
    },
    {
      "pitch": 54,
      "start_time": 0.25,
      "duration": 0.25,
      "velocity": 55
    },
    {
      "pitch": 48,
      "start_time": 0.5,
      "duration": 0.25,
      "velocity": 71
    },
    {
      "pitch": 55,
      "start_time": 0.5,
      "duration": 0.25,
      "velocity": 55
    },
    {
      "pitch": 50,
      "start_time": 1.0,
      "duration": 0.25,
      "velocity": 94
    },
    {
      "pitch": 51,
      "start_time": 1.0,
      "duration": 0.25,
      "velocity": 54
    },
    {
      "pitch": 48,
      "start_time": 1.5,
      "duration": 0.25,
      "velocity": 71
    },
    {
      "pitch": 54,
      "start_time": 1.5,
      "duration": 0.25,
      "velocity": 55
    },
    {
      "pitch": 48,
      "start_time": 1.75,
      "duration": 0.25,
      "velocity": 94
    },
    {
      "pitch": 55,
      "start_time": 1.75,
      "duration": 0.25,
      "velocity": 74
    },
    {
      "pitch": 48,
      "start_time": 2.25,
      "duration": 0.25,
      "velocity": 53
    },
    {
      "pitch": 55,
      "start_time": 2.25,
      "duration": 0.25,
      "velocity": 41
    },
    {
      "pitch": 48,
      "start_time": 2.5,
      "duration": 0.25,
      "velocity": 94
    },
    {
      "pitch": 54,
      "start_time": 2.5,
      "duration": 0.25,
      "velocity": 74
    },
    {
      "pitch": 50,
      "start_time": 3.0,
      "duration": 0.25,
      "velocity": 94
    },
    {
      "pitch": 51,
      "start_time": 3.0,
      "duration": 0.25,
      "velocity": 54
    },
    {
      "pitch": 48,
      "start_time": 3.25,
      "duration": 0.25,
      "velocity": 94
    },
    {
      "pitch": 56,
      "start_time": 3.25,
      "duration": 0.25,
      "velocity": 74
    },
    {
      "pitch": 50,
      "start_time": 4.0,
      "duration": 0.25,
      "velocity": 94
    },
    {
      "pitch": 51,
      "start_time": 4.0,
      "duration": 0.25,
      "velocity": 54
    },
    {
      "pitch": 48,
      "start_time": 4.5,
      "duration": 0.25,
      "velocity": 94
    },
    {
      "pitch": 56,
      "start_time": 4.5,
      "duration": 0.25,
      "velocity": 74
    },
    {
      "pitch": 50,
      "start_time": 5.0,
      "duration": 0.25,
      "velocity": 94
    },
    {
      "pitch": 51,
      "start_time": 5.0,
      "duration": 0.25,
      "velocity": 54
    },
    {
      "pitch": 48,
      "start_time": 5.5,
      "duration": 0.25,
      "velocity": 94
    },
    {
      "pitch": 54,
      "start_time": 5.5,
      "duration": 0.25,
      "velocity": 74
    },
    {
      "pitch": 50,
      "start_time": 5.75,
      "duration": 0.25,
      "velocity": 57
    },
    {
      "pitch": 51,
      "start_time": 5.75,
      "duration": 0.25,
      "velocity": 32
    },
    {
      "pitch": 50,
      "start_time": 6.0,
      "duration": 0.25,
      "velocity": 94
    },
    {
      "pitch": 51,
      "start_time": 6.0,
      "duration": 0.25,
      "velocity": 54
    },
    {
      "pitch": 48,
      "start_time": 6.25,
      "duration": 0.25,
      "velocity": 94
    },
    {
      "pitch": 54,
      "start_time": 6.25,
      "duration": 0.25,
      "velocity": 74
    },
    {
      "pitch": 48,
      "start_time": 6.75,
      "duration": 0.25,
      "velocity": 94
    },
    {
      "pitch": 54,
      "start_time": 6.75,
      "duration": 0.25,
      "velocity": 74
    },
    {
      "pitch": 50,
      "start_time": 7.0,
      "duration": 0.25,
      "velocity": 94
    },
    {
      "pitch": 51,
      "start_time": 7.0,
      "duration": 0.25,
      "velocity": 54
    }
  ]
}