{
  "source": {
    "song": "packs",
    "track_index": 0,
    "track_name": "Retro Synths / Clips / Phazeform Vol 1 / 180-Shorthand",
    "slot_index": 0,
    "clip_name": "Retro Synths / Clips / Phazeform Vol 1 / 180-Shorthand",
    "mid_file": "/Users/darnold/Music/Ableton/Packs/Retro Synths/Clips/Phazeform Vol 1/180-Shorthand.alc"
  },
  "meta": {
    "bpm": 180.0,
    "key": "?",
    "scale": "?",
    "length_beats": 8.0,
    "note_count": 84
  },
  "rhythm": {
    "density": 1.312,
    "hit_positions": [
      0.0,
      0.0,
      0.0,
      0.0,
      0.75,
      0.75,
      0.75,
      0.75,
      1.0,
      1.0,
      1.0,
      1.0,
      1.5,
      1.5,
      1.5,
      1.5,
      1.75,
      1.75,
      1.75,
      1.75,
      2.25,
      2.25,
      2.25,
      2.25,
      2.5,
      2.5,
      2.5,
      2.5,
      3.0,
      3.0,
      3.0,
      3.0,
      3.5,
      3.5,
      3.5,
      3.5,
      3.75,
      3.75,
      3.75,
      3.75,
      4.25,
      4.25,
      4.25,
      4.25,
      4.5,
      4.5,
      4.5,
      4.5,
      5.0,
      5.0,
      5.0,
      5.0,
      5.5,
      5.5,
      5.5,
      5.5,
      5.75,
      5.75,
      5.75,
      5.75,
      6.25,
      6.25,
      6.25,
      6.25,
      6.5,
      6.5,
      6.5,
      6.5,
      6.75,
      6.75,
      6.75,
      6.75,
      7.0,
      7.0,
      7.0,
      7.0,
      7.25,
      7.25,
      7.25,
      7.25,
      7.5,
      7.5,
      7.5,
      7.5
    ],
    "ioi": [
      0.0,
      0.0,
      0.0,
      0.75,
      0.0,
      0.0,
      0.0,
      0.25,
      0.0,
      0.0,
      0.0,
      0.5,
      0.0,
      0.0,
      0.0,
      0.25,
      0.0,
      0.0,
      0.0,
      0.5,
      0.0,
      0.0,
      0.0,
      0.25,
      0.0,
      0.0,
      0.0,
      0.5,
      0.0,
      0.0,
      0.0,
      0.5,
      0.0,
      0.0,
      0.0,
      0.25,
      0.0,
      0.0,
      0.0,
      0.5,
      0.0,
      0.0,
      0.0,
      0.25,
      0.0,
      0.0,
      0.0,
      0.5,
      0.0,
      0.0,
      0.0,
      0.5,
      0.0,
      0.0,
      0.0,
      0.25,
      0.0,
      0.0,
      0.0,
      0.5,
      0.0,
      0.0,
      0.0,
      0.25,
      0.0,
      0.0,
      0.0,
      0.25,
      0.0,
      0.0,
      0.0,
      0.25,
      0.0,
      0.0,
      0.0,
      0.25,
      0.0,
      0.0,
      0.0,
      0.25,
      0.0,
      0.0,
      0.0,
      0.5
    ],
    "grid": "8th",
    "euclidean_approx": [
      32,
      32
    ],
    "swing_ratio": 1.0
  },
  "pitch": {
    "notes_used": [
      48,
      49,
      50,
      51,
      52,
      53,
      54,
      55
    ],
    "intervals": [
      4,
      1,
      1,
      6,
      4,
      1,
      1,
      5,
      1,
      1,
      4,
      7,
      4,
      1,
      1,
      6,
      4,
      1,
      1,
      6,
      4,
      1,
      1,
      6,
      4,
      1,
      1,
      5,
      1,
      1,
      4,
      7,
      4,
      1,
      1,
      6,
      4,
      1,
      1,
      6,
      4,
      1,
      1,
      6,
      4,
      1,
      1,
      5,
      1,
      1,
      4,
      7,
      4,
      1,
      1,
      6,
      4,
      1,
      1,
      6,
      4,
      1,
      1,
      6,
      4,
      1,
      1,
      5,
      1,
      1,
      4,
      6,
      1,
      1,
      4,
      7,
      4,
      1,
      1,
      6,
      4,
      1,
      1
    ],
    "register": "mid",
    "is_melodic": true,
    "pitch_range": 7,
    "pitch_distribution": {
      "48": 16,
      "52": 16,
      "53": 16,
      "54": 16,
      "49": 5,
      "50": 5,
      "51": 5,
      "55": 5
    }
  },
  "velocity": {
    "mean": 82.3,
    "variance": 107.4,
    "std": 10.4,
    "accents": [
      0,
      1,
      2,
      3,
      9,
      29,
      49,
      73
    ],
    "profile": [
      116,
      116,
      116,
      116,
      81,
      81,
      81,
      81,
      79,
      103,
      79,
      79,
      81,
      81,
      81,
      81,
      81,
      81,
      81,
      81,
      81,
      81,
      81,
      81,
      81,
      81,
      81,
      81,
      79,
      103,
      79,
      79,
      81,
      81,
      81,
      81,
      81,
      81,
      81,
      81,
      81,
      81,
      81,
      81,
      81,
      81,
      81,
      81,
      79,
      103,
      79,
      79,
      81,
      81,
      81,
      81,
      81,
      81,
      81,
      81,
      81,
      81,
      81,
      81,
      81,
      81,
      81,
      81,
      54,
      71,
      54,
      54,
      79,
      103,
      79,
      79,
      81,
      81,
      81,
      81,
      81,
      81,
      81,
      81
    ]
  },
  "notes": [
    {
      "pitch": 48,
      "start_time": 0.0,
      "duration": 0.25,
      "velocity": 116
    },
    {
      "pitch": 52,
      "start_time": 0.0,
      "duration": 0.25,
      "velocity": 116
    },
    {
      "pitch": 53,
      "start_time": 0.0,
      "duration": 0.25,
      "velocity": 116
    },
    {
      "pitch": 54,
      "start_time": 0.0,
      "duration": 0.25,
      "velocity": 116
    },
    {
      "pitch": 48,
      "start_time": 0.75,
      "duration": 0.25,
      "velocity": 81
    },
    {
      "pitch": 52,
      "start_time": 0.75,
      "duration": 0.25,
      "velocity": 81
    },
    {
      "pitch": 53,
      "start_time": 0.75,
      "duration": 0.25,
      "velocity": 81
    },
    {
      "pitch": 54,
      "start_time": 0.75,
      "duration": 0.25,
      "velocity": 81
    },
    {
      "pitch": 49,
      "start_time": 1.0,
      "duration": 0.25,
      "velocity": 79
    },
    {
      "pitch": 50,
      "start_time": 1.0,
      "duration": 0.25,
      "velocity": 103
    },
    {
      "pitch": 51,
      "start_time": 1.0,
      "duration": 0.25,
      "velocity": 79
    },
    {
      "pitch": 55,
      "start_time": 1.0,
      "duration": 0.25,
      "velocity": 79
    },
    {
      "pitch": 48,
      "start_time": 1.5,
      "duration": 0.25,
      "velocity": 81
    },
    {
      "pitch": 52,
      "start_time": 1.5,
      "duration": 0.25,
      "velocity": 81
    },
    {
      "pitch": 53,
      "start_time": 1.5,
      "duration": 0.25,
      "velocity": 81
    },
    {
      "pitch": 54,
      "start_time": 1.5,
      "duration": 0.25,
      "velocity": 81
    },
    {
      "pitch": 48,
      "start_time": 1.75,
      "duration": 0.25,
      "velocity": 81
    },
    {
      "pitch": 52,
      "start_time": 1.75,
      "duration": 0.25,
      "velocity": 81
    },
    {
      "pitch": 53,
      "start_time": 1.75,
      "duration": 0.25,
      "velocity": 81
    },
    {
      "pitch": 54,
      "start_time": 1.75,
      "duration": 0.25,
      "velocity": 81
    },
    {
      "pitch": 48,
      "start_time": 2.25,
      "duration": 0.25,
      "velocity": 81
    },
    {
      "pitch": 52,
      "start_time": 2.25,
      "duration": 0.25,
      "velocity": 81
    },
    {
      "pitch": 53,
      "start_time": 2.25,
      "duration": 0.25,
      "velocity": 81
    },
    {
      "pitch": 54,
      "start_time": 2.25,
      "duration": 0.25,
      "velocity": 81
    },
    {
      "pitch": 48,
      "start_time": 2.5,
      "duration": 0.25,
      "velocity": 81
    },
    {
      "pitch": 52,
      "start_time": 2.5,
      "duration": 0.25,
      "velocity": 81
    },
    {
      "pitch": 53,
      "start_time": 2.5,
      "duration": 0.25,
      "velocity": 81
    },
    {
      "pitch": 54,
      "start_time": 2.5,
      "duration": 0.25,
      "velocity": 81
    },
    {
      "pitch": 49,
      "start_time": 3.0,
      "duration": 0.25,
      "velocity": 79
    },
    {
      "pitch": 50,
      "start_time": 3.0,
      "duration": 0.25,
      "velocity": 103
    },
    {
      "pitch": 51,
      "start_time": 3.0,
      "duration": 0.25,
      "velocity": 79
    },
    {
      "pitch": 55,
      "start_time": 3.0,
      "duration": 0.25,
      "velocity": 79
    },
    {
      "pitch": 48,
      "start_time": 3.5,
      "duration": 0.25,
      "velocity": 81
    },
    {
      "pitch": 52,
      "start_time": 3.5,
      "duration": 0.25,
      "velocity": 81
    },
    {
      "pitch": 53,
      "start_time": 3.5,
      "duration": 0.25,
      "velocity": 81
    },
    {
      "pitch": 54,
      "start_time": 3.5,
      "duration": 0.25,
      "velocity": 81
    },
    {
      "pitch": 48,
      "start_time": 3.75,
      "duration": 0.25,
      "velocity": 81
    },
    {
      "pitch": 52,
      "start_time": 3.75,
      "duration": 0.25,
      "velocity": 81
    },
    {
      "pitch": 53,
      "start_time": 3.75,
      "duration": 0.25,
      "velocity": 81
    },
    {
      "pitch": 54,
      "start_time": 3.75,
      "duration": 0.25,
      "velocity": 81
    },
    {
      "pitch": 48,
      "start_time": 4.25,
      "duration": 0.25,
      "velocity": 81
    },
    {
      "pitch": 52,
      "start_time": 4.25,
      "duration": 0.25,
      "velocity": 81
    },
    {
      "pitch": 53,
      "start_time": 4.25,
      "duration": 0.25,
      "velocity": 81
    },
    {
      "pitch": 54,
      "start_time": 4.25,
      "duration": 0.25,
      "velocity": 81
    },
    {
      "pitch": 48,
      "start_time": 4.5,
      "duration": 0.25,
      "velocity": 81
    },
    {
      "pitch": 52,
      "start_time": 4.5,
      "duration": 0.25,
      "velocity": 81
    },
    {
      "pitch": 53,
      "start_time": 4.5,
      "duration": 0.25,
      "velocity": 81
    },
    {
      "pitch": 54,
      "start_time": 4.5,
      "duration": 0.25,
      "velocity": 81
    },
    {
      "pitch": 49,
      "start_time": 5.0,
      "duration": 0.25,
      "velocity": 79
    },
    {
      "pitch": 50,
      "start_time": 5.0,
      "duration": 0.25,
      "velocity": 103
    },
    {
      "pitch": 51,
      "start_time": 5.0,
      "duration": 0.25,
      "velocity": 79
    },
    {
      "pitch": 55,
      "start_time": 5.0,
      "duration": 0.25,
      "velocity": 79
    },
    {
      "pitch": 48,
      "start_time": 5.5,
      "duration": 0.25,
      "velocity": 81
    },
    {
      "pitch": 52,
      "start_time": 5.5,
      "duration": 0.25,
      "velocity": 81
    },
    {
      "pitch": 53,
      "start_time": 5.5,
      "duration": 0.25,
      "velocity": 81
    },
    {
      "pitch": 54,
      "start_time": 5.5,
      "duration": 0.25,
      "velocity": 81
    },
    {
      "pitch": 48,
      "start_time": 5.75,
      "duration": 0.25,
      "velocity": 81
    },
    {
      "pitch": 52,
      "start_time": 5.75,
      "duration": 0.25,
      "velocity": 81
    },
    {
      "pitch": 53,
      "start_time": 5.75,
      "duration": 0.25,
      "velocity": 81
    },
    {
      "pitch": 54,
      "start_time": 5.75,
      "duration": 0.25,
      "velocity": 81
    },
    {
      "pitch": 48,
      "start_time": 6.25,
      "duration": 0.25,
      "velocity": 81
    },
    {
      "pitch": 52,
      "start_time": 6.25,
      "duration": 0.25,
      "velocity": 81
    },
    {
      "pitch": 53,
      "start_time": 6.25,
      "duration": 0.25,
      "velocity": 81
    },
    {
      "pitch": 54,
      "start_time": 6.25,
      "duration": 0.25,
      "velocity": 81
    },
    {
      "pitch": 48,
      "start_time": 6.5,
      "duration": 0.25,
      "velocity": 81
    },
    {
      "pitch": 52,
      "start_time": 6.5,
      "duration": 0.25,
      "velocity": 81
    },
    {
      "pitch": 53,
      "start_time": 6.5,
      "duration": 0.25,
      "velocity": 81
    },
    {
      "pitch": 54,
      "start_time": 6.5,
      "duration": 0.25,
      "velocity": 81
    },
    {
      "pitch": 49,
      "start_time": 6.75,
      "duration": 0.25,
      "velocity": 54
    },
    {
      "pitch": 50,
      "start_time": 6.75,
      "duration": 0.25,
      "velocity": 71
    },
    {
      "pitch": 51,
      "start_time": 6.75,
      "duration": 0.25,
      "velocity": 54
    },
    {
      "pitch": 55,
      "start_time": 6.75,
      "duration": 0.25,
      "velocity": 54
    },
    {
      "pitch": 49,
      "start_time": 7.0,
      "duration": 0.25,
      "velocity": 79
    },
    {
      "pitch": 50,
      "start_time": 7.0,
      "duration": 0.25,
      "velocity": 103
    },
    {
      "pitch": 51,
      "start_time": 7.0,
      "duration": 0.25,
      "velocity": 79
    },
    {
      "pitch": 55,
      "start_time": 7.0,
      "duration": 0.25,
      "velocity": 79
    },
    {
      "pitch": 48,
      "start_time": 7.25,
      "duration": 0.25,
      "velocity": 81
    },
    {
      "pitch": 52,
      "start_time": 7.25,
      "duration": 0.25,
      "velocity": 81
    },
    {
      "pitch": 53,
      "start_time": 7.25,
      "duration": 0.25,
      "velocity": 81
    },
    {
      "pitch": 54,
      "start_time": 7.25,
      "duration": 0.25,
      "velocity": 81
    },
    {
      "pitch": 48,
      "start_time": 7.5,
      "duration": 0.25,
      "velocity": 81
    },
    {
      "pitch": 52,
      "start_time": 7.5,
      "duration": 0.25,
      "velocity": 81
    },
    {
      "pitch": 53,
      "start_time": 7.5,
      "duration": 0.25,
      "velocity": 81
    },
    {
      "pitch": 54,
      "start_time": 7.5,
      "duration": 0.25,
      "velocity": 81
    }
  ]
}