{
  "source": {
    "song": "packs",
    "track_index": 0,
    "track_name": "Retro Synths / Clips / Phazeform Vol 1 / 120-Gamer",
    "slot_index": 0,
    "clip_name": "Retro Synths / Clips / Phazeform Vol 1 / 120-Gamer",
    "mid_file": "/Users/darnold/Music/Ableton/Packs/Retro Synths/Clips/Phazeform Vol 1/120-Gamer.alc"
  },
  "meta": {
    "bpm": 120.0,
    "key": "?",
    "scale": "?",
    "length_beats": 8.0,
    "note_count": 51
  },
  "rhythm": {
    "density": 0.906,
    "hit_positions": [
      0.0,
      0.0,
      0.25,
      0.75,
      1.0,
      1.0,
      1.0,
      1.0,
      1.25,
      1.5,
      1.5,
      1.75,
      2.0,
      2.0,
      2.25,
      2.25,
      2.25,
      2.75,
      3.0,
      3.0,
      3.0,
      3.0,
      3.25,
      3.5,
      4.0,
      4.0,
      4.25,
      4.75,
      5.0,
      5.0,
      5.0,
      5.0,
      5.25,
      5.5,
      5.5,
      5.75,
      6.0,
      6.0,
      6.25,
      6.25,
      6.25,
      6.5,
      6.625,
      6.75,
      7.0,
      7.0,
      7.25,
      7.5,
      7.5,
      7.5,
      7.75
    ],
    "ioi": [
      0.0,
      0.25,
      0.5,
      0.25,
      0.0,
      0.0,
      0.0,
      0.25,
      0.25,
      0.0,
      0.25,
      0.25,
      0.0,
      0.25,
      0.0,
      0.0,
      0.5,
      0.25,
      0.0,
      0.0,
      0.0,
      0.25,
      0.25,
      0.5,
      0.0,
      0.25,
      0.5,
      0.25,
      0.0,
      0.0,
      0.0,
      0.25,
      0.25,
      0.0,
      0.25,
      0.25,
      0.0,
      0.25,
      0.0,
      0.0,
      0.25,
      0.125,
      0.125,
      0.25,
      0.0,
      0.25,
      0.25,
      0.0,
      0.0,
      0.25,
      0.25
    ],
    "grid": "16th",
    "euclidean_approx": [
      32,
      32
    ],
    "swing_ratio": 1.0
  },
  "pitch": {
    "notes_used": [
      48,
      49,
      50,
      51,
      52,
      53,
      54,
      55,
      56
    ],
    "intervals": [
      1,
      5,
      0,
      6,
      1,
      1,
      1,
      4,
      3,
      2,
      0,
      6,
      1,
      1,
      1,
      5,
      0,
      6,
      1,
      1,
      1,
      4,
      2,
      5,
      1,
      5,
      0,
      6,
      1,
      1,
      1,
      4,
      3,
      2,
      0,
      6,
      1,
      1,
      1,
      5,
      1,
      0,
      1,
      4,
      1,
      4,
      7,
      1,
      7,
      3
    ],
    "register": "mid",
    "is_melodic": true,
    "pitch_range": 8,
    "pitch_distribution": {
      "48": 10,
      "49": 10,
      "54": 12,
      "50": 4,
      "51": 4,
      "55": 4,
      "52": 2,
      "53": 4,
      "56": 1
    }
  },
  "velocity": {
    "mean": 73.5,
    "variance": 808.6,
    "std": 28.4,
    "accents": [
      0,
      4,
      6,
      14,
      18,
      20,
      24,
      28,
      30,
      38,
      44,
      47
    ],
    "profile": [
      116,
      64,
      63,
      63,
      116,
      64,
      127,
      26,
      55,
      80,
      63,
      63,
      78,
      43,
      116,
      64,
      63,
      63,
      116,
      64,
      127,
      26,
      55,
      59,
      116,
      64,
      63,
      63,
      116,
      64,
      127,
      26,
      55,
      80,
      63,
      63,
      78,
      43,
      116,
      64,
      63,
      59,
      59,
      63,
      127,
      26,
      55,
      116,
      64,
      82,
      59
    ]
  },
  "notes": [
    {
      "pitch": 48,
      "start_time": 0.0,
      "duration": 0.25,
      "velocity": 116
    },
    {
      "pitch": 49,
      "start_time": 0.0,
      "duration": 0.25,
      "velocity": 64
    },
    {
      "pitch": 54,
      "start_time": 0.25,
      "duration": 0.25,
      "velocity": 63
    },
    {
      "pitch": 54,
      "start_time": 0.75,
      "duration": 0.25,
      "velocity": 63
    },
    {
      "pitch": 48,
      "start_time": 1.0,
      "duration": 0.25,
      "velocity": 116
    },
    {
      "pitch": 49,
      "start_time": 1.0,
      "duration": 0.25,
      "velocity": 64
    },
    {
      "pitch": 50,
      "start_time": 1.0,
      "duration": 0.25,
      "velocity": 127
    },
    {
      "pitch": 51,
      "start_time": 1.0,
      "duration": 0.25,
      "velocity": 26
    },
    {
      "pitch": 55,
      "start_time": 1.25,
      "duration": 0.25,
      "velocity": 55
    },
    {
      "pitch": 52,
      "start_time": 1.5,
      "duration": 0.25,
      "velocity": 80
    },
    {
      "pitch": 54,
      "start_time": 1.5,
      "duration": 0.25,
      "velocity": 63
    },
    {
      "pitch": 54,
      "start_time": 1.75,
      "duration": 0.25,
      "velocity": 63
    },
    {
      "pitch": 48,
      "start_time": 2.0,
      "duration": 0.125,
      "velocity": 78
    },
    {
      "pitch": 49,
      "start_time": 2.0,
      "duration": 0.125,
      "velocity": 43
    },
    {
      "pitch": 48,
      "start_time": 2.25,
      "duration": 0.25,
      "velocity": 116
    },
    {
      "pitch": 49,
      "start_time": 2.25,
      "duration": 0.25,
      "velocity": 64
    },
    {
      "pitch": 54,
      "start_time": 2.25,
      "duration": 0.25,
      "velocity": 63
    },
    {
      "pitch": 54,
      "start_time": 2.75,
      "duration": 0.25,
      "velocity": 63
    },
    {
      "pitch": 48,
      "start_time": 3.0,
      "duration": 0.25,
      "velocity": 116
    },
    {
      "pitch": 49,
      "start_time": 3.0,
      "duration": 0.25,
      "velocity": 64
    },
    {
      "pitch": 50,
      "start_time": 3.0,
      "duration": 0.25,
      "velocity": 127
    },
    {
      "pitch": 51,
      "start_time": 3.0,
      "duration": 0.25,
      "velocity": 26
    },
    {
      "pitch": 55,
      "start_time": 3.25,
      "duration": 0.25,
      "velocity": 55
    },
    {
      "pitch": 53,
      "start_time": 3.5,
      "duration": 0.125,
      "velocity": 59
    },
    {
      "pitch": 48,
      "start_time": 4.0,
      "duration": 0.25,
      "velocity": 116
    },
    {
      "pitch": 49,
      "start_time": 4.0,
      "duration": 0.25,
      "velocity": 64
    },
    {
      "pitch": 54,
      "start_time": 4.25,
      "duration": 0.25,
      "velocity": 63
    },
    {
      "pitch": 54,
      "start_time": 4.75,
      "duration": 0.25,
      "velocity": 63
    },
    {
      "pitch": 48,
      "start_time": 5.0,
      "duration": 0.25,
      "velocity": 116
    },
    {
      "pitch": 49,
      "start_time": 5.0,
      "duration": 0.25,
      "velocity": 64
    },
    {
      "pitch": 50,
      "start_time": 5.0,
      "duration": 0.25,
      "velocity": 127
    },
    {
      "pitch": 51,
      "start_time": 5.0,
      "duration": 0.25,
      "velocity": 26
    },
    {
      "pitch": 55,
      "start_time": 5.25,
      "duration": 0.25,
      "velocity": 55
    },
    {
      "pitch": 52,
      "start_time": 5.5,
      "duration": 0.25,
      "velocity": 80
    },
    {
      "pitch": 54,
      "start_time": 5.5,
      "duration": 0.25,
      "velocity": 63
    },
    {
      "pitch": 54,
      "start_time": 5.75,
      "duration": 0.25,
      "velocity": 63
    },
    {
      "pitch": 48,
      "start_time": 6.0,
      "duration": 0.125,
      "velocity": 78
    },
    {
      "pitch": 49,
      "start_time": 6.0,
      "duration": 0.125,
      "velocity": 43
    },
    {
      "pitch": 48,
      "start_time": 6.25,
      "duration": 0.25,
      "velocity": 116
    },
    {
      "pitch": 49,
      "start_time": 6.25,
      "duration": 0.25,
      "velocity": 64
    },
    {
      "pitch": 54,
      "start_time": 6.25,
      "duration": 0.25,
      "velocity": 63
    },
    {
      "pitch": 53,
      "start_time": 6.5,
      "duration": 0.125,
      "velocity": 59
    },
    {
      "pitch": 53,
      "start_time": 6.625,
      "duration": 0.125,
      "velocity": 59
    },
    {
      "pitch": 54,
      "start_time": 6.75,
      "duration": 0.25,
      "velocity": 63
    },
    {
      "pitch": 50,
      "start_time": 7.0,
      "duration": 0.25,
      "velocity": 127
    },
    {
      "pitch": 51,
      "start_time": 7.0,
      "duration": 0.25,
      "velocity": 26
    },
    {
      "pitch": 55,
      "start_time": 7.25,
      "duration": 0.25,
      "velocity": 55
    },
    {
      "pitch": 48,
      "start_time": 7.5,
      "duration": 0.25,
      "velocity": 116
    },
    {
      "pitch": 49,
      "start_time": 7.5,
      "duration": 0.25,
      "velocity": 64
    },
    {
      "pitch": 56,
      "start_time": 7.5,
      "duration": 0.25,
      "velocity": 82
    },
    {
      "pitch": 53,
      "start_time": 7.75,
      "duration": 0.125,
      "velocity": 59
    }
  ]
}