{
  "source": {
    "song": "packs",
    "track_index": 0,
    "track_name": "Retro Synths / Clips / Phazeform Vol 1 / 100-Gangstew",
    "slot_index": 0,
    "clip_name": "Retro Synths / Clips / Phazeform Vol 1 / 100-Gangstew",
    "mid_file": "/Users/darnold/Music/Ableton/Packs/Retro Synths/Clips/Phazeform Vol 1/100-Gangstew.alc"
  },
  "meta": {
    "bpm": 100.0,
    "key": "?",
    "scale": "?",
    "length_beats": 8.0,
    "note_count": 36
  },
  "rhythm": {
    "density": 0.875,
    "hit_positions": [
      0.0,
      0.25,
      0.5,
      0.625,
      0.75,
      0.875,
      1.0,
      1.0,
      1.0,
      1.25,
      1.5,
      1.625,
      1.75,
      2.0,
      3.0,
      3.0,
      3.0,
      3.25,
      3.5,
      3.625,
      3.75,
      3.875,
      4.0,
      4.25,
      4.5,
      5.0,
      5.0,
      5.0,
      5.25,
      6.0,
      6.25,
      6.5,
      6.75,
      7.0,
      7.0,
      7.0
    ],
    "ioi": [
      0.25,
      0.25,
      0.125,
      0.125,
      0.125,
      0.125,
      0.0,
      0.0,
      0.25,
      0.25,
      0.125,
      0.125,
      0.25,
      1.0,
      0.0,
      0.0,
      0.25,
      0.25,
      0.125,
      0.125,
      0.125,
      0.125,
      0.25,
      0.25,
      0.5,
      0.0,
      0.0,
      0.25,
      0.75,
      0.25,
      0.25,
      0.25,
      0.25,
      0.0,
      0.0,
      1.0
    ],
    "grid": "16th",
    "euclidean_approx": [
      32,
      32
    ],
    "swing_ratio": 1.083
  },
  "pitch": {
    "notes_used": [
      48,
      49,
      50,
      51,
      52,
      53,
      54,
      55,
      56
    ],
    "intervals": [
      6,
      2,
      1,
      2,
      3,
      4,
      2,
      1,
      3,
      1,
      2,
      6,
      1,
      0,
      2,
      1,
      3,
      1,
      2,
      1,
      3,
      7,
      6,
      1,
      5,
      2,
      1,
      3,
      6,
      6,
      2,
      5,
      3,
      2,
      1
    ],
    "register": "mid",
    "is_melodic": true,
    "pitch_range": 8,
    "pitch_distribution": {
      "48": 8,
      "54": 6,
      "52": 3,
      "53": 4,
      "55": 4,
      "50": 4,
      "51": 5,
      "49": 1,
      "56": 1
    }
  },
  "velocity": {
    "mean": 88.9,
    "variance": 923.7,
    "std": 30.4,
    "accents": [
      7,
      15,
      26,
      34
    ],
    "profile": [
      116,
      89,
      89,
      89,
      89,
      89,
      116,
      127,
      26,
      89,
      89,
      89,
      89,
      116,
      116,
      127,
      26,
      89,
      89,
      89,
      89,
      89,
      116,
      89,
      89,
      116,
      127,
      26,
      89,
      116,
      89,
      89,
      15,
      89,
      120,
      15
    ]
  },
  "notes": [
    {
      "pitch": 48,
      "start_time": 0.0,
      "duration": 0.25,
      "velocity": 116
    },
    {
      "pitch": 54,
      "start_time": 0.25,
      "duration": 0.125,
      "velocity": 89
    },
    {
      "pitch": 52,
      "start_time": 0.5,
      "duration": 0.125,
      "velocity": 89
    },
    {
      "pitch": 53,
      "start_time": 0.625,
      "duration": 0.125,
      "velocity": 89
    },
    {
      "pitch": 55,
      "start_time": 0.75,
      "duration": 0.125,
      "velocity": 89
    },
    {
      "pitch": 52,
      "start_time": 0.875,
      "duration": 0.125,
      "velocity": 89
    },
    {
      "pitch": 48,
      "start_time": 1.0,
      "duration": 0.25,
      "velocity": 116
    },
    {
      "pitch": 50,
      "start_time": 1.0,
      "duration": 0.25,
      "velocity": 127
    },
    {
      "pitch": 51,
      "start_time": 1.0,
      "duration": 0.25,
      "velocity": 26
    },
    {
      "pitch": 54,
      "start_time": 1.25,
      "duration": 0.125,
      "velocity": 89
    },
    {
      "pitch": 53,
      "start_time": 1.5,
      "duration": 0.125,
      "velocity": 89
    },
    {
      "pitch": 55,
      "start_time": 1.625,
      "duration": 0.125,
      "velocity": 89
    },
    {
      "pitch": 49,
      "start_time": 1.75,
      "duration": 0.125,
      "velocity": 89
    },
    {
      "pitch": 48,
      "start_time": 2.0,
      "duration": 0.25,
      "velocity": 116
    },
    {
      "pitch": 48,
      "start_time": 3.0,
      "duration": 0.25,
      "velocity": 116
    },
    {
      "pitch": 50,
      "start_time": 3.0,
      "duration": 0.25,
      "velocity": 127
    },
    {
      "pitch": 51,
      "start_time": 3.0,
      "duration": 0.25,
      "velocity": 26
    },
    {
      "pitch": 54,
      "start_time": 3.25,
      "duration": 0.125,
      "velocity": 89
    },
    {
      "pitch": 55,
      "start_time": 3.5,
      "duration": 0.125,
      "velocity": 89
    },
    {
      "pitch": 53,
      "start_time": 3.625,
      "duration": 0.125,
      "velocity": 89
    },
    {
      "pitch": 52,
      "start_time": 3.75,
      "duration": 0.125,
      "velocity": 89
    },
    {
      "pitch": 55,
      "start_time": 3.875,
      "duration": 0.125,
      "velocity": 89
    },
    {
      "pitch": 48,
      "start_time": 4.0,
      "duration": 0.25,
      "velocity": 116
    },
    {
      "pitch": 54,
      "start_time": 4.25,
      "duration": 0.125,
      "velocity": 89
    },
    {
      "pitch": 53,
      "start_time": 4.5,
      "duration": 0.125,
      "velocity": 89
    },
    {
      "pitch": 48,
      "start_time": 5.0,
      "duration": 0.25,
      "velocity": 116
    },
    {
      "pitch": 50,
      "start_time": 5.0,
      "duration": 0.25,
      "velocity": 127
    },
    {
      "pitch": 51,
      "start_time": 5.0,
      "duration": 0.25,
      "velocity": 26
    },
    {
      "pitch": 54,
      "start_time": 5.25,
      "duration": 0.125,
      "velocity": 89
    },
    {
      "pitch": 48,
      "start_time": 6.0,
      "duration": 0.25,
      "velocity": 116
    },
    {
      "pitch": 54,
      "start_time": 6.25,
      "duration": 0.125,
      "velocity": 89
    },
    {
      "pitch": 56,
      "start_time": 6.5,
      "duration": 0.25,
      "velocity": 89
    },
    {
      "pitch": 51,
      "start_time": 6.75,
      "duration": 0.125,
      "velocity": 15
    },
    {
      "pitch": 48,
      "start_time": 7.0,
      "duration": 0.25,
      "velocity": 89
    },
    {
      "pitch": 50,
      "start_time": 7.0,
      "duration": 0.25,
      "velocity": 120
    },
    {
      "pitch": 51,
      "start_time": 7.0,
      "duration": 0.25,
      "velocity": 15
    }
  ]
}