{
  "source": {
    "song": "packs",
    "track_index": 0,
    "track_name": "Retro Synths / Clips / TeeBee / Troublesome",
    "slot_index": 0,
    "clip_name": "Retro Synths / Clips / TeeBee / Troublesome",
    "mid_file": "/Users/darnold/Music/Ableton/Packs/Retro Synths/Clips/TeeBee/Troublesome.alc"
  },
  "meta": {
    "bpm": 115.0,
    "key": "?",
    "scale": "?",
    "length_beats": 16.0,
    "note_count": 83
  },
  "rhythm": {
    "density": 2.0,
    "hit_positions": [
      0.0,
      0.25,
      0.5,
      0.75,
      1.0,
      1.0,
      1.25,
      1.5,
      1.75,
      1.75,
      2.0,
      2.0,
      2.25,
      2.5,
      2.75,
      3.0,
      3.0,
      3.25,
      3.5,
      3.75,
      3.75,
      4.0,
      4.0,
      4.25,
      4.5,
      4.75,
      4.75,
      5.0,
      5.0,
      5.25,
      5.5,
      5.75,
      5.75,
      6.0,
      6.0,
      6.25,
      6.5,
      6.75,
      7.0,
      7.0,
      7.25,
      7.5,
      7.75,
      8.0,
      8.25,
      8.5,
      8.75,
      8.75,
      9.0,
      9.0,
      9.25,
      9.5,
      9.75,
      10.0,
      10.25,
      10.5,
      10.75,
      10.75,
      11.0,
      11.0,
      11.25,
      11.5,
      11.75,
      12.0,
      12.25,
      12.5,
      12.75,
      12.75,
      13.0,
      13.0,
      13.25,
      13.5,
      13.75,
      14.0,
      14.25,
      14.5,
      14.75,
      14.75,
      15.0,
      15.0,
      15.25,
      15.5,
      15.75
    ],
    "ioi": [
      0.25,
      0.25,
      0.25,
      0.25,
      0.0,
      0.25,
      0.25,
      0.25,
      0.0,
      0.25,
      0.0,
      0.25,
      0.25,
      0.25,
      0.25,
      0.0,
      0.25,
      0.25,
      0.25,
      0.0,
      0.25,
      0.0,
      0.25,
      0.25,
      0.25,
      0.0,
      0.25,
      0.0,
      0.25,
      0.25,
      0.25,
      0.0,
      0.25,
      0.0,
      0.25,
      0.25,
      0.25,
      0.25,
      0.0,
      0.25,
      0.25,
      0.25,
      0.25,
      0.25,
      0.25,
      0.25,
      0.0,
      0.25,
      0.0,
      0.25,
      0.25,
      0.25,
      0.25,
      0.25,
      0.25,
      0.25,
      0.0,
      0.25,
      0.0,
      0.25,
      0.25,
      0.25,
      0.25,
      0.25,
      0.25,
      0.25,
      0.0,
      0.25,
      0.0,
      0.25,
      0.25,
      0.25,
      0.25,
      0.25,
      0.25,
      0.25,
      0.0,
      0.25,
      0.0,
      0.25,
      0.25,
      0.25,
      0.25
    ],
    "grid": "8th",
    "euclidean_approx": [
      64,
      64
    ],
    "swing_ratio": 1.0
  },
  "pitch": {
    "notes_used": [
      55,
      59,
      60,
      63,
      67,
      69,
      71,
      72,
      75,
      79,
      81
    ],
    "intervals": [
      12,
      4,
      12,
      20,
      24,
      12,
      4,
      4,
      16,
      20,
      16,
      4,
      4,
      12,
      20,
      24,
      12,
      4,
      6,
      6,
      20,
      26,
      14,
      4,
      6,
      6,
      20,
      26,
      14,
      4,
      3,
      15,
      20,
      17,
      5,
      4,
      12,
      20,
      24,
      12,
      4,
      12,
      15,
      12,
      5,
      12,
      24,
      19,
      7,
      5,
      5,
      12,
      19,
      12,
      5,
      12,
      24,
      19,
      7,
      5,
      5,
      12,
      16,
      12,
      8,
      12,
      24,
      16,
      4,
      8,
      8,
      12,
      16,
      12,
      8,
      12,
      24,
      16,
      4,
      8,
      8,
      12
    ],
    "register": "mid",
    "is_melodic": true,
    "pitch_range": 26,
    "pitch_distribution": {
      "55": 12,
      "67": 20,
      "63": 12,
      "75": 12,
      "79": 11,
      "59": 1,
      "71": 1,
      "69": 2,
      "81": 2,
      "60": 5,
      "72": 5
    }
  },
  "velocity": {
    "mean": 98.3,
    "variance": 45.0,
    "std": 6.7,
    "accents": [
      13,
      14,
      30,
      32,
      36,
      37,
      41,
      42,
      68,
      70
    ],
    "profile": [
      88,
      88,
      88,
      88,
      88,
      100,
      88,
      98,
      100,
      98,
      94,
      100,
      94,
      105,
      105,
      92,
      100,
      92,
      102,
      100,
      102,
      98,
      100,
      98,
      102,
      100,
      102,
      100,
      100,
      100,
      109,
      100,
      109,
      99,
      100,
      99,
      113,
      113,
      98,
      100,
      98,
      120,
      120,
      98,
      98,
      94,
      100,
      94,
      100,
      100,
      100,
      92,
      92,
      100,
      100,
      89,
      100,
      89,
      90,
      100,
      90,
      92,
      92,
      99,
      99,
      89,
      100,
      89,
      109,
      100,
      109,
      96,
      96,
      99,
      99,
      88,
      100,
      88,
      102,
      100,
      102,
      97,
      97
    ]
  },
  "notes": [
    {
      "pitch": 55,
      "start_time": 0.0,
      "duration": 0.5678,
      "velocity": 88
    },
    {
      "pitch": 67,
      "start_time": 0.25,
      "duration": 0.5678,
      "velocity": 88
    },
    {
      "pitch": 63,
      "start_time": 0.5,
      "duration": 0.2532,
      "velocity": 88
    },
    {
      "pitch": 75,
      "start_time": 0.75,
      "duration": 0.2532,
      "velocity": 88
    },
    {
      "pitch": 55,
      "start_time": 1.0,
      "duration": 0.4898,
      "velocity": 88
    },
    {
      "pitch": 79,
      "start_time": 1.0,
      "duration": 0.125,
      "velocity": 100
    },
    {
      "pitch": 67,
      "start_time": 1.25,
      "duration": 0.4898,
      "velocity": 88
    },
    {
      "pitch": 63,
      "start_time": 1.5,
      "duration": 0.2564,
      "velocity": 98
    },
    {
      "pitch": 59,
      "start_time": 1.75,
      "duration": 0.125,
      "velocity": 100
    },
    {
      "pitch": 75,
      "start_time": 1.75,
      "duration": 0.2564,
      "velocity": 98
    },
    {
      "pitch": 55,
      "start_time": 2.0,
      "duration": 0.5089,
      "velocity": 94
    },
    {
      "pitch": 71,
      "start_time": 2.0,
      "duration": 0.125,
      "velocity": 100
    },
    {
      "pitch": 67,
      "start_time": 2.25,
      "duration": 0.5089,
      "velocity": 94
    },
    {
      "pitch": 63,
      "start_time": 2.5,
      "duration": 0.3401,
      "velocity": 105
    },
    {
      "pitch": 75,
      "start_time": 2.75,
      "duration": 0.3401,
      "velocity": 105
    },
    {
      "pitch": 55,
      "start_time": 3.0,
      "duration": 0.3644,
      "velocity": 92
    },
    {
      "pitch": 79,
      "start_time": 3.0,
      "duration": 0.125,
      "velocity": 100
    },
    {
      "pitch": 67,
      "start_time": 3.25,
      "duration": 0.3644,
      "velocity": 92
    },
    {
      "pitch": 63,
      "start_time": 3.5,
      "duration": 0.3284,
      "velocity": 102
    },
    {
      "pitch": 69,
      "start_time": 3.75,
      "duration": 0.25,
      "velocity": 100
    },
    {
      "pitch": 75,
      "start_time": 3.75,
      "duration": 0.3284,
      "velocity": 102
    },
    {
      "pitch": 55,
      "start_time": 4.0,
      "duration": 0.4799,
      "velocity": 98
    },
    {
      "pitch": 81,
      "start_time": 4.0,
      "duration": 0.25,
      "velocity": 100
    },
    {
      "pitch": 67,
      "start_time": 4.25,
      "duration": 0.4799,
      "velocity": 98
    },
    {
      "pitch": 63,
      "start_time": 4.5,
      "duration": 0.3183,
      "velocity": 102
    },
    {
      "pitch": 69,
      "start_time": 4.75,
      "duration": 0.125,
      "velocity": 100
    },
    {
      "pitch": 75,
      "start_time": 4.75,
      "duration": 0.3183,
      "velocity": 102
    },
    {
      "pitch": 55,
      "start_time": 5.0,
      "duration": 0.4845,
      "velocity": 100
    },
    {
      "pitch": 81,
      "start_time": 5.0,
      "duration": 0.125,
      "velocity": 100
    },
    {
      "pitch": 67,
      "start_time": 5.25,
      "duration": 0.4845,
      "velocity": 100
    },
    {
      "pitch": 63,
      "start_time": 5.5,
      "duration": 0.4059,
      "velocity": 109
    },
    {
      "pitch": 60,
      "start_time": 5.75,
      "duration": 0.125,
      "velocity": 100
    },
    {
      "pitch": 75,
      "start_time": 5.75,
      "duration": 0.4059,
      "velocity": 109
    },
    {
      "pitch": 55,
      "start_time": 6.0,
      "duration": 0.5341,
      "velocity": 99
    },
    {
      "pitch": 72,
      "start_time": 6.0,
      "duration": 0.125,
      "velocity": 100
    },
    {
      "pitch": 67,
      "start_time": 6.25,
      "duration": 0.5341,
      "velocity": 99
    },
    {
      "pitch": 63,
      "start_time": 6.5,
      "duration": 0.4541,
      "velocity": 113
    },
    {
      "pitch": 75,
      "start_time": 6.75,
      "duration": 0.4541,
      "velocity": 113
    },
    {
      "pitch": 55,
      "start_time": 7.0,
      "duration": 0.4357,
      "velocity": 98
    },
    {
      "pitch": 79,
      "start_time": 7.0,
      "duration": 0.125,
      "velocity": 100
    },
    {
      "pitch": 67,
      "start_time": 7.25,
      "duration": 0.4357,
      "velocity": 98
    },
    {
      "pitch": 63,
      "start_time": 7.5,
      "duration": 0.4767,
      "velocity": 120
    },
    {
      "pitch": 75,
      "start_time": 7.75,
      "duration": 0.4767,
      "velocity": 120
    },
    {
      "pitch": 60,
      "start_time": 8.0,
      "duration": 0.4705,
      "velocity": 98
    },
    {
      "pitch": 72,
      "start_time": 8.25,
      "duration": 0.4705,
      "velocity": 98
    },
    {
      "pitch": 67,
      "start_time": 8.5,
      "duration": 0.2574,
      "velocity": 94
    },
    {
      "pitch": 55,
      "start_time": 8.75,
      "duration": 0.25,
      "velocity": 100
    },
    {
      "pitch": 79,
      "start_time": 8.75,
      "duration": 0.2574,
      "velocity": 94
    },
    {
      "pitch": 60,
      "start_time": 9.0,
      "duration": 0.4764,
      "velocity": 100
    },
    {
      "pitch": 67,
      "start_time": 9.0,
      "duration": 0.25,
      "velocity": 100
    },
    {
      "pitch": 72,
      "start_time": 9.25,
      "duration": 0.4764,
      "velocity": 100
    },
    {
      "pitch": 67,
      "start_time": 9.5,
      "duration": 0.4077,
      "velocity": 92
    },
    {
      "pitch": 79,
      "start_time": 9.75,
      "duration": 0.4077,
      "velocity": 92
    },
    {
      "pitch": 60,
      "start_time": 10.0,
      "duration": 0.4946,
      "velocity": 100
    },
    {
      "pitch": 72,
      "start_time": 10.25,
      "duration": 0.4946,
      "velocity": 100
    },
    {
      "pitch": 67,
      "start_time": 10.5,
      "duration": 0.5,
      "velocity": 89
    },
    {
      "pitch": 55,
      "start_time": 10.75,
      "duration": 0.25,
      "velocity": 100
    },
    {
      "pitch": 79,
      "start_time": 10.75,
      "duration": 0.5262,
      "velocity": 89
    },
    {
      "pitch": 60,
      "start_time": 11.0,
      "duration": 0.5556,
      "velocity": 90
    },
    {
      "pitch": 67,
      "start_time": 11.0,
      "duration": 0.25,
      "velocity": 100
    },
    {
      "pitch": 72,
      "start_time": 11.25,
      "duration": 0.5556,
      "velocity": 90
    },
    {
      "pitch": 67,
      "start_time": 11.5,
      "duration": 0.4704,
      "velocity": 92
    },
    {
      "pitch": 79,
      "start_time": 11.75,
      "duration": 0.4704,
      "velocity": 92
    },
    {
      "pitch": 63,
      "start_time": 12.0,
      "duration": 0.7333,
      "velocity": 99
    },
    {
      "pitch": 75,
      "start_time": 12.25,
      "duration": 0.7333,
      "velocity": 99
    },
    {
      "pitch": 67,
      "start_time": 12.5,
      "duration": 0.4659,
      "velocity": 89
    },
    {
      "pitch": 55,
      "start_time": 12.75,
      "duration": 0.25,
      "velocity": 100
    },
    {
      "pitch": 79,
      "start_time": 12.75,
      "duration": 0.4659,
      "velocity": 89
    },
    {
      "pitch": 63,
      "start_time": 13.0,
      "duration": 0.6492,
      "velocity": 109
    },
    {
      "pitch": 67,
      "start_time": 13.0,
      "duration": 0.25,
      "velocity": 100
    },
    {
      "pitch": 75,
      "start_time": 13.25,
      "duration": 0.6492,
      "velocity": 109
    },
    {
      "pitch": 67,
      "start_time": 13.5,
      "duration": 0.4921,
      "velocity": 96
    },
    {
      "pitch": 79,
      "start_time": 13.75,
      "duration": 0.4921,
      "velocity": 96
    },
    {
      "pitch": 63,
      "start_time": 14.0,
      "duration": 0.7128,
      "velocity": 99
    },
    {
      "pitch": 75,
      "start_time": 14.25,
      "duration": 0.7128,
      "velocity": 99
    },
    {
      "pitch": 67,
      "start_time": 14.5,
      "duration": 0.5,
      "velocity": 88
    },
    {
      "pitch": 55,
      "start_time": 14.75,
      "duration": 0.25,
      "velocity": 100
    },
    {
      "pitch": 79,
      "start_time": 14.75,
      "duration": 0.5181,
      "velocity": 88
    },
    {
      "pitch": 63,
      "start_time": 15.0,
      "duration": 0.5854,
      "velocity": 102
    },
    {
      "pitch": 67,
      "start_time": 15.0,
      "duration": 0.25,
      "velocity": 100
    },
    {
      "pitch": 75,
      "start_time": 15.25,
      "duration": 0.5854,
      "velocity": 102
    },
    {
      "pitch": 67,
      "start_time": 15.5,
      "duration": 0.5566,
      "velocity": 97
    },
    {
      "pitch": 79,
      "start_time": 15.75,
      "duration": 0.5566,
      "velocity": 97
    }
  ]
}