{
  "source": {
    "song": "packs",
    "track_index": 0,
    "track_name": "Retro Synths / Clips / Phazeform Vol 1 / 160-Whapper",
    "slot_index": 0,
    "clip_name": "Retro Synths / Clips / Phazeform Vol 1 / 160-Whapper",
    "mid_file": "/Users/darnold/Music/Ableton/Packs/Retro Synths/Clips/Phazeform Vol 1/160-Whapper.alc"
  },
  "meta": {
    "bpm": 160.0,
    "key": "?",
    "scale": "?",
    "length_beats": 8.0,
    "note_count": 32
  },
  "rhythm": {
    "density": 1.75,
    "hit_positions": [
      0.0,
      0.25,
      0.5,
      0.75,
      1.0,
      1.25,
      1.5,
      1.75,
      2.0,
      2.25,
      2.5,
      3.0,
      3.25,
      3.5,
      3.75,
      4.0,
      4.25,
      4.5,
      4.75,
      5.0,
      5.25,
      5.5,
      5.5,
      5.75,
      5.75,
      5.75,
      6.0,
      6.0,
      6.25,
      6.5,
      6.75,
      7.0
    ],
    "ioi": [
      0.25,
      0.25,
      0.25,
      0.25,
      0.25,
      0.25,
      0.25,
      0.25,
      0.25,
      0.25,
      0.5,
      0.25,
      0.25,
      0.25,
      0.25,
      0.25,
      0.25,
      0.25,
      0.25,
      0.25,
      0.25,
      0.0,
      0.25,
      0.0,
      0.0,
      0.25,
      0.0,
      0.25,
      0.25,
      0.25,
      0.25,
      1.0
    ],
    "grid": "8th",
    "euclidean_approx": [
      32,
      32
    ],
    "swing_ratio": 1.0
  },
  "pitch": {
    "notes_used": [
      48,
      50,
      51,
      52,
      53,
      54
    ],
    "intervals": [
      2,
      0,
      0,
      0,
      4,
      0,
      0,
      6,
      0,
      0,
      2,
      0,
      0,
      2,
      0,
      3,
      0,
      0,
      0,
      2,
      1,
      1,
      5,
      4,
      1,
      5,
      4,
      4,
      2,
      0,
      0
    ],
    "register": "mid",
    "is_melodic": true,
    "pitch_range": 6,
    "pitch_distribution": {
      "48": 9,
      "50": 10,
      "54": 3,
      "51": 4,
      "53": 3,
      "52": 3
    }
  },
  "velocity": {
    "mean": 51.8,
    "variance": 404.2,
    "std": 20.1,
    "accents": [
      0,
      4,
      10,
      13,
      15,
      19,
      28,
      31
    ],
    "profile": [
      88,
      25,
      36,
      57,
      80,
      25,
      40,
      57,
      36,
      57,
      80,
      36,
      57,
      80,
      57,
      80,
      25,
      36,
      57,
      80,
      29,
      29,
      29,
      57,
      29,
      42,
      57,
      42,
      80,
      36,
      57,
      80
    ]
  },
  "notes": [
    {
      "pitch": 48,
      "start_time": 0.0,
      "duration": 0.25,
      "velocity": 88
    },
    {
      "pitch": 50,
      "start_time": 0.25,
      "duration": 0.25,
      "velocity": 25
    },
    {
      "pitch": 50,
      "start_time": 0.5,
      "duration": 0.25,
      "velocity": 36
    },
    {
      "pitch": 50,
      "start_time": 0.75,
      "duration": 0.25,
      "velocity": 57
    },
    {
      "pitch": 50,
      "start_time": 1.0,
      "duration": 0.25,
      "velocity": 80
    },
    {
      "pitch": 54,
      "start_time": 1.25,
      "duration": 0.25,
      "velocity": 25
    },
    {
      "pitch": 54,
      "start_time": 1.5,
      "duration": 0.25,
      "velocity": 40
    },
    {
      "pitch": 54,
      "start_time": 1.75,
      "duration": 0.25,
      "velocity": 57
    },
    {
      "pitch": 48,
      "start_time": 2.0,
      "duration": 0.25,
      "velocity": 36
    },
    {
      "pitch": 48,
      "start_time": 2.25,
      "duration": 0.25,
      "velocity": 57
    },
    {
      "pitch": 48,
      "start_time": 2.5,
      "duration": 0.25,
      "velocity": 80
    },
    {
      "pitch": 50,
      "start_time": 3.0,
      "duration": 0.25,
      "velocity": 36
    },
    {
      "pitch": 50,
      "start_time": 3.25,
      "duration": 0.25,
      "velocity": 57
    },
    {
      "pitch": 50,
      "start_time": 3.5,
      "duration": 0.25,
      "velocity": 80
    },
    {
      "pitch": 48,
      "start_time": 3.75,
      "duration": 0.25,
      "velocity": 57
    },
    {
      "pitch": 48,
      "start_time": 4.0,
      "duration": 0.25,
      "velocity": 80
    },
    {
      "pitch": 51,
      "start_time": 4.25,
      "duration": 0.25,
      "velocity": 25
    },
    {
      "pitch": 51,
      "start_time": 4.5,
      "duration": 0.25,
      "velocity": 36
    },
    {
      "pitch": 51,
      "start_time": 4.75,
      "duration": 0.25,
      "velocity": 57
    },
    {
      "pitch": 51,
      "start_time": 5.0,
      "duration": 0.25,
      "velocity": 80
    },
    {
      "pitch": 53,
      "start_time": 5.25,
      "duration": 0.25,
      "velocity": 29
    },
    {
      "pitch": 52,
      "start_time": 5.5,
      "duration": 0.25,
      "velocity": 29
    },
    {
      "pitch": 53,
      "start_time": 5.5,
      "duration": 0.25,
      "velocity": 29
    },
    {
      "pitch": 48,
      "start_time": 5.75,
      "duration": 0.25,
      "velocity": 57
    },
    {
      "pitch": 52,
      "start_time": 5.75,
      "duration": 0.25,
      "velocity": 29
    },
    {
      "pitch": 53,
      "start_time": 5.75,
      "duration": 0.25,
      "velocity": 42
    },
    {
      "pitch": 48,
      "start_time": 6.0,
      "duration": 0.25,
      "velocity": 57
    },
    {
      "pitch": 52,
      "start_time": 6.0,
      "duration": 0.25,
      "velocity": 42
    },
    {
      "pitch": 48,
      "start_time": 6.25,
      "duration": 0.25,
      "velocity": 80
    },
    {
      "pitch": 50,
      "start_time": 6.5,
      "duration": 0.25,
      "velocity": 36
    },
    {
      "pitch": 50,
      "start_time": 6.75,
      "duration": 0.25,
      "velocity": 57
    },
    {
      "pitch": 50,
      "start_time": 7.0,
      "duration": 0.25,
      "velocity": 80
    }
  ]
}