{
  "source": {
    "song": "packs",
    "track_index": 0,
    "track_name": "Retro Synths / Clips / TeeBee / Ribeye",
    "slot_index": 0,
    "clip_name": "Retro Synths / Clips / TeeBee / Ribeye",
    "mid_file": "/Users/darnold/Music/Ableton/Packs/Retro Synths/Clips/TeeBee/Ribeye.alc"
  },
  "meta": {
    "bpm": 115.0,
    "key": "?",
    "scale": "?",
    "length_beats": 16.0,
    "note_count": 40
  },
  "rhythm": {
    "density": 1.25,
    "hit_positions": [
      0.0,
      0.5,
      0.75,
      1.0,
      1.5,
      1.75,
      2.0,
      2.5,
      2.75,
      3.0,
      3.25,
      3.5,
      3.75,
      4.0,
      5.0,
      5.5,
      5.75,
      6.5,
      7.0,
      7.5,
      8.0,
      8.5,
      8.75,
      9.0,
      9.5,
      9.75,
      10.0,
      10.5,
      10.75,
      11.0,
      11.25,
      11.5,
      11.75,
      12.0,
      13.0,
      13.5,
      13.75,
      14.5,
      15.0,
      15.5
    ],
    "ioi": [
      0.5,
      0.25,
      0.25,
      0.5,
      0.25,
      0.25,
      0.5,
      0.25,
      0.25,
      0.25,
      0.25,
      0.25,
      0.25,
      1.0,
      0.5,
      0.25,
      0.75,
      0.5,
      0.5,
      0.5,
      0.5,
      0.25,
      0.25,
      0.5,
      0.25,
      0.25,
      0.5,
      0.25,
      0.25,
      0.25,
      0.25,
      0.25,
      0.25,
      1.0,
      0.5,
      0.25,
      0.75,
      0.5,
      0.5,
      0.5
    ],
    "grid": "8th",
    "euclidean_approx": [
      40,
      64
    ],
    "swing_ratio": 1.0
  },
  "pitch": {
    "notes_used": [
      57,
      59,
      72,
      74,
      76
    ],
    "intervals": [
      15,
      0,
      0,
      13,
      0,
      13,
      15,
      0,
      17,
      2,
      2,
      0,
      17,
      15,
      0,
      0,
      0,
      15,
      2,
      2,
      15,
      0,
      0,
      13,
      0,
      13,
      15,
      0,
      17,
      0,
      0,
      0,
      17,
      15,
      2,
      0,
      0,
      15,
      17
    ],
    "register": "high",
    "is_melodic": true,
    "pitch_range": 19,
    "pitch_distribution": {
      "57": 9,
      "72": 13,
      "59": 6,
      "74": 10,
      "76": 2
    }
  },
  "velocity": {
    "mean": 99.0,
    "variance": 41.0,
    "std": 6.4,
    "accents": [],
    "profile": [
      100,
      100,
      100,
      100,
      100,
      100,
      100,
      100,
      100,
      100,
      100,
      100,
      100,
      100,
      100,
      100,
      100,
      100,
      100,
      100,
      100,
      100,
      100,
      100,
      100,
      100,
      100,
      100,
      100,
      100,
      100,
      59,
      100,
      100,
      100,
      100,
      100,
      100,
      100,
      100
    ]
  },
  "notes": [
    {
      "pitch": 57,
      "start_time": 0.0,
      "duration": 0.5,
      "velocity": 100
    },
    {
      "pitch": 72,
      "start_time": 0.5,
      "duration": 0.125,
      "velocity": 100
    },
    {
      "pitch": 72,
      "start_time": 0.75,
      "duration": 0.125,
      "velocity": 100
    },
    {
      "pitch": 72,
      "start_time": 1.0,
      "duration": 0.5,
      "velocity": 100
    },
    {
      "pitch": 59,
      "start_time": 1.5,
      "duration": 0.125,
      "velocity": 100
    },
    {
      "pitch": 59,
      "start_time": 1.75,
      "duration": 0.125,
      "velocity": 100
    },
    {
      "pitch": 72,
      "start_time": 2.0,
      "duration": 0.5,
      "velocity": 100
    },
    {
      "pitch": 57,
      "start_time": 2.5,
      "duration": 0.125,
      "velocity": 100
    },
    {
      "pitch": 57,
      "start_time": 2.75,
      "duration": 0.125,
      "velocity": 100
    },
    {
      "pitch": 74,
      "start_time": 3.0,
      "duration": 0.125,
      "velocity": 100
    },
    {
      "pitch": 76,
      "start_time": 3.25,
      "duration": 0.125,
      "velocity": 100
    },
    {
      "pitch": 74,
      "start_time": 3.5,
      "duration": 0.125,
      "velocity": 100
    },
    {
      "pitch": 74,
      "start_time": 3.75,
      "duration": 0.5,
      "velocity": 100
    },
    {
      "pitch": 57,
      "start_time": 4.0,
      "duration": 1.0,
      "velocity": 100
    },
    {
      "pitch": 72,
      "start_time": 5.0,
      "duration": 0.25,
      "velocity": 100
    },
    {
      "pitch": 72,
      "start_time": 5.5,
      "duration": 0.125,
      "velocity": 100
    },
    {
      "pitch": 72,
      "start_time": 5.75,
      "duration": 0.625,
      "velocity": 100
    },
    {
      "pitch": 72,
      "start_time": 6.5,
      "duration": 0.25,
      "velocity": 100
    },
    {
      "pitch": 57,
      "start_time": 7.0,
      "duration": 0.375,
      "velocity": 100
    },
    {
      "pitch": 59,
      "start_time": 7.5,
      "duration": 0.375,
      "velocity": 100
    },
    {
      "pitch": 57,
      "start_time": 8.0,
      "duration": 0.5,
      "velocity": 100
    },
    {
      "pitch": 72,
      "start_time": 8.5,
      "duration": 0.125,
      "velocity": 100
    },
    {
      "pitch": 72,
      "start_time": 8.75,
      "duration": 0.125,
      "velocity": 100
    },
    {
      "pitch": 72,
      "start_time": 9.0,
      "duration": 0.5,
      "velocity": 100
    },
    {
      "pitch": 59,
      "start_time": 9.5,
      "duration": 0.125,
      "velocity": 100
    },
    {
      "pitch": 59,
      "start_time": 9.75,
      "duration": 0.125,
      "velocity": 100
    },
    {
      "pitch": 72,
      "start_time": 10.0,
      "duration": 0.5,
      "velocity": 100
    },
    {
      "pitch": 57,
      "start_time": 10.5,
      "duration": 0.125,
      "velocity": 100
    },
    {
      "pitch": 57,
      "start_time": 10.75,
      "duration": 0.125,
      "velocity": 100
    },
    {
      "pitch": 74,
      "start_time": 11.0,
      "duration": 0.125,
      "velocity": 100
    },
    {
      "pitch": 74,
      "start_time": 11.25,
      "duration": 0.125,
      "velocity": 100
    },
    {
      "pitch": 74,
      "start_time": 11.5,
      "duration": 0.125,
      "velocity": 59
    },
    {
      "pitch": 74,
      "start_time": 11.75,
      "duration": 0.625,
      "velocity": 100
    },
    {
      "pitch": 57,
      "start_time": 12.0,
      "duration": 1.0,
      "velocity": 100
    },
    {
      "pitch": 72,
      "start_time": 13.0,
      "duration": 0.25,
      "velocity": 100
    },
    {
      "pitch": 74,
      "start_time": 13.5,
      "duration": 0.125,
      "velocity": 100
    },
    {
      "pitch": 74,
      "start_time": 13.75,
      "duration": 0.625,
      "velocity": 100
    },
    {
      "pitch": 74,
      "start_time": 14.5,
      "duration": 0.25,
      "velocity": 100
    },
    {
      "pitch": 59,
      "start_time": 15.0,
      "duration": 0.625,
      "velocity": 100
    },
    {
      "pitch": 76,
      "start_time": 15.5,
      "duration": 0.5,
      "velocity": 100
    }
  ]
}