{
  "source": {
    "song": "packs",
    "track_index": 0,
    "track_name": "Retro Synths / Clips / Phazeform Vol 1 / 110-Segund",
    "slot_index": 0,
    "clip_name": "Retro Synths / Clips / Phazeform Vol 1 / 110-Segund",
    "mid_file": "/Users/darnold/Music/Ableton/Packs/Retro Synths/Clips/Phazeform Vol 1/110-Segund.alc"
  },
  "meta": {
    "bpm": 110.0,
    "key": "?",
    "scale": "?",
    "length_beats": 8.0,
    "note_count": 42
  },
  "rhythm": {
    "density": 0.719,
    "hit_positions": [
      0.0,
      0.0,
      0.25,
      0.25,
      0.5,
      0.75,
      0.75,
      1.0,
      1.5,
      1.75,
      1.75,
      2.0,
      2.5,
      3.0,
      3.0,
      3.0,
      3.5,
      3.75,
      3.75,
      4.0,
      4.0,
      4.5,
      4.5,
      4.5,
      4.5,
      4.5,
      5.0,
      5.5,
      6.0,
      6.5,
      6.75,
      6.75,
      6.875,
      6.875,
      7.0,
      7.25,
      7.25,
      7.25,
      7.5,
      7.5,
      7.5,
      7.5
    ],
    "ioi": [
      0.0,
      0.25,
      0.0,
      0.25,
      0.25,
      0.0,
      0.25,
      0.5,
      0.25,
      0.0,
      0.25,
      0.5,
      0.5,
      0.0,
      0.0,
      0.5,
      0.25,
      0.0,
      0.25,
      0.0,
      0.5,
      0.0,
      0.0,
      0.0,
      0.0,
      0.5,
      0.5,
      0.5,
      0.5,
      0.25,
      0.0,
      0.125,
      0.0,
      0.125,
      0.25,
      0.0,
      0.0,
      0.25,
      0.0,
      0.0,
      0.0,
      0.5
    ],
    "grid": "16th",
    "euclidean_approx": [
      32,
      32
    ],
    "swing_ratio": 1.067
  },
  "pitch": {
    "notes_used": [
      48,
      49,
      50,
      51,
      52,
      53,
      54,
      56
    ],
    "intervals": [
      8,
      5,
      2,
      1,
      4,
      2,
      4,
      6,
      4,
      2,
      4,
      6,
      6,
      3,
      2,
      1,
      4,
      2,
      4,
      1,
      1,
      1,
      1,
      1,
      1,
      6,
      6,
      6,
      6,
      4,
      2,
      2,
      2,
      4,
      1,
      1,
      2,
      3,
      1,
      2,
      2
    ],
    "register": "mid",
    "is_melodic": true,
    "pitch_range": 8,
    "pitch_distribution": {
      "48": 8,
      "56": 1,
      "51": 3,
      "53": 3,
      "54": 8,
      "50": 8,
      "52": 8,
      "49": 3
    }
  },
  "velocity": {
    "mean": 66.8,
    "variance": 544.8,
    "std": 23.3,
    "accents": [
      5,
      9,
      17,
      21,
      30,
      32,
      39
    ],
    "profile": [
      88,
      33,
      57,
      87,
      33,
      94,
      67,
      88,
      33,
      94,
      67,
      88,
      33,
      88,
      57,
      87,
      33,
      94,
      67,
      88,
      54,
      94,
      57,
      67,
      87,
      33,
      88,
      33,
      88,
      33,
      94,
      67,
      94,
      67,
      88,
      36,
      51,
      36,
      67,
      94,
      67,
      33
    ]
  },
  "notes": [
    {
      "pitch": 48,
      "start_time": 0.0,
      "duration": 0.25,
      "velocity": 88
    },
    {
      "pitch": 56,
      "start_time": 0.0,
      "duration": 0.25,
      "velocity": 33
    },
    {
      "pitch": 51,
      "start_time": 0.25,
      "duration": 0.25,
      "velocity": 57
    },
    {
      "pitch": 53,
      "start_time": 0.25,
      "duration": 0.25,
      "velocity": 87
    },
    {
      "pitch": 54,
      "start_time": 0.5,
      "duration": 0.25,
      "velocity": 33
    },
    {
      "pitch": 50,
      "start_time": 0.75,
      "duration": 0.25,
      "velocity": 94
    },
    {
      "pitch": 52,
      "start_time": 0.75,
      "duration": 0.25,
      "velocity": 67
    },
    {
      "pitch": 48,
      "start_time": 1.0,
      "duration": 0.25,
      "velocity": 88
    },
    {
      "pitch": 54,
      "start_time": 1.5,
      "duration": 0.25,
      "velocity": 33
    },
    {
      "pitch": 50,
      "start_time": 1.75,
      "duration": 0.25,
      "velocity": 94
    },
    {
      "pitch": 52,
      "start_time": 1.75,
      "duration": 0.25,
      "velocity": 67
    },
    {
      "pitch": 48,
      "start_time": 2.0,
      "duration": 0.25,
      "velocity": 88
    },
    {
      "pitch": 54,
      "start_time": 2.5,
      "duration": 0.25,
      "velocity": 33
    },
    {
      "pitch": 48,
      "start_time": 3.0,
      "duration": 0.25,
      "velocity": 88
    },
    {
      "pitch": 51,
      "start_time": 3.0,
      "duration": 0.25,
      "velocity": 57
    },
    {
      "pitch": 53,
      "start_time": 3.0,
      "duration": 0.25,
      "velocity": 87
    },
    {
      "pitch": 54,
      "start_time": 3.5,
      "duration": 0.25,
      "velocity": 33
    },
    {
      "pitch": 50,
      "start_time": 3.75,
      "duration": 0.25,
      "velocity": 94
    },
    {
      "pitch": 52,
      "start_time": 3.75,
      "duration": 0.25,
      "velocity": 67
    },
    {
      "pitch": 48,
      "start_time": 4.0,
      "duration": 0.25,
      "velocity": 88
    },
    {
      "pitch": 49,
      "start_time": 4.0,
      "duration": 0.25,
      "velocity": 54
    },
    {
      "pitch": 50,
      "start_time": 4.5,
      "duration": 0.25,
      "velocity": 94
    },
    {
      "pitch": 51,
      "start_time": 4.5,
      "duration": 0.25,
      "velocity": 57
    },
    {
      "pitch": 52,
      "start_time": 4.5,
      "duration": 0.25,
      "velocity": 67
    },
    {
      "pitch": 53,
      "start_time": 4.5,
      "duration": 0.25,
      "velocity": 87
    },
    {
      "pitch": 54,
      "start_time": 4.5,
      "duration": 0.25,
      "velocity": 33
    },
    {
      "pitch": 48,
      "start_time": 5.0,
      "duration": 0.25,
      "velocity": 88
    },
    {
      "pitch": 54,
      "start_time": 5.5,
      "duration": 0.25,
      "velocity": 33
    },
    {
      "pitch": 48,
      "start_time": 6.0,
      "duration": 0.25,
      "velocity": 88
    },
    {
      "pitch": 54,
      "start_time": 6.5,
      "duration": 0.25,
      "velocity": 33
    },
    {
      "pitch": 50,
      "start_time": 6.75,
      "duration": 0.125,
      "velocity": 94
    },
    {
      "pitch": 52,
      "start_time": 6.75,
      "duration": 0.125,
      "velocity": 67
    },
    {
      "pitch": 50,
      "start_time": 6.875,
      "duration": 0.125,
      "velocity": 94
    },
    {
      "pitch": 52,
      "start_time": 6.875,
      "duration": 0.125,
      "velocity": 67
    },
    {
      "pitch": 48,
      "start_time": 7.0,
      "duration": 0.25,
      "velocity": 88
    },
    {
      "pitch": 49,
      "start_time": 7.25,
      "duration": 0.125,
      "velocity": 36
    },
    {
      "pitch": 50,
      "start_time": 7.25,
      "duration": 0.125,
      "velocity": 51
    },
    {
      "pitch": 52,
      "start_time": 7.25,
      "duration": 0.125,
      "velocity": 36
    },
    {
      "pitch": 49,
      "start_time": 7.5,
      "duration": 0.125,
      "velocity": 67
    },
    {
      "pitch": 50,
      "start_time": 7.5,
      "duration": 0.125,
      "velocity": 94
    },
    {
      "pitch": 52,
      "start_time": 7.5,
      "duration": 0.125,
      "velocity": 67
    },
    {
      "pitch": 54,
      "start_time": 7.5,
      "duration": 0.25,
      "velocity": 33
    }
  ]
}