{
  "source": {
    "song": "packs",
    "track_index": 0,
    "track_name": "Retro Synths / Clips / Phazeform Vol 1 / 100-Woodpeckrz",
    "slot_index": 0,
    "clip_name": "Retro Synths / Clips / Phazeform Vol 1 / 100-Woodpeckrz",
    "mid_file": "/Users/darnold/Music/Ableton/Packs/Retro Synths/Clips/Phazeform Vol 1/100-Woodpeckrz.alc"
  },
  "meta": {
    "bpm": 100.0,
    "key": "?",
    "scale": "?",
    "length_beats": 8.0,
    "note_count": 68
  },
  "rhythm": {
    "density": 2.0,
    "hit_positions": [
      0.0,
      0.125,
      0.25,
      0.375,
      0.5,
      0.625,
      0.75,
      0.875,
      1.0,
      1.0,
      1.125,
      1.25,
      1.375,
      1.5,
      1.625,
      1.75,
      1.875,
      2.0,
      2.125,
      2.25,
      2.375,
      2.5,
      2.625,
      2.75,
      2.875,
      3.0,
      3.0,
      3.125,
      3.25,
      3.375,
      3.5,
      3.625,
      3.75,
      3.875,
      4.0,
      4.125,
      4.25,
      4.375,
      4.5,
      4.625,
      4.75,
      4.875,
      5.0,
      5.0,
      5.125,
      5.25,
      5.375,
      5.5,
      5.625,
      5.75,
      5.875,
      6.0,
      6.125,
      6.25,
      6.375,
      6.5,
      6.625,
      6.75,
      6.875,
      7.0,
      7.0,
      7.125,
      7.25,
      7.375,
      7.5,
      7.625,
      7.75,
      7.875
    ],
    "ioi": [
      0.125,
      0.125,
      0.125,
      0.125,
      0.125,
      0.125,
      0.125,
      0.125,
      0.0,
      0.125,
      0.125,
      0.125,
      0.125,
      0.125,
      0.125,
      0.125,
      0.125,
      0.125,
      0.125,
      0.125,
      0.125,
      0.125,
      0.125,
      0.125,
      0.125,
      0.0,
      0.125,
      0.125,
      0.125,
      0.125,
      0.125,
      0.125,
      0.125,
      0.125,
      0.125,
      0.125,
      0.125,
      0.125,
      0.125,
      0.125,
      0.125,
      0.125,
      0.0,
      0.125,
      0.125,
      0.125,
      0.125,
      0.125,
      0.125,
      0.125,
      0.125,
      0.125,
      0.125,
      0.125,
      0.125,
      0.125,
      0.125,
      0.125,
      0.125,
      0.0,
      0.125,
      0.125,
      0.125,
      0.125,
      0.125,
      0.125,
      0.125,
      0.125
    ],
    "grid": "16th",
    "euclidean_approx": [
      32,
      32
    ],
    "swing_ratio": 1.25
  },
  "pitch": {
    "notes_used": [
      48,
      49,
      50,
      51,
      52,
      53,
      54,
      55
    ],
    "intervals": [
      6,
      0,
      0,
      0,
      4,
      0,
      0,
      0,
      1,
      2,
      0,
      0,
      0,
      5,
      0,
      0,
      0,
      6,
      0,
      0,
      0,
      4,
      0,
      0,
      0,
      1,
      1,
      0,
      0,
      0,
      4,
      0,
      0,
      0,
      6,
      0,
      0,
      0,
      4,
      0,
      0,
      0,
      1,
      4,
      0,
      0,
      0,
      7,
      0,
      0,
      0,
      6,
      0,
      0,
      0,
      4,
      0,
      0,
      0,
      1,
      2,
      0,
      0,
      0,
      1,
      0,
      0
    ],
    "register": "mid",
    "is_melodic": true,
    "pitch_range": 7,
    "pitch_distribution": {
      "48": 16,
      "54": 16,
      "50": 16,
      "51": 4,
      "53": 4,
      "52": 4,
      "55": 4,
      "49": 4
    }
  },
  "velocity": {
    "mean": 51.9,
    "variance": 1273.2,
    "std": 35.7,
    "accents": [
      0,
      4,
      8,
      17,
      21,
      25,
      34,
      38,
      42,
      51,
      55,
      59
    ],
    "profile": [
      116,
      15,
      35,
      68,
      116,
      15,
      35,
      68,
      116,
      60,
      7,
      18,
      35,
      61,
      15,
      35,
      68,
      116,
      15,
      35,
      68,
      116,
      15,
      35,
      68,
      116,
      60,
      7,
      18,
      35,
      61,
      15,
      35,
      68,
      116,
      15,
      35,
      68,
      116,
      15,
      35,
      68,
      116,
      60,
      7,
      18,
      35,
      61,
      15,
      35,
      68,
      116,
      15,
      35,
      68,
      116,
      15,
      35,
      68,
      116,
      60,
      7,
      18,
      35,
      61,
      15,
      35,
      68
    ]
  },
  "notes": [
    {
      "pitch": 48,
      "start_time": 0.0,
      "duration": 0.125,
      "velocity": 116
    },
    {
      "pitch": 54,
      "start_time": 0.125,
      "duration": 0.125,
      "velocity": 15
    },
    {
      "pitch": 54,
      "start_time": 0.25,
      "duration": 0.125,
      "velocity": 35
    },
    {
      "pitch": 54,
      "start_time": 0.375,
      "duration": 0.125,
      "velocity": 68
    },
    {
      "pitch": 54,
      "start_time": 0.5,
      "duration": 0.125,
      "velocity": 116
    },
    {
      "pitch": 50,
      "start_time": 0.625,
      "duration": 0.125,
      "velocity": 15
    },
    {
      "pitch": 50,
      "start_time": 0.75,
      "duration": 0.125,
      "velocity": 35
    },
    {
      "pitch": 50,
      "start_time": 0.875,
      "duration": 0.125,
      "velocity": 68
    },
    {
      "pitch": 50,
      "start_time": 1.0,
      "duration": 0.125,
      "velocity": 116
    },
    {
      "pitch": 51,
      "start_time": 1.0,
      "duration": 0.125,
      "velocity": 60
    },
    {
      "pitch": 53,
      "start_time": 1.125,
      "duration": 0.125,
      "velocity": 7
    },
    {
      "pitch": 53,
      "start_time": 1.25,
      "duration": 0.125,
      "velocity": 18
    },
    {
      "pitch": 53,
      "start_time": 1.375,
      "duration": 0.125,
      "velocity": 35
    },
    {
      "pitch": 53,
      "start_time": 1.5,
      "duration": 0.125,
      "velocity": 61
    },
    {
      "pitch": 48,
      "start_time": 1.625,
      "duration": 0.125,
      "velocity": 15
    },
    {
      "pitch": 48,
      "start_time": 1.75,
      "duration": 0.125,
      "velocity": 35
    },
    {
      "pitch": 48,
      "start_time": 1.875,
      "duration": 0.125,
      "velocity": 68
    },
    {
      "pitch": 48,
      "start_time": 2.0,
      "duration": 0.125,
      "velocity": 116
    },
    {
      "pitch": 54,
      "start_time": 2.125,
      "duration": 0.125,
      "velocity": 15
    },
    {
      "pitch": 54,
      "start_time": 2.25,
      "duration": 0.125,
      "velocity": 35
    },
    {
      "pitch": 54,
      "start_time": 2.375,
      "duration": 0.125,
      "velocity": 68
    },
    {
      "pitch": 54,
      "start_time": 2.5,
      "duration": 0.125,
      "velocity": 116
    },
    {
      "pitch": 50,
      "start_time": 2.625,
      "duration": 0.125,
      "velocity": 15
    },
    {
      "pitch": 50,
      "start_time": 2.75,
      "duration": 0.125,
      "velocity": 35
    },
    {
      "pitch": 50,
      "start_time": 2.875,
      "duration": 0.125,
      "velocity": 68
    },
    {
      "pitch": 50,
      "start_time": 3.0,
      "duration": 0.125,
      "velocity": 116
    },
    {
      "pitch": 51,
      "start_time": 3.0,
      "duration": 0.125,
      "velocity": 60
    },
    {
      "pitch": 52,
      "start_time": 3.125,
      "duration": 0.125,
      "velocity": 7
    },
    {
      "pitch": 52,
      "start_time": 3.25,
      "duration": 0.125,
      "velocity": 18
    },
    {
      "pitch": 52,
      "start_time": 3.375,
      "duration": 0.125,
      "velocity": 35
    },
    {
      "pitch": 52,
      "start_time": 3.5,
      "duration": 0.125,
      "velocity": 61
    },
    {
      "pitch": 48,
      "start_time": 3.625,
      "duration": 0.125,
      "velocity": 15
    },
    {
      "pitch": 48,
      "start_time": 3.75,
      "duration": 0.125,
      "velocity": 35
    },
    {
      "pitch": 48,
      "start_time": 3.875,
      "duration": 0.125,
      "velocity": 68
    },
    {
      "pitch": 48,
      "start_time": 4.0,
      "duration": 0.125,
      "velocity": 116
    },
    {
      "pitch": 54,
      "start_time": 4.125,
      "duration": 0.125,
      "velocity": 15
    },
    {
      "pitch": 54,
      "start_time": 4.25,
      "duration": 0.125,
      "velocity": 35
    },
    {
      "pitch": 54,
      "start_time": 4.375,
      "duration": 0.125,
      "velocity": 68
    },
    {
      "pitch": 54,
      "start_time": 4.5,
      "duration": 0.125,
      "velocity": 116
    },
    {
      "pitch": 50,
      "start_time": 4.625,
      "duration": 0.125,
      "velocity": 15
    },
    {
      "pitch": 50,
      "start_time": 4.75,
      "duration": 0.125,
      "velocity": 35
    },
    {
      "pitch": 50,
      "start_time": 4.875,
      "duration": 0.125,
      "velocity": 68
    },
    {
      "pitch": 50,
      "start_time": 5.0,
      "duration": 0.125,
      "velocity": 116
    },
    {
      "pitch": 51,
      "start_time": 5.0,
      "duration": 0.125,
      "velocity": 60
    },
    {
      "pitch": 55,
      "start_time": 5.125,
      "duration": 0.125,
      "velocity": 7
    },
    {
      "pitch": 55,
      "start_time": 5.25,
      "duration": 0.125,
      "velocity": 18
    },
    {
      "pitch": 55,
      "start_time": 5.375,
      "duration": 0.125,
      "velocity": 35
    },
    {
      "pitch": 55,
      "start_time": 5.5,
      "duration": 0.125,
      "velocity": 61
    },
    {
      "pitch": 48,
      "start_time": 5.625,
      "duration": 0.125,
      "velocity": 15
    },
    {
      "pitch": 48,
      "start_time": 5.75,
      "duration": 0.125,
      "velocity": 35
    },
    {
      "pitch": 48,
      "start_time": 5.875,
      "duration": 0.125,
      "velocity": 68
    },
    {
      "pitch": 48,
      "start_time": 6.0,
      "duration": 0.125,
      "velocity": 116
    },
    {
      "pitch": 54,
      "start_time": 6.125,
      "duration": 0.125,
      "velocity": 15
    },
    {
      "pitch": 54,
      "start_time": 6.25,
      "duration": 0.125,
      "velocity": 35
    },
    {
      "pitch": 54,
      "start_time": 6.375,
      "duration": 0.125,
      "velocity": 68
    },
    {
      "pitch": 54,
      "start_time": 6.5,
      "duration": 0.125,
      "velocity": 116
    },
    {
      "pitch": 50,
      "start_time": 6.625,
      "duration": 0.125,
      "velocity": 15
    },
    {
      "pitch": 50,
      "start_time": 6.75,
      "duration": 0.125,
      "velocity": 35
    },
    {
      "pitch": 50,
      "start_time": 6.875,
      "duration": 0.125,
      "velocity": 68
    },
    {
      "pitch": 50,
      "start_time": 7.0,
      "duration": 0.125,
      "velocity": 116
    },
    {
      "pitch": 51,
      "start_time": 7.0,
      "duration": 0.125,
      "velocity": 60
    },
    {
      "pitch": 49,
      "start_time": 7.125,
      "duration": 0.125,
      "velocity": 7
    },
    {
      "pitch": 49,
      "start_time": 7.25,
      "duration": 0.125,
      "velocity": 18
    },
    {
      "pitch": 49,
      "start_time": 7.375,
      "duration": 0.125,
      "velocity": 35
    },
    {
      "pitch": 49,
      "start_time": 7.5,
      "duration": 0.125,
      "velocity": 61
    },
    {
      "pitch": 48,
      "start_time": 7.625,
      "duration": 0.125,
      "velocity": 15
    },
    {
      "pitch": 48,
      "start_time": 7.75,
      "duration": 0.125,
      "velocity": 35
    },
    {
      "pitch": 48,
      "start_time": 7.875,
      "duration": 0.125,
      "velocity": 68
    }
  ]
}