{
  "source": {
    "song": "packs",
    "track_index": 0,
    "track_name": "Retro Synths / Clips / TeeBee / Haydn",
    "slot_index": 0,
    "clip_name": "Retro Synths / Clips / TeeBee / Haydn",
    "mid_file": "/Users/darnold/Music/Ableton/Packs/Retro Synths/Clips/TeeBee/Haydn.alc"
  },
  "meta": {
    "bpm": 115.0,
    "key": "?",
    "scale": "?",
    "length_beats": 8.0,
    "note_count": 62
  },
  "rhythm": {
    "density": 1.938,
    "hit_positions": [
      0.0,
      0.25,
      0.5,
      0.75,
      1.0,
      1.25,
      1.5,
      1.75,
      2.0,
      2.25,
      2.5,
      2.75,
      3.0,
      3.25,
      3.5,
      3.75,
      4.0,
      4.25,
      4.5,
      4.75,
      5.0,
      5.25,
      5.5,
      5.75,
      6.0,
      6.25,
      6.5,
      6.75,
      7.0,
      7.25,
      7.5,
      8.0,
      8.25,
      8.5,
      8.75,
      9.0,
      9.25,
      9.5,
      9.75,
      10.0,
      10.25,
      10.5,
      10.75,
      11.0,
      11.25,
      11.5,
      11.75,
      12.0,
      12.25,
      12.5,
      12.75,
      13.0,
      13.25,
      13.5,
      13.75,
      14.0,
      14.25,
      14.5,
      14.75,
      15.0,
      15.25,
      15.5
    ],
    "ioi": [
      0.25,
      0.25,
      0.25,
      0.25,
      0.25,
      0.25,
      0.25,
      0.25,
      0.25,
      0.25,
      0.25,
      0.25,
      0.25,
      0.25,
      0.25,
      0.25,
      0.25,
      0.25,
      0.25,
      0.25,
      0.25,
      0.25,
      0.25,
      0.25,
      0.25,
      0.25,
      0.25,
      0.25,
      0.25,
      0.25,
      0.5,
      0.25,
      0.25,
      0.25,
      0.25,
      0.25,
      0.25,
      0.25,
      0.25,
      0.25,
      0.25,
      0.25,
      0.25,
      0.25,
      0.25,
      0.25,
      0.25,
      0.25,
      0.25,
      0.25,
      0.25,
      0.25,
      0.25,
      0.25,
      0.25,
      0.25,
      0.25,
      0.25,
      0.25,
      0.25,
      0.25,
      -7.5
    ],
    "grid": "8th",
    "euclidean_approx": [
      32,
      32
    ],
    "swing_ratio": 1.0
  },
  "pitch": {
    "notes_used": [
      55,
      60,
      63,
      67,
      70,
      72,
      75
    ],
    "intervals": [
      5,
      5,
      0,
      8,
      8,
      0,
      5,
      0,
      0,
      3,
      3,
      0,
      7,
      7,
      10,
      10,
      0,
      3,
      3,
      0,
      7,
      7,
      0,
      10,
      10,
      0,
      12,
      9,
      12,
      12,
      8,
      5,
      5,
      0,
      8,
      8,
      0,
      5,
      0,
      0,
      3,
      3,
      0,
      7,
      7,
      10,
      10,
      0,
      3,
      4,
      0,
      0,
      7,
      0,
      10,
      10,
      0,
      7,
      4,
      9,
      17
    ],
    "register": "mid",
    "is_melodic": true,
    "pitch_range": 20,
    "pitch_distribution": {
      "55": 11,
      "60": 28,
      "63": 9,
      "67": 7,
      "70": 4,
      "72": 2,
      "75": 1
    }
  },
  "velocity": {
    "mean": 105.8,
    "variance": 170.4,
    "std": 13.1,
    "accents": [
      10,
      15,
      18,
      24,
      28,
      30,
      41,
      46,
      49,
      55,
      59,
      61
    ],
    "profile": [
      107,
      98,
      80,
      95,
      113,
      83,
      98,
      94,
      93,
      98,
      120,
      85,
      96,
      111,
      95,
      127,
      118,
      118,
      127,
      100,
      111,
      104,
      107,
      99,
      127,
      100,
      109,
      109,
      123,
      109,
      127,
      107,
      98,
      80,
      95,
      113,
      83,
      98,
      94,
      93,
      98,
      120,
      85,
      96,
      111,
      95,
      127,
      118,
      118,
      127,
      100,
      111,
      104,
      107,
      99,
      127,
      100,
      109,
      109,
      123,
      109,
      127
    ]
  },
  "notes": [
    {
      "pitch": 55,
      "start_time": 0.0,
      "duration": 0.1754,
      "velocity": 107
    },
    {
      "pitch": 60,
      "start_time": 0.25,
      "duration": 0.1834,
      "velocity": 98
    },
    {
      "pitch": 55,
      "start_time": 0.5,
      "duration": 0.118,
      "velocity": 80
    },
    {
      "pitch": 55,
      "start_time": 0.75,
      "duration": 0.1781,
      "velocity": 95
    },
    {
      "pitch": 63,
      "start_time": 1.0,
      "duration": 0.1886,
      "velocity": 113
    },
    {
      "pitch": 55,
      "start_time": 1.25,
      "duration": 0.1005,
      "velocity": 83
    },
    {
      "pitch": 55,
      "start_time": 1.5,
      "duration": 0.1506,
      "velocity": 98
    },
    {
      "pitch": 60,
      "start_time": 1.75,
      "duration": 0.1767,
      "velocity": 94
    },
    {
      "pitch": 60,
      "start_time": 2.0,
      "duration": 0.1136,
      "velocity": 93
    },
    {
      "pitch": 60,
      "start_time": 2.25,
      "duration": 0.1558,
      "velocity": 98
    },
    {
      "pitch": 63,
      "start_time": 2.5,
      "duration": 0.1626,
      "velocity": 120
    },
    {
      "pitch": 60,
      "start_time": 2.75,
      "duration": 0.0883,
      "velocity": 85
    },
    {
      "pitch": 60,
      "start_time": 3.0,
      "duration": 0.146,
      "velocity": 96
    },
    {
      "pitch": 67,
      "start_time": 3.25,
      "duration": 0.2118,
      "velocity": 111
    },
    {
      "pitch": 60,
      "start_time": 3.5,
      "duration": 0.1603,
      "velocity": 95
    },
    {
      "pitch": 70,
      "start_time": 3.75,
      "duration": 0.1406,
      "velocity": 127
    },
    {
      "pitch": 60,
      "start_time": 4.0,
      "duration": 0.0925,
      "velocity": 118
    },
    {
      "pitch": 60,
      "start_time": 4.25,
      "duration": 0.1683,
      "velocity": 118
    },
    {
      "pitch": 63,
      "start_time": 4.5,
      "duration": 0.1454,
      "velocity": 127
    },
    {
      "pitch": 60,
      "start_time": 4.75,
      "duration": 0.0924,
      "velocity": 100
    },
    {
      "pitch": 60,
      "start_time": 5.0,
      "duration": 0.1821,
      "velocity": 111
    },
    {
      "pitch": 67,
      "start_time": 5.25,
      "duration": 0.1989,
      "velocity": 104
    },
    {
      "pitch": 60,
      "start_time": 5.5,
      "duration": 0.106,
      "velocity": 107
    },
    {
      "pitch": 60,
      "start_time": 5.75,
      "duration": 0.1539,
      "velocity": 99
    },
    {
      "pitch": 70,
      "start_time": 6.0,
      "duration": 0.1656,
      "velocity": 127
    },
    {
      "pitch": 60,
      "start_time": 6.25,
      "duration": 0.0895,
      "velocity": 100
    },
    {
      "pitch": 60,
      "start_time": 6.5,
      "duration": 0.1448,
      "velocity": 109
    },
    {
      "pitch": 72,
      "start_time": 6.75,
      "duration": 0.2173,
      "velocity": 109
    },
    {
      "pitch": 63,
      "start_time": 7.0,
      "duration": 0.1232,
      "velocity": 123
    },
    {
      "pitch": 75,
      "start_time": 7.25,
      "duration": 0.2099,
      "velocity": 109
    },
    {
      "pitch": 63,
      "start_time": 7.5,
      "duration": 0.4097,
      "velocity": 127
    },
    {
      "pitch": 55,
      "start_time": 8.0,
      "duration": 0.1754,
      "velocity": 107
    },
    {
      "pitch": 60,
      "start_time": 8.25,
      "duration": 0.1834,
      "velocity": 98
    },
    {
      "pitch": 55,
      "start_time": 8.5,
      "duration": 0.118,
      "velocity": 80
    },
    {
      "pitch": 55,
      "start_time": 8.75,
      "duration": 0.1781,
      "velocity": 95
    },
    {
      "pitch": 63,
      "start_time": 9.0,
      "duration": 0.1886,
      "velocity": 113
    },
    {
      "pitch": 55,
      "start_time": 9.25,
      "duration": 0.1005,
      "velocity": 83
    },
    {
      "pitch": 55,
      "start_time": 9.5,
      "duration": 0.1506,
      "velocity": 98
    },
    {
      "pitch": 60,
      "start_time": 9.75,
      "duration": 0.1767,
      "velocity": 94
    },
    {
      "pitch": 60,
      "start_time": 10.0,
      "duration": 0.1136,
      "velocity": 93
    },
    {
      "pitch": 60,
      "start_time": 10.25,
      "duration": 0.1558,
      "velocity": 98
    },
    {
      "pitch": 63,
      "start_time": 10.5,
      "duration": 0.1626,
      "velocity": 120
    },
    {
      "pitch": 60,
      "start_time": 10.75,
      "duration": 0.0883,
      "velocity": 85
    },
    {
      "pitch": 60,
      "start_time": 11.0,
      "duration": 0.146,
      "velocity": 96
    },
    {
      "pitch": 67,
      "start_time": 11.25,
      "duration": 0.2118,
      "velocity": 111
    },
    {
      "pitch": 60,
      "start_time": 11.5,
      "duration": 0.1603,
      "velocity": 95
    },
    {
      "pitch": 70,
      "start_time": 11.75,
      "duration": 0.1406,
      "velocity": 127
    },
    {
      "pitch": 60,
      "start_time": 12.0,
      "duration": 0.0925,
      "velocity": 118
    },
    {
      "pitch": 60,
      "start_time": 12.25,
      "duration": 0.1683,
      "velocity": 118
    },
    {
      "pitch": 63,
      "start_time": 12.5,
      "duration": 0.1454,
      "velocity": 127
    },
    {
      "pitch": 67,
      "start_time": 12.75,
      "duration": 0.0924,
      "velocity": 100
    },
    {
      "pitch": 67,
      "start_time": 13.0,
      "duration": 0.1821,
      "velocity": 111
    },
    {
      "pitch": 67,
      "start_time": 13.25,
      "duration": 0.1989,
      "velocity": 104
    },
    {
      "pitch": 60,
      "start_time": 13.5,
      "duration": 0.106,
      "velocity": 107
    },
    {
      "pitch": 60,
      "start_time": 13.75,
      "duration": 0.1539,
      "velocity": 99
    },
    {
      "pitch": 70,
      "start_time": 14.0,
      "duration": 0.1656,
      "velocity": 127
    },
    {
      "pitch": 60,
      "start_time": 14.25,
      "duration": 0.0895,
      "velocity": 100
    },
    {
      "pitch": 60,
      "start_time": 14.5,
      "duration": 0.1448,
      "velocity": 109
    },
    {
      "pitch": 67,
      "start_time": 14.75,
      "duration": 0.2173,
      "velocity": 109
    },
    {
      "pitch": 63,
      "start_time": 15.0,
      "duration": 0.1232,
      "velocity": 123
    },
    {
      "pitch": 72,
      "start_time": 15.25,
      "duration": 0.2099,
      "velocity": 109
    },
    {
      "pitch": 55,
      "start_time": 15.5,
      "duration": 0.4097,
      "velocity": 127
    }
  ]
}