{
  "source": {
    "song": "packs",
    "track_index": 0,
    "track_name": "Retro Synths / Clips / TeeBee / Four Kicker",
    "slot_index": 0,
    "clip_name": "Retro Synths / Clips / TeeBee / Four Kicker",
    "mid_file": "/Users/darnold/Music/Ableton/Packs/Retro Synths/Clips/TeeBee/Four Kicker.alc"
  },
  "meta": {
    "bpm": 115.0,
    "key": "?",
    "scale": "?",
    "length_beats": 8.0,
    "note_count": 26
  },
  "rhythm": {
    "density": 1.562,
    "hit_positions": [
      0.0,
      0.25,
      0.5,
      0.75,
      1.0,
      1.25,
      1.5,
      2.0,
      2.25,
      2.5,
      3.0,
      3.25,
      3.5,
      3.75,
      4.0,
      4.25,
      4.5,
      5.0,
      5.0,
      5.75,
      6.0,
      6.5,
      7.0,
      7.25,
      7.5,
      7.75
    ],
    "ioi": [
      0.25,
      0.25,
      0.25,
      0.25,
      0.25,
      0.25,
      0.5,
      0.25,
      0.25,
      0.5,
      0.25,
      0.25,
      0.25,
      0.25,
      0.25,
      0.25,
      0.5,
      0.0,
      0.75,
      0.25,
      0.5,
      0.5,
      0.25,
      0.25,
      0.25,
      0.25
    ],
    "grid": "8th",
    "euclidean_approx": [
      26,
      32
    ],
    "swing_ratio": 1.0
  },
  "pitch": {
    "notes_used": [
      57,
      59,
      60,
      69,
      72,
      74,
      76,
      79
    ],
    "intervals": [
      12,
      15,
      0,
      3,
      12,
      12,
      3,
      13,
      15,
      15,
      17,
      0,
      17,
      13,
      0,
      13,
      1,
      16,
      3,
      3,
      0,
      0,
      3,
      22,
      0
    ],
    "register": "high",
    "is_melodic": true,
    "pitch_range": 22,
    "pitch_distribution": {
      "69": 3,
      "57": 4,
      "72": 5,
      "59": 4,
      "74": 1,
      "76": 6,
      "60": 1,
      "79": 2
    }
  },
  "velocity": {
    "mean": 100.0,
    "variance": 0.0,
    "std": 0.0,
    "accents": [],
    "profile": [
      100,
      100,
      100,
      100,
      100,
      100,
      100,
      100,
      100,
      100,
      100,
      100,
      100,
      100,
      100,
      100,
      100,
      100,
      100,
      100,
      100,
      100,
      100,
      100,
      100,
      100
    ]
  },
  "notes": [
    {
      "pitch": 69,
      "start_time": 0.0,
      "duration": 0.25,
      "velocity": 100
    },
    {
      "pitch": 57,
      "start_time": 0.25,
      "duration": 0.125,
      "velocity": 100
    },
    {
      "pitch": 72,
      "start_time": 0.5,
      "duration": 0.125,
      "velocity": 100
    },
    {
      "pitch": 72,
      "start_time": 0.75,
      "duration": 0.125,
      "velocity": 100
    },
    {
      "pitch": 69,
      "start_time": 1.0,
      "duration": 0.25,
      "velocity": 100
    },
    {
      "pitch": 57,
      "start_time": 1.25,
      "duration": 0.125,
      "velocity": 100
    },
    {
      "pitch": 69,
      "start_time": 1.5,
      "duration": 0.25,
      "velocity": 100
    },
    {
      "pitch": 72,
      "start_time": 2.0,
      "duration": 0.25,
      "velocity": 100
    },
    {
      "pitch": 59,
      "start_time": 2.25,
      "duration": 0.125,
      "velocity": 100
    },
    {
      "pitch": 74,
      "start_time": 2.5,
      "duration": 0.25,
      "velocity": 100
    },
    {
      "pitch": 59,
      "start_time": 3.0,
      "duration": 0.125,
      "velocity": 100
    },
    {
      "pitch": 76,
      "start_time": 3.25,
      "duration": 0.25,
      "velocity": 100
    },
    {
      "pitch": 76,
      "start_time": 3.5,
      "duration": 0.25,
      "velocity": 100
    },
    {
      "pitch": 59,
      "start_time": 3.75,
      "duration": 0.125,
      "velocity": 100
    },
    {
      "pitch": 72,
      "start_time": 4.0,
      "duration": 0.25,
      "velocity": 100
    },
    {
      "pitch": 72,
      "start_time": 4.25,
      "duration": 0.25,
      "velocity": 100
    },
    {
      "pitch": 59,
      "start_time": 4.5,
      "duration": 0.125,
      "velocity": 100
    },
    {
      "pitch": 60,
      "start_time": 5.0,
      "duration": 0.125,
      "velocity": 100
    },
    {
      "pitch": 76,
      "start_time": 5.0,
      "duration": 0.75,
      "velocity": 100
    },
    {
      "pitch": 79,
      "start_time": 5.75,
      "duration": 0.125,
      "velocity": 100
    },
    {
      "pitch": 76,
      "start_time": 6.0,
      "duration": 0.25,
      "velocity": 100
    },
    {
      "pitch": 76,
      "start_time": 6.5,
      "duration": 0.25,
      "velocity": 100
    },
    {
      "pitch": 76,
      "start_time": 7.0,
      "duration": 0.25,
      "velocity": 100
    },
    {
      "pitch": 79,
      "start_time": 7.25,
      "duration": 0.25,
      "velocity": 100
    },
    {
      "pitch": 57,
      "start_time": 7.5,
      "duration": 0.125,
      "velocity": 100
    },
    {
      "pitch": 57,
      "start_time": 7.75,
      "duration": 0.125,
      "velocity": 100
    }
  ]
}