{
  "source": {
    "song": "packs",
    "track_index": 0,
    "track_name": "Retro Synths / Clips / Phazeform Vol 1 / 180-Halfull",
    "slot_index": 0,
    "clip_name": "Retro Synths / Clips / Phazeform Vol 1 / 180-Halfull",
    "mid_file": "/Users/darnold/Music/Ableton/Packs/Retro Synths/Clips/Phazeform Vol 1/180-Halfull.alc"
  },
  "meta": {
    "bpm": 180.0,
    "key": "?",
    "scale": "?",
    "length_beats": 8.0,
    "note_count": 40
  },
  "rhythm": {
    "density": 1.688,
    "hit_positions": [
      0.0,
      0.0,
      0.25,
      0.5,
      0.5,
      0.75,
      1.0,
      1.0,
      1.5,
      2.0,
      2.0,
      2.25,
      2.5,
      2.5,
      2.75,
      3.0,
      3.0,
      3.5,
      3.75,
      3.75,
      4.0,
      4.25,
      4.5,
      4.5,
      4.75,
      5.0,
      5.0,
      5.5,
      5.5,
      5.75,
      6.0,
      6.0,
      6.25,
      6.5,
      6.5,
      6.75,
      6.75,
      7.0,
      7.5,
      7.75
    ],
    "ioi": [
      0.0,
      0.25,
      0.25,
      0.0,
      0.25,
      0.25,
      0.0,
      0.5,
      0.5,
      0.0,
      0.25,
      0.25,
      0.0,
      0.25,
      0.25,
      0.0,
      0.5,
      0.25,
      0.0,
      0.25,
      0.25,
      0.25,
      0.0,
      0.25,
      0.25,
      0.0,
      0.5,
      0.0,
      0.25,
      0.25,
      0.0,
      0.25,
      0.25,
      0.0,
      0.25,
      0.0,
      0.25,
      0.5,
      0.25,
      0.25
    ],
    "grid": "8th",
    "euclidean_approx": [
      32,
      32
    ],
    "swing_ratio": 1.0
  },
  "pitch": {
    "notes_used": [
      48,
      50,
      51,
      54,
      56
    ],
    "intervals": [
      8,
      6,
      2,
      6,
      4,
      0,
      1,
      3,
      6,
      6,
      4,
      2,
      6,
      4,
      0,
      1,
      3,
      6,
      8,
      6,
      2,
      2,
      4,
      6,
      2,
      1,
      3,
      8,
      6,
      2,
      6,
      4,
      2,
      6,
      4,
      1,
      3,
      6,
      0
    ],
    "register": "mid",
    "is_melodic": true,
    "pitch_range": 8,
    "pitch_distribution": {
      "48": 11,
      "56": 3,
      "50": 12,
      "54": 10,
      "51": 4
    }
  },
  "velocity": {
    "mean": 56.9,
    "variance": 524.9,
    "std": 22.9,
    "accents": [
      0,
      3,
      6,
      9,
      12,
      15,
      18,
      21,
      25,
      27,
      30,
      33,
      35
    ],
    "profile": [
      88,
      41,
      37,
      88,
      41,
      37,
      88,
      58,
      49,
      88,
      41,
      37,
      88,
      41,
      37,
      88,
      58,
      49,
      88,
      41,
      37,
      88,
      37,
      41,
      41,
      88,
      58,
      88,
      49,
      37,
      88,
      41,
      37,
      88,
      41,
      88,
      58,
      49,
      20,
      20
    ]
  },
  "notes": [
    {
      "pitch": 48,
      "start_time": 0.0,
      "duration": 0.25,
      "velocity": 88
    },
    {
      "pitch": 56,
      "start_time": 0.0,
      "duration": 0.25,
      "velocity": 41
    },
    {
      "pitch": 50,
      "start_time": 0.25,
      "duration": 0.1746,
      "velocity": 37
    },
    {
      "pitch": 48,
      "start_time": 0.5,
      "duration": 0.25,
      "velocity": 88
    },
    {
      "pitch": 54,
      "start_time": 0.5,
      "duration": 0.25,
      "velocity": 41
    },
    {
      "pitch": 50,
      "start_time": 0.75,
      "duration": 0.1746,
      "velocity": 37
    },
    {
      "pitch": 50,
      "start_time": 1.0,
      "duration": 0.25,
      "velocity": 88
    },
    {
      "pitch": 51,
      "start_time": 1.0,
      "duration": 0.25,
      "velocity": 58
    },
    {
      "pitch": 54,
      "start_time": 1.5,
      "duration": 0.25,
      "velocity": 49
    },
    {
      "pitch": 48,
      "start_time": 2.0,
      "duration": 0.25,
      "velocity": 88
    },
    {
      "pitch": 54,
      "start_time": 2.0,
      "duration": 0.25,
      "velocity": 41
    },
    {
      "pitch": 50,
      "start_time": 2.25,
      "duration": 0.1746,
      "velocity": 37
    },
    {
      "pitch": 48,
      "start_time": 2.5,
      "duration": 0.25,
      "velocity": 88
    },
    {
      "pitch": 54,
      "start_time": 2.5,
      "duration": 0.25,
      "velocity": 41
    },
    {
      "pitch": 50,
      "start_time": 2.75,
      "duration": 0.1746,
      "velocity": 37
    },
    {
      "pitch": 50,
      "start_time": 3.0,
      "duration": 0.25,
      "velocity": 88
    },
    {
      "pitch": 51,
      "start_time": 3.0,
      "duration": 0.25,
      "velocity": 58
    },
    {
      "pitch": 54,
      "start_time": 3.5,
      "duration": 0.25,
      "velocity": 49
    },
    {
      "pitch": 48,
      "start_time": 3.75,
      "duration": 0.25,
      "velocity": 88
    },
    {
      "pitch": 56,
      "start_time": 3.75,
      "duration": 0.25,
      "velocity": 41
    },
    {
      "pitch": 50,
      "start_time": 4.0,
      "duration": 0.1746,
      "velocity": 37
    },
    {
      "pitch": 48,
      "start_time": 4.25,
      "duration": 0.25,
      "velocity": 88
    },
    {
      "pitch": 50,
      "start_time": 4.5,
      "duration": 0.1746,
      "velocity": 37
    },
    {
      "pitch": 54,
      "start_time": 4.5,
      "duration": 0.25,
      "velocity": 41
    },
    {
      "pitch": 48,
      "start_time": 4.75,
      "duration": 0.25,
      "velocity": 41
    },
    {
      "pitch": 50,
      "start_time": 5.0,
      "duration": 0.25,
      "velocity": 88
    },
    {
      "pitch": 51,
      "start_time": 5.0,
      "duration": 0.25,
      "velocity": 58
    },
    {
      "pitch": 48,
      "start_time": 5.5,
      "duration": 0.25,
      "velocity": 88
    },
    {
      "pitch": 56,
      "start_time": 5.5,
      "duration": 0.25,
      "velocity": 49
    },
    {
      "pitch": 50,
      "start_time": 5.75,
      "duration": 0.1746,
      "velocity": 37
    },
    {
      "pitch": 48,
      "start_time": 6.0,
      "duration": 0.25,
      "velocity": 88
    },
    {
      "pitch": 54,
      "start_time": 6.0,
      "duration": 0.25,
      "velocity": 41
    },
    {
      "pitch": 50,
      "start_time": 6.25,
      "duration": 0.1746,
      "velocity": 37
    },
    {
      "pitch": 48,
      "start_time": 6.5,
      "duration": 0.25,
      "velocity": 88
    },
    {
      "pitch": 54,
      "start_time": 6.5,
      "duration": 0.25,
      "velocity": 41
    },
    {
      "pitch": 50,
      "start_time": 6.75,
      "duration": 0.25,
      "velocity": 88
    },
    {
      "pitch": 51,
      "start_time": 6.75,
      "duration": 0.25,
      "velocity": 58
    },
    {
      "pitch": 48,
      "start_time": 7.0,
      "duration": 0.25,
      "velocity": 49
    },
    {
      "pitch": 54,
      "start_time": 7.5,
      "duration": 0.25,
      "velocity": 20
    },
    {
      "pitch": 54,
      "start_time": 7.75,
      "duration": 0.25,
      "velocity": 20
    }
  ]
}