{
  "source": {
    "song": "packs",
    "track_index": 0,
    "track_name": "Retro Synths / Clips / Phazeform Vol 1 / 140-Bubblbun",
    "slot_index": 0,
    "clip_name": "Retro Synths / Clips / Phazeform Vol 1 / 140-Bubblbun",
    "mid_file": "/Users/darnold/Music/Ableton/Packs/Retro Synths/Clips/Phazeform Vol 1/140-Bubblbun.alc"
  },
  "meta": {
    "bpm": 140.0,
    "key": "?",
    "scale": "?",
    "length_beats": 16.0,
    "note_count": 87
  },
  "rhythm": {
    "density": 1.906,
    "hit_positions": [
      0.0,
      0.25,
      0.25,
      0.5,
      0.5,
      0.5,
      0.75,
      1.0,
      1.0,
      1.25,
      1.5,
      1.75,
      2.0,
      2.0,
      2.25,
      2.5,
      2.75,
      3.0,
      3.0,
      3.25,
      3.5,
      3.75,
      4.0,
      4.0,
      4.25,
      4.5,
      4.75,
      5.0,
      5.0,
      5.25,
      5.5,
      6.25,
      6.25,
      6.5,
      6.5,
      6.5,
      6.75,
      7.0,
      7.0,
      7.25,
      7.25,
      7.5,
      7.5,
      7.5,
      7.75,
      8.0,
      8.0,
      8.25,
      8.25,
      8.5,
      8.5,
      8.5,
      8.75,
      9.0,
      9.0,
      9.25,
      9.5,
      9.75,
      10.0,
      10.0,
      10.25,
      10.5,
      10.75,
      11.0,
      11.0,
      11.25,
      11.5,
      11.75,
      12.0,
      12.0,
      12.25,
      12.5,
      12.75,
      13.0,
      13.0,
      13.25,
      13.5,
      13.75,
      14.0,
      14.0,
      14.25,
      14.5,
      14.75,
      15.0,
      15.0,
      15.25,
      15.5
    ],
    "ioi": [
      0.25,
      0.0,
      0.25,
      0.0,
      0.0,
      0.25,
      0.25,
      0.0,
      0.25,
      0.25,
      0.25,
      0.25,
      0.0,
      0.25,
      0.25,
      0.25,
      0.25,
      0.0,
      0.25,
      0.25,
      0.25,
      0.25,
      0.0,
      0.25,
      0.25,
      0.25,
      0.25,
      0.0,
      0.25,
      0.25,
      0.75,
      0.0,
      0.25,
      0.0,
      0.0,
      0.25,
      0.25,
      0.0,
      0.25,
      0.0,
      0.25,
      0.0,
      0.0,
      0.25,
      0.25,
      0.0,
      0.25,
      0.0,
      0.25,
      0.0,
      0.0,
      0.25,
      0.25,
      0.0,
      0.25,
      0.25,
      0.25,
      0.25,
      0.0,
      0.25,
      0.25,
      0.25,
      0.25,
      0.0,
      0.25,
      0.25,
      0.25,
      0.25,
      0.0,
      0.25,
      0.25,
      0.25,
      0.25,
      0.0,
      0.25,
      0.25,
      0.25,
      0.25,
      0.0,
      0.25,
      0.25,
      0.25,
      0.25,
      0.0,
      0.25,
      0.25,
      0.5
    ],
    "grid": "8th",
    "euclidean_approx": [
      64,
      64
    ],
    "swing_ratio": 1.0
  },
  "pitch": {
    "notes_used": [
      48,
      49,
      50,
      52,
      53,
      54,
      55,
      56
    ],
    "intervals": [
      5,
      1,
      6,
      1,
      7,
      4,
      2,
      5,
      1,
      2,
      3,
      5,
      1,
      5,
      2,
      4,
      2,
      5,
      1,
      2,
      3,
      5,
      1,
      5,
      2,
      4,
      2,
      5,
      1,
      2,
      3,
      1,
      6,
      1,
      7,
      4,
      2,
      5,
      2,
      1,
      6,
      1,
      7,
      3,
      5,
      1,
      4,
      1,
      6,
      1,
      7,
      4,
      2,
      5,
      1,
      2,
      3,
      5,
      1,
      5,
      2,
      4,
      2,
      5,
      1,
      2,
      3,
      5,
      1,
      5,
      2,
      4,
      2,
      5,
      1,
      2,
      3,
      5,
      1,
      5,
      2,
      4,
      2,
      5,
      1,
      2
    ],
    "register": "mid",
    "is_melodic": true,
    "pitch_range": 8,
    "pitch_distribution": {
      "48": 11,
      "53": 10,
      "54": 16,
      "49": 10,
      "56": 16,
      "52": 8,
      "50": 8,
      "55": 8
    }
  },
  "velocity": {
    "mean": 65.5,
    "variance": 779.5,
    "std": 27.9,
    "accents": [
      0,
      3,
      7,
      12,
      17,
      22,
      27,
      33,
      37,
      41,
      45,
      49,
      53,
      58,
      63,
      68,
      73,
      78,
      83
    ],
    "profile": [
      116,
      53,
      42,
      116,
      53,
      44,
      66,
      116,
      66,
      42,
      44,
      53,
      116,
      53,
      42,
      44,
      66,
      116,
      66,
      42,
      44,
      53,
      116,
      53,
      42,
      44,
      66,
      116,
      66,
      42,
      44,
      53,
      42,
      116,
      53,
      44,
      66,
      116,
      66,
      53,
      42,
      116,
      53,
      44,
      53,
      116,
      53,
      53,
      42,
      116,
      53,
      44,
      66,
      116,
      66,
      42,
      44,
      53,
      116,
      53,
      42,
      44,
      66,
      116,
      66,
      42,
      44,
      53,
      116,
      53,
      42,
      44,
      66,
      116,
      66,
      42,
      44,
      53,
      116,
      53,
      42,
      44,
      66,
      116,
      66,
      42,
      44
    ]
  },
  "notes": [
    {
      "pitch": 48,
      "start_time": 0.0,
      "duration": 0.25,
      "velocity": 116
    },
    {
      "pitch": 53,
      "start_time": 0.25,
      "duration": 0.25,
      "velocity": 53
    },
    {
      "pitch": 54,
      "start_time": 0.25,
      "duration": 0.25,
      "velocity": 42
    },
    {
      "pitch": 48,
      "start_time": 0.5,
      "duration": 0.25,
      "velocity": 116
    },
    {
      "pitch": 49,
      "start_time": 0.5,
      "duration": 0.25,
      "velocity": 53
    },
    {
      "pitch": 56,
      "start_time": 0.5,
      "duration": 0.25,
      "velocity": 44
    },
    {
      "pitch": 52,
      "start_time": 0.75,
      "duration": 0.25,
      "velocity": 66
    },
    {
      "pitch": 50,
      "start_time": 1.0,
      "duration": 0.25,
      "velocity": 116
    },
    {
      "pitch": 55,
      "start_time": 1.0,
      "duration": 0.25,
      "velocity": 66
    },
    {
      "pitch": 54,
      "start_time": 1.25,
      "duration": 0.25,
      "velocity": 42
    },
    {
      "pitch": 56,
      "start_time": 1.5,
      "duration": 0.25,
      "velocity": 44
    },
    {
      "pitch": 53,
      "start_time": 1.75,
      "duration": 0.25,
      "velocity": 53
    },
    {
      "pitch": 48,
      "start_time": 2.0,
      "duration": 0.25,
      "velocity": 116
    },
    {
      "pitch": 49,
      "start_time": 2.0,
      "duration": 0.25,
      "velocity": 53
    },
    {
      "pitch": 54,
      "start_time": 2.25,
      "duration": 0.25,
      "velocity": 42
    },
    {
      "pitch": 56,
      "start_time": 2.5,
      "duration": 0.25,
      "velocity": 44
    },
    {
      "pitch": 52,
      "start_time": 2.75,
      "duration": 0.25,
      "velocity": 66
    },
    {
      "pitch": 50,
      "start_time": 3.0,
      "duration": 0.25,
      "velocity": 116
    },
    {
      "pitch": 55,
      "start_time": 3.0,
      "duration": 0.25,
      "velocity": 66
    },
    {
      "pitch": 54,
      "start_time": 3.25,
      "duration": 0.25,
      "velocity": 42
    },
    {
      "pitch": 56,
      "start_time": 3.5,
      "duration": 0.25,
      "velocity": 44
    },
    {
      "pitch": 53,
      "start_time": 3.75,
      "duration": 0.25,
      "velocity": 53
    },
    {
      "pitch": 48,
      "start_time": 4.0,
      "duration": 0.25,
      "velocity": 116
    },
    {
      "pitch": 49,
      "start_time": 4.0,
      "duration": 0.25,
      "velocity": 53
    },
    {
      "pitch": 54,
      "start_time": 4.25,
      "duration": 0.25,
      "velocity": 42
    },
    {
      "pitch": 56,
      "start_time": 4.5,
      "duration": 0.25,
      "velocity": 44
    },
    {
      "pitch": 52,
      "start_time": 4.75,
      "duration": 0.25,
      "velocity": 66
    },
    {
      "pitch": 50,
      "start_time": 5.0,
      "duration": 0.25,
      "velocity": 116
    },
    {
      "pitch": 55,
      "start_time": 5.0,
      "duration": 0.25,
      "velocity": 66
    },
    {
      "pitch": 54,
      "start_time": 5.25,
      "duration": 0.25,
      "velocity": 42
    },
    {
      "pitch": 56,
      "start_time": 5.5,
      "duration": 0.25,
      "velocity": 44
    },
    {
      "pitch": 53,
      "start_time": 6.25,
      "duration": 0.25,
      "velocity": 53
    },
    {
      "pitch": 54,
      "start_time": 6.25,
      "duration": 0.25,
      "velocity": 42
    },
    {
      "pitch": 48,
      "start_time": 6.5,
      "duration": 0.25,
      "velocity": 116
    },
    {
      "pitch": 49,
      "start_time": 6.5,
      "duration": 0.25,
      "velocity": 53
    },
    {
      "pitch": 56,
      "start_time": 6.5,
      "duration": 0.25,
      "velocity": 44
    },
    {
      "pitch": 52,
      "start_time": 6.75,
      "duration": 0.25,
      "velocity": 66
    },
    {
      "pitch": 50,
      "start_time": 7.0,
      "duration": 0.25,
      "velocity": 116
    },
    {
      "pitch": 55,
      "start_time": 7.0,
      "duration": 0.25,
      "velocity": 66
    },
    {
      "pitch": 53,
      "start_time": 7.25,
      "duration": 0.25,
      "velocity": 53
    },
    {
      "pitch": 54,
      "start_time": 7.25,
      "duration": 0.25,
      "velocity": 42
    },
    {
      "pitch": 48,
      "start_time": 7.5,
      "duration": 0.25,
      "velocity": 116
    },
    {
      "pitch": 49,
      "start_time": 7.5,
      "duration": 0.25,
      "velocity": 53
    },
    {
      "pitch": 56,
      "start_time": 7.5,
      "duration": 0.25,
      "velocity": 44
    },
    {
      "pitch": 53,
      "start_time": 7.75,
      "duration": 0.25,
      "velocity": 53
    },
    {
      "pitch": 48,
      "start_time": 8.0,
      "duration": 0.25,
      "velocity": 116
    },
    {
      "pitch": 49,
      "start_time": 8.0,
      "duration": 0.25,
      "velocity": 53
    },
    {
      "pitch": 53,
      "start_time": 8.25,
      "duration": 0.25,
      "velocity": 53
    },
    {
      "pitch": 54,
      "start_time": 8.25,
      "duration": 0.25,
      "velocity": 42
    },
    {
      "pitch": 48,
      "start_time": 8.5,
      "duration": 0.25,
      "velocity": 116
    },
    {
      "pitch": 49,
      "start_time": 8.5,
      "duration": 0.25,
      "velocity": 53
    },
    {
      "pitch": 56,
      "start_time": 8.5,
      "duration": 0.25,
      "velocity": 44
    },
    {
      "pitch": 52,
      "start_time": 8.75,
      "duration": 0.25,
      "velocity": 66
    },
    {
      "pitch": 50,
      "start_time": 9.0,
      "duration": 0.25,
      "velocity": 116
    },
    {
      "pitch": 55,
      "start_time": 9.0,
      "duration": 0.25,
      "velocity": 66
    },
    {
      "pitch": 54,
      "start_time": 9.25,
      "duration": 0.25,
      "velocity": 42
    },
    {
      "pitch": 56,
      "start_time": 9.5,
      "duration": 0.25,
      "velocity": 44
    },
    {
      "pitch": 53,
      "start_time": 9.75,
      "duration": 0.25,
      "velocity": 53
    },
    {
      "pitch": 48,
      "start_time": 10.0,
      "duration": 0.25,
      "velocity": 116
    },
    {
      "pitch": 49,
      "start_time": 10.0,
      "duration": 0.25,
      "velocity": 53
    },
    {
      "pitch": 54,
      "start_time": 10.25,
      "duration": 0.25,
      "velocity": 42
    },
    {
      "pitch": 56,
      "start_time": 10.5,
      "duration": 0.25,
      "velocity": 44
    },
    {
      "pitch": 52,
      "start_time": 10.75,
      "duration": 0.25,
      "velocity": 66
    },
    {
      "pitch": 50,
      "start_time": 11.0,
      "duration": 0.25,
      "velocity": 116
    },
    {
      "pitch": 55,
      "start_time": 11.0,
      "duration": 0.25,
      "velocity": 66
    },
    {
      "pitch": 54,
      "start_time": 11.25,
      "duration": 0.25,
      "velocity": 42
    },
    {
      "pitch": 56,
      "start_time": 11.5,
      "duration": 0.25,
      "velocity": 44
    },
    {
      "pitch": 53,
      "start_time": 11.75,
      "duration": 0.25,
      "velocity": 53
    },
    {
      "pitch": 48,
      "start_time": 12.0,
      "duration": 0.25,
      "velocity": 116
    },
    {
      "pitch": 49,
      "start_time": 12.0,
      "duration": 0.25,
      "velocity": 53
    },
    {
      "pitch": 54,
      "start_time": 12.25,
      "duration": 0.25,
      "velocity": 42
    },
    {
      "pitch": 56,
      "start_time": 12.5,
      "duration": 0.25,
      "velocity": 44
    },
    {
      "pitch": 52,
      "start_time": 12.75,
      "duration": 0.25,
      "velocity": 66
    },
    {
      "pitch": 50,
      "start_time": 13.0,
      "duration": 0.25,
      "velocity": 116
    },
    {
      "pitch": 55,
      "start_time": 13.0,
      "duration": 0.25,
      "velocity": 66
    },
    {
      "pitch": 54,
      "start_time": 13.25,
      "duration": 0.25,
      "velocity": 42
    },
    {
      "pitch": 56,
      "start_time": 13.5,
      "duration": 0.25,
      "velocity": 44
    },
    {
      "pitch": 53,
      "start_time": 13.75,
      "duration": 0.25,
      "velocity": 53
    },
    {
      "pitch": 48,
      "start_time": 14.0,
      "duration": 0.25,
      "velocity": 116
    },
    {
      "pitch": 49,
      "start_time": 14.0,
      "duration": 0.25,
      "velocity": 53
    },
    {
      "pitch": 54,
      "start_time": 14.25,
      "duration": 0.25,
      "velocity": 42
    },
    {
      "pitch": 56,
      "start_time": 14.5,
      "duration": 0.25,
      "velocity": 44
    },
    {
      "pitch": 52,
      "start_time": 14.75,
      "duration": 0.25,
      "velocity": 66
    },
    {
      "pitch": 50,
      "start_time": 15.0,
      "duration": 0.25,
      "velocity": 116
    },
    {
      "pitch": 55,
      "start_time": 15.0,
      "duration": 0.25,
      "velocity": 66
    },
    {
      "pitch": 54,
      "start_time": 15.25,
      "duration": 0.25,
      "velocity": 42
    },
    {
      "pitch": 56,
      "start_time": 15.5,
      "duration": 0.25,
      "velocity": 44
    }
  ]
}