{
  "source": {
    "song": "packs",
    "track_index": 0,
    "track_name": "Retro Synths / Clips / Phazeform Vol 1 / 140-Mathenist",
    "slot_index": 0,
    "clip_name": "Retro Synths / Clips / Phazeform Vol 1 / 140-Mathenist",
    "mid_file": "/Users/darnold/Music/Ableton/Packs/Retro Synths/Clips/Phazeform Vol 1/140-Mathenist.alc"
  },
  "meta": {
    "bpm": 140.0,
    "key": "?",
    "scale": "?",
    "length_beats": 8.0,
    "note_count": 32
  },
  "rhythm": {
    "density": 1.5,
    "hit_positions": [
      0.0,
      0.0,
      0.25,
      0.5,
      0.5,
      0.5,
      0.75,
      1.0,
      1.0,
      1.3333,
      1.6667,
      2.0,
      2.3333,
      2.6667,
      3.0,
      3.3333,
      3.6667,
      4.0,
      4.0,
      4.25,
      4.5,
      4.5,
      4.5,
      4.75,
      5.0,
      5.0,
      5.3333,
      5.6667,
      6.0,
      6.3333,
      6.6667,
      7.0
    ],
    "ioi": [
      0.0,
      0.25,
      0.25,
      0.0,
      0.0,
      0.25,
      0.25,
      0.0,
      0.3333,
      0.3334,
      0.3333,
      0.3333,
      0.3334,
      0.3333,
      0.3333,
      0.3334,
      0.3333,
      0.0,
      0.25,
      0.25,
      0.0,
      0.0,
      0.25,
      0.25,
      0.0,
      0.3333,
      0.3334,
      0.3333,
      0.3333,
      0.3334,
      0.3333,
      1.0
    ],
    "grid": "8th",
    "euclidean_approx": [
      32,
      32
    ],
    "swing_ratio": 1.185
  },
  "pitch": {
    "notes_used": [
      48,
      49,
      50,
      51,
      52,
      53,
      54,
      55,
      56
    ],
    "intervals": [
      8,
      1,
      7,
      6,
      1,
      2,
      4,
      1,
      5,
      7,
      6,
      6,
      1,
      2,
      2,
      1,
      4,
      8,
      1,
      7,
      6,
      1,
      3,
      3,
      1,
      5,
      7,
      6,
      5,
      1,
      3
    ],
    "register": "mid",
    "is_melodic": true,
    "pitch_range": 8,
    "pitch_distribution": {
      "48": 8,
      "56": 2,
      "55": 6,
      "54": 4,
      "53": 2,
      "49": 4,
      "50": 2,
      "51": 2,
      "52": 2
    }
  },
  "velocity": {
    "mean": 78.3,
    "variance": 182.1,
    "std": 13.5,
    "accents": [
      10,
      12
    ],
    "profile": [
      88,
      88,
      61,
      88,
      88,
      88,
      88,
      88,
      88,
      61,
      94,
      61,
      94,
      61,
      61,
      61,
      61,
      88,
      88,
      61,
      88,
      88,
      88,
      88,
      88,
      88,
      61,
      87,
      61,
      61,
      91,
      61
    ]
  },
  "notes": [
    {
      "pitch": 48,
      "start_time": 0.0,
      "duration": 0.25,
      "velocity": 88
    },
    {
      "pitch": 56,
      "start_time": 0.0,
      "duration": 0.25,
      "velocity": 88
    },
    {
      "pitch": 55,
      "start_time": 0.25,
      "duration": 0.25,
      "velocity": 61
    },
    {
      "pitch": 48,
      "start_time": 0.5,
      "duration": 0.25,
      "velocity": 88
    },
    {
      "pitch": 54,
      "start_time": 0.5,
      "duration": 0.25,
      "velocity": 88
    },
    {
      "pitch": 55,
      "start_time": 0.5,
      "duration": 0.25,
      "velocity": 88
    },
    {
      "pitch": 53,
      "start_time": 0.75,
      "duration": 0.25,
      "velocity": 88
    },
    {
      "pitch": 49,
      "start_time": 1.0,
      "duration": 0.25,
      "velocity": 88
    },
    {
      "pitch": 50,
      "start_time": 1.0,
      "duration": 0.25,
      "velocity": 88
    },
    {
      "pitch": 55,
      "start_time": 1.3333,
      "duration": 0.3333,
      "velocity": 61
    },
    {
      "pitch": 48,
      "start_time": 1.6667,
      "duration": 0.3333,
      "velocity": 94
    },
    {
      "pitch": 54,
      "start_time": 2.0,
      "duration": 0.3333,
      "velocity": 61
    },
    {
      "pitch": 48,
      "start_time": 2.3333,
      "duration": 0.3333,
      "velocity": 94
    },
    {
      "pitch": 49,
      "start_time": 2.6667,
      "duration": 0.3333,
      "velocity": 61
    },
    {
      "pitch": 51,
      "start_time": 3.0,
      "duration": 0.3333,
      "velocity": 61
    },
    {
      "pitch": 53,
      "start_time": 3.3333,
      "duration": 0.3333,
      "velocity": 61
    },
    {
      "pitch": 52,
      "start_time": 3.6667,
      "duration": 0.3333,
      "velocity": 61
    },
    {
      "pitch": 48,
      "start_time": 4.0,
      "duration": 0.25,
      "velocity": 88
    },
    {
      "pitch": 56,
      "start_time": 4.0,
      "duration": 0.25,
      "velocity": 88
    },
    {
      "pitch": 55,
      "start_time": 4.25,
      "duration": 0.25,
      "velocity": 61
    },
    {
      "pitch": 48,
      "start_time": 4.5,
      "duration": 0.25,
      "velocity": 88
    },
    {
      "pitch": 54,
      "start_time": 4.5,
      "duration": 0.25,
      "velocity": 88
    },
    {
      "pitch": 55,
      "start_time": 4.5,
      "duration": 0.25,
      "velocity": 88
    },
    {
      "pitch": 52,
      "start_time": 4.75,
      "duration": 0.25,
      "velocity": 88
    },
    {
      "pitch": 49,
      "start_time": 5.0,
      "duration": 0.25,
      "velocity": 88
    },
    {
      "pitch": 50,
      "start_time": 5.0,
      "duration": 0.25,
      "velocity": 88
    },
    {
      "pitch": 55,
      "start_time": 5.3333,
      "duration": 0.3333,
      "velocity": 61
    },
    {
      "pitch": 48,
      "start_time": 5.6667,
      "duration": 0.3333,
      "velocity": 87
    },
    {
      "pitch": 54,
      "start_time": 6.0,
      "duration": 0.3333,
      "velocity": 61
    },
    {
      "pitch": 49,
      "start_time": 6.3333,
      "duration": 0.3333,
      "velocity": 61
    },
    {
      "pitch": 48,
      "start_time": 6.6667,
      "duration": 0.3333,
      "velocity": 91
    },
    {
      "pitch": 51,
      "start_time": 7.0,
      "duration": 0.3333,
      "velocity": 61
    }
  ]
}