{
  "source": {
    "song": "packs",
    "track_index": 0,
    "track_name": "Retro Synths / Clips / TeeBee / Multifuzzi",
    "slot_index": 0,
    "clip_name": "Retro Synths / Clips / TeeBee / Multifuzzi",
    "mid_file": "/Users/darnold/Music/Ableton/Packs/Retro Synths/Clips/TeeBee/Multifuzzi.alc"
  },
  "meta": {
    "bpm": 115.0,
    "key": "?",
    "scale": "?",
    "length_beats": 8.0,
    "note_count": 22
  },
  "rhythm": {
    "density": 1.375,
    "hit_positions": [
      0.0,
      0.25,
      0.75,
      1.5,
      1.75,
      2.0,
      2.5,
      3.0,
      3.5,
      4.0,
      4.25,
      4.5,
      5.0,
      5.5,
      5.75,
      6.0,
      6.25,
      6.5,
      6.75,
      7.0,
      7.25,
      7.5
    ],
    "ioi": [
      0.25,
      0.5,
      0.75,
      0.25,
      0.25,
      0.5,
      0.5,
      0.5,
      0.5,
      0.25,
      0.25,
      0.5,
      0.5,
      0.25,
      0.25,
      0.25,
      0.25,
      0.25,
      0.25,
      0.25,
      0.25,
      0.5
    ],
    "grid": "8th",
    "euclidean_approx": [
      22,
      32
    ],
    "swing_ratio": 1.0
  },
  "pitch": {
    "notes_used": [
      55,
      60,
      62,
      65,
      67
    ],
    "intervals": [
      0,
      0,
      5,
      0,
      5,
      5,
      7,
      3,
      3,
      2,
      5,
      12,
      0,
      5,
      7,
      12,
      5,
      7,
      12,
      5,
      7
    ],
    "register": "mid",
    "is_melodic": true,
    "pitch_range": 12,
    "pitch_distribution": {
      "60": 5,
      "65": 3,
      "55": 5,
      "62": 5,
      "67": 4
    }
  },
  "velocity": {
    "mean": 100.0,
    "variance": 0.0,
    "std": 0.0,
    "accents": [],
    "profile": [
      100,
      100,
      100,
      100,
      100,
      100,
      100,
      100,
      100,
      100,
      100,
      100,
      100,
      100,
      100,
      100,
      100,
      100,
      100,
      100,
      100,
      100
    ]
  },
  "notes": [
    {
      "pitch": 60,
      "start_time": 0.0,
      "duration": 0.125,
      "velocity": 100
    },
    {
      "pitch": 60,
      "start_time": 0.25,
      "duration": 0.125,
      "velocity": 100
    },
    {
      "pitch": 60,
      "start_time": 0.75,
      "duration": 0.125,
      "velocity": 100
    },
    {
      "pitch": 65,
      "start_time": 1.5,
      "duration": 0.125,
      "velocity": 100
    },
    {
      "pitch": 65,
      "start_time": 1.75,
      "duration": 0.125,
      "velocity": 100
    },
    {
      "pitch": 60,
      "start_time": 2.0,
      "duration": 0.5,
      "velocity": 100
    },
    {
      "pitch": 55,
      "start_time": 2.5,
      "duration": 0.5,
      "velocity": 100
    },
    {
      "pitch": 62,
      "start_time": 3.0,
      "duration": 0.5,
      "velocity": 100
    },
    {
      "pitch": 65,
      "start_time": 3.5,
      "duration": 0.5,
      "velocity": 100
    },
    {
      "pitch": 62,
      "start_time": 4.0,
      "duration": 0.25,
      "velocity": 100
    },
    {
      "pitch": 60,
      "start_time": 4.25,
      "duration": 0.25,
      "velocity": 100
    },
    {
      "pitch": 55,
      "start_time": 4.5,
      "duration": 0.625,
      "velocity": 100
    },
    {
      "pitch": 67,
      "start_time": 5.0,
      "duration": 0.25,
      "velocity": 100
    },
    {
      "pitch": 67,
      "start_time": 5.5,
      "duration": 0.25,
      "velocity": 100
    },
    {
      "pitch": 62,
      "start_time": 5.75,
      "duration": 0.25,
      "velocity": 100
    },
    {
      "pitch": 55,
      "start_time": 6.0,
      "duration": 0.25,
      "velocity": 100
    },
    {
      "pitch": 67,
      "start_time": 6.25,
      "duration": 0.25,
      "velocity": 100
    },
    {
      "pitch": 62,
      "start_time": 6.5,
      "duration": 0.25,
      "velocity": 100
    },
    {
      "pitch": 55,
      "start_time": 6.75,
      "duration": 0.25,
      "velocity": 100
    },
    {
      "pitch": 67,
      "start_time": 7.0,
      "duration": 0.25,
      "velocity": 100
    },
    {
      "pitch": 62,
      "start_time": 7.25,
      "duration": 0.25,
      "velocity": 100
    },
    {
      "pitch": 55,
      "start_time": 7.5,
      "duration": 0.5,
      "velocity": 100
    }
  ]
}