{
  "source": {
    "song": "packs",
    "track_index": 0,
    "track_name": "Retro Synths / Clips / Phazeform Vol 1 / 90-Dryce",
    "slot_index": 0,
    "clip_name": "Retro Synths / Clips / Phazeform Vol 1 / 90-Dryce",
    "mid_file": "/Users/darnold/Music/Ableton/Packs/Retro Synths/Clips/Phazeform Vol 1/90-Dryce.alc"
  },
  "meta": {
    "bpm": 90.0,
    "key": "?",
    "scale": "?",
    "length_beats": 8.0,
    "note_count": 29
  },
  "rhythm": {
    "density": 1.438,
    "hit_positions": [
      0.0,
      0.0,
      1.0,
      1.0,
      1.6667,
      2.0,
      2.5,
      2.5,
      2.75,
      3.0,
      3.5,
      3.5,
      4.0,
      4.3333,
      4.6667,
      5.0,
      5.0,
      5.6667,
      6.0,
      6.25,
      6.5,
      6.75,
      7.0,
      7.0,
      7.1667,
      7.3333,
      7.5,
      7.6667,
      7.8333
    ],
    "ioi": [
      0.0,
      1.0,
      0.0,
      0.6667,
      0.3333,
      0.5,
      0.0,
      0.25,
      0.25,
      0.5,
      0.0,
      0.5,
      0.3333,
      0.3334,
      0.3333,
      0.0,
      0.6667,
      0.3333,
      0.25,
      0.25,
      0.25,
      0.25,
      0.0,
      0.1667,
      0.1666,
      0.1667,
      0.1667,
      0.1666,
      0.1667
    ],
    "grid": "8th",
    "euclidean_approx": [
      29,
      32
    ],
    "swing_ratio": 1.167
  },
  "pitch": {
    "notes_used": [
      48,
      49,
      50,
      51,
      52,
      53,
      54,
      55,
      56
    ],
    "intervals": [
      8,
      6,
      1,
      2,
      3,
      4,
      8,
      6,
      1,
      3,
      8,
      3,
      2,
      1,
      4,
      1,
      3,
      1,
      4,
      1,
      1,
      3,
      8,
      6,
      1,
      3,
      1,
      2
    ],
    "register": "mid",
    "is_melodic": true,
    "pitch_range": 8,
    "pitch_distribution": {
      "48": 4,
      "56": 4,
      "50": 5,
      "51": 4,
      "49": 3,
      "52": 2,
      "53": 3,
      "55": 2,
      "54": 2
    }
  },
  "velocity": {
    "mean": 67.8,
    "variance": 518.0,
    "std": 22.8,
    "accents": [
      2,
      15
    ],
    "profile": [
      88,
      88,
      111,
      59,
      45,
      45,
      88,
      88,
      78,
      85,
      88,
      88,
      45,
      45,
      45,
      111,
      59,
      45,
      45,
      45,
      84,
      89,
      88,
      88,
      45,
      45,
      45,
      45,
      45
    ]
  },
  "notes": [
    {
      "pitch": 48,
      "start_time": 0.0,
      "duration": 0.25,
      "velocity": 88
    },
    {
      "pitch": 56,
      "start_time": 0.0,
      "duration": 0.25,
      "velocity": 88
    },
    {
      "pitch": 50,
      "start_time": 1.0,
      "duration": 0.25,
      "velocity": 111
    },
    {
      "pitch": 51,
      "start_time": 1.0,
      "duration": 0.25,
      "velocity": 59
    },
    {
      "pitch": 49,
      "start_time": 1.6667,
      "duration": 0.1667,
      "velocity": 45
    },
    {
      "pitch": 52,
      "start_time": 2.0,
      "duration": 0.1667,
      "velocity": 45
    },
    {
      "pitch": 48,
      "start_time": 2.5,
      "duration": 0.25,
      "velocity": 88
    },
    {
      "pitch": 56,
      "start_time": 2.5,
      "duration": 0.25,
      "velocity": 88
    },
    {
      "pitch": 50,
      "start_time": 2.75,
      "duration": 0.25,
      "velocity": 78
    },
    {
      "pitch": 51,
      "start_time": 3.0,
      "duration": 0.25,
      "velocity": 85
    },
    {
      "pitch": 48,
      "start_time": 3.5,
      "duration": 0.25,
      "velocity": 88
    },
    {
      "pitch": 56,
      "start_time": 3.5,
      "duration": 0.25,
      "velocity": 88
    },
    {
      "pitch": 53,
      "start_time": 4.0,
      "duration": 0.1667,
      "velocity": 45
    },
    {
      "pitch": 55,
      "start_time": 4.3333,
      "duration": 0.1667,
      "velocity": 45
    },
    {
      "pitch": 54,
      "start_time": 4.6667,
      "duration": 0.1667,
      "velocity": 45
    },
    {
      "pitch": 50,
      "start_time": 5.0,
      "duration": 0.25,
      "velocity": 111
    },
    {
      "pitch": 51,
      "start_time": 5.0,
      "duration": 0.25,
      "velocity": 59
    },
    {
      "pitch": 54,
      "start_time": 5.6667,
      "duration": 0.1667,
      "velocity": 45
    },
    {
      "pitch": 53,
      "start_time": 6.0,
      "duration": 0.1667,
      "velocity": 45
    },
    {
      "pitch": 49,
      "start_time": 6.25,
      "duration": 0.1667,
      "velocity": 45
    },
    {
      "pitch": 50,
      "start_time": 6.5,
      "duration": 0.25,
      "velocity": 84
    },
    {
      "pitch": 51,
      "start_time": 6.75,
      "duration": 0.25,
      "velocity": 89
    },
    {
      "pitch": 48,
      "start_time": 7.0,
      "duration": 0.1667,
      "velocity": 88
    },
    {
      "pitch": 56,
      "start_time": 7.0,
      "duration": 0.25,
      "velocity": 88
    },
    {
      "pitch": 50,
      "start_time": 7.1667,
      "duration": 0.1667,
      "velocity": 45
    },
    {
      "pitch": 49,
      "start_time": 7.3333,
      "duration": 0.1667,
      "velocity": 45
    },
    {
      "pitch": 52,
      "start_time": 7.5,
      "duration": 0.1667,
      "velocity": 45
    },
    {
      "pitch": 53,
      "start_time": 7.6667,
      "duration": 0.1667,
      "velocity": 45
    },
    {
      "pitch": 55,
      "start_time": 7.8333,
      "duration": 0.1667,
      "velocity": 45
    }
  ]
}