{
  "source": {
    "song": "packs",
    "track_index": 0,
    "track_name": "Retro Synths / Clips / TeeBee / Early Sven",
    "slot_index": 0,
    "clip_name": "Retro Synths / Clips / TeeBee / Early Sven",
    "mid_file": "/Users/darnold/Music/Ableton/Packs/Retro Synths/Clips/TeeBee/Early Sven.alc"
  },
  "meta": {
    "bpm": 115.0,
    "key": "?",
    "scale": "?",
    "length_beats": 8.0,
    "note_count": 26
  },
  "rhythm": {
    "density": 1.625,
    "hit_positions": [
      0.0,
      0.25,
      0.5,
      0.75,
      1.0,
      1.25,
      1.5,
      1.75,
      2.0,
      2.25,
      2.5,
      2.75,
      3.0,
      3.25,
      3.5,
      3.75,
      4.0,
      4.25,
      5.5,
      5.75,
      6.0,
      6.25,
      7.0,
      7.25,
      7.5,
      7.75
    ],
    "ioi": [
      0.25,
      0.25,
      0.25,
      0.25,
      0.25,
      0.25,
      0.25,
      0.25,
      0.25,
      0.25,
      0.25,
      0.25,
      0.25,
      0.25,
      0.25,
      0.25,
      0.25,
      1.25,
      0.25,
      0.25,
      0.25,
      0.75,
      0.25,
      0.25,
      0.25,
      0.25
    ],
    "grid": "8th",
    "euclidean_approx": [
      26,
      32
    ],
    "swing_ratio": 1.0
  },
  "pitch": {
    "notes_used": [
      63,
      65,
      70,
      72,
      74,
      77,
      79,
      81
    ],
    "intervals": [
      7,
      14,
      12,
      5,
      7,
      5,
      7,
      16,
      12,
      3,
      7,
      7,
      7,
      9,
      7,
      7,
      7,
      14,
      7,
      7,
      7,
      9,
      7,
      5,
      7
    ],
    "register": "high",
    "is_melodic": true,
    "pitch_range": 18,
    "pitch_distribution": {
      "72": 7,
      "79": 4,
      "65": 5,
      "77": 2,
      "74": 3,
      "81": 3,
      "63": 1,
      "70": 1
    }
  },
  "velocity": {
    "mean": 100.0,
    "variance": 0.0,
    "std": 0.0,
    "accents": [],
    "profile": [
      100,
      100,
      100,
      100,
      100,
      100,
      100,
      100,
      100,
      100,
      100,
      100,
      100,
      100,
      100,
      100,
      100,
      100,
      100,
      100,
      100,
      100,
      100,
      100,
      100,
      100
    ]
  },
  "notes": [
    {
      "pitch": 72,
      "start_time": 0.0,
      "duration": 0.125,
      "velocity": 100
    },
    {
      "pitch": 79,
      "start_time": 0.25,
      "duration": 0.125,
      "velocity": 100
    },
    {
      "pitch": 65,
      "start_time": 0.5,
      "duration": 0.125,
      "velocity": 100
    },
    {
      "pitch": 77,
      "start_time": 0.75,
      "duration": 0.125,
      "velocity": 100
    },
    {
      "pitch": 72,
      "start_time": 1.0,
      "duration": 0.375,
      "velocity": 100
    },
    {
      "pitch": 79,
      "start_time": 1.25,
      "duration": 0.375,
      "velocity": 100
    },
    {
      "pitch": 74,
      "start_time": 1.5,
      "duration": 0.125,
      "velocity": 100
    },
    {
      "pitch": 81,
      "start_time": 1.75,
      "duration": 0.125,
      "velocity": 100
    },
    {
      "pitch": 65,
      "start_time": 2.0,
      "duration": 0.375,
      "velocity": 100
    },
    {
      "pitch": 77,
      "start_time": 2.25,
      "duration": 0.375,
      "velocity": 100
    },
    {
      "pitch": 74,
      "start_time": 2.5,
      "duration": 0.125,
      "velocity": 100
    },
    {
      "pitch": 81,
      "start_time": 2.75,
      "duration": 0.125,
      "velocity": 100
    },
    {
      "pitch": 74,
      "start_time": 3.0,
      "duration": 0.125,
      "velocity": 100
    },
    {
      "pitch": 81,
      "start_time": 3.25,
      "duration": 0.125,
      "velocity": 100
    },
    {
      "pitch": 72,
      "start_time": 3.5,
      "duration": 0.125,
      "velocity": 100
    },
    {
      "pitch": 79,
      "start_time": 3.75,
      "duration": 0.125,
      "velocity": 100
    },
    {
      "pitch": 72,
      "start_time": 4.0,
      "duration": 0.875,
      "velocity": 100
    },
    {
      "pitch": 79,
      "start_time": 4.25,
      "duration": 0.875,
      "velocity": 100
    },
    {
      "pitch": 65,
      "start_time": 5.5,
      "duration": 0.125,
      "velocity": 100
    },
    {
      "pitch": 72,
      "start_time": 5.75,
      "duration": 0.125,
      "velocity": 100
    },
    {
      "pitch": 65,
      "start_time": 6.0,
      "duration": 0.875,
      "velocity": 100
    },
    {
      "pitch": 72,
      "start_time": 6.25,
      "duration": 0.875,
      "velocity": 100
    },
    {
      "pitch": 63,
      "start_time": 7.0,
      "duration": 0.125,
      "velocity": 100
    },
    {
      "pitch": 70,
      "start_time": 7.25,
      "duration": 0.125,
      "velocity": 100
    },
    {
      "pitch": 65,
      "start_time": 7.5,
      "duration": 0.125,
      "velocity": 100
    },
    {
      "pitch": 72,
      "start_time": 7.75,
      "duration": 0.125,
      "velocity": 100
    }
  ]
}