{
  "source": {
    "song": "packs",
    "track_index": 0,
    "track_name": "Retro Synths / Clips / Phazeform Vol 1 / 90-Dungeon",
    "slot_index": 0,
    "clip_name": "Retro Synths / Clips / Phazeform Vol 1 / 90-Dungeon",
    "mid_file": "/Users/darnold/Music/Ableton/Packs/Retro Synths/Clips/Phazeform Vol 1/90-Dungeon.alc"
  },
  "meta": {
    "bpm": 90.0,
    "key": "?",
    "scale": "?",
    "length_beats": 8.0,
    "note_count": 24
  },
  "rhythm": {
    "density": 0.938,
    "hit_positions": [
      0.0,
      0.0,
      0.5,
      1.0,
      1.0,
      2.0,
      2.25,
      2.25,
      2.75,
      3.0,
      3.0,
      4.0,
      4.0,
      4.5,
      5.0,
      5.0,
      6.0,
      6.25,
      6.25,
      6.75,
      7.0,
      7.0,
      7.5,
      7.5
    ],
    "ioi": [
      0.0,
      0.5,
      0.5,
      0.0,
      1.0,
      0.25,
      0.0,
      0.5,
      0.25,
      0.0,
      1.0,
      0.0,
      0.5,
      0.5,
      0.0,
      1.0,
      0.25,
      0.0,
      0.5,
      0.25,
      0.0,
      0.5,
      0.0,
      0.5
    ],
    "grid": "8th",
    "euclidean_approx": [
      24,
      32
    ],
    "swing_ratio": 1.0
  },
  "pitch": {
    "notes_used": [
      48,
      50,
      51,
      54,
      56
    ],
    "intervals": [
      6,
      0,
      4,
      1,
      3,
      6,
      8,
      2,
      4,
      1,
      3,
      6,
      0,
      4,
      1,
      3,
      6,
      8,
      2,
      6,
      8,
      8,
      8
    ],
    "register": "mid",
    "is_melodic": true,
    "pitch_range": 8,
    "pitch_distribution": {
      "48": 6,
      "54": 8,
      "50": 3,
      "51": 3,
      "56": 4
    }
  },
  "velocity": {
    "mean": 95.9,
    "variance": 195.1,
    "std": 14.0,
    "accents": [
      0,
      6,
      11,
      17,
      20,
      22
    ],
    "profile": [
      116,
      89,
      89,
      105,
      74,
      89,
      116,
      89,
      89,
      105,
      74,
      116,
      89,
      89,
      105,
      74,
      89,
      116,
      89,
      89,
      116,
      89,
      116,
      89
    ]
  },
  "notes": [
    {
      "pitch": 48,
      "start_time": 0.0,
      "duration": 0.25,
      "velocity": 116
    },
    {
      "pitch": 54,
      "start_time": 0.0,
      "duration": 0.25,
      "velocity": 89
    },
    {
      "pitch": 54,
      "start_time": 0.5,
      "duration": 0.25,
      "velocity": 89
    },
    {
      "pitch": 50,
      "start_time": 1.0,
      "duration": 0.25,
      "velocity": 105
    },
    {
      "pitch": 51,
      "start_time": 1.0,
      "duration": 0.25,
      "velocity": 74
    },
    {
      "pitch": 54,
      "start_time": 2.0,
      "duration": 0.25,
      "velocity": 89
    },
    {
      "pitch": 48,
      "start_time": 2.25,
      "duration": 0.25,
      "velocity": 116
    },
    {
      "pitch": 56,
      "start_time": 2.25,
      "duration": 0.25,
      "velocity": 89
    },
    {
      "pitch": 54,
      "start_time": 2.75,
      "duration": 0.25,
      "velocity": 89
    },
    {
      "pitch": 50,
      "start_time": 3.0,
      "duration": 0.25,
      "velocity": 105
    },
    {
      "pitch": 51,
      "start_time": 3.0,
      "duration": 0.25,
      "velocity": 74
    },
    {
      "pitch": 48,
      "start_time": 4.0,
      "duration": 0.25,
      "velocity": 116
    },
    {
      "pitch": 54,
      "start_time": 4.0,
      "duration": 0.25,
      "velocity": 89
    },
    {
      "pitch": 54,
      "start_time": 4.5,
      "duration": 0.25,
      "velocity": 89
    },
    {
      "pitch": 50,
      "start_time": 5.0,
      "duration": 0.25,
      "velocity": 105
    },
    {
      "pitch": 51,
      "start_time": 5.0,
      "duration": 0.25,
      "velocity": 74
    },
    {
      "pitch": 54,
      "start_time": 6.0,
      "duration": 0.25,
      "velocity": 89
    },
    {
      "pitch": 48,
      "start_time": 6.25,
      "duration": 0.25,
      "velocity": 116
    },
    {
      "pitch": 56,
      "start_time": 6.25,
      "duration": 0.25,
      "velocity": 89
    },
    {
      "pitch": 54,
      "start_time": 6.75,
      "duration": 0.25,
      "velocity": 89
    },
    {
      "pitch": 48,
      "start_time": 7.0,
      "duration": 0.25,
      "velocity": 116
    },
    {
      "pitch": 56,
      "start_time": 7.0,
      "duration": 0.25,
      "velocity": 89
    },
    {
      "pitch": 48,
      "start_time": 7.5,
      "duration": 0.25,
      "velocity": 116
    },
    {
      "pitch": 56,
      "start_time": 7.5,
      "duration": 0.25,
      "velocity": 89
    }
  ]
}