{
  "source": {
    "song": "packs",
    "track_index": 0,
    "track_name": "Retro Synths / Clips / TeeBee / Gammawave",
    "slot_index": 0,
    "clip_name": "Retro Synths / Clips / TeeBee / Gammawave",
    "mid_file": "/Users/darnold/Music/Ableton/Packs/Retro Synths/Clips/TeeBee/Gammawave.alc"
  },
  "meta": {
    "bpm": 115.0,
    "key": "?",
    "scale": "?",
    "length_beats": 8.0,
    "note_count": 26
  },
  "rhythm": {
    "density": 1.625,
    "hit_positions": [
      0.0,
      0.25,
      0.5,
      0.75,
      1.0,
      1.25,
      1.5,
      1.75,
      2.0,
      2.75,
      3.0,
      3.5,
      3.75,
      4.25,
      4.5,
      5.0,
      5.25,
      5.5,
      5.75,
      6.0,
      6.25,
      6.5,
      6.75,
      7.0,
      7.25,
      7.75
    ],
    "ioi": [
      0.25,
      0.25,
      0.25,
      0.25,
      0.25,
      0.25,
      0.25,
      0.25,
      0.75,
      0.25,
      0.5,
      0.25,
      0.5,
      0.25,
      0.5,
      0.25,
      0.25,
      0.25,
      0.25,
      0.25,
      0.25,
      0.25,
      0.25,
      0.25,
      0.5,
      0.25
    ],
    "grid": "8th",
    "euclidean_approx": [
      26,
      32
    ],
    "swing_ratio": 1.0
  },
  "pitch": {
    "notes_used": [
      72,
      74,
      76
    ],
    "intervals": [
      2,
      2,
      2,
      4,
      4,
      0,
      2,
      0,
      0,
      0,
      2,
      2,
      2,
      2,
      2,
      2,
      0,
      0,
      2,
      4,
      0,
      0,
      2,
      2,
      2
    ],
    "register": "high",
    "is_melodic": true,
    "pitch_range": 4,
    "pitch_distribution": {
      "74": 13,
      "72": 6,
      "76": 7
    }
  },
  "velocity": {
    "mean": 100.0,
    "variance": 0.0,
    "std": 0.0,
    "accents": [],
    "profile": [
      100,
      100,
      100,
      100,
      100,
      100,
      100,
      100,
      100,
      100,
      100,
      100,
      100,
      100,
      100,
      100,
      100,
      100,
      100,
      100,
      100,
      100,
      100,
      100,
      100,
      100
    ]
  },
  "notes": [
    {
      "pitch": 74,
      "start_time": 0.0,
      "duration": 0.125,
      "velocity": 100
    },
    {
      "pitch": 72,
      "start_time": 0.25,
      "duration": 0.125,
      "velocity": 100
    },
    {
      "pitch": 74,
      "start_time": 0.5,
      "duration": 0.25,
      "velocity": 100
    },
    {
      "pitch": 76,
      "start_time": 0.75,
      "duration": 0.125,
      "velocity": 100
    },
    {
      "pitch": 72,
      "start_time": 1.0,
      "duration": 0.25,
      "velocity": 100
    },
    {
      "pitch": 76,
      "start_time": 1.25,
      "duration": 0.125,
      "velocity": 100
    },
    {
      "pitch": 76,
      "start_time": 1.5,
      "duration": 0.125,
      "velocity": 100
    },
    {
      "pitch": 74,
      "start_time": 1.75,
      "duration": 0.125,
      "velocity": 100
    },
    {
      "pitch": 74,
      "start_time": 2.0,
      "duration": 0.5,
      "velocity": 100
    },
    {
      "pitch": 74,
      "start_time": 2.75,
      "duration": 0.125,
      "velocity": 100
    },
    {
      "pitch": 74,
      "start_time": 3.0,
      "duration": 0.5,
      "velocity": 100
    },
    {
      "pitch": 72,
      "start_time": 3.5,
      "duration": 0.125,
      "velocity": 100
    },
    {
      "pitch": 74,
      "start_time": 3.75,
      "duration": 0.125,
      "velocity": 100
    },
    {
      "pitch": 76,
      "start_time": 4.25,
      "duration": 0.125,
      "velocity": 100
    },
    {
      "pitch": 74,
      "start_time": 4.5,
      "duration": 0.625,
      "velocity": 100
    },
    {
      "pitch": 76,
      "start_time": 5.0,
      "duration": 0.375,
      "velocity": 100
    },
    {
      "pitch": 74,
      "start_time": 5.25,
      "duration": 0.125,
      "velocity": 100
    },
    {
      "pitch": 74,
      "start_time": 5.5,
      "duration": 0.125,
      "velocity": 100
    },
    {
      "pitch": 74,
      "start_time": 5.75,
      "duration": 0.375,
      "velocity": 100
    },
    {
      "pitch": 76,
      "start_time": 6.0,
      "duration": 0.125,
      "velocity": 100
    },
    {
      "pitch": 72,
      "start_time": 6.25,
      "duration": 0.25,
      "velocity": 100
    },
    {
      "pitch": 72,
      "start_time": 6.5,
      "duration": 0.125,
      "velocity": 100
    },
    {
      "pitch": 72,
      "start_time": 6.75,
      "duration": 0.125,
      "velocity": 100
    },
    {
      "pitch": 74,
      "start_time": 7.0,
      "duration": 0.125,
      "velocity": 100
    },
    {
      "pitch": 76,
      "start_time": 7.25,
      "duration": 0.625,
      "velocity": 100
    },
    {
      "pitch": 74,
      "start_time": 7.75,
      "duration": 0.25,
      "velocity": 100
    }
  ]
}