{
  "source": {
    "song": "packs",
    "track_index": 0,
    "track_name": "Retro Synths / Clips / Phazeform Vol 1 / 100-Shakehead",
    "slot_index": 0,
    "clip_name": "Retro Synths / Clips / Phazeform Vol 1 / 100-Shakehead",
    "mid_file": "/Users/darnold/Music/Ableton/Packs/Retro Synths/Clips/Phazeform Vol 1/100-Shakehead.alc"
  },
  "meta": {
    "bpm": 100.0,
    "key": "?",
    "scale": "?",
    "length_beats": 8.0,
    "note_count": 35
  },
  "rhythm": {
    "density": 1.938,
    "hit_positions": [
      0.0,
      0.25,
      0.25,
      0.5,
      0.75,
      1.0,
      1.25,
      1.5,
      1.75,
      2.0,
      2.25,
      2.5,
      2.75,
      3.0,
      3.25,
      3.5,
      3.75,
      4.0,
      4.0,
      4.25,
      4.5,
      4.75,
      5.0,
      5.25,
      5.5,
      5.75,
      5.75,
      5.75,
      6.25,
      6.5,
      6.75,
      7.0,
      7.25,
      7.5,
      7.75
    ],
    "ioi": [
      0.25,
      0.0,
      0.25,
      0.25,
      0.25,
      0.25,
      0.25,
      0.25,
      0.25,
      0.25,
      0.25,
      0.25,
      0.25,
      0.25,
      0.25,
      0.25,
      0.25,
      0.0,
      0.25,
      0.25,
      0.25,
      0.25,
      0.25,
      0.25,
      0.25,
      0.0,
      0.0,
      0.5,
      0.25,
      0.25,
      0.25,
      0.25,
      0.25,
      0.25,
      0.25
    ],
    "grid": "8th",
    "euclidean_approx": [
      32,
      32
    ],
    "swing_ratio": 1.0
  },
  "pitch": {
    "notes_used": [
      48,
      50,
      51,
      52,
      53,
      54,
      56
    ],
    "intervals": [
      2,
      4,
      6,
      6,
      3,
      2,
      1,
      2,
      4,
      6,
      4,
      2,
      3,
      3,
      1,
      1,
      4,
      8,
      2,
      4,
      4,
      3,
      2,
      1,
      6,
      4,
      4,
      6,
      4,
      3,
      1,
      4,
      2,
      1
    ],
    "register": "mid",
    "is_melodic": true,
    "pitch_range": 8,
    "pitch_distribution": {
      "48": 6,
      "50": 5,
      "54": 10,
      "51": 4,
      "53": 4,
      "52": 4,
      "56": 2
    }
  },
  "velocity": {
    "mean": 67.0,
    "variance": 326.4,
    "std": 18.1,
    "accents": [
      0,
      1,
      3,
      5,
      9,
      12,
      13,
      17,
      20,
      22,
      25,
      28,
      30,
      31
    ],
    "profile": [
      88,
      88,
      50,
      88,
      50,
      88,
      71,
      50,
      50,
      88,
      50,
      50,
      88,
      88,
      71,
      50,
      50,
      88,
      50,
      50,
      88,
      50,
      88,
      71,
      50,
      88,
      50,
      50,
      88,
      50,
      88,
      88,
      50,
      50,
      50
    ]
  },
  "notes": [
    {
      "pitch": 48,
      "start_time": 0.0,
      "duration": 0.25,
      "velocity": 88
    },
    {
      "pitch": 50,
      "start_time": 0.25,
      "duration": 0.25,
      "velocity": 88
    },
    {
      "pitch": 54,
      "start_time": 0.25,
      "duration": 0.25,
      "velocity": 50
    },
    {
      "pitch": 48,
      "start_time": 0.5,
      "duration": 0.25,
      "velocity": 88
    },
    {
      "pitch": 54,
      "start_time": 0.75,
      "duration": 0.25,
      "velocity": 50
    },
    {
      "pitch": 51,
      "start_time": 1.0,
      "duration": 0.25,
      "velocity": 88
    },
    {
      "pitch": 53,
      "start_time": 1.25,
      "duration": 0.25,
      "velocity": 71
    },
    {
      "pitch": 54,
      "start_time": 1.5,
      "duration": 0.25,
      "velocity": 50
    },
    {
      "pitch": 52,
      "start_time": 1.75,
      "duration": 0.25,
      "velocity": 50
    },
    {
      "pitch": 48,
      "start_time": 2.0,
      "duration": 0.25,
      "velocity": 88
    },
    {
      "pitch": 54,
      "start_time": 2.25,
      "duration": 0.25,
      "velocity": 50
    },
    {
      "pitch": 50,
      "start_time": 2.5,
      "duration": 0.25,
      "velocity": 50
    },
    {
      "pitch": 48,
      "start_time": 2.75,
      "duration": 0.25,
      "velocity": 88
    },
    {
      "pitch": 51,
      "start_time": 3.0,
      "duration": 0.25,
      "velocity": 88
    },
    {
      "pitch": 54,
      "start_time": 3.25,
      "duration": 0.25,
      "velocity": 71
    },
    {
      "pitch": 53,
      "start_time": 3.5,
      "duration": 0.25,
      "velocity": 50
    },
    {
      "pitch": 52,
      "start_time": 3.75,
      "duration": 0.25,
      "velocity": 50
    },
    {
      "pitch": 48,
      "start_time": 4.0,
      "duration": 0.25,
      "velocity": 88
    },
    {
      "pitch": 56,
      "start_time": 4.0,
      "duration": 0.25,
      "velocity": 50
    },
    {
      "pitch": 54,
      "start_time": 4.25,
      "duration": 0.25,
      "velocity": 50
    },
    {
      "pitch": 50,
      "start_time": 4.5,
      "duration": 0.25,
      "velocity": 88
    },
    {
      "pitch": 54,
      "start_time": 4.75,
      "duration": 0.25,
      "velocity": 50
    },
    {
      "pitch": 51,
      "start_time": 5.0,
      "duration": 0.25,
      "velocity": 88
    },
    {
      "pitch": 53,
      "start_time": 5.25,
      "duration": 0.25,
      "velocity": 71
    },
    {
      "pitch": 54,
      "start_time": 5.5,
      "duration": 0.25,
      "velocity": 50
    },
    {
      "pitch": 48,
      "start_time": 5.75,
      "duration": 0.25,
      "velocity": 88
    },
    {
      "pitch": 52,
      "start_time": 5.75,
      "duration": 0.25,
      "velocity": 50
    },
    {
      "pitch": 56,
      "start_time": 5.75,
      "duration": 0.25,
      "velocity": 50
    },
    {
      "pitch": 50,
      "start_time": 6.25,
      "duration": 0.25,
      "velocity": 88
    },
    {
      "pitch": 54,
      "start_time": 6.5,
      "duration": 0.25,
      "velocity": 50
    },
    {
      "pitch": 51,
      "start_time": 6.75,
      "duration": 0.25,
      "velocity": 88
    },
    {
      "pitch": 50,
      "start_time": 7.0,
      "duration": 0.25,
      "velocity": 88
    },
    {
      "pitch": 54,
      "start_time": 7.25,
      "duration": 0.25,
      "velocity": 50
    },
    {
      "pitch": 52,
      "start_time": 7.5,
      "duration": 0.25,
      "velocity": 50
    },
    {
      "pitch": 53,
      "start_time": 7.75,
      "duration": 0.25,
      "velocity": 50
    }
  ]
}