{
  "source": {
    "song": "packs",
    "track_index": 0,
    "track_name": "Retro Synths / Clips / TeeBee / Cloister",
    "slot_index": 0,
    "clip_name": "Retro Synths / Clips / TeeBee / Cloister",
    "mid_file": "/Users/darnold/Music/Ableton/Packs/Retro Synths/Clips/TeeBee/Cloister.alc"
  },
  "meta": {
    "bpm": 115.0,
    "key": "?",
    "scale": "?",
    "length_beats": 8.0,
    "note_count": 28
  },
  "rhythm": {
    "density": 1.75,
    "hit_positions": [
      0.0,
      0.5,
      1.0,
      1.25,
      1.5,
      1.75,
      2.0,
      2.25,
      2.5,
      2.75,
      3.0,
      3.25,
      3.5,
      3.75,
      4.0,
      4.5,
      4.75,
      5.0,
      5.25,
      5.5,
      5.75,
      6.0,
      6.25,
      6.5,
      6.75,
      7.0,
      7.25,
      7.5
    ],
    "ioi": [
      0.5,
      0.5,
      0.25,
      0.25,
      0.25,
      0.25,
      0.25,
      0.25,
      0.25,
      0.25,
      0.25,
      0.25,
      0.25,
      0.25,
      0.5,
      0.25,
      0.25,
      0.25,
      0.25,
      0.25,
      0.25,
      0.25,
      0.25,
      0.25,
      0.25,
      0.25,
      0.25,
      0.5
    ],
    "grid": "8th",
    "euclidean_approx": [
      28,
      32
    ],
    "swing_ratio": 1.0
  },
  "pitch": {
    "notes_used": [
      57,
      59,
      60,
      64,
      65,
      66,
      67,
      71,
      72,
      74,
      77
    ],
    "intervals": [
      11,
      11,
      0,
      3,
      3,
      5,
      6,
      1,
      14,
      3,
      3,
      9,
      0,
      8,
      8,
      9,
      0,
      10,
      10,
      10,
      3,
      0,
      3,
      3,
      5,
      6,
      1
    ],
    "register": "mid",
    "is_melodic": true,
    "pitch_range": 20,
    "pitch_distribution": {
      "60": 5,
      "71": 1,
      "57": 2,
      "65": 4,
      "59": 1,
      "74": 5,
      "77": 1,
      "64": 3,
      "67": 4,
      "72": 1,
      "66": 1
    }
  },
  "velocity": {
    "mean": 100.0,
    "variance": 0.0,
    "std": 0.0,
    "accents": [],
    "profile": [
      100,
      100,
      100,
      100,
      100,
      100,
      100,
      100,
      100,
      100,
      100,
      100,
      100,
      100,
      100,
      100,
      100,
      100,
      100,
      100,
      100,
      100,
      100,
      100,
      100,
      100,
      100,
      100
    ]
  },
  "notes": [
    {
      "pitch": 60,
      "start_time": 0.0,
      "duration": 0.5,
      "velocity": 100
    },
    {
      "pitch": 71,
      "start_time": 0.5,
      "duration": 0.25,
      "velocity": 100
    },
    {
      "pitch": 60,
      "start_time": 1.0,
      "duration": 0.0625,
      "velocity": 100
    },
    {
      "pitch": 60,
      "start_time": 1.25,
      "duration": 0.0625,
      "velocity": 100
    },
    {
      "pitch": 57,
      "start_time": 1.5,
      "duration": 0.1875,
      "velocity": 100
    },
    {
      "pitch": 60,
      "start_time": 1.75,
      "duration": 0.0625,
      "velocity": 100
    },
    {
      "pitch": 65,
      "start_time": 2.0,
      "duration": 0.1875,
      "velocity": 100
    },
    {
      "pitch": 59,
      "start_time": 2.25,
      "duration": 0.125,
      "velocity": 100
    },
    {
      "pitch": 60,
      "start_time": 2.5,
      "duration": 0.3125,
      "velocity": 100
    },
    {
      "pitch": 74,
      "start_time": 2.75,
      "duration": 0.3125,
      "velocity": 100
    },
    {
      "pitch": 77,
      "start_time": 3.0,
      "duration": 0.375,
      "velocity": 100
    },
    {
      "pitch": 74,
      "start_time": 3.25,
      "duration": 0.3125,
      "velocity": 100
    },
    {
      "pitch": 65,
      "start_time": 3.5,
      "duration": 0.125,
      "velocity": 100
    },
    {
      "pitch": 65,
      "start_time": 3.75,
      "duration": 0.125,
      "velocity": 100
    },
    {
      "pitch": 57,
      "start_time": 4.0,
      "duration": 0.25,
      "velocity": 100
    },
    {
      "pitch": 65,
      "start_time": 4.5,
      "duration": 0.25,
      "velocity": 100
    },
    {
      "pitch": 74,
      "start_time": 4.75,
      "duration": 0.125,
      "velocity": 100
    },
    {
      "pitch": 74,
      "start_time": 5.0,
      "duration": 0.25,
      "velocity": 100
    },
    {
      "pitch": 64,
      "start_time": 5.25,
      "duration": 0.25,
      "velocity": 100
    },
    {
      "pitch": 74,
      "start_time": 5.5,
      "duration": 0.25,
      "velocity": 100
    },
    {
      "pitch": 64,
      "start_time": 5.75,
      "duration": 0.25,
      "velocity": 100
    },
    {
      "pitch": 67,
      "start_time": 6.0,
      "duration": 0.0625,
      "velocity": 100
    },
    {
      "pitch": 67,
      "start_time": 6.25,
      "duration": 0.0625,
      "velocity": 100
    },
    {
      "pitch": 64,
      "start_time": 6.5,
      "duration": 0.1875,
      "velocity": 100
    },
    {
      "pitch": 67,
      "start_time": 6.75,
      "duration": 0.0625,
      "velocity": 100
    },
    {
      "pitch": 72,
      "start_time": 7.0,
      "duration": 0.1875,
      "velocity": 100
    },
    {
      "pitch": 66,
      "start_time": 7.25,
      "duration": 0.375,
      "velocity": 100
    },
    {
      "pitch": 67,
      "start_time": 7.5,
      "duration": 0.4375,
      "velocity": 100
    }
  ]
}