{
  "source": {
    "song": "packs",
    "track_index": 0,
    "track_name": "Retro Synths / Clips / TeeBee / Devilfish",
    "slot_index": 0,
    "clip_name": "Retro Synths / Clips / TeeBee / Devilfish",
    "mid_file": "/Users/darnold/Music/Ableton/Packs/Retro Synths/Clips/TeeBee/Devilfish.alc"
  },
  "meta": {
    "bpm": 115.0,
    "key": "?",
    "scale": "?",
    "length_beats": 8.0,
    "note_count": 31
  },
  "rhythm": {
    "density": 1.938,
    "hit_positions": [
      0.0,
      0.25,
      0.5,
      0.75,
      1.0,
      1.25,
      1.5,
      1.75,
      2.0,
      2.25,
      2.5,
      2.75,
      3.0,
      3.25,
      3.5,
      3.75,
      4.25,
      4.5,
      4.75,
      5.0,
      5.25,
      5.5,
      5.75,
      6.0,
      6.25,
      6.5,
      6.75,
      7.0,
      7.25,
      7.5,
      7.75
    ],
    "ioi": [
      0.25,
      0.25,
      0.25,
      0.25,
      0.25,
      0.25,
      0.25,
      0.25,
      0.25,
      0.25,
      0.25,
      0.25,
      0.25,
      0.25,
      0.25,
      0.5,
      0.25,
      0.25,
      0.25,
      0.25,
      0.25,
      0.25,
      0.25,
      0.25,
      0.25,
      0.25,
      0.25,
      0.25,
      0.25,
      0.25,
      0.25
    ],
    "grid": "8th",
    "euclidean_approx": [
      31,
      32
    ],
    "swing_ratio": 1.0
  },
  "pitch": {
    "notes_used": [
      48,
      51,
      55,
      57,
      60,
      63,
      65,
      67
    ],
    "intervals": [
      3,
      12,
      15,
      3,
      9,
      12,
      3,
      6,
      9,
      3,
      9,
      12,
      3,
      4,
      8,
      15,
      9,
      9,
      3,
      9,
      12,
      3,
      12,
      15,
      12,
      3,
      3,
      7,
      7,
      5
    ],
    "register": "mid",
    "is_melodic": true,
    "pitch_range": 19,
    "pitch_distribution": {
      "48": 9,
      "51": 7,
      "63": 4,
      "60": 6,
      "57": 2,
      "55": 1,
      "67": 1,
      "65": 1
    }
  },
  "velocity": {
    "mean": 101.8,
    "variance": 141.5,
    "std": 11.9,
    "accents": [
      1,
      23,
      24,
      25,
      26,
      29
    ],
    "profile": [
      90,
      116,
      109,
      97,
      105,
      82,
      90,
      99,
      86,
      92,
      105,
      90,
      94,
      113,
      98,
      100,
      98,
      90,
      98,
      99,
      90,
      100,
      113,
      127,
      127,
      114,
      120,
      113,
      86,
      114,
      100
    ]
  },
  "notes": [
    {
      "pitch": 48,
      "start_time": 0.0,
      "duration": 0.3282,
      "velocity": 90
    },
    {
      "pitch": 51,
      "start_time": 0.25,
      "duration": 0.2259,
      "velocity": 116
    },
    {
      "pitch": 63,
      "start_time": 0.5,
      "duration": 0.2481,
      "velocity": 109
    },
    {
      "pitch": 48,
      "start_time": 0.75,
      "duration": 0.3285,
      "velocity": 97
    },
    {
      "pitch": 51,
      "start_time": 1.0,
      "duration": 0.2363,
      "velocity": 105
    },
    {
      "pitch": 60,
      "start_time": 1.25,
      "duration": 0.303,
      "velocity": 82
    },
    {
      "pitch": 48,
      "start_time": 1.5,
      "duration": 0.3274,
      "velocity": 90
    },
    {
      "pitch": 51,
      "start_time": 1.75,
      "duration": 0.2746,
      "velocity": 99
    },
    {
      "pitch": 57,
      "start_time": 2.0,
      "duration": 0.2308,
      "velocity": 86
    },
    {
      "pitch": 48,
      "start_time": 2.25,
      "duration": 0.3221,
      "velocity": 92
    },
    {
      "pitch": 51,
      "start_time": 2.5,
      "duration": 0.2576,
      "velocity": 105
    },
    {
      "pitch": 60,
      "start_time": 2.75,
      "duration": 0.2709,
      "velocity": 90
    },
    {
      "pitch": 48,
      "start_time": 3.0,
      "duration": 0.3333,
      "velocity": 94
    },
    {
      "pitch": 51,
      "start_time": 3.25,
      "duration": 0.4421,
      "velocity": 113
    },
    {
      "pitch": 55,
      "start_time": 3.5,
      "duration": 0.3058,
      "velocity": 98
    },
    {
      "pitch": 63,
      "start_time": 3.75,
      "duration": 0.125,
      "velocity": 100
    },
    {
      "pitch": 48,
      "start_time": 4.25,
      "duration": 0.3072,
      "velocity": 98
    },
    {
      "pitch": 57,
      "start_time": 4.5,
      "duration": 0.2489,
      "velocity": 90
    },
    {
      "pitch": 48,
      "start_time": 4.75,
      "duration": 0.3035,
      "velocity": 98
    },
    {
      "pitch": 51,
      "start_time": 5.0,
      "duration": 0.2507,
      "velocity": 99
    },
    {
      "pitch": 60,
      "start_time": 5.25,
      "duration": 0.2377,
      "velocity": 90
    },
    {
      "pitch": 48,
      "start_time": 5.5,
      "duration": 0.3437,
      "velocity": 100
    },
    {
      "pitch": 51,
      "start_time": 5.75,
      "duration": 0.25,
      "velocity": 113
    },
    {
      "pitch": 63,
      "start_time": 6.0,
      "duration": 0.25,
      "velocity": 127
    },
    {
      "pitch": 48,
      "start_time": 6.25,
      "duration": 0.25,
      "velocity": 127
    },
    {
      "pitch": 60,
      "start_time": 6.5,
      "duration": 0.2157,
      "velocity": 114
    },
    {
      "pitch": 63,
      "start_time": 6.75,
      "duration": 0.2588,
      "velocity": 120
    },
    {
      "pitch": 60,
      "start_time": 7.0,
      "duration": 0.3048,
      "velocity": 113
    },
    {
      "pitch": 67,
      "start_time": 7.25,
      "duration": 0.2082,
      "velocity": 86
    },
    {
      "pitch": 60,
      "start_time": 7.5,
      "duration": 0.5,
      "velocity": 114
    },
    {
      "pitch": 65,
      "start_time": 7.75,
      "duration": 0.25,
      "velocity": 100
    }
  ]
}