{
  "source": {
    "song": "packs",
    "track_index": 0,
    "track_name": "Retro Synths / Clips / Phazeform Vol 1 / 130-Jomp",
    "slot_index": 0,
    "clip_name": "Retro Synths / Clips / Phazeform Vol 1 / 130-Jomp",
    "mid_file": "/Users/darnold/Music/Ableton/Packs/Retro Synths/Clips/Phazeform Vol 1/130-Jomp.alc"
  },
  "meta": {
    "bpm": 130.0,
    "key": "?",
    "scale": "?",
    "length_beats": 8.0,
    "note_count": 36
  },
  "rhythm": {
    "density": 1.188,
    "hit_positions": [
      0.0,
      0.0,
      0.0,
      0.5,
      1.0,
      1.0,
      1.0,
      1.5,
      2.0,
      2.0,
      2.0,
      2.5,
      3.0,
      3.0,
      3.0,
      3.25,
      3.75,
      4.0,
      4.0,
      4.0,
      4.5,
      5.0,
      5.0,
      5.0,
      5.5,
      6.0,
      6.0,
      6.0,
      6.5,
      7.0,
      7.0,
      7.0,
      7.25,
      7.5,
      7.75,
      7.75
    ],
    "ioi": [
      0.0,
      0.0,
      0.5,
      0.5,
      0.0,
      0.0,
      0.5,
      0.5,
      0.0,
      0.0,
      0.5,
      0.5,
      0.0,
      0.0,
      0.25,
      0.5,
      0.25,
      0.0,
      0.0,
      0.5,
      0.5,
      0.0,
      0.0,
      0.5,
      0.5,
      0.0,
      0.0,
      0.5,
      0.5,
      0.0,
      0.0,
      0.25,
      0.25,
      0.25,
      0.0,
      0.25
    ],
    "grid": "8th",
    "euclidean_approx": [
      32,
      32
    ],
    "swing_ratio": 1.0
  },
  "pitch": {
    "notes_used": [
      48,
      50,
      51,
      54,
      56
    ],
    "intervals": [
      1,
      3,
      6,
      2,
      1,
      3,
      6,
      2,
      1,
      3,
      6,
      2,
      1,
      3,
      6,
      0,
      2,
      1,
      3,
      6,
      2,
      1,
      3,
      6,
      2,
      1,
      3,
      6,
      2,
      1,
      3,
      6,
      2,
      0,
      6
    ],
    "register": "mid",
    "is_melodic": true,
    "pitch_range": 8,
    "pitch_distribution": {
      "50": 10,
      "51": 8,
      "54": 8,
      "48": 9,
      "56": 1
    }
  },
  "velocity": {
    "mean": 82.5,
    "variance": 236.2,
    "std": 15.4,
    "accents": [
      0,
      4,
      8,
      12,
      17,
      21,
      25,
      29
    ],
    "profile": [
      99,
      58,
      88,
      89,
      99,
      58,
      88,
      89,
      99,
      58,
      88,
      89,
      99,
      58,
      88,
      89,
      89,
      99,
      58,
      88,
      89,
      99,
      58,
      88,
      89,
      99,
      58,
      88,
      89,
      99,
      58,
      88,
      89,
      67,
      86,
      57
    ]
  },
  "notes": [
    {
      "pitch": 50,
      "start_time": 0.0,
      "duration": 0.125,
      "velocity": 99
    },
    {
      "pitch": 51,
      "start_time": 0.0,
      "duration": 0.125,
      "velocity": 58
    },
    {
      "pitch": 54,
      "start_time": 0.0,
      "duration": 0.125,
      "velocity": 88
    },
    {
      "pitch": 48,
      "start_time": 0.5,
      "duration": 0.125,
      "velocity": 89
    },
    {
      "pitch": 50,
      "start_time": 1.0,
      "duration": 0.125,
      "velocity": 99
    },
    {
      "pitch": 51,
      "start_time": 1.0,
      "duration": 0.125,
      "velocity": 58
    },
    {
      "pitch": 54,
      "start_time": 1.0,
      "duration": 0.125,
      "velocity": 88
    },
    {
      "pitch": 48,
      "start_time": 1.5,
      "duration": 0.125,
      "velocity": 89
    },
    {
      "pitch": 50,
      "start_time": 2.0,
      "duration": 0.125,
      "velocity": 99
    },
    {
      "pitch": 51,
      "start_time": 2.0,
      "duration": 0.125,
      "velocity": 58
    },
    {
      "pitch": 54,
      "start_time": 2.0,
      "duration": 0.125,
      "velocity": 88
    },
    {
      "pitch": 48,
      "start_time": 2.5,
      "duration": 0.125,
      "velocity": 89
    },
    {
      "pitch": 50,
      "start_time": 3.0,
      "duration": 0.125,
      "velocity": 99
    },
    {
      "pitch": 51,
      "start_time": 3.0,
      "duration": 0.125,
      "velocity": 58
    },
    {
      "pitch": 54,
      "start_time": 3.0,
      "duration": 0.125,
      "velocity": 88
    },
    {
      "pitch": 48,
      "start_time": 3.25,
      "duration": 0.125,
      "velocity": 89
    },
    {
      "pitch": 48,
      "start_time": 3.75,
      "duration": 0.125,
      "velocity": 89
    },
    {
      "pitch": 50,
      "start_time": 4.0,
      "duration": 0.125,
      "velocity": 99
    },
    {
      "pitch": 51,
      "start_time": 4.0,
      "duration": 0.125,
      "velocity": 58
    },
    {
      "pitch": 54,
      "start_time": 4.0,
      "duration": 0.125,
      "velocity": 88
    },
    {
      "pitch": 48,
      "start_time": 4.5,
      "duration": 0.125,
      "velocity": 89
    },
    {
      "pitch": 50,
      "start_time": 5.0,
      "duration": 0.125,
      "velocity": 99
    },
    {
      "pitch": 51,
      "start_time": 5.0,
      "duration": 0.125,
      "velocity": 58
    },
    {
      "pitch": 54,
      "start_time": 5.0,
      "duration": 0.125,
      "velocity": 88
    },
    {
      "pitch": 48,
      "start_time": 5.5,
      "duration": 0.125,
      "velocity": 89
    },
    {
      "pitch": 50,
      "start_time": 6.0,
      "duration": 0.125,
      "velocity": 99
    },
    {
      "pitch": 51,
      "start_time": 6.0,
      "duration": 0.125,
      "velocity": 58
    },
    {
      "pitch": 54,
      "start_time": 6.0,
      "duration": 0.125,
      "velocity": 88
    },
    {
      "pitch": 48,
      "start_time": 6.5,
      "duration": 0.125,
      "velocity": 89
    },
    {
      "pitch": 50,
      "start_time": 7.0,
      "duration": 0.125,
      "velocity": 99
    },
    {
      "pitch": 51,
      "start_time": 7.0,
      "duration": 0.125,
      "velocity": 58
    },
    {
      "pitch": 54,
      "start_time": 7.0,
      "duration": 0.125,
      "velocity": 88
    },
    {
      "pitch": 48,
      "start_time": 7.25,
      "duration": 0.125,
      "velocity": 89
    },
    {
      "pitch": 50,
      "start_time": 7.5,
      "duration": 0.125,
      "velocity": 67
    },
    {
      "pitch": 50,
      "start_time": 7.75,
      "duration": 0.125,
      "velocity": 86
    },
    {
      "pitch": 56,
      "start_time": 7.75,
      "duration": 0.125,
      "velocity": 57
    }
  ]
}