{
  "source": {
    "song": "packs",
    "track_index": 0,
    "track_name": "Retro Synths / Clips / Phazeform Vol 1 / 110-Chromia",
    "slot_index": 0,
    "clip_name": "Retro Synths / Clips / Phazeform Vol 1 / 110-Chromia",
    "mid_file": "/Users/darnold/Music/Ableton/Packs/Retro Synths/Clips/Phazeform Vol 1/110-Chromia.alc"
  },
  "meta": {
    "bpm": 110.0,
    "key": "?",
    "scale": "?",
    "length_beats": 8.0,
    "note_count": 44
  },
  "rhythm": {
    "density": 1.094,
    "hit_positions": [
      0.0,
      0.0,
      0.125,
      0.25,
      0.5,
      0.5,
      0.625,
      0.75,
      1.0,
      1.0,
      2.0,
      2.0,
      2.125,
      2.25,
      2.5,
      2.5,
      2.625,
      2.75,
      3.0,
      3.0,
      4.0,
      4.0,
      4.125,
      4.25,
      4.5,
      4.625,
      4.75,
      5.0,
      5.0,
      5.625,
      5.75,
      5.875,
      6.0,
      6.1667,
      6.3333,
      6.5,
      6.6667,
      6.8333,
      7.0,
      7.0,
      7.3333,
      7.5,
      7.6667,
      7.8333
    ],
    "ioi": [
      0.0,
      0.125,
      0.125,
      0.25,
      0.0,
      0.125,
      0.125,
      0.25,
      0.0,
      1.0,
      0.0,
      0.125,
      0.125,
      0.25,
      0.0,
      0.125,
      0.125,
      0.25,
      0.0,
      1.0,
      0.0,
      0.125,
      0.125,
      0.25,
      0.125,
      0.125,
      0.25,
      0.0,
      0.625,
      0.125,
      0.125,
      0.125,
      0.1667,
      0.1666,
      0.1667,
      0.1667,
      0.1666,
      0.1667,
      0.0,
      0.3333,
      0.1667,
      0.1667,
      0.1666,
      0.1667
    ],
    "grid": "16th",
    "euclidean_approx": [
      32,
      32
    ],
    "swing_ratio": 1.153
  },
  "pitch": {
    "notes_used": [
      48,
      49,
      50,
      51,
      52,
      53,
      55
    ],
    "intervals": [
      5,
      0,
      0,
      5,
      4,
      0,
      0,
      2,
      1,
      3,
      5,
      0,
      0,
      5,
      4,
      0,
      0,
      2,
      1,
      3,
      7,
      0,
      0,
      6,
      0,
      0,
      1,
      1,
      4,
      0,
      0,
      6,
      0,
      0,
      1,
      0,
      0,
      2,
      1,
      3,
      0,
      0,
      0
    ],
    "register": "mid",
    "is_melodic": true,
    "pitch_range": 7,
    "pitch_distribution": {
      "48": 12,
      "53": 6,
      "52": 6,
      "50": 4,
      "51": 4,
      "55": 6,
      "49": 6
    }
  },
  "velocity": {
    "mean": 100.0,
    "variance": 577.3,
    "std": 24.0,
    "accents": [
      0,
      4,
      8,
      9,
      10,
      14,
      18,
      19,
      20,
      21,
      27,
      28,
      35,
      36,
      37,
      38,
      39
    ],
    "profile": [
      127,
      94,
      94,
      94,
      127,
      94,
      94,
      94,
      127,
      127,
      127,
      94,
      94,
      94,
      127,
      94,
      94,
      94,
      127,
      127,
      127,
      127,
      82,
      82,
      82,
      82,
      82,
      127,
      127,
      73,
      73,
      73,
      73,
      73,
      73,
      127,
      127,
      127,
      127,
      127,
      98,
      77,
      45,
      45
    ]
  },
  "notes": [
    {
      "pitch": 48,
      "start_time": 0.0,
      "duration": 0.25,
      "velocity": 127
    },
    {
      "pitch": 53,
      "start_time": 0.0,
      "duration": 0.125,
      "velocity": 94
    },
    {
      "pitch": 53,
      "start_time": 0.125,
      "duration": 0.125,
      "velocity": 94
    },
    {
      "pitch": 53,
      "start_time": 0.25,
      "duration": 0.125,
      "velocity": 94
    },
    {
      "pitch": 48,
      "start_time": 0.5,
      "duration": 0.25,
      "velocity": 127
    },
    {
      "pitch": 52,
      "start_time": 0.5,
      "duration": 0.125,
      "velocity": 94
    },
    {
      "pitch": 52,
      "start_time": 0.625,
      "duration": 0.125,
      "velocity": 94
    },
    {
      "pitch": 52,
      "start_time": 0.75,
      "duration": 0.125,
      "velocity": 94
    },
    {
      "pitch": 50,
      "start_time": 1.0,
      "duration": 0.25,
      "velocity": 127
    },
    {
      "pitch": 51,
      "start_time": 1.0,
      "duration": 0.25,
      "velocity": 127
    },
    {
      "pitch": 48,
      "start_time": 2.0,
      "duration": 0.25,
      "velocity": 127
    },
    {
      "pitch": 53,
      "start_time": 2.0,
      "duration": 0.125,
      "velocity": 94
    },
    {
      "pitch": 53,
      "start_time": 2.125,
      "duration": 0.125,
      "velocity": 94
    },
    {
      "pitch": 53,
      "start_time": 2.25,
      "duration": 0.125,
      "velocity": 94
    },
    {
      "pitch": 48,
      "start_time": 2.5,
      "duration": 0.25,
      "velocity": 127
    },
    {
      "pitch": 52,
      "start_time": 2.5,
      "duration": 0.125,
      "velocity": 94
    },
    {
      "pitch": 52,
      "start_time": 2.625,
      "duration": 0.125,
      "velocity": 94
    },
    {
      "pitch": 52,
      "start_time": 2.75,
      "duration": 0.125,
      "velocity": 94
    },
    {
      "pitch": 50,
      "start_time": 3.0,
      "duration": 0.25,
      "velocity": 127
    },
    {
      "pitch": 51,
      "start_time": 3.0,
      "duration": 0.25,
      "velocity": 127
    },
    {
      "pitch": 48,
      "start_time": 4.0,
      "duration": 0.25,
      "velocity": 127
    },
    {
      "pitch": 55,
      "start_time": 4.0,
      "duration": 0.125,
      "velocity": 127
    },
    {
      "pitch": 55,
      "start_time": 4.125,
      "duration": 0.125,
      "velocity": 82
    },
    {
      "pitch": 55,
      "start_time": 4.25,
      "duration": 0.125,
      "velocity": 82
    },
    {
      "pitch": 49,
      "start_time": 4.5,
      "duration": 0.125,
      "velocity": 82
    },
    {
      "pitch": 49,
      "start_time": 4.625,
      "duration": 0.125,
      "velocity": 82
    },
    {
      "pitch": 49,
      "start_time": 4.75,
      "duration": 0.125,
      "velocity": 82
    },
    {
      "pitch": 50,
      "start_time": 5.0,
      "duration": 0.25,
      "velocity": 127
    },
    {
      "pitch": 51,
      "start_time": 5.0,
      "duration": 0.25,
      "velocity": 127
    },
    {
      "pitch": 55,
      "start_time": 5.625,
      "duration": 0.125,
      "velocity": 73
    },
    {
      "pitch": 55,
      "start_time": 5.75,
      "duration": 0.125,
      "velocity": 73
    },
    {
      "pitch": 55,
      "start_time": 5.875,
      "duration": 0.125,
      "velocity": 73
    },
    {
      "pitch": 49,
      "start_time": 6.0,
      "duration": 0.125,
      "velocity": 73
    },
    {
      "pitch": 49,
      "start_time": 6.1667,
      "duration": 0.0833,
      "velocity": 73
    },
    {
      "pitch": 49,
      "start_time": 6.3333,
      "duration": 0.125,
      "velocity": 73
    },
    {
      "pitch": 48,
      "start_time": 6.5,
      "duration": 0.125,
      "velocity": 127
    },
    {
      "pitch": 48,
      "start_time": 6.6667,
      "duration": 0.125,
      "velocity": 127
    },
    {
      "pitch": 48,
      "start_time": 6.8333,
      "duration": 0.125,
      "velocity": 127
    },
    {
      "pitch": 50,
      "start_time": 7.0,
      "duration": 0.25,
      "velocity": 127
    },
    {
      "pitch": 51,
      "start_time": 7.0,
      "duration": 0.25,
      "velocity": 127
    },
    {
      "pitch": 48,
      "start_time": 7.3333,
      "duration": 0.125,
      "velocity": 98
    },
    {
      "pitch": 48,
      "start_time": 7.5,
      "duration": 0.125,
      "velocity": 77
    },
    {
      "pitch": 48,
      "start_time": 7.6667,
      "duration": 0.125,
      "velocity": 45
    },
    {
      "pitch": 48,
      "start_time": 7.8333,
      "duration": 0.125,
      "velocity": 45
    }
  ]
}