{
  "source": {
    "song": "packs",
    "track_index": 0,
    "track_name": "Retro Synths / Clips / TeeBee / Flavour",
    "slot_index": 0,
    "clip_name": "Retro Synths / Clips / TeeBee / Flavour",
    "mid_file": "/Users/darnold/Music/Ableton/Packs/Retro Synths/Clips/TeeBee/Flavour.alc"
  },
  "meta": {
    "bpm": 115.0,
    "key": "?",
    "scale": "?",
    "length_beats": 8.0,
    "note_count": 26
  },
  "rhythm": {
    "density": 1.625,
    "hit_positions": [
      0.0,
      0.25,
      0.5,
      0.75,
      1.0,
      1.25,
      1.5,
      2.0,
      2.25,
      2.75,
      3.0,
      3.25,
      3.5,
      3.75,
      4.0,
      4.25,
      4.5,
      5.0,
      5.25,
      5.5,
      6.0,
      6.25,
      6.5,
      6.75,
      7.0,
      7.5
    ],
    "ioi": [
      0.25,
      0.25,
      0.25,
      0.25,
      0.25,
      0.25,
      0.5,
      0.25,
      0.5,
      0.25,
      0.25,
      0.25,
      0.25,
      0.25,
      0.25,
      0.25,
      0.5,
      0.25,
      0.25,
      0.5,
      0.25,
      0.25,
      0.25,
      0.25,
      0.5,
      0.5
    ],
    "grid": "8th",
    "euclidean_approx": [
      26,
      32
    ],
    "swing_ratio": 1.0
  },
  "pitch": {
    "notes_used": [
      55,
      57,
      59,
      60,
      62,
      64,
      67,
      69,
      71,
      76
    ],
    "intervals": [
      16,
      14,
      5,
      12,
      2,
      5,
      2,
      7,
      7,
      12,
      14,
      3,
      3,
      7,
      0,
      12,
      4,
      2,
      10,
      0,
      2,
      0,
      2,
      0,
      4
    ],
    "register": "mid",
    "is_melodic": true,
    "pitch_range": 21,
    "pitch_distribution": {
      "60": 1,
      "76": 2,
      "62": 4,
      "57": 4,
      "69": 2,
      "67": 2,
      "64": 2,
      "59": 5,
      "55": 3,
      "71": 1
    }
  },
  "velocity": {
    "mean": 100.0,
    "variance": 0.0,
    "std": 0.0,
    "accents": [],
    "profile": [
      100,
      100,
      100,
      100,
      100,
      100,
      100,
      100,
      100,
      100,
      100,
      100,
      100,
      100,
      100,
      100,
      100,
      100,
      100,
      100,
      100,
      100,
      100,
      100,
      100,
      100
    ]
  },
  "notes": [
    {
      "pitch": 60,
      "start_time": 0.0,
      "duration": 0.25,
      "velocity": 100
    },
    {
      "pitch": 76,
      "start_time": 0.25,
      "duration": 0.125,
      "velocity": 100
    },
    {
      "pitch": 62,
      "start_time": 0.5,
      "duration": 0.125,
      "velocity": 100
    },
    {
      "pitch": 57,
      "start_time": 0.75,
      "duration": 0.125,
      "velocity": 100
    },
    {
      "pitch": 69,
      "start_time": 1.0,
      "duration": 0.125,
      "velocity": 100
    },
    {
      "pitch": 67,
      "start_time": 1.25,
      "duration": 0.125,
      "velocity": 100
    },
    {
      "pitch": 62,
      "start_time": 1.5,
      "duration": 0.125,
      "velocity": 100
    },
    {
      "pitch": 64,
      "start_time": 2.0,
      "duration": 0.25,
      "velocity": 100
    },
    {
      "pitch": 57,
      "start_time": 2.25,
      "duration": 0.25,
      "velocity": 100
    },
    {
      "pitch": 64,
      "start_time": 2.75,
      "duration": 0.25,
      "velocity": 100
    },
    {
      "pitch": 76,
      "start_time": 3.0,
      "duration": 0.125,
      "velocity": 100
    },
    {
      "pitch": 62,
      "start_time": 3.25,
      "duration": 0.125,
      "velocity": 100
    },
    {
      "pitch": 59,
      "start_time": 3.5,
      "duration": 0.125,
      "velocity": 100
    },
    {
      "pitch": 62,
      "start_time": 3.75,
      "duration": 0.125,
      "velocity": 100
    },
    {
      "pitch": 55,
      "start_time": 4.0,
      "duration": 0.125,
      "velocity": 100
    },
    {
      "pitch": 55,
      "start_time": 4.25,
      "duration": 0.375,
      "velocity": 100
    },
    {
      "pitch": 67,
      "start_time": 4.5,
      "duration": 0.25,
      "velocity": 100
    },
    {
      "pitch": 71,
      "start_time": 5.0,
      "duration": 0.125,
      "velocity": 100
    },
    {
      "pitch": 69,
      "start_time": 5.25,
      "duration": 0.25,
      "velocity": 100
    },
    {
      "pitch": 59,
      "start_time": 5.5,
      "duration": 0.5,
      "velocity": 100
    },
    {
      "pitch": 59,
      "start_time": 6.0,
      "duration": 0.125,
      "velocity": 100
    },
    {
      "pitch": 57,
      "start_time": 6.25,
      "duration": 0.125,
      "velocity": 100
    },
    {
      "pitch": 57,
      "start_time": 6.5,
      "duration": 0.125,
      "velocity": 100
    },
    {
      "pitch": 59,
      "start_time": 6.75,
      "duration": 0.125,
      "velocity": 100
    },
    {
      "pitch": 59,
      "start_time": 7.0,
      "duration": 0.875,
      "velocity": 100
    },
    {
      "pitch": 55,
      "start_time": 7.5,
      "duration": 0.5,
      "velocity": 100
    }
  ]
}