{
  "source": {
    "song": "packs",
    "track_index": 0,
    "track_name": "Retro Synths / Clips / TeeBee / Newtown",
    "slot_index": 0,
    "clip_name": "Retro Synths / Clips / TeeBee / Newtown",
    "mid_file": "/Users/darnold/Music/Ableton/Packs/Retro Synths/Clips/TeeBee/Newtown.alc"
  },
  "meta": {
    "bpm": 115.0,
    "key": "?",
    "scale": "?",
    "length_beats": 16.0,
    "note_count": 26
  },
  "rhythm": {
    "density": 0.812,
    "hit_positions": [
      0.0,
      0.75,
      1.5,
      1.75,
      2.0,
      3.0,
      3.5,
      4.0,
      4.75,
      5.25,
      5.75,
      6.25,
      7.0,
      7.5,
      8.0,
      8.75,
      9.5,
      10.0,
      11.0,
      11.5,
      12.0,
      12.75,
      13.25,
      13.75,
      14.25,
      15.0
    ],
    "ioi": [
      0.75,
      0.75,
      0.25,
      0.25,
      1.0,
      0.5,
      0.5,
      0.75,
      0.5,
      0.5,
      0.5,
      0.75,
      0.5,
      0.5,
      0.75,
      0.75,
      0.5,
      1.0,
      0.5,
      0.5,
      0.75,
      0.5,
      0.5,
      0.5,
      0.75,
      1.0
    ],
    "grid": "8th",
    "euclidean_approx": [
      26,
      64
    ],
    "swing_ratio": 1.0
  },
  "pitch": {
    "notes_used": [
      58,
      60,
      63,
      65,
      67
    ],
    "intervals": [
      3,
      4,
      7,
      3,
      4,
      7,
      3,
      3,
      3,
      2,
      0,
      0,
      2,
      7,
      3,
      4,
      4,
      4,
      7,
      3,
      3,
      3,
      5,
      0,
      0
    ],
    "register": "mid",
    "is_melodic": true,
    "pitch_range": 9,
    "pitch_distribution": {
      "60": 7,
      "63": 8,
      "67": 5,
      "65": 3,
      "58": 3
    }
  },
  "velocity": {
    "mean": 100.0,
    "variance": 0.0,
    "std": 0.0,
    "accents": [],
    "profile": [
      100,
      100,
      100,
      100,
      100,
      100,
      100,
      100,
      100,
      100,
      100,
      100,
      100,
      100,
      100,
      100,
      100,
      100,
      100,
      100,
      100,
      100,
      100,
      100,
      100,
      100
    ]
  },
  "notes": [
    {
      "pitch": 60,
      "start_time": 0.0,
      "duration": 0.5,
      "velocity": 100
    },
    {
      "pitch": 63,
      "start_time": 0.75,
      "duration": 0.25,
      "velocity": 100
    },
    {
      "pitch": 67,
      "start_time": 1.5,
      "duration": 0.5,
      "velocity": 100
    },
    {
      "pitch": 60,
      "start_time": 1.75,
      "duration": 0.25,
      "velocity": 100
    },
    {
      "pitch": 63,
      "start_time": 2.0,
      "duration": 0.5,
      "velocity": 100
    },
    {
      "pitch": 67,
      "start_time": 3.0,
      "duration": 0.75,
      "velocity": 100
    },
    {
      "pitch": 60,
      "start_time": 3.5,
      "duration": 0.5,
      "velocity": 100
    },
    {
      "pitch": 63,
      "start_time": 4.0,
      "duration": 0.5,
      "velocity": 100
    },
    {
      "pitch": 60,
      "start_time": 4.75,
      "duration": 0.25,
      "velocity": 100
    },
    {
      "pitch": 63,
      "start_time": 5.25,
      "duration": 0.25,
      "velocity": 100
    },
    {
      "pitch": 65,
      "start_time": 5.75,
      "duration": 0.25,
      "velocity": 100
    },
    {
      "pitch": 65,
      "start_time": 6.25,
      "duration": 0.5,
      "velocity": 100
    },
    {
      "pitch": 65,
      "start_time": 7.0,
      "duration": 0.75,
      "velocity": 100
    },
    {
      "pitch": 67,
      "start_time": 7.5,
      "duration": 0.25,
      "velocity": 100
    },
    {
      "pitch": 60,
      "start_time": 8.0,
      "duration": 0.5,
      "velocity": 100
    },
    {
      "pitch": 63,
      "start_time": 8.75,
      "duration": 0.25,
      "velocity": 100
    },
    {
      "pitch": 67,
      "start_time": 9.5,
      "duration": 0.5,
      "velocity": 100
    },
    {
      "pitch": 63,
      "start_time": 10.0,
      "duration": 0.5,
      "velocity": 100
    },
    {
      "pitch": 67,
      "start_time": 11.0,
      "duration": 0.75,
      "velocity": 100
    },
    {
      "pitch": 60,
      "start_time": 11.5,
      "duration": 0.5,
      "velocity": 100
    },
    {
      "pitch": 63,
      "start_time": 12.0,
      "duration": 0.5,
      "velocity": 100
    },
    {
      "pitch": 60,
      "start_time": 12.75,
      "duration": 0.25,
      "velocity": 100
    },
    {
      "pitch": 63,
      "start_time": 13.25,
      "duration": 0.25,
      "velocity": 100
    },
    {
      "pitch": 58,
      "start_time": 13.75,
      "duration": 0.25,
      "velocity": 100
    },
    {
      "pitch": 58,
      "start_time": 14.25,
      "duration": 0.5,
      "velocity": 100
    },
    {
      "pitch": 58,
      "start_time": 15.0,
      "duration": 0.75,
      "velocity": 100
    }
  ]
}