{
  "source": {
    "song": "packs",
    "track_index": 0,
    "track_name": "Retro Synths / Clips / TeeBee / Fretlezz",
    "slot_index": 0,
    "clip_name": "Retro Synths / Clips / TeeBee / Fretlezz",
    "mid_file": "/Users/darnold/Music/Ableton/Packs/Retro Synths/Clips/TeeBee/Fretlezz.alc"
  },
  "meta": {
    "bpm": 115.0,
    "key": "?",
    "scale": "?",
    "length_beats": 16.0,
    "note_count": 28
  },
  "rhythm": {
    "density": 0.875,
    "hit_positions": [
      0.0,
      1.5,
      3.0,
      3.5,
      4.0,
      4.5,
      5.0,
      5.5,
      6.0,
      6.25,
      6.5,
      6.75,
      7.75,
      8.0,
      9.5,
      9.75,
      10.0,
      10.25,
      11.0,
      11.5,
      12.0,
      12.5,
      13.0,
      13.5,
      14.0,
      14.25,
      14.5,
      14.75
    ],
    "ioi": [
      1.5,
      1.5,
      0.5,
      0.5,
      0.5,
      0.5,
      0.5,
      0.5,
      0.25,
      0.25,
      0.25,
      1.0,
      0.25,
      1.5,
      0.25,
      0.25,
      0.25,
      0.75,
      0.5,
      0.5,
      0.5,
      0.5,
      0.5,
      0.5,
      0.25,
      0.25,
      0.25,
      1.25
    ],
    "grid": "8th",
    "euclidean_approx": [
      28,
      64
    ],
    "swing_ratio": 1.0
  },
  "pitch": {
    "notes_used": [
      60,
      62,
      65,
      67
    ],
    "intervals": [
      5,
      5,
      5,
      5,
      0,
      0,
      5,
      2,
      5,
      5,
      5,
      2,
      0,
      5,
      2,
      0,
      0,
      7,
      5,
      5,
      0,
      0,
      5,
      2,
      5,
      5,
      5
    ],
    "register": "mid",
    "is_melodic": true,
    "pitch_range": 7,
    "pitch_distribution": {
      "60": 11,
      "65": 6,
      "67": 7,
      "62": 4
    }
  },
  "velocity": {
    "mean": 100.0,
    "variance": 0.0,
    "std": 0.0,
    "accents": [],
    "profile": [
      100,
      100,
      100,
      100,
      100,
      100,
      100,
      100,
      100,
      100,
      100,
      100,
      100,
      100,
      100,
      100,
      100,
      100,
      100,
      100,
      100,
      100,
      100,
      100,
      100,
      100,
      100,
      100
    ]
  },
  "notes": [
    {
      "pitch": 60,
      "start_time": 0.0,
      "duration": 1.0,
      "velocity": 100
    },
    {
      "pitch": 65,
      "start_time": 1.5,
      "duration": 0.25,
      "velocity": 100
    },
    {
      "pitch": 60,
      "start_time": 3.0,
      "duration": 0.25,
      "velocity": 100
    },
    {
      "pitch": 65,
      "start_time": 3.5,
      "duration": 0.25,
      "velocity": 100
    },
    {
      "pitch": 60,
      "start_time": 4.0,
      "duration": 0.25,
      "velocity": 100
    },
    {
      "pitch": 60,
      "start_time": 4.5,
      "duration": 0.25,
      "velocity": 100
    },
    {
      "pitch": 60,
      "start_time": 5.0,
      "duration": 0.25,
      "velocity": 100
    },
    {
      "pitch": 65,
      "start_time": 5.5,
      "duration": 0.25,
      "velocity": 100
    },
    {
      "pitch": 67,
      "start_time": 6.0,
      "duration": 0.25,
      "velocity": 100
    },
    {
      "pitch": 62,
      "start_time": 6.25,
      "duration": 0.25,
      "velocity": 100
    },
    {
      "pitch": 67,
      "start_time": 6.5,
      "duration": 0.25,
      "velocity": 100
    },
    {
      "pitch": 62,
      "start_time": 6.75,
      "duration": 0.25,
      "velocity": 100
    },
    {
      "pitch": 60,
      "start_time": 7.75,
      "duration": 0.25,
      "velocity": 100
    },
    {
      "pitch": 60,
      "start_time": 8.0,
      "duration": 1.0,
      "velocity": 100
    },
    {
      "pitch": 65,
      "start_time": 9.5,
      "duration": 0.375,
      "velocity": 100
    },
    {
      "pitch": 67,
      "start_time": 9.75,
      "duration": 0.125,
      "velocity": 100
    },
    {
      "pitch": 67,
      "start_time": 10.0,
      "duration": 0.125,
      "velocity": 100
    },
    {
      "pitch": 67,
      "start_time": 10.25,
      "duration": 0.125,
      "velocity": 100
    },
    {
      "pitch": 60,
      "start_time": 11.0,
      "duration": 0.25,
      "velocity": 100
    },
    {
      "pitch": 65,
      "start_time": 11.5,
      "duration": 0.25,
      "velocity": 100
    },
    {
      "pitch": 60,
      "start_time": 12.0,
      "duration": 0.25,
      "velocity": 100
    },
    {
      "pitch": 60,
      "start_time": 12.5,
      "duration": 0.25,
      "velocity": 100
    },
    {
      "pitch": 60,
      "start_time": 13.0,
      "duration": 0.25,
      "velocity": 100
    },
    {
      "pitch": 65,
      "start_time": 13.5,
      "duration": 0.25,
      "velocity": 100
    },
    {
      "pitch": 67,
      "start_time": 14.0,
      "duration": 0.25,
      "velocity": 100
    },
    {
      "pitch": 62,
      "start_time": 14.25,
      "duration": 0.25,
      "velocity": 100
    },
    {
      "pitch": 67,
      "start_time": 14.5,
      "duration": 0.25,
      "velocity": 100
    },
    {
      "pitch": 62,
      "start_time": 14.75,
      "duration": 0.75,
      "velocity": 100
    }
  ]
}