{
  "source": {
    "song": "packs",
    "track_index": 0,
    "track_name": "Skitter and Step / MIDI Clips / 120 - 150 BPM / Night Shade Kit 133 bpm",
    "slot_index": 0,
    "clip_name": "Skitter and Step / MIDI Clips / 120 - 150 BPM / Night Shade Kit 133 bpm",
    "mid_file": "/Users/darnold/Music/Ableton/Packs/Skitter and Step/MIDI Clips/120 - 150 BPM/Night Shade Kit 133 bpm.alc"
  },
  "meta": {
    "bpm": 133.0,
    "key": "?",
    "scale": "?",
    "length_beats": 8.0,
    "note_count": 92
  },
  "rhythm": {
    "density": 1.094,
    "hit_positions": [
      0.0,
      0.0,
      0.0,
      0.0,
      0.25,
      0.25,
      0.5,
      0.5,
      0.75,
      1.0,
      1.0,
      1.0,
      1.0103,
      1.25,
      1.5,
      1.5,
      1.5,
      1.75,
      1.875,
      2.0,
      2.0,
      2.25,
      2.4987,
      2.5,
      2.5,
      2.75,
      3.0,
      3.0,
      3.0,
      3.0,
      3.0047,
      3.0624,
      3.25,
      3.5,
      3.5,
      3.5106,
      3.75,
      4.0,
      4.0,
      4.0,
      4.25,
      4.5,
      4.5,
      4.5101,
      4.75,
      4.75,
      5.0,
      5.0,
      5.0,
      5.0,
      5.0,
      5.0258,
      5.25,
      5.5,
      5.5,
      5.5,
      5.75,
      5.75,
      6.0,
      6.0,
      6.0,
      6.0152,
      6.0208,
      6.0217,
      6.25,
      6.25,
      6.5,
      6.5,
      6.5,
      6.5,
      6.5089,
      6.5097,
      6.75,
      6.75,
      6.7683,
      6.9994,
      7.0,
      7.0,
      7.0,
      7.0,
      7.0,
      7.0182,
      7.025,
      7.25,
      7.25,
      7.4918,
      7.4966,
      7.5,
      7.5,
      7.5,
      7.75,
      9.9264
    ],
    "ioi": [
      0.0,
      0.0,
      0.0,
      0.25,
      0.0,
      0.25,
      0.0,
      0.25,
      0.25,
      0.0,
      0.0,
      0.0103,
      0.2397,
      0.25,
      0.0,
      0.0,
      0.25,
      0.125,
      0.125,
      0.0,
      0.25,
      0.2487,
      0.0013,
      0.0,
      0.25,
      0.25,
      0.0,
      0.0,
      0.0,
      0.0047,
      0.0577,
      0.1876,
      0.25,
      0.0,
      0.0106,
      0.2394,
      0.25,
      0.0,
      0.0,
      0.25,
      0.25,
      0.0,
      0.0101,
      0.2399,
      0.0,
      0.25,
      0.0,
      0.0,
      0.0,
      0.0,
      0.0258,
      0.2242,
      0.25,
      0.0,
      0.0,
      0.25,
      0.0,
      0.25,
      0.0,
      0.0,
      0.0152,
      0.0056,
      0.0009,
      0.2283,
      0.0,
      0.25,
      0.0,
      0.0,
      0.0,
      0.0089,
      0.0008,
      0.2403,
      0.0,
      0.0183,
      0.2311,
      0.0006,
      0.0,
      0.0,
      0.0,
      0.0,
      0.0182,
      0.0068,
      0.225,
      0.0,
      0.2418,
      0.0048,
      0.0034,
      0.0,
      0.0,
      0.25,
      2.1764,
      -1.9264
    ],
    "grid": "16th",
    "euclidean_approx": [
      32,
      32
    ],
    "swing_ratio": 1.18
  },
  "pitch": {
    "notes_used": [
      36,
      37,
      39,
      40,
      41,
      42,
      43,
      44,
      45,
      47,
      48,
      49,
      50,
      51
    ],
    "intervals": [
      6,
      2,
      5,
      7,
      2,
      2,
      2,
      2,
      5,
      5,
      2,
      4,
      2,
      1,
      1,
      2,
      2,
      6,
      6,
      2,
      2,
      6,
      6,
      2,
      2,
      5,
      2,
      3,
      2,
      3,
      2,
      3,
      0,
      2,
      4,
      2,
      0,
      2,
      4,
      6,
      0,
      2,
      8,
      6,
      1,
      6,
      2,
      3,
      1,
      1,
      4,
      2,
      0,
      1,
      1,
      2,
      1,
      1,
      1,
      1,
      8,
      5,
      10,
      9,
      1,
      7,
      6,
      1,
      1,
      3,
      10,
      9,
      1,
      7,
      5,
      4,
      2,
      3,
      1,
      1,
      4,
      11,
      9,
      1,
      7,
      5,
      1,
      1,
      1,
      2,
      8
    ],
    "register": "low",
    "is_melodic": true,
    "pitch_range": 15,
    "pitch_distribution": {
      "36": 7,
      "42": 32,
      "44": 17,
      "49": 1,
      "37": 4,
      "40": 4,
      "41": 5,
      "48": 2,
      "39": 3,
      "47": 1,
      "45": 1,
      "43": 11,
      "51": 3,
      "50": 1
    }
  },
  "velocity": {
    "mean": 81.3,
    "variance": 1095.6,
    "std": 33.1,
    "accents": [
      9,
      12,
      14,
      18,
      26,
      27,
      31,
      44,
      46,
      47,
      48,
      51,
      61,
      71,
      76,
      77,
      81,
      82,
      85,
      87
    ],
    "profile": [
      108,
      95,
      67,
      91,
      89,
      67,
      80,
      47,
      80,
      127,
      69,
      34,
      118,
      89,
      122,
      57,
      51,
      52,
      127,
      69,
      35,
      79,
      114,
      76,
      57,
      94,
      127,
      127,
      104,
      38,
      104,
      116,
      76,
      62,
      46,
      112,
      84,
      105,
      62,
      90,
      110,
      112,
      15,
      112,
      115,
      72,
      127,
      127,
      115,
      10,
      35,
      118,
      76,
      62,
      38,
      29,
      66,
      12,
      74,
      35,
      55,
      120,
      35,
      111,
      69,
      31,
      100,
      69,
      31,
      41,
      48,
      124,
      94,
      29,
      110,
      68,
      127,
      127,
      99,
      34,
      83,
      122,
      122,
      104,
      54,
      120,
      100,
      119,
      78,
      57,
      114,
      76
    ]
  },
  "notes": [
    {
      "pitch": 36,
      "start_time": 0.0,
      "duration": 0.7738,
      "velocity": 108
    },
    {
      "pitch": 42,
      "start_time": 0.0,
      "duration": 0.25,
      "velocity": 95
    },
    {
      "pitch": 44,
      "start_time": 0.0,
      "duration": 0.125,
      "velocity": 67
    },
    {
      "pitch": 49,
      "start_time": 0.0,
      "duration": 2.9807,
      "velocity": 91
    },
    {
      "pitch": 42,
      "start_time": 0.25,
      "duration": 0.25,
      "velocity": 89
    },
    {
      "pitch": 44,
      "start_time": 0.25,
      "duration": 0.125,
      "velocity": 67
    },
    {
      "pitch": 42,
      "start_time": 0.5,
      "duration": 0.25,
      "velocity": 80
    },
    {
      "pitch": 44,
      "start_time": 0.5,
      "duration": 0.5,
      "velocity": 47
    },
    {
      "pitch": 42,
      "start_time": 0.75,
      "duration": 0.25,
      "velocity": 80
    },
    {
      "pitch": 37,
      "start_time": 1.0,
      "duration": 0.5,
      "velocity": 127
    },
    {
      "pitch": 42,
      "start_time": 1.0,
      "duration": 0.1923,
      "velocity": 69
    },
    {
      "pitch": 44,
      "start_time": 1.0,
      "duration": 0.5,
      "velocity": 34
    },
    {
      "pitch": 40,
      "start_time": 1.0103,
      "duration": 0.5581,
      "velocity": 118
    },
    {
      "pitch": 42,
      "start_time": 1.25,
      "duration": 0.25,
      "velocity": 89
    },
    {
      "pitch": 41,
      "start_time": 1.5,
      "duration": 2.2324,
      "velocity": 122
    },
    {
      "pitch": 42,
      "start_time": 1.5,
      "duration": 0.25,
      "velocity": 57
    },
    {
      "pitch": 44,
      "start_time": 1.5,
      "duration": 0.5,
      "velocity": 51
    },
    {
      "pitch": 42,
      "start_time": 1.75,
      "duration": 0.25,
      "velocity": 52
    },
    {
      "pitch": 48,
      "start_time": 1.875,
      "duration": 2.0,
      "velocity": 127
    },
    {
      "pitch": 42,
      "start_time": 2.0,
      "duration": 0.25,
      "velocity": 69
    },
    {
      "pitch": 44,
      "start_time": 2.0,
      "duration": 0.5,
      "velocity": 35
    },
    {
      "pitch": 42,
      "start_time": 2.25,
      "duration": 0.25,
      "velocity": 79
    },
    {
      "pitch": 36,
      "start_time": 2.4987,
      "duration": 0.4334,
      "velocity": 114
    },
    {
      "pitch": 42,
      "start_time": 2.5,
      "duration": 0.25,
      "velocity": 76
    },
    {
      "pitch": 44,
      "start_time": 2.5,
      "duration": 0.5,
      "velocity": 57
    },
    {
      "pitch": 42,
      "start_time": 2.75,
      "duration": 0.25,
      "velocity": 94
    },
    {
      "pitch": 37,
      "start_time": 3.0,
      "duration": 0.5,
      "velocity": 127
    },
    {
      "pitch": 39,
      "start_time": 3.0,
      "duration": 0.5,
      "velocity": 127
    },
    {
      "pitch": 42,
      "start_time": 3.0,
      "duration": 0.25,
      "velocity": 104
    },
    {
      "pitch": 44,
      "start_time": 3.0,
      "duration": 0.5,
      "velocity": 38
    },
    {
      "pitch": 47,
      "start_time": 3.0047,
      "duration": 0.9396,
      "velocity": 104
    },
    {
      "pitch": 45,
      "start_time": 3.0624,
      "duration": 0.8116,
      "velocity": 116
    },
    {
      "pitch": 42,
      "start_time": 3.25,
      "duration": 0.25,
      "velocity": 76
    },
    {
      "pitch": 42,
      "start_time": 3.5,
      "duration": 0.25,
      "velocity": 62
    },
    {
      "pitch": 44,
      "start_time": 3.5,
      "duration": 0.5,
      "velocity": 46
    },
    {
      "pitch": 40,
      "start_time": 3.5106,
      "duration": 0.3826,
      "velocity": 112
    },
    {
      "pitch": 42,
      "start_time": 3.75,
      "duration": 0.25,
      "velocity": 84
    },
    {
      "pitch": 42,
      "start_time": 4.0,
      "duration": 0.25,
      "velocity": 105
    },
    {
      "pitch": 44,
      "start_time": 4.0,
      "duration": 0.5,
      "velocity": 62
    },
    {
      "pitch": 48,
      "start_time": 4.0,
      "duration": 1.3477,
      "velocity": 90
    },
    {
      "pitch": 42,
      "start_time": 4.25,
      "duration": 0.25,
      "velocity": 110
    },
    {
      "pitch": 42,
      "start_time": 4.5,
      "duration": 0.25,
      "velocity": 112
    },
    {
      "pitch": 44,
      "start_time": 4.5,
      "duration": 0.5,
      "velocity": 15
    },
    {
      "pitch": 36,
      "start_time": 4.5101,
      "duration": 0.3171,
      "velocity": 112
    },
    {
      "pitch": 42,
      "start_time": 4.75,
      "duration": 0.25,
      "velocity": 115
    },
    {
      "pitch": 43,
      "start_time": 4.75,
      "duration": 0.25,
      "velocity": 72
    },
    {
      "pitch": 37,
      "start_time": 5.0,
      "duration": 0.5,
      "velocity": 127
    },
    {
      "pitch": 39,
      "start_time": 5.0,
      "duration": 0.5,
      "velocity": 127
    },
    {
      "pitch": 42,
      "start_time": 5.0,
      "duration": 0.25,
      "velocity": 115
    },
    {
      "pitch": 43,
      "start_time": 5.0,
      "duration": 0.205,
      "velocity": 10
    },
    {
      "pitch": 44,
      "start_time": 5.0,
      "duration": 0.5,
      "velocity": 35
    },
    {
      "pitch": 40,
      "start_time": 5.0258,
      "duration": 0.329,
      "velocity": 118
    },
    {
      "pitch": 42,
      "start_time": 5.25,
      "duration": 0.25,
      "velocity": 76
    },
    {
      "pitch": 42,
      "start_time": 5.5,
      "duration": 0.25,
      "velocity": 62
    },
    {
      "pitch": 43,
      "start_time": 5.5,
      "duration": 0.25,
      "velocity": 38
    },
    {
      "pitch": 44,
      "start_time": 5.5,
      "duration": 0.5,
      "velocity": 29
    },
    {
      "pitch": 42,
      "start_time": 5.75,
      "duration": 0.25,
      "velocity": 66
    },
    {
      "pitch": 43,
      "start_time": 5.75,
      "duration": 0.25,
      "velocity": 12
    },
    {
      "pitch": 42,
      "start_time": 6.0,
      "duration": 0.25,
      "velocity": 74
    },
    {
      "pitch": 43,
      "start_time": 6.0,
      "duration": 0.25,
      "velocity": 35
    },
    {
      "pitch": 44,
      "start_time": 6.0,
      "duration": 0.2711,
      "velocity": 55
    },
    {
      "pitch": 36,
      "start_time": 6.0152,
      "duration": 0.3174,
      "velocity": 120
    },
    {
      "pitch": 41,
      "start_time": 6.0208,
      "duration": 0.1329,
      "velocity": 35
    },
    {
      "pitch": 51,
      "start_time": 6.0217,
      "duration": 0.1215,
      "velocity": 111
    },
    {
      "pitch": 42,
      "start_time": 6.25,
      "duration": 0.25,
      "velocity": 69
    },
    {
      "pitch": 43,
      "start_time": 6.25,
      "duration": 0.25,
      "velocity": 31
    },
    {
      "pitch": 36,
      "start_time": 6.5,
      "duration": 0.25,
      "velocity": 100
    },
    {
      "pitch": 42,
      "start_time": 6.5,
      "duration": 0.25,
      "velocity": 69
    },
    {
      "pitch": 43,
      "start_time": 6.5,
      "duration": 0.25,
      "velocity": 31
    },
    {
      "pitch": 44,
      "start_time": 6.5,
      "duration": 0.5,
      "velocity": 41
    },
    {
      "pitch": 41,
      "start_time": 6.5089,
      "duration": 0.1757,
      "velocity": 48
    },
    {
      "pitch": 51,
      "start_time": 6.5097,
      "duration": 0.173,
      "velocity": 124
    },
    {
      "pitch": 42,
      "start_time": 6.75,
      "duration": 0.25,
      "velocity": 94
    },
    {
      "pitch": 43,
      "start_time": 6.75,
      "duration": 0.25,
      "velocity": 29
    },
    {
      "pitch": 36,
      "start_time": 6.7683,
      "duration": 0.272,
      "velocity": 110
    },
    {
      "pitch": 41,
      "start_time": 6.9994,
      "duration": 0.2182,
      "velocity": 68
    },
    {
      "pitch": 37,
      "start_time": 7.0,
      "duration": 0.375,
      "velocity": 127
    },
    {
      "pitch": 39,
      "start_time": 7.0,
      "duration": 0.5,
      "velocity": 127
    },
    {
      "pitch": 42,
      "start_time": 7.0,
      "duration": 0.25,
      "velocity": 99
    },
    {
      "pitch": 43,
      "start_time": 7.0,
      "duration": 0.25,
      "velocity": 34
    },
    {
      "pitch": 44,
      "start_time": 7.0,
      "duration": 0.4688,
      "velocity": 83
    },
    {
      "pitch": 40,
      "start_time": 7.0182,
      "duration": 0.3032,
      "velocity": 122
    },
    {
      "pitch": 51,
      "start_time": 7.025,
      "duration": 0.1922,
      "velocity": 122
    },
    {
      "pitch": 42,
      "start_time": 7.25,
      "duration": 0.25,
      "velocity": 104
    },
    {
      "pitch": 43,
      "start_time": 7.25,
      "duration": 0.25,
      "velocity": 54
    },
    {
      "pitch": 36,
      "start_time": 7.4918,
      "duration": 0.2781,
      "velocity": 120
    },
    {
      "pitch": 41,
      "start_time": 7.4966,
      "duration": 0.2548,
      "velocity": 100
    },
    {
      "pitch": 42,
      "start_time": 7.5,
      "duration": 0.25,
      "velocity": 119
    },
    {
      "pitch": 43,
      "start_time": 7.5,
      "duration": 0.2286,
      "velocity": 78
    },
    {
      "pitch": 44,
      "start_time": 7.5,
      "duration": 0.2581,
      "velocity": 57
    },
    {
      "pitch": 42,
      "start_time": 7.75,
      "duration": 0.25,
      "velocity": 114
    },
    {
      "pitch": 50,
      "start_time": 9.9264,
      "duration": 0.001,
      "velocity": 76
    }
  ]
}