{
  "source": {
    "song": "packs",
    "track_index": 0,
    "track_name": "Skitter and Step / MIDI Clips / 150 - 180 BPM / Rollin Breaks Kit 162 bpm",
    "slot_index": 0,
    "clip_name": "Skitter and Step / MIDI Clips / 150 - 180 BPM / Rollin Breaks Kit 162 bpm",
    "mid_file": "/Users/darnold/Music/Ableton/Packs/Skitter and Step/MIDI Clips/150 - 180 BPM/Rollin Breaks Kit 162 bpm.alc"
  },
  "meta": {
    "bpm": 162.0,
    "key": "?",
    "scale": "?",
    "length_beats": 16.0,
    "note_count": 127
  },
  "rhythm": {
    "density": 0.844,
    "hit_positions": [
      0.0,
      0.0,
      0.0,
      0.0112,
      0.25,
      0.5,
      1.0,
      1.0,
      1.0055,
      1.0055,
      1.5122,
      1.5122,
      1.7846,
      1.7846,
      1.988,
      2.0,
      2.25,
      2.2816,
      2.4599,
      2.4711,
      2.5,
      2.9883,
      2.9938,
      3.0,
      3.0055,
      3.5116,
      3.5122,
      3.5228,
      3.7846,
      3.988,
      3.9924,
      4.0,
      4.0,
      4.0036,
      4.238,
      4.488,
      4.988,
      4.9923,
      4.9935,
      4.9978,
      5.5002,
      5.5047,
      5.7726,
      5.7762,
      5.9803,
      5.988,
      6.0,
      6.238,
      6.2739,
      6.4615,
      6.4727,
      6.4727,
      6.488,
      6.9806,
      6.9861,
      6.988,
      6.9935,
      7.0,
      7.5002,
      7.5051,
      7.5163,
      7.7726,
      7.9759,
      8.0,
      8.0,
      8.0,
      8.0,
      8.0112,
      8.25,
      8.5,
      9.0,
      9.0,
      9.0,
      9.0055,
      9.0055,
      9.5,
      9.5122,
      9.7846,
      9.988,
      10.0,
      10.0,
      10.25,
      10.2816,
      10.4599,
      10.4711,
      10.5,
      10.9883,
      10.9938,
      11.0,
      11.0055,
      11.5116,
      11.5122,
      11.5228,
      11.7846,
      11.988,
      11.9924,
      12.0,
      12.0036,
      12.238,
      12.488,
      12.988,
      12.9923,
      12.9935,
      12.9978,
      13.5,
      13.5002,
      13.5047,
      13.7726,
      13.9803,
      13.988,
      14.238,
      14.2739,
      14.4615,
      14.4727,
      14.4727,
      14.488,
      14.5,
      14.9806,
      14.9861,
      14.988,
      14.9935,
      15.5,
      15.5002,
      15.5051,
      15.5163,
      15.7726,
      15.9759
    ],
    "ioi": [
      0.0,
      0.0,
      0.0112,
      0.2388,
      0.25,
      0.5,
      0.0,
      0.0055,
      0.0,
      0.5067,
      0.0,
      0.2724,
      0.0,
      0.2034,
      0.012,
      0.25,
      0.0316,
      0.1783,
      0.0112,
      0.0289,
      0.4883,
      0.0055,
      0.0062,
      0.0055,
      0.5061,
      0.0006,
      0.0106,
      0.2618,
      0.2034,
      0.0044,
      0.0076,
      0.0,
      0.0036,
      0.2344,
      0.25,
      0.5,
      0.0043,
      0.0012,
      0.0043,
      0.5024,
      0.0045,
      0.2679,
      0.0036,
      0.2041,
      0.0077,
      0.012,
      0.238,
      0.0359,
      0.1876,
      0.0112,
      0.0,
      0.0153,
      0.4926,
      0.0055,
      0.0019,
      0.0055,
      0.0065,
      0.5002,
      0.0049,
      0.0112,
      0.2563,
      0.2033,
      0.0241,
      0.0,
      0.0,
      0.0,
      0.0112,
      0.2388,
      0.25,
      0.5,
      0.0,
      0.0,
      0.0055,
      0.0,
      0.4945,
      0.0122,
      0.2724,
      0.2034,
      0.012,
      0.0,
      0.25,
      0.0316,
      0.1783,
      0.0112,
      0.0289,
      0.4883,
      0.0055,
      0.0062,
      0.0055,
      0.5061,
      0.0006,
      0.0106,
      0.2618,
      0.2034,
      0.0044,
      0.0076,
      0.0036,
      0.2344,
      0.25,
      0.5,
      0.0043,
      0.0012,
      0.0043,
      0.5022,
      0.0002,
      0.0045,
      0.2679,
      0.2077,
      0.0077,
      0.25,
      0.0359,
      0.1876,
      0.0112,
      0.0,
      0.0153,
      0.012,
      0.4806,
      0.0055,
      0.0019,
      0.0055,
      0.5065,
      0.0002,
      0.0049,
      0.0112,
      0.2563,
      0.2033,
      0.0241
    ],
    "grid": "16th",
    "euclidean_approx": [
      64,
      64
    ],
    "swing_ratio": 1.697
  },
  "pitch": {
    "notes_used": [
      36,
      37,
      38,
      39,
      40,
      42,
      43,
      44,
      45,
      47,
      48,
      50,
      51
    ],
    "intervals": [
      2,
      9,
      15,
      6,
      0,
      0,
      5,
      9,
      4,
      3,
      3,
      5,
      5,
      3,
      3,
      0,
      5,
      3,
      4,
      6,
      5,
      9,
      4,
      0,
      2,
      2,
      6,
      6,
      0,
      2,
      3,
      5,
      12,
      6,
      0,
      0,
      5,
      5,
      4,
      4,
      3,
      3,
      5,
      2,
      3,
      2,
      2,
      5,
      3,
      4,
      3,
      3,
      5,
      9,
      4,
      0,
      3,
      3,
      2,
      4,
      6,
      0,
      2,
      2,
      3,
      5,
      14,
      6,
      0,
      0,
      3,
      2,
      9,
      4,
      3,
      3,
      0,
      3,
      3,
      3,
      3,
      5,
      3,
      4,
      6,
      5,
      9,
      4,
      0,
      2,
      2,
      6,
      6,
      0,
      2,
      3,
      7,
      6,
      0,
      0,
      5,
      5,
      4,
      6,
      2,
      3,
      3,
      3,
      3,
      0,
      5,
      3,
      4,
      3,
      3,
      1,
      4,
      9,
      4,
      0,
      5,
      5,
      2,
      4,
      6,
      0
    ],
    "register": "low",
    "is_melodic": true,
    "pitch_range": 15,
    "pitch_distribution": {
      "40": 12,
      "42": 58,
      "51": 1,
      "36": 12,
      "47": 8,
      "38": 8,
      "39": 10,
      "37": 7,
      "43": 3,
      "48": 1,
      "44": 2,
      "45": 4,
      "50": 1
    }
  },
  "velocity": {
    "mean": 83.3,
    "variance": 366.8,
    "std": 19.2,
    "accents": [
      0,
      3,
      8,
      18,
      19,
      22,
      63,
      67,
      73,
      83,
      84,
      87
    ],
    "profile": [
      127,
      87,
      100,
      127,
      87,
      87,
      87,
      52,
      116,
      85,
      78,
      90,
      71,
      72,
      89,
      87,
      87,
      65,
      112,
      112,
      87,
      49,
      110,
      87,
      85,
      48,
      90,
      48,
      72,
      87,
      101,
      100,
      100,
      101,
      87,
      87,
      87,
      43,
      85,
      97,
      90,
      61,
      72,
      59,
      75,
      87,
      100,
      87,
      54,
      74,
      74,
      94,
      87,
      40,
      89,
      87,
      85,
      100,
      90,
      68,
      68,
      72,
      87,
      127,
      87,
      72,
      100,
      127,
      87,
      87,
      87,
      61,
      52,
      116,
      85,
      81,
      90,
      72,
      89,
      87,
      29,
      87,
      65,
      112,
      112,
      87,
      49,
      110,
      87,
      85,
      48,
      90,
      48,
      72,
      87,
      101,
      100,
      101,
      87,
      87,
      87,
      43,
      85,
      97,
      100,
      90,
      61,
      72,
      75,
      87,
      87,
      54,
      74,
      74,
      94,
      87,
      100,
      40,
      89,
      87,
      85,
      100,
      90,
      68,
      68,
      72,
      87
    ]
  },
  "notes": [
    {
      "pitch": 40,
      "start_time": 0.0,
      "duration": 0.9191,
      "velocity": 127
    },
    {
      "pitch": 42,
      "start_time": 0.0,
      "duration": 0.25,
      "velocity": 87
    },
    {
      "pitch": 51,
      "start_time": 0.0,
      "duration": 3.0,
      "velocity": 100
    },
    {
      "pitch": 36,
      "start_time": 0.0112,
      "duration": 0.9191,
      "velocity": 127
    },
    {
      "pitch": 42,
      "start_time": 0.25,
      "duration": 0.25,
      "velocity": 87
    },
    {
      "pitch": 42,
      "start_time": 0.5,
      "duration": 0.5,
      "velocity": 87
    },
    {
      "pitch": 42,
      "start_time": 1.0,
      "duration": 0.0055,
      "velocity": 87
    },
    {
      "pitch": 47,
      "start_time": 1.0,
      "duration": 1.9883,
      "velocity": 52
    },
    {
      "pitch": 38,
      "start_time": 1.0055,
      "duration": 0.6543,
      "velocity": 116
    },
    {
      "pitch": 42,
      "start_time": 1.0055,
      "duration": 0.5068,
      "velocity": 85
    },
    {
      "pitch": 39,
      "start_time": 1.5122,
      "duration": 0.2724,
      "velocity": 78
    },
    {
      "pitch": 42,
      "start_time": 1.5122,
      "duration": 0.2724,
      "velocity": 90
    },
    {
      "pitch": 37,
      "start_time": 1.7846,
      "duration": 0.2034,
      "velocity": 71
    },
    {
      "pitch": 42,
      "start_time": 1.7846,
      "duration": 0.2034,
      "velocity": 72
    },
    {
      "pitch": 39,
      "start_time": 1.988,
      "duration": 0.2937,
      "velocity": 89
    },
    {
      "pitch": 42,
      "start_time": 2.0,
      "duration": 0.25,
      "velocity": 87
    },
    {
      "pitch": 42,
      "start_time": 2.25,
      "duration": 0.25,
      "velocity": 87
    },
    {
      "pitch": 37,
      "start_time": 2.2816,
      "duration": 0.1894,
      "velocity": 65
    },
    {
      "pitch": 40,
      "start_time": 2.4599,
      "duration": 1.0518,
      "velocity": 112
    },
    {
      "pitch": 36,
      "start_time": 2.4711,
      "duration": 1.0518,
      "velocity": 112
    },
    {
      "pitch": 42,
      "start_time": 2.5,
      "duration": 0.5,
      "velocity": 87
    },
    {
      "pitch": 47,
      "start_time": 2.9883,
      "duration": 2.004,
      "velocity": 49
    },
    {
      "pitch": 38,
      "start_time": 2.9938,
      "duration": 0.6075,
      "velocity": 110
    },
    {
      "pitch": 42,
      "start_time": 3.0,
      "duration": 0.0055,
      "velocity": 87
    },
    {
      "pitch": 42,
      "start_time": 3.0055,
      "duration": 0.5068,
      "velocity": 85
    },
    {
      "pitch": 40,
      "start_time": 3.5116,
      "duration": 0.4808,
      "velocity": 48
    },
    {
      "pitch": 42,
      "start_time": 3.5122,
      "duration": 0.2724,
      "velocity": 90
    },
    {
      "pitch": 36,
      "start_time": 3.5228,
      "duration": 0.4808,
      "velocity": 48
    },
    {
      "pitch": 42,
      "start_time": 3.7846,
      "duration": 0.2034,
      "velocity": 72
    },
    {
      "pitch": 42,
      "start_time": 3.988,
      "duration": 0.25,
      "velocity": 87
    },
    {
      "pitch": 40,
      "start_time": 3.9924,
      "duration": 0.9814,
      "velocity": 101
    },
    {
      "pitch": 43,
      "start_time": 4.0,
      "duration": 1.0,
      "velocity": 100
    },
    {
      "pitch": 48,
      "start_time": 4.0,
      "duration": 4.0,
      "velocity": 100
    },
    {
      "pitch": 36,
      "start_time": 4.0036,
      "duration": 0.9814,
      "velocity": 101
    },
    {
      "pitch": 42,
      "start_time": 4.238,
      "duration": 0.25,
      "velocity": 87
    },
    {
      "pitch": 42,
      "start_time": 4.488,
      "duration": 0.5,
      "velocity": 87
    },
    {
      "pitch": 42,
      "start_time": 4.988,
      "duration": 0.0055,
      "velocity": 87
    },
    {
      "pitch": 47,
      "start_time": 4.9923,
      "duration": 1.9883,
      "velocity": 43
    },
    {
      "pitch": 42,
      "start_time": 4.9935,
      "duration": 0.5068,
      "velocity": 85
    },
    {
      "pitch": 38,
      "start_time": 4.9978,
      "duration": 0.6543,
      "velocity": 97
    },
    {
      "pitch": 42,
      "start_time": 5.5002,
      "duration": 0.2724,
      "velocity": 90
    },
    {
      "pitch": 39,
      "start_time": 5.5047,
      "duration": 0.2715,
      "velocity": 61
    },
    {
      "pitch": 42,
      "start_time": 5.7726,
      "duration": 0.2034,
      "velocity": 72
    },
    {
      "pitch": 37,
      "start_time": 5.7762,
      "duration": 0.204,
      "velocity": 59
    },
    {
      "pitch": 39,
      "start_time": 5.9803,
      "duration": 0.2937,
      "velocity": 75
    },
    {
      "pitch": 42,
      "start_time": 5.988,
      "duration": 0.25,
      "velocity": 87
    },
    {
      "pitch": 44,
      "start_time": 6.0,
      "duration": 1.0,
      "velocity": 100
    },
    {
      "pitch": 42,
      "start_time": 6.238,
      "duration": 0.25,
      "velocity": 87
    },
    {
      "pitch": 37,
      "start_time": 6.2739,
      "duration": 0.1988,
      "velocity": 54
    },
    {
      "pitch": 40,
      "start_time": 6.4615,
      "duration": 1.0436,
      "velocity": 74
    },
    {
      "pitch": 36,
      "start_time": 6.4727,
      "duration": 1.0436,
      "velocity": 74
    },
    {
      "pitch": 39,
      "start_time": 6.4727,
      "duration": 0.5134,
      "velocity": 94
    },
    {
      "pitch": 42,
      "start_time": 6.488,
      "duration": 0.5,
      "velocity": 87
    },
    {
      "pitch": 47,
      "start_time": 6.9806,
      "duration": 2.0194,
      "velocity": 40
    },
    {
      "pitch": 38,
      "start_time": 6.9861,
      "duration": 0.6075,
      "velocity": 89
    },
    {
      "pitch": 42,
      "start_time": 6.988,
      "duration": 0.0055,
      "velocity": 87
    },
    {
      "pitch": 42,
      "start_time": 6.9935,
      "duration": 0.5068,
      "velocity": 85
    },
    {
      "pitch": 45,
      "start_time": 7.0,
      "duration": 0.75,
      "velocity": 100
    },
    {
      "pitch": 42,
      "start_time": 7.5002,
      "duration": 0.2724,
      "velocity": 90
    },
    {
      "pitch": 40,
      "start_time": 7.5051,
      "duration": 0.4837,
      "velocity": 68
    },
    {
      "pitch": 36,
      "start_time": 7.5163,
      "duration": 0.4837,
      "velocity": 68
    },
    {
      "pitch": 42,
      "start_time": 7.7726,
      "duration": 0.2034,
      "velocity": 72
    },
    {
      "pitch": 42,
      "start_time": 7.9759,
      "duration": 0.0241,
      "velocity": 87
    },
    {
      "pitch": 40,
      "start_time": 8.0,
      "duration": 0.9191,
      "velocity": 127
    },
    {
      "pitch": 42,
      "start_time": 8.0,
      "duration": 0.25,
      "velocity": 87
    },
    {
      "pitch": 45,
      "start_time": 8.0,
      "duration": 0.75,
      "velocity": 72
    },
    {
      "pitch": 50,
      "start_time": 8.0,
      "duration": 3.0,
      "velocity": 100
    },
    {
      "pitch": 36,
      "start_time": 8.0112,
      "duration": 0.9191,
      "velocity": 127
    },
    {
      "pitch": 42,
      "start_time": 8.25,
      "duration": 0.25,
      "velocity": 87
    },
    {
      "pitch": 42,
      "start_time": 8.5,
      "duration": 0.5,
      "velocity": 87
    },
    {
      "pitch": 42,
      "start_time": 9.0,
      "duration": 0.0055,
      "velocity": 87
    },
    {
      "pitch": 45,
      "start_time": 9.0,
      "duration": 0.75,
      "velocity": 61
    },
    {
      "pitch": 47,
      "start_time": 9.0,
      "duration": 1.9883,
      "velocity": 52
    },
    {
      "pitch": 38,
      "start_time": 9.0055,
      "duration": 0.6543,
      "velocity": 116
    },
    {
      "pitch": 42,
      "start_time": 9.0055,
      "duration": 0.5068,
      "velocity": 85
    },
    {
      "pitch": 39,
      "start_time": 9.5,
      "duration": 0.25,
      "velocity": 81
    },
    {
      "pitch": 42,
      "start_time": 9.5122,
      "duration": 0.2724,
      "velocity": 90
    },
    {
      "pitch": 42,
      "start_time": 9.7846,
      "duration": 0.2034,
      "velocity": 72
    },
    {
      "pitch": 39,
      "start_time": 9.988,
      "duration": 0.2937,
      "velocity": 89
    },
    {
      "pitch": 42,
      "start_time": 10.0,
      "duration": 0.25,
      "velocity": 87
    },
    {
      "pitch": 45,
      "start_time": 10.0,
      "duration": 0.75,
      "velocity": 29
    },
    {
      "pitch": 42,
      "start_time": 10.25,
      "duration": 0.25,
      "velocity": 87
    },
    {
      "pitch": 37,
      "start_time": 10.2816,
      "duration": 0.1894,
      "velocity": 65
    },
    {
      "pitch": 40,
      "start_time": 10.4599,
      "duration": 1.0518,
      "velocity": 112
    },
    {
      "pitch": 36,
      "start_time": 10.4711,
      "duration": 1.0518,
      "velocity": 112
    },
    {
      "pitch": 42,
      "start_time": 10.5,
      "duration": 0.5,
      "velocity": 87
    },
    {
      "pitch": 47,
      "start_time": 10.9883,
      "duration": 2.004,
      "velocity": 49
    },
    {
      "pitch": 38,
      "start_time": 10.9938,
      "duration": 0.6075,
      "velocity": 110
    },
    {
      "pitch": 42,
      "start_time": 11.0,
      "duration": 0.0055,
      "velocity": 87
    },
    {
      "pitch": 42,
      "start_time": 11.0055,
      "duration": 0.5068,
      "velocity": 85
    },
    {
      "pitch": 40,
      "start_time": 11.5116,
      "duration": 0.4808,
      "velocity": 48
    },
    {
      "pitch": 42,
      "start_time": 11.5122,
      "duration": 0.2724,
      "velocity": 90
    },
    {
      "pitch": 36,
      "start_time": 11.5228,
      "duration": 0.4808,
      "velocity": 48
    },
    {
      "pitch": 42,
      "start_time": 11.7846,
      "duration": 0.2034,
      "velocity": 72
    },
    {
      "pitch": 42,
      "start_time": 11.988,
      "duration": 0.25,
      "velocity": 87
    },
    {
      "pitch": 40,
      "start_time": 11.9924,
      "duration": 0.9814,
      "velocity": 101
    },
    {
      "pitch": 43,
      "start_time": 12.0,
      "duration": 1.0,
      "velocity": 100
    },
    {
      "pitch": 36,
      "start_time": 12.0036,
      "duration": 0.9814,
      "velocity": 101
    },
    {
      "pitch": 42,
      "start_time": 12.238,
      "duration": 0.25,
      "velocity": 87
    },
    {
      "pitch": 42,
      "start_time": 12.488,
      "duration": 0.5,
      "velocity": 87
    },
    {
      "pitch": 42,
      "start_time": 12.988,
      "duration": 0.0055,
      "velocity": 87
    },
    {
      "pitch": 47,
      "start_time": 12.9923,
      "duration": 1.9883,
      "velocity": 43
    },
    {
      "pitch": 42,
      "start_time": 12.9935,
      "duration": 0.5068,
      "velocity": 85
    },
    {
      "pitch": 38,
      "start_time": 12.9978,
      "duration": 0.6543,
      "velocity": 97
    },
    {
      "pitch": 44,
      "start_time": 13.5,
      "duration": 1.0,
      "velocity": 100
    },
    {
      "pitch": 42,
      "start_time": 13.5002,
      "duration": 0.2724,
      "velocity": 90
    },
    {
      "pitch": 39,
      "start_time": 13.5047,
      "duration": 0.2715,
      "velocity": 61
    },
    {
      "pitch": 42,
      "start_time": 13.7726,
      "duration": 0.2034,
      "velocity": 72
    },
    {
      "pitch": 39,
      "start_time": 13.9803,
      "duration": 0.2937,
      "velocity": 75
    },
    {
      "pitch": 42,
      "start_time": 13.988,
      "duration": 0.25,
      "velocity": 87
    },
    {
      "pitch": 42,
      "start_time": 14.238,
      "duration": 0.25,
      "velocity": 87
    },
    {
      "pitch": 37,
      "start_time": 14.2739,
      "duration": 0.1988,
      "velocity": 54
    },
    {
      "pitch": 40,
      "start_time": 14.4615,
      "duration": 1.0436,
      "velocity": 74
    },
    {
      "pitch": 36,
      "start_time": 14.4727,
      "duration": 1.0436,
      "velocity": 74
    },
    {
      "pitch": 39,
      "start_time": 14.4727,
      "duration": 0.5134,
      "velocity": 94
    },
    {
      "pitch": 42,
      "start_time": 14.488,
      "duration": 0.5,
      "velocity": 87
    },
    {
      "pitch": 43,
      "start_time": 14.5,
      "duration": 1.0,
      "velocity": 100
    },
    {
      "pitch": 47,
      "start_time": 14.9806,
      "duration": 2.1075,
      "velocity": 40
    },
    {
      "pitch": 38,
      "start_time": 14.9861,
      "duration": 0.6075,
      "velocity": 89
    },
    {
      "pitch": 42,
      "start_time": 14.988,
      "duration": 0.0055,
      "velocity": 87
    },
    {
      "pitch": 42,
      "start_time": 14.9935,
      "duration": 0.5068,
      "velocity": 85
    },
    {
      "pitch": 37,
      "start_time": 15.5,
      "duration": 0.5,
      "velocity": 100
    },
    {
      "pitch": 42,
      "start_time": 15.5002,
      "duration": 0.2724,
      "velocity": 90
    },
    {
      "pitch": 40,
      "start_time": 15.5051,
      "duration": 0.4837,
      "velocity": 68
    },
    {
      "pitch": 36,
      "start_time": 15.5163,
      "duration": 0.4837,
      "velocity": 68
    },
    {
      "pitch": 42,
      "start_time": 15.7726,
      "duration": 0.2034,
      "velocity": 72
    },
    {
      "pitch": 42,
      "start_time": 15.9759,
      "duration": 0.0241,
      "velocity": 87
    }
  ]
}