{
  "source": {
    "song": "packs",
    "track_index": 0,
    "track_name": "Skitter and Step / MIDI Clips / 120 - 150 BPM / Micro Tuna Kit 148 bpm",
    "slot_index": 0,
    "clip_name": "Skitter and Step / MIDI Clips / 120 - 150 BPM / Micro Tuna Kit 148 bpm",
    "mid_file": "/Users/darnold/Music/Ableton/Packs/Skitter and Step/MIDI Clips/120 - 150 BPM/Micro Tuna Kit 148 bpm.alc"
  },
  "meta": {
    "bpm": 148.0,
    "key": "?",
    "scale": "?",
    "length_beats": 8.0,
    "note_count": 89
  },
  "rhythm": {
    "density": 1.125,
    "hit_positions": [
      0.0,
      0.0,
      0.0,
      0.0,
      0.0712,
      0.25,
      0.25,
      0.5,
      0.5,
      0.75,
      1.0,
      1.0,
      1.0103,
      1.25,
      1.5,
      1.5,
      1.5,
      1.5668,
      1.75,
      2.0,
      2.0,
      2.0,
      2.0,
      2.25,
      2.4987,
      2.5,
      2.5,
      2.75,
      3.0,
      3.0,
      3.0047,
      3.0624,
      3.25,
      3.5,
      3.5,
      3.5097,
      3.5106,
      3.75,
      4.0,
      4.0,
      4.0,
      4.25,
      4.5,
      4.5,
      4.5101,
      4.75,
      4.75,
      5.0,
      5.0,
      5.0,
      5.0258,
      5.25,
      5.5,
      5.5,
      5.5,
      5.75,
      5.75,
      6.0,
      6.0,
      6.0,
      6.0152,
      6.0208,
      6.25,
      6.25,
      6.5,
      6.5,
      6.5,
      6.5089,
      6.5097,
      6.525,
      6.75,
      6.75,
      6.7683,
      6.9994,
      7.0,
      7.0,
      7.0,
      7.0,
      7.0182,
      7.025,
      7.25,
      7.25,
      7.4918,
      7.4966,
      7.5,
      7.5,
      7.5,
      7.75,
      9.9264
    ],
    "ioi": [
      0.0,
      0.0,
      0.0,
      0.0712,
      0.1788,
      0.0,
      0.25,
      0.0,
      0.25,
      0.25,
      0.0,
      0.0103,
      0.2397,
      0.25,
      0.0,
      0.0,
      0.0668,
      0.1832,
      0.25,
      0.0,
      0.0,
      0.0,
      0.25,
      0.2487,
      0.0013,
      0.0,
      0.25,
      0.25,
      0.0,
      0.0047,
      0.0577,
      0.1876,
      0.25,
      0.0,
      0.0097,
      0.0009,
      0.2394,
      0.25,
      0.0,
      0.0,
      0.25,
      0.25,
      0.0,
      0.0101,
      0.2399,
      0.0,
      0.25,
      0.0,
      0.0,
      0.0258,
      0.2242,
      0.25,
      0.0,
      0.0,
      0.25,
      0.0,
      0.25,
      0.0,
      0.0,
      0.0152,
      0.0056,
      0.2292,
      0.0,
      0.25,
      0.0,
      0.0,
      0.0089,
      0.0008,
      0.0153,
      0.225,
      0.0,
      0.0183,
      0.2311,
      0.0006,
      0.0,
      0.0,
      0.0,
      0.0182,
      0.0068,
      0.225,
      0.0,
      0.2418,
      0.0048,
      0.0034,
      0.0,
      0.0,
      0.25,
      2.1764,
      -1.9264
    ],
    "grid": "16th",
    "euclidean_approx": [
      32,
      32
    ],
    "swing_ratio": 1.169
  },
  "pitch": {
    "notes_used": [
      36,
      38,
      40,
      41,
      42,
      43,
      44,
      45,
      47,
      48,
      49,
      50,
      51
    ],
    "intervals": [
      6,
      2,
      5,
      4,
      3,
      2,
      2,
      2,
      2,
      0,
      2,
      4,
      2,
      1,
      1,
      2,
      1,
      3,
      4,
      4,
      2,
      6,
      8,
      6,
      6,
      2,
      2,
      0,
      2,
      3,
      2,
      3,
      0,
      2,
      7,
      11,
      2,
      0,
      2,
      4,
      6,
      0,
      2,
      8,
      6,
      1,
      1,
      1,
      1,
      4,
      2,
      0,
      1,
      1,
      2,
      1,
      1,
      1,
      1,
      8,
      5,
      1,
      1,
      1,
      1,
      1,
      3,
      10,
      3,
      6,
      1,
      7,
      5,
      1,
      1,
      1,
      1,
      5,
      11,
      9,
      1,
      7,
      5,
      1,
      1,
      1,
      2,
      8
    ],
    "register": "low",
    "is_melodic": true,
    "pitch_range": 15,
    "pitch_distribution": {
      "36": 6,
      "42": 32,
      "44": 17,
      "49": 1,
      "45": 4,
      "40": 4,
      "41": 5,
      "38": 1,
      "50": 2,
      "47": 1,
      "51": 3,
      "48": 2,
      "43": 11
    }
  },
  "velocity": {
    "mean": 65.8,
    "variance": 963.7,
    "std": 31.0,
    "accents": [
      0,
      4,
      12,
      14,
      24,
      30,
      31,
      35,
      36,
      44,
      50,
      60,
      68,
      69,
      72,
      77,
      78,
      79,
      82,
      83
    ],
    "profile": [
      108,
      58,
      67,
      91,
      110,
      54,
      67,
      49,
      47,
      49,
      42,
      34,
      118,
      54,
      122,
      35,
      51,
      80,
      32,
      83,
      42,
      35,
      64,
      48,
      114,
      46,
      57,
      57,
      63,
      38,
      104,
      127,
      46,
      38,
      46,
      124,
      112,
      51,
      64,
      62,
      90,
      67,
      68,
      15,
      112,
      70,
      72,
      70,
      10,
      35,
      118,
      46,
      38,
      38,
      29,
      40,
      12,
      45,
      35,
      55,
      120,
      35,
      42,
      31,
      42,
      31,
      41,
      48,
      97,
      122,
      57,
      29,
      110,
      68,
      60,
      34,
      83,
      122,
      122,
      122,
      63,
      54,
      120,
      100,
      72,
      78,
      57,
      69,
      76
    ]
  },
  "notes": [
    {
      "pitch": 36,
      "start_time": 0.0,
      "duration": 0.7738,
      "velocity": 108
    },
    {
      "pitch": 42,
      "start_time": 0.0,
      "duration": 0.25,
      "velocity": 58
    },
    {
      "pitch": 44,
      "start_time": 0.0,
      "duration": 0.125,
      "velocity": 67
    },
    {
      "pitch": 49,
      "start_time": 0.0,
      "duration": 2.9807,
      "velocity": 91
    },
    {
      "pitch": 45,
      "start_time": 0.0712,
      "duration": 1.0337,
      "velocity": 110
    },
    {
      "pitch": 42,
      "start_time": 0.25,
      "duration": 0.25,
      "velocity": 54
    },
    {
      "pitch": 44,
      "start_time": 0.25,
      "duration": 0.125,
      "velocity": 67
    },
    {
      "pitch": 42,
      "start_time": 0.5,
      "duration": 0.25,
      "velocity": 49
    },
    {
      "pitch": 44,
      "start_time": 0.5,
      "duration": 0.5,
      "velocity": 47
    },
    {
      "pitch": 42,
      "start_time": 0.75,
      "duration": 0.25,
      "velocity": 49
    },
    {
      "pitch": 42,
      "start_time": 1.0,
      "duration": 0.1923,
      "velocity": 42
    },
    {
      "pitch": 44,
      "start_time": 1.0,
      "duration": 0.5,
      "velocity": 34
    },
    {
      "pitch": 40,
      "start_time": 1.0103,
      "duration": 0.5581,
      "velocity": 118
    },
    {
      "pitch": 42,
      "start_time": 1.25,
      "duration": 0.25,
      "velocity": 54
    },
    {
      "pitch": 41,
      "start_time": 1.5,
      "duration": 2.2324,
      "velocity": 122
    },
    {
      "pitch": 42,
      "start_time": 1.5,
      "duration": 0.25,
      "velocity": 35
    },
    {
      "pitch": 44,
      "start_time": 1.5,
      "duration": 0.5,
      "velocity": 51
    },
    {
      "pitch": 45,
      "start_time": 1.5668,
      "duration": 1.0911,
      "velocity": 80
    },
    {
      "pitch": 42,
      "start_time": 1.75,
      "duration": 0.25,
      "velocity": 32
    },
    {
      "pitch": 38,
      "start_time": 2.0,
      "duration": 0.6922,
      "velocity": 83
    },
    {
      "pitch": 42,
      "start_time": 2.0,
      "duration": 0.25,
      "velocity": 42
    },
    {
      "pitch": 44,
      "start_time": 2.0,
      "duration": 0.5,
      "velocity": 35
    },
    {
      "pitch": 50,
      "start_time": 2.0,
      "duration": 5.772,
      "velocity": 64
    },
    {
      "pitch": 42,
      "start_time": 2.25,
      "duration": 0.25,
      "velocity": 48
    },
    {
      "pitch": 36,
      "start_time": 2.4987,
      "duration": 0.4334,
      "velocity": 114
    },
    {
      "pitch": 42,
      "start_time": 2.5,
      "duration": 0.25,
      "velocity": 46
    },
    {
      "pitch": 44,
      "start_time": 2.5,
      "duration": 0.5,
      "velocity": 57
    },
    {
      "pitch": 42,
      "start_time": 2.75,
      "duration": 0.25,
      "velocity": 57
    },
    {
      "pitch": 42,
      "start_time": 3.0,
      "duration": 0.25,
      "velocity": 63
    },
    {
      "pitch": 44,
      "start_time": 3.0,
      "duration": 0.5,
      "velocity": 38
    },
    {
      "pitch": 47,
      "start_time": 3.0047,
      "duration": 0.9396,
      "velocity": 104
    },
    {
      "pitch": 45,
      "start_time": 3.0624,
      "duration": 0.8116,
      "velocity": 127
    },
    {
      "pitch": 42,
      "start_time": 3.25,
      "duration": 0.25,
      "velocity": 46
    },
    {
      "pitch": 42,
      "start_time": 3.5,
      "duration": 0.25,
      "velocity": 38
    },
    {
      "pitch": 44,
      "start_time": 3.5,
      "duration": 0.5,
      "velocity": 46
    },
    {
      "pitch": 51,
      "start_time": 3.5097,
      "duration": 0.173,
      "velocity": 124
    },
    {
      "pitch": 40,
      "start_time": 3.5106,
      "duration": 0.3826,
      "velocity": 112
    },
    {
      "pitch": 42,
      "start_time": 3.75,
      "duration": 0.25,
      "velocity": 51
    },
    {
      "pitch": 42,
      "start_time": 4.0,
      "duration": 0.25,
      "velocity": 64
    },
    {
      "pitch": 44,
      "start_time": 4.0,
      "duration": 0.5,
      "velocity": 62
    },
    {
      "pitch": 48,
      "start_time": 4.0,
      "duration": 1.3477,
      "velocity": 90
    },
    {
      "pitch": 42,
      "start_time": 4.25,
      "duration": 0.25,
      "velocity": 67
    },
    {
      "pitch": 42,
      "start_time": 4.5,
      "duration": 0.25,
      "velocity": 68
    },
    {
      "pitch": 44,
      "start_time": 4.5,
      "duration": 0.5,
      "velocity": 15
    },
    {
      "pitch": 36,
      "start_time": 4.5101,
      "duration": 0.3171,
      "velocity": 112
    },
    {
      "pitch": 42,
      "start_time": 4.75,
      "duration": 0.25,
      "velocity": 70
    },
    {
      "pitch": 43,
      "start_time": 4.75,
      "duration": 0.25,
      "velocity": 72
    },
    {
      "pitch": 42,
      "start_time": 5.0,
      "duration": 0.25,
      "velocity": 70
    },
    {
      "pitch": 43,
      "start_time": 5.0,
      "duration": 0.205,
      "velocity": 10
    },
    {
      "pitch": 44,
      "start_time": 5.0,
      "duration": 0.5,
      "velocity": 35
    },
    {
      "pitch": 40,
      "start_time": 5.0258,
      "duration": 0.329,
      "velocity": 118
    },
    {
      "pitch": 42,
      "start_time": 5.25,
      "duration": 0.25,
      "velocity": 46
    },
    {
      "pitch": 42,
      "start_time": 5.5,
      "duration": 0.25,
      "velocity": 38
    },
    {
      "pitch": 43,
      "start_time": 5.5,
      "duration": 0.25,
      "velocity": 38
    },
    {
      "pitch": 44,
      "start_time": 5.5,
      "duration": 0.5,
      "velocity": 29
    },
    {
      "pitch": 42,
      "start_time": 5.75,
      "duration": 0.25,
      "velocity": 40
    },
    {
      "pitch": 43,
      "start_time": 5.75,
      "duration": 0.25,
      "velocity": 12
    },
    {
      "pitch": 42,
      "start_time": 6.0,
      "duration": 0.25,
      "velocity": 45
    },
    {
      "pitch": 43,
      "start_time": 6.0,
      "duration": 0.25,
      "velocity": 35
    },
    {
      "pitch": 44,
      "start_time": 6.0,
      "duration": 0.2711,
      "velocity": 55
    },
    {
      "pitch": 36,
      "start_time": 6.0152,
      "duration": 0.3174,
      "velocity": 120
    },
    {
      "pitch": 41,
      "start_time": 6.0208,
      "duration": 0.1329,
      "velocity": 35
    },
    {
      "pitch": 42,
      "start_time": 6.25,
      "duration": 0.25,
      "velocity": 42
    },
    {
      "pitch": 43,
      "start_time": 6.25,
      "duration": 0.25,
      "velocity": 31
    },
    {
      "pitch": 42,
      "start_time": 6.5,
      "duration": 0.25,
      "velocity": 42
    },
    {
      "pitch": 43,
      "start_time": 6.5,
      "duration": 0.25,
      "velocity": 31
    },
    {
      "pitch": 44,
      "start_time": 6.5,
      "duration": 0.5,
      "velocity": 41
    },
    {
      "pitch": 41,
      "start_time": 6.5089,
      "duration": 0.1757,
      "velocity": 48
    },
    {
      "pitch": 51,
      "start_time": 6.5097,
      "duration": 0.173,
      "velocity": 97
    },
    {
      "pitch": 48,
      "start_time": 6.525,
      "duration": 0.6922,
      "velocity": 122
    },
    {
      "pitch": 42,
      "start_time": 6.75,
      "duration": 0.25,
      "velocity": 57
    },
    {
      "pitch": 43,
      "start_time": 6.75,
      "duration": 0.25,
      "velocity": 29
    },
    {
      "pitch": 36,
      "start_time": 6.7683,
      "duration": 0.272,
      "velocity": 110
    },
    {
      "pitch": 41,
      "start_time": 6.9994,
      "duration": 0.2182,
      "velocity": 68
    },
    {
      "pitch": 42,
      "start_time": 7.0,
      "duration": 0.25,
      "velocity": 60
    },
    {
      "pitch": 43,
      "start_time": 7.0,
      "duration": 0.25,
      "velocity": 34
    },
    {
      "pitch": 44,
      "start_time": 7.0,
      "duration": 0.4688,
      "velocity": 83
    },
    {
      "pitch": 45,
      "start_time": 7.0,
      "duration": 0.6922,
      "velocity": 122
    },
    {
      "pitch": 40,
      "start_time": 7.0182,
      "duration": 0.3032,
      "velocity": 122
    },
    {
      "pitch": 51,
      "start_time": 7.025,
      "duration": 0.6922,
      "velocity": 122
    },
    {
      "pitch": 42,
      "start_time": 7.25,
      "duration": 0.25,
      "velocity": 63
    },
    {
      "pitch": 43,
      "start_time": 7.25,
      "duration": 0.25,
      "velocity": 54
    },
    {
      "pitch": 36,
      "start_time": 7.4918,
      "duration": 0.2781,
      "velocity": 120
    },
    {
      "pitch": 41,
      "start_time": 7.4966,
      "duration": 0.2548,
      "velocity": 100
    },
    {
      "pitch": 42,
      "start_time": 7.5,
      "duration": 0.25,
      "velocity": 72
    },
    {
      "pitch": 43,
      "start_time": 7.5,
      "duration": 0.2286,
      "velocity": 78
    },
    {
      "pitch": 44,
      "start_time": 7.5,
      "duration": 0.2581,
      "velocity": 57
    },
    {
      "pitch": 42,
      "start_time": 7.75,
      "duration": 0.25,
      "velocity": 69
    },
    {
      "pitch": 50,
      "start_time": 9.9264,
      "duration": 0.001,
      "velocity": 76
    }
  ]
}