{
  "source": {
    "song": "packs",
    "track_index": 0,
    "track_name": "Skitter and Step / MIDI Clips / 150 - 180 BPM / Fear Pressure Kit 160 bpm",
    "slot_index": 0,
    "clip_name": "Skitter and Step / MIDI Clips / 150 - 180 BPM / Fear Pressure Kit 160 bpm",
    "mid_file": "/Users/darnold/Music/Ableton/Packs/Skitter and Step/MIDI Clips/150 - 180 BPM/Fear Pressure Kit 160 bpm.alc"
  },
  "meta": {
    "bpm": 160.0,
    "key": "?",
    "scale": "?",
    "length_beats": 8.0,
    "note_count": 36
  },
  "rhythm": {
    "density": 1.875,
    "hit_positions": [
      0.0,
      0.0,
      0.0,
      0.5,
      0.5,
      1.0,
      1.0,
      1.0,
      1.5,
      1.5,
      2.0,
      2.0,
      2.0,
      3.0,
      3.0,
      3.5,
      4.0,
      4.5,
      4.5,
      4.5,
      5.0,
      5.0,
      5.5,
      5.5,
      5.5,
      5.5,
      6.0,
      6.0,
      6.0,
      6.0,
      6.5,
      6.5,
      7.0,
      7.0,
      7.5,
      8.0
    ],
    "ioi": [
      0.0,
      0.0,
      0.5,
      0.0,
      0.5,
      0.0,
      0.0,
      0.5,
      0.0,
      0.5,
      0.0,
      0.0,
      1.0,
      0.0,
      0.5,
      0.5,
      0.5,
      0.0,
      0.0,
      0.5,
      0.0,
      0.5,
      0.0,
      0.0,
      0.0,
      0.5,
      0.0,
      0.0,
      0.0,
      0.5,
      0.0,
      0.5,
      0.0,
      0.5,
      0.5,
      0.0
    ],
    "grid": "quarter",
    "euclidean_approx": [
      32,
      32
    ],
    "swing_ratio": 1.0
  },
  "pitch": {
    "notes_used": [
      36,
      37,
      38,
      39,
      40,
      41,
      42,
      44,
      45,
      46,
      48,
      49,
      50,
      51
    ],
    "intervals": [
      6,
      7,
      5,
      4,
      11,
      5,
      7,
      13,
      12,
      11,
      2,
      3,
      0,
      3,
      1,
      2,
      5,
      5,
      8,
      14,
      10,
      10,
      2,
      4,
      8,
      11,
      2,
      3,
      7,
      14,
      5,
      2,
      4,
      8,
      0
    ],
    "register": "low",
    "is_melodic": true,
    "pitch_range": 15,
    "pitch_distribution": {
      "36": 6,
      "42": 8,
      "49": 2,
      "44": 4,
      "48": 2,
      "37": 4,
      "39": 2,
      "45": 1,
      "50": 2,
      "46": 1,
      "38": 1,
      "41": 1,
      "51": 1,
      "40": 1
    }
  },
  "velocity": {
    "mean": 66.7,
    "variance": 845.8,
    "std": 29.1,
    "accents": [
      10,
      11,
      14,
      22,
      26,
      30,
      31
    ],
    "profile": [
      90,
      60,
      49,
      40,
      65,
      90,
      87,
      46,
      3,
      52,
      99,
      110,
      90,
      61,
      127,
      45,
      46,
      81,
      69,
      49,
      33,
      23,
      96,
      62,
      73,
      54,
      99,
      57,
      45,
      50,
      111,
      116,
      13,
      41,
      84,
      86
    ]
  },
  "notes": [
    {
      "pitch": 36,
      "start_time": 0.0,
      "duration": 0.1477,
      "velocity": 90
    },
    {
      "pitch": 42,
      "start_time": 0.0,
      "duration": 0.1173,
      "velocity": 60
    },
    {
      "pitch": 49,
      "start_time": 0.0,
      "duration": 0.1579,
      "velocity": 49
    },
    {
      "pitch": 44,
      "start_time": 0.5,
      "duration": 0.1391,
      "velocity": 40
    },
    {
      "pitch": 48,
      "start_time": 0.5,
      "duration": 0.1973,
      "velocity": 65
    },
    {
      "pitch": 37,
      "start_time": 1.0,
      "duration": 0.1162,
      "velocity": 90
    },
    {
      "pitch": 42,
      "start_time": 1.0,
      "duration": 0.1384,
      "velocity": 87
    },
    {
      "pitch": 49,
      "start_time": 1.0,
      "duration": 0.0853,
      "velocity": 46
    },
    {
      "pitch": 36,
      "start_time": 1.5,
      "duration": 0.0623,
      "velocity": 3
    },
    {
      "pitch": 48,
      "start_time": 1.5,
      "duration": 0.0853,
      "velocity": 52
    },
    {
      "pitch": 37,
      "start_time": 2.0,
      "duration": 0.1419,
      "velocity": 99
    },
    {
      "pitch": 39,
      "start_time": 2.0,
      "duration": 0.0899,
      "velocity": 110
    },
    {
      "pitch": 42,
      "start_time": 2.0,
      "duration": 0.1568,
      "velocity": 90
    },
    {
      "pitch": 42,
      "start_time": 3.0,
      "duration": 0.2,
      "velocity": 61
    },
    {
      "pitch": 45,
      "start_time": 3.0,
      "duration": 0.0941,
      "velocity": 127
    },
    {
      "pitch": 44,
      "start_time": 3.5,
      "duration": 0.1815,
      "velocity": 45
    },
    {
      "pitch": 42,
      "start_time": 4.0,
      "duration": 0.1668,
      "velocity": 46
    },
    {
      "pitch": 37,
      "start_time": 4.5,
      "duration": 0.1455,
      "velocity": 81
    },
    {
      "pitch": 42,
      "start_time": 4.5,
      "duration": 0.1627,
      "velocity": 69
    },
    {
      "pitch": 50,
      "start_time": 4.5,
      "duration": 0.1149,
      "velocity": 49
    },
    {
      "pitch": 36,
      "start_time": 5.0,
      "duration": 0.0851,
      "velocity": 33
    },
    {
      "pitch": 46,
      "start_time": 5.0,
      "duration": 0.0122,
      "velocity": 23
    },
    {
      "pitch": 36,
      "start_time": 5.5,
      "duration": 0.1393,
      "velocity": 96
    },
    {
      "pitch": 38,
      "start_time": 5.5,
      "duration": 0.0733,
      "velocity": 62
    },
    {
      "pitch": 42,
      "start_time": 5.5,
      "duration": 0.133,
      "velocity": 73
    },
    {
      "pitch": 50,
      "start_time": 5.5,
      "duration": 0.1334,
      "velocity": 54
    },
    {
      "pitch": 39,
      "start_time": 6.0,
      "duration": 0.0808,
      "velocity": 99
    },
    {
      "pitch": 41,
      "start_time": 6.0,
      "duration": 0.0897,
      "velocity": 57
    },
    {
      "pitch": 44,
      "start_time": 6.0,
      "duration": 0.1208,
      "velocity": 45
    },
    {
      "pitch": 51,
      "start_time": 6.0,
      "duration": 1.7364,
      "velocity": 50
    },
    {
      "pitch": 37,
      "start_time": 6.5,
      "duration": 0.1111,
      "velocity": 111
    },
    {
      "pitch": 42,
      "start_time": 6.5,
      "duration": 0.1203,
      "velocity": 116
    },
    {
      "pitch": 40,
      "start_time": 7.0,
      "duration": 0.0596,
      "velocity": 13
    },
    {
      "pitch": 44,
      "start_time": 7.0,
      "duration": 0.0897,
      "velocity": 41
    },
    {
      "pitch": 36,
      "start_time": 7.5,
      "duration": 0.1564,
      "velocity": 84
    },
    {
      "pitch": 36,
      "start_time": 8.0,
      "duration": 0.129,
      "velocity": 86
    }
  ]
}