{
  "source": {
    "song": "packs",
    "track_index": 0,
    "track_name": "Skitter and Step / MIDI Clips / 150 - 180 BPM / Maxi Lachs Kit 160 bpm",
    "slot_index": 0,
    "clip_name": "Skitter and Step / MIDI Clips / 150 - 180 BPM / Maxi Lachs Kit 160 bpm",
    "mid_file": "/Users/darnold/Music/Ableton/Packs/Skitter and Step/MIDI Clips/150 - 180 BPM/Maxi Lachs Kit 160 bpm.alc"
  },
  "meta": {
    "bpm": 160.0,
    "key": "?",
    "scale": "?",
    "length_beats": 8.0,
    "note_count": 84
  },
  "rhythm": {
    "density": 1.375,
    "hit_positions": [
      0.0,
      0.0,
      0.0,
      0.0,
      0.0,
      0.5,
      0.5,
      0.5,
      1.0,
      1.0,
      1.0,
      1.0,
      1.5,
      1.5,
      1.5,
      1.75,
      2.0,
      2.0,
      2.0,
      2.0,
      2.5,
      2.5,
      2.5,
      2.5,
      2.5,
      3.0,
      3.0,
      3.0,
      3.0,
      3.0,
      3.5,
      3.5,
      3.5,
      3.5,
      3.75,
      3.75,
      4.0,
      4.0,
      4.0,
      4.0,
      4.0,
      4.5,
      4.5,
      4.5,
      5.0,
      5.0,
      5.0,
      5.0,
      5.5,
      5.5,
      5.5,
      6.0,
      6.0,
      6.0,
      6.0,
      6.25,
      6.25,
      6.5,
      6.5,
      6.5,
      6.5,
      6.5,
      6.5,
      6.75,
      6.75,
      6.75,
      7.0,
      7.0,
      7.0,
      7.0,
      7.0,
      7.0,
      7.0,
      7.0,
      7.25,
      7.25,
      7.25,
      7.5,
      7.5,
      7.5,
      7.5,
      7.5,
      7.5,
      7.75
    ],
    "ioi": [
      0.0,
      0.0,
      0.0,
      0.0,
      0.5,
      0.0,
      0.0,
      0.5,
      0.0,
      0.0,
      0.0,
      0.5,
      0.0,
      0.0,
      0.25,
      0.25,
      0.0,
      0.0,
      0.0,
      0.5,
      0.0,
      0.0,
      0.0,
      0.0,
      0.5,
      0.0,
      0.0,
      0.0,
      0.0,
      0.5,
      0.0,
      0.0,
      0.0,
      0.25,
      0.0,
      0.25,
      0.0,
      0.0,
      0.0,
      0.0,
      0.5,
      0.0,
      0.0,
      0.5,
      0.0,
      0.0,
      0.0,
      0.5,
      0.0,
      0.0,
      0.5,
      0.0,
      0.0,
      0.0,
      0.25,
      0.0,
      0.25,
      0.0,
      0.0,
      0.0,
      0.0,
      0.0,
      0.25,
      0.0,
      0.0,
      0.25,
      0.0,
      0.0,
      0.0,
      0.0,
      0.0,
      0.0,
      0.0,
      0.25,
      0.0,
      0.0,
      0.25,
      0.0,
      0.0,
      0.0,
      0.0,
      0.0,
      0.25,
      0.25
    ],
    "grid": "8th",
    "euclidean_approx": [
      32,
      32
    ],
    "swing_ratio": 1.0
  },
  "pitch": {
    "notes_used": [
      36,
      37,
      38,
      39,
      42,
      44,
      45,
      48,
      49,
      50,
      51
    ],
    "intervals": [
      6,
      2,
      4,
      3,
      9,
      2,
      7,
      13,
      4,
      2,
      7,
      9,
      2,
      7,
      0,
      9,
      2,
      6,
      1,
      15,
      6,
      2,
      6,
      1,
      13,
      4,
      2,
      6,
      1,
      9,
      2,
      6,
      1,
      9,
      9,
      15,
      6,
      2,
      4,
      3,
      9,
      2,
      7,
      13,
      4,
      2,
      7,
      9,
      2,
      7,
      9,
      2,
      5,
      2,
      13,
      13,
      15,
      6,
      2,
      1,
      4,
      2,
      9,
      3,
      6,
      14,
      1,
      1,
      3,
      2,
      1,
      4,
      2,
      12,
      3,
      3,
      6,
      3,
      2,
      1,
      4,
      2,
      9
    ],
    "register": "low",
    "is_melodic": true,
    "pitch_range": 15,
    "pitch_distribution": {
      "36": 4,
      "42": 20,
      "44": 16,
      "48": 2,
      "51": 20,
      "38": 5,
      "50": 4,
      "49": 4,
      "45": 5,
      "37": 1,
      "39": 3
    }
  },
  "velocity": {
    "mean": 68.8,
    "variance": 1076.1,
    "std": 32.8,
    "accents": [
      3,
      8,
      18,
      20,
      23,
      25,
      28,
      32,
      36,
      39,
      44,
      53,
      57,
      61,
      66,
      72,
      81
    ],
    "profile": [
      93,
      58,
      59,
      127,
      89,
      31,
      55,
      29,
      112,
      57,
      56,
      69,
      31,
      65,
      30,
      49,
      44,
      79,
      127,
      56,
      110,
      51,
      70,
      127,
      60,
      127,
      63,
      66,
      127,
      87,
      94,
      74,
      127,
      47,
      45,
      63,
      127,
      45,
      59,
      127,
      71,
      30,
      53,
      53,
      108,
      44,
      42,
      94,
      28,
      37,
      36,
      46,
      32,
      127,
      75,
      58,
      48,
      124,
      86,
      32,
      36,
      127,
      39,
      21,
      42,
      42,
      127,
      95,
      30,
      53,
      32,
      47,
      127,
      91,
      69,
      24,
      60,
      77,
      33,
      54,
      65,
      127,
      72,
      57
    ]
  },
  "notes": [
    {
      "pitch": 36,
      "start_time": 0.0,
      "duration": 0.1104,
      "velocity": 93
    },
    {
      "pitch": 42,
      "start_time": 0.0,
      "duration": 0.0799,
      "velocity": 58
    },
    {
      "pitch": 44,
      "start_time": 0.0,
      "duration": 0.5,
      "velocity": 59
    },
    {
      "pitch": 48,
      "start_time": 0.0,
      "duration": 1.8856,
      "velocity": 127
    },
    {
      "pitch": 51,
      "start_time": 0.0,
      "duration": 0.1641,
      "velocity": 89
    },
    {
      "pitch": 42,
      "start_time": 0.5,
      "duration": 0.0621,
      "velocity": 31
    },
    {
      "pitch": 44,
      "start_time": 0.5,
      "duration": 0.5,
      "velocity": 55
    },
    {
      "pitch": 51,
      "start_time": 0.5,
      "duration": 0.1066,
      "velocity": 29
    },
    {
      "pitch": 38,
      "start_time": 1.0,
      "duration": 0.1394,
      "velocity": 112
    },
    {
      "pitch": 42,
      "start_time": 1.0,
      "duration": 0.1281,
      "velocity": 57
    },
    {
      "pitch": 44,
      "start_time": 1.0,
      "duration": 0.5,
      "velocity": 56
    },
    {
      "pitch": 51,
      "start_time": 1.0,
      "duration": 0.1691,
      "velocity": 69
    },
    {
      "pitch": 42,
      "start_time": 1.5,
      "duration": 0.1032,
      "velocity": 31
    },
    {
      "pitch": 44,
      "start_time": 1.5,
      "duration": 0.5,
      "velocity": 65
    },
    {
      "pitch": 51,
      "start_time": 1.5,
      "duration": 0.105,
      "velocity": 30
    },
    {
      "pitch": 51,
      "start_time": 1.75,
      "duration": 0.1135,
      "velocity": 49
    },
    {
      "pitch": 42,
      "start_time": 2.0,
      "duration": 0.1101,
      "velocity": 44
    },
    {
      "pitch": 44,
      "start_time": 2.0,
      "duration": 0.5,
      "velocity": 79
    },
    {
      "pitch": 50,
      "start_time": 2.0,
      "duration": 0.1422,
      "velocity": 127
    },
    {
      "pitch": 51,
      "start_time": 2.0,
      "duration": 0.0882,
      "velocity": 56
    },
    {
      "pitch": 36,
      "start_time": 2.5,
      "duration": 0.1682,
      "velocity": 110
    },
    {
      "pitch": 42,
      "start_time": 2.5,
      "duration": 0.1125,
      "velocity": 51
    },
    {
      "pitch": 44,
      "start_time": 2.5,
      "duration": 0.5,
      "velocity": 70
    },
    {
      "pitch": 50,
      "start_time": 2.5,
      "duration": 0.1176,
      "velocity": 127
    },
    {
      "pitch": 51,
      "start_time": 2.5,
      "duration": 0.085,
      "velocity": 60
    },
    {
      "pitch": 38,
      "start_time": 3.0,
      "duration": 0.097,
      "velocity": 127
    },
    {
      "pitch": 42,
      "start_time": 3.0,
      "duration": 0.1489,
      "velocity": 63
    },
    {
      "pitch": 44,
      "start_time": 3.0,
      "duration": 0.5,
      "velocity": 66
    },
    {
      "pitch": 50,
      "start_time": 3.0,
      "duration": 0.1303,
      "velocity": 127
    },
    {
      "pitch": 51,
      "start_time": 3.0,
      "duration": 0.0887,
      "velocity": 87
    },
    {
      "pitch": 42,
      "start_time": 3.5,
      "duration": 0.25,
      "velocity": 94
    },
    {
      "pitch": 44,
      "start_time": 3.5,
      "duration": 0.5,
      "velocity": 74
    },
    {
      "pitch": 50,
      "start_time": 3.5,
      "duration": 0.1642,
      "velocity": 127
    },
    {
      "pitch": 51,
      "start_time": 3.5,
      "duration": 0.0619,
      "velocity": 47
    },
    {
      "pitch": 42,
      "start_time": 3.75,
      "duration": 0.089,
      "velocity": 45
    },
    {
      "pitch": 51,
      "start_time": 3.75,
      "duration": 0.1592,
      "velocity": 63
    },
    {
      "pitch": 36,
      "start_time": 4.0,
      "duration": 0.1662,
      "velocity": 127
    },
    {
      "pitch": 42,
      "start_time": 4.0,
      "duration": 0.1018,
      "velocity": 45
    },
    {
      "pitch": 44,
      "start_time": 4.0,
      "duration": 0.3976,
      "velocity": 59
    },
    {
      "pitch": 48,
      "start_time": 4.0,
      "duration": 1.9413,
      "velocity": 127
    },
    {
      "pitch": 51,
      "start_time": 4.0,
      "duration": 0.0853,
      "velocity": 71
    },
    {
      "pitch": 42,
      "start_time": 4.5,
      "duration": 0.0951,
      "velocity": 30
    },
    {
      "pitch": 44,
      "start_time": 4.5,
      "duration": 0.5,
      "velocity": 53
    },
    {
      "pitch": 51,
      "start_time": 4.5,
      "duration": 0.0889,
      "velocity": 53
    },
    {
      "pitch": 38,
      "start_time": 5.0,
      "duration": 0.0949,
      "velocity": 108
    },
    {
      "pitch": 42,
      "start_time": 5.0,
      "duration": 0.1228,
      "velocity": 44
    },
    {
      "pitch": 44,
      "start_time": 5.0,
      "duration": 0.5,
      "velocity": 42
    },
    {
      "pitch": 51,
      "start_time": 5.0,
      "duration": 0.0938,
      "velocity": 94
    },
    {
      "pitch": 42,
      "start_time": 5.5,
      "duration": 0.111,
      "velocity": 28
    },
    {
      "pitch": 44,
      "start_time": 5.5,
      "duration": 0.5,
      "velocity": 37
    },
    {
      "pitch": 51,
      "start_time": 5.5,
      "duration": 0.064,
      "velocity": 36
    },
    {
      "pitch": 42,
      "start_time": 6.0,
      "duration": 0.121,
      "velocity": 46
    },
    {
      "pitch": 44,
      "start_time": 6.0,
      "duration": 0.5,
      "velocity": 32
    },
    {
      "pitch": 49,
      "start_time": 6.0,
      "duration": 0.1183,
      "velocity": 127
    },
    {
      "pitch": 51,
      "start_time": 6.0,
      "duration": 0.0902,
      "velocity": 75
    },
    {
      "pitch": 38,
      "start_time": 6.25,
      "duration": 0.1197,
      "velocity": 58
    },
    {
      "pitch": 51,
      "start_time": 6.25,
      "duration": 0.1761,
      "velocity": 48
    },
    {
      "pitch": 36,
      "start_time": 6.5,
      "duration": 0.1634,
      "velocity": 124
    },
    {
      "pitch": 42,
      "start_time": 6.5,
      "duration": 0.25,
      "velocity": 86
    },
    {
      "pitch": 44,
      "start_time": 6.5,
      "duration": 0.5,
      "velocity": 32
    },
    {
      "pitch": 45,
      "start_time": 6.5,
      "duration": 0.0784,
      "velocity": 36
    },
    {
      "pitch": 49,
      "start_time": 6.5,
      "duration": 0.1281,
      "velocity": 127
    },
    {
      "pitch": 51,
      "start_time": 6.5,
      "duration": 0.0619,
      "velocity": 39
    },
    {
      "pitch": 42,
      "start_time": 6.75,
      "duration": 0.0949,
      "velocity": 21
    },
    {
      "pitch": 45,
      "start_time": 6.75,
      "duration": 0.1723,
      "velocity": 42
    },
    {
      "pitch": 51,
      "start_time": 6.75,
      "duration": 0.1509,
      "velocity": 42
    },
    {
      "pitch": 37,
      "start_time": 7.0,
      "duration": 0.0789,
      "velocity": 127
    },
    {
      "pitch": 38,
      "start_time": 7.0,
      "duration": 0.1183,
      "velocity": 95
    },
    {
      "pitch": 39,
      "start_time": 7.0,
      "duration": 0.0735,
      "velocity": 30
    },
    {
      "pitch": 42,
      "start_time": 7.0,
      "duration": 0.1515,
      "velocity": 53
    },
    {
      "pitch": 44,
      "start_time": 7.0,
      "duration": 0.5,
      "velocity": 32
    },
    {
      "pitch": 45,
      "start_time": 7.0,
      "duration": 0.066,
      "velocity": 47
    },
    {
      "pitch": 49,
      "start_time": 7.0,
      "duration": 0.1622,
      "velocity": 127
    },
    {
      "pitch": 51,
      "start_time": 7.0,
      "duration": 0.0942,
      "velocity": 91
    },
    {
      "pitch": 39,
      "start_time": 7.25,
      "duration": 0.1604,
      "velocity": 69
    },
    {
      "pitch": 42,
      "start_time": 7.25,
      "duration": 0.25,
      "velocity": 24
    },
    {
      "pitch": 45,
      "start_time": 7.25,
      "duration": 0.1497,
      "velocity": 60
    },
    {
      "pitch": 39,
      "start_time": 7.5,
      "duration": 0.1393,
      "velocity": 77
    },
    {
      "pitch": 42,
      "start_time": 7.5,
      "duration": 0.25,
      "velocity": 33
    },
    {
      "pitch": 44,
      "start_time": 7.5,
      "duration": 0.875,
      "velocity": 54
    },
    {
      "pitch": 45,
      "start_time": 7.5,
      "duration": 0.1162,
      "velocity": 65
    },
    {
      "pitch": 49,
      "start_time": 7.5,
      "duration": 0.1965,
      "velocity": 127
    },
    {
      "pitch": 51,
      "start_time": 7.5,
      "duration": 0.0981,
      "velocity": 72
    },
    {
      "pitch": 42,
      "start_time": 7.75,
      "duration": 0.0524,
      "velocity": 57
    }
  ]
}