{
  "source": {
    "song": "packs",
    "track_index": 0,
    "track_name": "Skitter and Step / MIDI Clips / 120 - 150 BPM / Sol Hard groove 137 bpm",
    "slot_index": 0,
    "clip_name": "Skitter and Step / MIDI Clips / 120 - 150 BPM / Sol Hard groove 137 bpm",
    "mid_file": "/Users/darnold/Music/Ableton/Packs/Skitter and Step/MIDI Clips/120 - 150 BPM/Sol Hard groove 137 bpm.alc"
  },
  "meta": {
    "bpm": 137.0,
    "key": "?",
    "scale": "?",
    "length_beats": 8.0,
    "note_count": 57
  },
  "rhythm": {
    "density": 0.75,
    "hit_positions": [
      0.0,
      0.0,
      0.0,
      0.0,
      0.0,
      0.4987,
      0.4987,
      1.0002,
      1.0002,
      1.0002,
      1.0002,
      1.4914,
      1.4914,
      1.4914,
      1.9818,
      2.0,
      2.2961,
      2.4774,
      2.4774,
      2.4774,
      2.4774,
      2.7963,
      2.9855,
      3.2965,
      3.2965,
      3.4966,
      3.5,
      4.0,
      4.0,
      4.0,
      4.0,
      4.4987,
      4.5,
      5.0002,
      5.0002,
      5.0002,
      5.4914,
      5.4914,
      5.4914,
      5.9818,
      6.2961,
      6.4774,
      6.4774,
      6.4774,
      6.4774,
      6.5,
      6.7963,
      6.9855,
      6.9855,
      7.0,
      7.25,
      7.2965,
      7.2965,
      7.4966,
      7.4966,
      7.5,
      7.8001
    ],
    "ioi": [
      0.0,
      0.0,
      0.0,
      0.0,
      0.4987,
      0.0,
      0.5015,
      0.0,
      0.0,
      0.0,
      0.4912,
      0.0,
      0.0,
      0.4904,
      0.0182,
      0.2961,
      0.1813,
      0.0,
      0.0,
      0.0,
      0.3189,
      0.1892,
      0.311,
      0.0,
      0.2001,
      0.0034,
      0.5,
      0.0,
      0.0,
      0.0,
      0.4987,
      0.0013,
      0.5002,
      0.0,
      0.0,
      0.4912,
      0.0,
      0.0,
      0.4904,
      0.3143,
      0.1813,
      0.0,
      0.0,
      0.0,
      0.0226,
      0.2963,
      0.1892,
      0.0,
      0.0145,
      0.25,
      0.0465,
      0.0,
      0.2001,
      0.0,
      0.0034,
      0.3001,
      0.1999
    ],
    "grid": "16th",
    "euclidean_approx": [
      32,
      32
    ],
    "swing_ratio": 1.725
  },
  "pitch": {
    "notes_used": [
      36,
      37,
      38,
      39,
      40,
      41,
      42,
      44,
      45,
      46,
      47,
      48,
      50,
      51
    ],
    "intervals": [
      5,
      1,
      4,
      2,
      8,
      6,
      8,
      1,
      2,
      5,
      10,
      10,
      2,
      2,
      5,
      1,
      4,
      1,
      3,
      4,
      4,
      4,
      10,
      12,
      2,
      4,
      14,
      6,
      4,
      2,
      2,
      1,
      9,
      1,
      7,
      10,
      10,
      2,
      2,
      4,
      4,
      1,
      3,
      4,
      5,
      9,
      3,
      1,
      5,
      7,
      8,
      12,
      11,
      9,
      5,
      13
    ],
    "register": "low",
    "is_melodic": true,
    "pitch_range": 15,
    "pitch_distribution": {
      "36": 6,
      "41": 3,
      "42": 8,
      "46": 16,
      "48": 6,
      "40": 1,
      "38": 5,
      "39": 4,
      "50": 1,
      "47": 1,
      "51": 3,
      "45": 1,
      "44": 1,
      "37": 1
    }
  },
  "velocity": {
    "mean": 79.8,
    "variance": 135.4,
    "std": 11.6,
    "accents": [
      7,
      8,
      11,
      17,
      18,
      19,
      33,
      34,
      36,
      41,
      42,
      43
    ],
    "profile": [
      83,
      79,
      83,
      70,
      70,
      77,
      77,
      98,
      98,
      82,
      82,
      98,
      78,
      83,
      71,
      71,
      49,
      98,
      98,
      98,
      77,
      61,
      82,
      77,
      77,
      78,
      77,
      83,
      83,
      70,
      70,
      77,
      77,
      98,
      98,
      82,
      98,
      78,
      83,
      71,
      49,
      98,
      98,
      98,
      77,
      71,
      61,
      77,
      82,
      71,
      71,
      77,
      77,
      78,
      78,
      71,
      76
    ]
  },
  "notes": [
    {
      "pitch": 36,
      "start_time": 0.0,
      "duration": 0.2961,
      "velocity": 83
    },
    {
      "pitch": 41,
      "start_time": 0.0,
      "duration": 0.25,
      "velocity": 79
    },
    {
      "pitch": 42,
      "start_time": 0.0,
      "duration": 0.2961,
      "velocity": 83
    },
    {
      "pitch": 46,
      "start_time": 0.0,
      "duration": 0.2961,
      "velocity": 70
    },
    {
      "pitch": 48,
      "start_time": 0.0,
      "duration": 0.9716,
      "velocity": 70
    },
    {
      "pitch": 40,
      "start_time": 0.4987,
      "duration": 0.2976,
      "velocity": 77
    },
    {
      "pitch": 46,
      "start_time": 0.4987,
      "duration": 0.2976,
      "velocity": 77
    },
    {
      "pitch": 38,
      "start_time": 1.0002,
      "duration": 0.2962,
      "velocity": 98
    },
    {
      "pitch": 39,
      "start_time": 1.0002,
      "duration": 0.2962,
      "velocity": 98
    },
    {
      "pitch": 41,
      "start_time": 1.0002,
      "duration": 0.2962,
      "velocity": 82
    },
    {
      "pitch": 46,
      "start_time": 1.0002,
      "duration": 0.2962,
      "velocity": 82
    },
    {
      "pitch": 36,
      "start_time": 1.4914,
      "duration": 0.3052,
      "velocity": 98
    },
    {
      "pitch": 46,
      "start_time": 1.4914,
      "duration": 0.3052,
      "velocity": 78
    },
    {
      "pitch": 48,
      "start_time": 1.4914,
      "duration": 0.9605,
      "velocity": 83
    },
    {
      "pitch": 46,
      "start_time": 1.9818,
      "duration": 0.3142,
      "velocity": 71
    },
    {
      "pitch": 41,
      "start_time": 2.0,
      "duration": 0.3142,
      "velocity": 71
    },
    {
      "pitch": 42,
      "start_time": 2.2961,
      "duration": 0.1814,
      "velocity": 49
    },
    {
      "pitch": 38,
      "start_time": 2.4774,
      "duration": 0.3188,
      "velocity": 98
    },
    {
      "pitch": 39,
      "start_time": 2.4774,
      "duration": 0.3188,
      "velocity": 98
    },
    {
      "pitch": 42,
      "start_time": 2.4774,
      "duration": 0.3188,
      "velocity": 98
    },
    {
      "pitch": 46,
      "start_time": 2.4774,
      "duration": 0.3188,
      "velocity": 77
    },
    {
      "pitch": 42,
      "start_time": 2.7963,
      "duration": 0.1892,
      "velocity": 61
    },
    {
      "pitch": 46,
      "start_time": 2.9855,
      "duration": 0.311,
      "velocity": 82
    },
    {
      "pitch": 36,
      "start_time": 3.2965,
      "duration": 0.2002,
      "velocity": 77
    },
    {
      "pitch": 48,
      "start_time": 3.2965,
      "duration": 0.3257,
      "velocity": 77
    },
    {
      "pitch": 46,
      "start_time": 3.4966,
      "duration": 0.3035,
      "velocity": 78
    },
    {
      "pitch": 50,
      "start_time": 3.5,
      "duration": 0.2002,
      "velocity": 77
    },
    {
      "pitch": 36,
      "start_time": 4.0,
      "duration": 0.2961,
      "velocity": 83
    },
    {
      "pitch": 42,
      "start_time": 4.0,
      "duration": 0.2961,
      "velocity": 83
    },
    {
      "pitch": 46,
      "start_time": 4.0,
      "duration": 0.2961,
      "velocity": 70
    },
    {
      "pitch": 48,
      "start_time": 4.0,
      "duration": 0.9716,
      "velocity": 70
    },
    {
      "pitch": 46,
      "start_time": 4.4987,
      "duration": 0.2976,
      "velocity": 77
    },
    {
      "pitch": 47,
      "start_time": 4.5,
      "duration": 0.2976,
      "velocity": 77
    },
    {
      "pitch": 38,
      "start_time": 5.0002,
      "duration": 0.2962,
      "velocity": 98
    },
    {
      "pitch": 39,
      "start_time": 5.0002,
      "duration": 0.2962,
      "velocity": 98
    },
    {
      "pitch": 46,
      "start_time": 5.0002,
      "duration": 0.2962,
      "velocity": 82
    },
    {
      "pitch": 36,
      "start_time": 5.4914,
      "duration": 0.3052,
      "velocity": 98
    },
    {
      "pitch": 46,
      "start_time": 5.4914,
      "duration": 0.3052,
      "velocity": 78
    },
    {
      "pitch": 48,
      "start_time": 5.4914,
      "duration": 0.9605,
      "velocity": 83
    },
    {
      "pitch": 46,
      "start_time": 5.9818,
      "duration": 0.3142,
      "velocity": 71
    },
    {
      "pitch": 42,
      "start_time": 6.2961,
      "duration": 0.1814,
      "velocity": 49
    },
    {
      "pitch": 38,
      "start_time": 6.4774,
      "duration": 0.3188,
      "velocity": 98
    },
    {
      "pitch": 39,
      "start_time": 6.4774,
      "duration": 0.3188,
      "velocity": 98
    },
    {
      "pitch": 42,
      "start_time": 6.4774,
      "duration": 0.3188,
      "velocity": 98
    },
    {
      "pitch": 46,
      "start_time": 6.4774,
      "duration": 0.3188,
      "velocity": 77
    },
    {
      "pitch": 51,
      "start_time": 6.5,
      "duration": 0.5,
      "velocity": 71
    },
    {
      "pitch": 42,
      "start_time": 6.7963,
      "duration": 0.1892,
      "velocity": 61
    },
    {
      "pitch": 45,
      "start_time": 6.9855,
      "duration": 0.311,
      "velocity": 77
    },
    {
      "pitch": 46,
      "start_time": 6.9855,
      "duration": 0.311,
      "velocity": 82
    },
    {
      "pitch": 51,
      "start_time": 7.0,
      "duration": 0.5,
      "velocity": 71
    },
    {
      "pitch": 44,
      "start_time": 7.25,
      "duration": 0.25,
      "velocity": 71
    },
    {
      "pitch": 36,
      "start_time": 7.2965,
      "duration": 0.2002,
      "velocity": 77
    },
    {
      "pitch": 48,
      "start_time": 7.2965,
      "duration": 0.3257,
      "velocity": 77
    },
    {
      "pitch": 37,
      "start_time": 7.4966,
      "duration": 0.3035,
      "velocity": 78
    },
    {
      "pitch": 46,
      "start_time": 7.4966,
      "duration": 0.3035,
      "velocity": 78
    },
    {
      "pitch": 51,
      "start_time": 7.5,
      "duration": 0.5,
      "velocity": 71
    },
    {
      "pitch": 38,
      "start_time": 7.8001,
      "duration": 0.1999,
      "velocity": 76
    }
  ]
}