{
  "source": {
    "song": "packs",
    "track_index": 0,
    "track_name": "Trap Drums by Sound Oracle / MIDI Clips / Seclude Kit 70 bpm",
    "slot_index": 0,
    "clip_name": "Trap Drums by Sound Oracle / MIDI Clips / Seclude Kit 70 bpm",
    "mid_file": "/Users/darnold/Music/Ableton/Packs/Trap Drums by Sound Oracle/MIDI Clips/Seclude Kit 70 bpm.alc"
  },
  "meta": {
    "bpm": 70.0,
    "key": "?",
    "scale": "?",
    "length_beats": 8.0,
    "note_count": 48
  },
  "rhythm": {
    "density": 1.0,
    "hit_positions": [
      0.0,
      0.0,
      0.25,
      0.5,
      0.75,
      1.0,
      1.0,
      1.25,
      1.5,
      1.5,
      1.75,
      2.0,
      2.25,
      2.5,
      2.5,
      2.75,
      3.0,
      3.0,
      3.25,
      3.25,
      3.5,
      3.75,
      4.0,
      4.0,
      4.125,
      4.25,
      4.5,
      4.75,
      4.75,
      5.0,
      5.0,
      5.25,
      5.5,
      5.5,
      5.75,
      5.75,
      6.0,
      6.25,
      6.25,
      6.5,
      6.75,
      6.75,
      7.0,
      7.0,
      7.25,
      7.25,
      7.4792,
      7.5
    ],
    "ioi": [
      0.0,
      0.25,
      0.25,
      0.25,
      0.25,
      0.0,
      0.25,
      0.25,
      0.0,
      0.25,
      0.25,
      0.25,
      0.25,
      0.0,
      0.25,
      0.25,
      0.0,
      0.25,
      0.0,
      0.25,
      0.25,
      0.25,
      0.0,
      0.125,
      0.125,
      0.25,
      0.25,
      0.0,
      0.25,
      0.0,
      0.25,
      0.25,
      0.0,
      0.25,
      0.0,
      0.25,
      0.25,
      0.0,
      0.25,
      0.25,
      0.0,
      0.25,
      0.0,
      0.25,
      0.0,
      0.2292,
      0.0208,
      0.5
    ],
    "grid": "16th",
    "euclidean_approx": [
      32,
      32
    ],
    "swing_ratio": 1.042
  },
  "pitch": {
    "notes_used": [
      36,
      37,
      39,
      42
    ],
    "intervals": [
      6,
      0,
      0,
      0,
      5,
      5,
      0,
      6,
      6,
      0,
      0,
      0,
      6,
      6,
      0,
      5,
      5,
      6,
      6,
      0,
      0,
      6,
      6,
      0,
      0,
      0,
      6,
      6,
      5,
      5,
      0,
      6,
      6,
      6,
      6,
      0,
      6,
      6,
      0,
      6,
      6,
      5,
      5,
      6,
      6,
      3,
      3
    ],
    "register": "low",
    "is_melodic": true,
    "pitch_range": 6,
    "pitch_distribution": {
      "36": 11,
      "42": 32,
      "37": 4,
      "39": 1
    }
  },
  "velocity": {
    "mean": 127.0,
    "variance": 0.0,
    "std": 0.0,
    "accents": [],
    "profile": [
      127,
      127,
      127,
      127,
      127,
      127,
      127,
      127,
      127,
      127,
      127,
      127,
      127,
      127,
      127,
      127,
      127,
      127,
      127,
      127,
      127,
      127,
      127,
      127,
      127,
      127,
      127,
      127,
      127,
      127,
      127,
      127,
      127,
      127,
      127,
      127,
      127,
      127,
      127,
      127,
      127,
      127,
      127,
      127,
      127,
      127,
      127,
      127
    ]
  },
  "notes": [
    {
      "pitch": 36,
      "start_time": 0.0,
      "duration": 0.25,
      "velocity": 127
    },
    {
      "pitch": 42,
      "start_time": 0.0,
      "duration": 0.25,
      "velocity": 127
    },
    {
      "pitch": 42,
      "start_time": 0.25,
      "duration": 0.25,
      "velocity": 127
    },
    {
      "pitch": 42,
      "start_time": 0.5,
      "duration": 0.25,
      "velocity": 127
    },
    {
      "pitch": 42,
      "start_time": 0.75,
      "duration": 0.25,
      "velocity": 127
    },
    {
      "pitch": 37,
      "start_time": 1.0,
      "duration": 0.25,
      "velocity": 127
    },
    {
      "pitch": 42,
      "start_time": 1.0,
      "duration": 0.25,
      "velocity": 127
    },
    {
      "pitch": 42,
      "start_time": 1.25,
      "duration": 0.25,
      "velocity": 127
    },
    {
      "pitch": 36,
      "start_time": 1.5,
      "duration": 0.1667,
      "velocity": 127
    },
    {
      "pitch": 42,
      "start_time": 1.5,
      "duration": 0.25,
      "velocity": 127
    },
    {
      "pitch": 42,
      "start_time": 1.75,
      "duration": 0.25,
      "velocity": 127
    },
    {
      "pitch": 42,
      "start_time": 2.0,
      "duration": 0.25,
      "velocity": 127
    },
    {
      "pitch": 42,
      "start_time": 2.25,
      "duration": 0.25,
      "velocity": 127
    },
    {
      "pitch": 36,
      "start_time": 2.5,
      "duration": 0.25,
      "velocity": 127
    },
    {
      "pitch": 42,
      "start_time": 2.5,
      "duration": 0.25,
      "velocity": 127
    },
    {
      "pitch": 42,
      "start_time": 2.75,
      "duration": 0.25,
      "velocity": 127
    },
    {
      "pitch": 37,
      "start_time": 3.0,
      "duration": 0.25,
      "velocity": 127
    },
    {
      "pitch": 42,
      "start_time": 3.0,
      "duration": 0.25,
      "velocity": 127
    },
    {
      "pitch": 36,
      "start_time": 3.25,
      "duration": 0.25,
      "velocity": 127
    },
    {
      "pitch": 42,
      "start_time": 3.25,
      "duration": 0.25,
      "velocity": 127
    },
    {
      "pitch": 42,
      "start_time": 3.5,
      "duration": 0.25,
      "velocity": 127
    },
    {
      "pitch": 42,
      "start_time": 3.75,
      "duration": 0.25,
      "velocity": 127
    },
    {
      "pitch": 36,
      "start_time": 4.0,
      "duration": 0.25,
      "velocity": 127
    },
    {
      "pitch": 42,
      "start_time": 4.0,
      "duration": 0.125,
      "velocity": 127
    },
    {
      "pitch": 42,
      "start_time": 4.125,
      "duration": 0.125,
      "velocity": 127
    },
    {
      "pitch": 42,
      "start_time": 4.25,
      "duration": 0.25,
      "velocity": 127
    },
    {
      "pitch": 42,
      "start_time": 4.5,
      "duration": 0.25,
      "velocity": 127
    },
    {
      "pitch": 36,
      "start_time": 4.75,
      "duration": 0.1562,
      "velocity": 127
    },
    {
      "pitch": 42,
      "start_time": 4.75,
      "duration": 0.25,
      "velocity": 127
    },
    {
      "pitch": 37,
      "start_time": 5.0,
      "duration": 0.25,
      "velocity": 127
    },
    {
      "pitch": 42,
      "start_time": 5.0,
      "duration": 0.25,
      "velocity": 127
    },
    {
      "pitch": 42,
      "start_time": 5.25,
      "duration": 0.25,
      "velocity": 127
    },
    {
      "pitch": 36,
      "start_time": 5.5,
      "duration": 0.1667,
      "velocity": 127
    },
    {
      "pitch": 42,
      "start_time": 5.5,
      "duration": 0.25,
      "velocity": 127
    },
    {
      "pitch": 36,
      "start_time": 5.75,
      "duration": 0.25,
      "velocity": 127
    },
    {
      "pitch": 42,
      "start_time": 5.75,
      "duration": 0.25,
      "velocity": 127
    },
    {
      "pitch": 42,
      "start_time": 6.0,
      "duration": 0.25,
      "velocity": 127
    },
    {
      "pitch": 36,
      "start_time": 6.25,
      "duration": 0.25,
      "velocity": 127
    },
    {
      "pitch": 42,
      "start_time": 6.25,
      "duration": 0.25,
      "velocity": 127
    },
    {
      "pitch": 42,
      "start_time": 6.5,
      "duration": 0.25,
      "velocity": 127
    },
    {
      "pitch": 36,
      "start_time": 6.75,
      "duration": 0.25,
      "velocity": 127
    },
    {
      "pitch": 42,
      "start_time": 6.75,
      "duration": 0.25,
      "velocity": 127
    },
    {
      "pitch": 37,
      "start_time": 7.0,
      "duration": 0.25,
      "velocity": 127
    },
    {
      "pitch": 42,
      "start_time": 7.0,
      "duration": 0.25,
      "velocity": 127
    },
    {
      "pitch": 36,
      "start_time": 7.25,
      "duration": 0.25,
      "velocity": 127
    },
    {
      "pitch": 42,
      "start_time": 7.25,
      "duration": 0.25,
      "velocity": 127
    },
    {
      "pitch": 39,
      "start_time": 7.4792,
      "duration": 0.3542,
      "velocity": 127
    },
    {
      "pitch": 42,
      "start_time": 7.5,
      "duration": 0.25,
      "velocity": 127
    }
  ]
}