{
  "source": {
    "song": "packs",
    "track_index": 0,
    "track_name": "Trap Drums by Sound Oracle / MIDI Clips / MPE Surge Kit 70 bpm",
    "slot_index": 0,
    "clip_name": "Trap Drums by Sound Oracle / MIDI Clips / MPE Surge Kit 70 bpm",
    "mid_file": "/Users/darnold/Music/Ableton/Packs/Trap Drums by Sound Oracle/MIDI Clips/MPE Surge Kit 70 bpm.alc"
  },
  "meta": {
    "bpm": 70.0,
    "key": "?",
    "scale": "?",
    "length_beats": 8.0,
    "note_count": 90
  },
  "rhythm": {
    "density": 2.062,
    "hit_positions": [
      0.0,
      0.0,
      0.125,
      0.25,
      0.375,
      0.5,
      0.625,
      0.75,
      0.75,
      0.875,
      1.0,
      1.0,
      1.0108,
      1.125,
      1.25,
      1.25,
      1.375,
      1.5,
      1.5,
      1.625,
      1.75,
      1.875,
      2.0,
      2.125,
      2.25,
      2.25,
      2.375,
      2.5,
      2.5,
      2.625,
      2.75,
      2.875,
      3.0,
      3.0,
      3.0425,
      3.125,
      3.25,
      3.25,
      3.375,
      3.5,
      3.625,
      3.75,
      3.75,
      3.875,
      3.875,
      4.0,
      4.0,
      4.125,
      4.25,
      4.375,
      4.5,
      4.625,
      4.75,
      4.75,
      4.875,
      5.0,
      5.0,
      5.0455,
      5.125,
      5.25,
      5.25,
      5.375,
      5.5,
      5.5,
      5.625,
      5.75,
      5.875,
      6.0,
      6.125,
      6.25,
      6.25,
      6.375,
      6.5,
      6.5,
      6.625,
      6.75,
      6.875,
      6.9926,
      7.0,
      7.0,
      7.125,
      7.25,
      7.25,
      7.375,
      7.5,
      7.5,
      7.625,
      7.75,
      7.75,
      7.875
    ],
    "ioi": [
      0.0,
      0.125,
      0.125,
      0.125,
      0.125,
      0.125,
      0.125,
      0.0,
      0.125,
      0.125,
      0.0,
      0.0108,
      0.1142,
      0.125,
      0.0,
      0.125,
      0.125,
      0.0,
      0.125,
      0.125,
      0.125,
      0.125,
      0.125,
      0.125,
      0.0,
      0.125,
      0.125,
      0.0,
      0.125,
      0.125,
      0.125,
      0.125,
      0.0,
      0.0425,
      0.0825,
      0.125,
      0.0,
      0.125,
      0.125,
      0.125,
      0.125,
      0.0,
      0.125,
      0.0,
      0.125,
      0.0,
      0.125,
      0.125,
      0.125,
      0.125,
      0.125,
      0.125,
      0.0,
      0.125,
      0.125,
      0.0,
      0.0455,
      0.0795,
      0.125,
      0.0,
      0.125,
      0.125,
      0.0,
      0.125,
      0.125,
      0.125,
      0.125,
      0.125,
      0.125,
      0.0,
      0.125,
      0.125,
      0.0,
      0.125,
      0.125,
      0.125,
      0.1176,
      0.0074,
      0.0,
      0.125,
      0.125,
      0.0,
      0.125,
      0.125,
      0.0,
      0.125,
      0.125,
      0.0,
      0.125,
      0.125
    ],
    "grid": "16th",
    "euclidean_approx": [
      32,
      32
    ],
    "swing_ratio": 1.215
  },
  "pitch": {
    "notes_used": [
      36,
      37,
      39,
      42,
      48,
      49
    ],
    "intervals": [
      6,
      0,
      0,
      0,
      0,
      0,
      6,
      6,
      0,
      5,
      5,
      7,
      7,
      6,
      6,
      0,
      6,
      6,
      0,
      0,
      0,
      0,
      0,
      6,
      6,
      0,
      6,
      6,
      0,
      0,
      0,
      5,
      5,
      6,
      6,
      6,
      6,
      0,
      0,
      0,
      6,
      6,
      6,
      6,
      6,
      6,
      0,
      0,
      0,
      0,
      0,
      6,
      6,
      0,
      5,
      5,
      7,
      7,
      6,
      6,
      0,
      6,
      6,
      0,
      0,
      0,
      0,
      0,
      6,
      6,
      0,
      6,
      6,
      0,
      0,
      0,
      6,
      11,
      5,
      0,
      6,
      6,
      0,
      6,
      6,
      0,
      3,
      3,
      0
    ],
    "register": "low",
    "is_melodic": true,
    "pitch_range": 13,
    "pitch_distribution": {
      "36": 17,
      "42": 64,
      "37": 4,
      "49": 2,
      "48": 2,
      "39": 1
    }
  },
  "velocity": {
    "mean": 99.5,
    "variance": 539.4,
    "std": 23.2,
    "accents": [
      0,
      1,
      5,
      7,
      10,
      11,
      12,
      14,
      17,
      18,
      22,
      27,
      28,
      32,
      33,
      34,
      36,
      39,
      45,
      46,
      50,
      52,
      55,
      56,
      57,
      62,
      63,
      67,
      69,
      72,
      73,
      77,
      78,
      79,
      81,
      84,
      85
    ],
    "profile": [
      127,
      127,
      80,
      80,
      80,
      127,
      80,
      127,
      80,
      80,
      127,
      127,
      127,
      80,
      127,
      80,
      80,
      127,
      127,
      80,
      80,
      80,
      127,
      80,
      88,
      80,
      80,
      127,
      127,
      80,
      80,
      80,
      127,
      127,
      127,
      80,
      127,
      80,
      80,
      127,
      80,
      57,
      80,
      84,
      80,
      127,
      127,
      80,
      80,
      80,
      127,
      80,
      127,
      80,
      80,
      127,
      127,
      127,
      80,
      88,
      80,
      80,
      127,
      127,
      80,
      80,
      80,
      127,
      80,
      127,
      80,
      80,
      127,
      127,
      80,
      80,
      80,
      127,
      127,
      127,
      80,
      127,
      80,
      80,
      127,
      127,
      80,
      101,
      80,
      80
    ]
  },
  "notes": [
    {
      "pitch": 36,
      "start_time": 0.0,
      "duration": 0.25,
      "velocity": 127
    },
    {
      "pitch": 42,
      "start_time": 0.0,
      "duration": 0.125,
      "velocity": 127
    },
    {
      "pitch": 42,
      "start_time": 0.125,
      "duration": 0.125,
      "velocity": 80
    },
    {
      "pitch": 42,
      "start_time": 0.25,
      "duration": 0.125,
      "velocity": 80
    },
    {
      "pitch": 42,
      "start_time": 0.375,
      "duration": 0.125,
      "velocity": 80
    },
    {
      "pitch": 42,
      "start_time": 0.5,
      "duration": 0.125,
      "velocity": 127
    },
    {
      "pitch": 42,
      "start_time": 0.625,
      "duration": 0.125,
      "velocity": 80
    },
    {
      "pitch": 36,
      "start_time": 0.75,
      "duration": 0.25,
      "velocity": 127
    },
    {
      "pitch": 42,
      "start_time": 0.75,
      "duration": 0.125,
      "velocity": 80
    },
    {
      "pitch": 42,
      "start_time": 0.875,
      "duration": 0.125,
      "velocity": 80
    },
    {
      "pitch": 37,
      "start_time": 1.0,
      "duration": 0.25,
      "velocity": 127
    },
    {
      "pitch": 42,
      "start_time": 1.0,
      "duration": 0.125,
      "velocity": 127
    },
    {
      "pitch": 49,
      "start_time": 1.0108,
      "duration": 1.6491,
      "velocity": 127
    },
    {
      "pitch": 42,
      "start_time": 1.125,
      "duration": 0.125,
      "velocity": 80
    },
    {
      "pitch": 36,
      "start_time": 1.25,
      "duration": 0.25,
      "velocity": 127
    },
    {
      "pitch": 42,
      "start_time": 1.25,
      "duration": 0.125,
      "velocity": 80
    },
    {
      "pitch": 42,
      "start_time": 1.375,
      "duration": 0.125,
      "velocity": 80
    },
    {
      "pitch": 36,
      "start_time": 1.5,
      "duration": 0.25,
      "velocity": 127
    },
    {
      "pitch": 42,
      "start_time": 1.5,
      "duration": 0.125,
      "velocity": 127
    },
    {
      "pitch": 42,
      "start_time": 1.625,
      "duration": 0.125,
      "velocity": 80
    },
    {
      "pitch": 42,
      "start_time": 1.75,
      "duration": 0.125,
      "velocity": 80
    },
    {
      "pitch": 42,
      "start_time": 1.875,
      "duration": 0.125,
      "velocity": 80
    },
    {
      "pitch": 42,
      "start_time": 2.0,
      "duration": 0.125,
      "velocity": 127
    },
    {
      "pitch": 42,
      "start_time": 2.125,
      "duration": 0.125,
      "velocity": 80
    },
    {
      "pitch": 36,
      "start_time": 2.25,
      "duration": 0.25,
      "velocity": 88
    },
    {
      "pitch": 42,
      "start_time": 2.25,
      "duration": 0.125,
      "velocity": 80
    },
    {
      "pitch": 42,
      "start_time": 2.375,
      "duration": 0.125,
      "velocity": 80
    },
    {
      "pitch": 36,
      "start_time": 2.5,
      "duration": 0.5,
      "velocity": 127
    },
    {
      "pitch": 42,
      "start_time": 2.5,
      "duration": 0.125,
      "velocity": 127
    },
    {
      "pitch": 42,
      "start_time": 2.625,
      "duration": 0.125,
      "velocity": 80
    },
    {
      "pitch": 42,
      "start_time": 2.75,
      "duration": 0.125,
      "velocity": 80
    },
    {
      "pitch": 42,
      "start_time": 2.875,
      "duration": 0.125,
      "velocity": 80
    },
    {
      "pitch": 37,
      "start_time": 3.0,
      "duration": 0.25,
      "velocity": 127
    },
    {
      "pitch": 42,
      "start_time": 3.0,
      "duration": 0.125,
      "velocity": 127
    },
    {
      "pitch": 48,
      "start_time": 3.0425,
      "duration": 0.9575,
      "velocity": 127
    },
    {
      "pitch": 42,
      "start_time": 3.125,
      "duration": 0.125,
      "velocity": 80
    },
    {
      "pitch": 36,
      "start_time": 3.25,
      "duration": 0.25,
      "velocity": 127
    },
    {
      "pitch": 42,
      "start_time": 3.25,
      "duration": 0.125,
      "velocity": 80
    },
    {
      "pitch": 42,
      "start_time": 3.375,
      "duration": 0.125,
      "velocity": 80
    },
    {
      "pitch": 42,
      "start_time": 3.5,
      "duration": 0.125,
      "velocity": 127
    },
    {
      "pitch": 42,
      "start_time": 3.625,
      "duration": 0.125,
      "velocity": 80
    },
    {
      "pitch": 36,
      "start_time": 3.75,
      "duration": 0.125,
      "velocity": 57
    },
    {
      "pitch": 42,
      "start_time": 3.75,
      "duration": 0.125,
      "velocity": 80
    },
    {
      "pitch": 36,
      "start_time": 3.875,
      "duration": 0.125,
      "velocity": 84
    },
    {
      "pitch": 42,
      "start_time": 3.875,
      "duration": 0.125,
      "velocity": 80
    },
    {
      "pitch": 36,
      "start_time": 4.0,
      "duration": 0.2604,
      "velocity": 127
    },
    {
      "pitch": 42,
      "start_time": 4.0,
      "duration": 0.125,
      "velocity": 127
    },
    {
      "pitch": 42,
      "start_time": 4.125,
      "duration": 0.125,
      "velocity": 80
    },
    {
      "pitch": 42,
      "start_time": 4.25,
      "duration": 0.125,
      "velocity": 80
    },
    {
      "pitch": 42,
      "start_time": 4.375,
      "duration": 0.125,
      "velocity": 80
    },
    {
      "pitch": 42,
      "start_time": 4.5,
      "duration": 0.125,
      "velocity": 127
    },
    {
      "pitch": 42,
      "start_time": 4.625,
      "duration": 0.125,
      "velocity": 80
    },
    {
      "pitch": 36,
      "start_time": 4.75,
      "duration": 0.25,
      "velocity": 127
    },
    {
      "pitch": 42,
      "start_time": 4.75,
      "duration": 0.125,
      "velocity": 80
    },
    {
      "pitch": 42,
      "start_time": 4.875,
      "duration": 0.125,
      "velocity": 80
    },
    {
      "pitch": 37,
      "start_time": 5.0,
      "duration": 0.25,
      "velocity": 127
    },
    {
      "pitch": 42,
      "start_time": 5.0,
      "duration": 0.125,
      "velocity": 127
    },
    {
      "pitch": 49,
      "start_time": 5.0455,
      "duration": 1.6017,
      "velocity": 127
    },
    {
      "pitch": 42,
      "start_time": 5.125,
      "duration": 0.125,
      "velocity": 80
    },
    {
      "pitch": 36,
      "start_time": 5.25,
      "duration": 0.25,
      "velocity": 88
    },
    {
      "pitch": 42,
      "start_time": 5.25,
      "duration": 0.125,
      "velocity": 80
    },
    {
      "pitch": 42,
      "start_time": 5.375,
      "duration": 0.125,
      "velocity": 80
    },
    {
      "pitch": 36,
      "start_time": 5.5,
      "duration": 0.75,
      "velocity": 127
    },
    {
      "pitch": 42,
      "start_time": 5.5,
      "duration": 0.125,
      "velocity": 127
    },
    {
      "pitch": 42,
      "start_time": 5.625,
      "duration": 0.125,
      "velocity": 80
    },
    {
      "pitch": 42,
      "start_time": 5.75,
      "duration": 0.125,
      "velocity": 80
    },
    {
      "pitch": 42,
      "start_time": 5.875,
      "duration": 0.125,
      "velocity": 80
    },
    {
      "pitch": 42,
      "start_time": 6.0,
      "duration": 0.125,
      "velocity": 127
    },
    {
      "pitch": 42,
      "start_time": 6.125,
      "duration": 0.125,
      "velocity": 80
    },
    {
      "pitch": 36,
      "start_time": 6.25,
      "duration": 0.25,
      "velocity": 127
    },
    {
      "pitch": 42,
      "start_time": 6.25,
      "duration": 0.125,
      "velocity": 80
    },
    {
      "pitch": 42,
      "start_time": 6.375,
      "duration": 0.125,
      "velocity": 80
    },
    {
      "pitch": 36,
      "start_time": 6.5,
      "duration": 0.5,
      "velocity": 127
    },
    {
      "pitch": 42,
      "start_time": 6.5,
      "duration": 0.125,
      "velocity": 127
    },
    {
      "pitch": 42,
      "start_time": 6.625,
      "duration": 0.125,
      "velocity": 80
    },
    {
      "pitch": 42,
      "start_time": 6.75,
      "duration": 0.125,
      "velocity": 80
    },
    {
      "pitch": 42,
      "start_time": 6.875,
      "duration": 0.125,
      "velocity": 80
    },
    {
      "pitch": 48,
      "start_time": 6.9926,
      "duration": 1.0074,
      "velocity": 127
    },
    {
      "pitch": 37,
      "start_time": 7.0,
      "duration": 0.25,
      "velocity": 127
    },
    {
      "pitch": 42,
      "start_time": 7.0,
      "duration": 0.125,
      "velocity": 127
    },
    {
      "pitch": 42,
      "start_time": 7.125,
      "duration": 0.125,
      "velocity": 80
    },
    {
      "pitch": 36,
      "start_time": 7.25,
      "duration": 0.25,
      "velocity": 127
    },
    {
      "pitch": 42,
      "start_time": 7.25,
      "duration": 0.125,
      "velocity": 80
    },
    {
      "pitch": 42,
      "start_time": 7.375,
      "duration": 0.125,
      "velocity": 80
    },
    {
      "pitch": 36,
      "start_time": 7.5,
      "duration": 0.25,
      "velocity": 127
    },
    {
      "pitch": 42,
      "start_time": 7.5,
      "duration": 0.125,
      "velocity": 127
    },
    {
      "pitch": 42,
      "start_time": 7.625,
      "duration": 0.125,
      "velocity": 80
    },
    {
      "pitch": 39,
      "start_time": 7.75,
      "duration": 0.25,
      "velocity": 101
    },
    {
      "pitch": 42,
      "start_time": 7.75,
      "duration": 0.125,
      "velocity": 80
    },
    {
      "pitch": 42,
      "start_time": 7.875,
      "duration": 0.125,
      "velocity": 80
    }
  ]
}