{
  "source": {
    "song": "packs",
    "track_index": 0,
    "track_name": "Trap Drums by Sound Oracle / MIDI Clips / Beacon Kit 70 bpm",
    "slot_index": 0,
    "clip_name": "Trap Drums by Sound Oracle / MIDI Clips / Beacon Kit 70 bpm",
    "mid_file": "/Users/darnold/Music/Ableton/Packs/Trap Drums by Sound Oracle/MIDI Clips/Beacon Kit 70 bpm.alc"
  },
  "meta": {
    "bpm": 70.0,
    "key": "?",
    "scale": "?",
    "length_beats": 8.0,
    "note_count": 90
  },
  "rhythm": {
    "density": 1.781,
    "hit_positions": [
      0.0,
      0.0,
      0.0417,
      0.0833,
      0.125,
      0.1667,
      0.2083,
      0.25,
      0.2917,
      0.3333,
      0.375,
      0.4167,
      0.4583,
      0.5,
      0.5417,
      0.5833,
      0.625,
      0.6667,
      0.7083,
      0.75,
      0.7917,
      0.8333,
      0.875,
      0.9167,
      0.9583,
      1.0,
      1.0,
      1.25,
      1.25,
      1.5,
      1.75,
      2.0,
      2.25,
      2.25,
      2.5,
      2.5,
      2.75,
      3.0,
      3.0,
      3.25,
      3.5,
      3.5208,
      3.5417,
      3.5625,
      3.5833,
      3.6042,
      3.625,
      3.6458,
      3.6667,
      3.6875,
      3.7083,
      3.7292,
      3.75,
      3.7917,
      3.8333,
      3.875,
      3.9167,
      3.9583,
      4.0,
      4.0,
      4.25,
      4.5,
      4.75,
      4.75,
      5.0,
      5.0,
      5.125,
      5.25,
      5.5,
      5.75,
      6.0,
      6.25,
      6.25,
      6.5,
      6.5,
      6.75,
      7.0,
      7.0,
      7.25,
      7.25,
      7.5,
      7.5,
      7.5625,
      7.625,
      7.6875,
      7.75,
      7.75,
      7.8125,
      7.875,
      7.9375
    ],
    "ioi": [
      0.0,
      0.0417,
      0.0416,
      0.0417,
      0.0417,
      0.0416,
      0.0417,
      0.0417,
      0.0416,
      0.0417,
      0.0417,
      0.0416,
      0.0417,
      0.0417,
      0.0416,
      0.0417,
      0.0417,
      0.0416,
      0.0417,
      0.0417,
      0.0416,
      0.0417,
      0.0417,
      0.0416,
      0.0417,
      0.0,
      0.25,
      0.0,
      0.25,
      0.25,
      0.25,
      0.25,
      0.0,
      0.25,
      0.0,
      0.25,
      0.25,
      0.0,
      0.25,
      0.25,
      0.0208,
      0.0209,
      0.0208,
      0.0208,
      0.0209,
      0.0208,
      0.0208,
      0.0209,
      0.0208,
      0.0208,
      0.0209,
      0.0208,
      0.0417,
      0.0416,
      0.0417,
      0.0417,
      0.0416,
      0.0417,
      0.0,
      0.25,
      0.25,
      0.25,
      0.0,
      0.25,
      0.0,
      0.125,
      0.125,
      0.25,
      0.25,
      0.25,
      0.25,
      0.0,
      0.25,
      0.0,
      0.25,
      0.25,
      0.0,
      0.25,
      0.0,
      0.25,
      0.0,
      0.0625,
      0.0625,
      0.0625,
      0.0625,
      0.0,
      0.0625,
      0.0625,
      0.0625,
      0.0625
    ],
    "grid": "16th",
    "euclidean_approx": [
      32,
      32
    ],
    "swing_ratio": 1.225
  },
  "pitch": {
    "notes_used": [
      36,
      37,
      38,
      39
    ],
    "intervals": [
      2,
      0,
      0,
      0,
      0,
      0,
      0,
      0,
      0,
      0,
      0,
      0,
      0,
      0,
      0,
      0,
      0,
      0,
      0,
      0,
      0,
      0,
      0,
      0,
      1,
      1,
      1,
      1,
      0,
      0,
      0,
      1,
      1,
      2,
      2,
      0,
      1,
      1,
      0,
      0,
      0,
      0,
      0,
      0,
      0,
      0,
      0,
      0,
      0,
      0,
      0,
      0,
      0,
      0,
      0,
      0,
      0,
      2,
      2,
      0,
      0,
      2,
      2,
      1,
      1,
      0,
      0,
      0,
      0,
      0,
      1,
      1,
      2,
      2,
      0,
      1,
      1,
      2,
      2,
      0,
      1,
      1,
      0,
      0,
      2,
      2,
      0,
      0,
      0
    ],
    "register": "low",
    "is_melodic": true,
    "pitch_range": 3,
    "pitch_distribution": {
      "36": 7,
      "38": 75,
      "37": 7,
      "39": 1
    }
  },
  "velocity": {
    "mean": 103.2,
    "variance": 1298.5,
    "std": 36.0,
    "accents": [],
    "profile": [
      127,
      127,
      116,
      105,
      94,
      83,
      72,
      61,
      50,
      40,
      29,
      18,
      7,
      11,
      3,
      17,
      30,
      43,
      57,
      70,
      83,
      97,
      110,
      123,
      127,
      127,
      127,
      47,
      127,
      127,
      127,
      127,
      127,
      127,
      127,
      127,
      127,
      127,
      127,
      127,
      127,
      127,
      127,
      127,
      127,
      127,
      127,
      127,
      127,
      127,
      127,
      127,
      84,
      92,
      99,
      106,
      113,
      120,
      127,
      127,
      127,
      127,
      127,
      127,
      127,
      127,
      127,
      127,
      127,
      127,
      127,
      127,
      127,
      127,
      127,
      127,
      127,
      127,
      127,
      127,
      35,
      127,
      47,
      59,
      71,
      81,
      84,
      96,
      108,
      120
    ]
  },
  "notes": [
    {
      "pitch": 36,
      "start_time": 0.0,
      "duration": 0.375,
      "velocity": 127
    },
    {
      "pitch": 38,
      "start_time": 0.0,
      "duration": 0.0417,
      "velocity": 127
    },
    {
      "pitch": 38,
      "start_time": 0.0417,
      "duration": 0.0417,
      "velocity": 116
    },
    {
      "pitch": 38,
      "start_time": 0.0833,
      "duration": 0.0417,
      "velocity": 105
    },
    {
      "pitch": 38,
      "start_time": 0.125,
      "duration": 0.0417,
      "velocity": 94
    },
    {
      "pitch": 38,
      "start_time": 0.1667,
      "duration": 0.0417,
      "velocity": 83
    },
    {
      "pitch": 38,
      "start_time": 0.2083,
      "duration": 0.0417,
      "velocity": 72
    },
    {
      "pitch": 38,
      "start_time": 0.25,
      "duration": 0.0417,
      "velocity": 61
    },
    {
      "pitch": 38,
      "start_time": 0.2917,
      "duration": 0.0417,
      "velocity": 50
    },
    {
      "pitch": 38,
      "start_time": 0.3333,
      "duration": 0.0417,
      "velocity": 40
    },
    {
      "pitch": 38,
      "start_time": 0.375,
      "duration": 0.0417,
      "velocity": 29
    },
    {
      "pitch": 38,
      "start_time": 0.4167,
      "duration": 0.0417,
      "velocity": 18
    },
    {
      "pitch": 38,
      "start_time": 0.4583,
      "duration": 0.0417,
      "velocity": 7
    },
    {
      "pitch": 38,
      "start_time": 0.5,
      "duration": 0.0417,
      "velocity": 11
    },
    {
      "pitch": 38,
      "start_time": 0.5417,
      "duration": 0.0417,
      "velocity": 3
    },
    {
      "pitch": 38,
      "start_time": 0.5833,
      "duration": 0.0417,
      "velocity": 17
    },
    {
      "pitch": 38,
      "start_time": 0.625,
      "duration": 0.0417,
      "velocity": 30
    },
    {
      "pitch": 38,
      "start_time": 0.6667,
      "duration": 0.0417,
      "velocity": 43
    },
    {
      "pitch": 38,
      "start_time": 0.7083,
      "duration": 0.0417,
      "velocity": 57
    },
    {
      "pitch": 38,
      "start_time": 0.75,
      "duration": 0.0417,
      "velocity": 70
    },
    {
      "pitch": 38,
      "start_time": 0.7917,
      "duration": 0.0417,
      "velocity": 83
    },
    {
      "pitch": 38,
      "start_time": 0.8333,
      "duration": 0.0417,
      "velocity": 97
    },
    {
      "pitch": 38,
      "start_time": 0.875,
      "duration": 0.0417,
      "velocity": 110
    },
    {
      "pitch": 38,
      "start_time": 0.9167,
      "duration": 0.0417,
      "velocity": 123
    },
    {
      "pitch": 38,
      "start_time": 0.9583,
      "duration": 0.0417,
      "velocity": 127
    },
    {
      "pitch": 37,
      "start_time": 1.0,
      "duration": 0.25,
      "velocity": 127
    },
    {
      "pitch": 38,
      "start_time": 1.0,
      "duration": 0.25,
      "velocity": 127
    },
    {
      "pitch": 37,
      "start_time": 1.25,
      "duration": 0.25,
      "velocity": 47
    },
    {
      "pitch": 38,
      "start_time": 1.25,
      "duration": 0.25,
      "velocity": 127
    },
    {
      "pitch": 38,
      "start_time": 1.5,
      "duration": 0.25,
      "velocity": 127
    },
    {
      "pitch": 38,
      "start_time": 1.75,
      "duration": 0.25,
      "velocity": 127
    },
    {
      "pitch": 38,
      "start_time": 2.0,
      "duration": 0.25,
      "velocity": 127
    },
    {
      "pitch": 37,
      "start_time": 2.25,
      "duration": 0.125,
      "velocity": 127
    },
    {
      "pitch": 38,
      "start_time": 2.25,
      "duration": 0.25,
      "velocity": 127
    },
    {
      "pitch": 36,
      "start_time": 2.5,
      "duration": 0.25,
      "velocity": 127
    },
    {
      "pitch": 38,
      "start_time": 2.5,
      "duration": 0.25,
      "velocity": 127
    },
    {
      "pitch": 38,
      "start_time": 2.75,
      "duration": 0.25,
      "velocity": 127
    },
    {
      "pitch": 37,
      "start_time": 3.0,
      "duration": 0.6979,
      "velocity": 127
    },
    {
      "pitch": 38,
      "start_time": 3.0,
      "duration": 0.25,
      "velocity": 127
    },
    {
      "pitch": 38,
      "start_time": 3.25,
      "duration": 0.25,
      "velocity": 127
    },
    {
      "pitch": 38,
      "start_time": 3.5,
      "duration": 0.0208,
      "velocity": 127
    },
    {
      "pitch": 38,
      "start_time": 3.5208,
      "duration": 0.0208,
      "velocity": 127
    },
    {
      "pitch": 38,
      "start_time": 3.5417,
      "duration": 0.0208,
      "velocity": 127
    },
    {
      "pitch": 38,
      "start_time": 3.5625,
      "duration": 0.0208,
      "velocity": 127
    },
    {
      "pitch": 38,
      "start_time": 3.5833,
      "duration": 0.0208,
      "velocity": 127
    },
    {
      "pitch": 38,
      "start_time": 3.6042,
      "duration": 0.0208,
      "velocity": 127
    },
    {
      "pitch": 38,
      "start_time": 3.625,
      "duration": 0.0208,
      "velocity": 127
    },
    {
      "pitch": 38,
      "start_time": 3.6458,
      "duration": 0.0208,
      "velocity": 127
    },
    {
      "pitch": 38,
      "start_time": 3.6667,
      "duration": 0.0208,
      "velocity": 127
    },
    {
      "pitch": 38,
      "start_time": 3.6875,
      "duration": 0.0208,
      "velocity": 127
    },
    {
      "pitch": 38,
      "start_time": 3.7083,
      "duration": 0.0208,
      "velocity": 127
    },
    {
      "pitch": 38,
      "start_time": 3.7292,
      "duration": 0.0208,
      "velocity": 127
    },
    {
      "pitch": 38,
      "start_time": 3.75,
      "duration": 0.0417,
      "velocity": 84
    },
    {
      "pitch": 38,
      "start_time": 3.7917,
      "duration": 0.0417,
      "velocity": 92
    },
    {
      "pitch": 38,
      "start_time": 3.8333,
      "duration": 0.0417,
      "velocity": 99
    },
    {
      "pitch": 38,
      "start_time": 3.875,
      "duration": 0.0417,
      "velocity": 106
    },
    {
      "pitch": 38,
      "start_time": 3.9167,
      "duration": 0.0417,
      "velocity": 113
    },
    {
      "pitch": 38,
      "start_time": 3.9583,
      "duration": 0.0417,
      "velocity": 120
    },
    {
      "pitch": 36,
      "start_time": 4.0,
      "duration": 0.375,
      "velocity": 127
    },
    {
      "pitch": 38,
      "start_time": 4.0,
      "duration": 0.25,
      "velocity": 127
    },
    {
      "pitch": 38,
      "start_time": 4.25,
      "duration": 0.25,
      "velocity": 127
    },
    {
      "pitch": 38,
      "start_time": 4.5,
      "duration": 0.25,
      "velocity": 127
    },
    {
      "pitch": 36,
      "start_time": 4.75,
      "duration": 0.0729,
      "velocity": 127
    },
    {
      "pitch": 38,
      "start_time": 4.75,
      "duration": 0.25,
      "velocity": 127
    },
    {
      "pitch": 37,
      "start_time": 5.0,
      "duration": 0.625,
      "velocity": 127
    },
    {
      "pitch": 38,
      "start_time": 5.0,
      "duration": 0.125,
      "velocity": 127
    },
    {
      "pitch": 38,
      "start_time": 5.125,
      "duration": 0.125,
      "velocity": 127
    },
    {
      "pitch": 38,
      "start_time": 5.25,
      "duration": 0.0729,
      "velocity": 127
    },
    {
      "pitch": 38,
      "start_time": 5.5,
      "duration": 0.25,
      "velocity": 127
    },
    {
      "pitch": 38,
      "start_time": 5.75,
      "duration": 0.25,
      "velocity": 127
    },
    {
      "pitch": 38,
      "start_time": 6.0,
      "duration": 0.25,
      "velocity": 127
    },
    {
      "pitch": 37,
      "start_time": 6.25,
      "duration": 0.0625,
      "velocity": 127
    },
    {
      "pitch": 38,
      "start_time": 6.25,
      "duration": 0.25,
      "velocity": 127
    },
    {
      "pitch": 36,
      "start_time": 6.5,
      "duration": 0.25,
      "velocity": 127
    },
    {
      "pitch": 38,
      "start_time": 6.5,
      "duration": 0.25,
      "velocity": 127
    },
    {
      "pitch": 38,
      "start_time": 6.75,
      "duration": 0.25,
      "velocity": 127
    },
    {
      "pitch": 37,
      "start_time": 7.0,
      "duration": 0.5,
      "velocity": 127
    },
    {
      "pitch": 38,
      "start_time": 7.0,
      "duration": 0.25,
      "velocity": 127
    },
    {
      "pitch": 36,
      "start_time": 7.25,
      "duration": 0.25,
      "velocity": 127
    },
    {
      "pitch": 38,
      "start_time": 7.25,
      "duration": 0.25,
      "velocity": 127
    },
    {
      "pitch": 38,
      "start_time": 7.5,
      "duration": 0.0625,
      "velocity": 35
    },
    {
      "pitch": 39,
      "start_time": 7.5,
      "duration": 0.3854,
      "velocity": 127
    },
    {
      "pitch": 38,
      "start_time": 7.5625,
      "duration": 0.0625,
      "velocity": 47
    },
    {
      "pitch": 38,
      "start_time": 7.625,
      "duration": 0.0625,
      "velocity": 59
    },
    {
      "pitch": 38,
      "start_time": 7.6875,
      "duration": 0.0625,
      "velocity": 71
    },
    {
      "pitch": 36,
      "start_time": 7.75,
      "duration": 0.25,
      "velocity": 81
    },
    {
      "pitch": 38,
      "start_time": 7.75,
      "duration": 0.0625,
      "velocity": 84
    },
    {
      "pitch": 38,
      "start_time": 7.8125,
      "duration": 0.0625,
      "velocity": 96
    },
    {
      "pitch": 38,
      "start_time": 7.875,
      "duration": 0.0625,
      "velocity": 108
    },
    {
      "pitch": 38,
      "start_time": 7.9375,
      "duration": 0.0625,
      "velocity": 120
    }
  ]
}